<svg xmlns="http://www.w3.org/2000/svg" width="735" height="370" fill="none"><rect width="734" height="370" x=".61" fill="#F7F7F7" rx="20"/><path fill="#1A1A1A" d="M47.262 88V64.03H68.24V88h-4.352V67.6H51.58V88zm33.914.34q-2.652 0-4.59-1.088t-3.026-3.094q-1.054-2.006-1.054-4.76t1.054-4.726q1.088-2.006 3.026-3.094t4.59-1.088 4.59 1.088a7.38 7.38 0 0 1 3.026 3.094q1.088 1.972 1.088 4.726t-1.088 4.76a7.38 7.38 0 0 1-3.026 3.094q-1.938 1.088-4.59 1.088m0-3.264q2.006 0 3.196-1.394 1.19-1.428 1.19-4.284t-1.19-4.25q-1.19-1.395-3.196-1.394-2.006 0-3.196 1.394-1.19 1.395-1.19 4.25t1.19 4.284q1.19 1.394 3.196 1.394m11.957 3.4-1.326-3.332q1.122-.408 1.87-1.054a4.7 4.7 0 0 0 1.224-1.7q.476-1.054.68-2.584.204-1.564.204-3.706v-5.27h13.668V88h-4.216V74.094h-5.576v2.142q0 3.706-.68 6.222-.68 2.483-2.108 3.944-1.428 1.462-3.74 2.074m20.957 7.242-.986-3.366q1.598-.34 2.686-.782t1.802-1.156 1.19-1.836l.85-2.006-.102 1.666-7.48-17.408h4.522l5.372 13.396h-.986l5.406-13.396h4.284l-7.82 18.122q-.782 1.836-1.7 3.026-.918 1.224-1.972 1.938a8.5 8.5 0 0 1-2.312 1.156q-1.258.408-2.754.646M144.134 88v-6.256q-.952.442-1.972.68a9.4 9.4 0 0 1-2.142.238q-3.774 0-5.644-1.802-1.836-1.802-1.836-5.372V70.83h4.216v4.284q0 2.176.952 3.162.951.952 3.06.952.985 0 1.768-.204a5.4 5.4 0 0 0 1.496-.646V70.83h4.216V88zm15.707.34q-2.244 0-3.944-1.054-1.7-1.088-2.652-3.094t-.952-4.794.952-4.76q.952-2.005 2.652-3.06 1.7-1.088 3.944-1.088 2.176 0 3.808 1.088 1.666 1.055 2.21 2.856h-.374l.374-3.604h4.08q-.102 1.055-.204 2.142-.068 1.088-.068 2.142V88h-4.216l-.034-3.536h.408q-.544 1.769-2.21 2.822t-3.774 1.054m1.19-3.264q2.006 0 3.23-1.394 1.224-1.428 1.224-4.284t-1.224-4.25q-1.224-1.395-3.23-1.394-2.006 0-3.23 1.394-1.224 1.395-1.224 4.25t1.19 4.284q1.224 1.394 3.264 1.394M174.624 88V70.83h3.842v12.988h-1.02l9.758-12.988h3.502V88h-3.842V74.978h1.054L178.126 88zm8.024-18.734q-1.7 0-2.992-.544a5.85 5.85 0 0 1-2.142-1.598q-.85-1.054-1.224-2.482l2.176-.748q.578 1.564 1.598 2.312 1.02.714 2.618.714t2.618-.714 1.666-2.278l2.074.714q-.714 2.278-2.38 3.468-1.632 1.155-4.012 1.156M199.248 88V74.162h-5.882V70.83h16.014v3.332h-5.916V88zm21.029.34q-4.318 0-6.766-2.38t-2.448-6.528q0-2.686 1.054-4.692 1.053-2.006 2.924-3.128 1.903-1.122 4.42-1.122 2.481 0 4.148 1.054 1.665 1.055 2.516 2.958.884 1.904.884 4.454v1.122h-12.512v-2.244h9.486l-.578.476q0-2.38-1.02-3.638-.987-1.258-2.89-1.258-2.109 0-3.264 1.496-1.122 1.496-1.122 4.182v.442q0 2.788 1.36 4.182 1.393 1.36 3.91 1.36 1.461 0 2.72-.374a8 8 0 0 0 2.448-1.292l1.258 2.856q-1.224.986-2.924 1.53a11.8 11.8 0 0 1-3.604.544m26.756 0q-2.244 0-3.944-1.054-1.701-1.088-2.652-3.094t-.952-4.794q0-2.788.952-4.76.951-2.005 2.652-3.06 1.7-1.088 3.944-1.088 2.175 0 3.808 1.088 1.665 1.055 2.21 2.856h-.374l.374-3.604h4.08q-.102 1.055-.204 2.142-.068 1.088-.068 2.142V88h-4.216l-.034-3.536h.408q-.545 1.769-2.21 2.822-1.667 1.054-3.774 1.054m1.19-3.264q2.006 0 3.23-1.394 1.224-1.428 1.224-4.284t-1.224-4.25q-1.224-1.395-3.23-1.394-2.006 0-3.23 1.394-1.224 1.395-1.224 4.25t1.19 4.284q1.224 1.394 3.264 1.394M261.815 88V70.83h4.216v6.732h2.584l5.032-6.732h4.556l-6.324 8.568-.918-1.326q.952.102 1.666.51.749.408 1.394 1.156.681.714 1.326 1.836L278.951 88h-4.522l-2.924-5.168q-.441-.782-.884-1.224a2.4 2.4 0 0 0-.986-.612q-.543-.17-1.326-.17h-2.278V88zm23.097 0V74.162h-5.882V70.83h16.014v3.332h-5.916V88zm12.725 7.718-.986-3.366q1.597-.34 2.686-.782t1.802-1.156 1.19-1.836l.85-2.006-.102 1.666-7.48-17.408h4.522l5.372 13.396h-.986l5.406-13.396h4.284l-7.82 18.122q-.783 1.836-1.7 3.026-.918 1.224-1.972 1.938a8.5 8.5 0 0 1-2.312 1.156q-1.258.408-2.754.646m25.63-7.378q-2.244 0-3.944-1.054-1.7-1.088-2.652-3.094t-.952-4.794.952-4.76q.952-2.005 2.652-3.06 1.7-1.088 3.944-1.088 2.176 0 3.808 1.088 1.666 1.055 2.21 2.856h-.374l.374-3.604h4.08q-.102 1.055-.204 2.142-.068 1.088-.068 2.142V88h-4.216l-.034-3.536h.408q-.544 1.769-2.21 2.822-1.667 1.054-3.774 1.054m1.19-3.264q2.006 0 3.23-1.394 1.224-1.428 1.224-4.284t-1.224-4.25q-1.224-1.395-3.23-1.394-2.006 0-3.23 1.394-1.224 1.395-1.224 4.25t1.19 4.284q1.224 1.394 3.264 1.394m13.151 3.4-1.326-3.332q1.122-.408 1.87-1.054a4.7 4.7 0 0 0 1.224-1.7q.476-1.054.68-2.584.204-1.564.204-3.706v-5.27h13.668V88h-4.216V74.094h-5.576v2.142q0 3.706-.68 6.222-.68 2.483-2.108 3.944-1.428 1.462-3.74 2.074m21.16-.476V70.83h4.216v5.746h4.522q3.434 0 5.168 1.462 1.734 1.428 1.734 4.148 0 1.768-.816 3.094-.816 1.292-2.38 2.006-1.53.714-3.706.714zm4.216-2.788h3.944q1.734 0 2.652-.714.918-.748.918-2.244t-.918-2.176q-.883-.714-2.652-.714h-3.944zM377.96 88V70.83h4.216v6.732h7.752V70.83h4.216V88h-4.216v-7.174h-7.752V88zm21.017 0V70.83h4.216v5.746h4.522q3.435 0 5.168 1.462 1.734 1.428 1.734 4.148 0 1.768-.816 3.094-.816 1.292-2.38 2.006-1.53.714-3.706.714zm4.216-2.788h3.944q1.734 0 2.652-.714.918-.748.918-2.244t-.918-2.176q-.884-.714-2.652-.714h-3.944zM416.759 88V70.83h4.216V88zm17.479.34q-4.318 0-6.766-2.38t-2.448-6.528q0-2.686 1.054-4.692 1.053-2.006 2.924-3.128 1.903-1.122 4.42-1.122 2.481 0 4.148 1.054 1.665 1.055 2.516 2.958.884 1.904.884 4.454v1.122h-12.512v-2.244h9.486l-.578.476q0-2.38-1.02-3.638-.987-1.258-2.89-1.258-2.109 0-3.264 1.496-1.122 1.496-1.122 4.182v.442q0 2.788 1.36 4.182 1.393 1.36 3.91 1.36 1.461 0 2.72-.374a8 8 0 0 0 2.448-1.292l1.258 2.856q-1.224.986-2.924 1.53a11.8 11.8 0 0 1-3.604.544m18.459 4.08v-7.65h1.972q1.02-1.598 1.462-3.74.476-2.176.476-5.304V70.83h13.226v13.94h2.788v7.65h-3.604V88h-12.716v4.42zm5.78-7.616h7.378V74.026h-5.644v2.652q0 2.278-.442 4.454-.441 2.176-1.292 3.672m24.032 3.536q-2.244 0-3.944-1.054-1.7-1.088-2.652-3.094t-.952-4.794.952-4.76q.952-2.005 2.652-3.06 1.7-1.088 3.944-1.088 2.176 0 3.808 1.088 1.666 1.055 2.21 2.856h-.374l.374-3.604h4.08q-.102 1.055-.204 2.142-.068 1.088-.068 2.142V88h-4.216l-.034-3.536h.408q-.544 1.769-2.21 2.822-1.667 1.054-3.774 1.054m1.19-3.264q2.006 0 3.23-1.394 1.224-1.428 1.224-4.284t-1.224-4.25q-1.224-1.395-3.23-1.394-2.006 0-3.23 1.394-1.224 1.395-1.224 4.25t1.19 4.284q1.224 1.394 3.264 1.394M497.292 88V70.83h4.216v6.732h7.752V70.83h4.216V88h-4.216v-7.174h-7.752V88zm21.018 0V70.83h4.216v6.732h7.752V70.83h4.216V88h-4.216v-7.174h-7.752V88zm21.017 0V70.83h4.216v5.746h4.522q3.434 0 5.168 1.462 1.734 1.428 1.734 4.148 0 1.768-.816 3.094-.816 1.292-2.38 2.006-1.53.714-3.706.714zm4.216-2.788h3.944q1.734 0 2.652-.714.918-.748.918-2.244t-.918-2.176q-.884-.714-2.652-.714h-3.944zM557.109 88V70.83h4.216V88zm17.478.34q-4.317 0-6.766-2.38t-2.448-6.528q0-2.686 1.054-4.692t2.924-3.128q1.905-1.122 4.42-1.122 2.483 0 4.148 1.054 1.667 1.055 2.516 2.958.885 1.904.884 4.454v1.122h-12.512v-2.244h9.486l-.578.476q0-2.38-1.02-3.638-.985-1.258-2.89-1.258-2.107 0-3.264 1.496-1.122 1.496-1.122 4.182v.442q0 2.788 1.36 4.182 1.395 1.36 3.91 1.36 1.463 0 2.72-.374a8 8 0 0 0 2.448-1.292l1.258 2.856q-1.224.986-2.924 1.53a11.8 11.8 0 0 1-3.604.544m19.99-.34V70.83h16.082V88h-4.216V74.094h-7.65V88zm28.806.34q-2.652 0-4.59-1.088t-3.026-3.094q-1.054-2.006-1.054-4.76t1.054-4.726q1.088-2.006 3.026-3.094t4.59-1.088 4.59 1.088a7.38 7.38 0 0 1 3.026 3.094q1.088 1.972 1.088 4.726t-1.088 4.76a7.38 7.38 0 0 1-3.026 3.094q-1.938 1.088-4.59 1.088m0-3.264q2.006 0 3.196-1.394 1.19-1.428 1.19-4.284t-1.19-4.25q-1.19-1.395-3.196-1.394-2.006 0-3.196 1.394-1.19 1.395-1.19 4.25t1.19 4.284q1.19 1.394 3.196 1.394M47.024 131v-17.17h9.146q3.23 0 4.726 1.19 1.496 1.156 1.496 3.298 0 1.632-1.088 2.72-1.087 1.088-2.89 1.36v-.476q2.21.136 3.4 1.292t1.19 2.992q0 2.21-1.7 3.502T56.476 131zm3.944-2.618h5.066q1.497 0 2.278-.612.816-.612.816-1.802t-.816-1.802q-.781-.612-2.278-.612h-5.066zm0-7.446h4.692q1.36 0 2.108-.578.748-.612.748-1.7t-.748-1.666-2.108-.578h-4.692zM73.48 131.34q-2.243 0-3.944-1.054-1.7-1.088-2.652-3.094t-.952-4.794.952-4.76q.953-2.005 2.652-3.06 1.7-1.088 3.944-1.088 2.175 0 3.808 1.088 1.665 1.055 2.21 2.856h-.374l.374-3.604h4.08q-.102 1.055-.204 2.142a34 34 0 0 0-.068 2.142V131H79.09l-.034-3.536h.408q-.545 1.768-2.21 2.822t-3.774 1.054m1.19-3.264q2.006 0 3.23-1.394 1.224-1.428 1.224-4.284t-1.224-4.25-3.23-1.394q-2.007 0-3.23 1.394-1.224 1.394-1.224 4.25t1.19 4.284q1.224 1.394 3.264 1.394M88.263 131v-17.17h3.978v13.906h6.052V113.83h3.944v13.906h6.052V113.83h3.978V131zm28.82 0v-17.17h3.842v12.988h-1.02l9.758-12.988h3.502V131h-3.842v-13.022h1.054L120.585 131zm20.918 0v-17.17h3.536l5.916 10.268 5.916-10.268h3.536V131h-3.74v-12.41h.782l-5.508 9.622h-1.972l-5.508-9.622h.782V131zm36.776 0v-13.838h-5.882v-3.332h16.014v3.332h-5.916V131zm20.485.34q-2.652 0-4.59-1.088t-3.026-3.094q-1.054-2.006-1.054-4.76t1.054-4.726q1.088-2.006 3.026-3.094t4.59-1.088 4.59 1.088a7.38 7.38 0 0 1 3.026 3.094q1.088 1.972 1.088 4.726t-1.088 4.76a7.38 7.38 0 0 1-3.026 3.094q-1.938 1.088-4.59 1.088m0-3.264q2.006 0 3.196-1.394 1.19-1.428 1.19-4.284t-1.19-4.25-3.196-1.394-3.196 1.394-1.19 4.25 1.19 4.284q1.19 1.394 3.196 1.394M207.993 131v-17.17h9.146q3.23 0 4.726 1.19 1.496 1.156 1.496 3.298 0 1.632-1.088 2.72t-2.89 1.36v-.476q2.21.136 3.4 1.292t1.19 2.992q0 2.21-1.7 3.502T217.445 131zm3.944-2.618h5.066q1.496 0 2.278-.612.816-.612.816-1.802t-.816-1.802q-.782-.612-2.278-.612h-5.066zm0-7.446h4.692q1.36 0 2.108-.578.748-.612.748-1.7t-.748-1.666-2.108-.578h-4.692zm22.512 10.404q-2.244 0-3.944-1.054-1.701-1.088-2.652-3.094t-.952-4.794q0-2.788.952-4.76.951-2.005 2.652-3.06 1.7-1.088 3.944-1.088 2.175 0 3.808 1.088 1.665 1.055 2.21 2.856h-.374l.374-3.604h4.08q-.102 1.055-.204 2.142a34 34 0 0 0-.068 2.142V131h-4.216l-.034-3.536h.408q-.545 1.768-2.21 2.822-1.667 1.054-3.774 1.054m1.19-3.264q2.006 0 3.23-1.394 1.224-1.428 1.224-4.284t-1.224-4.25-3.23-1.394-3.23 1.394-1.224 4.25 1.19 4.284q1.224 1.394 3.264 1.394m13.728 10.268v-20.23a34 34 0 0 0-.272-4.284h4.114l.374 3.604h-.374q.51-1.802 2.142-2.856 1.667-1.088 3.842-1.088 2.279 0 3.978 1.088 1.701 1.055 2.652 3.06.952 1.972.952 4.76t-.952 4.794-2.652 3.094q-1.7 1.054-3.978 1.054-2.142 0-3.774-1.054t-2.176-2.822h.374v10.88zm8.636-10.268q2.04 0 3.264-1.394 1.224-1.428 1.224-4.284t-1.224-4.25-3.264-1.394q-2.006 0-3.23 1.394t-1.224 4.25 1.224 4.284q1.224 1.394 3.23 1.394m19.543 3.264q-2.243 0-3.944-1.054-1.7-1.088-2.652-3.094t-.952-4.794.952-4.76q.952-2.005 2.652-3.06 1.7-1.088 3.944-1.088 2.176 0 3.808 1.088 1.667 1.055 2.21 2.856h-.374l.374-3.604h4.08q-.102 1.055-.204 2.142a35 35 0 0 0-.068 2.142V131h-4.216l-.034-3.536h.408q-.543 1.768-2.21 2.822-1.665 1.054-3.774 1.054m1.19-3.264q2.006 0 3.23-1.394 1.224-1.428 1.224-4.284t-1.224-4.25-3.23-1.394-3.23 1.394-1.224 4.25 1.19 4.284q1.224 1.394 3.264 1.394M292.329 131v-17.17h3.536l5.916 10.268 5.916-10.268h3.536V131h-3.74v-12.41h.782l-5.508 9.622h-1.972l-5.508-9.622h.782V131zm33.07 0v-17.17h4.216v6.732h7.752v-6.732h4.216V131h-4.216v-7.174h-7.752V131zm27.784.34q-2.244 0-3.944-1.054-1.7-1.088-2.652-3.094t-.952-4.794.952-4.76q.952-2.005 2.652-3.06 1.7-1.088 3.944-1.088 2.176 0 3.808 1.088 1.666 1.055 2.21 2.856h-.374l.374-3.604h4.08q-.102 1.055-.204 2.142a35 35 0 0 0-.068 2.142V131h-4.216l-.034-3.536h.408q-.544 1.768-2.21 2.822-1.667 1.054-3.774 1.054m1.19-3.264q2.006 0 3.23-1.394 1.224-1.428 1.224-4.284t-1.224-4.25-3.23-1.394-3.23 1.394-1.224 4.25 1.19 4.284q1.224 1.394 3.264 1.394M377.296 131v-17.17h3.536l5.916 10.268 5.916-10.268h3.536V131h-3.74v-12.41h.782l-5.508 9.622h-1.972l-5.508-9.622h.782V131zm30.506.34q-2.244 0-3.944-1.054-1.7-1.088-2.652-3.094t-.952-4.794.952-4.76q.953-2.005 2.652-3.06 1.7-1.088 3.944-1.088 2.176 0 3.808 1.088 1.666 1.055 2.21 2.856h-.374l.374-3.604h4.08q-.102 1.055-.204 2.142a35 35 0 0 0-.068 2.142V131h-4.216l-.034-3.536h.408q-.544 1.768-2.21 2.822-1.667 1.054-3.774 1.054m1.19-3.264q2.006 0 3.23-1.394 1.224-1.428 1.224-4.284t-1.224-4.25-3.23-1.394-3.23 1.394-1.224 4.25 1.19 4.284q1.224 1.394 3.264 1.394m13.729 10.268v-20.23a35 35 0 0 0-.272-4.284h4.114l.374 3.604h-.374q.51-1.802 2.142-2.856 1.666-1.088 3.842-1.088 2.279 0 3.978 1.088 1.7 1.055 2.652 3.06.952 1.972.952 4.76t-.952 4.794-2.652 3.094q-1.7 1.054-3.978 1.054-2.142 0-3.774-1.054t-2.176-2.822h.374v10.88zm8.636-10.268q2.04 0 3.264-1.394 1.224-1.428 1.224-4.284t-1.224-4.25-3.264-1.394q-2.006 0-3.23 1.394t-1.224 4.25 1.224 4.284q1.224 1.394 3.23 1.394M444.134 131v-17.17h4.216v6.732h2.584l5.032-6.732h4.556l-6.324 8.568-.918-1.326q.952.102 1.666.51a5 5 0 0 1 1.394 1.156q.68.714 1.326 1.836L461.27 131h-4.522l-2.924-5.168q-.443-.782-.884-1.224a2.4 2.4 0 0 0-.986-.612q-.544-.17-1.326-.17h-2.278V131zm27.822.34q-4.317 0-6.766-2.38t-2.448-6.528q0-2.687 1.054-4.692t2.924-3.128q1.905-1.122 4.42-1.122 2.483 0 4.148 1.054 1.667 1.055 2.516 2.958.884 1.904.884 4.454v1.122h-12.512v-2.244h9.486l-.578.476q0-2.38-1.02-3.638-.985-1.258-2.89-1.258-2.107 0-3.264 1.496-1.122 1.496-1.122 4.182v.442q0 2.788 1.36 4.182 1.395 1.36 3.91 1.36 1.463 0 2.72-.374a8 8 0 0 0 2.448-1.292l1.258 2.856q-1.224.986-2.924 1.53a11.7 11.7 0 0 1-3.604.544m14.366-.34v-13.838h-5.882v-3.332h16.014v3.332h-5.916V131zm12.763 0v-17.17h16.082V131h-4.216v-13.906h-7.65V131zm20.476.476-1.326-3.332q1.122-.408 1.87-1.054a4.7 4.7 0 0 0 1.224-1.7q.476-1.054.68-2.584.204-1.564.204-3.706v-5.27h13.668V131h-4.216v-13.906h-5.576v2.142q0 3.707-.68 6.222-.68 2.482-2.108 3.944t-3.74 2.074m29.593-.136q-4.318 0-6.766-2.38t-2.448-6.528q0-2.687 1.054-4.692 1.053-2.006 2.924-3.128 1.903-1.122 4.42-1.122 2.481 0 4.148 1.054 1.665 1.055 2.516 2.958.884 1.904.884 4.454v1.122h-12.512v-2.244h9.486l-.578.476q0-2.38-1.02-3.638-.987-1.258-2.89-1.258-2.109 0-3.264 1.496-1.122 1.496-1.122 4.182v.442q0 2.788 1.36 4.182 1.393 1.36 3.91 1.36 1.461 0 2.72-.374a8 8 0 0 0 2.448-1.292l1.258 2.856q-1.224.986-2.924 1.53a11.8 11.8 0 0 1-3.604.544m10.659-.34v-17.17h3.842v12.988h-1.02l9.758-12.988h3.502V131h-3.842v-13.022h1.054L563.315 131zm8.024-18.734q-1.7 0-2.992-.544a5.85 5.85 0 0 1-2.142-1.598q-.849-1.054-1.224-2.482l2.176-.748q.579 1.564 1.598 2.312 1.02.714 2.618.714t2.618-.714 1.666-2.278l2.074.714q-.714 2.278-2.38 3.468-1.632 1.156-4.012 1.156m20.918 19.074q-2.652 0-4.658-1.088a7.6 7.6 0 0 1-3.06-3.094q-1.088-2.04-1.088-4.828t1.088-4.76a7.65 7.65 0 0 1 3.094-3.026q1.972-1.054 4.624-1.054 1.7 0 3.298.544 1.632.51 2.652 1.496l-1.292 2.958a5.9 5.9 0 0 0-2.074-1.258 6 6 0 0 0-2.21-.442q-2.277 0-3.57 1.428-1.257 1.428-1.258 4.148 0 2.72 1.258 4.182 1.293 1.462 3.57 1.462a6.4 6.4 0 0 0 2.176-.408 6.3 6.3 0 0 0 2.108-1.258l1.292 2.924q-1.053.986-2.686 1.53a10 10 0 0 1-3.264.544m18.006 0q-4.318 0-6.766-2.38t-2.448-6.528q0-2.687 1.054-4.692t2.924-3.128q1.904-1.122 4.42-1.122 2.482 0 4.148 1.054t2.516 2.958q.884 1.904.884 4.454v1.122h-12.512v-2.244h9.486l-.578.476q0-2.38-1.02-3.638-.986-1.258-2.89-1.258-2.108 0-3.264 1.496-1.122 1.496-1.122 4.182v.442q0 2.788 1.36 4.182 1.394 1.36 3.91 1.36 1.462 0 2.72-.374a8 8 0 0 0 2.448-1.292l1.258 2.856q-1.224.986-2.924 1.53a11.8 11.8 0 0 1-3.604.544"/><rect width="142" height="44" x="44.61" y="165" fill="#fff" rx="9.6"/><circle cx="73.61" cy="187" r="14.4" fill="#4092F7" opacity=".2"/><rect width="18" height="18" x="64.61" y="178" fill="#4092F7" opacity=".4" rx="9"/><rect width="17.04" height="17.04" x="65.09" y="178.48" stroke="#4092F7" rx="8.52"/><circle cx="73.731" cy="186.64" r="2.16" fill="#fff" stroke="#1261C2"/><path fill="#000" d="M100.678 194.173q-1.747 0-3.13-.442-1.363-.46-2.266-1.248l.672-1.497a6.6 6.6 0 0 0 2.036 1.132q1.113.384 2.572.384 1.824 0 2.669-.595.864-.595.864-1.785 0-1.114-.729-1.652-.73-.537-2.228-.537h-3.417v-1.594h3.129q1.44 0 2.17-.537.749-.558.749-1.613 0-1.037-.787-1.632t-2.4-.595q-1.23 0-2.324.364a6.1 6.1 0 0 0-1.977 1.095l-.691-1.498q.901-.788 2.265-1.209a9.8 9.8 0 0 1 2.88-.423q2.477 0 3.725.999 1.267.998 1.267 2.668 0 1.248-.749 2.112-.748.846-2.035 1.133v-.288q1.44.211 2.266 1.075.845.864.845 2.266 0 1.21-.596 2.093-.595.883-1.785 1.363-1.19.46-2.995.461m11.624 0q-1.287 0-2.246-.595-.96-.596-1.498-1.728-.519-1.134-.518-2.688 0-1.575.518-2.688.538-1.114 1.498-1.709.96-.615 2.246-.615 1.267 0 2.208.634a3 3 0 0 1 1.248 1.728h-.211l.192-2.189h1.881l-.115 1.191q-.038.576-.038 1.132V194h-1.939v-2.15h.211a2.97 2.97 0 0 1-1.267 1.708q-.942.615-2.17.615m.48-1.517q1.248 0 1.997-.883.768-.883.768-2.611t-.768-2.592q-.749-.884-1.997-.884-1.267 0-2.035.884-.749.864-.749 2.592t.749 2.611 2.035.883m7.663 1.344v-9.677h1.92v3.955h1.67l3.014-3.955h2.112l-3.609 4.762-.48-.615q.556.058.96.288.403.211.787.634t.787 1.114l2.016 3.494h-2.073l-1.728-2.957a3.7 3.7 0 0 0-.557-.768 1.3 1.3 0 0 0-.615-.384 2.7 2.7 0 0 0-.844-.115h-1.44V194zm14.376.173q-1.287 0-2.247-.595-.96-.596-1.497-1.728-.519-1.134-.519-2.688 0-1.575.519-2.688.537-1.114 1.497-1.709.96-.615 2.247-.615 1.268 0 2.208.634a3 3 0 0 1 1.248 1.728h-.211l.192-2.189h1.881l-.115 1.191a17 17 0 0 0-.038 1.132V194h-1.94v-2.15h.212a2.97 2.97 0 0 1-1.268 1.708q-.94.615-2.169.615m.48-1.517q1.248 0 1.997-.883.768-.883.768-2.611t-.768-2.592q-.75-.884-1.997-.884-1.267 0-2.035.884-.75.864-.749 2.592 0 1.728.749 2.611.748.883 2.035.883m11.022 1.517a9 9 0 0 1-2.38-.307q-1.114-.327-1.824-.922l.595-1.306a5 5 0 0 0 1.632.845 7 7 0 0 0 1.977.269q1.326 0 1.92-.384.615-.403.615-1.133 0-.71-.499-1.075-.5-.365-1.46-.365h-2.38v-1.382h2.188q.864 0 1.344-.365.48-.364.48-1.018 0-.69-.556-1.075-.558-.384-1.728-.384a6.3 6.3 0 0 0-1.824.25 5.9 5.9 0 0 0-1.575.749l-.576-1.248a5.3 5.3 0 0 1 1.863-.884 9 9 0 0 1 2.323-.288q1.881 0 2.861.711.978.691.979 1.997 0 .901-.615 1.536-.595.633-1.612.768v-.25q1.17.057 1.862.71.71.634.71 1.69 0 1.305-1.113 2.093-1.095.768-3.207.768m6.578-.173v-9.677h1.92v3.379h2.745q1.901 0 2.861.807.96.787.96 2.304 0 .979-.441 1.709-.442.71-1.306 1.094-.844.384-2.074.384zm1.92-1.325h2.534q1.095 0 1.651-.441.576-.462.576-1.402 0-.941-.576-1.363-.556-.442-1.651-.442h-2.534zM162.75 194v-9.677h1.92V194z"/><rect width="254" height="44" x="196.61" y="165" fill="#fff" rx="9.6"/><circle cx="225.61" cy="187" r="14.4" fill="#4092F7" opacity=".2"/><rect width="18" height="18" x="216.61" y="178" fill="#4092F7" opacity=".4" rx="9"/><rect width="17.04" height="17.04" x="217.09" y="178.48" stroke="#4092F7" rx="8.52"/><circle cx="225.731" cy="186.64" r="2.16" fill="#fff" stroke="#1261C2"/><path fill="#000" d="M248.204 194v-13.536h8.928v1.651h-6.931V194zm12.928.173q-2.342 0-3.686-1.325t-1.344-3.667q0-1.517.576-2.65.596-1.132 1.632-1.747 1.056-.633 2.438-.634 1.364 0 2.285.576.922.576 1.402 1.632.48 1.038.48 2.458v.614h-7.296v-1.113h5.971l-.326.249q0-1.44-.653-2.227-.634-.806-1.843-.806-1.344 0-2.074.941-.73.921-.73 2.553v.192q0 1.709.826 2.573.845.864 2.381.864.845 0 1.574-.23a4.4 4.4 0 0 0 1.421-.807l.634 1.325a4.7 4.7 0 0 1-1.632.922 6.7 6.7 0 0 1-2.036.307m10.38 0q-1.44 0-2.496-.595a4.18 4.18 0 0 1-1.632-1.728q-.576-1.134-.576-2.688 0-1.556.576-2.669a4.03 4.03 0 0 1 1.632-1.728q1.056-.615 2.496-.615t2.496.615a4 4 0 0 1 1.652 1.728q.594 1.113.595 2.669 0 1.554-.595 2.688a4.14 4.14 0 0 1-1.652 1.728q-1.056.595-2.496.595m0-1.517q1.268 0 2.016-.883.75-.883.749-2.611 0-1.728-.749-2.592-.748-.884-2.016-.884-1.248 0-1.996.884-.75.864-.749 2.592 0 1.728.729 2.611.75.883 2.016.883m7.139 1.344v-9.677h6.969v1.555h-5.03V194zm8.814 4.147v-11.501q0-.556-.057-1.132a40 40 0 0 0-.096-1.191h1.881l.192 2.189h-.211a3.02 3.02 0 0 1 1.229-1.728q.94-.633 2.227-.634 1.286 0 2.246.615.96.595 1.479 1.709.537 1.113.537 2.688 0 1.554-.537 2.688-.519 1.132-1.479 1.728-.96.595-2.246.595-1.268 0-2.208-.615a3.03 3.03 0 0 1-1.229-1.708h.211v6.297zm4.685-5.491q1.268 0 2.016-.883.768-.883.768-2.611t-.768-2.592q-.748-.884-2.016-.884-1.267 0-2.035.884-.749.864-.749 2.592t.749 2.611q.768.883 2.035.883m10.946 1.517q-1.287 0-2.247-.595-.96-.596-1.497-1.728-.519-1.134-.519-2.688 0-1.575.519-2.688.537-1.114 1.497-1.709.96-.615 2.247-.615 1.268 0 2.208.634a3 3 0 0 1 1.248 1.728h-.211l.192-2.189h1.881l-.115 1.191a17 17 0 0 0-.038 1.132V194h-1.94v-2.15h.212a2.97 2.97 0 0 1-1.268 1.708q-.94.615-2.169.615m.48-1.517q1.247 0 1.997-.883.768-.883.768-2.611t-.768-2.592q-.75-.884-1.997-.884-1.267 0-2.035.884-.75.864-.749 2.592 0 1.728.749 2.611.748.883 2.035.883m13.269 5.491v-6.182h.192q-.288 1.075-1.018 1.651-.71.557-1.747.557a2.96 2.96 0 0 1-1.843-.615q-.807-.613-1.248-1.728-.442-1.132-.442-2.668 0-1.556.442-2.669.441-1.114 1.229-1.728a3 3 0 0 1 1.862-.615q1.037 0 1.747.576.73.576 1.018 1.613h-.192v-6.47h1.92v6.47h-.192q.308-1.037 1.017-1.613.71-.576 1.748-.576 1.055 0 1.862.615.806.613 1.229 1.728.441 1.113.441 2.669 0 1.536-.441 2.668-.423 1.114-1.229 1.728-.788.615-1.862.615-1.018 0-1.748-.557-.71-.576-1.017-1.651h.192v6.182zm-2.074-5.453q.98 0 1.536-.883.576-.902.576-2.649 0-1.728-.576-2.631-.556-.902-1.536-.902t-1.555.902q-.557.903-.557 2.631 0 1.747.557 2.649.576.883 1.555.883m6.067 0q.98 0 1.536-.883.576-.902.576-2.649 0-1.728-.576-2.631t-1.536-.902q-.978 0-1.536.902-.556.903-.556 2.631 0 1.747.556 2.649.558.883 1.536.883m6.45 1.306v-9.677h1.767v7.815h-.538l5.837-7.815h1.613V194h-1.747v-7.834h.556L328.901 194zm10.801 0 1.516-2.611q.366-.634.922-1.018.576-.403 1.171-.403h.346l-.019.192q-1.652 0-2.573-.749-.922-.749-.922-2.15 0-1.402.922-2.17.921-.768 2.707-.768h4.531V194h-1.785v-3.59h-1.287q-.729 0-1.248.364a2.9 2.9 0 0 0-.825.96L340.239 194zm4.416-4.896h2.4v-3.475h-2.4q-1.076 0-1.613.461-.519.46-.519 1.267 0 .844.519 1.305.537.442 1.613.442m15.575 5.069a9 9 0 0 1-2.381-.307q-1.115-.327-1.824-.922l.595-1.306a5.1 5.1 0 0 0 1.632.845 7 7 0 0 0 1.978.269q1.325 0 1.92-.384.614-.403.614-1.133 0-.71-.499-1.075-.5-.365-1.459-.365h-2.381v-1.382h2.189q.864 0 1.344-.365.48-.364.48-1.018 0-.69-.557-1.075-.557-.384-1.728-.384a6.3 6.3 0 0 0-1.824.25 5.9 5.9 0 0 0-1.575.749l-.576-1.248a5.3 5.3 0 0 1 1.863-.884 9 9 0 0 1 2.323-.288q1.881 0 2.861.711.98.691.979 1.997a2.13 2.13 0 0 1-.614 1.536q-.596.633-1.613.768v-.25q1.171.057 1.862.71.711.634.711 1.69 0 1.305-1.114 2.093-1.095.768-3.206.768m10.359 0q-1.286 0-2.246-.595-.96-.596-1.498-1.728-.518-1.134-.518-2.688 0-1.575.518-2.688.538-1.114 1.498-1.709.96-.615 2.246-.615 1.267 0 2.208.634a3 3 0 0 1 1.248 1.728h-.211l.192-2.189h1.882l-.115 1.191a17 17 0 0 0-.039 1.132V194h-1.939v-2.15h.211a2.97 2.97 0 0 1-1.267 1.708q-.94.615-2.17.615m.48-1.517q1.248 0 1.997-.883.768-.883.768-2.611t-.768-2.592q-.749-.884-1.997-.884-1.267 0-2.035.884-.749.864-.749 2.592t.749 2.611 2.035.883m7.663 1.344v-9.677h1.92v3.955h1.67l3.015-3.955h2.112l-3.61 4.762-.48-.615q.556.058.96.288.403.211.787.634t.788 1.114L385.76 194h-2.074l-1.728-2.957a3.7 3.7 0 0 0-.557-.768 1.3 1.3 0 0 0-.614-.384 2.7 2.7 0 0 0-.845-.115h-1.44V194zm14.376.173q-1.286 0-2.246-.595-.96-.596-1.498-1.728-.518-1.134-.518-2.688 0-1.575.518-2.688.538-1.114 1.498-1.709.96-.615 2.246-.615 1.267 0 2.208.634a3 3 0 0 1 1.248 1.728h-.211l.192-2.189h1.882l-.116 1.191q-.038.576-.038 1.132V194h-1.939v-2.15h.211a2.97 2.97 0 0 1-1.267 1.708q-.941.615-2.17.615m.48-1.517q1.248 0 1.997-.883.768-.883.768-2.611t-.768-2.592q-.749-.884-1.997-.884-1.267 0-2.035.884-.749.864-.749 2.592t.749 2.611 2.035.883m11.023 1.517a9 9 0 0 1-2.381-.307q-1.113-.327-1.824-.922l.595-1.306a5.1 5.1 0 0 0 1.632.845 7 7 0 0 0 1.978.269q1.325 0 1.92-.384.614-.403.614-1.133 0-.71-.499-1.075-.5-.365-1.459-.365h-2.381v-1.382h2.189q.864 0 1.344-.365.48-.364.48-1.018 0-.69-.557-1.075-.556-.384-1.728-.384a6.3 6.3 0 0 0-1.824.25 5.9 5.9 0 0 0-1.574.749l-.576-1.248q.786-.596 1.862-.884a9 9 0 0 1 2.323-.288q1.882 0 2.861.711.98.691.979 1.997a2.13 2.13 0 0 1-.614 1.536q-.596.633-1.613.768v-.25q1.172.057 1.862.71.711.634.711 1.69 0 1.305-1.114 2.093-1.094.768-3.206.768m10.801 0q-1.44 0-2.496-.595a4.18 4.18 0 0 1-1.632-1.728q-.576-1.134-.576-2.688 0-1.556.576-2.669a4.03 4.03 0 0 1 1.632-1.728q1.056-.615 2.496-.615t2.496.615a4 4 0 0 1 1.652 1.728q.594 1.113.595 2.669 0 1.554-.595 2.688a4.14 4.14 0 0 1-1.652 1.728q-1.056.595-2.496.595m0-1.517q1.268 0 2.016-.883.75-.883.749-2.611 0-1.728-.749-2.592-.748-.884-2.016-.884-1.248 0-1.996.884-.75.864-.749 2.592 0 1.728.729 2.611.75.883 2.016.883m7.139 1.344v-9.677h4.877q1.746 0 2.572.672.846.652.845 1.863 0 .94-.633 1.555-.615.614-1.632.749v-.25q1.21.057 1.9.71.692.654.692 1.69 0 1.248-.941 1.978-.922.71-2.631.71zm1.824-1.248h3.072q.94 0 1.44-.384.5-.404.499-1.152 0-.749-.499-1.133-.5-.384-1.44-.384h-3.072zm0-4.301h2.861q.864 0 1.344-.384t.48-1.056q0-.691-.48-1.056-.48-.384-1.344-.384h-2.861z"/><rect width="146" height="44" x="460.61" y="165" fill="#fff" rx="9.6"/><circle cx="489.61" cy="187" r="14.4" fill="#4092F7" opacity=".2"/><rect width="18" height="18" x="480.61" y="178" fill="#4092F7" opacity=".4" rx="9"/><rect width="17.04" height="17.04" x="481.09" y="178.48" stroke="#4092F7" rx="8.52"/><circle cx="489.731" cy="186.64" r="2.16" fill="#fff" stroke="#1261C2"/><path fill="#000" d="M512.204 194v-13.536h5.645q2.188 0 3.36.922 1.19.921 1.19 2.592 0 1.248-.749 2.092-.749.846-2.054 1.133v-.288q1.498.192 2.323 1.056.826.864.826 2.285 0 1.805-1.229 2.784-1.21.96-3.418.96zm1.939-1.555h3.744q1.363 0 2.131-.519.788-.518.788-1.747 0-1.228-.788-1.747-.768-.519-2.131-.518h-3.744zm0-6.067h3.399q1.458 0 2.188-.557.73-.556.73-1.632t-.73-1.632-2.188-.557h-3.399zm11.07 7.622v-9.677h1.92v3.379h2.746q1.9 0 2.861.807.96.787.96 2.304 0 .979-.442 1.709-.441.71-1.305 1.094-.846.384-2.074.384zm1.92-1.325h2.535q1.094 0 1.651-.441.576-.462.576-1.402 0-.941-.576-1.363-.557-.442-1.651-.442h-2.535zm7.93 1.325v-9.677h1.92V194zm4.813 0v-9.677h1.92v3.955h1.67l3.015-3.955h2.112l-3.61 4.762-.48-.615q.557.058.96.288.403.211.787.634.385.423.787 1.114l2.016 3.494h-2.073l-1.728-2.957a3.7 3.7 0 0 0-.557-.768 1.3 1.3 0 0 0-.614-.384 2.7 2.7 0 0 0-.845-.115h-1.44V194zm10.382 4.358-.46-1.574q.901-.192 1.497-.461.615-.269 1.018-.71.403-.423.691-1.095l.48-1.132-.038.787-4.205-9.85h2.073l3.264 8.064h-.518l3.264-8.064h1.997l-4.435 10.368q-.423.96-.903 1.613a4.8 4.8 0 0 1-1.037 1.056q-.556.403-1.228.634a9.4 9.4 0 0 1-1.46.364m10.73-4.358v-9.677h8.679V194h-1.92v-8.16h-4.839V194zm11.588 0v-9.677h1.92v3.379h2.745q1.902 0 2.861.807.96.787.96 2.304 0 .979-.441 1.709-.442.71-1.306 1.094-.844.384-2.074.384zm1.92-1.325h2.534q1.095 0 1.651-.441.576-.462.576-1.402 0-.941-.576-1.363-.556-.442-1.651-.442h-2.534zm7.929 1.325v-9.677h1.92V194z"/><rect width="312" height="44" x="44.61" y="219" fill="#fff" rx="9.6"/><circle cx="73.61" cy="241" r="14.4" fill="#4092F7" opacity=".2"/><rect width="18" height="18" x="64.61" y="232" fill="#4092F7" opacity=".4" rx="9"/><rect width="17.04" height="17.04" x="65.09" y="232.48" stroke="#4092F7" rx="8.52"/><circle cx="73.731" cy="240.64" r="2.16" fill="#fff" stroke="#1261C2"/><path fill="#000" d="M100.774 248.173q-1.632 0-2.957-.403-1.325-.423-2.304-1.191l.672-1.574q.653.5 1.344.825.71.326 1.497.5.806.153 1.748.153 1.613 0 2.361-.576.768-.576.768-1.517 0-.805-.537-1.248-.518-.441-1.844-.71l-2.092-.422q-1.863-.384-2.784-1.248-.903-.884-.903-2.4 0-1.23.653-2.151t1.805-1.421q1.171-.498 2.726-.499 1.44 0 2.65.423 1.21.403 2.035 1.209l-.653 1.517a5.7 5.7 0 0 0-1.843-1.094q-.98-.365-2.227-.365-1.479 0-2.323.614-.825.615-.826 1.671 0 .844.518 1.324.538.48 1.767.73l2.093.403q1.939.404 2.86 1.248.922.826.922 2.285 0 1.172-.634 2.054-.614.884-1.766 1.383-1.152.48-2.726.48m7.58-.173v-13.536h8.87v1.594h-6.931v4.262h6.49v1.613h-6.49v4.454h6.931V248zm10.845-6.778q0-2.13.749-3.686.749-1.555 2.17-2.4 1.44-.845 3.417-.845 1.959 0 3.38.845t2.188 2.4q.788 1.555.788 3.667 0 2.131-.788 3.706a5.7 5.7 0 0 1-2.208 2.419q-1.42.845-3.36.845-1.977 0-3.398-.845-1.42-.864-2.189-2.419-.749-1.575-.749-3.687m2.093 0q0 2.459 1.075 3.84 1.075 1.383 3.168 1.383 2.036 0 3.149-1.363 1.114-1.382 1.114-3.86t-1.114-3.84q-1.094-1.363-3.149-1.363-2.092 0-3.168 1.363-1.075 1.363-1.075 3.84m13.081 2.285v-1.555h5.626v1.555zm12.204 4.666q-1.286 0-2.246-.595-.96-.596-1.498-1.728-.518-1.134-.518-2.688 0-1.575.518-2.688.537-1.114 1.498-1.709.96-.615 2.246-.615 1.267 0 2.208.634a3 3 0 0 1 1.248 1.728h-.211l.192-2.189h1.881l-.115 1.191q-.038.576-.038 1.132V248h-1.939v-2.15h.211a2.97 2.97 0 0 1-1.267 1.708q-.942.615-2.17.615m.48-1.517q1.248 0 1.997-.883.768-.883.768-2.611t-.768-2.592q-.749-.884-1.997-.884-1.267 0-2.035.884-.749.864-.749 2.592t.749 2.611q.748.883 2.035.883M154.72 248v-9.677h1.92v3.936h4.896v-3.936h1.92V248h-1.92v-4.224h-4.896V248zm15.444.173q-1.286 0-2.246-.595-.96-.596-1.498-1.728-.518-1.134-.518-2.688 0-1.575.518-2.688.538-1.114 1.498-1.709.96-.615 2.246-.615 1.267 0 2.208.634a3 3 0 0 1 1.248 1.728h-.211l.192-2.189h1.882l-.115 1.191a17 17 0 0 0-.039 1.132V248h-1.939v-2.15h.211a2.97 2.97 0 0 1-1.267 1.708q-.94.615-2.17.615m.48-1.517q1.248 0 1.997-.883.768-.883.768-2.611t-.768-2.592q-.749-.884-1.997-.884-1.267 0-2.035.884-.749.864-.749 2.592t.749 2.611 2.035.883m7.26 1.594-.653-1.536q.653-.27 1.094-.672.461-.423.711-1.076.268-.652.384-1.612t.115-2.324v-2.707h7.296V248h-1.92v-8.16h-3.59v1.248q0 2.189-.346 3.629-.345 1.44-1.114 2.285-.748.825-1.977 1.248m11.859-.25v-9.677h1.767v7.815h-.538l5.837-7.815h1.613V248h-1.747v-7.834h.556L191.376 248zm13.661 0v-8.122h-3.417v-1.555h8.774v1.555h-3.437V248zm6.908 0v-9.677h1.766v7.815h-.537l5.837-7.815h1.612V248h-1.747v-7.834h.557L211.945 248zm11.588 0v-9.677h1.92v3.955h1.67l3.014-3.955h2.112l-3.609 4.762-.48-.615q.556.058.96.288.403.211.787.634t.787 1.114l2.016 3.494h-2.073l-1.728-2.957a3.7 3.7 0 0 0-.557-.768 1.3 1.3 0 0 0-.615-.384 2.7 2.7 0 0 0-.844-.115h-1.44V248zm14.376.173q-1.287 0-2.247-.595-.96-.596-1.497-1.728-.519-1.134-.519-2.688 0-1.575.519-2.688.537-1.114 1.497-1.709.96-.615 2.247-.615 1.267 0 2.208.634a3 3 0 0 1 1.248 1.728h-.211l.192-2.189h1.881l-.115 1.191a17 17 0 0 0-.038 1.132V248h-1.94v-2.15h.212a2.97 2.97 0 0 1-1.268 1.708q-.94.615-2.169.615m.48-1.517q1.248 0 1.997-.883.768-.883.768-2.611t-.768-2.592q-.75-.884-1.997-.884-1.267 0-2.035.884-.75.864-.749 2.592 0 1.728.749 2.611.748.883 2.035.883M249.557 248v-9.677h1.92v3.955h1.67l3.015-3.955h2.112l-3.61 4.762-.48-.615q.556.058.96.288.403.211.787.634t.788 1.114l2.016 3.494h-2.074l-1.728-2.957a3.7 3.7 0 0 0-.557-.768 1.3 1.3 0 0 0-.614-.384 2.7 2.7 0 0 0-.845-.115h-1.44V248zm14.376.173q-1.286 0-2.246-.595-.96-.596-1.498-1.728-.518-1.134-.518-2.688 0-1.575.518-2.688.538-1.114 1.498-1.709.96-.615 2.246-.615 1.268 0 2.208.634a3 3 0 0 1 1.248 1.728h-.211l.192-2.189h1.882l-.116 1.191q-.038.576-.038 1.132V248h-1.939v-2.15h.211a2.97 2.97 0 0 1-1.267 1.708q-.941.615-2.17.615m.48-1.517q1.248 0 1.997-.883.768-.883.768-2.611t-.768-2.592q-.749-.884-1.997-.884-1.267 0-2.035.884-.749.864-.749 2.592t.749 2.611 2.035.883m7.74 5.491v-11.501q0-.556-.058-1.132a40 40 0 0 0-.096-1.191h1.882l.192 2.189h-.212a3.02 3.02 0 0 1 1.229-1.728q.941-.633 2.227-.634 1.287 0 2.247.615.96.595 1.478 1.709.538 1.113.538 2.688 0 1.554-.538 2.688-.518 1.132-1.478 1.728-.96.595-2.247.595-1.266 0-2.208-.615a3.02 3.02 0 0 1-1.228-1.708h.211v6.297zm4.684-5.491q1.267 0 2.016-.883.768-.883.768-2.611t-.768-2.592q-.749-.884-2.016-.884t-2.035.884q-.749.864-.749 2.592t.749 2.611q.769.883 2.035.883m9.237 1.344v-8.122h-3.417v-1.555h8.774v1.555h-3.437V248zm11.076.173q-1.44 0-2.496-.595a4.18 4.18 0 0 1-1.632-1.728q-.576-1.134-.576-2.688 0-1.556.576-2.669a4.03 4.03 0 0 1 1.632-1.728q1.056-.615 2.496-.615t2.496.615a4 4 0 0 1 1.651 1.728q.595 1.113.595 2.669 0 1.554-.595 2.688a4.14 4.14 0 0 1-1.651 1.728q-1.056.595-2.496.595m0-1.517q1.268 0 2.016-.883.749-.883.749-2.611t-.749-2.592q-.748-.884-2.016-.884-1.248 0-1.997.884-.749.864-.749 2.592t.73 2.611q.748.883 2.016.883M310.471 248v-3.744a5.7 5.7 0 0 1-1.152.461q-.615.153-1.306.153-2.093 0-3.11-.979-.999-.997-.999-2.976v-2.592h1.92v2.439q0 1.325.596 1.92.595.594 1.881.595.652 0 1.152-.135.5-.154.979-.46v-4.359h1.94V248zm4.805 0v-9.677h1.92v3.955h1.67l3.015-3.955h2.112l-3.61 4.762-.48-.615q.556.058.96.288.403.211.787.634.385.423.787 1.114l2.016 3.494h-2.073l-1.728-2.957a3.7 3.7 0 0 0-.557-.768 1.3 1.3 0 0 0-.614-.384 2.7 2.7 0 0 0-.845-.115h-1.44V248zm10.594 0v-9.677h1.766v7.815h-.538l5.837-7.815h1.613V248h-1.747v-7.834h.557L327.482 248z"/><rect width="145" height="44" x="366.61" y="219" fill="#fff" rx="9.6"/><circle cx="395.61" cy="241" r="14.4" fill="#4092F7" opacity=".2"/><rect width="18" height="18" x="386.61" y="232" fill="#4092F7" opacity=".4" rx="9"/><rect width="17.04" height="17.04" x="387.09" y="232.48" stroke="#4092F7" rx="8.52"/><circle cx="395.731" cy="240.64" r="2.16" fill="#fff" stroke="#1261C2"/><path fill="#000" d="M417.743 241.222q0-2.13.749-3.686.748-1.555 2.17-2.4 1.44-.845 3.417-.845 1.959 0 3.379.845 1.421.845 2.189 2.4.787 1.555.787 3.667 0 2.131-.787 3.706a5.7 5.7 0 0 1-2.208 2.419q-1.42.845-3.36.845-1.977 0-3.398-.845-1.42-.864-2.189-2.419-.749-1.575-.749-3.687m2.093 0q0 2.459 1.075 3.84 1.076 1.383 3.168 1.383 2.036 0 3.149-1.363 1.113-1.382 1.114-3.86 0-2.477-1.114-3.84-1.095-1.363-3.149-1.363-2.092 0-3.168 1.363-1.075 1.363-1.075 3.84m15.27 6.778v-8.122h-3.418v-1.555h8.774v1.555h-3.436V248zm6.907 0v-9.677h1.613l3.495 6.183 3.494-6.183h1.613V248h-1.709v-7.507h.422l-3.36 5.952h-.921l-3.36-5.952h.422V248zm17.676.173q-2.343 0-3.687-1.325t-1.344-3.667q0-1.517.576-2.65.596-1.132 1.632-1.747 1.056-.633 2.439-.634 1.363 0 2.285.576.921.576 1.401 1.632.48 1.038.48 2.458v.614h-7.296v-1.113h5.971l-.326.249q0-1.44-.653-2.227-.633-.806-1.843-.806-1.344 0-2.074.941-.729.921-.729 2.553v.192q0 1.709.825 2.573.846.864 2.381.864.845 0 1.575-.23a4.4 4.4 0 0 0 1.42-.807l.634 1.325a4.7 4.7 0 0 1-1.632.922 6.7 6.7 0 0 1-2.035.307m6.156-.173v-9.677h1.92v3.936h4.896v-3.936h1.92V248h-1.92v-4.224h-4.896V248zm11.662 0v-9.677h1.92v3.379h2.746q1.9 0 2.86.807.96.787.96 2.304 0 .979-.441 1.709-.442.71-1.306 1.094-.845.384-2.073.384zm1.92-1.325h2.534q1.094 0 1.652-.441.576-.462.576-1.402 0-.941-.576-1.363-.558-.442-1.652-.442h-2.534zm7.93 1.325v-9.677h1.92V248z"/><rect width="163" height="44" x="521.61" y="219" fill="#fff" rx="9.6"/><circle cx="550.61" cy="241" r="14.4" fill="#4092F7" opacity=".2"/><rect width="18" height="18" x="541.61" y="232" fill="#4092F7" opacity=".4" rx="9"/><rect width="17.04" height="17.04" x="542.09" y="232.48" stroke="#4092F7" rx="8.52"/><circle cx="550.731" cy="240.64" r="2.16" fill="#fff" stroke="#1261C2"/><path fill="#000" d="M573.204 248v-13.536h5.645q2.188 0 3.36.922 1.19.921 1.19 2.592 0 1.248-.749 2.092-.749.846-2.054 1.133v-.288q1.498.192 2.323 1.056.826.864.826 2.285 0 1.805-1.229 2.784-1.21.96-3.418.96zm1.939-1.555h3.744q1.363 0 2.131-.519.788-.518.788-1.747 0-1.228-.788-1.747-.768-.519-2.131-.518h-3.744zm0-6.067h3.399q1.458 0 2.188-.557.73-.556.73-1.632t-.73-1.632-2.188-.557h-3.399zm15.294 7.795q-1.44 0-2.496-.595a4.18 4.18 0 0 1-1.632-1.728q-.576-1.134-.576-2.688 0-1.556.576-2.669a4.03 4.03 0 0 1 1.632-1.728q1.056-.615 2.496-.615t2.496.615a4 4 0 0 1 1.652 1.728q.594 1.113.595 2.669 0 1.554-.595 2.688a4.14 4.14 0 0 1-1.652 1.728q-1.056.595-2.496.595m0-1.517q1.268 0 2.016-.883.75-.883.749-2.611 0-1.728-.749-2.592-.749-.884-2.016-.884-1.248 0-1.996.884-.75.864-.749 2.592 0 1.728.729 2.611.75.883 2.016.883m10.499 1.517a9 9 0 0 1-2.381-.307q-1.113-.327-1.824-.922l.595-1.306a5.1 5.1 0 0 0 1.632.845 7 7 0 0 0 1.978.269q1.325 0 1.92-.384.614-.403.614-1.133 0-.71-.499-1.075-.5-.365-1.459-.365h-2.381v-1.382h2.189q.864 0 1.344-.365.48-.364.48-1.018 0-.69-.557-1.075-.556-.384-1.728-.384a6.3 6.3 0 0 0-1.824.25 5.9 5.9 0 0 0-1.574.749l-.576-1.248q.786-.596 1.862-.884a9 9 0 0 1 2.323-.288q1.882 0 2.861.711.98.691.979 1.997a2.13 2.13 0 0 1-.614 1.536q-.596.633-1.613.768v-.25q1.172.057 1.862.71.711.634.711 1.69 0 1.305-1.114 2.093-1.094.768-3.206.768m6.577-.173v-9.677h4.877q1.748 0 2.573.672.845.652.845 1.863 0 .94-.634 1.555-.613.614-1.632.749v-.25q1.21.057 1.901.71.691.654.691 1.69 0 1.248-.941 1.978-.921.71-2.63.71zm1.824-1.248h3.072q.942 0 1.44-.384.5-.404.5-1.152 0-.749-.5-1.133-.498-.384-1.44-.384h-3.072zm0-4.301h2.861q.864 0 1.344-.384t.48-1.056q0-.691-.48-1.056-.48-.384-1.344-.384h-2.861zm9.166 9.696v-11.501q0-.556-.058-1.132a40 40 0 0 0-.096-1.191h1.882l.192 2.189h-.212a3.02 3.02 0 0 1 1.229-1.728q.941-.633 2.227-.634 1.287 0 2.247.615.96.595 1.478 1.709.538 1.113.538 2.688 0 1.554-.538 2.688-.518 1.132-1.478 1.728-.96.595-2.247.595-1.266 0-2.208-.615a3.02 3.02 0 0 1-1.228-1.708h.211v6.297zm4.684-5.491q1.268 0 2.016-.883.768-.883.768-2.611t-.768-2.592q-.749-.884-2.016-.884t-2.035.884q-.749.864-.749 2.592t.749 2.611q.768.883 2.035.883m10.946 1.517q-1.286 0-2.246-.595-.96-.596-1.498-1.728-.518-1.134-.518-2.688 0-1.575.518-2.688.538-1.114 1.498-1.709.96-.615 2.246-.615 1.268 0 2.208.634a3 3 0 0 1 1.248 1.728h-.211l.192-2.189h1.882l-.116 1.191q-.038.576-.038 1.132V248h-1.939v-2.15h.211a2.97 2.97 0 0 1-1.267 1.708q-.941.615-2.17.615m.48-1.517q1.248 0 1.997-.883.768-.883.768-2.611t-.768-2.592q-.749-.884-1.997-.884-1.267 0-2.035.884-.749.864-.749 2.592t.749 2.611 2.035.883m9.736 1.344v-8.122h-3.417v-1.555h8.774v1.555h-3.437V248zm6.908 0v-9.677h1.92v3.379h2.746q1.9 0 2.86.807.96.787.96 2.304 0 .979-.441 1.709-.442.71-1.306 1.094-.845.384-2.073.384zm1.92-1.325h2.534q1.094 0 1.652-.441.576-.462.576-1.402 0-.941-.576-1.363-.557-.442-1.652-.442h-2.534zm7.93 1.325v-9.677h1.92V248z"/><rect width="261" height="44" x="44.61" y="273" fill="#fff" rx="9.6"/><circle cx="73.61" cy="295" r="14.4" fill="#4092F7" opacity=".2"/><rect width="18" height="18" x="64.61" y="286" fill="#4092F7" opacity=".4" rx="9"/><rect width="17.04" height="17.04" x="65.09" y="286.48" stroke="#4092F7" rx="8.52"/><circle cx="73.731" cy="294.64" r="2.16" fill="#fff" stroke="#1261C2"/><path fill="#000" d="M95.743 295.222q0-2.13.749-3.686.749-1.555 2.17-2.4 1.44-.845 3.417-.845 1.959 0 3.379.845 1.422.844 2.189 2.4.787 1.555.787 3.667 0 2.131-.787 3.706a5.7 5.7 0 0 1-2.208 2.419q-1.42.845-3.36.845-1.977 0-3.398-.845-1.42-.864-2.189-2.419-.75-1.575-.749-3.687m2.093 0q0 2.458 1.075 3.84 1.075 1.383 3.168 1.383 2.036 0 3.149-1.363 1.114-1.383 1.114-3.86t-1.114-3.84q-1.095-1.363-3.149-1.363-2.092 0-3.168 1.363-1.075 1.363-1.075 3.84m17.516 6.951q-1.46 0-2.554-.595a4.24 4.24 0 0 1-1.67-1.748q-.576-1.151-.576-2.726 0-1.555.595-2.669a4 4 0 0 1 1.671-1.689q1.074-.596 2.534-.596.94 0 1.824.327.883.307 1.459.883l-.633 1.363a3.5 3.5 0 0 0-1.21-.768 3.5 3.5 0 0 0-1.306-.269q-1.382 0-2.169.884-.787.883-.787 2.553 0 1.69.787 2.592.788.903 2.169.903.615 0 1.287-.231a3.5 3.5 0 0 0 1.229-.787l.633 1.363q-.596.576-1.497.903a5.4 5.4 0 0 1-1.786.307m7.56-.173v-8.122h-3.418v-1.555h8.775v1.555h-3.437V302zm10.69.173q-1.286 0-2.246-.595-.96-.596-1.498-1.728-.519-1.134-.518-2.688 0-1.575.518-2.688.538-1.114 1.498-1.709.96-.615 2.246-.615 1.268 0 2.208.634a3 3 0 0 1 1.248 1.728h-.211l.192-2.189h1.881l-.115 1.191q-.038.576-.038 1.132V302h-1.939v-2.15h.211a2.97 2.97 0 0 1-1.267 1.708q-.942.615-2.17.615m.48-1.517q1.248 0 1.997-.883.768-.883.768-2.611t-.768-2.592q-.749-.884-1.997-.884-1.267 0-2.035.884-.749.864-.749 2.592t.749 2.611q.748.883 2.035.883m9.736 1.344v-8.122h-3.417v-1.555h8.774v1.555h-3.437V302zm6.908 0v-9.677h1.92v3.955h1.67l3.015-3.955h2.112l-3.61 4.762-.48-.615q.557.058.96.288.403.211.787.634t.787 1.114l2.016 3.494h-2.073l-1.728-2.957a3.7 3.7 0 0 0-.557-.768 1.3 1.3 0 0 0-.614-.384 2.7 2.7 0 0 0-.845-.115h-1.44V302zm10.594 0v-9.677h1.766v7.815h-.538l5.837-7.815h1.613V302h-1.747v-7.834h.557L162.932 302zm16.706 0v-9.677h8.678V302h-1.92v-8.16h-4.838V302zm15.811.173q-1.44 0-2.496-.595a4.18 4.18 0 0 1-1.632-1.728q-.576-1.134-.576-2.688 0-1.556.576-2.669a4.03 4.03 0 0 1 1.632-1.728q1.056-.615 2.496-.615t2.496.615a4 4 0 0 1 1.652 1.728q.594 1.113.595 2.669 0 1.554-.595 2.688a4.14 4.14 0 0 1-1.652 1.728q-1.056.595-2.496.595m0-1.517q1.267 0 2.016-.883t.749-2.611-.749-2.592q-.748-.884-2.016-.884-1.248 0-1.996.884-.75.864-.749 2.592 0 1.728.729 2.611.75.883 2.016.883m16.578 1.517q-1.46 0-2.554-.595a4.22 4.22 0 0 1-1.67-1.748q-.576-1.151-.576-2.726 0-1.555.595-2.669a4 4 0 0 1 1.67-1.689q1.076-.596 2.535-.596.94 0 1.824.327.882.307 1.459.883l-.634 1.363a3.5 3.5 0 0 0-1.209-.768 3.5 3.5 0 0 0-1.306-.269q-1.383 0-2.17.884-.787.883-.787 2.553 0 1.69.787 2.592t2.17.903q.614 0 1.286-.231a3.5 3.5 0 0 0 1.229-.787l.634 1.363q-.595.576-1.498.903a5.4 5.4 0 0 1-1.785.307m5.486-.173v-9.677h1.92v3.955h1.67l3.015-3.955h2.112l-3.61 4.762-.48-.615q.556.058.96.288.403.211.787.634.385.423.787 1.114l2.016 3.494h-2.073l-1.728-2.957a3.7 3.7 0 0 0-.557-.768 1.3 1.3 0 0 0-.614-.384 2.7 2.7 0 0 0-.845-.115h-1.44V302zm10.19.25-.652-1.536q.653-.27 1.094-.672.46-.422.71-1.076.27-.652.384-1.612.116-.96.116-2.324v-2.707h7.296V302h-1.92v-8.16h-3.591v1.248q0 2.189-.345 3.629-.346 1.44-1.114 2.285-.748.825-1.978 1.248m15.642-.077q-1.286 0-2.246-.595-.96-.596-1.498-1.728-.518-1.134-.518-2.688 0-1.575.518-2.688.538-1.114 1.498-1.709.96-.615 2.246-.615 1.267 0 2.208.634a3 3 0 0 1 1.248 1.728h-.211l.192-2.189h1.882l-.116 1.191q-.038.576-.038 1.132V302h-1.939v-2.15h.211a2.97 2.97 0 0 1-1.267 1.708q-.941.615-2.17.615m.48-1.517q1.248 0 1.997-.883.768-.883.768-2.611t-.768-2.592q-.749-.884-1.997-.884-1.267 0-2.035.884-.749.864-.749 2.592t.749 2.611 2.035.883m6.703 3.84v-3.994h1.075q.633-.96.922-2.246.288-1.286.288-3.11v-2.823h7.084v8.179h1.556v3.994h-1.671V302h-7.584v2.496zm2.861-3.974h4.684v-6.701h-3.59v1.709q0 1.401-.288 2.745-.269 1.325-.806 2.247m13.769 1.651q-1.287 0-2.247-.595-.96-.596-1.497-1.728-.519-1.134-.519-2.688 0-1.575.519-2.688.537-1.114 1.497-1.709.96-.615 2.247-.615 1.267 0 2.208.634a3 3 0 0 1 1.248 1.728h-.211l.192-2.189h1.881l-.115 1.191a17 17 0 0 0-.038 1.132V302h-1.94v-2.15h.212a2.97 2.97 0 0 1-1.268 1.708q-.94.615-2.169.615m.48-1.517q1.248 0 1.997-.883.768-.883.768-2.611t-.768-2.592q-.75-.884-1.997-.884-1.267 0-2.035.884-.75.864-.749 2.592 0 1.728.749 2.611.748.883 2.035.883m7.662 1.344v-9.677h1.613l3.495 6.183 3.494-6.183h1.613V302h-1.709v-7.507h.422l-3.36 5.952h-.921l-3.36-5.952h.422V302z"/><rect width="322" height="44" x="315.61" y="273" fill="#fff" rx="9.6"/><circle cx="344.61" cy="295" r="14.4" fill="#4092F7" opacity=".2"/><rect width="18" height="18" x="335.61" y="286" fill="#4092F7" opacity=".4" rx="9"/><rect width="17.04" height="17.04" x="336.09" y="286.48" stroke="#4092F7" rx="8.52"/><circle cx="344.731" cy="294.64" r="2.16" fill="#fff" stroke="#1261C2"/><path fill="#000" d="M366.743 295.222q0-2.13.749-3.686.748-1.555 2.17-2.4 1.44-.845 3.417-.845 1.959 0 3.379.845 1.421.844 2.189 2.4.787 1.555.787 3.667 0 2.131-.787 3.706a5.7 5.7 0 0 1-2.208 2.419q-1.42.845-3.36.845-1.977 0-3.398-.845-1.42-.864-2.189-2.419-.749-1.575-.749-3.687m2.093 0q0 2.458 1.075 3.84 1.076 1.383 3.168 1.383 2.036 0 3.149-1.363 1.113-1.383 1.114-3.86 0-2.476-1.114-3.84-1.095-1.363-3.149-1.363-2.092 0-3.168 1.363-1.075 1.363-1.075 3.84m17.497 6.951q-2.189 0-3.495-1.363-1.286-1.364-1.286-4.013v-1.671q0-2.706 1.152-4.358 1.171-1.651 3.61-2.227l3.532-.845.557 1.555-3.955.922q-1.037.23-1.709.864a4.14 4.14 0 0 0-1.017 1.497 5.2 5.2 0 0 0-.327 1.844v.883h-.288q.23-.883.73-1.498a3.5 3.5 0 0 1 1.267-.979 3.9 3.9 0 0 1 1.709-.365q1.247 0 2.189.576.94.576 1.459 1.671.537 1.075.537 2.553 0 1.536-.576 2.65a4.05 4.05 0 0 1-1.632 1.709q-1.036.595-2.457.595m-.058-1.498q1.306 0 2.035-.845.75-.863.749-2.534 0-1.651-.749-2.515-.748-.864-2.035-.864-1.286 0-2.035.864-.749.844-.749 2.419 0 1.728.73 2.611.749.864 2.054.864m20.079 3.821V302h-12.941v-9.677h1.824v8.16h3.783v-8.16h1.824v8.16h3.763v-8.16h1.843v8.16h1.536v4.013zm7.36-2.323q-1.286 0-2.246-.595-.96-.596-1.498-1.728-.518-1.134-.518-2.688 0-1.575.518-2.688.538-1.114 1.498-1.709.96-.615 2.246-.615 1.268 0 2.208.634a3 3 0 0 1 1.248 1.728h-.211l.192-2.189h1.882l-.115 1.191a17 17 0 0 0-.039 1.132V302h-1.939v-2.15h.211a2.97 2.97 0 0 1-1.267 1.708q-.94.615-2.17.615m.48-1.517q1.248 0 1.997-.883.768-.883.768-2.611t-.768-2.592q-.749-.884-1.997-.884-1.267 0-2.035.884-.749.864-.749 2.592t.749 2.611 2.035.883M421.07 302l1.517-2.611q.365-.634.921-1.018.576-.403 1.171-.403h.346l-.019.192q-1.652 0-2.573-.749t-.922-2.15q0-1.402.922-2.17.921-.768 2.707-.768h4.531V302h-1.785v-3.59h-1.287q-.729 0-1.248.364a2.9 2.9 0 0 0-.825.96L423.22 302zm4.416-4.896h2.4v-3.475h-2.4q-1.076 0-1.613.461-.519.46-.518 1.267 0 .844.518 1.305.537.442 1.613.442m16.535 5.069q-1.46 0-2.554-.595a4.23 4.23 0 0 1-1.67-1.748q-.576-1.151-.576-2.726 0-1.555.595-2.669a4 4 0 0 1 1.67-1.689q1.076-.596 2.535-.596.94 0 1.824.327.883.307 1.459.883l-.634 1.363a3.5 3.5 0 0 0-1.209-.768 3.5 3.5 0 0 0-1.306-.269q-1.382 0-2.169.884-.788.883-.788 2.553 0 1.69.788 2.592.787.903 2.169.903.615 0 1.287-.231a3.5 3.5 0 0 0 1.228-.787l.634 1.363q-.595.576-1.498.903a5.4 5.4 0 0 1-1.785.307m7.56-.173v-8.122h-3.418v-1.555h8.774v1.555h-3.436V302zm10.69.173q-1.287 0-2.247-.595-.96-.596-1.497-1.728-.519-1.134-.519-2.688 0-1.575.519-2.688.537-1.114 1.497-1.709.96-.615 2.247-.615 1.268 0 2.208.634a3 3 0 0 1 1.248 1.728h-.211l.192-2.189h1.881l-.115 1.191a17 17 0 0 0-.038 1.132V302h-1.94v-2.15h.212a2.97 2.97 0 0 1-1.268 1.708q-.94.615-2.169.615m.48-1.517q1.247 0 1.997-.883.768-.883.768-2.611t-.768-2.592q-.75-.884-1.997-.884-1.267 0-2.035.884-.75.864-.749 2.592 0 1.728.749 2.611.748.883 2.035.883m9.736 1.344v-8.122h-3.418v-1.555h8.775v1.555h-3.437V302zm6.908 0v-9.677h1.766v7.815h-.538l5.837-7.815h1.613V302h-1.747v-7.834h.557L479.007 302zm15.907.173q-1.46 0-2.554-.595a4.24 4.24 0 0 1-1.67-1.748q-.576-1.151-.576-2.726 0-1.555.595-2.669a4 4 0 0 1 1.671-1.689q1.074-.596 2.534-.596.94 0 1.824.327.883.307 1.459.883l-.633 1.363a3.5 3.5 0 0 0-1.21-.768 3.5 3.5 0 0 0-1.306-.269q-1.381 0-2.169.884-.787.883-.787 2.553 0 1.69.787 2.592.788.903 2.169.903.615 0 1.287-.231a3.5 3.5 0 0 0 1.229-.787l.633 1.363q-.596.576-1.497.903a5.4 5.4 0 0 1-1.786.307m7.56-.173v-8.122h-3.418v-1.555h8.775v1.555h-3.437V302zm6.908 0v-9.677h1.766v7.815h-.538l5.837-7.815h1.613V302h-1.747v-7.834h.557L509.382 302zm11.587 0v-9.677h1.92v3.955h1.67l3.015-3.955h2.112l-3.61 4.762-.48-.615q.557.058.96.288.403.211.787.634t.788 1.114l2.016 3.494h-2.074l-1.728-2.957a3.7 3.7 0 0 0-.557-.768 1.3 1.3 0 0 0-.614-.384 2.7 2.7 0 0 0-.845-.115h-1.44V302zm14.376.173q-1.286 0-2.246-.595-.96-.596-1.498-1.728-.518-1.134-.518-2.688 0-1.575.518-2.688.538-1.114 1.498-1.709.96-.615 2.246-.615 1.268 0 2.208.634a3 3 0 0 1 1.248 1.728h-.211l.192-2.189h1.882l-.116 1.191q-.038.576-.038 1.132V302h-1.939v-2.15h.211a2.97 2.97 0 0 1-1.267 1.708q-.941.615-2.17.615m.48-1.517q1.248 0 1.997-.883.768-.883.768-2.611t-.768-2.592q-.749-.884-1.997-.884-1.267 0-2.035.884-.749.864-.749 2.592t.749 2.611 2.035.883m16.142 1.517a9 9 0 0 1-2.381-.307q-1.115-.327-1.824-.922l.595-1.306a5.1 5.1 0 0 0 1.632.845 7 7 0 0 0 1.978.269q1.324 0 1.92-.384.614-.403.614-1.133 0-.71-.499-1.075-.5-.365-1.459-.365h-2.381v-1.382h2.189q.864 0 1.344-.365.48-.364.48-1.018 0-.69-.557-1.075-.557-.384-1.728-.384a6.3 6.3 0 0 0-1.824.25 5.9 5.9 0 0 0-1.575.749l-.576-1.248a5.3 5.3 0 0 1 1.863-.884 9 9 0 0 1 2.323-.288q1.881 0 2.861.711.98.691.979 1.997a2.13 2.13 0 0 1-.614 1.536q-.596.633-1.613.768v-.25q1.171.057 1.862.71.711.634.711 1.69 0 1.305-1.114 2.093-1.095.768-3.206.768m10.359 0q-1.286 0-2.246-.595-.96-.596-1.498-1.728-.518-1.134-.518-2.688 0-1.575.518-2.688.538-1.114 1.498-1.709.96-.615 2.246-.615 1.268 0 2.208.634a3 3 0 0 1 1.248 1.728h-.211l.192-2.189h1.882l-.115 1.191a17 17 0 0 0-.039 1.132V302h-1.939v-2.15h.211a2.97 2.97 0 0 1-1.267 1.708q-.94.615-2.17.615m.48-1.517q1.248 0 1.997-.883.768-.883.768-2.611t-.768-2.592q-.749-.884-1.997-.884-1.267 0-2.035.884-.749.864-.749 2.592t.749 2.611 2.035.883m11.822 3.84v-3.994h1.075q.634-.96.922-2.246t.288-3.11v-2.823h7.084v8.179h1.556v3.994h-1.671V302h-7.584v2.496zm2.861-3.974h4.684v-6.701h-3.59v1.709q0 1.401-.288 2.745-.269 1.325-.806 2.247m14.537 1.651q-2.343 0-3.687-1.325t-1.344-3.667q0-1.517.576-2.65.596-1.132 1.632-1.747 1.056-.634 2.439-.634 1.363 0 2.285.576.921.576 1.401 1.632.48 1.038.48 2.458v.614H586.9v-1.113h5.971l-.326.249q0-1.44-.653-2.227-.634-.806-1.843-.806-1.344 0-2.074.941-.729.921-.729 2.553v.192q0 1.709.825 2.573.846.864 2.381.864.844 0 1.575-.23a4.4 4.4 0 0 0 1.42-.807l.634 1.325a4.7 4.7 0 0 1-1.632.922 6.7 6.7 0 0 1-2.035.307m6.156-.173v-9.677h1.92v3.936h4.896v-3.936h1.92V302h-1.92v-4.224h-4.896V302zm11.662 0v-9.677h1.92v3.379h2.746q1.9 0 2.86.807.96.788.96 2.304 0 .979-.441 1.709-.442.71-1.306 1.094-.845.384-2.073.384zm1.92-1.325h2.534q1.076 0 1.652-.441.576-.462.576-1.402 0-.941-.576-1.363-.557-.442-1.652-.442h-2.534z"/></svg>