<svg xmlns="http://www.w3.org/2000/svg" width="596" height="301" fill="none"><rect width="595" height="300" x=".6" y=".1" fill="#F7F7F7" rx="16"/><path fill="#1A1A1A" d="M38.628 70.1V51.77H54.67V70.1h-3.328V54.5H41.93v15.6zm25.934.26q-2.028 0-3.51-.832a5.85 5.85 0 0 1-2.314-2.366q-.806-1.534-.806-3.64t.806-3.614a5.85 5.85 0 0 1 2.314-2.366q1.482-.832 3.51-.832t3.51.832a5.64 5.64 0 0 1 2.314 2.366q.831 1.508.832 3.614 0 2.106-.832 3.64a5.64 5.64 0 0 1-2.314 2.366q-1.482.832-3.51.832m0-2.496q1.533 0 2.444-1.066.91-1.092.91-3.276t-.91-3.25-2.444-1.066-2.444 1.066-.91 3.25.91 3.276q.909 1.065 2.444 1.066m9.143 2.6-1.014-2.548q.858-.312 1.43-.806.598-.52.936-1.3.364-.806.52-1.976.156-1.196.156-2.834v-4.03h10.452V70.1h-3.224V59.466h-4.264v1.638q0 2.834-.52 4.758-.52 1.897-1.612 3.016t-2.86 1.586m16.026 5.538-.754-2.574q1.223-.26 2.054-.598.832-.338 1.378-.884t.91-1.404l.65-1.534-.078 1.274-5.72-13.312h3.458l4.108 10.244h-.754l4.134-10.244h3.276l-5.98 13.858q-.598 1.404-1.3 2.314-.702.936-1.508 1.482a6.5 6.5 0 0 1-1.768.884q-.962.312-2.106.494m22.975-5.902v-4.784a7.8 7.8 0 0 1-1.508.52 7.2 7.2 0 0 1-1.638.182q-2.886 0-4.316-1.378-1.404-1.378-1.404-4.108V56.97h3.224v3.276q0 1.664.728 2.418.727.728 2.34.728.753 0 1.352-.156.597-.156 1.144-.494V56.97h3.224V70.1zm12.011.26q-1.716 0-3.016-.806-1.299-.832-2.028-2.366-.728-1.535-.728-3.666t.728-3.64q.729-1.535 2.028-2.34 1.3-.832 3.016-.832 1.664 0 2.912.832 1.275.806 1.69 2.184h-.286l.286-2.756h3.12l-.156 1.638q-.052.832-.052 1.638V70.1h-3.224l-.026-2.704h.312q-.415 1.351-1.69 2.158t-2.886.806m.91-2.496q1.534 0 2.47-1.066.936-1.092.936-3.276t-.936-3.25-2.47-1.066-2.47 1.066-.936 3.25.91 3.276q.936 1.065 2.496 1.066m10.395 2.236V56.97h2.938v9.932h-.78l7.462-9.932h2.678V70.1h-2.938v-9.958h.806L138.7 70.1zm6.136-14.326q-1.3 0-2.288-.416a4.5 4.5 0 0 1-1.638-1.222 5 5 0 0 1-.936-1.898l1.664-.572q.441 1.196 1.222 1.768.78.546 2.002.546t2.002-.546 1.274-1.742l1.586.546q-.546 1.742-1.82 2.652-1.248.885-3.068.884M154.852 70.1V59.518h-4.498V56.97H162.6v2.548h-4.524V70.1zm16.081.26q-3.302 0-5.174-1.82t-1.872-4.992q0-2.054.806-3.588.805-1.534 2.236-2.392 1.455-.858 3.38-.858 1.897 0 3.172.806 1.273.806 1.924 2.262.675 1.456.676 3.406v.858h-9.568v-1.716h7.254l-.442.364q0-1.82-.78-2.782-.755-.962-2.21-.962-1.612 0-2.496 1.144-.858 1.145-.858 3.198v.338q0 2.131 1.04 3.198 1.065 1.04 2.99 1.04 1.117 0 2.08-.286a6.1 6.1 0 0 0 1.872-.988l.962 2.184q-.937.755-2.236 1.17a9 9 0 0 1-2.756.416m20.46 0q-1.716 0-3.016-.806-1.3-.832-2.028-2.366t-.728-3.666.728-3.64q.728-1.535 2.028-2.34 1.3-.832 3.016-.832 1.664 0 2.912.832 1.274.806 1.69 2.184h-.286l.286-2.756h3.12l-.156 1.638q-.052.832-.052 1.638V70.1h-3.224l-.026-2.704h.312q-.416 1.351-1.69 2.158t-2.886.806m.91-2.496q1.534 0 2.47-1.066.936-1.092.936-3.276t-.936-3.25-2.47-1.066-2.47 1.066-.936 3.25.91 3.276q.936 1.065 2.496 1.066m10.395 2.236V56.97h3.224v5.148h1.976l3.848-5.148h3.484l-4.836 6.552-.702-1.014q.728.078 1.274.39.571.312 1.066.884.519.546 1.014 1.404l2.756 4.914h-3.458l-2.236-3.952q-.339-.598-.676-.936a1.84 1.84 0 0 0-.754-.468 3.4 3.4 0 0 0-1.014-.13h-1.742V70.1zm17.662 0V59.518h-4.498V56.97h12.246v2.548h-4.524V70.1zm9.73 5.902-.754-2.574q1.223-.26 2.054-.598.832-.338 1.378-.884t.91-1.404l.65-1.534-.078 1.274-5.72-13.312h3.458l4.108 10.244h-.754l4.134-10.244h3.276l-5.98 13.858q-.598 1.404-1.3 2.314-.701.936-1.508 1.482a6.5 6.5 0 0 1-1.768.884q-.962.312-2.106.494m19.6-5.642q-1.716 0-3.016-.806-1.3-.832-2.028-2.366t-.728-3.666.728-3.64q.728-1.535 2.028-2.34 1.3-.832 3.016-.832 1.664 0 2.912.832 1.274.806 1.69 2.184h-.286l.286-2.756h3.12l-.156 1.638q-.052.832-.052 1.638V70.1h-3.224l-.026-2.704h.312q-.416 1.351-1.69 2.158-1.273.806-2.886.806m.91-2.496q1.534 0 2.47-1.066.936-1.092.936-3.276t-.936-3.25-2.47-1.066-2.47 1.066-.936 3.25.91 3.276q.936 1.065 2.496 1.066m10.056 2.6-1.014-2.548q.858-.312 1.43-.806.599-.52.936-1.3.364-.806.52-1.976.156-1.196.156-2.834v-4.03h10.452V70.1h-3.224V59.466h-4.264v1.638q0 2.834-.52 4.758-.52 1.897-1.612 3.016t-2.86 1.586m16.182-.364V56.97h3.224v4.394h3.458q2.626 0 3.952 1.118 1.326 1.092 1.326 3.172 0 1.352-.624 2.366-.624.988-1.82 1.534-1.17.546-2.834.546zm3.224-2.132h3.016q1.326 0 2.028-.546.702-.572.702-1.716t-.702-1.664q-.675-.546-2.028-.546h-3.016zm11.452 2.132V56.97h3.224v5.148h5.928V56.97h3.224V70.1h-3.224v-5.486h-5.928V70.1zm16.072 0V56.97h3.224v4.394h3.458q2.626 0 3.952 1.118 1.326 1.092 1.326 3.172 0 1.352-.624 2.366-.624.988-1.82 1.534-1.17.546-2.834.546zm3.224-2.132h3.016q1.326 0 2.028-.546.702-.572.702-1.716t-.702-1.664q-.675-.546-2.028-.546h-3.016zm10.374 2.132V56.97h3.224V70.1zm13.366.26q-3.302 0-5.174-1.82t-1.872-4.992q0-2.054.806-3.588a5.96 5.96 0 0 1 2.236-2.392q1.456-.858 3.38-.858 1.898 0 3.172.806t1.924 2.262q.676 1.456.676 3.406v.858h-9.568v-1.716h7.254l-.442.364q0-1.82-.78-2.782-.754-.962-2.21-.962-1.612 0-2.496 1.144-.858 1.145-.858 3.198v.338q0 2.131 1.04 3.198 1.066 1.04 2.99 1.04 1.118 0 2.08-.286a6.1 6.1 0 0 0 1.872-.988l.962 2.184q-.936.755-2.236 1.17a9 9 0 0 1-2.756.416m14.116 3.12v-5.85h1.508q.78-1.222 1.118-2.86.364-1.664.364-4.056V56.97h10.114v10.66h2.132v5.85h-2.756V70.1h-9.724v3.38zm4.42-5.824h5.642v-8.242h-4.316v2.028q0 1.742-.338 3.406-.337 1.664-.988 2.808m18.377 2.704q-1.716 0-3.016-.806-1.299-.832-2.028-2.366-.728-1.535-.728-3.666t.728-3.64q.729-1.535 2.028-2.34 1.3-.832 3.016-.832 1.664 0 2.912.832 1.275.806 1.69 2.184h-.286l.286-2.756h3.12l-.156 1.638q-.051.832-.052 1.638V70.1h-3.224l-.026-2.704h.312q-.415 1.351-1.69 2.158-1.273.806-2.886.806m.91-2.496q1.534 0 2.47-1.066.936-1.092.936-3.276t-.936-3.25-2.47-1.066-2.47 1.066-.936 3.25.91 3.276q.936 1.065 2.496 1.066m10.395 2.236V56.97h3.224v5.148h5.928V56.97h3.224V70.1h-3.224v-5.486h-5.928V70.1zm16.072 0V56.97h3.224v5.148h5.928V56.97h3.224V70.1h-3.224v-5.486h-5.928V70.1zm16.072 0V56.97h3.224v4.394h3.458q2.626 0 3.952 1.118 1.326 1.092 1.326 3.172 0 1.352-.624 2.366-.623.988-1.82 1.534-1.17.546-2.834.546zm3.224-2.132h3.016q1.326 0 2.028-.546.702-.572.702-1.716t-.702-1.664q-.675-.546-2.028-.546h-3.016zM428.51 70.1V56.97h3.224V70.1zm13.366.26q-3.302 0-5.174-1.82t-1.872-4.992q0-2.054.806-3.588a5.96 5.96 0 0 1 2.236-2.392q1.456-.858 3.38-.858 1.898 0 3.172.806t1.924 2.262q.676 1.456.676 3.406v.858h-9.568v-1.716h7.254l-.442.364q0-1.82-.78-2.782-.754-.962-2.21-.962-1.612 0-2.496 1.144-.858 1.145-.858 3.198v.338q0 2.131 1.04 3.198 1.066 1.04 2.99 1.04 1.118 0 2.08-.286a6.1 6.1 0 0 0 1.872-.988l.962 2.184q-.936.755-2.236 1.17a9 9 0 0 1-2.756.416m15.286-.26V56.97h12.298V70.1h-3.224V59.466h-5.85V70.1zm22.029.26q-2.028 0-3.51-.832a5.85 5.85 0 0 1-2.314-2.366q-.806-1.534-.806-3.64t.806-3.614a5.85 5.85 0 0 1 2.314-2.366q1.482-.832 3.51-.832t3.51.832a5.65 5.65 0 0 1 2.314 2.366q.832 1.508.832 3.614t-.832 3.64a5.65 5.65 0 0 1-2.314 2.366q-1.482.832-3.51.832m0-2.496q1.533 0 2.444-1.066.91-1.092.91-3.276t-.91-3.25-2.444-1.066q-1.535 0-2.444 1.066-.91 1.066-.91 3.25t.91 3.276q.91 1.065 2.444 1.066M38.446 103.1V89.97h6.994q2.469 0 3.614.91 1.144.885 1.144 2.522 0 1.248-.832 2.08-.833.832-2.21 1.04v-.364q1.69.105 2.6.988.91.885.91 2.288 0 1.69-1.3 2.678t-3.692.988zm3.016-2.002h3.874q1.143 0 1.742-.468.624-.468.624-1.378t-.624-1.378q-.6-.468-1.742-.468h-3.874zm0-5.694h3.588q1.04 0 1.612-.442.571-.468.572-1.3 0-.833-.572-1.274-.574-.442-1.612-.442h-3.588zm17.214 7.956q-1.716 0-3.016-.806-1.299-.832-2.028-2.366-.728-1.534-.728-3.666t.728-3.64q.729-1.534 2.028-2.34 1.3-.832 3.016-.832 1.664 0 2.912.832 1.275.805 1.69 2.184h-.286l.286-2.756h3.12l-.156 1.638q-.052.832-.052 1.638v9.854h-3.224l-.026-2.704h.312q-.415 1.352-1.69 2.158t-2.886.806m.91-2.496q1.534 0 2.47-1.066.936-1.092.936-3.276 0-2.185-.936-3.25t-2.47-1.066-2.47 1.066q-.936 1.065-.936 3.25t.91 3.276q.936 1.066 2.496 1.066m10.395 2.236V89.97h3.042v10.634h4.628V89.97h3.016v10.634h4.628V89.97h3.042v13.13zm22.039 0V89.97h2.938v9.932h-.78l7.462-9.932h2.678v13.13h-2.938v-9.958h.806l-7.488 9.958zm15.996 0V89.97h2.704l4.524 7.852 4.524-7.852h2.704v13.13h-2.86v-9.49h.598l-4.212 7.358h-1.508l-4.212-7.358h.598v9.49zm28.123 0V92.518h-4.498V89.97h12.246v2.548h-4.524V103.1zm15.665.26q-2.028 0-3.51-.832a5.85 5.85 0 0 1-2.314-2.366q-.807-1.534-.806-3.64 0-2.106.806-3.614a5.85 5.85 0 0 1 2.314-2.366q1.482-.832 3.51-.832t3.51.832a5.65 5.65 0 0 1 2.314 2.366q.832 1.508.832 3.614t-.832 3.64a5.65 5.65 0 0 1-2.314 2.366q-1.482.832-3.51.832m0-2.496q1.533 0 2.444-1.066.91-1.092.91-3.276 0-2.185-.91-3.25t-2.444-1.066q-1.535 0-2.444 1.066-.91 1.065-.91 3.25t.91 3.276q.91 1.066 2.444 1.066m9.735 2.236V89.97h6.994q2.47 0 3.614.91 1.144.885 1.144 2.522 0 1.248-.832 2.08-.831.832-2.21 1.04v-.364q1.69.105 2.6.988.91.885.91 2.288 0 1.69-1.3 2.678t-3.692.988zm3.016-2.002h3.874q1.145 0 1.742-.468.624-.468.624-1.378t-.624-1.378q-.597-.468-1.742-.468h-3.874zm0-5.694h3.588q1.04 0 1.612-.442.572-.468.572-1.3t-.572-1.274q-.571-.442-1.612-.442h-3.588zm17.215 7.956q-1.716 0-3.016-.806-1.3-.832-2.028-2.366t-.728-3.666.728-3.64q.728-1.534 2.028-2.34 1.3-.832 3.016-.832 1.664 0 2.912.832 1.274.805 1.69 2.184h-.286l.286-2.756h3.12l-.156 1.638q-.052.832-.052 1.638v9.854h-3.224l-.026-2.704h.312q-.416 1.352-1.69 2.158t-2.886.806m.91-2.496q1.534 0 2.47-1.066.936-1.092.936-3.276 0-2.185-.936-3.25t-2.47-1.066-2.47 1.066q-.936 1.065-.936 3.25t.91 3.276q.936 1.066 2.496 1.066m10.499 7.852v-15.47q0-.805-.052-1.638a25 25 0 0 0-.156-1.638h3.146l.286 2.756h-.286q.39-1.379 1.638-2.184 1.273-.832 2.938-.832 1.742 0 3.042.832 1.299.805 2.028 2.34.728 1.508.728 3.64t-.728 3.666q-.729 1.534-2.028 2.366-1.3.806-3.042.806-1.638 0-2.886-.806t-1.664-2.158h.286v8.32zm6.604-7.852q1.56 0 2.496-1.066.936-1.092.936-3.276 0-2.185-.936-3.25t-2.496-1.066q-1.534 0-2.47 1.066-.936 1.065-.936 3.25t.936 3.276q.936 1.066 2.47 1.066m14.944 2.496q-1.716 0-3.016-.806-1.3-.832-2.028-2.366t-.728-3.666.728-3.64q.727-1.534 2.028-2.34 1.3-.832 3.016-.832 1.664 0 2.912.832 1.274.805 1.69 2.184h-.286l.286-2.756h3.12l-.156 1.638q-.052.832-.052 1.638v9.854h-3.224l-.026-2.704h.312q-.416 1.352-1.69 2.158t-2.886.806m.91-2.496q1.534 0 2.47-1.066.936-1.092.936-3.276 0-2.185-.936-3.25t-2.47-1.066-2.47 1.066q-.936 1.065-.936 3.25t.91 3.276q.936 1.066 2.496 1.066m10.395 2.236V89.97h2.704l4.524 7.852 4.524-7.852h2.704v13.13h-2.86v-9.49h.598l-4.212 7.358h-1.508l-4.212-7.358h.598v9.49zm25.289 0V89.97h3.224v5.148h5.928V89.97h3.224v13.13h-3.224v-5.486h-5.928v5.486zm21.246.26q-1.716 0-3.016-.806-1.3-.832-2.028-2.366t-.728-3.666.728-3.64q.728-1.534 2.028-2.34 1.3-.832 3.016-.832 1.664 0 2.912.832 1.274.805 1.69 2.184h-.286l.286-2.756h3.12l-.156 1.638q-.052.832-.052 1.638v9.854h-3.224l-.026-2.704h.312q-.416 1.352-1.69 2.158t-2.886.806m.91-2.496q1.534 0 2.47-1.066.936-1.092.936-3.276 0-2.185-.936-3.25t-2.47-1.066-2.47 1.066q-.936 1.065-.936 3.25t.91 3.276q.936 1.066 2.496 1.066m17.529 2.236V89.97h2.704l4.524 7.852 4.524-7.852h2.704v13.13h-2.86v-9.49h.598l-4.212 7.358h-1.508l-4.212-7.358h.598v9.49zm23.328.26q-1.716 0-3.016-.806-1.299-.832-2.028-2.366-.728-1.534-.728-3.666t.728-3.64q.729-1.534 2.028-2.34 1.3-.832 3.016-.832 1.665 0 2.912.832 1.275.805 1.69 2.184h-.286l.286-2.756h3.12l-.156 1.638q-.052.832-.052 1.638v9.854h-3.224l-.026-2.704h.312q-.415 1.352-1.69 2.158t-2.886.806m.91-2.496q1.534 0 2.47-1.066.936-1.092.936-3.276 0-2.185-.936-3.25t-2.47-1.066-2.47 1.066q-.936 1.065-.936 3.25t.91 3.276q.936 1.066 2.496 1.066m10.499 7.852v-15.47a26 26 0 0 0-.208-3.276h3.146l.286 2.756h-.286q.39-1.379 1.638-2.184 1.274-.832 2.938-.832 1.742 0 3.042.832 1.3.805 2.028 2.34.728 1.508.728 3.64t-.728 3.666q-.727 1.534-2.028 2.366-1.3.806-3.042.806-1.638 0-2.886-.806t-1.664-2.158h.286v8.32zm6.604-7.852q1.56 0 2.496-1.066.936-1.092.936-3.276 0-2.185-.936-3.25t-2.496-1.066q-1.534 0-2.47 1.066-.936 1.065-.936 3.25t.936 3.276q.936 1.066 2.47 1.066m9.77 2.236V89.97h3.224v5.148h1.976l3.848-5.148h3.484l-4.836 6.552-.702-1.014q.729.078 1.274.39.573.312 1.066.884.52.546 1.014 1.404l2.756 4.914h-3.458l-2.236-3.952q-.337-.598-.676-.936a1.8 1.8 0 0 0-.754-.468 3.4 3.4 0 0 0-1.014-.13h-1.742v5.486zm21.277.26q-3.303 0-5.174-1.82t-1.872-4.992q0-2.054.806-3.588.805-1.534 2.236-2.392 1.455-.858 3.38-.858 1.897 0 3.172.806 1.273.806 1.924 2.262.675 1.455.676 3.406v.858h-9.568v-1.716h7.254l-.442.364q0-1.82-.78-2.782-.755-.962-2.21-.962-1.613 0-2.496 1.144-.858 1.144-.858 3.198v.338q0 2.132 1.04 3.198 1.065 1.04 2.99 1.04 1.117 0 2.08-.286a6.1 6.1 0 0 0 1.872-.988l.962 2.184q-.937.754-2.236 1.17a9 9 0 0 1-2.756.416m10.985-.26V92.518h-4.498V89.97h12.246v2.548h-4.524V103.1zm9.76 0V89.97h12.298v13.13h-3.224V92.466h-5.85V103.1zm15.658.364-1.014-2.548q.858-.312 1.43-.806a3.6 3.6 0 0 0 .936-1.3q.364-.806.52-1.976.156-1.196.156-2.834v-4.03h10.452v13.13h-3.224V92.466h-4.264v1.638q0 2.834-.52 4.758-.52 1.898-1.612 3.016t-2.86 1.586m22.63-.104q-3.302 0-5.174-1.82t-1.872-4.992q0-2.054.806-3.588.805-1.534 2.236-2.392 1.455-.858 3.38-.858 1.897 0 3.172.806 1.273.806 1.924 2.262.675 1.455.676 3.406v.858h-9.568v-1.716h7.254l-.442.364q0-1.82-.78-2.782-.755-.962-2.21-.962-1.612 0-2.496 1.144-.858 1.144-.858 3.198v.338q0 2.132 1.04 3.198 1.065 1.04 2.99 1.04 1.117 0 2.08-.286a6.1 6.1 0 0 0 1.872-.988l.962 2.184q-.937.754-2.236 1.17a9 9 0 0 1-2.756.416m8.151-.26V89.97h2.938v9.932h-.78l7.462-9.932h2.678v13.13h-2.938v-9.958h.806l-7.488 9.958zm6.136-14.326q-1.3 0-2.288-.416a4.5 4.5 0 0 1-1.638-1.222 5 5 0 0 1-.936-1.898l1.664-.572q.442 1.196 1.222 1.768.78.546 2.002.546t2.002-.546 1.274-1.742l1.586.546q-.546 1.742-1.82 2.652-1.247.885-3.068.884m15.997 14.586q-2.029 0-3.562-.832a5.8 5.8 0 0 1-2.34-2.366q-.832-1.56-.832-3.692t.832-3.64a5.84 5.84 0 0 1 2.366-2.314q1.508-.806 3.536-.806 1.3 0 2.522.416 1.248.39 2.028 1.144l-.988 2.262a4.5 4.5 0 0 0-1.586-.962 4.6 4.6 0 0 0-1.69-.338q-1.743 0-2.73 1.092-.963 1.092-.962 3.172 0 2.08.962 3.198.987 1.118 2.73 1.118.806 0 1.664-.312a4.8 4.8 0 0 0 1.612-.962l.988 2.236q-.806.754-2.054 1.17a7.7 7.7 0 0 1-2.496.416m13.769 0q-3.303 0-5.174-1.82t-1.872-4.992q0-2.054.806-3.588.805-1.534 2.236-2.392 1.455-.858 3.38-.858 1.897 0 3.172.806 1.273.806 1.924 2.262.675 1.455.676 3.406v.858h-9.568v-1.716h7.254l-.442.364q0-1.82-.78-2.782-.755-.962-2.21-.962-1.612 0-2.496 1.144-.858 1.144-.858 3.198v.338q0 2.132 1.04 3.198 1.065 1.04 2.99 1.04 1.117 0 2.08-.286a6.1 6.1 0 0 0 1.872-.988l.962 2.184q-.937.754-2.236 1.17a9 9 0 0 1-2.756.416"/><rect width="115" height="36" x="36.6" y="130.1" fill="#fff" rx="7.779"/><circle cx="59.1" cy="148.1" r="12" fill="#4092F7" opacity=".2"/><rect width="15" height="15" x="51.6" y="140.6" fill="#4092F7" opacity=".4" rx="7.5"/><rect width="14.222" height="14.222" x="51.989" y="140.989" stroke="#4092F7" stroke-width=".778" rx="7.111"/><circle cx="58.989" cy="147.99" r="1.75" fill="#fff" stroke="#1261C2" stroke-width="1.167"/><path fill="#000" d="M81.656 153.744q-1.456 0-2.608-.368-1.137-.384-1.888-1.04l.56-1.248a5.5 5.5 0 0 0 1.696.944q.927.32 2.144.32 1.52 0 2.224-.496.72-.496.72-1.488 0-.928-.608-1.376-.609-.448-1.856-.448h-2.848v-1.328H81.8q1.2 0 1.808-.448.624-.463.624-1.344-.001-.864-.656-1.36-.656-.496-2-.496-1.024 0-1.936.304a5.1 5.1 0 0 0-1.648.912l-.576-1.248q.75-.656 1.888-1.008a8.2 8.2 0 0 1 2.4-.352q2.064 0 3.104.832 1.056.832 1.056 2.224 0 1.04-.624 1.76-.624.704-1.696.944v-.24q1.2.176 1.888.896.704.72.704 1.888 0 1.008-.496 1.744t-1.488 1.136q-.993.384-2.496.384m9.687 0q-1.073 0-1.872-.496-.801-.497-1.248-1.44-.432-.944-.432-2.24 0-1.312.432-2.24.447-.928 1.248-1.424.8-.512 1.872-.512 1.056 0 1.84.528.783.528 1.04 1.44h-.176l.16-1.824h1.568l-.096.992q-.033.48-.032.944v6.128H94.03v-1.792h.176a2.48 2.48 0 0 1-1.056 1.424q-.785.512-1.808.512m.4-1.264q1.04 0 1.664-.736.64-.736.64-2.176t-.64-2.16q-.624-.736-1.664-.736-1.056 0-1.696.736-.624.72-.624 2.16t.624 2.176 1.696.736m6.385 1.12v-8.064h1.6v3.296h1.392l2.512-3.296h1.76l-3.008 3.968-.4-.512q.464.048.8.24.336.175.656.528.32.352.656.928l1.68 2.912h-1.728l-1.44-2.464a3.1 3.1 0 0 0-.464-.64 1.1 1.1 0 0 0-.512-.32 2.3 2.3 0 0 0-.704-.096h-1.2v3.52zm11.98.144q-1.071 0-1.872-.496-.8-.497-1.248-1.44-.432-.944-.432-2.24 0-1.312.432-2.24.449-.928 1.248-1.424.801-.512 1.872-.512 1.056 0 1.84.528.785.528 1.04 1.44h-.176l.16-1.824h1.568l-.096.992q-.032.48-.032.944v6.128h-1.616v-1.792h.176a2.47 2.47 0 0 1-1.056 1.424q-.783.512-1.808.512m.4-1.264q1.04 0 1.664-.736.64-.736.64-2.176t-.64-2.16q-.623-.736-1.664-.736-1.056 0-1.696.736-.624.72-.624 2.16t.624 2.176 1.696.736m9.186 1.264a7.4 7.4 0 0 1-1.984-.256q-.929-.272-1.52-.768l.496-1.088q.591.464 1.36.704a5.9 5.9 0 0 0 1.648.224q1.104 0 1.6-.32.512-.336.512-.944 0-.592-.416-.896-.417-.304-1.216-.304h-1.984v-1.152h1.824q.72 0 1.12-.304t.4-.848q0-.576-.464-.896-.465-.32-1.44-.32-.833 0-1.52.208a5 5 0 0 0-1.312.624l-.48-1.04a4.4 4.4 0 0 1 1.552-.736 7.5 7.5 0 0 1 1.936-.24q1.568 0 2.384.592.816.576.816 1.664 0 .752-.512 1.28-.497.528-1.344.64v-.208q.976.048 1.552.592.592.528.592 1.408 0 1.088-.928 1.744-.912.64-2.672.64m5.481-.144v-8.064h1.6v2.816h2.288q1.584 0 2.384.672.8.656.8 1.92 0 .816-.368 1.424-.368.593-1.088.912-.703.32-1.728.32zm1.6-1.104h2.112q.912 0 1.376-.368.48-.384.48-1.168t-.48-1.136q-.464-.368-1.376-.368h-2.112zm6.608 1.104v-8.064h1.6v8.064z"/><rect width="206" height="36" x="159.6" y="130.1" fill="#fff" rx="7.779"/><circle cx="181.1" cy="148.1" r="12" fill="#4092F7" opacity=".2"/><rect width="15" height="15" x="173.6" y="140.6" fill="#4092F7" opacity=".4" rx="7.5"/><rect width="14.222" height="14.222" x="173.989" y="140.989" stroke="#4092F7" stroke-width=".778" rx="7.111"/><circle cx="180.989" cy="147.99" r="1.75" fill="#fff" stroke="#1261C2" stroke-width="1.167"/><path fill="#000" d="M199.928 153.6v-11.28h7.44v1.376h-5.776v9.904zm10.773.144q-1.951 0-3.072-1.104t-1.12-3.056q0-1.264.48-2.208a3.6 3.6 0 0 1 1.36-1.456q.88-.528 2.032-.528 1.137 0 1.904.48.768.48 1.168 1.36.4.864.4 2.048v.512h-6.08v-.928h4.976l-.272.208q0-1.2-.544-1.856-.528-.672-1.536-.672-1.119 0-1.728.784-.608.768-.608 2.128v.16q0 1.424.688 2.144.705.72 1.984.72.705 0 1.312-.192a3.7 3.7 0 0 0 1.184-.672l.528 1.104a3.9 3.9 0 0 1-1.36.768 5.5 5.5 0 0 1-1.696.256m8.65 0q-1.2 0-2.08-.496a3.48 3.48 0 0 1-1.36-1.44q-.48-.944-.48-2.24t.48-2.224a3.36 3.36 0 0 1 1.36-1.44q.88-.512 2.08-.512t2.08.512a3.33 3.33 0 0 1 1.376 1.44q.496.928.496 2.224t-.496 2.24a3.44 3.44 0 0 1-1.376 1.44q-.88.496-2.08.496m0-1.264q1.056 0 1.68-.736t.624-2.176-.624-2.16q-.624-.736-1.68-.736-1.04 0-1.664.736-.624.72-.624 2.16t.608 2.176q.624.736 1.68.736m5.949 1.12v-8.064h5.808v1.296h-4.192v6.768zm7.345 3.456v-9.584a10 10 0 0 0-.048-.944 30 30 0 0 0-.08-.992h1.568l.16 1.824h-.176a2.52 2.52 0 0 1 1.024-1.44q.785-.528 1.856-.528t1.872.512q.8.496 1.232 1.424.448.928.448 2.24 0 1.296-.448 2.24-.432.943-1.232 1.44-.8.496-1.872.496-1.056 0-1.84-.512a2.52 2.52 0 0 1-1.024-1.424h.176v5.248zm3.904-4.576q1.056 0 1.68-.736.64-.736.64-2.176t-.64-2.16q-.624-.736-1.68-.736t-1.696.736q-.624.72-.624 2.16t.624 2.176q.64.736 1.696.736m9.122 1.264q-1.072 0-1.872-.496-.801-.497-1.248-1.44-.432-.944-.432-2.24 0-1.312.432-2.24.447-.928 1.248-1.424.8-.512 1.872-.512 1.056 0 1.84.528.783.528 1.04 1.44h-.176l.16-1.824h1.568l-.096.992q-.033.48-.032.944v6.128h-1.616v-1.792h.176a2.48 2.48 0 0 1-1.056 1.424q-.785.512-1.808.512m.4-1.264q1.04 0 1.664-.736.64-.736.64-2.176t-.64-2.16q-.624-.736-1.664-.736-1.056 0-1.696.736-.624.72-.624 2.16t.624 2.176 1.696.736m11.057 4.576v-5.152h.16q-.24.896-.848 1.376-.591.464-1.456.464a2.47 2.47 0 0 1-1.536-.512q-.672-.511-1.04-1.44-.368-.944-.368-2.224 0-1.296.368-2.224.369-.928 1.024-1.44a2.5 2.5 0 0 1 1.552-.512q.864 0 1.456.48.608.48.848 1.344h-.16v-5.392h1.6v5.392h-.16q.257-.864.848-1.344.592-.48 1.456-.48.88 0 1.552.512.673.512 1.024 1.44.368.928.368 2.224 0 1.28-.368 2.224-.351.929-1.024 1.44-.655.512-1.552.512-.847 0-1.456-.464-.591-.48-.848-1.376h.16v5.152zm-1.728-4.544q.816 0 1.28-.736.48-.751.48-2.208 0-1.44-.48-2.192-.464-.752-1.28-.752t-1.296.752q-.464.752-.464 2.192 0 1.457.464 2.208.48.736 1.296.736m5.056 0q.816 0 1.28-.736.48-.751.48-2.208 0-1.44-.48-2.192t-1.28-.752q-.816 0-1.28.752t-.464 2.192q0 1.457.464 2.208.464.736 1.28.736m5.375 1.088v-8.064h1.472v6.512h-.448l4.864-6.512h1.344v8.064h-1.456v-6.528h.464l-4.896 6.528zm9 0 1.264-2.176a2.6 2.6 0 0 1 .768-.848q.48-.336.976-.336h.288l-.016.16q-1.376 0-2.144-.624t-.768-1.792.768-1.808 2.256-.64h3.776v8.064h-1.488v-2.992h-1.072q-.608 0-1.04.304a2.4 2.4 0 0 0-.688.8l-1.088 1.888zm3.68-4.08h2v-2.896h-2q-.895 0-1.344.384-.432.384-.432 1.056 0 .704.432 1.088.449.368 1.344.368m12.98 4.224a7.4 7.4 0 0 1-1.984-.256q-.929-.272-1.52-.768l.496-1.088q.592.464 1.36.704a5.9 5.9 0 0 0 1.648.224q1.104 0 1.6-.32.512-.336.512-.944 0-.592-.416-.896-.417-.304-1.216-.304h-1.984v-1.152h1.824q.72 0 1.12-.304t.4-.848q0-.576-.464-.896-.465-.32-1.44-.32-.833 0-1.52.208a5 5 0 0 0-1.312.624l-.48-1.04a4.4 4.4 0 0 1 1.552-.736 7.5 7.5 0 0 1 1.936-.24q1.568 0 2.384.592.816.576.816 1.664 0 .752-.512 1.28-.497.528-1.344.64v-.208q.976.048 1.552.592.591.528.592 1.408 0 1.088-.928 1.744-.912.64-2.672.64m8.633 0q-1.072 0-1.872-.496-.8-.497-1.248-1.44-.432-.944-.432-2.24 0-1.312.432-2.24.448-.928 1.248-1.424.8-.512 1.872-.512 1.056 0 1.84.528t1.04 1.44h-.176l.16-1.824h1.568l-.096.992q-.032.48-.032.944v6.128h-1.616v-1.792h.176a2.48 2.48 0 0 1-1.056 1.424q-.784.512-1.808.512m.4-1.264q1.04 0 1.664-.736.64-.736.64-2.176t-.64-2.16q-.624-.736-1.664-.736-1.056 0-1.696.736-.624.72-.624 2.16t.624 2.176 1.696.736m6.385 1.12v-8.064h1.6v3.296h1.392l2.512-3.296h1.76l-3.008 3.968-.4-.512q.465.048.8.24.336.175.656.528.32.352.656.928l1.68 2.912h-1.728l-1.44-2.464a3 3 0 0 0-.464-.64 1.1 1.1 0 0 0-.512-.32 2.2 2.2 0 0 0-.704-.096h-1.2v3.52zm11.98.144q-1.071 0-1.872-.496-.8-.497-1.248-1.44-.432-.944-.432-2.24 0-1.312.432-2.24.448-.928 1.248-1.424.801-.512 1.872-.512 1.057 0 1.84.528.785.528 1.04 1.44h-.176l.16-1.824h1.568l-.096.992q-.032.48-.032.944v6.128h-1.616v-1.792h.176a2.47 2.47 0 0 1-1.056 1.424q-.783.512-1.808.512m.4-1.264q1.04 0 1.664-.736.64-.736.64-2.176t-.64-2.16q-.624-.736-1.664-.736-1.056 0-1.696.736-.624.72-.624 2.16t.624 2.176 1.696.736m9.186 1.264a7.4 7.4 0 0 1-1.984-.256q-.928-.272-1.52-.768l.496-1.088q.592.464 1.36.704a5.9 5.9 0 0 0 1.648.224q1.104 0 1.6-.32.512-.336.512-.944 0-.592-.416-.896t-1.216-.304h-1.984v-1.152h1.824q.72 0 1.12-.304t.4-.848q0-.576-.464-.896-.463-.32-1.44-.32-.832 0-1.52.208a5 5 0 0 0-1.312.624l-.48-1.04a4.45 4.45 0 0 1 1.552-.736 7.5 7.5 0 0 1 1.936-.24q1.568 0 2.384.592.816.576.816 1.664 0 .752-.512 1.28-.496.528-1.344.64v-.208q.976.048 1.552.592.592.528.592 1.408 0 1.088-.928 1.744-.912.64-2.672.64m9.001 0q-1.2 0-2.08-.496a3.48 3.48 0 0 1-1.36-1.44q-.48-.944-.48-2.24t.48-2.224a3.36 3.36 0 0 1 1.36-1.44q.88-.512 2.08-.512t2.08.512a3.33 3.33 0 0 1 1.376 1.44q.496.928.496 2.224t-.496 2.24a3.44 3.44 0 0 1-1.376 1.44q-.88.496-2.08.496m0-1.264q1.056 0 1.68-.736t.624-2.176-.624-2.16q-.624-.736-1.68-.736-1.04 0-1.664.736-.624.72-.624 2.16t.608 2.176q.624.736 1.68.736m5.949 1.12v-8.064h4.064q1.456 0 2.144.56.704.544.704 1.552 0 .785-.528 1.296-.512.512-1.36.624v-.208q1.008.048 1.584.592t.576 1.408q0 1.04-.784 1.648-.768.592-2.192.592zm1.52-1.04h2.56q.785 0 1.2-.32.416-.336.416-.96t-.416-.944-1.2-.32h-2.56zm0-3.584h2.384q.72 0 1.12-.32t.4-.88q0-.576-.4-.88-.4-.32-1.12-.32h-2.384z"/><rect width="118" height="36" x="373.6" y="130.1" fill="#fff" rx="7.779"/><circle cx="396.1" cy="148.1" r="12" fill="#4092F7" opacity=".2"/><rect width="15" height="15" x="388.6" y="140.6" fill="#4092F7" opacity=".4" rx="7.5"/><rect width="14.222" height="14.222" x="388.989" y="140.989" stroke="#4092F7" stroke-width=".778" rx="7.111"/><circle cx="395.989" cy="147.99" r="1.75" fill="#fff" stroke="#1261C2" stroke-width="1.167"/><path fill="#000" d="M414.928 153.6v-11.28h4.704q1.824 0 2.8.768.992.768.992 2.16 0 1.04-.624 1.744t-1.712.944v-.24q1.248.16 1.936.88t.688 1.904q0 1.504-1.024 2.32-1.009.8-2.848.8zm1.616-1.296h3.12q1.135 0 1.776-.432.656-.432.656-1.456t-.656-1.456q-.64-.432-1.776-.432h-3.12zm0-5.056h2.832q1.215 0 1.824-.464.608-.464.608-1.36t-.608-1.36-1.824-.464h-2.832zm9.225 6.352v-8.064h1.6v2.816h2.288q1.584 0 2.384.672.8.656.8 1.92 0 .816-.368 1.424-.368.593-1.088.912-.705.32-1.728.32zm1.6-1.104h2.112q.911 0 1.376-.368.48-.384.48-1.168t-.48-1.136q-.464-.368-1.376-.368h-2.112zm6.608 1.104v-8.064h1.6v8.064zm4.01 0v-8.064h1.6v3.296h1.392l2.512-3.296h1.76l-3.008 3.968-.4-.512q.464.048.8.24.336.175.656.528.32.352.656.928l1.68 2.912h-1.728l-1.44-2.464a3 3 0 0 0-.464-.64 1.1 1.1 0 0 0-.512-.32 2.2 2.2 0 0 0-.704-.096h-1.2v3.52zm8.653 3.632-.384-1.312a6.3 6.3 0 0 0 1.248-.384q.512-.224.848-.592.336-.352.576-.912l.4-.944-.032.656-3.504-8.208h1.728l2.72 6.72h-.432l2.72-6.72h1.664l-3.696 8.64a7.2 7.2 0 0 1-.752 1.344 4 4 0 0 1-.864.88q-.465.336-1.024.528a8 8 0 0 1-1.216.304m8.941-3.632v-8.064h7.232v8.064h-1.6v-6.8h-4.032v6.8zm9.656 0v-8.064h1.6v2.816h2.288q1.584 0 2.384.672.8.656.8 1.92 0 .816-.368 1.424-.368.593-1.088.912-.704.32-1.728.32zm1.6-1.104h2.112q.912 0 1.376-.368.48-.384.48-1.168t-.48-1.136q-.464-.368-1.376-.368h-2.112zm6.608 1.104v-8.064h1.6v8.064z"/><rect width="253" height="36" x="36.6" y="174.1" fill="#fff" rx="7.779"/><circle cx="57.1" cy="192.1" r="12" fill="#4092F7" opacity=".2"/><rect width="15" height="15" x="49.6" y="184.6" fill="#4092F7" opacity=".4" rx="7.5"/><rect width="14.222" height="14.222" x="49.989" y="184.989" stroke="#4092F7" stroke-width=".778" rx="7.111"/><circle cx="56.989" cy="191.99" r="1.75" fill="#fff" stroke="#1261C2" stroke-width="1.167"/><path fill="#000" d="M79.736 197.744q-1.36 0-2.464-.336a6.1 6.1 0 0 1-1.92-.992l.56-1.312q.543.416 1.12.688.591.272 1.248.416.672.128 1.456.128 1.344 0 1.968-.48.64-.48.64-1.264 0-.672-.448-1.04-.432-.368-1.536-.592l-1.744-.352q-1.552-.32-2.32-1.04-.752-.736-.752-2-.001-1.024.544-1.792.544-.768 1.504-1.184.976-.416 2.272-.416 1.2 0 2.208.352 1.008.336 1.696 1.008l-.544 1.264a4.8 4.8 0 0 0-1.536-.912q-.816-.304-1.856-.304-1.233 0-1.936.512-.689.512-.688 1.392 0 .703.432 1.104.447.4 1.472.608l1.744.336q1.616.336 2.384 1.04.768.688.768 1.904 0 .976-.528 1.712-.513.737-1.472 1.152-.96.4-2.272.4m6.317-.144v-11.28h7.392v1.328h-5.776v3.552h5.408v1.344h-5.408v3.712h5.776v1.344zm9.038-5.648q0-1.776.624-3.072.623-1.296 1.807-2 1.2-.704 2.848-.704 1.632 0 2.816.704 1.185.704 1.824 2 .657 1.296.656 3.056 0 1.776-.656 3.088a4.74 4.74 0 0 1-1.84 2.016q-1.183.704-2.8.704-1.647 0-2.832-.704a4.8 4.8 0 0 1-1.823-2.016q-.624-1.312-.624-3.072m1.744 0q0 2.048.896 3.2t2.639 1.152q1.697 0 2.624-1.136.928-1.152.928-3.216t-.928-3.2q-.911-1.136-2.624-1.136-1.743 0-2.64 1.136-.895 1.136-.895 3.2m10.9 1.904v-1.296h4.688v1.296zm10.17 3.888q-1.073 0-1.872-.496-.8-.497-1.248-1.44-.432-.944-.432-2.24 0-1.312.432-2.24.448-.928 1.248-1.424.8-.512 1.872-.512 1.056 0 1.84.528t1.04 1.44h-.176l.16-1.824h1.568l-.096.992q-.032.48-.032.944v6.128h-1.616v-1.792h.176a2.48 2.48 0 0 1-1.056 1.424q-.784.512-1.808.512m.4-1.264q1.04 0 1.664-.736.64-.736.64-2.176t-.64-2.16q-.624-.736-1.664-.736-1.056 0-1.696.736-.624.72-.624 2.16t.624 2.176 1.696.736m6.386 1.12v-8.064h1.6v3.28h4.08v-3.28h1.6v8.064h-1.6v-3.52h-4.08v3.52zm12.87.144q-1.071 0-1.872-.496-.8-.497-1.248-1.44-.432-.944-.432-2.24 0-1.312.432-2.24.448-.928 1.248-1.424.801-.512 1.872-.512 1.056 0 1.84.528.785.528 1.04 1.44h-.176l.16-1.824h1.568l-.096.992q-.032.48-.032.944v6.128h-1.616v-1.792h.176a2.47 2.47 0 0 1-1.056 1.424q-.783.512-1.808.512m.4-1.264q1.04 0 1.664-.736.64-.736.64-2.176t-.64-2.16q-.623-.736-1.664-.736-1.056 0-1.696.736-.624.72-.624 2.16t.624 2.176q.625.736 1.696.736m6.05 1.328-.544-1.28q.544-.224.912-.56.384-.352.592-.896.224-.545.32-1.344.096-.8.096-1.936v-2.256h6.08v8.064h-1.6v-6.8h-2.992v1.04q0 1.824-.288 3.024t-.928 1.904q-.624.688-1.648 1.04m9.883-.208v-8.064h1.472v6.512h-.448l4.864-6.512h1.344v8.064h-1.456v-6.528h.464l-4.896 6.528zm11.384 0v-6.768h-2.848v-1.296h7.312v1.296h-2.864v6.768zm5.756 0v-8.064h1.472v6.512h-.448l4.864-6.512h1.344v8.064h-1.456v-6.528h.464l-4.896 6.528zm9.657 0v-8.064h1.6v3.296h1.392l2.512-3.296h1.76l-3.008 3.968-.4-.512q.464.048.8.24.335.176.656.528.32.352.656.928l1.68 2.912h-1.728l-1.44-2.464a3.1 3.1 0 0 0-.464-.64q-.224-.24-.512-.32a2.3 2.3 0 0 0-.704-.096h-1.2v3.52zm11.98.144q-1.072 0-1.872-.496-.801-.497-1.248-1.44-.432-.944-.432-2.24 0-1.312.432-2.24.447-.928 1.248-1.424.8-.512 1.872-.512 1.056 0 1.84.528.783.528 1.04 1.44h-.176l.16-1.824h1.568l-.096.992q-.033.48-.032.944v6.128h-1.616v-1.792h.176a2.48 2.48 0 0 1-1.056 1.424q-.785.512-1.808.512m.4-1.264q1.04 0 1.664-.736.64-.736.64-2.176t-.64-2.16q-.624-.736-1.664-.736-1.056 0-1.696.736-.624.72-.624 2.16t.624 2.176 1.696.736m10.651 1.12v-8.064h1.6v3.296h1.392l2.512-3.296h1.76l-3.008 3.968-.4-.512q.464.048.8.24.336.176.656.528t.656.928l1.68 2.912h-1.728l-1.44-2.464a3.1 3.1 0 0 0-.464-.64 1.1 1.1 0 0 0-.512-.32 2.3 2.3 0 0 0-.704-.096h-1.2v3.52zm11.98.144q-1.072 0-1.872-.496-.8-.497-1.248-1.44-.432-.944-.432-2.24 0-1.312.432-2.24.449-.928 1.248-1.424.8-.512 1.872-.512 1.056 0 1.84.528t1.04 1.44h-.176l.16-1.824h1.568l-.096.992q-.032.48-.032.944v6.128h-1.616v-1.792h.176a2.48 2.48 0 0 1-1.056 1.424q-.784.512-1.808.512m.4-1.264q1.04 0 1.664-.736.64-.736.64-2.176t-.64-2.16q-.624-.736-1.664-.736-1.056 0-1.696.736-.624.72-.624 2.16t.624 2.176 1.696.736m6.449 4.576v-9.584a10 10 0 0 0-.048-.944 30 30 0 0 0-.08-.992h1.568l.16 1.824h-.176a2.52 2.52 0 0 1 1.024-1.44q.785-.528 1.856-.528 1.073 0 1.872.512.8.496 1.232 1.424.448.928.448 2.24 0 1.296-.448 2.24-.432.943-1.232 1.44-.8.496-1.872.496-1.056 0-1.84-.512a2.52 2.52 0 0 1-1.024-1.424h.176v5.248zm3.904-4.576q1.056 0 1.68-.736.64-.736.64-2.176t-.64-2.16q-.624-.736-1.68-.736t-1.696.736q-.624.72-.624 2.16t.624 2.176q.64.736 1.696.736m7.698 1.12v-6.768h-2.848v-1.296h7.312v1.296h-2.864v6.768zm9.229.144q-1.2 0-2.08-.496a3.48 3.48 0 0 1-1.36-1.44q-.48-.944-.48-2.24t.48-2.224a3.36 3.36 0 0 1 1.36-1.44q.88-.512 2.08-.512t2.08.512a3.33 3.33 0 0 1 1.376 1.44q.496.928.496 2.224t-.496 2.24a3.44 3.44 0 0 1-1.376 1.44q-.88.496-2.08.496m0-1.264q1.056 0 1.68-.736t.624-2.176-.624-2.16q-.624-.736-1.68-.736-1.04 0-1.664.736-.624.72-.624 2.16t.608 2.176q.624.736 1.68.736m11.101 1.12v-3.12q-.447.24-.96.384a4.5 4.5 0 0 1-1.088.128q-1.743 0-2.592-.816-.831-.832-.832-2.48v-2.16h1.6v2.032q0 1.104.496 1.6.497.496 1.568.496.545 0 .96-.112.417-.127.816-.384v-3.632h1.616v8.064zm4.004 0v-8.064h1.6v3.296h1.392l2.512-3.296h1.76l-3.008 3.968-.4-.512q.464.048.8.24.336.176.656.528t.656.928l1.68 2.912h-1.728l-1.44-2.464a3 3 0 0 0-.464-.64 1.1 1.1 0 0 0-.512-.32 2.2 2.2 0 0 0-.704-.096h-1.2v3.52zm8.829 0v-8.064h1.472v6.512h-.448l4.864-6.512h1.344v8.064h-1.456v-6.528h.464l-4.896 6.528z"/><rect width="118" height="36" x="297.6" y="174.1" fill="#fff" rx="7.779"/><circle cx="320.6" cy="192.1" r="12" fill="#4092F7" opacity=".2"/><rect width="15" height="15" x="313.1" y="184.6" fill="#4092F7" opacity=".4" rx="7.5"/><rect width="14.222" height="14.222" x="313.489" y="184.989" stroke="#4092F7" stroke-width=".778" rx="7.111"/><circle cx="320.489" cy="191.99" r="1.75" fill="#fff" stroke="#1261C2" stroke-width="1.167"/><path fill="#000" d="M339.044 191.952q0-1.776.624-3.072.623-1.296 1.808-2 1.2-.704 2.848-.704 1.632 0 2.816.704t1.824 2q.656 1.296.656 3.056 0 1.776-.656 3.088a4.75 4.75 0 0 1-1.84 2.016q-1.185.704-2.8.704-1.648 0-2.832-.704a4.77 4.77 0 0 1-1.824-2.016q-.624-1.312-.624-3.072m1.744 0q0 2.048.896 3.2.895 1.152 2.64 1.152 1.695 0 2.624-1.136.928-1.152.928-3.216t-.928-3.2q-.912-1.136-2.624-1.136-1.745 0-2.64 1.136-.897 1.136-.896 3.2m12.724 5.648v-6.768h-2.848v-1.296h7.312v1.296h-2.864v6.768zm5.757 0v-8.064h1.344l2.912 5.152 2.912-5.152h1.344v8.064h-1.424v-6.256h.352l-2.8 4.96h-.768l-2.8-4.96h.352v6.256zm14.729.144q-1.952 0-3.072-1.104t-1.12-3.056q0-1.264.48-2.208a3.6 3.6 0 0 1 1.36-1.456q.88-.528 2.032-.528 1.137 0 1.904.48.769.48 1.168 1.36.4.864.4 2.048v.512h-6.08v-.928h4.976l-.272.208q0-1.2-.544-1.856-.528-.672-1.536-.672-1.119 0-1.728.784-.608.768-.608 2.128v.16q0 1.424.688 2.144.705.72 1.984.72.705 0 1.312-.192a3.7 3.7 0 0 0 1.184-.672l.528 1.104a3.9 3.9 0 0 1-1.36.768 5.5 5.5 0 0 1-1.696.256m5.13-.144v-8.064h1.6v3.28h4.08v-3.28h1.6v8.064h-1.6v-3.52h-4.08v3.52zm9.719 0v-8.064h1.6v2.816h2.288q1.584 0 2.384.672.8.656.8 1.92 0 .816-.368 1.424-.368.593-1.088.912-.704.32-1.728.32zm1.6-1.104h2.112q.912 0 1.376-.368.48-.384.48-1.168t-.48-1.136q-.464-.368-1.376-.368h-2.112zm6.608 1.104v-8.064h1.6v8.064z"/><rect width="133" height="36" x="423.6" y="174.1" fill="#fff" rx="7.779"/><circle cx="446.1" cy="192.1" r="12" fill="#4092F7" opacity=".2"/><rect width="15" height="15" x="438.6" y="184.6" fill="#4092F7" opacity=".4" rx="7.5"/><rect width="14.222" height="14.222" x="438.989" y="184.989" stroke="#4092F7" stroke-width=".778" rx="7.111"/><circle cx="445.989" cy="191.99" r="1.75" fill="#fff" stroke="#1261C2" stroke-width="1.167"/><path fill="#000" d="M464.928 197.6v-11.28h4.704q1.824 0 2.8.768.992.768.992 2.16 0 1.04-.624 1.744t-1.712.944v-.24q1.248.16 1.936.88t.688 1.904q0 1.504-1.024 2.32-1.009.8-2.848.8zm1.616-1.296h3.12q1.135 0 1.776-.432.656-.432.656-1.456t-.656-1.456q-.64-.432-1.776-.432h-3.12zm0-5.056h2.832q1.215 0 1.824-.464.608-.464.608-1.36t-.608-1.36-1.824-.464h-2.832zm12.745 6.496q-1.2 0-2.08-.496a3.47 3.47 0 0 1-1.36-1.44q-.48-.944-.48-2.24t.48-2.224a3.35 3.35 0 0 1 1.36-1.44q.88-.512 2.08-.512t2.08.512a3.33 3.33 0 0 1 1.376 1.44q.495.928.496 2.224 0 1.296-.496 2.24a3.44 3.44 0 0 1-1.376 1.44q-.88.496-2.08.496m0-1.264q1.056 0 1.68-.736t.624-2.176-.624-2.16q-.624-.736-1.68-.736-1.04 0-1.664.736-.624.72-.624 2.16t.608 2.176q.624.736 1.68.736m8.748 1.264a7.4 7.4 0 0 1-1.984-.256q-.927-.272-1.52-.768l.496-1.088q.592.464 1.36.704a5.9 5.9 0 0 0 1.648.224q1.104 0 1.6-.32.512-.336.512-.944 0-.592-.416-.896-.415-.304-1.216-.304h-1.984v-1.152h1.824q.72 0 1.12-.304t.4-.848q0-.576-.464-.896t-1.44-.32a5.2 5.2 0 0 0-1.52.208 5 5 0 0 0-1.312.624l-.48-1.04a4.5 4.5 0 0 1 1.552-.736 7.5 7.5 0 0 1 1.936-.24q1.568 0 2.384.592.816.576.816 1.664 0 .752-.512 1.28-.495.528-1.344.64v-.208q.976.048 1.552.592.592.528.592 1.408 0 1.088-.928 1.744-.912.64-2.672.64m5.482-.144v-8.064h4.064q1.455 0 2.144.56.704.544.704 1.552 0 .784-.528 1.296-.513.512-1.36.624v-.208q1.008.048 1.584.592t.576 1.408q0 1.04-.784 1.648-.768.592-2.192.592zm1.52-1.04h2.56q.783 0 1.2-.32.416-.336.416-.96t-.416-.944-1.2-.32h-2.56zm0-3.584h2.384q.72 0 1.12-.32t.4-.88q0-.576-.4-.88-.4-.32-1.12-.32h-2.384zm7.637 8.08v-9.584a10 10 0 0 0-.048-.944 30 30 0 0 0-.08-.992h1.568l.16 1.824h-.176a2.52 2.52 0 0 1 1.024-1.44q.785-.528 1.856-.528t1.872.512q.8.496 1.232 1.424.448.928.448 2.24 0 1.296-.448 2.24-.431.943-1.232 1.44-.8.496-1.872.496-1.056 0-1.84-.512a2.52 2.52 0 0 1-1.024-1.424h.176v5.248zm3.904-4.576q1.056 0 1.68-.736.64-.736.64-2.176t-.64-2.16q-.624-.736-1.68-.736t-1.696.736q-.624.72-.624 2.16t.624 2.176q.64.736 1.696.736m9.122 1.264q-1.072 0-1.872-.496-.8-.497-1.248-1.44-.432-.944-.432-2.24 0-1.312.432-2.24.449-.928 1.248-1.424.8-.512 1.872-.512 1.056 0 1.84.528t1.04 1.44h-.176l.16-1.824h1.568l-.096.992q-.032.48-.032.944v6.128h-1.616v-1.792h.176a2.48 2.48 0 0 1-1.056 1.424q-.784.512-1.808.512m.4-1.264q1.04 0 1.664-.736.64-.736.64-2.176t-.64-2.16q-.624-.736-1.664-.736-1.056 0-1.696.736-.624.72-.624 2.16t.624 2.176 1.696.736m8.113 1.12v-6.768h-2.848v-1.296h7.312v1.296h-2.864v6.768zm5.757 0v-8.064h1.6v2.816h2.288q1.584 0 2.384.672.8.656.8 1.92 0 .816-.368 1.424-.368.593-1.088.912-.704.32-1.728.32zm1.6-1.104h2.112q.912 0 1.376-.368.48-.384.48-1.168t-.48-1.136q-.464-.368-1.376-.368h-2.112zm6.608 1.104v-8.064h1.6v8.064z"/><rect width="212" height="36" x="36.6" y="218.1" fill="#fff" rx="7.779"/><circle cx="58.1" cy="236.1" r="12" fill="#4092F7" opacity=".2"/><rect width="15" height="15" x="50.6" y="228.6" fill="#4092F7" opacity=".4" rx="7.5"/><rect width="14.222" height="14.222" x="50.989" y="228.989" stroke="#4092F7" stroke-width=".778" rx="7.111"/><circle cx="57.989" cy="235.99" r="1.75" fill="#fff" stroke="#1261C2" stroke-width="1.167"/><path fill="#000" d="M76.544 235.952q0-1.776.624-3.072.623-1.296 1.808-2 1.2-.704 2.848-.704 1.631 0 2.816.704t1.824 2q.656 1.296.656 3.056-.001 1.776-.656 3.088a4.75 4.75 0 0 1-1.84 2.016q-1.185.704-2.8.704-1.65 0-2.832-.704a4.8 4.8 0 0 1-1.824-2.016q-.624-1.312-.624-3.072m1.744 0q0 2.048.896 3.2.895 1.152 2.64 1.152 1.695 0 2.624-1.136.928-1.152.928-3.216t-.928-3.2q-.912-1.136-2.624-1.136-1.745 0-2.64 1.136-.897 1.136-.896 3.2m14.596 5.792q-1.215 0-2.128-.496a3.53 3.53 0 0 1-1.392-1.456q-.48-.96-.48-2.272 0-1.296.496-2.224a3.34 3.34 0 0 1 1.392-1.408q.897-.496 2.112-.496.785 0 1.52.272.736.256 1.216.736l-.528 1.136a2.9 2.9 0 0 0-1.008-.64 2.9 2.9 0 0 0-1.088-.224q-1.151 0-1.808.736-.656.736-.656 2.128 0 1.409.656 2.16.657.752 1.808.752.513 0 1.072-.192a2.9 2.9 0 0 0 1.024-.656l.528 1.136a3.45 3.45 0 0 1-1.248.752q-.735.256-1.488.256m6.3-.144v-6.768h-2.848v-1.296h7.312v1.296h-2.864v6.768zm8.909.144q-1.073 0-1.872-.496-.801-.497-1.248-1.44-.432-.944-.432-2.24 0-1.312.432-2.24.447-.928 1.248-1.424.8-.512 1.872-.512 1.056 0 1.84.528.783.528 1.04 1.44h-.176l.16-1.824h1.568l-.096.992q-.032.48-.032.944v6.128h-1.616v-1.792h.176a2.48 2.48 0 0 1-1.056 1.424q-.785.512-1.808.512m.4-1.264q1.04 0 1.664-.736.64-.736.64-2.176t-.64-2.16q-.624-.736-1.664-.736-1.056 0-1.696.736-.624.72-.624 2.16t.624 2.176 1.696.736m8.113 1.12v-6.768h-2.848v-1.296h7.312v1.296h-2.864v6.768zm5.756 0v-8.064h1.6v3.296h1.392l2.512-3.296h1.76l-3.008 3.968-.4-.512q.465.048.8.24.336.176.656.528t.656.928l1.68 2.912h-1.728l-1.44-2.464a3 3 0 0 0-.464-.64 1.1 1.1 0 0 0-.512-.32 2.2 2.2 0 0 0-.704-.096h-1.2v3.52zm8.829 0v-8.064h1.472v6.512h-.448l4.864-6.512h1.344v8.064h-1.456v-6.528h.464l-4.896 6.528zm13.921 0v-8.064h7.232v8.064h-1.6v-6.8h-4.032v6.8zm13.177.144q-1.2 0-2.08-.496a3.47 3.47 0 0 1-1.36-1.44q-.48-.944-.48-2.24t.48-2.224a3.35 3.35 0 0 1 1.36-1.44q.88-.512 2.08-.512t2.08.512a3.33 3.33 0 0 1 1.376 1.44q.496.928.496 2.224t-.496 2.24a3.44 3.44 0 0 1-1.376 1.44q-.88.496-2.08.496m0-1.264q1.056 0 1.68-.736t.624-2.176-.624-2.16q-.624-.736-1.68-.736-1.04 0-1.664.736-.624.72-.624 2.16t.608 2.176q.624.736 1.68.736m13.814 1.264q-1.216 0-2.128-.496a3.53 3.53 0 0 1-1.392-1.456q-.48-.96-.48-2.272 0-1.296.496-2.224a3.35 3.35 0 0 1 1.392-1.408q.895-.496 2.112-.496.784 0 1.52.272.736.256 1.216.736l-.528 1.136a2.9 2.9 0 0 0-1.008-.64 2.9 2.9 0 0 0-1.088-.224q-1.152 0-1.808.736t-.656 2.128q0 1.409.656 2.16t1.808.752q.512 0 1.072-.192a2.9 2.9 0 0 0 1.024-.656l.528 1.136q-.497.48-1.248.752a4.5 4.5 0 0 1-1.488.256m4.572-.144v-8.064h1.6v3.296h1.392l2.512-3.296h1.76l-3.008 3.968-.4-.512q.464.048.8.24.336.176.656.528t.656.928l1.68 2.912h-1.728l-1.44-2.464a3.1 3.1 0 0 0-.464-.64 1.1 1.1 0 0 0-.512-.32 2.3 2.3 0 0 0-.704-.096h-1.2v3.52zm8.492.208-.544-1.28q.545-.224.912-.56.384-.352.592-.896.224-.545.32-1.344.096-.8.096-1.936v-2.256h6.08v8.064h-1.6v-6.8h-2.992v1.04q0 1.824-.288 3.024t-.928 1.904q-.624.688-1.648 1.04m13.035-.064q-1.072 0-1.872-.496-.8-.497-1.248-1.44-.432-.944-.432-2.24 0-1.312.432-2.24.449-.928 1.248-1.424.8-.512 1.872-.512 1.056 0 1.84.528t1.04 1.44h-.176l.16-1.824h1.568l-.096.992q-.032.48-.032.944v6.128h-1.616v-1.792h.176a2.48 2.48 0 0 1-1.056 1.424q-.784.512-1.808.512m.4-1.264q1.04 0 1.664-.736.64-.736.64-2.176t-.64-2.16q-.624-.736-1.664-.736-1.056 0-1.696.736-.624.72-.624 2.16t.624 2.176 1.696.736m5.585 3.2v-3.328h.896q.528-.8.768-1.872t.24-2.592v-2.352h5.904v6.816h1.296v3.328h-1.392v-2.08h-6.32v2.08zm2.384-3.312h3.904v-5.584h-2.992v1.424q0 1.168-.24 2.288-.224 1.104-.672 1.872m11.475 1.376q-1.072 0-1.872-.496-.801-.497-1.248-1.44-.432-.944-.432-2.24 0-1.312.432-2.24.447-.928 1.248-1.424.8-.512 1.872-.512 1.056 0 1.84.528.783.528 1.04 1.44h-.176l.16-1.824h1.568l-.096.992q-.033.48-.032.944v6.128h-1.616v-1.792h.176a2.48 2.48 0 0 1-1.056 1.424q-.785.512-1.808.512m.4-1.264q1.04 0 1.664-.736.64-.736.64-2.176t-.64-2.16q-.624-.736-1.664-.736-1.056 0-1.696.736-.624.72-.624 2.16t.624 2.176 1.696.736m6.385 1.12v-8.064h1.344l2.912 5.152 2.912-5.152h1.344v8.064h-1.424v-6.256h.352l-2.8 4.96h-.768l-2.8-4.96h.352v6.256z"/><rect width="262" height="36" x="256.6" y="218.1" fill="#fff" rx="7.779"/><circle cx="277.6" cy="236.1" r="12" fill="#4092F7" opacity=".2"/><rect width="15" height="15" x="270.1" y="228.6" fill="#4092F7" opacity=".4" rx="7.5"/><rect width="14.222" height="14.222" x="270.489" y="228.989" stroke="#4092F7" stroke-width=".778" rx="7.111"/><circle cx="277.489" cy="235.99" r="1.75" fill="#fff" stroke="#1261C2" stroke-width="1.167"/><path fill="#000" d="M296.044 235.952q0-1.776.624-3.072.623-1.296 1.808-2 1.2-.704 2.848-.704 1.632 0 2.816.704t1.824 2q.656 1.296.656 3.056 0 1.776-.656 3.088a4.75 4.75 0 0 1-1.84 2.016q-1.185.704-2.8.704-1.648 0-2.832-.704a4.77 4.77 0 0 1-1.824-2.016q-.624-1.312-.624-3.072m1.744 0q0 2.048.896 3.2.895 1.152 2.64 1.152 1.695 0 2.624-1.136.928-1.152.928-3.216t-.928-3.2q-.912-1.136-2.624-1.136-1.745 0-2.64 1.136-.897 1.136-.896 3.2m14.58 5.792q-1.824 0-2.912-1.136-1.072-1.136-1.072-3.344v-1.392q0-2.256.96-3.632.977-1.376 3.008-1.856l2.944-.704.464 1.296-3.296.768q-.863.192-1.424.72a3.5 3.5 0 0 0-.848 1.248q-.272.72-.272 1.536v.736h-.24a3.25 3.25 0 0 1 .608-1.248q.432-.528 1.056-.816a3.3 3.3 0 0 1 1.424-.304q1.041 0 1.824.48t1.216 1.392q.448.896.448 2.128 0 1.28-.48 2.208a3.37 3.37 0 0 1-1.36 1.424q-.863.496-2.048.496m-.048-1.248q1.089 0 1.696-.704.624-.72.624-2.112 0-1.376-.624-2.096t-1.696-.72q-1.071 0-1.696.72-.624.703-.624 2.016 0 1.44.608 2.176.624.72 1.712.72m16.733 3.184v-2.08h-10.784v-8.064h1.52v6.8h3.152v-6.8h1.52v6.8h3.136v-6.8h1.536v6.8h1.28v3.344zm6.133-1.936q-1.071 0-1.872-.496-.8-.497-1.248-1.44-.432-.944-.432-2.24 0-1.312.432-2.24.448-.928 1.248-1.424.801-.512 1.872-.512 1.056 0 1.84.528.785.528 1.04 1.44h-.176l.16-1.824h1.568l-.096.992q-.032.48-.032.944v6.128h-1.616v-1.792h.176a2.47 2.47 0 0 1-1.056 1.424q-.783.512-1.808.512m.4-1.264q1.04 0 1.664-.736.64-.736.64-2.176t-.64-2.16q-.624-.736-1.664-.736-1.056 0-1.696.736-.624.72-.624 2.16t.624 2.176q.625.736 1.696.736m5.73 1.12 1.264-2.176a2.6 2.6 0 0 1 .768-.848q.48-.336.976-.336h.288l-.016.16q-1.376 0-2.144-.624t-.768-1.792.768-1.808 2.256-.64h3.776v8.064h-1.488v-2.992h-1.072q-.608 0-1.04.304a2.4 2.4 0 0 0-.688.8l-1.088 1.888zm3.68-4.08h2v-2.896h-2q-.895 0-1.344.384-.432.384-.432 1.056 0 .704.432 1.088.449.368 1.344.368m13.779 4.224q-1.216 0-2.128-.496a3.53 3.53 0 0 1-1.392-1.456q-.48-.96-.48-2.272 0-1.296.496-2.224a3.35 3.35 0 0 1 1.392-1.408q.895-.496 2.112-.496.784 0 1.52.272.736.256 1.216.736l-.528 1.136a2.9 2.9 0 0 0-1.008-.64 2.9 2.9 0 0 0-1.088-.224q-1.152 0-1.808.736t-.656 2.128q0 1.409.656 2.16t1.808.752q.512 0 1.072-.192a2.9 2.9 0 0 0 1.024-.656l.528 1.136q-.497.48-1.248.752a4.5 4.5 0 0 1-1.488.256m6.3-.144v-6.768h-2.848v-1.296h7.312v1.296h-2.864v6.768zm8.908.144q-1.071 0-1.872-.496-.8-.497-1.248-1.44-.432-.944-.432-2.24 0-1.312.432-2.24.448-.928 1.248-1.424.801-.512 1.872-.512 1.057 0 1.84.528.785.528 1.04 1.44h-.176l.16-1.824h1.568l-.096.992q-.032.48-.032.944v6.128h-1.616v-1.792h.176a2.47 2.47 0 0 1-1.056 1.424q-.783.512-1.808.512m.4-1.264q1.04 0 1.664-.736.64-.736.64-2.176t-.64-2.16q-.624-.736-1.664-.736-1.056 0-1.696.736-.624.72-.624 2.16t.624 2.176 1.696.736m8.114 1.12v-6.768h-2.848v-1.296h7.312v1.296h-2.864v6.768zm5.756 0v-8.064h1.472v6.512h-.448l4.864-6.512h1.344v8.064h-1.456v-6.528h.464l-4.896 6.528zm13.256.144q-1.216 0-2.128-.496a3.53 3.53 0 0 1-1.392-1.456q-.48-.96-.48-2.272 0-1.296.496-2.224a3.35 3.35 0 0 1 1.392-1.408q.897-.496 2.112-.496.785 0 1.52.272.736.256 1.216.736l-.528 1.136a2.9 2.9 0 0 0-1.008-.64 2.9 2.9 0 0 0-1.088-.224q-1.151 0-1.808.736-.656.736-.656 2.128 0 1.409.656 2.16t1.808.752q.513 0 1.072-.192a2.9 2.9 0 0 0 1.024-.656l.528 1.136q-.495.48-1.248.752-.735.256-1.488.256m6.3-.144v-6.768h-2.848v-1.296h7.312v1.296h-2.864v6.768zm5.757 0v-8.064h1.472v6.512h-.448l4.864-6.512h1.344v8.064h-1.456v-6.528h.464l-4.896 6.528zm9.656 0v-8.064h1.6v3.296h1.392l2.512-3.296h1.76l-3.008 3.968-.4-.512q.464.048.8.24.336.176.656.528t.656.928l1.68 2.912h-1.728l-1.44-2.464a3.1 3.1 0 0 0-.464-.64 1.1 1.1 0 0 0-.512-.32 2.3 2.3 0 0 0-.704-.096h-1.2v3.52zm11.98.144q-1.072 0-1.872-.496-.8-.497-1.248-1.44-.432-.944-.432-2.24 0-1.312.432-2.24.448-.928 1.248-1.424.8-.512 1.872-.512 1.056 0 1.84.528t1.04 1.44h-.176l.16-1.824h1.568l-.096.992q-.032.48-.032.944v6.128h-1.616v-1.792h.176a2.48 2.48 0 0 1-1.056 1.424q-.784.512-1.808.512m.4-1.264q1.04 0 1.664-.736.64-.736.64-2.176t-.64-2.16q-.624-.736-1.664-.736-1.056 0-1.696.736-.624.72-.624 2.16t.624 2.176 1.696.736m13.451 1.264a7.4 7.4 0 0 1-1.984-.256q-.928-.272-1.52-.768l.496-1.088q.592.464 1.36.704a5.9 5.9 0 0 0 1.648.224q1.104 0 1.6-.32.512-.336.512-.944 0-.592-.416-.896t-1.216-.304h-1.984v-1.152h1.824q.72 0 1.12-.304t.4-.848q0-.576-.464-.896-.463-.32-1.44-.32-.832 0-1.52.208a5 5 0 0 0-1.312.624l-.48-1.04a4.45 4.45 0 0 1 1.552-.736 7.5 7.5 0 0 1 1.936-.24q1.568 0 2.384.592.816.576.816 1.664 0 .752-.512 1.28-.497.528-1.344.64v-.208q.976.048 1.552.592.592.528.592 1.408 0 1.088-.928 1.744-.912.64-2.672.64m8.633 0q-1.071 0-1.872-.496-.8-.497-1.248-1.44-.432-.944-.432-2.24 0-1.312.432-2.24.448-.928 1.248-1.424.801-.512 1.872-.512 1.057 0 1.84.528.785.528 1.04 1.44h-.176l.16-1.824h1.568l-.096.992q-.032.48-.032.944v6.128h-1.616v-1.792h.176a2.47 2.47 0 0 1-1.056 1.424q-.783.512-1.808.512m.4-1.264q1.04 0 1.664-.736.64-.736.64-2.176t-.64-2.16q-.624-.736-1.664-.736-1.056 0-1.696.736-.624.72-.624 2.16t.624 2.176q.625.736 1.696.736m9.851 3.2v-3.328h.896q.528-.8.768-1.872t.24-2.592v-2.352h5.904v6.816h1.296v3.328h-1.392v-2.08h-6.32v2.08zm2.384-3.312h3.904v-5.584h-2.992v1.424q0 1.168-.24 2.288-.223 1.104-.672 1.872m12.115 1.376q-1.953 0-3.072-1.104-1.12-1.104-1.12-3.056 0-1.264.48-2.208a3.6 3.6 0 0 1 1.36-1.456q.88-.528 2.032-.528 1.136 0 1.904.48t1.168 1.36q.4.864.4 2.048v.512h-6.08v-.928h4.976l-.272.208q0-1.2-.544-1.856-.528-.672-1.536-.672-1.12 0-1.728.784-.609.768-.608 2.128v.16q0 1.424.688 2.144.703.72 1.984.72a4.3 4.3 0 0 0 1.312-.192q.624-.208 1.184-.672l.528 1.104a3.9 3.9 0 0 1-1.36.768 5.5 5.5 0 0 1-1.696.256m5.13-.144v-8.064h1.6v3.28h4.08v-3.28h1.6v8.064h-1.6v-3.52h-4.08v3.52zm9.718 0v-8.064h1.6v2.816h2.288q1.584 0 2.384.672.8.656.8 1.92 0 .816-.368 1.424-.368.593-1.088.912-.704.32-1.728.32zm1.6-1.104h2.112q.897 0 1.376-.368.48-.384.48-1.168t-.48-1.136q-.464-.368-1.376-.368h-2.112z"/></svg>