<svg xmlns="http://www.w3.org/2000/svg" width="194" height="301" fill="none"><g clip-path="url(#a)"><rect width="193" height="300" x=".5" y=".1" fill="#F7F7F7" rx="16"/><rect width="94" height="61" x="-11.5" y="295.1" fill="#1A1A1A" rx="8.103" transform="rotate(-70.34 -11.5 295.1)"/><path fill="#fff" d="m35.352 295.046-19.783-19.333 1.547-4.331 27.603-2.556-1.895 5.304-7.6.503 2.176-1.532-5.026 14.067-.7-2.597 5.56 5.204zm-13.51-19.515 8.726 8.001-1.6.451 3.779-10.576 1 1.228-11.857.762zm23.606-8.746-23.669-8.456 3.946-11.046q1.428-3.995 4.106-5.348 2.658-1.397 6.015-.198 3.324 1.187 4.561 3.977 1.216 2.743-.212 6.739l-2.075 5.808 9.2 3.286zm-11.39-9.976 1.835-5.136q.672-1.88.156-3.087-.503-1.24-2.014-1.779-1.51-.54-2.652.112-1.163.606-1.835 2.487l-1.835 5.137zm19.484-12.68-23.669-8.456 1.871-5.237 23.67 8.456z"/><rect width="94" height="61" x="120.5" y="174.1" fill="#4092F7" rx="8.103" transform="rotate(19.631 120.5 174.1)"/><path fill="#fff" d="m120.577 220.952 19.324-19.793 4.332 1.545 2.569 27.603-5.305-1.893-.507-7.6 1.534 2.175-14.07-5.019 2.597-.701-5.202 5.563zm19.509-13.519-7.997 8.73-.452-1.599 10.578 3.773-1.228 1-.767-11.856zm8.758 23.602 8.444-23.674 11.047 3.941q3.996 1.425 5.35 4.103 1.4 2.657.201 6.015-1.185 3.324-3.974 4.563-2.743 1.217-6.739-.208l-5.809-2.073-3.282 9.201zm9.969-11.396 5.138 1.833q1.88.67 3.086.155 1.24-.504 1.779-2.016.539-1.51-.114-2.652-.608-1.162-2.487-1.834l-5.138-1.832zm12.69 19.478 8.444-23.673 5.239 1.868-8.445 23.674z"/><rect width="94" height="61" x="104.5" y="266.1" fill="#F0AD00" rx="8.103" transform="rotate(-26.986 104.5 266.1)"/><path fill="#fff" d="m138.604 298.225-1.112-27.639 4.098-2.087 21.826 17.091-5.02 2.556-5.871-4.852 2.634.379-13.312 6.779 1.274-2.369.471 7.602zm3.574-23.465.852 11.809-1.472-.771 10.007-5.096-.116 1.58-9.144-7.586zm23.169 9.846-11.405-22.397 10.452-5.323q3.78-1.925 6.657-1.069 2.892.808 4.509 3.985 1.602 3.144.587 6.022-1 2.83-4.78 4.755l-5.497 2.799 4.433 8.705zm-1.434-15.072 4.861-2.476q1.779-.906 2.232-2.137.484-1.247-.243-2.676-.728-1.43-2.006-1.74-1.262-.357-3.041.549l-4.861 2.475zm22.872 4.155-11.405-22.397 4.956-2.524 11.405 22.398z"/><rect width="94" height="61" x="44.5" y="256.1" fill="#5329FF" rx="8.103" transform="rotate(-11.12 44.5 256.1)"/><path fill="#fff" d="m68.522 296.325 6.487-26.891 4.513-.887 16.322 22.408-5.528 1.086-4.32-6.272 2.429 1.085-14.658 2.881 1.873-1.931-1.625 7.441zm9.853-21.594-2.408 11.592-1.206-1.144 11.02-2.166-.544 1.488-6.722-9.797zm19.595 15.806-4.848-24.663 11.509-2.262q4.164-.819 6.696.791 2.56 1.568 3.249 5.066.68 3.463-1.083 5.954-1.736 2.448-5.898 3.266l-6.052 1.19 1.884 9.585zm2.741-14.891 5.352-1.052q1.96-.386 2.732-1.445.808-1.067.498-2.642t-1.454-2.221q-1.116-.688-3.075-.304l-5.352 1.052zm20.865 10.251-4.847-24.663 5.457-1.073 4.847 24.663z"/><rect width="94" height="61" x="-19.5" y="88.1" fill="#4092F7" rx="8.103" transform="rotate(-31.194 -19.5 88.1)"/><path fill="#fff" d="m16.869 117.636-3.137-27.483 3.934-2.382 23.021 15.444-4.818 2.917-6.212-4.408 2.654.185-12.778 7.737 1.097-2.456 1.027 7.547zm1.843-23.663 1.716 11.714-1.525-.661 9.607-5.816v1.583l-9.676-6.894zm23.829 8.119-13.018-21.5 10.033-6.075q3.63-2.198 6.56-1.555 2.945.593 4.79 3.643 1.83 3.019 1.027 5.963-.79 2.895-4.418 5.093l-5.276 3.194 5.06 8.357zm-2.536-14.927 4.666-2.825q1.707-1.034 2.07-2.295.391-1.28-.44-2.652-.83-1.373-2.127-1.587-1.286-.264-2.993.77l-4.666 2.825zm23.115 2.467-13.018-21.5 4.758-2.881 13.018 21.5z"/><rect width="94" height="61" x="18.5" y="104.1" fill="#1A1A1A" rx="8.103" transform="rotate(10.426 18.5 104.1)"/><path fill="#fff" d="m26.071 150.336 15.91-22.629 4.522.832 6.952 26.836-5.54-1.019-1.715-7.421 1.861 1.901-14.691-2.703 2.451-1.108-4.245 6.324zm17.095-16.466-6.497 9.897-.702-1.506 11.045 2.032-1.052 1.184-2.654-11.581zm12.42 21.897 4.55-24.719 11.535 2.122q4.172.768 5.937 3.195 1.806 2.399 1.161 5.905-.639 3.471-3.193 5.14-2.513 1.64-6.686.872l-6.066-1.116-1.767 9.608zm8.02-12.843 5.364.987q1.963.361 3.071-.341 1.143-.696 1.434-2.274t-.537-2.6q-.786-1.051-2.749-1.412l-5.365-.987zm15.641 17.197 4.549-24.72 5.47 1.007-4.549 24.719z"/><rect width="94" height="61" x="22.5" y="-65.9" fill="#1A1A1A" rx="8.103" transform="rotate(27.886 22.5 -65.9)"/><path fill="#fff" d="m15.85-19.522 21.965-16.814 4.065 2.151-1.42 27.686-4.978-2.635.59-7.594 1.205 2.372-13.204-6.986 2.671-.321-5.947 4.759zm21.248-10.579-9.168 7.492-.217-1.648 9.926 5.253-1.358.814.943-11.844zm5.278 24.615 11.756-22.216 10.367 5.486q3.75 1.985 4.705 4.83 1.004 2.83-.664 5.98-1.65 3.12-4.588 3.946-2.89.81-6.64-1.174l-5.451-2.885-4.57 8.634zm11.503-9.846 4.82 2.552q1.766.933 3.033.596 1.3-.321 2.05-1.74.75-1.417.268-2.64-.434-1.239-2.199-2.172l-4.821-2.551zM63.64 5.766l11.756-22.215 4.916 2.6L68.556 8.369z"/><rect width="94" height="61" x="59.5" y="174.1" fill="#F0AD00" rx="8.103" transform="rotate(26.313 59.5 174.1)"/><path fill="#fff" d="m54.125 220.643 21.496-17.41 4.122 2.039-.659 27.713-5.05-2.497.382-7.607 1.27 2.338-13.39-6.621 2.66-.395-5.813 4.921zm20.95-11.158-8.959 7.741-.262-1.641 10.066 4.978-1.335.851.617-11.865zm5.952 24.461 11.141-22.53 10.514 5.199q3.803 1.881 4.836 4.698 1.08 2.802-.5 5.997-1.564 3.164-4.478 4.07-2.867.889-6.669-.991l-5.529-2.734-4.33 8.756zm11.228-10.158 4.89 2.418q1.788.885 3.047.513 1.29-.357 2.001-1.795t.195-2.648q-.468-1.225-2.257-2.11l-4.89-2.418zm10.337 20.822 11.141-22.53 4.986 2.465-11.142 22.53z"/><rect width="94" height="61" x="100.5" y="50.1" fill="#F0AD00" rx="8.103" transform="rotate(-19.449 100.5 50.1)"/><path fill="#fff" d="m130.096 86.42 2.523-27.546 4.336-1.53 19.396 19.806-5.312 1.875-5.184-5.58 2.561.722-14.086 4.974 1.574-2.182-.531 7.598zm6.621-22.792-.704 11.818-1.359-.957 10.589-3.739-.322 1.55-8.07-8.72zm21.677 12.8-8.369-23.7 11.06-3.906q4-1.412 6.74-.186 2.762 1.18 3.948 4.541 1.175 3.33-.209 6.048-1.362 2.674-5.362 4.087l-5.816 2.053 3.252 9.211zm.555-15.13 5.144-1.817q1.883-.665 2.493-1.825.645-1.173.111-2.686t-1.761-1.987q-1.205-.52-3.087.145l-5.143 1.816zm22.13 7.12-8.369-23.7 5.245-1.852 8.369 23.7z"/><rect width="94" height="61" x="9.5" y="147.1" fill="#5329FF" rx="8.103" transform="rotate(48.834 9.5 147.1)"/><path fill="#fff" d="m-13.292 188.034 26.525-7.848 3.027 3.462-11.224 25.348-3.708-4.241 3.266-6.881.277 2.646-9.833-11.245 2.61.655-7.256 2.318zm23.625-2.282-11.24 3.719.386-1.617 7.393 8.455-1.56.274 5.115-10.724zm-3.87 24.875 18.92-16.544 7.722 8.83q2.791 3.194 2.667 6.192-.075 3.002-2.759 5.348-2.657 2.323-5.695 2.044-2.989-.276-5.781-3.47l-4.06-4.643-7.354 6.43zm14.262-5.083 3.59 4.107q1.315 1.503 2.619 1.641 1.327.165 2.536-.892 1.207-1.056 1.195-2.37.037-1.311-1.277-2.815l-3.59-4.106zm1.573 23.194 18.922-16.544 3.66 4.187-18.92 16.544z"/><rect width="94" height="61" x="100.5" y="147.1" fill="#5329FF" rx="8.103" transform="rotate(-24.966 100.5 147.1)"/><path fill="#fff" d="m133.451 180.407-.137-27.661 4.169-1.941 21.21 17.849-5.107 2.378-5.696-5.056 2.618.472-13.542 6.305 1.357-2.322.202 7.613zm4.399-23.324.436 11.831-1.445-.822 10.181-4.74-.172 1.575-8.871-7.904zm22.808 10.657-10.609-22.786 10.633-4.951q3.846-1.791 6.691-.834 2.861.91 4.366 4.141 1.49 3.2.374 6.04-1.1 2.792-4.945 4.583l-5.592 2.603 4.124 8.856zm-.902-15.114 4.945-2.303q1.81-.842 2.306-2.057.528-1.229-.148-2.683-.678-1.455-1.944-1.809-1.248-.402-3.058.441l-4.945 2.302zm22.711 4.959-10.608-22.786 5.041-2.347 10.609 22.786z"/></g><defs><clipPath id="a"><rect width="193" height="300" x=".5" y=".1" fill="#fff" rx="16"/></clipPath></defs></svg>