<svg xmlns="http://www.w3.org/2000/svg" width="616" height="84" fill="none"><rect width="615" height="82.3" x=".5" y=".756" fill="#270C94" rx="8"/><rect width="70.772" height="42.3" x="28.613" y="20.756" fill="#5329FF" rx="21.15"/><rect width="32.539" height="32.539" x="61.152" y="25.637" fill="#fff" rx="16.269"/><path fill="#fff" d="M120.382 54.657v-5.625h1.45q.75-1.176 1.075-2.75.35-1.6.35-3.9v-3.6h9.725v10.25h2.05v5.625h-2.65v-3.25h-9.35v3.25zm4.25-5.6h5.425v-7.925h-4.15v1.95q0 1.674-.325 3.275-.325 1.599-.95 2.7m12.37 2.7-.975-2.45q.826-.3 1.375-.775.576-.5.9-1.25.35-.775.5-1.9.15-1.15.15-2.725v-3.875h10.05v12.625h-3.1V41.182h-4.1v1.575q0 2.724-.5 4.575-.5 1.824-1.55 2.9t-2.75 1.525m14.51-.35 1.925-3.325a4.2 4.2 0 0 1 1.225-1.35q.75-.525 1.55-.525h.55l-.025.275q-2.226 0-3.425-.975-1.2-.975-1.2-2.85 0-1.851 1.225-2.85 1.25-1.026 3.65-1.025h6.275v12.625h-2.85v-4.45h-1.425q-.775 0-1.375.425-.576.425-.975 1.1l-1.65 2.925zm6.075-6.475h2.825v-4.125h-2.825q-1.275 0-1.925.55-.625.549-.625 1.5 0 1 .625 1.55.65.525 1.925.525m22.018 6.725q-2.976 0-4.75-1.8-1.75-1.8-1.75-5.275v-2.15q0-3.575 1.625-5.75t4.9-2.875l4.625-1.05.85 2.45-5.2 1.15q-1.3.274-2.15 1.05-.85.75-1.275 1.8t-.425 2.25v1.325h-.425q.274-1.125.925-1.95a4.44 4.44 0 0 1 1.65-1.325q1-.475 2.275-.475 1.6 0 2.8.75 1.224.724 1.925 2.125.7 1.374.7 3.3 0 1.974-.8 3.425a5.5 5.5 0 0 1-2.2 2.25q-1.401.775-3.3.775m-.1-2.375q1.55 0 2.4-.975.875-1 .875-2.975 0-1.926-.875-2.925-.876-1.025-2.4-1.025-1.526 0-2.4 1-.876.999-.875 2.85 0 2.024.875 3.05.874 1 2.4 1m9.36 2.125V38.782h3.1v4.225h3.325q2.525 0 3.8 1.075 1.275 1.05 1.275 3.05 0 1.3-.6 2.275-.6.95-1.75 1.475-1.125.525-2.725.525zm3.1-2.05h2.9q1.275 0 1.95-.525.675-.55.675-1.65t-.675-1.6q-.65-.525-1.95-.525h-2.9zm9.975 2.05V38.782h3.1v12.625zm12.552.25q-1.95 0-3.425-.8a5.58 5.58 0 0 1-2.25-2.275q-.8-1.5-.8-3.55t.8-3.5a5.6 5.6 0 0 1 2.275-2.225q1.45-.775 3.4-.775 1.25 0 2.425.4 1.2.374 1.95 1.1l-.95 2.175a4.4 4.4 0 0 0-1.525-.925 4.4 4.4 0 0 0-1.625-.325q-1.675 0-2.625 1.05-.925 1.05-.925 3.05t.925 3.075q.95 1.075 2.625 1.075.775 0 1.6-.3a4.6 4.6 0 0 0 1.55-.925l.95 2.15q-.775.724-1.975 1.125-1.174.4-2.4.4m9.764-.25V41.232h-4.325v-2.45h11.775v2.45h-4.35v10.175zm9.485 5.4V41.932a26 26 0 0 0-.2-3.15h3.025l.275 2.65h-.275q.375-1.326 1.575-2.1 1.224-.8 2.825-.8 1.674 0 2.925.8 1.25.774 1.95 2.25.7 1.45.7 3.5t-.7 3.525q-.7 1.474-1.95 2.275-1.251.775-2.925.775-1.575 0-2.775-.775-1.2-.776-1.6-2.075h.275v8zm6.35-7.55q1.5 0 2.4-1.025.9-1.05.9-3.15t-.9-3.125q-.9-1.026-2.4-1.025-1.476 0-2.375 1.025-.9 1.025-.9 3.125t.9 3.15q.9 1.025 2.375 1.025m15.194 2.4q-1.95 0-3.375-.8a5.63 5.63 0 0 1-2.225-2.275q-.774-1.476-.775-3.5 0-2.025.775-3.475a5.63 5.63 0 0 1 2.225-2.275q1.425-.8 3.375-.8t3.375.8a5.4 5.4 0 0 1 2.225 2.275q.8 1.45.8 3.475 0 2.024-.8 3.5a5.4 5.4 0 0 1-2.225 2.275q-1.425.8-3.375.8m0-2.4q1.476 0 2.35-1.025.875-1.05.875-3.15t-.875-3.125q-.874-1.026-2.35-1.025-1.474 0-2.35 1.025-.875 1.025-.875 3.125t.875 3.15q.876 1.025 2.35 1.025m9.362 2.15V38.782h2.825v9.55h-.75l7.175-9.55h2.575v12.625h-2.825v-9.575h.775l-7.2 9.575zm5.9-13.775q-1.25 0-2.2-.4a4.3 4.3 0 0 1-1.575-1.175 4.8 4.8 0 0 1-.9-1.825l1.6-.55q.425 1.15 1.175 1.7.75.525 1.925.525t1.925-.525q.75-.526 1.225-1.675l1.525.525q-.526 1.674-1.75 2.55-1.2.85-2.95.85m16.341 13.775V38.782h2.825v9.55h-.75l7.175-9.55h2.575v12.625h-2.825v-9.575h.775l-7.2 9.575zm26.141.25q-1.425 0-2.725-.4-1.3-.426-2.075-1.2l.925-1.95a5.4 5.4 0 0 0 1.675.975q.975.325 1.95.325 1.775 0 2.825-1t1.15-2.95l.325.6h-6.35v-2.125h6.35l-.325.6q-.1-1.176-.575-2.025-.45-.85-1.3-1.3t-2.1-.45q-.95 0-1.925.325-.95.324-1.7.975l-.925-1.975q.85-.726 2.15-1.125a8.6 8.6 0 0 1 2.675-.425q2.025 0 3.5.775a5.35 5.35 0 0 1 2.3 2.25q.8 1.45.8 3.5t-.825 3.55a5.5 5.5 0 0 1-2.3 2.275q-1.475.775-3.5.775m17.002 5.15v-7.85h.275q-.4 1.3-1.35 2-.925.7-2.25.7a4 4 0 0 1-2.45-.8q-1.05-.825-1.65-2.3-.6-1.476-.6-3.475 0-2.025.575-3.475.6-1.476 1.65-2.275 1.074-.8 2.475-.8 1.325 0 2.25.7.95.7 1.35 1.975h-.275v-8.2h3.1v8.2h-.275q.4-1.275 1.325-1.975.95-.7 2.275-.7 1.4 0 2.45.8 1.074.8 1.65 2.275.6 1.45.6 3.475 0 2-.6 3.475-.576 1.475-1.65 2.3-1.05.8-2.45.8-1.3 0-2.25-.7-.925-.7-1.35-2h.275v7.85zm-2.425-7.5q1.149 0 1.8-1.05.675-1.05.675-3.175 0-2.1-.675-3.15-.675-1.075-1.8-1.075-1.15 0-1.825 1.075-.675 1.05-.675 3.15 0 2.124.675 3.175t1.825 1.05m7.95 0q1.15 0 1.825-1.05t.675-3.175q0-2.1-.7-3.15-.675-1.075-1.8-1.075-1.15 0-1.825 1.075-.65 1.05-.65 3.15 0 2.124.65 3.175.675 1.05 1.825 1.05m15.983 7.5v-7.85h.275q-.399 1.3-1.35 2-.924.7-2.25.7a4 4 0 0 1-2.45-.8q-1.05-.825-1.65-2.3-.6-1.476-.6-3.475 0-2.025.575-3.475.6-1.476 1.65-2.275 1.075-.8 2.475-.8 1.326 0 2.25.7.951.7 1.35 1.975h-.275v-8.2h3.1v8.2h-.275q.4-1.275 1.325-1.975.95-.7 2.275-.7 1.4 0 2.45.8 1.076.8 1.65 2.275.6 1.45.6 3.475 0 2-.6 3.475-.575 1.475-1.65 2.3-1.05.8-2.45.8-1.299 0-2.25-.7-.924-.7-1.35-2h.275v7.85zm-2.425-7.5q1.15 0 1.8-1.05.675-1.05.675-3.175 0-2.1-.675-3.15-.675-1.075-1.8-1.075-1.15 0-1.825 1.075-.675 1.05-.675 3.15 0 2.124.675 3.175t1.825 1.05m7.95 0q1.15 0 1.825-1.05t.675-3.175q0-2.1-.7-3.15-.675-1.075-1.8-1.075-1.15 0-1.825 1.075-.65 1.05-.65 3.15 0 2.124.65 3.175.675 1.05 1.825 1.05m14.759 2.35q-3.175 0-4.975-1.75t-1.8-4.8q0-1.975.775-3.45t2.15-2.3q1.4-.825 3.25-.825 1.825 0 3.05.775 1.225.774 1.85 2.175.65 1.4.65 3.275v.825h-9.2v-1.65h6.975l-.425.35q0-1.75-.75-2.675-.725-.925-2.125-.925-1.55 0-2.4 1.1-.825 1.1-.825 3.075v.325q0 2.049 1 3.075 1.025 1 2.875 1 1.075 0 2-.275a5.9 5.9 0 0 0 1.8-.95l.925 2.1q-.9.724-2.15 1.125-1.25.4-2.65.4m7.838-.25V38.782h3.1v4.95h1.9l3.7-4.95h3.35l-4.65 6.3-.675-.975q.7.075 1.225.375a3.7 3.7 0 0 1 1.025.85q.501.525.975 1.35l2.65 4.725h-3.325l-2.15-3.8q-.324-.576-.65-.9a1.76 1.76 0 0 0-.725-.45 3.3 3.3 0 0 0-.975-.125h-1.675v5.275zm16.983 0V41.232h-4.325v-2.45h11.775v2.45h-4.35v10.175zm9.384 0V38.782h2.825v9.55h-.75l7.175-9.55h2.575v12.625h-2.825v-9.575h.775l-7.2 9.575zm15.381 0V38.782h6.725q2.376 0 3.475.875 1.1.85 1.1 2.425 0 1.2-.8 2t-2.125 1v-.35q1.626.1 2.5.95t.875 2.2q0 1.624-1.25 2.575-1.25.95-3.55.95zm2.9-1.925h3.725q1.1 0 1.675-.45.6-.45.6-1.325 0-.876-.6-1.325-.574-.45-1.675-.45h-3.725zm0-5.475h3.45q1 0 1.55-.425.55-.45.55-1.25t-.55-1.225-1.55-.425h-3.45zm11.578 7.4V38.782h3.1v4.95h5.7v-4.95h3.1v12.625h-3.1v-5.275h-5.7v5.275zm21.254.25q-1.95 0-3.375-.8a5.6 5.6 0 0 1-2.225-2.275q-.775-1.476-.775-3.5t.775-3.475a5.62 5.62 0 0 1 2.225-2.275q1.425-.8 3.375-.8t3.375.8a5.42 5.42 0 0 1 2.225 2.275q.8 1.45.8 3.475 0 2.024-.8 3.5a5.42 5.42 0 0 1-2.225 2.275q-1.425.8-3.375.8m0-2.4q1.475 0 2.35-1.025.875-1.05.875-3.15t-.875-3.125q-.875-1.026-2.35-1.025-1.475 0-2.35 1.025t-.875 3.125.875 3.15q.875 1.025 2.35 1.025m9.361 2.15V38.782h2.825v9.55h-.75l7.175-9.55h2.575v12.625h-2.825v-9.575h.775l-7.2 9.575zm5.9-13.775q-1.25 0-2.2-.4a4.3 4.3 0 0 1-1.575-1.175 4.8 4.8 0 0 1-.9-1.825l1.6-.55q.425 1.15 1.175 1.7.75.525 1.925.525t1.925-.525q.75-.526 1.225-1.675l1.525.525q-.525 1.674-1.75 2.55-1.2.85-2.95.85m16.441 19.175V41.932a25 25 0 0 0-.2-3.15h3.025l.275 2.65h-.275q.375-1.326 1.575-2.1 1.226-.8 2.825-.8 1.676 0 2.925.8 1.251.774 1.95 2.25.7 1.45.7 3.5t-.7 3.525q-.699 1.474-1.95 2.275-1.25.775-2.925.775-1.575 0-2.775-.775-1.2-.776-1.6-2.075h.275v8zm6.35-7.55q1.5 0 2.4-1.025.9-1.05.9-3.15t-.9-3.125q-.9-1.026-2.4-1.025-1.475 0-2.375 1.025t-.9 3.125.9 3.15q.9 1.025 2.375 1.025m14.37 2.4q-1.65 0-2.9-.775-1.25-.8-1.95-2.275-.7-1.476-.7-3.525t.7-3.5q.7-1.476 1.95-2.25 1.25-.8 2.9-.8 1.6 0 2.8.8 1.225.774 1.625 2.1h-.275l.275-2.65h3l-.15 1.575q-.05.8-.05 1.575v9.475h-3.1l-.025-2.6h.3q-.4 1.3-1.625 2.075t-2.775.775m.875-2.4q1.475 0 2.375-1.025.9-1.05.9-3.15t-.9-3.125q-.9-1.026-2.375-1.025-1.475 0-2.375 1.025t-.9 3.125.875 3.15q.9 1.025 2.4 1.025m15.92 2.4q-2.976 0-4.75-1.8-1.75-1.8-1.75-5.275v-2.15q0-3.575 1.625-5.75t4.9-2.875l4.625-1.05.85 2.45-5.2 1.15q-1.3.274-2.15 1.05-.85.75-1.275 1.8-.426 1.05-.425 2.25v1.325h-.425q.274-1.125.925-1.95a4.44 4.44 0 0 1 1.65-1.325q1-.475 2.275-.475 1.6 0 2.8.75 1.224.724 1.925 2.125.7 1.374.7 3.3 0 1.974-.8 3.425a5.5 5.5 0 0 1-2.2 2.25q-1.401.775-3.3.775m-.1-2.375q1.55 0 2.4-.975.875-1 .875-2.975 0-1.926-.875-2.925-.876-1.025-2.4-1.025t-2.4 1q-.875.999-.875 2.85 0 2.024.875 3.05.875 1 2.4 1m15.16 2.375q-1.95 0-3.375-.8a5.63 5.63 0 0 1-2.225-2.275q-.774-1.476-.775-3.5 0-2.025.775-3.475a5.63 5.63 0 0 1 2.225-2.275q1.425-.8 3.375-.8t3.375.8a5.4 5.4 0 0 1 2.225 2.275q.8 1.45.8 3.475 0 2.024-.8 3.5a5.4 5.4 0 0 1-2.225 2.275q-1.425.8-3.375.8m0-2.4q1.476 0 2.35-1.025.875-1.05.875-3.15t-.875-3.125q-.874-1.026-2.35-1.025-1.474 0-2.35 1.025-.875 1.025-.875 3.125t.875 3.15q.876 1.025 2.35 1.025m12.086 2.15V41.232h-4.325v-2.45h11.775v2.45h-4.35v10.175zm9.385 0V38.782h3.1v4.225h3.325q2.525 0 3.8 1.075 1.275 1.05 1.275 3.05 0 1.3-.6 2.275-.6.95-1.75 1.475-1.125.525-2.725.525zm3.1-2.05h2.9q1.275 0 1.95-.525.675-.55.675-1.65t-.675-1.6q-.651-.525-1.95-.525h-2.9zm9.975 2.05V38.782h3.1v12.625zm7.026-5.225-.975-12.4h3.85l-.975 12.4zm-.8 5.225v-3.475h3.5v3.475z"/></svg>