<svg xmlns="http://www.w3.org/2000/svg" width="275" height="63" fill="none"><rect width="274.527" height="63" fill="#fff" rx="8"/><path stroke="#5329FF" d="m32.66 29.91-4.064 4.065a6.5 6.5 0 0 0 9.192 9.192l4.065-4.064m-6.206-2.345 10.15-10.15m-6.847-2.986 3.788-3.79a6.5 6.5 0 0 1 9.192 9.192l-3.788 3.79"/><path fill="#5329FF" d="M73.727 38.162q-1.944 0-3.312-.792a5.3 5.3 0 0 1-2.106-2.25q-.72-1.476-.72-3.474t.72-3.456a5.3 5.3 0 0 1 2.106-2.25q1.368-.792 3.312-.792 1.35 0 2.412.396a5.4 5.4 0 0 1 1.854 1.152l-.648 1.494q-.864-.738-1.692-1.062-.81-.324-1.89-.324-2.052 0-3.132 1.26t-1.08 3.582 1.08 3.6q1.08 1.26 3.132 1.26 1.08 0 1.89-.324.828-.324 1.692-1.08l.648 1.494a5.6 5.6 0 0 1-1.854 1.17q-1.062.396-2.412.396m6.49-.162v-9.072h1.8v3.708h1.566l2.826-3.708h1.98l-3.384 4.464-.45-.576q.522.054.9.27.378.198.738.594t.738 1.044L88.821 38h-1.944l-1.62-2.772a3.5 3.5 0 0 0-.522-.72q-.252-.27-.576-.36a2.5 2.5 0 0 0-.792-.108h-1.35V38zm13.892.162q-1.35 0-2.34-.558a3.9 3.9 0 0 1-1.53-1.62q-.54-1.062-.54-2.52t.54-2.502q.54-1.062 1.53-1.62.99-.576 2.34-.576t2.34.576a3.74 3.74 0 0 1 1.548 1.62q.558 1.044.558 2.502t-.558 2.52a3.88 3.88 0 0 1-1.548 1.62q-.99.558-2.34.558m0-1.422q1.188 0 1.89-.828t.702-2.448-.702-2.43q-.702-.828-1.89-.828-1.17 0-1.872.828-.702.81-.702 2.43t.684 2.448q.702.828 1.89.828M100.8 38v-9.072h8.136V38h-1.8v-7.65h-4.536V38zm10.863 0v-9.072h1.656v7.326h-.504l5.472-7.326h1.512V38h-1.638v-7.344h.522L113.176 38zm10.936 3.888V31.106q0-.522-.054-1.062a35 35 0 0 0-.09-1.116h1.764l.18 2.052h-.198a2.84 2.84 0 0 1 1.152-1.62q.882-.594 2.088-.594t2.106.576q.9.558 1.386 1.602.504 1.044.504 2.52 0 1.458-.504 2.52-.486 1.062-1.386 1.62t-2.106.558q-1.188 0-2.07-.576a2.83 2.83 0 0 1-1.152-1.602h.198v5.904zm4.392-5.148q1.188 0 1.89-.828.72-.828.72-2.448t-.72-2.43q-.702-.828-1.89-.828t-1.908.828q-.702.81-.702 2.43t.702 2.448q.72.828 1.908.828m10.675 1.422q-1.35 0-2.34-.558a3.9 3.9 0 0 1-1.53-1.62q-.54-1.062-.54-2.52t.54-2.502q.54-1.062 1.53-1.62.99-.576 2.34-.576t2.34.576a3.74 3.74 0 0 1 1.548 1.62q.558 1.044.558 2.502t-.558 2.52a3.88 3.88 0 0 1-1.548 1.62q-.99.558-2.34.558m0-1.422q1.188 0 1.89-.828t.702-2.448-.702-2.43q-.702-.828-1.89-.828-1.17 0-1.872.828-.702.81-.702 2.43t.684 2.448q.702.828 1.89.828M144.36 38v-9.072h4.572q1.638 0 2.412.63.792.612.792 1.746 0 .882-.594 1.458-.576.576-1.53.702v-.234q1.134.054 1.782.666t.648 1.584q0 1.17-.882 1.854-.864.666-2.466.666zm1.71-1.17h2.88q.882 0 1.35-.36.468-.378.468-1.08t-.468-1.062-1.35-.36h-2.88zm0-4.032h2.682q.81 0 1.26-.36t.45-.99q0-.648-.45-.99-.45-.36-1.26-.36h-2.682zm12.066 5.364q-1.206 0-2.106-.558t-1.404-1.62q-.486-1.062-.486-2.52 0-1.476.486-2.52.504-1.044 1.404-1.602.9-.576 2.106-.576 1.188 0 2.07.594a2.8 2.8 0 0 1 1.17 1.62h-.198l.18-2.052h1.764l-.108 1.116q-.036.54-.036 1.062V38h-1.818v-2.016h.198a2.8 2.8 0 0 1-1.188 1.602q-.882.576-2.034.576m.45-1.422q1.17 0 1.872-.828.72-.828.72-2.448t-.72-2.43q-.702-.828-1.872-.828-1.188 0-1.908.828-.702.81-.702 2.43t.702 2.448 1.908.828m9.128 1.26v-7.614h-3.204v-1.458h8.226v1.458h-3.222V38zm6.476 0v-9.072h1.8v3.168h2.574q1.782 0 2.682.756.9.738.9 2.16 0 .918-.414 1.602-.414.666-1.224 1.026-.792.36-1.944.36zm1.8-1.242h2.376q1.008 0 1.548-.414.54-.432.54-1.314t-.54-1.278q-.522-.414-1.548-.414h-2.376zm17.051 1.404q-1.368 0-2.394-.558a3.97 3.97 0 0 1-1.566-1.638q-.54-1.08-.54-2.556 0-1.458.558-2.502a3.76 3.76 0 0 1 1.566-1.584q1.008-.558 2.376-.558.882 0 1.71.306.828.288 1.368.828l-.594 1.278a3.3 3.3 0 0 0-1.134-.72 3.3 3.3 0 0 0-1.224-.252q-1.296 0-2.034.828t-.738 2.394q0 1.584.738 2.43t2.034.846q.576 0 1.206-.216.63-.234 1.152-.738l.594 1.278q-.558.54-1.404.846a5 5 0 0 1-1.674.288m9.193 0q-1.368 0-2.394-.558a3.97 3.97 0 0 1-1.566-1.638q-.54-1.08-.54-2.556 0-1.458.558-2.502a3.76 3.76 0 0 1 1.566-1.584q1.008-.558 2.376-.558.882 0 1.71.306.828.288 1.368.828l-.594 1.278a3.3 3.3 0 0 0-1.134-.72 3.3 3.3 0 0 0-1.224-.252q-1.296 0-2.034.828t-.738 2.394q0 1.584.738 2.43t2.034.846q.576 0 1.206-.216.63-.234 1.152-.738l.594 1.278q-.558.54-1.404.846a5 5 0 0 1-1.674.288m5.143-.162v-9.072h1.8v3.168h2.574q1.782 0 2.682.756.9.738.9 2.16 0 .918-.414 1.602-.414.666-1.224 1.026-.792.36-1.944.36zm1.8-1.242h2.376q1.026 0 1.548-.414.54-.432.54-1.314t-.54-1.278q-.522-.414-1.548-.414h-2.376zM216.611 38v-9.072h1.8V38zm4.134.234-.612-1.44q.612-.252 1.026-.63a2.6 2.6 0 0 0 .666-1.008q.252-.612.36-1.512t.108-2.178v-2.538h6.84V38h-1.8v-7.65h-3.366v1.17q0 2.052-.324 3.402t-1.044 2.142q-.702.774-1.854 1.17M231.864 38v-9.072h1.8v3.708h1.566l2.826-3.708h1.98l-3.384 4.464-.45-.576q.522.054.9.27.378.198.738.594t.738 1.044l1.89 3.276h-1.944l-1.62-2.772a3.5 3.5 0 0 0-.522-.72q-.252-.27-.576-.36a2.5 2.5 0 0 0-.792-.108h-1.35V38zm9.733 4.086-.432-1.476q.846-.18 1.404-.432.576-.252.954-.666a3.4 3.4 0 0 0 .648-1.026l.45-1.062-.036.738-3.942-9.234h1.944l3.06 7.56h-.486l3.06-7.56h1.872l-4.158 9.72a8 8 0 0 1-.846 1.512 4.5 4.5 0 0 1-.972.99q-.522.378-1.152.594t-1.368.342"/></svg>