<svg xmlns="http://www.w3.org/2000/svg" width="60" height="60" fill="none"><rect width="60" height="60" fill="#0069FF" fill-opacity=".15" rx="10"/><path fill="#0069FF" fill-rule="evenodd" d="M18 24a1 1 0 0 1 1-1h22a1 1 0 0 1 1 1v14a3 3 0 0 1-3 3H21a3 3 0 0 1-3-3zm2 1v13a1 1 0 0 0 1 1h18a1 1 0 0 0 1-1V25z" clip-rule="evenodd"/><path fill="#0069FF" fill-rule="evenodd" d="M23.763 17.324A1 1 0 0 1 24.5 17h11a1 1 0 0 1 .737.324l5.5 6A1 1 0 0 1 41 25H19a1 1 0 0 1-.737-1.676zM24.94 19l-3.667 4h17.454l-3.667-4zM24 29a1 1 0 0 1 1-1h5a1 1 0 1 1 0 2h-5a1 1 0 0 1-1-1" clip-rule="evenodd"/></svg>