<svg xmlns="http://www.w3.org/2000/svg" width="421" height="33" fill="none"><rect width="421" height="33" fill="#5329FF" rx="8"/><circle cx="21.5" cy="16.5" r="12" fill="#9A81FF" opacity=".2"/><rect width="15" height="15" x="14" y="9" fill="#9A81FF" opacity=".4" rx="7.5"/><rect width="14.2" height="14.2" x="14.4" y="9.4" stroke="#9A81FF" rx="7.1"/><circle cx="21.6" cy="16.2" r="1.8" fill="#fff" stroke="#5030E5"/><path fill="#5329FF" d="M40.328 23V11.72h4.784q1.808 0 2.768.88.976.864.976 2.4t-.976 2.416q-.96.88-2.768.88h-3.12V23zm1.664-6.032h2.944q1.136 0 1.712-.512T47.224 15q0-.928-.576-1.44t-1.712-.512h-2.944zm11.72 6.176q-1.073 0-1.872-.496-.801-.495-1.248-1.44-.432-.944-.432-2.24 0-1.312.432-2.24.447-.928 1.248-1.424.8-.512 1.872-.512 1.056 0 1.84.528t1.04 1.44h-.176l.16-1.824h1.568l-.096.992q-.032.48-.032.944V23H56.4v-1.792h.176a2.48 2.48 0 0 1-1.056 1.424q-.785.512-1.808.512m.4-1.264q1.04 0 1.664-.736.64-.735.64-2.176 0-1.44-.64-2.16-.623-.736-1.664-.736-1.057 0-1.696.736-.624.72-.624 2.16t.624 2.176 1.696.736m9.985 1.264q-1.216 0-2.128-.496a3.53 3.53 0 0 1-1.392-1.456q-.48-.96-.48-2.272 0-1.296.496-2.224a3.34 3.34 0 0 1 1.392-1.408q.897-.495 2.112-.496.785 0 1.52.272.735.255 1.216.736l-.528 1.136a2.9 2.9 0 0 0-1.008-.64 2.9 2.9 0 0 0-1.088-.224q-1.151 0-1.808.736-.656.735-.656 2.128 0 1.408.656 2.16.657.752 1.808.752.513 0 1.072-.192A2.9 2.9 0 0 0 66.305 21l.528 1.136q-.495.48-1.248.752a4.5 4.5 0 0 1-1.488.256M68.67 23v-8.064h1.52v6.8h3.152v-6.8h1.52v6.8h3.136v-6.8h1.536V23zm13.297 0v-8.064h1.472v6.512h-.448l4.864-6.512h1.344V23h-1.456v-6.528h.464L83.31 23zm9.72 3.456v-9.584q0-.464-.048-.944a31 31 0 0 0-.08-.992h1.568l.16 1.824h-.176a2.52 2.52 0 0 1 1.024-1.44q.785-.528 1.856-.528 1.073 0 1.872.512.8.495 1.232 1.424.448.928.448 2.24 0 1.296-.448 2.24-.431.945-1.232 1.44t-1.872.496q-1.056 0-1.84-.512a2.52 2.52 0 0 1-1.024-1.424h.176v5.248zm3.904-4.576q1.056 0 1.68-.736.64-.735.64-2.176 0-1.44-.64-2.16-.624-.736-1.68-.736t-1.696.736q-.624.72-.624 2.16t.624 2.176q.64.736 1.696.736m9.762 1.264q-1.953 0-3.072-1.104-1.12-1.104-1.12-3.056 0-1.265.48-2.208.496-.945 1.36-1.456.88-.528 2.032-.528 1.136 0 1.904.48t1.168 1.36q.4.864.4 2.048v.512h-6.08v-.928h4.976l-.272.208q0-1.2-.544-1.856-.528-.672-1.536-.672-1.12 0-1.728.784-.609.768-.608 2.128v.16q0 1.425.688 2.144.703.72 1.984.72a4.3 4.3 0 0 0 1.312-.192q.624-.209 1.184-.672l.528 1.104a3.9 3.9 0 0 1-1.36.768 5.5 5.5 0 0 1-1.696.256m5.13-.144v-8.064h1.6v3.28h4.08v-3.28h1.6V23h-1.6v-3.52h-4.08V23zm9.718 0v-8.064h1.472v6.512h-.448l4.864-6.512h1.344V23h-1.456v-6.528h.464L121.544 23zm13.449.144q-1.953 0-3.072-1.104-1.12-1.104-1.12-3.056 0-1.265.48-2.208.495-.945 1.36-1.456.88-.528 2.032-.528 1.136 0 1.904.48t1.168 1.36q.4.864.4 2.048v.512h-6.08v-.928h4.976l-.272.208q0-1.2-.544-1.856-.528-.672-1.536-.672-1.12 0-1.728.784-.609.768-.608 2.128v.16q0 1.425.688 2.144.703.72 1.984.72a4.3 4.3 0 0 0 1.312-.192q.623-.209 1.184-.672l.528 1.104a3.9 3.9 0 0 1-1.36.768 5.5 5.5 0 0 1-1.696.256m9.459 3.312v-9.584q0-.464-.048-.944-.032-.495-.08-.992h1.568l.16 1.824h-.176a2.52 2.52 0 0 1 1.024-1.44q.784-.528 1.856-.528t1.872.512q.8.495 1.232 1.424.448.928.448 2.24 0 1.296-.448 2.24-.432.945-1.232 1.44t-1.872.496q-1.056 0-1.84-.512a2.52 2.52 0 0 1-1.024-1.424h.176v5.248zm3.904-4.576q1.056 0 1.68-.736.64-.735.64-2.176 0-1.44-.64-2.16-.624-.736-1.68-.736t-1.696.736q-.624.72-.624 2.16t.624 2.176q.64.736 1.696.736m9.122 1.264q-1.072 0-1.872-.496-.801-.495-1.248-1.44-.432-.944-.432-2.24 0-1.312.432-2.24.447-.928 1.248-1.424.8-.512 1.872-.512 1.056 0 1.84.528.783.528 1.04 1.44h-.176l.16-1.824h1.568l-.096.992q-.032.48-.032.944V23h-1.616v-1.792h.176a2.48 2.48 0 0 1-1.056 1.424q-.785.512-1.808.512m.4-1.264q1.04 0 1.664-.736.64-.735.64-2.176 0-1.44-.64-2.16-.624-.736-1.664-.736-1.057 0-1.696.736-.624.72-.624 2.16t.624 2.176 1.696.736m9.969 1.264q-1.824 0-2.912-1.136-1.072-1.136-1.072-3.344v-1.392q0-2.256.96-3.632.976-1.376 3.008-1.856l2.944-.704.464 1.296-3.296.768q-.864.192-1.424.72a3.5 3.5 0 0 0-.848 1.248q-.272.72-.272 1.536v.736h-.24q.192-.736.608-1.248.432-.528 1.056-.816a3.3 3.3 0 0 1 1.424-.304q1.04 0 1.824.48t1.216 1.392q.448.896.448 2.128 0 1.28-.48 2.208a3.37 3.37 0 0 1-1.36 1.424q-.864.495-2.048.496m-.048-1.248q1.088 0 1.696-.704.624-.72.624-2.112 0-1.376-.624-2.096t-1.696-.72-1.696.72q-.624.704-.624 2.016 0 1.44.608 2.176.624.72 1.712.72m9.469 1.248q-1.2 0-2.08-.496a3.47 3.47 0 0 1-1.36-1.44q-.48-.944-.48-2.24t.48-2.224a3.35 3.35 0 0 1 1.36-1.44q.88-.512 2.08-.512t2.08.512q.896.495 1.376 1.44.496.928.496 2.224t-.496 2.24a3.45 3.45 0 0 1-1.376 1.44q-.88.495-2.08.496m0-1.264q1.056 0 1.68-.736.624-.735.624-2.176 0-1.44-.624-2.16-.624-.736-1.68-.736-1.04 0-1.664.736-.624.72-.624 2.16t.608 2.176q.624.736 1.68.736M183.6 23v-6.768h-2.848v-1.296h7.312v1.296H185.2V23zm8.909.144q-1.072 0-1.872-.496-.801-.495-1.248-1.44-.432-.944-.432-2.24 0-1.312.432-2.24.447-.928 1.248-1.424.8-.512 1.872-.512 1.056 0 1.84.528.783.528 1.04 1.44h-.176l.16-1.824h1.568l-.096.992q-.032.48-.032.944V23h-1.616v-1.792h.176a2.48 2.48 0 0 1-1.056 1.424q-.785.512-1.808.512m.4-1.264q1.04 0 1.664-.736.64-.735.64-2.176 0-1.44-.64-2.16-.624-.736-1.664-.736-1.056 0-1.696.736-.624.72-.624 2.16t.624 2.176 1.696.736m10.177 1.264q-1.951 0-3.072-1.104t-1.12-3.056q0-1.265.48-2.208a3.6 3.6 0 0 1 1.36-1.456q.88-.528 2.032-.528 1.136 0 1.904.48t1.168 1.36q.4.864.4 2.048v.512h-6.08v-.928h4.976l-.272.208q0-1.2-.544-1.856-.528-.672-1.536-.672-1.12 0-1.728.784-.608.768-.608 2.128v.16q0 1.425.688 2.144.704.72 1.984.72.704 0 1.312-.192a3.7 3.7 0 0 0 1.184-.672l.528 1.104a3.9 3.9 0 0 1-1.36.768 5.5 5.5 0 0 1-1.696.256m6.858-.144v-6.768h-2.848v-1.296h7.312v1.296h-2.864V23zm11.75 0v-6.768h-2.848v-1.296h7.312v1.296h-2.864V23zm9.23.144q-1.2 0-2.08-.496a3.47 3.47 0 0 1-1.36-1.44q-.48-.944-.48-2.24t.48-2.224a3.35 3.35 0 0 1 1.36-1.44q.88-.512 2.08-.512t2.08.512q.896.495 1.376 1.44.496.928.496 2.224t-.496 2.24a3.45 3.45 0 0 1-1.376 1.44q-.88.495-2.08.496m0-1.264q1.056 0 1.68-.736.624-.735.624-2.176 0-1.44-.624-2.16-.624-.736-1.68-.736-1.04 0-1.664.736-.624.72-.624 2.16t.608 2.176q.624.736 1.68.736m5.456 1.328-.544-1.28q.544-.224.912-.56.384-.352.592-.896.224-.544.32-1.344t.096-1.936v-2.256h6.08V23h-1.6v-6.8h-2.992v1.04q0 1.824-.288 3.024t-.928 1.904q-.624.688-1.648 1.04m9.883-.208v-8.064h1.6v2.816h2.288q1.584 0 2.384.672.8.655.8 1.92 0 .816-.368 1.424-.368.593-1.088.912-.703.32-1.728.32zm1.6-1.104h2.112q.896 0 1.376-.368.48-.384.48-1.168t-.48-1.136q-.464-.368-1.376-.368h-2.112zM255.154 23v-8.064h1.6v3.296h1.392l2.512-3.296h1.76l-3.008 3.968-.4-.512q.464.048.8.24.335.176.656.528.32.352.656.928l1.68 2.912h-1.728l-1.44-2.464a3.1 3.1 0 0 0-.464-.64q-.224-.24-.512-.32a2.3 2.3 0 0 0-.704-.096h-1.2V23zm12.348.144q-1.2 0-2.08-.496a3.47 3.47 0 0 1-1.36-1.44q-.48-.944-.48-2.24t.48-2.224a3.35 3.35 0 0 1 1.36-1.44q.88-.512 2.08-.512t2.08.512q.896.495 1.376 1.44.495.928.496 2.224 0 1.296-.496 2.24a3.45 3.45 0 0 1-1.376 1.44q-.88.495-2.08.496m0-1.264q1.056 0 1.68-.736.624-.735.624-2.176 0-1.44-.624-2.16-.624-.736-1.68-.736-1.04 0-1.664.736-.624.72-.624 2.16t.608 2.176q.624.736 1.68.736M277.716 23v-8.064h1.6v3.28h4.08v-3.28h1.6V23h-1.6v-3.52h-4.08V23zm12.871.144q-1.072 0-1.872-.496-.801-.495-1.248-1.44-.432-.944-.432-2.24 0-1.312.432-2.24.447-.928 1.248-1.424.8-.512 1.872-.512 1.056 0 1.84.528.783.528 1.04 1.44h-.176l.16-1.824h1.568l-.096.992q-.033.48-.032.944V23h-1.616v-1.792h.176a2.48 2.48 0 0 1-1.056 1.424q-.785.512-1.808.512m.4-1.264q1.04 0 1.664-.736.64-.735.64-2.176 0-1.44-.64-2.16-.624-.736-1.664-.736-1.056 0-1.696.736-.624.72-.624 2.16t.624 2.176 1.696.736M301.638 23v-8.064h1.6v3.296h1.392l2.512-3.296h1.76l-3.008 3.968-.4-.512q.464.048.8.24.336.176.656.528t.656.928l1.68 2.912h-1.728l-1.44-2.464a3.1 3.1 0 0 0-.464-.64 1.1 1.1 0 0 0-.512-.32 2.3 2.3 0 0 0-.704-.096h-1.2V23zm12.348.144q-1.2 0-2.08-.496a3.47 3.47 0 0 1-1.36-1.44q-.48-.944-.48-2.24t.48-2.224a3.35 3.35 0 0 1 1.36-1.44q.88-.512 2.08-.512t2.08.512q.896.495 1.376 1.44.496.928.496 2.224t-.496 2.24a3.45 3.45 0 0 1-1.376 1.44q-.88.495-2.08.496m0-1.264q1.056 0 1.68-.736.624-.735.624-2.176 0-1.44-.624-2.16-.624-.736-1.68-.736-1.04 0-1.664.736-.624.72-.624 2.16t.608 2.176q.624.736 1.68.736m5.949 1.12v-8.064h1.344l2.912 5.152 2.912-5.152h1.344V23h-1.424v-6.256h.352l-2.8 4.96h-.768l-2.8-4.96h.352V23zm10.937 0v-8.064h7.232V23h-1.6v-6.8h-4.032V23zm9.657 0v-8.064h1.6v2.816h2.288q1.584 0 2.384.672.8.655.8 1.92 0 .816-.368 1.424-.368.593-1.088.912-.705.32-1.728.32zm1.6-1.104h2.112q.896 0 1.376-.368.48-.384.48-1.168t-.48-1.136q-.464-.368-1.376-.368h-2.112zm14.266 1.248q-1.649 0-2.688-.96-1.04-.976-1.2-2.704h-1.52V23h-1.568v-8.064h1.568v3.28h1.536q.224-1.616 1.248-2.512 1.024-.912 2.624-.912 1.2 0 2.08.512.896.495 1.376 1.424.496.928.496 2.24 0 1.296-.496 2.24a3.45 3.45 0 0 1-1.376 1.44q-.88.495-2.08.496m0-1.248q1.056 0 1.68-.736.64-.735.64-2.192 0-1.44-.64-2.176-.624-.735-1.68-.736-1.056 0-1.696.736-.624.736-.624 2.176 0 1.455.624 2.192.64.735 1.696.736m7.69 1.104v-6.768h-2.848v-1.296h7.312v1.296h-2.864V23zm9.501.144q-1.952 0-3.072-1.104t-1.12-3.056q0-1.265.48-2.208a3.6 3.6 0 0 1 1.36-1.456q.88-.528 2.032-.528 1.136 0 1.904.48t1.168 1.36q.4.864.4 2.048v.512h-6.08v-.928h4.976l-.272.208q0-1.2-.544-1.856-.528-.672-1.536-.672-1.12 0-1.728.784-.608.768-.608 2.128v.16q0 1.425.688 2.144.704.72 1.984.72.704 0 1.312-.192a3.7 3.7 0 0 0 1.184-.672l.528 1.104a3.9 3.9 0 0 1-1.36.768 5.5 5.5 0 0 1-1.696.256m5.194 3.312v-9.584q0-.464-.048-.944-.032-.495-.08-.992h1.568l.16 1.824h-.176a2.52 2.52 0 0 1 1.024-1.44q.784-.528 1.856-.528t1.872.512q.8.495 1.232 1.424.448.928.448 2.24 0 1.296-.448 2.24-.432.945-1.232 1.44t-1.872.496q-1.056 0-1.84-.512a2.52 2.52 0 0 1-1.024-1.424h.176v5.248zm3.904-4.576q1.056 0 1.68-.736.64-.735.64-2.176 0-1.44-.64-2.16-.624-.736-1.68-.736t-1.696.736q-.624.72-.624 2.16t.624 2.176q.64.736 1.696.736m9.122 1.264q-1.072 0-1.872-.496-.801-.495-1.248-1.44-.432-.944-.432-2.24 0-1.312.432-2.24.447-.928 1.248-1.424.8-.512 1.872-.512 1.056 0 1.84.528.783.528 1.04 1.44h-.176l.16-1.824h1.568l-.096.992q-.032.48-.032.944V23h-1.616v-1.792h.176a2.48 2.48 0 0 1-1.056 1.424q-.785.512-1.808.512m.4-1.264q1.04 0 1.664-.736.64-.735.64-2.176 0-1.44-.64-2.16-.624-.736-1.664-.736-1.057 0-1.696.736-.624.72-.624 2.16t.624 2.176 1.696.736m5.297 1.12 3.664-4.544v.768l-3.472-4.288h1.936l2.448 3.152h-.576l2.448-3.152h1.92l-3.44 4.272v-.736L406.079 23h-1.936l-2.64-3.376h.576L399.423 23z"/></svg>