<svg xmlns="http://www.w3.org/2000/svg" width="48" height="48" fill="none"><path fill="#1A1A1A" d="M24 34.667V11.556h6.705q3.939 0 5.482.363 1.56.347 2.685 1.184a6.2 6.2 0 0 1 1.946 2.415q.69 1.469.691 3.236 0 2.685-1.35 4.373-1.335 1.674-3.907 2.226l6.415 9.314h-7.252l-5.402-9.046v9.046zm6.013-12.187h1.19q2.074 0 3.023-.695.964-.695.964-2.178 0-1.737-.9-2.463-.884-.742-2.99-.742h-1.287z"/><path fill="#F0AD00" d="M17.093 39.018c-1.125.33-2.33-.243-2.645-1.291a47.3 47.3 0 0 1 .067-27.462c.32-1.048 1.528-1.615 2.651-1.28s1.734 1.444 1.419 2.492a43.66 43.66 0 0 0-.062 25.054c.311 1.05-.306 2.157-1.43 2.487M8.072 34.618c-1.17.233-2.348-.381-2.578-1.382a40.8 40.8 0 0 1-.182-17.551c.21-1.004 1.374-1.636 2.55-1.42s1.916 1.2 1.71 2.204a37.6 37.6 0 0 0 .165 15.92c.227 1.001-.494 1.995-1.665 2.228"/></svg>