<svg xmlns="http://www.w3.org/2000/svg" width="484" height="33" fill="none"><rect width="484" height="33" fill="#fff" rx="8"/><circle cx="21.5" cy="16.5" r="12" fill="#fff" opacity=".2"/><rect width="15" height="15" x="14" y="9" fill="#fff" opacity=".4" rx="7.5"/><rect width="14.2" height="14.2" x="14.4" y="9.4" stroke="#fff" rx="7.1"/><circle cx="21.6" cy="16.2" r="1.8" fill="#fff" stroke="#fff"/><path fill="#fff" d="M40.328 23V11.72h9.632V23h-1.648v-9.904h-6.336V23zm15.69.144q-1.2 0-2.08-.496a3.47 3.47 0 0 1-1.36-1.44q-.48-.944-.48-2.24t.48-2.224q.48-.945 1.36-1.44.88-.512 2.08-.512t2.08.512q.895.495 1.375 1.44.495.928.496 2.224 0 1.296-.496 2.24a3.45 3.45 0 0 1-1.376 1.44q-.88.495-2.08.496m0-1.264q1.054 0 1.68-.736.623-.735.623-2.176 0-1.44-.624-2.16-.624-.736-1.68-.736-1.04 0-1.664.736-.624.72-.624 2.16t.608 2.176q.624.736 1.68.736M61.965 23v-8.064h1.344l2.912 5.152 2.912-5.152h1.344V23h-1.424v-6.256h.352l-2.8 4.96h-.768l-2.8-4.96h.352V23zm14.458.144q-1.2 0-2.08-.496a3.47 3.47 0 0 1-1.36-1.44q-.48-.944-.48-2.24t.48-2.224q.48-.945 1.36-1.44.88-.512 2.08-.512t2.08.512q.895.495 1.375 1.44.496.928.496 2.224t-.496 2.24a3.45 3.45 0 0 1-1.376 1.44q-.88.495-2.08.496m0-1.264q1.055 0 1.68-.736.623-.735.624-2.176 0-1.44-.624-2.16-.625-.736-1.68-.736-1.041 0-1.665.736-.623.72-.624 2.16 0 1.44.608 2.176.625.736 1.68.736M82.372 23v-8.064h5.808v1.296h-4.192V23zm7.281 0v-8.064h1.472v6.512h-.448l4.864-6.512h1.344V23H95.43v-6.528h.465L90.997 23zm11.385 0v-6.768H98.19v-1.296h7.312v1.296h-2.864V23zm9.501.144q-1.951 0-3.072-1.104t-1.12-3.056q0-1.265.48-2.208a3.6 3.6 0 0 1 1.36-1.456q.88-.528 2.032-.528 1.136 0 1.904.48.769.48 1.168 1.36.4.864.4 2.048v.512h-6.08v-.928h4.976l-.272.208q0-1.2-.544-1.856-.528-.672-1.536-.672-1.119 0-1.728.784-.608.768-.608 2.128v.16q0 1.425.688 2.144.705.72 1.984.72.705 0 1.312-.192a3.7 3.7 0 0 0 1.184-.672l.528 1.104q-.56.496-1.36.768a5.5 5.5 0 0 1-1.696.256m9.396-.144v-8.064h1.6v3.296h1.392l2.512-3.296h1.76l-3.008 3.968-.4-.512q.464.048.8.24.335.176.656.528.32.352.656.928l1.68 2.912h-1.728l-1.44-2.464a3.1 3.1 0 0 0-.464-.64q-.224-.24-.512-.32a2.3 2.3 0 0 0-.704-.096h-1.2V23zm12.348.144q-1.2 0-2.08-.496a3.47 3.47 0 0 1-1.36-1.44q-.48-.944-.48-2.24t.48-2.224a3.35 3.35 0 0 1 1.36-1.44q.88-.512 2.08-.512t2.08.512q.896.495 1.376 1.44.496.928.496 2.224t-.496 2.24a3.45 3.45 0 0 1-1.376 1.44q-.88.495-2.08.496m0-1.264q1.056 0 1.68-.736.624-.735.624-2.176 0-1.44-.624-2.16-.624-.736-1.68-.736-1.04 0-1.664.736-.624.72-.624 2.16t.608 2.176q.624.736 1.68.736m5.456 1.328-.544-1.28q.545-.224.912-.56.384-.352.592-.896.224-.544.32-1.344t.096-1.936v-2.256h6.08V23h-1.6v-6.8h-2.992v1.04q0 1.824-.288 3.024t-.928 1.904q-.624.688-1.648 1.04m9.547 0-.544-1.28q.544-.224.912-.56.385-.352.592-.896.225-.544.32-1.344.096-.8.096-1.936v-2.256h6.08V23h-1.6v-6.8h-2.992v1.04q0 1.824-.288 3.024t-.928 1.904q-.624.688-1.648 1.04m13.675-.064q-1.951 0-3.072-1.104t-1.12-3.056q0-1.265.48-2.208a3.6 3.6 0 0 1 1.36-1.456q.88-.528 2.032-.528 1.136 0 1.904.48t1.168 1.36q.4.864.4 2.048v.512h-6.08v-.928h4.976l-.272.208q0-1.2-.544-1.856-.528-.672-1.536-.672-1.12 0-1.728.784-.608.768-.608 2.128v.16q0 1.425.688 2.144.704.72 1.984.72.704 0 1.312-.192a3.7 3.7 0 0 0 1.184-.672l.528 1.104a3.9 3.9 0 0 1-1.36.768 5.5 5.5 0 0 1-1.696.256m5.13-.144v-8.064h5.808v1.296h-4.192V23zm10.433.144q-1.071 0-1.872-.496-.8-.495-1.248-1.44-.432-.944-.432-2.24 0-1.312.432-2.24.449-.928 1.248-1.424.801-.512 1.872-.512 1.056 0 1.84.528.785.528 1.04 1.44h-.176l.16-1.824h1.568l-.096.992q-.032.48-.032.944V23h-1.616v-1.792h.176a2.47 2.47 0 0 1-1.056 1.424q-.783.512-1.808.512m.4-1.264q1.04 0 1.664-.736.64-.735.64-2.176 0-1.44-.64-2.16-.623-.736-1.664-.736-1.056 0-1.696.736-.624.72-.624 2.16t.624 2.176q.625.736 1.696.736M183.31 23v-8.064h1.344l2.912 5.152 2.912-5.152h1.344V23h-1.424v-6.256h.352l-2.8 4.96h-.768l-2.8-4.96h.352V23zm15.027 3.632-.384-1.312a6.2 6.2 0 0 0 1.248-.384q.512-.225.848-.592.336-.353.576-.912l.4-.944-.032.656-3.504-8.208h1.728l2.72 6.72h-.432l2.72-6.72h1.664l-3.696 8.64a7 7 0 0 1-.752 1.344 4 4 0 0 1-.864.88 3.9 3.9 0 0 1-1.024.528q-.56.192-1.216.304M207.279 23v-8.064h7.231V23h-1.599v-6.8h-4.032V23zm9.72 3.456v-9.584q0-.464-.048-.944-.032-.495-.08-.992h1.568l.16 1.824h-.176a2.52 2.52 0 0 1 1.024-1.44q.783-.528 1.856-.528 1.071 0 1.872.512.8.495 1.232 1.424.447.928.448 2.24 0 1.296-.448 2.24-.432.945-1.232 1.44-.801.495-1.872.496-1.056 0-1.84-.512a2.52 2.52 0 0 1-1.024-1.424h.176v5.248zm3.904-4.576q1.056 0 1.68-.736.64-.735.64-2.176 0-1.44-.64-2.16-.624-.736-1.68-.736t-1.696.736q-.624.72-.624 2.16t.624 2.176q.64.736 1.696.736m9.121 1.264q-1.071 0-1.872-.496-.8-.495-1.248-1.44-.432-.944-.432-2.24 0-1.312.432-2.24.449-.928 1.248-1.424.801-.512 1.872-.512 1.056 0 1.84.528.785.528 1.04 1.44h-.176l.16-1.824h1.568l-.096.992q-.032.48-.032.944V23h-1.616v-1.792h.176a2.47 2.47 0 0 1-1.056 1.424q-.783.512-1.808.512m.4-1.264q1.04 0 1.664-.736.64-.735.64-2.176 0-1.44-.64-2.16-.623-.736-1.664-.736-1.056 0-1.696.736-.624.72-.624 2.16t.624 2.176q.625.736 1.696.736M236.81 23v-8.064h4.064q1.455 0 2.144.56.704.544.704 1.552 0 .784-.528 1.296-.513.512-1.36.624v-.208q1.008.049 1.584.592.576.544.576 1.408 0 1.04-.784 1.648-.768.592-2.192.592zm1.52-1.04h2.56q.783 0 1.2-.32.416-.336.416-.96t-.416-.944q-.417-.32-1.2-.32h-2.56zm0-3.584h2.384q.72 0 1.12-.32t.4-.88q0-.576-.4-.88-.4-.32-1.12-.32h-2.384zm7.238 4.832-.544-1.28q.543-.224.912-.56.384-.352.592-.896.224-.544.32-1.344t.096-1.936v-2.256h6.08V23h-1.6v-6.8h-2.992v1.04q0 1.824-.288 3.024-.289 1.2-.928 1.904-.624.688-1.648 1.04m9.226-.208 1.264-2.176q.304-.528.768-.848.48-.336.976-.336h.288l-.016.16q-1.376 0-2.144-.624t-.768-1.792.768-1.808 2.256-.64h3.776V23h-1.488v-2.992h-1.072q-.608 0-1.04.304-.415.305-.688.8L256.586 23zm3.68-4.08h2v-2.896h-2q-.895 0-1.344.384-.432.384-.432 1.056 0 .704.432 1.088.449.368 1.344.368m7.642 4.08v-6.768h-2.848v-1.296h7.312v1.296h-2.864V23zm5.756 0v-8.064h1.6v2.816h2.288q1.584 0 2.384.672.8.655.8 1.92 0 .816-.368 1.424-.368.593-1.088.912-.704.32-1.728.32zm1.6-1.104h2.112q.897 0 1.376-.368.48-.384.48-1.168t-.48-1.136q-.464-.368-1.376-.368h-2.112zm15.141 1.248q-1.824 0-2.912-1.136-1.072-1.136-1.072-3.344v-1.392q0-2.256.96-3.632.975-1.376 3.008-1.856l2.944-.704.464 1.296-3.296.768q-.864.192-1.424.72a3.45 3.45 0 0 0-.848 1.248q-.273.72-.273 1.536v.736h-.24q.193-.736.609-1.248.432-.528 1.056-.816a3.3 3.3 0 0 1 1.424-.304q1.04 0 1.824.48t1.216 1.392q.447.896.448 2.128 0 1.28-.48 2.208a3.38 3.38 0 0 1-1.36 1.424q-.864.495-2.048.496m-.048-1.248q1.087 0 1.696-.704.624-.72.624-2.112 0-1.376-.624-2.096-.625-.72-1.696-.72-1.072 0-1.696.72-.624.704-.624 2.016 0 1.44.608 2.176.623.72 1.712.72M294.513 23v-8.064h1.472v6.512h-.448l4.864-6.512h1.344V23h-1.456v-6.528h.464L295.857 23zm12.456.144a7.4 7.4 0 0 1-1.984-.256q-.928-.271-1.52-.768l.496-1.088q.592.465 1.36.704a5.9 5.9 0 0 0 1.648.224q1.104 0 1.6-.32.512-.336.512-.944 0-.592-.416-.896t-1.216-.304h-1.984v-1.152h1.824q.72 0 1.12-.304t.4-.848q0-.576-.464-.896t-1.44-.32q-.832 0-1.52.208a5 5 0 0 0-1.312.624l-.48-1.04q.656-.495 1.552-.736a7.5 7.5 0 0 1 1.936-.24q1.568 0 2.384.592.816.576.816 1.664 0 .752-.512 1.28-.496.528-1.344.64v-.208q.976.049 1.552.592.592.528.592 1.408 0 1.088-.928 1.744-.912.64-2.672.64M312.45 23v-8.064h1.6v3.28h4.08v-3.28h1.6V23h-1.6v-3.52h-4.08V23zm13.511.144q-1.952 0-3.072-1.104t-1.12-3.056q0-1.265.48-2.208a3.6 3.6 0 0 1 1.36-1.456q.88-.528 2.032-.528 1.136 0 1.904.48t1.168 1.36q.4.864.4 2.048v.512h-6.08v-.928h4.976l-.272.208q0-1.2-.544-1.856-.528-.672-1.536-.672-1.12 0-1.728.784-.608.768-.608 2.128v.16q0 1.425.688 2.144.704.72 1.984.72.704 0 1.312-.192a3.7 3.7 0 0 0 1.184-.672l.528 1.104a3.9 3.9 0 0 1-1.36.768 5.5 5.5 0 0 1-1.696.256m8.73 0q-1.216 0-2.128-.496a3.53 3.53 0 0 1-1.392-1.456q-.48-.96-.48-2.272 0-1.296.496-2.224a3.35 3.35 0 0 1 1.392-1.408q.896-.495 2.112-.496.784 0 1.52.272.736.255 1.216.736l-.528 1.136a2.9 2.9 0 0 0-1.008-.64 2.9 2.9 0 0 0-1.088-.224q-1.152 0-1.808.736-.656.735-.656 2.128 0 1.408.656 2.16t1.808.752q.512 0 1.072-.192a2.9 2.9 0 0 0 1.024-.656l.528 1.136a3.5 3.5 0 0 1-1.248.752q-.737.255-1.488.256m8.092 0q-1.2 0-2.08-.496a3.47 3.47 0 0 1-1.36-1.44q-.48-.944-.48-2.24t.48-2.224a3.35 3.35 0 0 1 1.36-1.44q.88-.512 2.08-.512t2.08.512q.896.495 1.376 1.44.496.928.496 2.224t-.496 2.24a3.45 3.45 0 0 1-1.376 1.44q-.88.495-2.08.496m0-1.264q1.056 0 1.68-.736.624-.735.624-2.176 0-1.44-.624-2.16-.624-.736-1.68-.736-1.04 0-1.664.736-.624.72-.624 2.16t.608 2.176q.624.736 1.68.736m5.949 1.12v-8.064h1.344l2.912 5.152 2.912-5.152h1.344V23h-1.424v-6.256h.352l-2.8 4.96h-.768l-2.8-4.96h.352V23zm17.587.144q-.897 0-1.712-.272-.816-.272-1.28-.768l.528-1.04q.464.432 1.088.656t1.264.224q1.2 0 1.904-.72t.752-2.08l.192.336h-4.192v-1.152h4.192l-.192.32q-.048-.8-.352-1.392a2.1 2.1 0 0 0-.88-.928q-.56-.336-1.424-.336-.624 0-1.248.224a3 3 0 0 0-1.104.656l-.528-1.056q.527-.48 1.328-.752a5.3 5.3 0 0 1 1.68-.272q1.248 0 2.144.496.912.48 1.408 1.424.495.928.496 2.24 0 1.296-.512 2.256a3.4 3.4 0 0 1-1.408 1.44q-.912.495-2.144.496m10.757 3.312v-5.152h.16q-.24.896-.848 1.376-.592.464-1.456.464t-1.536-.512-1.04-1.44q-.369-.944-.368-2.224 0-1.296.368-2.224.367-.928 1.024-1.44a2.5 2.5 0 0 1 1.552-.512q.864 0 1.456.48.608.48.848 1.344h-.16v-5.392h1.6v5.392h-.16q.255-.864.848-1.344.591-.48 1.456-.48.88 0 1.552.512.672.511 1.024 1.44.368.928.368 2.224 0 1.28-.368 2.224-.352.928-1.024 1.44-.657.512-1.552.512-.849 0-1.456-.464-.593-.48-.848-1.376h.16v5.152zm-1.728-4.544q.816 0 1.28-.736.48-.751.48-2.208 0-1.44-.48-2.192-.464-.752-1.28-.752t-1.296.752q-.464.752-.464 2.192 0 1.456.464 2.208.48.735 1.296.736m5.056 0q.816 0 1.28-.736.48-.751.48-2.208 0-1.44-.48-2.192t-1.28-.752q-.816 0-1.28.752t-.464 2.192q0 1.456.464 2.208.464.735 1.28.736m10.047 4.544v-5.152h.16q-.24.896-.848 1.376-.592.464-1.456.464t-1.536-.512-1.04-1.44q-.369-.944-.368-2.224 0-1.296.368-2.224.367-.928 1.024-1.44a2.5 2.5 0 0 1 1.552-.512q.864 0 1.456.48.608.48.848 1.344h-.16v-5.392h1.6v5.392h-.16q.255-.864.848-1.344.591-.48 1.456-.48.88 0 1.552.512.672.511 1.024 1.44.368.928.368 2.224 0 1.28-.368 2.224-.352.928-1.024 1.44-.657.512-1.552.512-.849 0-1.456-.464-.593-.48-.848-1.376h.16v5.152zm-1.728-4.544q.816 0 1.28-.736.48-.751.48-2.208 0-1.44-.48-2.192-.464-.752-1.28-.752t-1.296.752q-.464.752-.464 2.192 0 1.456.464 2.208.48.735 1.296.736m5.056 0q.816 0 1.28-.736.48-.751.48-2.208 0-1.44-.48-2.192t-1.28-.752q-.816 0-1.28.752t-.464 2.192q0 1.456.464 2.208.464.735 1.28.736m9.167 1.232q-1.953 0-3.072-1.104-1.12-1.104-1.12-3.056 0-1.265.48-2.208.495-.945 1.36-1.456.88-.528 2.032-.528 1.136 0 1.904.48t1.168 1.36q.4.864.4 2.048v.512h-6.08v-.928h4.976l-.272.208q0-1.2-.544-1.856-.528-.672-1.537-.672-1.12 0-1.727.784-.609.768-.608 2.128v.16q0 1.425.688 2.144.703.72 1.984.72a4.3 4.3 0 0 0 1.312-.192q.623-.209 1.184-.672l.528 1.104a3.9 3.9 0 0 1-1.36.768 5.5 5.5 0 0 1-1.696.256m5.129-.144v-8.064h1.6v3.296h1.392l2.512-3.296h1.76l-3.008 3.968-.4-.512q.464.048.8.24.336.176.656.528t.656.928l1.68 2.912h-1.728l-1.44-2.464a3 3 0 0 0-.464-.64 1.1 1.1 0 0 0-.512-.32 2.2 2.2 0 0 0-.704-.096h-1.2V23zm10.557 0v-6.768h-2.848v-1.296h7.312v1.296h-2.864V23zm5.756 0v-8.064h1.472v6.512h-.448l4.864-6.512h1.344V23h-1.456v-6.528h.464L425.732 23zm9.656 0v-8.064h4.064q1.456 0 2.144.56.704.544.704 1.552 0 .784-.528 1.296-.512.512-1.36.624v-.208q1.008.049 1.584.592.576.544.576 1.408 0 1.04-.784 1.648-.768.592-2.192.592zm1.52-1.04h2.56q.785 0 1.2-.32.416-.336.416-.96t-.416-.944-1.2-.32h-2.56zm0-3.584h2.384q.72 0 1.12-.32t.4-.88q0-.576-.4-.88-.4-.32-1.12-.32h-2.384zM443.138 23v-8.064h1.6v3.28h4.08v-3.28h1.6V23h-1.6v-3.52h-4.08V23zm13.511.144q-1.953 0-3.072-1.104-1.12-1.104-1.12-3.056 0-1.265.48-2.208.495-.945 1.36-1.456.88-.528 2.032-.528 1.136 0 1.904.48t1.168 1.36q.4.864.4 2.048v.512h-6.08v-.928h4.976l-.272.208q0-1.2-.544-1.856-.528-.672-1.536-.672-1.12 0-1.728.784-.608.768-.608 2.128v.16q0 1.425.688 2.144.703.72 1.984.72a4.3 4.3 0 0 0 1.312-.192q.623-.209 1.184-.672l.528 1.104a3.9 3.9 0 0 1-1.36.768 5.5 5.5 0 0 1-1.696.256m8.922 0q-1.953 0-3.072-1.104-1.12-1.104-1.12-3.056 0-1.265.48-2.208.495-.945 1.36-1.456.88-.528 2.032-.528 1.136 0 1.904.48t1.168 1.36q.4.864.4 2.048v.512h-6.08v-.928h4.976l-.272.208q0-1.2-.544-1.856-.528-.672-1.537-.672-1.12 0-1.727.784-.609.768-.608 2.128v.16q0 1.425.688 2.144.703.72 1.984.72a4.3 4.3 0 0 0 1.312-.192q.623-.209 1.184-.672l.528 1.104a3.9 3.9 0 0 1-1.36.768 5.5 5.5 0 0 1-1.696.256"/></svg>