<svg xmlns="http://www.w3.org/2000/svg" width="329" height="33" fill="none"><rect width="329" height="33" fill="#5329FF" rx="8"/><circle cx="21.5" cy="16.5" r="12" fill="#9A81FF" opacity=".2"/><rect width="15" height="15" x="14" y="9" fill="#9A81FF" opacity=".4" rx="7.5"/><rect width="14.2" height="14.2" x="14.4" y="9.4" stroke="#9A81FF" rx="7.1"/><circle cx="21.6" cy="16.2" r="1.8" fill="#fff" stroke="#5030E5"/><path fill="#5329FF" d="M40.328 23V11.72h7.808v1.312h-6.208v3.552h3.44q1.84 0 2.848.8 1.024.8 1.024 2.384t-1.024 2.416Q47.208 23 45.368 23zm1.6-1.312h3.264q1.248 0 1.84-.464.592-.48.592-1.44t-.592-1.424-1.84-.464h-3.264zm12.986 1.456q-1.951 0-3.072-1.104t-1.12-3.056q0-1.265.48-2.208a3.6 3.6 0 0 1 1.36-1.456q.88-.528 2.032-.528 1.136 0 1.904.48t1.168 1.36q.4.864.4 2.048v.512h-6.08v-.928h4.976l-.272.208q0-1.2-.544-1.856-.528-.672-1.536-.672-1.119 0-1.728.784-.608.768-.608 2.128v.16q0 1.425.688 2.144.704.72 1.984.72.705 0 1.312-.192.624-.209 1.184-.672l.528 1.104q-.56.496-1.36.768a5.5 5.5 0 0 1-1.696.256m8.73 0q-1.216 0-2.128-.496a3.53 3.53 0 0 1-1.392-1.456q-.48-.96-.48-2.272 0-1.296.496-2.224a3.35 3.35 0 0 1 1.392-1.408q.897-.495 2.112-.496.785 0 1.52.272.736.255 1.216.736l-.528 1.136a2.9 2.9 0 0 0-1.008-.64 2.9 2.9 0 0 0-1.088-.224q-1.151 0-1.808.736-.656.735-.656 2.128 0 1.408.656 2.16t1.808.752q.512 0 1.072-.192A2.9 2.9 0 0 0 65.852 21l.528 1.136q-.495.48-1.248.752a4.5 4.5 0 0 1-1.488.256M68.216 23v-8.064h7.232V23h-1.6v-6.8h-4.032V23zm9.32.208-.544-1.28q.544-.224.912-.56.385-.352.592-.896.225-.544.32-1.344.096-.8.096-1.936v-2.256h6.08V23h-1.6v-6.8H80.4v1.04q0 1.824-.288 3.024t-.928 1.904q-.624.688-1.648 1.04m13.035-.064q-1.072 0-1.872-.496-.8-.495-1.248-1.44-.432-.944-.432-2.24 0-1.312.432-2.24.449-.928 1.248-1.424.8-.512 1.872-.512 1.056 0 1.84.528.785.528 1.04 1.44h-.176l.16-1.824h1.568l-.096.992q-.032.48-.032.944V23H93.26v-1.792h.176a2.48 2.48 0 0 1-1.056 1.424q-.784.512-1.808.512m.4-1.264q1.04 0 1.664-.736.64-.735.64-2.176 0-1.44-.64-2.16-.624-.736-1.664-.736-1.056 0-1.696.736-.624.72-.624 2.16t.624 2.176 1.696.736M99.085 23v-6.768h-2.848v-1.296h7.312v1.296h-2.864V23zm5.756 0v-8.064h1.6v3.28h4.08v-3.28h1.6V23h-1.6v-3.52h-4.08V23zm9.719 0v-8.064h1.6v2.816h2.288q1.583 0 2.384.672.8.655.8 1.92 0 .816-.368 1.424-.369.593-1.088.912-.705.32-1.728.32zm1.6-1.104h2.112q.912 0 1.376-.368.48-.384.48-1.168t-.48-1.136q-.464-.368-1.376-.368h-2.112zM122.768 23v-8.064h1.6V23zm4.011 0v-8.064h1.472v6.512h-.448l4.864-6.512h1.343V23h-1.455v-6.528h.464L128.123 23zm3.616-8.8q-.736 0-1.312-.24a2.7 2.7 0 0 1-.992-.704 3.3 3.3 0 0 1-.608-1.152l.896-.32q.272.752.768 1.12.495.352 1.248.352.768 0 1.248-.336.495-.336.848-1.12l.832.304q-.384 1.088-1.152 1.6-.753.495-1.776.496M140.7 23v-8.064h7.232V23h-1.6v-6.8H142.3V23zm9.721 3.456v-9.584q0-.464-.048-.944-.032-.495-.08-.992h1.568l.16 1.824h-.176a2.52 2.52 0 0 1 1.024-1.44q.783-.528 1.856-.528 1.071 0 1.872.512.8.495 1.232 1.424.447.928.448 2.24 0 1.296-.448 2.24-.432.945-1.232 1.44-.801.495-1.872.496-1.056 0-1.84-.512a2.52 2.52 0 0 1-1.024-1.424h.176v5.248zm3.904-4.576q1.056 0 1.68-.736.64-.735.64-2.176 0-1.44-.64-2.16-.624-.736-1.68-.736t-1.696.736q-.624.72-.624 2.16t.624 2.176q.64.736 1.696.736m9.489 1.264q-1.2 0-2.08-.496a3.47 3.47 0 0 1-1.36-1.44q-.48-.944-.48-2.24t.48-2.224a3.35 3.35 0 0 1 1.36-1.44q.88-.512 2.08-.512t2.08.512q.896.495 1.376 1.44.496.928.496 2.224t-.496 2.24a3.45 3.45 0 0 1-1.376 1.44q-.88.495-2.08.496m0-1.264q1.056 0 1.68-.736.624-.735.624-2.176 0-1.44-.624-2.16-.624-.736-1.68-.736-1.04 0-1.664.736-.624.72-.624 2.16t.608 2.176q.624.736 1.68.736m9.533 1.264q-1.824 0-2.912-1.136-1.072-1.136-1.072-3.344v-1.392q0-2.256.96-3.632.976-1.376 3.008-1.856l2.944-.704.464 1.296-3.296.768q-.864.192-1.424.72a3.5 3.5 0 0 0-.848 1.248q-.272.72-.272 1.536v.736h-.24q.192-.736.608-1.248.432-.528 1.056-.816a3.3 3.3 0 0 1 1.424-.304q1.04 0 1.824.48t1.216 1.392q.448.896.448 2.128 0 1.28-.48 2.208a3.37 3.37 0 0 1-1.36 1.424q-.864.495-2.048.496m-.048-1.248q1.088 0 1.696-.704.624-.72.624-2.112 0-1.376-.624-2.096t-1.696-.72-1.696.72q-.624.704-.624 2.016 0 1.44.608 2.176.624.72 1.712.72M179.247 23v-8.064h1.6v3.28h4.08v-3.28h1.6V23h-1.6v-3.52h-4.08V23zm9.719 0v-8.064h1.6v2.816h2.288q1.584 0 2.384.672.8.655.8 1.92 0 .816-.368 1.424-.368.593-1.088.912-.704.32-1.728.32zm1.6-1.104h2.112q.912 0 1.376-.368.48-.384.48-1.168t-.48-1.136q-.464-.368-1.376-.368h-2.112zM197.174 23v-8.064h1.6V23zm4.011 0v-8.064h1.472v6.512h-.448l4.864-6.512h1.344V23h-1.456v-6.528h.464L202.529 23zm3.616-8.8q-.736 0-1.312-.24a2.7 2.7 0 0 1-.992-.704 3.3 3.3 0 0 1-.608-1.152l.896-.32q.272.752.768 1.12.495.352 1.248.352.768 0 1.248-.336.495-.336.848-1.12l.832.304q-.384 1.088-1.152 1.6-.753.495-1.776.496m9.506 10.88v-3.328h.896q.528-.8.768-1.872t.24-2.592v-2.352h5.904v6.816h1.296v3.328h-1.392V23h-6.32v2.08zm2.384-3.312h3.904v-5.584h-2.992v1.424q0 1.168-.24 2.288-.225 1.104-.672 1.872m11.842 1.376q-1.2 0-2.08-.496a3.47 3.47 0 0 1-1.36-1.44q-.48-.944-.48-2.24t.48-2.224a3.35 3.35 0 0 1 1.36-1.44q.88-.512 2.08-.512t2.08.512q.896.495 1.376 1.44.496.928.496 2.224t-.496 2.24a3.45 3.45 0 0 1-1.376 1.44q-.88.495-2.08.496m0-1.264q1.056 0 1.68-.736.624-.735.624-2.176 0-1.44-.624-2.16-.624-.736-1.68-.736-1.04 0-1.664.736-.624.72-.624 2.16t.608 2.176q.624.736 1.68.736m9.549 1.264q-1.216 0-2.128-.496a3.5 3.5 0 0 1-1.392-1.456q-.48-.96-.48-2.272 0-1.296.496-2.224a3.34 3.34 0 0 1 1.392-1.408q.895-.495 2.112-.496.783 0 1.52.272.736.255 1.216.736l-.528 1.136a2.9 2.9 0 0 0-1.008-.64 2.9 2.9 0 0 0-1.088-.224q-1.152 0-1.808.736-.656.735-.656 2.128 0 1.408.656 2.16t1.808.752q.511 0 1.072-.192A2.95 2.95 0 0 0 240.29 21l.528 1.136a3.5 3.5 0 0 1-1.248.752q-.736.255-1.488.256m6.3-.144v-6.768h-2.848v-1.296h7.312v1.296h-2.864V23zm5.627 3.632-.384-1.312a6.2 6.2 0 0 0 1.248-.384q.512-.225.848-.592.336-.353.576-.912l.4-.944-.032.656-3.504-8.208h1.728l2.72 6.72h-.432l2.72-6.72h1.664l-3.696 8.64a7 7 0 0 1-.752 1.344 4 4 0 0 1-.864.88q-.465.336-1.024.528-.56.192-1.216.304M258.95 23v-8.064h7.232V23h-1.6v-6.8h-4.032V23zm17.394.144a7.2 7.2 0 0 1-2.208-.336q-1.055-.352-1.76-.992l.576-1.264a5.7 5.7 0 0 0 1.6.896 5.2 5.2 0 0 0 1.744.288q1.185 0 1.792-.496.624-.495.624-1.424 0-.912-.624-1.376-.608-.48-1.808-.48h-1.744v-1.344h1.616q1.024 0 1.632-.512.608-.528.608-1.424 0-.816-.56-1.248-.56-.448-1.6-.448-1.76 0-3.088 1.232l-.56-1.264q.656-.655 1.664-1.008a6.1 6.1 0 0 1 2.112-.368q1.697 0 2.672.784.976.768.976 2.144 0 1.04-.592 1.776-.576.735-1.584.976v-.176q1.2.192 1.84.96.657.751.656 1.888 0 1.504-1.072 2.368-1.055.848-2.912.848m9.588 1.936v-3.328h.896q.528-.8.768-1.872t.24-2.592v-2.352h5.904v6.816h1.296v3.328h-1.392V23h-6.32v2.08zm2.384-3.312h3.904v-5.584h-2.992v1.424q0 1.168-.24 2.288-.225 1.104-.672 1.872M296.638 23v-8.064h1.6v3.28h4.08v-3.28h1.6V23h-1.6v-3.52h-4.08V23zm9.063 0 1.264-2.176q.303-.528.768-.848.48-.336.976-.336h.288l-.016.16q-1.376 0-2.144-.624t-.768-1.792.768-1.808 2.256-.64h3.776V23h-1.488v-2.992h-1.072q-.608 0-1.04.304-.417.305-.688.8L307.493 23zm3.68-4.08h2v-2.896h-2q-.897 0-1.344.384-.432.384-.432 1.056 0 .704.432 1.088.447.368 1.344.368"/></svg>