<svg xmlns="http://www.w3.org/2000/svg" width="29" height="40" fill="none"><path fill="#F0AD00" d="m19.765 38.692-.555.832a1 1 0 0 0 1.555-.832zm-5.679-3.785.555-.832a1 1 0 0 0-1.11 0zm-5.678 3.785h-1a1 1 0 0 0 1.555.832zM7.936 3.746l-.08.997zm3.187-1.32-.761-.648zM3.736 7.814l-.996.08zm4.078-4.078.08-.996zm-5.388 7.387.648.762zm1.32-3.187.997-.08zM2.332 16.97l-.648.762zm0-5.766-.648-.761zm1.414 9.033-.997-.08zm-1.32-3.187.648-.761zm5.388 7.387.08.997zM3.736 20.36l.997.08zm7.387 5.387.762-.648zm-3.187-1.32-.08-.996zm9.033 1.414.762.648zm-5.766 0-.761.648zm9.033-1.414.08-.996zm-3.187 1.32-.761-.648zm7.387-5.387.997-.08zm-4.077 4.077-.08.997zm5.387-7.387.648.762zm-1.32 3.187-.996.08zm1.414-9.033.648-.761zm0 5.766-.648-.761zm-1.414-9.033-.996-.08zm1.32 3.187-.648.762zM20.36 3.736l-.08-.996zm4.077 4.078.997.08zM17.05 2.426l.762-.648zm3.187 1.32.08.997zM16.97 2.332l-.761.648zm-5.766 0 .762.648zM8.408 24.418l.044-1zM20.319 37.86l-5.678-3.785-1.11 1.664 5.679 3.785zm-6.787-3.785L7.852 37.86l1.11 1.664 5.678-3.785zM16.208 2.98l.08.094 1.523-1.296-.08-.094zm4.109 1.763.122-.01-.16-1.993-.123.01zm3.122 2.99-.01.123 1.994.16.01-.122zm1.66 4.152.093.08 1.296-1.524-.094-.08zm.093 4.323-.094.08 1.296 1.523.094-.08zm-1.762 4.109.01.122 1.993-.16-.01-.123zm-2.99 3.122-.123-.01-.161 1.994.123.01zm-4.152 1.66-.08.093 1.523 1.296.08-.094zm-4.323.093-.08-.094-1.523 1.296.08.094zM7.856 23.43l-.123.01.161 1.993.123-.01zm-3.123-2.99.01-.123-1.994-.161-.01.123zm-1.659-4.152-.094-.08-1.296 1.523.094.08zm-.094-4.323.094-.08-1.296-1.523-.094.08zm1.763-4.109-.01-.123-1.993.161.01.123zm2.99-3.123.123.01.16-1.994-.122-.01zm4.152-1.659.08-.094-1.524-1.296-.08.094zM7.856 4.743a4.79 4.79 0 0 0 4.029-1.669l-1.523-1.296a2.79 2.79 0 0 1-2.345.971zm-3.123 2.99a2.786 2.786 0 0 1 3-3l.161-1.993A4.786 4.786 0 0 0 2.74 7.894zm-1.659 4.152a4.79 4.79 0 0 0 1.669-4.029l-1.994.16a2.79 2.79 0 0 1-.971 2.346zm-.094 4.323a2.786 2.786 0 0 1 0-4.243L1.684 10.44a4.786 4.786 0 0 0 0 7.29zm1.763 4.109a4.79 4.79 0 0 0-1.669-4.03l-1.296 1.524a2.79 2.79 0 0 1 .971 2.345zm2.99 3.122a2.786 2.786 0 0 1-3-3l-1.993-.16a4.786 4.786 0 0 0 5.154 5.154zm8.475 1.753a2.786 2.786 0 0 1-4.243 0l-1.524 1.296a4.785 4.785 0 0 0 7.29 0zm7.231-4.753a2.786 2.786 0 0 1-3 3l-.16 1.994a4.786 4.786 0 0 0 5.154-5.154zm1.66-4.151a4.79 4.79 0 0 0-1.67 4.029l1.994-.161a2.79 2.79 0 0 1 .971-2.345zm.093-4.323a2.786 2.786 0 0 1 0 4.243l1.296 1.523a4.785 4.785 0 0 0 0-7.29zM23.43 7.856a4.79 4.79 0 0 0 1.668 4.029l1.296-1.523a2.79 2.79 0 0 1-.971-2.345zm-2.99-3.123a2.786 2.786 0 0 1 3 3l1.993.161a4.786 4.786 0 0 0-5.154-5.154zm-4.152-1.659a4.79 4.79 0 0 0 4.029 1.669l-.161-1.994a2.79 2.79 0 0 1-2.345-.971zm1.443-1.39a4.786 4.786 0 0 0-7.29 0l1.524 1.296a2.786 2.786 0 0 1 4.243 0zm-5.846 23.414a4.79 4.79 0 0 0-3.433-1.68l-.088 1.999a2.79 2.79 0 0 1 1.998.977zm-3.433-1.68a5 5 0 0 0-.596.012l.16 1.993q.175-.014.348-.006zm.956 15.274V24.418h-2v14.274zM20.317 23.43q-.3-.025-.597-.011l.089 1.998a3 3 0 0 1 .347.006zm-.597-.011a4.79 4.79 0 0 0-3.432 1.68l1.523 1.295a2.79 2.79 0 0 1 1.998-.977zm-.955.999v14.274h2V24.418z"/><path stroke="#F0AD00" d="m17.872 12.194-5.678 5.678-1.893-1.893"/></svg>