<svg xmlns="http://www.w3.org/2000/svg" width="26" height="26" fill="none"><path fill="#F8F8F8" d="M0 0h26v26H0z"/><path fill="#ECECEC" d="M-1055-2006c0-1.1.9-2 2-2h8360c1.1 0 2 .9 2 2v7827c0 1.1-.9 2-2 2h-8360c-1.1 0-2-.9-2-2z"/><path fill="#E8E8E8" d="M-1053-2007h8360v-2h-8360zm8361 1v7827h2v-7827zm-1 7828h-8360v2h8360zm-8361-1v-7827h-2v7827zm1 1c-.55 0-1-.45-1-1h-2c0 1.66 1.34 3 3 3zm8361-1c0 .55-.45 1-1 1v2c1.66 0 3-1.34 3-3zm-1-7828c.55 0 1 .45 1 1h2c0-1.66-1.34-3-3-3zm-8360-2c-1.66 0-3 1.34-3 3h2c0-.55.45-1 1-1z"/><path fill="#F7F6FE" d="M-813-143H867v2060H-813z"/><g filter="url(#a)"><rect width="422" height="198" x="-18" y="-17" fill="#fff" rx="16"/><path fill="#FEC53D" d="M12.093.953a1 1 0 0 1 1.814 0l3.108 6.693a1 1 0 0 0 .787.572l7.326.888a1 1 0 0 1 .56 1.725l-5.404 5.024a1 1 0 0 0-.3.925l1.419 7.242a1 1 0 0 1-1.468 1.066L13.486 21.5a1 1 0 0 0-.972 0l-6.45 3.588a1 1 0 0 1-1.467-1.066l1.42-7.242a1 1 0 0 0-.3-.925L.31 10.831a1 1 0 0 1 .56-1.725l7.327-.888a1 1 0 0 0 .787-.572z"/></g><defs><filter id="a" width="462" height="238" x="-38" y="-37" filterUnits="userSpaceOnUse"><feFlood result="BackgroundImageFix"/><feColorMatrix in="SourceAlpha" result="hardAlpha" values="0 0 0 0 0 0 0 0 0 0 0 0 0 0 0 0 0 0 127 0"/><feOffset/><feGaussianBlur stdDeviation="10"/><feComposite in2="hardAlpha" operator="out"/><feColorMatrix values="0 0 0 0 0 0 0 0 0 0 0 0 0 0 0 0 0 0 0.08 0"/><feBlend in2="BackgroundImageFix" result="effect1_dropShadow_0_1"/><feBlend in="SourceGraphic" in2="effect1_dropShadow_0_1" result="shape"/></filter></defs></svg>