<svg xmlns="http://www.w3.org/2000/svg" width="35" height="35" fill="none"><rect width="35" height="35" fill="#000" rx="5"/><g fill="#000100"><path d="M18 9.478c2.672 0 2.988.012 4.04.059.976.043 1.503.207 1.855.343.464.18.8.399 1.148.746.352.352.566.684.746 1.149.137.351.3.883.344 1.855.047 1.055.058 1.371.058 4.04 0 2.671-.011 2.988-.058 4.038-.043.977-.207 1.504-.344 1.856-.18.465-.398.8-.746 1.148a3.1 3.1 0 0 1-1.148.747c-.352.136-.883.3-1.856.343-1.055.047-1.371.059-4.039.059-2.672 0-2.988-.012-4.04-.059-.976-.043-1.503-.207-1.855-.343-.464-.18-.8-.399-1.148-.747a3.1 3.1 0 0 1-.746-1.148c-.137-.352-.3-.883-.344-1.855-.047-1.055-.058-1.372-.058-4.04 0-2.671.011-2.988.058-4.039.043-.976.207-1.504.344-1.855.18-.465.398-.8.746-1.149a3.1 3.1 0 0 1 1.148-.746c.352-.136.883-.3 1.856-.343 1.05-.047 1.367-.059 4.039-.059m0-1.8c-2.715 0-3.055.011-4.121.058-1.063.047-1.793.219-2.426.465A4.9 4.9 0 0 0 9.68 9.357a4.9 4.9 0 0 0-1.157 1.77c-.246.636-.418 1.363-.464 2.425-.047 1.07-.059 1.41-.059 4.125s.012 3.055.059 4.121c.046 1.063.218 1.793.464 2.426a4.9 4.9 0 0 0 1.157 1.774 4.9 4.9 0 0 0 1.77 1.152c.636.246 1.363.418 2.425.465 1.066.047 1.406.058 4.121.058s3.055-.011 4.121-.058c1.063-.047 1.793-.219 2.426-.465a4.9 4.9 0 0 0 1.77-1.152 4.9 4.9 0 0 0 1.152-1.77c.246-.637.418-1.363.465-2.426.047-1.066.058-1.406.058-4.12 0-2.716-.011-3.055-.058-4.122-.047-1.062-.22-1.793-.465-2.426a4.7 4.7 0 0 0-1.145-1.777 4.9 4.9 0 0 0-1.77-1.152c-.636-.247-1.363-.418-2.425-.465-1.07-.051-1.41-.063-4.125-.063"/><path d="M18 12.54a5.14 5.14 0 0 0-5.137 5.137 5.138 5.138 0 0 0 10.273 0c0-2.836-2.3-5.136-5.136-5.136m0 8.47a3.333 3.333 0 1 1 .001-6.666A3.333 3.333 0 0 1 18 21.01M24.54 12.337a1.2 1.2 0 1 1-2.4 0 1.2 1.2 0 0 1 2.4 0"/></g></svg>