<svg xmlns="http://www.w3.org/2000/svg" width="674" height="635" fill="none"><rect width="611" height="635" fill="#F7F7F7" rx="18"/><path fill="#1A1A1A" d="M46.354 137v-30.315h26.531V137h-5.504v-25.8H51.815V137zm42.89.43q-3.353 0-5.804-1.376t-3.827-3.913q-1.333-2.537-1.333-6.02t1.333-5.977q1.376-2.537 3.827-3.913t5.805-1.376 5.805 1.376a9.33 9.33 0 0 1 3.827 3.913q1.376 2.494 1.376 5.977t-1.376 6.02a9.33 9.33 0 0 1-3.827 3.913q-2.452 1.376-5.805 1.376m0-4.128q2.538 0 4.043-1.763 1.505-1.806 1.505-5.418t-1.505-5.375-4.042-1.763-4.042 1.763q-1.506 1.763-1.505 5.375 0 3.612 1.505 5.418 1.504 1.763 4.042 1.763m14.167 9.288v-9.675h2.494q1.29-2.02 1.849-4.73.602-2.752.602-6.708v-6.192h16.727v17.63h3.526v9.675h-4.558V137h-16.082v5.59zm7.31-9.632h9.331v-13.631h-7.138v3.354q0 2.881-.559 5.633t-1.634 4.644M132.557 137v-21.715h5.332v8.514h9.804v-8.514h5.332V137h-5.332v-9.073h-9.804V137zm26.581 0v-21.715h4.859v16.426h-1.29l12.341-16.426h4.429V137h-4.859v-16.469h1.333L163.567 137zm26.455 0v-21.715h4.472l7.482 12.986 7.482-12.986h4.472V137h-4.73v-15.695h.989l-6.966 12.169H196.3l-6.966-12.169h.989V137zm30.024 0v-21.715h4.859v16.426h-1.29l12.341-16.426h4.429V137h-4.859v-16.469h1.333L220.046 137zm48.403.43q-3.353 0-5.891-1.376-2.493-1.376-3.87-3.913-1.376-2.58-1.376-6.106t1.376-6.02q1.42-2.494 3.913-3.827 2.494-1.333 5.848-1.333 2.15 0 4.171.688 2.064.645 3.354 1.892l-1.634 3.741a7.5 7.5 0 0 0-2.623-1.591q-1.418-.56-2.795-.559-2.88 0-4.515 1.806-1.59 1.806-1.591 5.246t1.591 5.289q1.635 1.85 4.515 1.849 1.333 0 2.752-.516a7.9 7.9 0 0 0 2.666-1.591l1.634 3.698q-1.332 1.246-3.397 1.935a12.7 12.7 0 0 1-4.128.688m12.108-.43v-21.715h11.567q4.086 0 5.977 1.505 1.892 1.462 1.892 4.171 0 2.064-1.376 3.44t-3.655 1.72v-.602q2.796.172 4.3 1.634 1.506 1.462 1.505 3.784 0 2.795-2.15 4.429T288.082 137zm4.988-3.311h6.407q1.893 0 2.881-.774 1.032-.774 1.032-2.279t-1.032-2.279q-.988-.774-2.881-.774h-6.407zm0-9.417h5.934q1.72 0 2.666-.731.946-.774.946-2.15t-.946-2.107q-.945-.73-2.666-.731h-5.934zm29.89 13.158q-3.354 0-5.805-1.376t-3.827-3.913q-1.333-2.537-1.333-6.02t1.333-5.977q1.376-2.537 3.827-3.913t5.805-1.376 5.805 1.376a9.33 9.33 0 0 1 3.827 3.913q1.376 2.494 1.376 5.977t-1.376 6.02a9.33 9.33 0 0 1-3.827 3.913q-2.451 1.376-5.805 1.376m0-4.128q2.536 0 4.042-1.763 1.505-1.806 1.505-5.418t-1.505-5.375-4.042-1.763-4.042 1.763q-1.506 1.763-1.505 5.375 0 3.612 1.505 5.418 1.504 1.763 4.042 1.763M327.107 137v-21.715h4.859v16.426h-1.29l12.341-16.426h4.429V137h-4.859v-16.469h1.333L331.536 137zm38.255 0v-21.715h20.339V137h-5.332v-17.587h-9.675V137zm26.627 9.288v-25.585q0-1.334-.086-2.709a42 42 0 0 0-.258-2.709h5.203l.473 4.558h-.473q.645-2.279 2.709-3.612 2.106-1.376 4.859-1.376 2.88 0 5.031 1.376 2.15 1.334 3.354 3.87 1.204 2.494 1.204 6.02 0 3.527-1.204 6.063-1.204 2.537-3.354 3.913-2.151 1.333-5.031 1.333-2.709 0-4.773-1.333-2.065-1.333-2.752-3.569h.473v13.76zm10.922-12.986q2.58 0 4.128-1.763 1.548-1.806 1.548-5.418t-1.548-5.375-4.128-1.763q-2.538 0-4.085 1.763t-1.548 5.375q0 3.612 1.548 5.418 1.547 1.763 4.085 1.763m26.135 4.128q-3.354 0-5.805-1.376t-3.827-3.913q-1.333-2.537-1.333-6.02t1.333-5.977q1.376-2.537 3.827-3.913t5.805-1.376 5.805 1.376a9.33 9.33 0 0 1 3.827 3.913q1.376 2.494 1.376 5.977t-1.376 6.02a9.33 9.33 0 0 1-3.827 3.913q-2.451 1.376-5.805 1.376m0-4.128q2.536 0 4.042-1.763 1.505-1.806 1.505-5.418t-1.505-5.375-4.042-1.763-4.042 1.763-1.505 5.375 1.505 5.418q1.504 1.763 4.042 1.763m14.166 9.288v-9.675h2.494q1.29-2.02 1.849-4.73.602-2.752.602-6.708v-6.192h16.727v17.63h3.526v9.675h-4.558V137H447.77v5.59zm7.31-9.632h9.331v-13.631h-7.138v3.354q0 2.881-.559 5.633-.56 2.753-1.634 4.644m30.393 4.472q-2.838 0-4.988-1.333-2.151-1.376-3.354-3.913t-1.204-6.063 1.204-6.02q1.203-2.536 3.354-3.87 2.15-1.376 4.988-1.376 2.752 0 4.816 1.376 2.106 1.333 2.795 3.612h-.473l.473-4.558h5.16l-.258 2.709q-.087 1.376-.086 2.709V137h-5.332l-.043-4.472h.516q-.689 2.236-2.795 3.569-2.107 1.333-4.773 1.333m1.505-4.128q2.537 0 4.085-1.763 1.548-1.806 1.548-5.418t-1.548-5.375-4.085-1.763q-2.538 0-4.085 1.763t-1.548 5.375 1.505 5.418q1.548 1.763 4.128 1.763M496.343 137l4.558-8.127q.86-1.419 1.634-2.322.816-.946 1.763-1.462.945-.516 2.15-.645l-1.118 1.677-8.041-10.836h5.762l6.407 8.514h2.709v-8.514h5.332v8.514h2.666l6.364-8.514h5.805l-8.084 10.836-1.118-1.677q1.203.129 2.15.645.945.516 1.763 1.462.86.903 1.677 2.322L533.28 137h-5.719l-3.698-6.536q-.56-.988-1.118-1.548a3 3 0 0 0-1.247-.774q-.688-.215-1.677-.215h-2.322V137h-5.332v-9.073h-2.365q-.99 0-1.677.215a3 3 0 0 0-1.247.774q-.516.56-1.118 1.548L502.062 137zm39.759 0v-21.715h4.859v16.426h-1.29l12.341-16.426h4.429V137h-4.859v-16.469h1.333L540.531 137zM46.053 191v-21.715h5.332v8.514h9.804v-8.514h5.332V191h-5.332v-9.073h-9.804V191zm35.138.43q-2.838 0-4.988-1.333-2.15-1.376-3.354-3.913t-1.204-6.063 1.204-6.02q1.204-2.536 3.354-3.87 2.15-1.376 4.988-1.376 2.752 0 4.816 1.376 2.107 1.334 2.795 3.612h-.473l.473-4.558h5.16l-.258 2.709a43 43 0 0 0-.086 2.709V191h-5.332l-.043-4.472h.516q-.688 2.236-2.795 3.569t-4.773 1.333m1.505-4.128q2.537 0 4.085-1.763 1.548-1.806 1.548-5.418t-1.548-5.375-4.085-1.763-4.085 1.763-1.548 5.375 1.505 5.418q1.548 1.763 4.128 1.763M111.687 191v-21.715h4.472l7.482 12.986 7.482-12.986h4.472V191h-4.73v-15.695h.989l-6.966 12.169h-2.494l-6.966-12.169h.989V191zm38.581.43q-2.838 0-4.988-1.333-2.15-1.376-3.354-3.913t-1.204-6.063 1.204-6.02q1.204-2.536 3.354-3.87 2.15-1.376 4.988-1.376 2.752 0 4.816 1.376 2.108 1.334 2.795 3.612h-.473l.473-4.558h5.16l-.258 2.709a44 44 0 0 0-.086 2.709V191h-5.332l-.043-4.472h.516q-.687 2.236-2.795 3.569-2.106 1.333-4.773 1.333m1.505-4.128q2.537 0 4.085-1.763 1.548-1.806 1.548-5.418t-1.548-5.375-4.085-1.763-4.085 1.763-1.548 5.375 1.505 5.418q1.548 1.763 4.128 1.763m17.363 12.986v-25.585q0-1.334-.086-2.709a41 41 0 0 0-.258-2.709h5.203l.473 4.558h-.473q.645-2.279 2.709-3.612 2.107-1.376 4.859-1.376 2.882 0 5.031 1.376 2.15 1.334 3.354 3.87 1.204 2.494 1.204 6.02 0 3.527-1.204 6.063-1.204 2.537-3.354 3.913-2.15 1.333-5.031 1.333-2.709 0-4.773-1.333t-2.752-3.569h.473v13.76zm10.922-12.986q2.58 0 4.128-1.763 1.548-1.806 1.548-5.418t-1.548-5.375-4.128-1.763q-2.537 0-4.085 1.763t-1.548 5.375 1.548 5.418q1.548 1.763 4.085 1.763M196.217 191v-21.715h5.332v8.514h3.268l6.364-8.514h5.762l-7.998 10.836-1.161-1.677q1.204.129 2.107.645.946.516 1.763 1.462.86.903 1.677 2.322l4.558 8.127h-5.719l-3.698-6.536q-.559-.989-1.118-1.548a3 3 0 0 0-1.247-.774q-.689-.215-1.677-.215h-2.881V191zm35.188.43q-5.461 0-8.557-3.01t-3.096-8.256q0-3.398 1.333-5.934t3.698-3.956q2.407-1.419 5.59-1.419 3.138 0 5.246 1.333 2.106 1.334 3.182 3.741 1.118 2.408 1.118 5.633v1.419h-15.824v-2.838h11.997l-.731.602q0-3.01-1.29-4.601-1.248-1.591-3.655-1.591-2.667 0-4.128 1.892-1.419 1.891-1.419 5.289v.559q0 3.526 1.72 5.289 1.762 1.72 4.945 1.72 1.848 0 3.44-.473a10.1 10.1 0 0 0 3.096-1.634l1.591 3.612q-1.548 1.246-3.698 1.935a14.9 14.9 0 0 1-4.558.688m18.168-.43v-17.501h-7.439v-4.214h20.253v4.214h-7.482V191zm16.141 0v-21.715h20.339V191h-5.332v-17.587h-9.675V191zm25.896.602-1.677-4.214q1.42-.516 2.365-1.333a5.9 5.9 0 0 0 1.548-2.15q.602-1.333.86-3.268.258-1.978.258-4.687v-6.665h17.286V191h-5.332v-17.587h-7.052v2.709q0 4.688-.86 7.869-.86 3.139-2.666 4.988-1.805 1.85-4.73 2.623m37.426-.172q-5.46 0-8.557-3.01-3.096-3.01-3.096-8.256 0-3.398 1.333-5.934 1.334-2.537 3.698-3.956 2.409-1.419 5.59-1.419 3.14 0 5.246 1.333 2.108 1.334 3.182 3.741 1.119 2.408 1.118 5.633v1.419h-15.824v-2.838h11.997l-.731.602q0-3.01-1.29-4.601-1.246-1.591-3.655-1.591-2.666 0-4.128 1.892-1.419 1.891-1.419 5.289v.559q0 3.526 1.72 5.289 1.764 1.72 4.945 1.72 1.85 0 3.44-.473a10.1 10.1 0 0 0 3.096-1.634l1.591 3.612q-1.548 1.246-3.698 1.935a14.9 14.9 0 0 1-4.558.688m13.482-.43v-21.715h4.859v16.426h-1.29l12.341-16.426h4.429V191h-4.859v-16.469h1.333L346.947 191zm10.148-23.693q-2.15 0-3.784-.688-1.634-.73-2.709-2.021-1.076-1.333-1.548-3.139l2.752-.946q.73 1.978 2.021 2.924 1.29.903 3.311.903t3.311-.903 2.107-2.881l2.623.903q-.903 2.882-3.01 4.386-2.064 1.462-5.074 1.462m26.455 24.123q-3.354 0-5.891-1.376-2.495-1.376-3.87-3.913-1.376-2.58-1.376-6.106t1.376-6.02q1.419-2.494 3.913-3.827t5.848-1.333q2.15 0 4.171.688 2.064.645 3.354 1.892l-1.634 3.741a7.5 7.5 0 0 0-2.623-1.591q-1.42-.56-2.795-.559-2.882 0-4.515 1.806-1.591 1.806-1.591 5.246t1.591 5.289q1.633 1.85 4.515 1.849 1.333 0 2.752-.516a7.9 7.9 0 0 0 2.666-1.591l1.634 3.698q-1.333 1.246-3.397 1.935a12.7 12.7 0 0 1-4.128.688m20.665 0q-2.838 0-4.988-1.333-2.151-1.376-3.354-3.913t-1.204-6.063q0-3.526 1.204-6.02 1.203-2.536 3.354-3.87 2.15-1.376 4.988-1.376 2.752 0 4.816 1.376 2.106 1.334 2.795 3.612h-.473l.473-4.558h5.16l-.258 2.709q-.087 1.375-.086 2.709V191h-5.332l-.043-4.472h.516q-.689 2.236-2.795 3.569-2.107 1.333-4.773 1.333m1.505-4.128q2.537 0 4.085-1.763 1.548-1.806 1.548-5.418t-1.548-5.375-4.085-1.763-4.085 1.763-1.548 5.375 1.505 5.418q1.548 1.763 4.128 1.763M415.3 191l10.105-12.427v2.451l-9.546-11.739h6.364l6.235 8.041h-1.935l6.235-8.041h6.321l-9.46 11.739v-2.451L439.681 191h-6.407l-6.751-8.643h1.935L421.664 191zm-77.037 108.43q-3.354 0-5.891-1.376-2.495-1.376-3.87-3.913-1.376-2.58-1.376-6.106t1.376-6.02q1.419-2.494 3.913-3.827t5.848-1.333q2.15 0 4.171.688 2.064.645 3.354 1.892l-1.634 3.741a7.5 7.5 0 0 0-2.623-1.591q-1.42-.56-2.795-.559-2.881 0-4.515 1.806-1.591 1.806-1.591 5.246t1.591 5.289q1.634 1.85 4.515 1.849 1.332 0 2.752-.516a8 8 0 0 0 2.666-1.591l1.634 3.698q-1.333 1.246-3.397 1.935a12.7 12.7 0 0 1-4.128.688m12.107-.43v-21.715h11.567q4.086 0 5.977 1.505 1.892 1.462 1.892 4.171 0 2.064-1.376 3.44t-3.655 1.72v-.602q2.796.172 4.3 1.634 1.506 1.462 1.505 3.784 0 2.795-2.15 4.429T362.324 299zm4.988-3.311h6.407q1.893 0 2.881-.774 1.032-.774 1.032-2.279t-1.032-2.279q-.988-.774-2.881-.774h-6.407zm0-9.417h5.934q1.72 0 2.666-.731.946-.774.946-2.15t-.946-2.107q-.945-.73-2.666-.731h-5.934zm29.89 13.158q-3.354 0-5.805-1.376t-3.827-3.913q-1.333-2.537-1.333-6.02t1.333-5.977q1.376-2.537 3.827-3.913t5.805-1.376 5.805 1.376a9.33 9.33 0 0 1 3.827 3.913q1.376 2.494 1.376 5.977t-1.376 6.02a9.33 9.33 0 0 1-3.827 3.913q-2.451 1.376-5.805 1.376m0-4.128q2.536 0 4.042-1.763 1.505-1.806 1.505-5.418t-1.505-5.375-4.042-1.763-4.042 1.763-1.505 5.375 1.505 5.418q1.504 1.763 4.042 1.763m26.765 4.128q-5.461 0-8.557-3.01t-3.096-8.256q0-3.398 1.333-5.934t3.698-3.956q2.408-1.419 5.59-1.419 3.139 0 5.246 1.333 2.107 1.334 3.182 3.741 1.118 2.408 1.118 5.633v1.419h-15.824v-2.838H416.7l-.731.602q0-3.01-1.29-4.601-1.247-1.591-3.655-1.591-2.666 0-4.128 1.892-1.419 1.892-1.419 5.289v.559q0 3.526 1.72 5.289 1.763 1.72 4.945 1.72 1.849 0 3.44-.473a10.1 10.1 0 0 0 3.096-1.634l1.591 3.612q-1.548 1.246-3.698 1.935a14.9 14.9 0 0 1-4.558.688m13.481-.43v-21.715h16.297v4.214h-10.922V299zm30.049.43q-3.354 0-5.805-1.376t-3.827-3.913q-1.333-2.537-1.333-6.02t1.333-5.977q1.376-2.537 3.827-3.913t5.805-1.376 5.805 1.376a9.33 9.33 0 0 1 3.827 3.913q1.376 2.494 1.376 5.977t-1.376 6.02a9.33 9.33 0 0 1-3.827 3.913q-2.451 1.376-5.805 1.376m0-4.128q2.536 0 4.042-1.763 1.505-1.806 1.505-5.418t-1.505-5.375-4.042-1.763q-2.538 0-4.042 1.763t-1.505 5.375 1.505 5.418q1.504 1.763 4.042 1.763M56.244 353.43q-5.117 0-8.17-3.096-3.01-3.096-3.01-9.073v-3.698q0-6.149 2.795-9.89 2.795-3.74 8.428-4.945l7.955-1.806 1.462 4.214-8.944 1.978q-2.235.473-3.698 1.806a8.15 8.15 0 0 0-2.193 3.096 10.2 10.2 0 0 0-.731 3.87v2.279h-.731q.473-1.935 1.591-3.354a7.64 7.64 0 0 1 2.838-2.279q1.72-.817 3.913-.817 2.752 0 4.816 1.29 2.107 1.247 3.311 3.655 1.204 2.365 1.204 5.676 0 3.397-1.376 5.891a9.46 9.46 0 0 1-3.784 3.87q-2.407 1.333-5.676 1.333m-.172-4.085q2.666 0 4.128-1.677 1.505-1.72 1.505-5.117 0-3.31-1.505-5.031-1.505-1.763-4.128-1.763t-4.128 1.72-1.505 4.902q0 3.483 1.505 5.246 1.505 1.72 4.128 1.72m16.1 3.655v-21.715h4.86v16.426h-1.29l12.34-16.426h4.43V353h-4.86v-16.469h1.333L76.601 353zm34.453.43q-2.924 0-5.504-.688-2.536-.688-4.257-1.978l1.505-3.526q1.591 1.161 3.698 1.763a16.7 16.7 0 0 0 4.515.602q2.752 0 3.999-.731 1.29-.774 1.29-2.236 0-1.375-.989-2.064-.989-.73-2.924-.731h-5.633v-3.698h5.117q1.764 0 2.709-.688.946-.689.946-1.935 0-1.333-1.161-2.107-1.118-.774-3.698-.774-2.235 0-4.085.559-1.848.516-3.483 1.548l-1.462-3.354q1.764-1.247 4.257-1.892 2.537-.645 5.504-.645 4.343 0 6.665 1.591t2.322 4.515q0 1.978-1.376 3.397-1.332 1.42-3.612 1.763v-.602q2.667.172 4.214 1.591t1.548 3.827q0 2.967-2.623 4.73-2.622 1.763-7.482 1.763m14.804-.43v-21.715h5.332v8.514h9.804v-8.514h5.332V353h-5.332v-9.073h-9.804V353zm37.245.43q-5.461 0-8.557-3.01t-3.096-8.256q0-3.398 1.333-5.934t3.698-3.956q2.408-1.419 5.59-1.419 3.139 0 5.246 1.333 2.107 1.334 3.182 3.741 1.118 2.408 1.118 5.633v1.419h-15.824v-2.838h11.997l-.731.602q0-3.01-1.29-4.601-1.247-1.591-3.655-1.591-2.666 0-4.128 1.892-1.419 1.892-1.419 5.289v.559q0 3.526 1.72 5.289 1.763 1.72 4.945 1.72 1.849 0 3.44-.473a10.1 10.1 0 0 0 3.096-1.634l1.591 3.612q-1.548 1.247-3.698 1.935a14.9 14.9 0 0 1-4.558.688m23.63 0q-3.354 0-5.891-1.376-2.495-1.376-3.87-3.913-1.377-2.58-1.376-6.106 0-3.526 1.376-6.02 1.419-2.494 3.913-3.827t5.848-1.333q2.15 0 4.171.688 2.064.645 3.354 1.892l-1.634 3.741a7.5 7.5 0 0 0-2.623-1.591q-1.42-.56-2.795-.559-2.881 0-4.515 1.806-1.591 1.806-1.591 5.246t1.591 5.289q1.633 1.85 4.515 1.849 1.333 0 2.752-.516a8 8 0 0 0 2.666-1.591l1.634 3.698q-1.333 1.247-3.397 1.935a12.7 12.7 0 0 1-4.128.688m20.664 0q-2.838 0-4.988-1.333-2.15-1.376-3.354-3.913t-1.204-6.063 1.204-6.02q1.204-2.536 3.354-3.87 2.15-1.376 4.988-1.376 2.752 0 4.816 1.376 2.108 1.333 2.795 3.612h-.473l.473-4.558h5.16l-.258 2.709a44 44 0 0 0-.086 2.709V353h-5.332l-.043-4.472h.516q-.687 2.236-2.795 3.569-2.106 1.333-4.773 1.333m1.505-4.128q2.538 0 4.085-1.763 1.548-1.806 1.548-5.418t-1.548-5.375q-1.547-1.763-4.085-1.763-2.537 0-4.085 1.763t-1.548 5.375 1.505 5.418q1.548 1.763 4.128 1.763"/><path fill="#5329FF" d="M56.201 245.43q-3.354 0-5.891-1.376-2.494-1.376-3.87-3.913-1.376-2.58-1.376-6.106t1.376-6.02q1.419-2.494 3.913-3.827t5.848-1.333q2.15 0 4.171.688 2.064.645 3.354 1.892l-1.634 3.741a7.5 7.5 0 0 0-2.623-1.591q-1.42-.56-2.795-.559-2.88 0-4.515 1.806-1.59 1.806-1.591 5.246t1.591 5.289q1.634 1.85 4.515 1.849 1.333 0 2.752-.516a7.9 7.9 0 0 0 2.666-1.591l1.634 3.698q-1.333 1.246-3.397 1.935a12.7 12.7 0 0 1-4.128.688m23.908-.43v-21.715h20.339V245h-5.332v-17.587H85.44V245zm36.431.43q-3.354 0-5.805-1.376t-3.827-3.913q-1.333-2.537-1.333-6.02t1.333-5.977q1.376-2.537 3.827-3.913t5.805-1.376 5.805 1.376a9.33 9.33 0 0 1 3.827 3.913q1.376 2.494 1.376 5.977t-1.376 6.02a9.33 9.33 0 0 1-3.827 3.913q-2.451 1.376-5.805 1.376m0-4.128q2.536 0 4.042-1.763 1.505-1.806 1.505-5.418t-1.505-5.375-4.042-1.763q-2.538 0-4.042 1.763t-1.505 5.375q0 3.612 1.505 5.418 1.504 1.763 4.042 1.763M132.641 245v-21.715h4.472l7.482 12.986 7.482-12.986h4.472V245h-4.73v-15.695h.989l-6.966 12.169h-2.494l-6.966-12.169h.989V245zm40 .43q-3.354 0-5.805-1.376t-3.827-3.913q-1.333-2.537-1.333-6.02t1.333-5.977q1.376-2.537 3.827-3.913t5.805-1.376 5.805 1.376a9.32 9.32 0 0 1 3.827 3.913q1.376 2.494 1.376 5.977t-1.376 6.02a9.32 9.32 0 0 1-3.827 3.913q-2.451 1.376-5.805 1.376m0-4.128q2.538 0 4.042-1.763 1.505-1.806 1.505-5.418t-1.505-5.375q-1.504-1.763-4.042-1.763-2.536 0-4.042 1.763t-1.505 5.375q0 3.612 1.505 5.418 1.506 1.763 4.042 1.763m45.47 9.288V245h-29.369v-21.715h5.031v17.587h7.654v-17.587h4.988v17.587h7.654v-17.587h5.031v17.587h3.526v9.718zm8.466-5.59v-21.715h5.332v7.267h5.719q4.344 0 6.536 1.849 2.193 1.806 2.193 5.246 0 2.236-1.032 3.913-1.032 1.634-3.01 2.537-1.935.903-4.687.903zm5.332-3.526h4.988q2.193 0 3.354-.903 1.161-.947 1.161-2.838t-1.161-2.752q-1.117-.903-3.354-.903h-4.988zm38.72 3.956q-4.515 0-7.396-2.494-2.838-2.537-3.397-7.009h-3.741V245h-5.246v-21.715h5.246v8.514h3.784q.688-4.214 3.526-6.579t7.224-2.365q3.354 0 5.805 1.376 2.494 1.334 3.827 3.87 1.376 2.494 1.376 6.02 0 3.483-1.376 6.02a9.33 9.33 0 0 1-3.827 3.913q-2.451 1.376-5.805 1.376m0-4.085q2.537 0 4.085-1.763 1.548-1.806 1.548-5.461 0-3.612-1.548-5.375-1.548-1.806-4.085-1.806-2.58 0-4.128 1.806-1.505 1.763-1.505 5.375 0 3.655 1.505 5.461 1.548 1.763 4.128 1.763m37.857 4.085q-3.354 0-5.805-1.376t-3.827-3.913q-1.333-2.537-1.333-6.02t1.333-5.977q1.376-2.537 3.827-3.913t5.805-1.376 5.805 1.376a9.33 9.33 0 0 1 3.827 3.913q1.376 2.494 1.376 5.977t-1.376 6.02a9.33 9.33 0 0 1-3.827 3.913q-2.451 1.376-5.805 1.376m0-4.128q2.537 0 4.042-1.763 1.505-1.806 1.505-5.418t-1.505-5.375-4.042-1.763-4.042 1.763-1.505 5.375 1.505 5.418q1.505 1.763 4.042 1.763m34.935 9.288V245h-18.834v-21.715h5.332v17.587h9.202v-17.587h5.289v17.587h3.526v9.718zm8.461-5.59v-21.715h4.859v16.426h-1.29l12.341-16.426h4.429V245h-4.859v-16.469h1.333L356.311 245zm39.226 9.288v-13.502h.473q-.687 2.236-2.322 3.44-1.59 1.204-3.87 1.204-2.364 0-4.214-1.376-1.806-1.42-2.838-3.956t-1.032-5.977q0-3.483.989-5.977 1.032-2.537 2.838-3.913 1.85-1.376 4.257-1.376 2.28 0 3.87 1.204 1.635 1.204 2.322 3.397h-.473v-14.104h5.332v14.104h-.473q.689-2.193 2.279-3.397 1.635-1.204 3.913-1.204 2.409 0 4.214 1.376 1.85 1.376 2.838 3.913 1.032 2.494 1.032 5.977 0 3.44-1.032 5.977-.989 2.537-2.838 3.956-1.805 1.376-4.214 1.376-2.235 0-3.87-1.204-1.59-1.204-2.322-3.44h.473v13.502zm-4.171-12.9q1.978 0 3.096-1.806 1.161-1.806 1.161-5.461 0-3.612-1.161-5.418-1.161-1.85-3.096-1.849-1.978 0-3.139 1.849-1.161 1.806-1.161 5.418 0 3.655 1.161 5.461t3.139 1.806m13.674 0q1.978 0 3.139-1.806t1.161-5.461q0-3.612-1.204-5.418-1.161-1.85-3.096-1.849-1.978 0-3.139 1.849-1.118 1.806-1.118 5.418 0 3.655 1.118 5.461 1.161 1.806 3.139 1.806m14.893 12.9v-25.585a43 43 0 0 0-.344-5.418h5.203l.473 4.558h-.473q.645-2.279 2.709-3.612 2.108-1.376 4.859-1.376 2.882 0 5.031 1.376 2.151 1.334 3.354 3.87 1.204 2.494 1.204 6.02 0 3.527-1.204 6.063-1.203 2.537-3.354 3.913-2.15 1.333-5.031 1.333-2.709 0-4.773-1.333t-2.752-3.569h.473v13.76zm10.922-12.986q2.58 0 4.128-1.763 1.548-1.806 1.548-5.418t-1.548-5.375-4.128-1.763q-2.537 0-4.085 1.763t-1.548 5.375 1.548 5.418q1.548 1.763 4.085 1.763m26.135 4.128q-3.354 0-5.805-1.376t-3.827-3.913q-1.332-2.537-1.333-6.02t1.333-5.977q1.377-2.537 3.827-3.913t5.805-1.376q3.354 0 5.805 1.376a9.32 9.32 0 0 1 3.827 3.913q1.377 2.494 1.376 5.977 0 3.483-1.376 6.02a9.32 9.32 0 0 1-3.827 3.913q-2.451 1.376-5.805 1.376m0-4.128q2.538 0 4.042-1.763 1.506-1.806 1.505-5.418 0-3.612-1.505-5.375t-4.042-1.763q-2.536 0-4.042 1.763t-1.505 5.375 1.505 5.418q1.506 1.763 4.042 1.763M468.662 245v-21.715h11.567q4.086 0 5.977 1.505 1.893 1.462 1.892 4.171 0 2.064-1.376 3.44t-3.655 1.72v-.602q2.796.172 4.3 1.634t1.505 3.784q0 2.795-2.15 4.429T480.616 245zm4.988-3.311h6.407q1.893 0 2.881-.774 1.032-.774 1.032-2.279t-1.032-2.279q-.988-.774-2.881-.774h-6.407zm0-9.417h5.934q1.72 0 2.666-.731.946-.774.946-2.15t-.946-2.107q-.945-.73-2.666-.731h-5.934zM493.564 245v-21.715h5.332v8.514h3.268l6.364-8.514h5.762l-7.998 10.836-1.161-1.677q1.203.129 2.107.645.945.516 1.763 1.462.86.903 1.677 2.322l4.558 8.127h-5.719l-3.698-6.536q-.56-.989-1.118-1.548a3 3 0 0 0-1.247-.774q-.688-.215-1.677-.215h-2.881V245zm24.523 0v-21.715h4.859v16.426h-1.29l12.341-16.426h4.429V245h-4.859v-16.469h1.333L522.516 245zM46.053 299v-21.715h4.859v16.426h-1.29l12.341-16.426h4.429V299h-4.859v-16.469h1.333L50.482 299zm46.812.43q-2.838 0-4.988-1.333-2.15-1.376-3.354-3.913t-1.204-6.063 1.204-6.02q1.204-2.536 3.354-3.87 2.15-1.376 4.988-1.376 2.752 0 4.816 1.376 2.107 1.333 2.795 3.612h-.473l.473-4.558h5.16l-.258 2.709a44 44 0 0 0-.086 2.709V299H99.96l-.043-4.472h.516q-.688 2.236-2.795 3.569t-4.773 1.333m1.505-4.128q2.537 0 4.085-1.763 1.548-1.806 1.548-5.418t-1.548-5.375-4.085-1.763-4.085 1.763-1.548 5.375 1.505 5.418q1.548 1.763 4.128 1.763M111.56 299v-21.715h5.332v8.514h9.804v-8.514h5.332V299h-5.332v-9.073h-9.804V299zm35.138.43q-2.838 0-4.988-1.333-2.15-1.376-3.354-3.913t-1.204-6.063 1.204-6.02q1.204-2.536 3.354-3.87 2.15-1.376 4.988-1.376 2.752 0 4.816 1.376 2.107 1.333 2.795 3.612h-.473l.473-4.558h5.16l-.258 2.709a44 44 0 0 0-.086 2.709V299h-5.332l-.043-4.472h.516q-.688 2.236-2.795 3.569t-4.773 1.333m1.505-4.128q2.537 0 4.085-1.763 1.548-1.806 1.548-5.418t-1.548-5.375-4.085-1.763-4.085 1.763-1.548 5.375 1.505 5.418q1.548 1.763 4.128 1.763m16.632 4.3-1.677-4.214q1.419-.516 2.365-1.333a5.9 5.9 0 0 0 1.548-2.15q.602-1.333.86-3.268.258-1.978.258-4.687v-6.665h17.286V299h-5.332v-17.587h-7.052v2.709q0 4.687-.86 7.869-.86 3.139-2.666 4.988t-4.73 2.623m26.762-.602v-21.715h4.859v16.426h-1.29l12.341-16.426h4.429V299h-4.859v-16.469h1.333L196.027 299zm31.142 0v-17.501h-7.439v-4.214h20.253v4.214h-7.482V299zm16.141 0v-21.715h4.859v16.426h-1.29l12.341-16.426h4.429V299h-4.859v-16.469h1.333L243.31 299zm26.455 0v-21.715h5.332v8.514h3.268l6.364-8.514h5.762l-7.998 10.836-1.161-1.677q1.204.129 2.107.645.947.516 1.763 1.462.861.903 1.677 2.322l4.558 8.127h-5.719l-3.698-6.536q-.558-.988-1.118-1.548a3 3 0 0 0-1.247-.774q-.687-.215-1.677-.215h-2.881V299zm24.524 0v-21.715h4.859v16.426h-1.29l12.341-16.426h4.429V299h-4.859v-16.469h1.333L294.289 299z"/><rect width="525" height="63" x="43" y="529" fill="#5329FF" rx="8"/><path fill="#fff" d="m227.518 567 5.148-6.858v.756l-4.932-6.588h2.196l3.816 5.256h-.576l3.78-5.256h2.214l-4.932 6.588v-.756L239.38 567h-2.214l-4.05-5.544h.666L229.714 567zm17.087.162q-1.35 0-2.34-.558a3.9 3.9 0 0 1-1.53-1.62q-.54-1.062-.54-2.52t.54-2.502q.54-1.062 1.53-1.62.99-.576 2.34-.576t2.34.576a3.74 3.74 0 0 1 1.548 1.62q.558 1.044.558 2.502t-.558 2.52a3.88 3.88 0 0 1-1.548 1.62q-.99.558-2.34.558m0-1.422q1.188 0 1.89-.828t.702-2.448-.702-2.43q-.702-.828-1.89-.828-1.17 0-1.872.828-.702.81-.702 2.43t.684 2.448q.702.828 1.89.828m12.489 1.26v-3.51q-.504.27-1.08.432a5 5 0 0 1-1.224.144q-1.962 0-2.916-.918-.936-.936-.936-2.79v-2.43h1.8v2.286q0 1.242.558 1.8t1.764.558q.612 0 1.08-.126.468-.144.918-.432v-4.086h1.818V567zm4.306 4.086-.432-1.476q.846-.18 1.404-.432.576-.252.954-.666a3.4 3.4 0 0 0 .648-1.026l.45-1.062-.036.738-3.942-9.234h1.944l3.06 7.56h-.486l3.06-7.56h1.872l-4.158 9.72a8 8 0 0 1-.846 1.512 4.5 4.5 0 0 1-.972.99q-.522.378-1.152.594t-1.368.342M276.259 567v-9.072h4.572q1.638 0 2.412.63.792.612.792 1.746 0 .882-.594 1.458-.576.576-1.53.702v-.234q1.134.054 1.782.666t.648 1.584q0 1.17-.882 1.854-.864.666-2.466.666zm1.71-1.17h2.88q.882 0 1.35-.36.468-.378.468-1.08t-.468-1.062-1.35-.36h-2.88zm0-4.032h2.682q.81 0 1.26-.36t.45-.99q0-.648-.45-.99-.45-.36-1.26-.36h-2.682zm12.57 5.364q-1.368 0-2.394-.558a3.97 3.97 0 0 1-1.566-1.638q-.54-1.08-.54-2.556 0-1.458.558-2.502a3.76 3.76 0 0 1 1.566-1.584q1.008-.558 2.376-.558.882 0 1.71.306.828.288 1.368.828l-.594 1.278a3.3 3.3 0 0 0-1.134-.72 3.3 3.3 0 0 0-1.224-.252q-1.296 0-2.034.828t-.738 2.394q0 1.584.738 2.43t2.034.846q.576 0 1.206-.216.63-.234 1.152-.738l.594 1.278q-.558.54-1.404.846a5 5 0 0 1-1.674.288m9.409 0q-2.196 0-3.456-1.242t-1.26-3.438q0-1.422.54-2.484a4.04 4.04 0 0 1 1.53-1.638q.99-.594 2.286-.594 1.278 0 2.142.54t1.314 1.53q.45.972.45 2.304v.576h-6.84v-1.044h5.598l-.306.234q0-1.35-.612-2.088-.594-.756-1.728-.756-1.26 0-1.944.882-.684.864-.684 2.394v.18q0 1.602.774 2.412.792.81 2.232.81.792 0 1.476-.216a4.1 4.1 0 0 0 1.332-.756l.594 1.242q-.63.558-1.53.864-.9.288-1.908.288m10.57-.162v-9.072h1.656v7.326h-.504l5.472-7.326h1.512V567h-1.638v-7.344h.522L312.03 567zm14.014.162a8.4 8.4 0 0 1-2.232-.288q-1.044-.306-1.71-.864l.558-1.224q.666.522 1.53.792a6.6 6.6 0 0 0 1.854.252q1.242 0 1.8-.36a1.2 1.2 0 0 0 .576-1.062q0-.666-.468-1.008t-1.368-.342h-2.232v-1.296h2.052q.81 0 1.26-.342t.45-.954q0-.648-.522-1.008t-1.62-.36q-.936 0-1.71.234a5.5 5.5 0 0 0-1.476.702l-.54-1.17a5 5 0 0 1 1.746-.828 8.4 8.4 0 0 1 2.178-.27q1.764 0 2.682.666.918.648.918 1.872 0 .846-.576 1.44-.558.594-1.512.72v-.234q1.098.054 1.746.666.666.594.666 1.584 0 1.224-1.044 1.962-1.026.72-3.006.72m5.968 3.924-.432-1.476q.846-.18 1.404-.432.576-.252.954-.666a3.4 3.4 0 0 0 .648-1.026l.45-1.062-.036.738-3.942-9.234h1.944l3.06 7.56h-.486l3.06-7.56h1.872l-4.158 9.72a8 8 0 0 1-.846 1.512 4.5 4.5 0 0 1-.972.99q-.522.378-1.152.594t-1.368.342M346.355 567v-3.51q-.504.27-1.08.432a5 5 0 0 1-1.224.144q-1.962 0-2.916-.918-.936-.936-.936-2.79v-2.43h1.8v2.286q0 1.242.558 1.8t1.764.558q.612 0 1.08-.126.468-.144.918-.432v-4.086h1.818V567zm4.505 0v-9.072h1.656v7.326h-.504l5.472-7.326h1.512V567h-1.638v-7.344h.522L352.372 567zm12.807 0v-7.614h-3.204v-1.458h8.226v1.458h-3.222V567zm6.476 0v-9.072h1.8v3.168h2.574q1.782 0 2.682.756.9.738.9 2.16 0 .918-.414 1.602-.414.666-1.224 1.026-.792.36-1.944.36zm1.8-1.242h2.376q1.008 0 1.548-.414.54-.432.54-1.314t-.54-1.278q-.522-.414-1.548-.414h-2.376zm8.418-2.268-.576-9.18h2.25l-.558 9.18zm-.522 3.51v-2.142h2.142V567z"/><rect width="479" height="33" x="43" y="40" fill="#5329FF" rx="8"/><circle cx="64.5" cy="56.5" r="12" fill="#9A81FF" opacity=".2"/><rect width="15" height="15" x="57" y="49" fill="#9A81FF" opacity=".4" rx="7.5"/><rect width="14.2" height="14.2" x="57.4" y="49.4" stroke="#9A81FF" rx="7.1"/><circle cx="64.6" cy="56.2" r="1.8" fill="#fff" stroke="#5030E5"/><path fill="#5329FF" d="M83.344 63V51.72H84.8l4.352 9.808h-.48l4.352-9.808h1.44V63H92.96v-9.024h.528L89.424 63h-1.04l-4.064-9.024h.544V63zm13.7 0v-8.064h1.6v2.816h2.288q1.584 0 2.384.672.8.655.8 1.92 0 .816-.368 1.424-.368.593-1.088.912-.704.32-1.728.32zm1.6-1.104h2.112q.912 0 1.376-.368.48-.384.48-1.168t-.48-1.136q-.464-.368-1.376-.368h-2.112zM105.252 63v-8.064h1.6V63zm8.277 0v-8.064h7.231V63h-1.599v-6.8h-4.032V63zm9.72 3.456v-9.584q0-.465-.048-.944-.032-.495-.08-.992h1.568l.16 1.824h-.176a2.52 2.52 0 0 1 1.024-1.44q.783-.528 1.856-.528 1.071 0 1.872.512.8.495 1.232 1.424.447.928.448 2.24 0 1.296-.448 2.24-.432.945-1.232 1.44-.801.495-1.872.496-1.056 0-1.84-.512a2.52 2.52 0 0 1-1.024-1.424h.176v5.248zm3.904-4.576q1.056 0 1.68-.736.64-.736.64-2.176t-.64-2.16q-.624-.735-1.68-.736-1.056 0-1.696.736-.624.72-.624 2.16t.624 2.176q.64.735 1.696.736m9.761 1.264q-1.951 0-3.072-1.104t-1.12-3.056q0-1.265.48-2.208a3.6 3.6 0 0 1 1.36-1.456q.88-.528 2.032-.528 1.137 0 1.904.48.768.48 1.168 1.36.4.864.4 2.048v.512h-6.08v-.928h4.976l-.272.208q0-1.2-.544-1.856-.528-.672-1.536-.672-1.119 0-1.728.784-.608.768-.608 2.128v.16q0 1.425.688 2.144.705.72 1.984.72.705 0 1.312-.192a3.7 3.7 0 0 0 1.184-.672l.528 1.104q-.56.496-1.36.768a5.5 5.5 0 0 1-1.696.256m4.33 1.936v-3.328h.896q.528-.8.768-1.872t.24-2.592v-2.352h5.904v6.816h1.296v3.328h-1.392V63h-6.32v2.08zm2.384-3.312h3.904v-5.584h-2.992v1.424q0 1.168-.24 2.288-.224 1.104-.672 1.872m7.986 1.44-.544-1.28q.545-.224.912-.56.384-.352.592-.896.224-.544.32-1.344t.096-1.936v-2.256h6.08V63h-1.6v-6.8h-2.992v1.04q0 1.824-.288 3.024t-.928 1.904q-.624.688-1.648 1.04m13.035-.064q-1.071 0-1.872-.496-.8-.495-1.248-1.44-.432-.944-.432-2.24 0-1.312.432-2.24.449-.928 1.248-1.424.801-.512 1.872-.512 1.057 0 1.84.528.785.528 1.04 1.44h-.176l.16-1.824h1.568l-.096.992q-.032.48-.032.944V63h-1.616v-1.792h.176a2.47 2.47 0 0 1-1.056 1.424q-.783.512-1.808.512m.4-1.264q1.04 0 1.664-.736.64-.736.64-2.176t-.64-2.16q-.624-.735-1.664-.736-1.056 0-1.696.736-.624.72-.624 2.16t.624 2.176q.625.735 1.696.736m6.386 1.12v-8.064h5.808v1.296h-4.192V63zm10.433.144q-1.072 0-1.872-.496-.8-.495-1.248-1.44-.432-.944-.432-2.24 0-1.312.432-2.24.449-.928 1.248-1.424.8-.512 1.872-.512 1.056 0 1.84.528t1.04 1.44h-.176l.16-1.824h1.568l-.096.992q-.032.48-.032.944V63h-1.616v-1.792h.176a2.48 2.48 0 0 1-1.056 1.424q-.784.512-1.808.512m.4-1.264q1.04 0 1.664-.736.64-.736.64-2.176t-.64-2.16q-.624-.735-1.664-.736-1.056 0-1.696.736-.624.72-.624 2.16t.624 2.176 1.696.736m10.178 1.264q-1.953 0-3.072-1.104-1.12-1.104-1.12-3.056 0-1.265.48-2.208.495-.945 1.36-1.456.88-.528 2.032-.528 1.136 0 1.904.48t1.168 1.36q.4.864.4 2.048v.512h-6.08v-.928h4.976l-.272.208q0-1.2-.544-1.856-.528-.672-1.537-.672-1.12 0-1.727.784-.609.768-.608 2.128v.16q0 1.425.688 2.144.703.72 1.984.72a4.3 4.3 0 0 0 1.312-.192q.624-.209 1.184-.672l.528 1.104a3.9 3.9 0 0 1-1.36.768 5.5 5.5 0 0 1-1.696.256m5.129-.144v-8.064h1.344l2.912 5.152 2.912-5.152h1.344V63h-1.424v-6.256h.352l-2.8 4.96h-.768l-2.8-4.96h.352V63zm14.868.208-.544-1.28q.543-.224.912-.56.384-.352.592-.896.224-.544.32-1.344t.096-1.936v-2.256h6.08V63h-1.6v-6.8h-2.992v1.04q0 1.824-.288 3.024-.289 1.2-.928 1.904-.624.688-1.648 1.04m9.706 3.424-.384-1.312a6.2 6.2 0 0 0 1.248-.384q.513-.225.848-.592.336-.352.576-.912l.4-.944-.032.656-3.504-8.208h1.728l2.72 6.72h-.432l2.72-6.72h1.664l-3.696 8.64a7 7 0 0 1-.752 1.344 4 4 0 0 1-.864.88q-.463.336-1.024.528t-1.216.304M236.243 63v-3.12q-.449.24-.96.384a4.5 4.5 0 0 1-1.088.128q-1.744 0-2.592-.816-.832-.832-.832-2.48v-2.16h1.6v2.032q0 1.105.496 1.6t1.568.496q.545 0 .96-.112.416-.127.816-.384v-3.632h1.616V63zm4.004 0v-8.064h1.52v6.8h3.152v-6.8h1.52v6.8h3.136v-6.8h1.536V63zm13.297 0v-8.064h1.472v6.512h-.448l4.864-6.512h1.344V63h-1.456v-6.528h.464L254.888 63zm13.448.144q-1.951 0-3.072-1.104t-1.12-3.056q0-1.265.48-2.208a3.6 3.6 0 0 1 1.36-1.456q.88-.528 2.032-.528 1.136 0 1.904.48.769.48 1.168 1.36.4.864.4 2.048v.512h-6.08v-.928h4.976l-.272.208q0-1.2-.544-1.856-.528-.672-1.536-.672-1.119 0-1.728.784-.608.768-.608 2.128v.16q0 1.425.688 2.144.705.72 1.984.72.705 0 1.312-.192a3.7 3.7 0 0 0 1.184-.672l.528 1.104q-.56.496-1.36.768a5.5 5.5 0 0 1-1.696.256m9.46 3.312v-9.584q0-.465-.048-.944-.032-.495-.08-.992h1.568l.16 1.824h-.176a2.52 2.52 0 0 1 1.024-1.44q.784-.528 1.856-.528t1.872.512q.8.495 1.232 1.424.448.928.448 2.24 0 1.296-.448 2.24-.432.945-1.232 1.44t-1.872.496q-1.056 0-1.84-.512a2.52 2.52 0 0 1-1.024-1.424h.176v5.248zm3.904-4.576q1.056 0 1.68-.736.64-.736.64-2.176t-.64-2.16q-.624-.735-1.68-.736-1.056 0-1.696.736-.624.72-.624 2.16t.624 2.176q.64.735 1.696.736m9.761 1.264q-1.951 0-3.072-1.104t-1.12-3.056q0-1.265.48-2.208a3.6 3.6 0 0 1 1.36-1.456q.88-.528 2.032-.528 1.136 0 1.904.48.769.48 1.168 1.36.4.864.4 2.048v.512h-6.08v-.928h4.976l-.272.208q0-1.2-.544-1.856-.528-.672-1.536-.672-1.119 0-1.728.784-.608.768-.608 2.128v.16q0 1.425.688 2.144.705.72 1.984.72.705 0 1.312-.192a3.7 3.7 0 0 0 1.184-.672l.528 1.104q-.56.496-1.36.768a5.5 5.5 0 0 1-1.696.256m5.13-.144v-8.064h1.52v6.8h3.152v-6.8h1.52v6.8h3.136v-6.8h1.536V63zm17.089.144q-1.952 0-3.072-1.104t-1.12-3.056q0-1.265.48-2.208a3.6 3.6 0 0 1 1.36-1.456q.88-.528 2.032-.528 1.136 0 1.904.48t1.168 1.36q.4.864.4 2.048v.512h-6.08v-.928h4.976l-.272.208q0-1.2-.544-1.856-.528-.672-1.536-.672-1.12 0-1.728.784-.608.768-.608 2.128v.16q0 1.425.688 2.144.704.72 1.984.72.704 0 1.312-.192a3.7 3.7 0 0 0 1.184-.672l.528 1.104a3.9 3.9 0 0 1-1.36.768 5.5 5.5 0 0 1-1.696.256m5.13-.144v-8.064h1.6v3.28h4.08v-3.28h1.6V63h-1.6v-3.52h-4.08V63zm9.719 0v-8.064h1.472v6.512h-.448l4.864-6.512h1.344V63h-1.456v-6.528h.464L328.529 63zm9 0 1.264-2.176q.304-.528.768-.848.48-.336.976-.336h.288l-.016.16q-1.376 0-2.144-.624t-.768-1.792.768-1.808 2.256-.64h3.776V63h-1.488v-2.992h-1.072q-.608 0-1.04.304-.416.305-.688.8L337.977 63zm3.68-4.08h2v-2.896h-2q-.895 0-1.344.384-.432.384-.432 1.056 0 .705.432 1.088.449.368 1.344.368m9.379 6.16v-3.328h.896q.528-.8.768-1.872t.24-2.592v-2.352h5.904v6.816h1.296v3.328h-1.392V63h-6.32v2.08zm2.384-3.312h3.904v-5.584h-2.992v1.424q0 1.168-.24 2.288-.224 1.104-.672 1.872m7.986 1.44-.544-1.28q.544-.224.912-.56.384-.352.592-.896.224-.544.32-1.344t.096-1.936v-2.256h6.08V63h-1.6v-6.8h-2.992v1.04q0 1.824-.288 3.024t-.928 1.904q-.624.688-1.648 1.04m9.227-.208 1.264-2.176q.304-.528.768-.848.48-.336.976-.336h.288l-.016.16q-1.376 0-2.144-.624t-.768-1.792.768-1.808 2.256-.64h3.776V63h-1.488v-2.992h-1.072q-.608 0-1.04.304-.415.305-.688.8L370.633 63zm3.68-4.08h2v-2.896h-2q-.896 0-1.344.384-.432.384-.432 1.056 0 .705.432 1.088.448.368 1.344.368M382.7 63v-8.064h4.064q1.457 0 2.144.56.704.544.704 1.552 0 .785-.528 1.296-.511.512-1.36.624v-.208q1.008.048 1.584.592t.576 1.408q0 1.04-.784 1.648-.767.592-2.192.592zm1.52-1.04h2.56q.785 0 1.2-.32.417-.336.416-.96 0-.623-.416-.944-.415-.32-1.2-.32h-2.56zm0-3.584h2.384q.72 0 1.12-.32t.4-.88q0-.576-.4-.88-.4-.32-1.12-.32h-2.384zm10.726 4.768q-1.072 0-1.872-.496-.8-.495-1.248-1.44-.432-.944-.432-2.24 0-1.312.432-2.24.448-.928 1.248-1.424.8-.512 1.872-.512 1.056 0 1.84.528t1.04 1.44h-.176l.16-1.824h1.568l-.096.992q-.032.48-.032.944V63h-1.616v-1.792h.176a2.48 2.48 0 0 1-1.056 1.424q-.784.512-1.808.512m.4-1.264q1.04 0 1.664-.736.64-.736.64-2.176t-.64-2.16q-.624-.735-1.664-.736-1.056 0-1.696.736-.624.72-.624 2.16t.624 2.176 1.696.736m6.386 1.12v-8.064h1.52v6.8h3.152v-6.8h1.52v6.8h3.136v-6.8h1.536V63zm17.089.144q-1.953 0-3.072-1.104-1.12-1.104-1.12-3.056 0-1.265.48-2.208.495-.945 1.36-1.456.88-.528 2.032-.528 1.136 0 1.904.48t1.168 1.36q.4.864.4 2.048v.512h-6.08v-.928h4.976l-.272.208q0-1.2-.544-1.856-.528-.672-1.537-.672-1.12 0-1.727.784-.609.768-.608 2.128v.16q0 1.425.688 2.144.703.72 1.984.72a4.3 4.3 0 0 0 1.312-.192q.623-.209 1.184-.672l.528 1.104a3.9 3.9 0 0 1-1.36.768 5.5 5.5 0 0 1-1.696.256M423.95 63v-8.064h5.808v1.296h-4.192V63zm10.802.144q-1.2 0-2.08-.496a3.47 3.47 0 0 1-1.36-1.44q-.48-.944-.48-2.24t.48-2.224a3.35 3.35 0 0 1 1.36-1.44q.88-.512 2.08-.512t2.08.512q.896.495 1.376 1.44.495.928.496 2.224 0 1.296-.496 2.24a3.45 3.45 0 0 1-1.376 1.44q-.88.495-2.08.496m0-1.264q1.056 0 1.68-.736t.624-2.176-.624-2.16q-.624-.735-1.68-.736-1.04 0-1.664.736-.624.72-.624 2.16t.608 2.176q.624.735 1.68.736m13.798 1.264q-1.824 0-2.912-1.136-1.072-1.136-1.072-3.344v-1.392q0-2.256.96-3.632.976-1.376 3.008-1.856l2.944-.704.464 1.296-3.296.768q-.864.192-1.424.72a3.5 3.5 0 0 0-.848 1.248q-.272.72-.272 1.536v.736h-.24q.192-.736.608-1.248.432-.528 1.056-.816a3.3 3.3 0 0 1 1.424-.304q1.04 0 1.824.48t1.216 1.392q.448.896.448 2.128 0 1.28-.48 2.208a3.37 3.37 0 0 1-1.36 1.424q-.864.495-2.048.496m-.048-1.248q1.088 0 1.696-.704.624-.72.624-2.112 0-1.376-.624-2.096t-1.696-.72-1.696.72q-.624.704-.624 2.016 0 1.44.608 2.176.624.72 1.712.72M454.45 63v-8.064h1.472v6.512h-.448l4.864-6.512h1.344V63h-1.456v-6.528h.464L455.794 63zm12.457.144a7.4 7.4 0 0 1-1.984-.256q-.929-.271-1.52-.768l.496-1.088q.591.465 1.36.704a5.9 5.9 0 0 0 1.648.224q1.104 0 1.6-.32.512-.336.512-.944 0-.592-.416-.896-.417-.304-1.216-.304h-1.984v-1.152h1.824q.72 0 1.12-.304t.4-.848q0-.576-.464-.896-.465-.32-1.44-.32-.833 0-1.52.208a5 5 0 0 0-1.312.624l-.48-1.04q.655-.495 1.552-.736a7.5 7.5 0 0 1 1.936-.24q1.568 0 2.384.592.816.576.816 1.664 0 .752-.512 1.28-.496.528-1.344.64v-.208q.976.048 1.552.592.591.528.592 1.408 0 1.088-.928 1.744-.912.64-2.672.64m5.481-.144v-8.064h1.6v3.28h4.08v-3.28h1.6V63h-1.6v-3.52h-4.08V63zm13.511.144q-1.953 0-3.072-1.104-1.12-1.104-1.12-3.056 0-1.265.48-2.208.495-.945 1.36-1.456.88-.528 2.032-.528 1.136 0 1.904.48t1.168 1.36q.4.864.4 2.048v.512h-6.08v-.928h4.976l-.272.208q0-1.2-.544-1.856-.528-.672-1.536-.672-1.12 0-1.728.784-.608.768-.608 2.128v.16q0 1.425.688 2.144.703.72 1.984.72a4.3 4.3 0 0 0 1.312-.192q.623-.209 1.184-.672l.528 1.104a3.9 3.9 0 0 1-1.36.768 5.5 5.5 0 0 1-1.696.256m8.73 0q-1.216 0-2.128-.496a3.5 3.5 0 0 1-1.392-1.456q-.48-.96-.48-2.272 0-1.296.496-2.224a3.34 3.34 0 0 1 1.392-1.408q.895-.496 2.112-.496.783 0 1.52.272.736.256 1.216.736l-.528 1.136a2.9 2.9 0 0 0-1.008-.64 2.9 2.9 0 0 0-1.088-.224q-1.152 0-1.808.736t-.656 2.128q0 1.408.656 2.16t1.808.752q.511 0 1.072-.192a2.95 2.95 0 0 0 1.024-.656l.528 1.136a3.5 3.5 0 0 1-1.248.752q-.737.255-1.488.256m7.723 0q-1.071 0-1.872-.496-.8-.495-1.248-1.44-.432-.944-.432-2.24 0-1.312.432-2.24.448-.928 1.248-1.424.801-.512 1.872-.512 1.056 0 1.84.528.785.528 1.04 1.44h-.176l.16-1.824h1.568l-.096.992q-.032.48-.032.944V63h-1.616v-1.792h.176a2.47 2.47 0 0 1-1.056 1.424q-.783.512-1.808.512m.4-1.264q1.04 0 1.664-.736.64-.736.64-2.176t-.64-2.16q-.623-.735-1.664-.736-1.056 0-1.696.736-.624.72-.624 2.16t.624 2.176q.625.735 1.696.736"/><g filter="url(#a)"><rect width="525" height="121" x="43" y="386" fill="#fff" rx="8"/></g><path fill="#8C8C8C" d="M67.376 420v-11.28h9.52V420h-1.472v-10.032h-6.576V420zm12.186 3.456v-9.6a14 14 0 0 0-.128-1.904h1.408l.176 1.856h-.176a2.43 2.43 0 0 1 1.024-1.456q.783-.544 1.872-.544 1.071 0 1.872.496.8.496 1.232 1.44.447.928.448 2.224 0 1.296-.448 2.24-.432.944-1.232 1.44-.801.496-1.872.496-1.073 0-1.856-.528a2.67 2.67 0 0 1-1.04-1.456h.176v5.296zm3.84-4.464q1.103 0 1.76-.768.656-.768.656-2.256t-.656-2.24q-.657-.752-1.76-.752-1.104 0-1.76.752-.64.752-.64 2.24t.64 2.256q.656.768 1.76.768m9.411 1.152q-1.184 0-2.048-.496a3.5 3.5 0 0 1-1.344-1.44q-.48-.944-.48-2.24 0-1.28.48-2.208a3.4 3.4 0 0 1 1.344-1.44q.864-.512 2.048-.512t2.048.512a3.26 3.26 0 0 1 1.344 1.44q.48.929.48 2.208 0 1.296-.48 2.24a3.37 3.37 0 0 1-1.344 1.44q-.864.496-2.048.496m0-1.152q1.088 0 1.744-.768t.656-2.256-.656-2.24-1.744-.752q-1.104 0-1.76.752-.64.752-.64 2.24t.64 2.256q.656.768 1.76.768m5.119 3.088v-3.216h.88q.543-.816.784-1.92.255-1.104.256-2.624v-2.368h5.776v6.912h1.28v3.216h-1.248V420h-6.464v2.08zm2.256-3.2h4.08v-5.808h-3.136v1.504q0 1.216-.24 2.368-.24 1.136-.704 1.936m11.524 1.264q-1.056 0-1.856-.496-.801-.496-1.248-1.44-.448-.944-.448-2.24t.448-2.224q.447-.943 1.248-1.44.8-.496 1.856-.496 1.071 0 1.856.544.8.528 1.056 1.456h-.192l.176-1.856h1.408l-.096.96q-.033.48-.032.944V420h-1.456v-1.84h.176a2.55 2.55 0 0 1-1.056 1.456q-.784.528-1.84.528m.336-1.152q1.087 0 1.744-.768.656-.768.656-2.256t-.656-2.24q-.657-.752-1.744-.752-1.088 0-1.76.752-.657.752-.656 2.24 0 1.488.656 2.256t1.76.768m5.155 1.008 1.664-2.864q.367-.592.672-.944.304-.352.64-.528.352-.192.816-.24l-.352.448-3.056-3.92h1.6l2.608 3.328h1.232v-3.328h1.44v3.328h1.216l2.592-3.328h1.616l-3.056 3.92-.368-.448q.464.048.8.24.352.176.672.528t.672.944l1.664 2.864h-1.552l-1.456-2.48a3.4 3.4 0 0 0-.496-.672 1.3 1.3 0 0 0-.544-.336 2.4 2.4 0 0 0-.736-.096h-1.024V420h-1.44v-3.584h-1.04q-.448 0-.752.096a1.35 1.35 0 0 0-.528.336 4.6 4.6 0 0 0-.496.672l-1.44 2.48zm14.326 0v-8.048h1.328v6.672h-.432l4.992-6.672h1.216V420h-1.328v-6.688h.448L132.745 420zm16.549.144q-1.056 0-1.968-.272-.913-.272-1.504-.768l.48-1.008q.591.48 1.344.72.751.24 1.632.24 1.151 0 1.664-.336.528-.353.528-1.008 0-.624-.432-.944-.433-.32-1.264-.32h-1.952v-1.056h1.776q.751 0 1.168-.32.432-.336.432-.912 0-.592-.48-.928-.48-.352-1.472-.352a4.9 4.9 0 0 0-2.832.864l-.464-.944a4.3 4.3 0 0 1 1.536-.752 7.3 7.3 0 0 1 1.92-.24q1.52 0 2.32.592.816.576.816 1.648 0 .751-.512 1.296-.513.528-1.36.64v-.208q.96.048 1.552.592.592.528.592 1.408 0 1.072-.896 1.728-.897.64-2.624.64m8.587 0q-1.056 0-1.856-.496t-1.248-1.44-.448-2.24.448-2.224q.448-.943 1.248-1.44.8-.496 1.856-.496 1.072 0 1.856.544.8.528 1.056 1.456h-.192l.176-1.856h1.408l-.096.96q-.032.48-.032.944V420h-1.456v-1.84h.176a2.55 2.55 0 0 1-1.056 1.456q-.784.528-1.84.528m.336-1.152q1.088 0 1.744-.768t.656-2.256-.656-2.24-1.744-.752-1.76.752q-.656.752-.656 2.24t.656 2.256 1.76.768M167.623 420v-8.048h1.44v3.328h4.256v-3.328h1.44V420h-1.44v-3.568h-4.256V420zm13.337.144q-1.92 0-3.04-1.104-1.104-1.104-1.104-3.04 0-1.28.48-2.208a3.6 3.6 0 0 1 1.36-1.456q.864-.528 2.016-.528 1.104 0 1.872.48a2.96 2.96 0 0 1 1.168 1.328q.4.864.4 2.048v.48h-6.16v-.864h5.168l-.272.208q0-1.248-.56-1.936-.544-.688-1.616-.688-1.168 0-1.808.816-.64.8-.64 2.192v.144q0 1.472.72 2.224.736.752 2.032.752.72 0 1.344-.208a3.7 3.7 0 0 0 1.2-.688l.48 1.008q-.544.497-1.36.768a5.2 5.2 0 0 1-1.68.272m4.347 1.936v-3.216h.88q.543-.816.784-1.92.256-1.104.256-2.624v-2.368h5.776v6.912h1.28v3.216h-1.248V420h-6.464v2.08zm2.256-3.2h4.08v-5.808h-3.136v1.504q0 1.216-.24 2.368-.24 1.136-.704 1.936m12.116 1.264q-1.92 0-3.04-1.104-1.104-1.104-1.104-3.04 0-1.28.48-2.208a3.6 3.6 0 0 1 1.36-1.456q.864-.528 2.016-.528 1.104 0 1.872.48a2.96 2.96 0 0 1 1.168 1.328q.4.864.4 2.048v.48h-6.16v-.864h5.168l-.272.208q0-1.248-.56-1.936-.545-.688-1.616-.688-1.169 0-1.808.816-.64.8-.64 2.192v.144q0 1.472.72 2.224.736.752 2.032.752.72 0 1.344-.208a3.7 3.7 0 0 0 1.2-.688l.48 1.008q-.544.497-1.36.768a5.2 5.2 0 0 1-1.68.272m4.794.048-.512-1.136q.56-.256.928-.608.385-.368.592-.928.225-.56.32-1.392.096-.832.096-2.016v-2.16h5.936V420h-1.44v-6.912h-3.152v1.056q0 1.856-.288 3.072-.271 1.2-.88 1.904-.591.704-1.6 1.072m16.669-.048q-1.648 0-2.672-.976-1.008-.991-1.152-2.736h-1.568V420h-1.424v-8.048h1.424v3.328h1.584q.208-1.632 1.216-2.544 1.008-.928 2.592-.928 1.184 0 2.048.496.88.496 1.36 1.44.48.928.48 2.224t-.48 2.24a3.47 3.47 0 0 1-1.36 1.44q-.864.496-2.048.496m0-1.152q1.104 0 1.76-.752.656-.768.656-2.272 0-1.488-.656-2.24-.656-.768-1.76-.768t-1.76.768q-.656.752-.656 2.24 0 1.504.656 2.272.656.752 1.76.752"/><path fill="#1A1A1A" d="M67.998 458v-1.926h2.916v-8.82h1.116l-3.744 2.232v-2.196l3.294-1.98h1.656v10.764h2.736V458zm13.241.18a5.8 5.8 0 0 1-2.034-.378 5.5 5.5 0 0 1-1.728-1.062l.774-1.728a4.7 4.7 0 0 0 1.44.918 4.2 4.2 0 0 0 1.566.306q1.602 0 2.448-1.098.864-1.098.864-3.276v-1.35h.216a3.4 3.4 0 0 1-.612 1.566 3.27 3.27 0 0 1-1.224 1.026 3.7 3.7 0 0 1-1.62.342 3.8 3.8 0 0 1-1.98-.522 3.76 3.76 0 0 1-1.368-1.44q-.486-.936-.486-2.106 0-1.242.54-2.196a4 4 0 0 1 1.512-1.494q.954-.558 2.196-.558 2.412 0 3.708 1.656 1.314 1.638 1.314 4.644 0 2.142-.666 3.654-.648 1.512-1.89 2.304t-2.97.792m.648-6.57q.666 0 1.17-.288t.792-.81a2.56 2.56 0 0 0 .288-1.224q0-.702-.288-1.224a2.06 2.06 0 0 0-.792-.81 2.2 2.2 0 0 0-1.17-.306 2.2 2.2 0 0 0-1.17.306q-.504.288-.792.81-.27.522-.27 1.224 0 .684.27 1.224.288.522.792.81t1.17.288m11.099 6.57q-2.232 0-3.492-.954-1.242-.954-1.242-2.646 0-1.332.81-2.214t2.106-1.044v.378q-1.17-.252-1.89-1.098-.702-.846-.702-2.052 0-1.602 1.17-2.502 1.188-.918 3.24-.918 2.07 0 3.24.918 1.188.9 1.188 2.502 0 1.206-.684 2.07-.666.864-1.818 1.062v-.36q1.278.18 2.052 1.062.774.864.774 2.196 0 1.692-1.26 2.646-1.242.954-3.492.954m0-1.8q1.314 0 1.962-.486.648-.504.648-1.476t-.648-1.458-1.962-.486q-1.296 0-1.962.486-.648.486-.648 1.458t.648 1.476q.666.486 1.962.486m0-5.706q1.116 0 1.692-.504.594-.504.594-1.386 0-.864-.594-1.35-.576-.504-1.692-.504-1.098 0-1.692.504-.576.486-.576 1.35 0 .882.576 1.386.594.504 1.692.504m15.534 7.506a8.4 8.4 0 0 1-2.52-.378q-1.206-.396-1.98-1.08l.756-1.746q.846.648 1.746.954a6 6 0 0 0 1.926.306q1.224 0 1.854-.486t.63-1.422q0-.9-.63-1.35-.612-.468-1.8-.468h-2.052v-1.854h1.854q1.026 0 1.638-.504t.612-1.386q0-.828-.576-1.26-.558-.432-1.62-.432-1.908 0-3.366 1.296l-.756-1.728q.774-.72 1.908-1.116a7.4 7.4 0 0 1 2.412-.396q1.98 0 3.096.9 1.134.882 1.134 2.466 0 1.134-.648 1.962-.63.81-1.746 1.08v-.216q1.314.216 2.034 1.08.738.846.738 2.124 0 1.692-1.242 2.682-1.242.972-3.402.972m7.139-.18 6.156-11.556v.81h-6.732v-1.944h8.874v1.728L118.197 458zm14.645.18q-2.232 0-3.492-.954-1.242-.954-1.242-2.646 0-1.332.81-2.214t2.106-1.044v.378q-1.17-.252-1.89-1.098-.702-.846-.702-2.052 0-1.602 1.17-2.502 1.188-.918 3.24-.918 2.07 0 3.24.918 1.188.9 1.188 2.502 0 1.206-.684 2.07-.666.864-1.818 1.062v-.36q1.278.18 2.052 1.062.774.864.774 2.196 0 1.692-1.26 2.646-1.242.954-3.492.954m0-1.8q1.314 0 1.962-.486.648-.504.648-1.476t-.648-1.458-1.962-.486q-1.296 0-1.962.486-.648.486-.648 1.458t.648 1.476q.666.486 1.962.486m0-5.706q1.116 0 1.692-.504.594-.504.594-1.386 0-.864-.594-1.35-.576-.504-1.692-.504-1.098 0-1.692.504-.576.486-.576 1.35 0 .882.576 1.386.594.504 1.692.504m7.463 9.72-.918-.72q.576-.594.792-1.116.234-.504.234-1.08l.486.522h-1.692v-2.502h2.52v1.656q0 .918-.324 1.674-.306.774-1.098 1.566M141.71 458l6.156-11.556v.81h-6.732v-1.944h8.874v1.728L144.248 458zm14.645.18q-2.232 0-3.492-.954-1.242-.954-1.242-2.646 0-1.332.81-2.214t2.106-1.044v.378q-1.17-.252-1.89-1.098-.702-.846-.702-2.052 0-1.602 1.17-2.502 1.188-.918 3.24-.918 2.07 0 3.24.918 1.188.9 1.188 2.502 0 1.206-.684 2.07-.666.864-1.818 1.062v-.36q1.278.18 2.052 1.062.774.864.774 2.196 0 1.692-1.26 2.646-1.242.954-3.492.954m0-1.8q1.314 0 1.962-.486.648-.504.648-1.476t-.648-1.458-1.962-.486q-1.296 0-1.962.486-.648.486-.648 1.458t.648 1.476q.666.486 1.962.486m0-5.706q1.116 0 1.692-.504.594-.504.594-1.386 0-.864-.594-1.35-.576-.504-1.692-.504-1.098 0-1.692.504-.576.486-.576 1.35 0 .882.576 1.386.594.504 1.692.504M168.56 458v-2.628h-1.53v-1.332h1.53v-1.476h-1.53v-1.332h1.53v-5.922h4.302q1.386 0 2.34.468.972.468 1.458 1.296.504.828.504 1.944t-.504 1.908-1.44 1.224q-.936.414-2.268.414h-2.07v1.476h2.898v1.332h-2.898V458zm2.286-6.768h1.782q1.17 0 1.782-.522.63-.522.63-1.584 0-1.08-.63-1.584-.612-.522-1.782-.522h-1.782z"/><path fill="#00B69B" d="m80 474 2.29 2.29-4.88 4.88-4-4-7.41 7.42 1.41 1.41 6-6 4 4 6.3-6.29L86 480v-6zM95.68 485v-1.218h2.296v-7.42h.728l-2.8 1.708v-1.4l2.478-1.54h1.05v8.652h2.156V485zm11.923 0v-2.044h-4.564v-1.036l4.802-6.79h1.176v6.692h1.47v1.134h-1.47V485zm0-3.178v-4.97h.322l-3.752 5.32v-.35zm7.484 3.178h-1.232l5.852-9.87h1.232zm-1.162-3.962q-1.162 0-1.834-.798-.658-.812-.658-2.226 0-1.428.672-2.212.672-.798 1.82-.798 1.162 0 1.82.812.658.798.658 2.198 0 1.414-.658 2.226-.658.798-1.82.798m0-.952q.602 0 .938-.504.35-.518.35-1.568 0-1.063-.35-1.554a1.07 1.07 0 0 0-.938-.504 1.1 1.1 0 0 0-.952.504q-.336.49-.336 1.554t.336 1.568a1.1 1.1 0 0 0 .952.504m6.944 5.04q-1.162 0-1.82-.798-.658-.812-.658-2.226 0-1.428.658-2.212.672-.798 1.82-.798 1.162 0 1.82.812.658.798.658 2.198 0 1.414-.658 2.226-.658.798-1.82.798m0-.952q.602 0 .938-.504.35-.504.35-1.568 0-1.063-.35-1.554a1.07 1.07 0 0 0-.938-.504 1.1 1.1 0 0 0-.952.504q-.336.49-.336 1.554t.336 1.568a1.1 1.1 0 0 0 .952.504"/><path stroke="#00B69B" d="M266 470.808c9.199-2.814 13.891 10.192 23.861 10.192h25.85c12.853 0 14.767-7.224 42.421-7.224 27.653 0 15.257-34.977 41.094-34.977s38.444-16.974 49.712-16.974c14.56 0 15.929 4.013 30.489 4.013 12.594 0 18.559-7.84 32.155-7.84C525.035 417.998 527.15 400 553 400"/><path fill="url(#b)" d="M289.861 481c-9.97 0-14.662-13.006-23.861-10.192V493h287v-93c-25.85 0-27.965 17.998-41.418 17.998-13.596 0-19.561 7.84-32.155 7.84-14.56 0-15.929-4.013-30.489-4.013-11.268 0-23.875 16.974-49.712 16.974s-13.441 34.977-41.094 34.977c-27.654 0-29.568 7.224-42.421 7.224z"/><defs><linearGradient id="b" x1="410.058" x2="409.611" y1="388.5" y2="493" gradientUnits="userSpaceOnUse"><stop stop-color="#00B69B"/><stop offset="1" stop-color="#00B69B" stop-opacity="0"/></linearGradient><filter id="a" width="545" height="141" x="33" y="386" filterUnits="userSpaceOnUse"><feFlood result="BackgroundImageFix"/><feColorMatrix in="SourceAlpha" result="hardAlpha" values="0 0 0 0 0 0 0 0 0 0 0 0 0 0 0 0 0 0 127 0"/><feOffset dy="10"/><feGaussianBlur stdDeviation="5"/><feComposite in2="hardAlpha" operator="out"/><feColorMatrix values="0 0 0 0 0 0 0 0 0 0 0 0 0 0 0 0 0 0 0.05 0"/><feBlend in2="BackgroundImageFix" result="effect1_dropShadow_44_4036"/><feBlend in="SourceGraphic" in2="effect1_dropShadow_44_4036" result="shape"/></filter></defs></svg>