<svg xmlns="http://www.w3.org/2000/svg" width="30" height="30" fill="none"><path fill="#5329FF" fill-rule="evenodd" d="M8.415 2.5A2.5 2.5 0 0 0 7.5 5.915l11.25 19.486a2.5 2.5 0 0 0 4.33-2.5L11.83 3.415A2.5 2.5 0 0 0 8.415 2.5m2.576 3.213-.785-1.36a.625.625 0 1 0-1.082.625l.825 1.43zm.94 1.627-1.042.695 9.485 16.428a.625.625 0 0 0 1.082-.625zM19.668 3.14c-.316-.853-1.52-.853-1.836 0l-.436 1.178a.98.98 0 0 1-.578.578l-1.18.437c-.851.315-.851 1.52 0 1.835l1.18.436c.268.1.479.31.578.578l.436 1.18c.316.851 1.52.851 1.836 0l.436-1.18c.099-.268.31-.479.578-.578l1.18-.436c.851-.315.851-1.52 0-1.835l-1.18-.437a.98.98 0 0 1-.578-.578zm-.918 2.566q-.236.309-.545.544.31.236.545.545.236-.31.545-.545a2.9 2.9 0 0 1-.545-.544M7.168 9.39c-.316-.853-1.52-.853-1.836 0l-.436 1.178a.98.98 0 0 1-.578.578l-1.18.437c-.851.315-.851 1.52 0 1.835l1.18.436c.268.1.479.31.578.578l.436 1.18c.316.851 1.52.851 1.836 0l.436-1.18c.099-.268.31-.479.578-.578l1.18-.436c.851-.315.851-1.52 0-1.835l-1.18-.437a.98.98 0 0 1-.578-.578zm-.918 2.566q-.236.309-.545.544.31.236.545.545.236-.31.545-.545a2.9 2.9 0 0 1-.545-.544M22.832 11.89c.316-.853 1.52-.853 1.836 0l.436 1.178c.099.268.31.48.578.578l1.18.437c.851.315.851 1.52 0 1.835l-1.18.436a.98.98 0 0 0-.578.578l-.436 1.18c-.316.851-1.52.851-1.836 0l-.436-1.18a.98.98 0 0 0-.578-.578l-1.18-.436c-.851-.315-.851-1.52 0-1.835l1.18-.437c.268-.099.479-.31.578-.578zm.373 3.11q.31-.236.545-.544.236.309.545.544-.31.236-.545.545a2.9 2.9 0 0 0-.545-.545" clip-rule="evenodd"/></svg>