<svg xmlns="http://www.w3.org/2000/svg" width="239" height="370" fill="none"><rect width="238" height="370" x=".61" fill="#F7F7F7" rx="20"/><rect width="117" height="75" x="-14.39" y="364.18" fill="#1A1A1A" rx="10" transform="rotate(-70.34 -14.39 364.18)"/><path fill="#fff" d="m43.028 363.969-24.415-23.861 1.91-5.345 34.066-3.155-2.338 6.547-9.38.62 2.685-1.891-6.203 17.362-.864-3.206 6.863 6.424zm-16.673-24.085 10.77 9.874-1.974.557 4.663-13.052 1.234 1.515-14.633.94zm29.134-10.795-29.211-10.436 4.87-13.632q1.761-4.93 5.067-6.6 3.28-1.725 7.424-.245 4.101 1.465 5.628 4.908 1.5 3.387-.26 8.317l-2.562 7.168 11.353 4.056zm-14.057-12.311 2.264-6.339q.83-2.32.193-3.81-.621-1.53-2.486-2.196t-3.273.139q-1.436.748-2.265 3.069L33.6 313.98zm24.046-15.649-29.211-10.437 2.309-6.463 29.212 10.436z"/><rect width="117" height="75" x="148.808" y="215" fill="#4092F7" rx="10" transform="rotate(19.631 148.808 215)"/><path fill="#fff" d="m149.047 272.418 23.849-24.428 5.346 1.907 3.171 34.066-6.547-2.336-.626-9.379 1.893 2.684-17.365-6.194 3.205-.866-6.42 6.867zm24.077-16.685-9.87 10.774-.557-1.973 13.055 4.656-1.515 1.235-.947-14.633zm10.809 29.129 10.421-29.217 13.635 4.863q4.932 1.76 6.602 5.064 1.727 3.28.249 7.423-1.464 4.104-4.905 5.632-3.386 1.501-8.317-.257l-7.17-2.558-4.05 11.356zm12.304-14.064 6.34 2.261q2.321.828 3.81.191 1.53-.621 2.195-2.487.665-1.864-.14-3.273-.75-1.435-3.071-2.263l-6.34-2.262zm15.661 24.039 10.422-29.217 6.465 2.306-10.422 29.217z"/><rect width="117" height="75" x="128.61" y="329.092" fill="#F0AD00" rx="10" transform="rotate(-26.986 128.61 329.092)"/><path fill="#fff" d="m170.506 368.356-1.373-34.111 5.058-2.576 26.937 21.094-6.195 3.154-7.246-5.987 3.25.468-16.428 8.365 1.572-2.923.581 9.382zm4.411-28.959 1.052 14.574-1.818-.951 12.351-6.289-.143 1.949-11.285-9.363zm28.594 12.152-14.076-27.642 12.9-6.569q4.666-2.376 8.216-1.32 3.569.996 5.565 4.918 1.977 3.882.724 7.433-1.233 3.492-5.9 5.868l-6.783 3.454 5.471 10.743zm-1.77-18.602 5.999-3.055q2.196-1.119 2.756-2.638.599-1.539-.3-3.303-.898-1.765-2.476-2.147-1.558-.44-3.753.677l-5.999 3.055zm28.229 5.129-14.076-27.643 6.116-3.115 14.076 27.643z"/><rect width="117" height="75" x="54.61" y="315.566" fill="#5329FF" rx="10" transform="rotate(-11.12 54.61 315.566)"/><path fill="#fff" d="m84.174 364.788 8.006-33.187 5.57-1.095 20.143 27.654-6.821 1.341-5.333-7.741 2.998 1.339-18.09 3.556 2.312-2.383-2.006 9.183zm12.16-26.65-2.972 14.306-1.488-1.412 13.6-2.673-.671 1.836-8.296-12.091zm24.184 19.506-5.983-30.437 14.204-2.792q5.138-1.01 8.264.976 3.16 1.935 4.009 6.252.84 4.275-1.336 7.348-2.142 3.021-7.279 4.031l-7.469 1.469 2.325 11.829zm3.383-18.377 6.605-1.299q2.418-.475 3.372-1.784.996-1.317.614-3.259-.381-1.943-1.794-2.742-1.378-.85-3.796-.375l-6.605 1.299zm25.751 12.651-5.983-30.438 6.735-1.324 5.983 30.438z"/><rect width="117" height="75" x="-24.39" y="108.599" fill="#4092F7" rx="10" transform="rotate(-31.194 -24.39 108.599)"/><path fill="#fff" d="m20.274 144.683-3.872-33.919 4.855-2.939 28.412 19.06-5.947 3.6-7.666-5.44 3.276.229-15.77 9.548 1.354-3.031 1.267 9.314zm2.274-29.204 2.119 14.457-1.883-.815 11.856-7.179v1.955l-11.941-8.51zm29.41 10.02L35.89 98.964l12.383-7.497q4.48-2.712 8.096-1.92 3.633.734 5.912 4.497 2.257 3.726 1.267 7.36-.974 3.573-5.453 6.285l-6.511 3.942 6.244 10.313zm-3.13-18.422 5.758-3.487q2.107-1.276 2.554-2.832.484-1.58-.541-3.273-1.026-1.693-2.627-1.959-1.586-.325-3.693.95l-5.76 3.487zm28.528 3.044L61.289 83.586l5.872-3.555 16.066 26.535z"/><rect width="117" height="75" x="22.185" y="128" fill="#1A1A1A" rx="10" transform="rotate(10.426 22.185 128)"/><path fill="#fff" d="m31.606 184.64 19.635-27.928 5.582 1.027 8.58 33.12-6.837-1.258-2.118-9.158 2.297 2.346-18.131-3.336 3.025-1.367-5.239 7.804zm21.098-20.321-8.019 12.214-.865-1.859 13.63 2.508-1.297 1.461-3.276-14.292zm15.33 27.024 5.613-30.508 14.237 2.62q5.15.948 7.328 3.943 2.229 2.96 1.432 7.288-.788 4.284-3.94 6.343-3.102 2.024-8.252 1.077l-7.486-1.378-2.182 11.857zm9.895-15.851 6.621 1.218q2.424.447 3.791-.421 1.41-.858 1.77-2.806.357-1.947-.663-3.209-.969-1.296-3.393-1.742l-6.62-1.219zm19.306 21.224 5.613-30.508 6.751 1.243-5.614 30.507z"/><rect width="117" height="75" x="27.689" y="-82" fill="#1A1A1A" rx="10" transform="rotate(27.886 27.689 -82)"/><path fill="#fff" d="m19.681-25.142 27.11-20.75 5.016 2.654L50.055-9.07l-6.145-3.252.728-9.371 1.488 2.927-16.296-8.623 3.296-.396-7.339 5.873zm26.223-13.056L34.59-28.952l-.268-2.033 12.25 6.482-1.676 1.005 1.164-14.617zM52.42-7.819l14.509-27.418 12.795 6.77q4.627 2.45 5.806 5.96 1.24 3.494-.82 7.382-2.037 3.85-5.662 4.87-3.566 1-8.194-1.45l-6.728-3.56-5.639 10.656zm14.196-12.152 5.95 3.15q2.178 1.152 3.743.735 1.603-.396 2.53-2.146t.33-3.26q-.535-1.527-2.713-2.68l-5.95-3.149zM78.663 6.069 93.17-21.35l6.067 3.21L84.73 9.278z"/><rect width="117" height="75" x="72.856" y="215" fill="#F0AD00" rx="10" transform="rotate(26.313 72.856 215)"/><path fill="#fff" d="m66.414 272.056 26.529-21.487 5.088 2.516-.814 34.203-6.231-3.081.47-9.388 1.567 2.885-16.526-8.172 3.284-.487-7.175 6.073zm25.855-13.77-11.057 9.553-.323-2.026 12.424 6.144-1.649 1.05.762-14.643zm7.346 30.188 13.75-27.806 12.976 6.417q4.694 2.32 5.968 5.798 1.334 3.457-.616 7.402-1.932 3.905-5.527 5.022-3.537 1.098-8.231-1.223l-6.823-3.374-5.344 10.807zm13.857-12.537 6.034 2.985q2.209 1.092 3.761.632 1.593-.44 2.47-2.214.878-1.776.241-3.268-.576-1.512-2.786-2.605l-6.034-2.984zm12.758 25.698 13.75-27.806 6.153 3.043-13.75 27.806z"/><rect width="117" height="75" x="123.61" y="61.957" fill="#F0AD00" rx="10" transform="rotate(-19.449 123.61 61.957)"/><path fill="#fff" d="m159.993 106.378 3.114-33.997 5.352-1.89 23.937 24.444-6.555 2.315-6.398-6.886 3.161.89-17.384 6.138 1.942-2.692-.655 9.377zm8.172-28.13-.869 14.585-1.677-1.181 13.069-4.615-.398 1.914-9.959-10.762zm26.753 15.797-10.328-29.25 13.65-4.82q4.937-1.744 8.317-.23 3.408 1.456 4.873 5.605 1.45 4.107-.258 7.463-1.68 3.3-6.618 5.044l-7.178 2.534 4.015 11.368zm.686-18.674 6.347-2.241q2.323-.82 3.078-2.254.795-1.448.136-3.314-.66-1.867-2.173-2.453-1.487-.641-3.81.18l-6.347 2.24zm27.311 8.788-10.328-29.25 6.472-2.286 10.329 29.25z"/><rect width="117" height="75" x="11.071" y="181" fill="#5329FF" rx="10" transform="rotate(48.834 11.071 181)"/><path fill="#fff" d="m-16.734 231.237 32.736-9.687 3.736 4.273-13.853 31.283-4.576-5.233 4.03-8.492.343 3.266-12.135-13.879 3.22.808-8.954 2.861zm29.157-2.817-13.872 4.59.477-1.995 9.123 10.434-1.925.338 6.313-13.234zm-4.777 30.7 23.352-20.419 9.529 10.898q3.446 3.942 3.292 7.642-.093 3.705-3.405 6.601-3.28 2.867-7.03 2.522-3.687-.34-7.134-4.282l-5.01-5.731-9.076 7.936zm17.602-6.273 4.431 5.068q1.623 1.856 3.232 2.025 1.64.204 3.13-1.1 1.49-1.303 1.474-2.926.046-1.618-1.575-3.473l-4.432-5.068zm1.942 28.625 23.352-20.419 4.518 5.168-23.352 20.418z"/><rect width="117" height="75" x="123.61" y="181.384" fill="#5329FF" rx="10" transform="rotate(-24.966 123.61 181.384)"/><path fill="#fff" d="m164.095 222.101-.169-34.139 5.145-2.396 26.177 22.03-6.303 2.935-7.03-6.24 3.232.582-16.714 7.782 1.675-2.867.249 9.397zm5.429-28.786.538 14.602-1.783-1.014 12.565-5.851-.212 1.943-10.948-9.754zm28.149 13.152-13.094-28.121 13.124-6.11q4.746-2.21 8.257-1.03 3.531 1.122 5.389 5.111 1.838 3.95.461 7.454-1.356 3.447-6.103 5.657l-6.9 3.213 5.088 10.929zm-1.114-18.653 6.103-2.841q2.233-1.04 2.847-2.539.652-1.518-.183-3.312-.837-1.795-2.399-2.233-1.541-.495-3.775.545l-6.103 2.841zm28.031 6.121-13.094-28.122 6.223-2.897 13.093 28.122z"/></svg>