<svg xmlns="http://www.w3.org/2000/svg" width="338" height="77" fill="none"><g clip-path="url(#a)"><rect width="338" height="76" y=".149" fill="#F7F7F7" rx="16"/><rect width="94" height="61" x="177" y="55" fill="#1A1A1A" rx="8.103" transform="rotate(-70.34 177 55)"/><path fill="#fff" d="m223.852 54.947-19.783-19.334 1.547-4.331 27.603-2.556-1.895 5.305-7.6.502 2.175-1.532-5.025 14.067-.7-2.597 5.561 5.205zm-13.51-19.516 8.726 8.002-1.599.45 3.778-10.575 1 1.228-11.857.761zm23.606-8.746-23.669-8.456 3.946-11.046q1.428-3.995 4.107-5.347 2.657-1.398 6.014-.199 3.324 1.188 4.561 3.977 1.216 2.744-.212 6.739l-2.075 5.808 9.199 3.287zm-11.39-9.975 1.835-5.137q.672-1.88.156-3.086-.503-1.24-2.014-1.78t-2.652.112q-1.163.607-1.835 2.487l-1.835 5.137zm19.484-12.68-23.669-8.456 1.871-5.238 23.669 8.456z"/><rect width="94" height="61" x="276" y="-66" fill="#4092F7" rx="8.103" transform="rotate(19.631 276 -66)"/><path fill="#fff" d="m276.077-19.148 19.324-19.793 4.332 1.545 2.569 27.602-5.305-1.892-.507-7.6 1.534 2.175-14.07-5.019 2.597-.701-5.202 5.563zm19.509-13.52-7.997 8.731-.452-1.6 10.578 3.773-1.228 1.001-.767-11.856zm8.758 23.603 8.444-23.674 11.047 3.94q3.996 1.427 5.35 4.104 1.4 2.656.201 6.015-1.185 3.324-3.974 4.563-2.743 1.217-6.739-.208l-5.809-2.073-3.282 9.201zm9.969-11.396 5.138 1.833q1.88.671 3.086.154 1.24-.503 1.779-2.015.538-1.51-.114-2.652-.607-1.163-2.487-1.834l-5.138-1.832zm12.69 19.478 8.444-23.673 5.239 1.868L332.241.886z"/><rect width="94" height="61" x="289" y="34.149" fill="#F0AD00" rx="8.103" transform="rotate(-26.986 289 34.15)"/><path fill="#fff" d="m323.104 66.275-1.112-27.64 4.098-2.087 21.826 17.092-5.02 2.556-5.871-4.852 2.634.38-13.312 6.778 1.274-2.37.471 7.603zm3.574-23.465.852 11.809-1.472-.77 10.007-5.097-.116 1.58-9.144-7.587zm23.169 9.846L338.442 30.26l10.452-5.323q3.78-1.925 6.657-1.07 2.892.809 4.509 3.986 1.602 3.145.587 6.022-1 2.829-4.78 4.755l-5.497 2.799 4.433 8.704zm-1.434-15.073 4.861-2.475q1.779-.906 2.232-2.137.485-1.247-.243-2.677t-2.006-1.739q-1.262-.357-3.041.549l-4.861 2.475zm22.872 4.156L359.88 19.342l4.956-2.524 11.405 22.397z"/><rect width="94" height="61" x="233" y="16" fill="#5329FF" rx="8.103" transform="rotate(-11.12 233 16)"/><path fill="#fff" d="m257.022 56.225 6.487-26.89 4.513-.887 16.321 22.407-5.527 1.086-4.321-6.272 2.43 1.085-14.658 2.88 1.873-1.93-1.625 7.441zm9.853-21.593-2.408 11.591-1.206-1.143 11.019-2.166-.543 1.487-6.722-9.797zm19.595 15.805-4.848-24.663 11.509-2.262q4.164-.819 6.696.791 2.56 1.568 3.249 5.066.68 3.464-1.083 5.954-1.735 2.447-5.898 3.266l-6.052 1.19 1.884 9.585zm2.741-14.89 5.352-1.053q1.96-.386 2.732-1.445.808-1.068.498-2.642t-1.454-2.22q-1.116-.69-3.075-.305l-5.352 1.052zm20.865 10.25-4.847-24.663 5.457-1.072 4.847 24.662z"/><rect width="94" height="61" x="-4" y="66.149" fill="#4092F7" rx="8.103" transform="rotate(-31.194 -4 66.15)"/><path fill="#fff" d="m32.369 95.686-3.137-27.484 3.934-2.382 23.021 15.444-4.818 2.918-6.212-4.408 2.654.185-12.778 7.737 1.097-2.456 1.027 7.547zm1.843-23.664 1.716 11.714-1.525-.66 9.607-5.817v1.584l-9.676-6.895zm23.829 8.12-13.018-21.5 10.033-6.076q3.63-2.197 6.56-1.555 2.945.594 4.79 3.643 1.83 3.02 1.027 5.964-.79 2.895-4.418 5.092l-5.276 3.195 5.06 8.356zm-2.536-14.927 4.666-2.825q1.707-1.035 2.07-2.295.391-1.28-.44-2.652-.83-1.373-2.127-1.587-1.286-.265-2.993.77l-4.666 2.825zM78.62 67.68l-13.019-21.5 4.758-2.88 13.018 21.5z"/><rect width="94" height="61" x="34" y="-25.851" fill="#1A1A1A" rx="8.103" transform="rotate(10.426 34 -25.85)"/><path fill="#fff" d="m41.571 20.385 15.91-22.629 4.522.833 6.952 26.835-5.54-1.02-1.715-7.42 1.861 1.901-14.691-2.703 2.451-1.108-4.245 6.324zM58.666 3.92l-6.497 9.897-.702-1.507 11.045 2.032-1.052 1.184-2.654-11.58zm12.42 21.896 4.55-24.719L87.17 3.22q4.172.768 5.937 3.195 1.806 2.398 1.161 5.905-.639 3.47-3.193 5.14-2.513 1.64-6.686.872l-6.066-1.116-1.767 9.607zm8.02-12.843 5.364.987q1.963.361 3.071-.34 1.143-.697 1.434-2.275t-.537-2.6q-.786-1.05-2.749-1.412l-5.365-.987zM94.746 30.17l4.549-24.72 5.47 1.007-4.549 24.72z"/><rect width="94" height="61" x="-60" y="-20.851" fill="#1A1A1A" rx="8.103" transform="rotate(27.886 -60 -20.85)"/><rect width="94" height="61" x="87" y="11" fill="#F0AD00" rx="8.103" transform="rotate(-19.449 87 11)"/><path fill="#fff" d="m116.596 47.32 2.523-27.546 4.336-1.531 19.396 19.806-5.312 1.876-5.184-5.58 2.561.721-14.086 4.974 1.574-2.181-.531 7.598zm6.621-22.792-.704 11.818-1.359-.957 10.589-3.74-.322 1.551-8.07-8.72zm21.677 12.8-8.369-23.7 11.06-3.906q4-1.413 6.74-.187 2.762 1.18 3.948 4.542 1.175 3.329-.209 6.048-1.362 2.673-5.362 4.086l-5.816 2.054 3.252 9.211zm.555-15.13 5.144-1.817q1.883-.665 2.493-1.826.645-1.173.111-2.685t-1.761-1.988q-1.205-.52-3.087.145l-5.143 1.817zm22.13 7.12-8.369-23.7 5.245-1.853 8.369 23.7z"/><rect width="94" height="61" x="116" y="73.149" fill="#5329FF" rx="8.103" transform="rotate(-24.966 116 73.15)"/><path fill="#fff" d="m148.951 106.457-.137-27.661 4.169-1.942 21.21 17.85-5.107 2.378-5.696-5.056 2.618.472-13.542 6.305 1.357-2.323.202 7.614zm4.399-23.324.436 11.831-1.445-.822 10.181-4.74-.172 1.574-8.871-7.903zm22.808 10.657-10.609-22.786 10.633-4.951q3.846-1.791 6.691-.834 2.861.91 4.366 4.141 1.49 3.2.374 6.04-1.1 2.793-4.945 4.583l-5.592 2.603 4.124 8.856zm-.902-15.115 4.945-2.302q1.81-.842 2.306-2.057.528-1.23-.148-2.684-.678-1.455-1.944-1.808-1.248-.402-3.058.44l-4.945 2.303zm22.711 4.96-10.608-22.786 5.041-2.347 10.609 22.785z"/></g><defs><clipPath id="a"><rect width="338" height="76" y=".149" fill="#fff" rx="16"/></clipPath></defs></svg>