<svg xmlns="http://www.w3.org/2000/svg" width="106" height="91" fill="none"><rect width="93" height="75" x="14.035" y=".165" fill="#1A1A1A" rx="10" transform="rotate(10.426 14.035 .165)"/><path fill="#fff" d="m28.303 57.696 1.019-5.539 6.924 1.274 3.559-19.343 3.159.581-10.35 3.733 1.162-6.318 9.011-3.263 4.804.884-4.595 24.969 6.491 1.194-1.019 5.539zm25.947 4.775 1.139-6.188-3.462-.637.676-3.679 3.462.637.574-3.115-3.462-.637.684-3.722 3.462.637 2.54-13.804 10.56 1.943q3.375.621 5.496 2.22 2.122 1.598 2.96 3.854.845 2.214.367 4.81-.501 2.727-2.063 4.408-1.562 1.68-4.047 2.297-2.476.575-5.809-.04l-3.981-.732-.573 3.116 6.62 1.218-.676 3.678-6.621-1.218-1.139 6.188zm9.694-15.485 3.16.58q2.466.455 3.963-.388 1.54-.835 1.963-3.129.429-2.337-.72-3.622-1.1-1.32-3.567-1.775l-3.158-.58z"/></svg>