<svg xmlns="http://www.w3.org/2000/svg" width="60" height="60" fill="none"><rect width="60" height="60" fill="#5329FF" fill-opacity=".15" rx="10"/><path fill="#5329FF" fill-rule="evenodd" d="M26.601 30.767c-.378-1.023-1.824-1.023-2.202 0l-.524 1.415a1.17 1.17 0 0 1-.693.693l-1.415.524c-1.023.378-1.023 1.824 0 2.202l1.415.524c.321.119.574.372.693.693l.524 1.415c.378 1.023 1.824 1.023 2.202 0l.524-1.415c.119-.321.372-.574.693-.693l1.415-.524c1.023-.378 1.023-1.824 0-2.202l-1.415-.524a1.17 1.17 0 0 1-.693-.693zm-1.101 3.08a3.4 3.4 0 0 1-.654.653q.372.282.654.654.282-.372.654-.654a3.4 3.4 0 0 1-.654-.654" clip-rule="evenodd"/><path fill="#5329FF" fill-rule="evenodd" d="M34.376 36h.061c5.006 0 9.063-4.03 9.063-9s-4.057-9-9.063-9c-4.49 0-8.218 3.243-8.937 7.5A9 9 0 1 0 34.376 36m.093-2.25c3.74-.017 6.765-3.033 6.765-6.75 0-3.728-3.043-6.75-6.797-6.75-3.335 0-6.11 2.386-6.686 5.534a9.01 9.01 0 0 1 6.718 7.966m-8.969 7.5a6.75 6.75 0 1 0 0-13.5 6.75 6.75 0 0 0 0 13.5" clip-rule="evenodd"/></svg>