<svg xmlns="http://www.w3.org/2000/svg" width="187" height="84" fill="none"><rect width="187" height="84" fill="#fff" rx="15"/><path fill="#1A1A1A" d="M150.203 46.029V21.898h8.028v5.686q1.242-3.106 3.393-4.659t5.208-1.553q.502 0 1.004.048.525.024 1.051.095l-.812 7.741a9.1 9.1 0 0 0-2.939-.501q-3.107 0-4.803 1.911-1.672 1.887-1.672 5.376v9.987zM137.717 33.94q0-2.82-1.505-4.468-1.505-1.65-4.11-1.649-2.604 0-4.109 1.649-1.481 1.624-1.481 4.468 0 2.819 1.505 4.443 1.505 1.626 4.085 1.625 2.605 0 4.11-1.625t1.505-4.443m7.478-12.042v24.131h-7.812v-3.918q-1.673 2.508-3.775 3.68-2.08 1.17-4.898 1.17-4.827 0-7.717-3.512-2.891-3.537-2.891-9.462 0-5.901 3.01-9.366 3.035-3.488 8.147-3.488 2.724 0 4.683 1.17 1.983 1.148 3.393 3.56v-3.965zM106.931 33.987q0-2.819-1.505-4.444-1.482-1.625-4.062-1.625t-4.062 1.625q-1.48 1.625-1.48 4.444 0 2.844 1.457 4.468 1.48 1.6 4.085 1.6 2.58.001 4.062-1.624 1.505-1.624 1.505-4.444m7.55-24.991v37.033h-7.837V42.11q-1.624 2.438-3.655 3.656-2.03 1.194-4.516 1.195-5.088 0-8.1-3.512-3.01-3.513-3.01-9.462 0-5.759 2.987-9.294 3.01-3.56 7.837-3.56 3.058 0 4.969 1.1 1.935 1.098 3.441 3.678a20 20 0 0 1-.215-1.935 36 36 0 0 1-.072-2.365V8.996zM76.05 33.94q0-2.82-1.506-4.468-1.505-1.65-4.11-1.649-2.604 0-4.109 1.649-1.48 1.624-1.481 4.468 0 2.819 1.505 4.443 1.505 1.626 4.085 1.625 2.605 0 4.11-1.625t1.505-4.443m7.478-12.042v24.131h-7.813v-3.918q-1.673 2.508-3.775 3.68-2.08 1.17-4.898 1.17-4.827 0-7.717-3.512-2.892-3.537-2.891-9.462 0-5.901 3.01-9.366 3.035-3.488 8.147-3.488 2.724 0 4.683 1.17 1.983 1.148 3.393 3.56v-3.965zM28.322 46.028V11.05h9.963q5.854 0 8.148.55 2.317.525 3.99 1.792 1.888 1.433 2.89 3.655 1.028 2.222 1.028 4.898 0 4.062-2.007 6.618-1.983 2.533-5.806 3.369l9.533 14.096H45.286l-8.028-13.69v13.69zm8.936-18.444h1.768q3.082 0 4.492-1.052 1.434-1.05 1.433-3.297 0-2.628-1.338-3.727-1.314-1.123-4.444-1.123h-1.911z"/><path fill="#F0AD00" d="M61.6 57.602a7.15 7.15 0 0 1 6.634-7.631l109.839-7.681a7.15 7.15 0 0 1 7.631 6.633l.798 11.412a7.15 7.15 0 0 1-6.634 7.631L70.029 75.647a7.15 7.15 0 0 1-7.63-6.634zM17.797 51.11c-1.512.481-3.133-.353-3.555-1.883a74.6 74.6 0 0 1 .09-40.044c.43-1.527 2.054-2.354 3.564-1.866s2.332 2.106 1.907 3.634a68.83 68.83 0 0 0-.082 36.533c.417 1.53-.412 3.145-1.924 3.626M4.784 45.812c-1.545.364-3.097-.592-3.401-2.15a74.6 74.6 0 0 1-.24-27.303c.277-1.563 1.813-2.546 3.363-2.209s2.528 1.866 2.256 3.428a68.8 68.8 0 0 0 .217 24.766c.3 1.558-.651 3.104-2.195 3.468"/><path fill="#fff" d="m168.191 57.444 3.622-.254-1.668-4.311q-.078-.197-.218-.636l-.364-1.13q-.084.501-.171.957-.078.454-.168.873zm-4.751 5.347 3.673-13.679 4.562-.319 5.55 13.034-3.622.253-.842-2.343-5.173.362-.526 2.438zM162.06 49.988l.278 3.978q-.806-.778-1.581-1.109a3.34 3.34 0 0 0-1.615-.281q-1.569.11-2.47 1.255-.892 1.135-.772 2.859.113 1.605 1.172 2.595 1.068.99 2.601.882a3.4 3.4 0 0 0 1.561-.495q.72-.444 1.41-1.336l.279 3.987q-.838.48-1.681.75t-1.719.331a7.4 7.4 0 0 1-2.043-.123 5.7 5.7 0 0 1-1.752-.666q-1.567-.898-2.458-2.367-.89-1.47-1.024-3.376-.107-1.532.298-2.817a6.9 6.9 0 0 1 1.346-2.386 6.3 6.3 0 0 1 2.033-1.609q1.16-.567 2.621-.67a7.3 7.3 0 0 1 1.748.09q.872.15 1.768.508M146.655 63.965l-.934-13.357 3.676-.257.934 13.357zM138.141 64.56l-.713-10.2-2.992.21-.221-3.157 9.625-.673.221 3.156-2.993.21.713 10.2z"/><path fill="#fff" d="m127.421 65.31-.426-6.095-5.179-6.935 4.179-.293 2.038 3.314q.02.027.061.097.321.518.465 1.003a3.6 3.6 0 0 1 .323-1.022q.047-.104.063-.142l1.539-3.563 4.187-.293-4.163 7.588.426 6.095zM116.125 66.1l-.934-13.357 3.641-.255.715 10.237 4.526-.317.218 3.12zM105.806 61.806l3.622-.253-1.668-4.311q-.077-.197-.218-.636l-.363-1.13q-.084.501-.172.956-.078.456-.168.874zm-4.751 5.347 3.673-13.678 4.562-.32 5.55 13.034-3.622.254-.842-2.343-5.173.361-.526 2.44zM86.696 68.158 85.762 54.8l3.512-.245 5.526 6.517q.16.199.534.815.38.605.844 1.454-.168-.824-.268-1.467-.09-.645-.126-1.146l-.461-6.596 3.494-.245.934 13.357-3.494.244-5.528-6.544q-.17-.2-.55-.805-.375-.616-.826-1.446.168.831.259 1.476.1.644.135 1.146l.461 6.596zM76.372 63.864l3.622-.253-1.667-4.312q-.078-.195-.219-.635l-.363-1.13q-.084.501-.172.956-.078.455-.168.874zm-4.75 5.347 3.673-13.678 4.561-.32 5.55 13.034-3.621.254-.843-2.344-5.172.362-.527 2.439z"/></svg>