<svg xmlns="http://www.w3.org/2000/svg" width="341" height="126" fill="none"><path fill="#1A1A1A" d="M273.901 70.848V26.844h14.639v10.37q2.265-5.665 6.187-8.497 3.921-2.832 9.498-2.832.914 0 1.829.087.959.045 1.917.175l-1.481 14.116a16.5 16.5 0 0 0-5.359-.915q-5.664 0-8.757 3.486-3.05 3.441-3.05 9.803v18.211zM251.132 48.803q0-5.142-2.745-8.148t-7.494-3.006-7.494 3.006q-2.701 2.962-2.701 8.148 0 5.14 2.745 8.103t7.45 2.963q4.749 0 7.494-2.963t2.745-8.103m13.637-21.96v44.005h-14.247v-7.145q-3.05 4.575-6.884 6.71-3.79 2.135-8.932 2.135-8.8 0-14.073-6.405-5.271-6.448-5.271-17.253 0-10.762 5.489-17.08 5.533-6.36 14.857-6.36 4.967 0 8.54 2.135 3.617 2.091 6.186 6.491v-7.232zM194.993 48.89q0-5.142-2.745-8.105-2.701-2.962-7.406-2.962-4.706 0-7.407 2.962-2.701 2.964-2.701 8.104 0 5.186 2.657 8.148 2.702 2.919 7.451 2.919 4.705 0 7.406-2.963 2.745-2.962 2.745-8.104m13.768-45.574v67.532H194.47v-7.145q-2.963 4.443-6.666 6.666-3.703 2.178-8.234 2.178-9.28 0-14.77-6.404-5.49-6.405-5.49-17.254 0-10.5 5.446-16.948 5.49-6.492 14.291-6.492 5.577 0 9.062 2.004 3.53 2.005 6.274 6.71a36 36 0 0 1-.392-3.529 67 67 0 0 1-.131-4.313V3.316zM138.679 48.803q0-5.142-2.745-8.148t-7.494-3.006-7.494 3.006q-2.7 2.962-2.701 8.148 0 5.14 2.745 8.103t7.45 2.963q4.749 0 7.494-2.963t2.745-8.103m13.637-21.96v44.005h-14.247v-7.145q-3.05 4.575-6.884 6.71-3.79 2.135-8.932 2.135-8.8 0-14.072-6.405-5.272-6.448-5.272-17.253 0-10.762 5.49-17.08 5.532-6.36 14.857-6.36 4.966 0 8.539 2.135 3.616 2.091 6.187 6.491v-7.232zM51.646 70.847V7.063h18.168q10.674 0 14.857 1.002 4.227.959 7.276 3.267 3.442 2.614 5.272 6.666 1.873 4.053 1.873 8.932 0 7.406-3.66 12.069-3.616 4.617-10.587 6.143l17.384 25.705h-19.65L67.942 45.883v24.964zm16.295-33.635h3.224q5.62 0 8.19-1.917 2.615-1.917 2.615-6.012 0-4.792-2.44-6.797-2.396-2.048-8.104-2.048h-3.485z"/><path fill="#F0AD00" d="M112.327 91.952c-.503-7.183 4.913-13.414 12.096-13.916L324.72 64.03c7.183-.502 13.413 4.913 13.915 12.097l1.456 20.81c.502 7.183-4.914 13.413-12.097 13.915l-200.297 14.007c-7.183.502-13.413-4.914-13.915-12.097zM32.45 80.114c-2.757.877-5.713-.644-6.484-3.433a136 136 0 0 1 .165-73.022C26.914.874 29.877-.634 32.63.255s4.252 3.84 3.478 6.628a125.5 125.5 0 0 0-.15 66.62c.76 2.79-.751 5.734-3.508 6.61M8.723 70.453c-2.816.663-5.647-1.08-6.201-3.92a136 136 0 0 1-.437-49.79c.505-2.848 3.305-4.641 6.132-4.027s4.61 3.402 4.114 6.252a125.5 125.5 0 0 0 .396 45.162c.545 2.84-1.188 5.66-4.004 6.323"/><path fill="#fff" d="m306.702 91.664 6.605-.462-3.041-7.862a21 21 0 0 1-.398-1.16l-.663-2.06a76 76 0 0 1-.312 1.744 40 40 0 0 1-.307 1.593zm-8.663 9.75 6.698-24.943 8.319-.582 10.121 23.768-6.605.461-1.536-4.272-9.433.66-.959 4.447zM295.522 78.069l.507 7.253q-1.47-1.418-2.883-2.022a6.1 6.1 0 0 0-2.945-.513q-2.861.2-4.505 2.288-1.627 2.07-1.407 5.214.205 2.928 2.136 4.733 1.948 1.802 4.744 1.607a6.2 6.2 0 0 0 2.846-.901q1.314-.81 2.571-2.437l.508 7.271a16 16 0 0 1-3.064 1.367q-1.536.493-3.134.604-1.996.14-3.727-.224a10.4 10.4 0 0 1-3.194-1.215q-2.857-1.639-4.482-4.317t-1.868-6.156q-.195-2.794.543-5.136.755-2.36 2.455-4.352 1.605-1.9 3.707-2.934 2.117-1.035 4.779-1.22a13.3 13.3 0 0 1 3.188.162q1.59.273 3.225.928M267.429 103.555l-1.703-24.356 6.704-.469 1.703 24.356zM251.906 104.641l-1.301-18.6-5.456.381-.403-5.756 17.552-1.227.402 5.756-5.456.382 1.3 18.6z"/><path fill="#fff" d="m232.356 106.007-.777-11.113-9.444-12.647 7.62-.533 3.716 6.043q.036.047.113.176.584.945.846 1.83.11-.826.589-1.864.087-.19.116-.258l2.805-6.5 7.636-.533-7.592 13.838.778 11.114zM211.76 107.448l-1.703-24.356 6.638-.465L218 101.294l8.252-.577.398 5.689zM192.941 99.62l6.604-.462-3.04-7.862a20 20 0 0 1-.399-1.16l-.662-2.06q-.154.914-.313 1.744a38 38 0 0 1-.307 1.593zm-8.664 9.75 6.699-24.943 8.318-.582 10.121 23.767-6.605.462-1.535-4.273-9.434.66-.959 4.447zM158.09 111.201l-1.703-24.356 6.405-.448 10.076 11.884q.293.364.973 1.487.696 1.104 1.54 2.651-.306-1.5-.488-2.674a30 30 0 0 1-.23-2.09l-.841-12.03 6.372-.445 1.703 24.356-6.372.446-10.079-11.934q-.31-.363-1.006-1.468a68 68 0 0 1-1.505-2.636q.306 1.516.472 2.692.183 1.173.247 2.089l.841 12.028zM139.27 103.372l6.605-.462-3.041-7.862a21 21 0 0 1-.398-1.16l-.663-2.06a76 76 0 0 1-.312 1.744 42 42 0 0 1-.307 1.593zm-8.663 9.751 6.698-24.944 8.318-.582 10.122 23.768-6.605.462-1.536-4.273-9.433.659-.96 4.448z"/></svg>