<svg xmlns="http://www.w3.org/2000/svg" width="135" height="60" fill="none"><rect width="133" height="58" x="1" y="1" stroke="#DDD4FF" rx="7"/><path fill="#5329FF" d="M30.496 36.16q-1.76 0-3.024-.704a4.86 4.86 0 0 1-1.92-2.016q-.672-1.312-.672-3.088t.672-3.072a4.76 4.76 0 0 1 1.92-2q1.264-.72 3.024-.72 1.185 0 2.128.336.96.336 1.648.992L33.6 27.52q-.752-.607-1.456-.864-.688-.272-1.584-.272-1.712 0-2.624 1.04-.896 1.024-.896 2.928t.896 2.944q.912 1.04 2.624 1.04.896 0 1.584-.256.705-.272 1.456-.896l.672 1.632a4.8 4.8 0 0 1-1.648.992q-.945.352-2.128.352m9.149 0q-1.248 0-2.16-.512a3.6 3.6 0 0 1-1.424-1.456q-.495-.944-.496-2.24 0-1.296.496-2.224a3.6 3.6 0 0 1 1.424-1.456q.912-.512 2.16-.512t2.16.512a3.47 3.47 0 0 1 1.424 1.456q.512.928.512 2.224t-.512 2.24a3.47 3.47 0 0 1-1.424 1.456q-.912.512-2.16.512m0-1.536q.944 0 1.504-.656.56-.672.56-2.016t-.56-2-1.504-.656-1.504.656-.56 2 .56 2.016q.56.656 1.504.656M44.295 36l3.76-4.624v.912l-3.551-4.368h2.368l2.32 2.992h-.72l2.32-2.992h2.352l-3.52 4.368v-.912L53.368 36h-2.384l-2.512-3.216h.72L46.664 36zm10.264 3.456v-9.52a16 16 0 0 0-.128-2.016h1.936l.176 1.696h-.176a2.3 2.3 0 0 1 1.008-1.344q.785-.512 1.808-.512 1.072 0 1.872.512.801.495 1.248 1.44.448.928.448 2.24t-.448 2.256q-.447.945-1.248 1.456-.8.496-1.872.496-1.008 0-1.776-.496a2.38 2.38 0 0 1-1.024-1.328h.176v5.12zm4.064-4.832q.96 0 1.536-.656.576-.672.576-2.016t-.576-2-1.536-.656q-.944 0-1.52.656t-.576 2 .576 2.016q.576.656 1.52.656m9.197 1.536q-1.056 0-1.856-.496-.8-.512-1.248-1.456t-.448-2.256.448-2.24q.449-.945 1.248-1.44.8-.512 1.856-.512 1.024 0 1.792.512.785.496 1.04 1.344h-.176l.176-1.696h1.92l-.096 1.008q-.032.512-.032 1.008V36H70.46l-.016-1.664h.192q-.255.832-1.04 1.328a3.25 3.25 0 0 1-1.776.496m.56-1.536q.944 0 1.52-.656.576-.672.576-2.016t-.576-2-1.52-.656-1.52.656-.576 2 .56 2.016q.576.656 1.536.656M74.777 36v-8.08h1.984v3.168h3.648V27.92h1.984V36h-1.984v-3.376H76.76V36zm9.89 0v-8.08h1.808v6.112h-.48l4.592-6.112h1.648V36h-1.808v-6.128h.496L86.315 36zm11.588 0v-6.512h-2.768V27.92h7.536v1.568h-2.784V36zm6.006 0v-8.08h1.984v2.704h2.128q1.616 0 2.432.688.816.672.816 1.952 0 .832-.384 1.456-.384.608-1.12.944-.72.336-1.744.336zm1.984-1.312h1.856q.816 0 1.248-.336.432-.352.432-1.056t-.432-1.024q-.415-.336-1.248-.336h-1.856z"/></svg>