<svg xmlns="http://www.w3.org/2000/svg" width="269" height="33" fill="none"><rect width="269" height="33" fill="#fff" fill-opacity=".2" rx="8"/><circle cx="21.5" cy="16.5" r="12" fill="#fff" opacity=".2"/><rect width="15" height="15" x="14" y="9" fill="#fff" opacity=".4" rx="7.5"/><rect width="14.2" height="14.2" x="14.4" y="9.4" stroke="#fff" stroke-width=".8" rx="7.1"/><circle cx="21.6" cy="16.2" r="1.8" fill="#fff" stroke="#fff" stroke-width="1.2"/><path fill="#fff" d="M45.4 23.144q-1.728 0-2.944-.704a4.7 4.7 0 0 1-1.872-2q-.64-1.312-.64-3.088t.64-3.072a4.7 4.7 0 0 1 1.872-2q1.216-.705 2.944-.704 1.2 0 2.144.352t1.648 1.024l-.576 1.328q-.768-.656-1.504-.944-.72-.288-1.68-.288-1.824 0-2.784 1.12t-.96 3.184.96 3.2q.96 1.12 2.784 1.12.96 0 1.68-.288.736-.288 1.504-.96l.576 1.328a5 5 0 0 1-1.648 1.04q-.945.352-2.144.352M52.897 23v-6.768H50.05v-1.296h7.312v1.296h-2.864V23zm8.909.144q-1.073 0-1.872-.496-.801-.495-1.248-1.44-.432-.944-.432-2.24 0-1.312.431-2.24.449-.928 1.249-1.424.8-.512 1.872-.512 1.056 0 1.84.528.783.528 1.04 1.44h-.177l.16-1.824h1.569l-.097.992q-.031.48-.032.944V23h-1.615v-1.792h.175a2.48 2.48 0 0 1-1.055 1.424q-.785.512-1.808.512m.4-1.264q1.04 0 1.663-.736.64-.735.64-2.176 0-1.44-.64-2.16-.624-.736-1.663-.736-1.057 0-1.697.736-.623.72-.623 2.16t.624 2.176q.623.736 1.696.736m6.449 4.576v-9.584q0-.464-.048-.944-.032-.495-.08-.992h1.568l.16 1.824h-.176a2.52 2.52 0 0 1 1.024-1.44q.784-.528 1.856-.528t1.872.512q.8.495 1.232 1.424.448.928.448 2.24 0 1.296-.448 2.24-.432.945-1.232 1.44t-1.872.496q-1.056 0-1.84-.512a2.52 2.52 0 0 1-1.024-1.424h.176v5.248zm3.904-4.576q1.056 0 1.68-.736.64-.735.64-2.176 0-1.44-.64-2.16-.624-.736-1.68-.736t-1.696.736q-.624.72-.624 2.16t.624 2.176q.64.736 1.696.736M80.257 23v-6.768h-2.849v-1.296h7.313v1.296h-2.865V23zm10.021 0v-8.064h4.064q1.457 0 2.145.56.704.544.704 1.552 0 .784-.529 1.296-.51.512-1.36.624v-.208q1.008.049 1.584.592.577.544.577 1.408 0 1.04-.784 1.648-.769.592-2.192.592zm1.52-1.04h2.56q.784 0 1.2-.32.417-.336.416-.96 0-.623-.416-.944-.415-.32-1.2-.32h-2.56zm0-3.584h2.385q.72 0 1.12-.32t.4-.88q0-.576-.4-.88-.4-.32-1.12-.32h-2.385zm14.992 4.768q-1.073 0-1.872-.496-.8-.495-1.248-1.44-.432-.944-.432-2.24 0-1.312.432-2.24.449-.928 1.248-1.424.8-.512 1.872-.512 1.056 0 1.84.528t1.04 1.44h-.176l.16-1.824h1.568l-.096.992q-.032.48-.032.944V23h-1.616v-1.792h.176a2.48 2.48 0 0 1-1.056 1.424q-.784.512-1.808.512m.4-1.264q1.04 0 1.664-.736.64-.735.64-2.176 0-1.44-.64-2.16-.624-.736-1.664-.736-1.056 0-1.696.736-.624.72-.624 2.16t.624 2.176 1.696.736m6.385 1.12v-8.064h1.6v3.28h4.08v-3.28h1.6V23h-1.6v-3.52h-4.08V23zm12.871.144q-1.072 0-1.872-.496-.8-.495-1.248-1.44-.432-.944-.432-2.24 0-1.312.432-2.24.448-.928 1.248-1.424.8-.512 1.872-.512 1.056 0 1.84.528t1.04 1.44h-.176l.16-1.824h1.568l-.096.992q-.032.48-.032.944V23h-1.616v-1.792h.176a2.48 2.48 0 0 1-1.056 1.424q-.784.512-1.808.512m.4-1.264q1.04 0 1.664-.736.64-.735.64-2.176 0-1.44-.64-2.16-.624-.736-1.664-.736-1.056 0-1.696.736-.624.72-.624 2.16t.624 2.176 1.696.736m6.05 1.328-.544-1.28q.543-.224.912-.56.384-.352.592-.896.224-.544.32-1.344t.096-1.936v-2.256h6.08V23h-1.6v-6.8h-2.992v1.04q0 1.824-.288 3.024t-.928 1.904q-.624.688-1.648 1.04m9.883-.208v-8.064h1.472v6.512h-.448l4.864-6.512h1.343V23h-1.455v-6.528h.464L144.123 23zm11.384 0v-6.768h-2.848v-1.296h7.312v1.296h-2.864V23zm5.756 0v-8.064h1.472v6.512h-.448l4.864-6.512h1.344V23h-1.456v-6.528h.464L161.263 23zm9.656 0v-8.064h1.6v3.296h1.392l2.512-3.296h1.76l-3.008 3.968-.4-.512q.464.048.8.24.336.176.656.528t.656.928l1.68 2.912h-1.728l-1.44-2.464a3 3 0 0 0-.464-.64 1.1 1.1 0 0 0-.512-.32 2.2 2.2 0 0 0-.704-.096h-1.2V23zm12.621.144q-1.953 0-3.072-1.104-1.12-1.104-1.12-3.056 0-1.265.48-2.208.495-.945 1.36-1.456.88-.528 2.032-.528 1.136 0 1.904.48t1.168 1.36q.4.864.4 2.048v.512h-6.08v-.928h4.976l-.272.208q0-1.2-.544-1.856-.528-.672-1.537-.672-1.12 0-1.727.784-.609.768-.608 2.128v.16q0 1.425.688 2.144.703.72 1.984.72a4.3 4.3 0 0 0 1.312-.192q.624-.209 1.184-.672l.528 1.104a3.9 3.9 0 0 1-1.36.768 5.5 5.5 0 0 1-1.696.256m12.979 0q-1.824 0-2.912-1.136-1.072-1.136-1.072-3.344v-1.392q0-2.256.96-3.632.976-1.376 3.008-1.856l2.944-.704.464 1.296-3.296.768q-.864.192-1.424.72a3.5 3.5 0 0 0-.848 1.248q-.272.72-.272 1.536v.736h-.24q.192-.736.608-1.248.432-.528 1.056-.816a3.3 3.3 0 0 1 1.424-.304q1.04 0 1.824.48t1.216 1.392q.448.896.448 2.128 0 1.28-.48 2.208a3.37 3.37 0 0 1-1.36 1.424q-.864.495-2.048.496m-.048-1.248q1.088 0 1.696-.704.624-.72.624-2.112 0-1.376-.624-2.096t-1.696-.72-1.696.72q-.624.704-.624 2.016 0 1.44.608 2.176.624.72 1.712.72M201.075 23v-8.064h1.472v6.512h-.448l4.864-6.512h1.344V23h-1.456v-6.528h.464L202.419 23zm12.457.144a7.4 7.4 0 0 1-1.984-.256q-.929-.271-1.52-.768l.496-1.088q.591.465 1.36.704a5.9 5.9 0 0 0 1.648.224q1.104 0 1.6-.32.512-.336.512-.944 0-.592-.416-.896-.417-.304-1.216-.304h-1.984v-1.152h1.824q.72 0 1.12-.304t.4-.848q0-.576-.464-.896-.465-.32-1.44-.32-.833 0-1.52.208a5 5 0 0 0-1.312.624l-.48-1.04q.655-.495 1.552-.736a7.5 7.5 0 0 1 1.936-.24q1.568 0 2.384.592.816.576.816 1.664 0 .752-.512 1.28-.496.528-1.344.64v-.208q.976.049 1.552.592.592.528.592 1.408 0 1.088-.928 1.744-.912.64-2.672.64m5.481-.144v-8.064h1.6v3.28h4.08v-3.28h1.6V23h-1.6v-3.52h-4.08V23zm13.511.144q-1.953 0-3.072-1.104-1.12-1.104-1.12-3.056 0-1.265.48-2.208.495-.945 1.36-1.456.88-.528 2.032-.528 1.136 0 1.904.48t1.168 1.36q.4.864.4 2.048v.512h-6.08v-.928h4.976l-.272.208q0-1.2-.544-1.856-.528-.672-1.536-.672-1.12 0-1.728.784-.609.768-.608 2.128v.16q0 1.425.688 2.144.703.72 1.984.72a4.3 4.3 0 0 0 1.312-.192q.623-.209 1.184-.672l.528 1.104a3.9 3.9 0 0 1-1.36.768 5.5 5.5 0 0 1-1.696.256m8.73 0q-1.216 0-2.128-.496a3.5 3.5 0 0 1-1.392-1.456q-.48-.96-.48-2.272 0-1.296.496-2.224a3.34 3.34 0 0 1 1.392-1.408q.895-.495 2.112-.496.783 0 1.52.272.736.255 1.216.736l-.528 1.136a2.9 2.9 0 0 0-1.008-.64 2.9 2.9 0 0 0-1.088-.224q-1.152 0-1.808.736-.656.735-.656 2.128 0 1.408.656 2.16t1.808.752q.511 0 1.072-.192a2.95 2.95 0 0 0 1.024-.656l.528 1.136a3.5 3.5 0 0 1-1.248.752q-.737.255-1.488.256m7.723 0q-1.071 0-1.872-.496-.8-.495-1.248-1.44-.432-.944-.432-2.24 0-1.312.432-2.24.449-.928 1.248-1.424.801-.512 1.872-.512 1.056 0 1.84.528.785.528 1.04 1.44h-.176l.16-1.824h1.568l-.096.992q-.032.48-.032.944V23h-1.616v-1.792h.176a2.47 2.47 0 0 1-1.056 1.424q-.783.512-1.808.512m.4-1.264q1.04 0 1.664-.736.64-.735.64-2.176 0-1.44-.64-2.16-.624-.736-1.664-.736-1.056 0-1.696.736-.624.72-.624 2.16t.624 2.176 1.696.736"/></svg>