<svg xmlns="http://www.w3.org/2000/svg" width="611" height="143" fill="none"><path fill="#000" d="M611 20c0-11.046-8.954-20-20-20H130c-11.046 0-20 8.954-20 20v20c0 11.046-8.954 20-20 20H20C8.954 60 0 68.954 0 80v43c0 11.046 8.954 20 20 20h571c11.046 0 20-8.954 20-20z"/><rect width="99.038" height="50" fill="#5329FF" rx="15"/><path fill="#5329FF" d="M23.837 32v-1.9l4.68-4.88q.88-.92 1.3-1.7t.42-1.6q0-1.02-.64-1.54-.639-.52-1.86-.52-.98 0-1.88.36-.9.34-1.76 1.08l-.84-1.92q.86-.76 2.12-1.22a7.9 7.9 0 0 1 2.68-.46q2.28 0 3.5 1.02t1.22 2.92q0 1.32-.62 2.52-.62 1.18-1.92 2.48l-3.9 3.9v-.68h7V32zm17.34 0V21.9h2.34v8.18h3.56V21.9h2.32v8.18h3.56V21.9h2.34V32zm20.934.2q-1.32 0-2.32-.62-1-.64-1.56-1.82t-.56-2.82.56-2.8q.56-1.18 1.56-1.8 1-.64 2.32-.64 1.28 0 2.24.64.98.62 1.3 1.68h-.22l.22-2.12h2.4l-.12 1.26q-.04.64-.04 1.26V32h-2.48l-.02-2.08h.24q-.32 1.04-1.3 1.66t-2.22.62m.7-1.92q1.18 0 1.9-.82.72-.84.72-2.52t-.72-2.5-1.9-.82-1.9.82-.72 2.5.7 2.52q.72.82 1.92.82M70.807 32V21.9h7.58v1.96h-5.08V32z"/><path fill="#000" d="M19.56 93V78.9h2.58v5.88h7.22V78.9h2.58V93h-2.58v-6.08h-7.22V93zm19.328.2q-1.32 0-2.32-.62-.999-.64-1.56-1.82-.56-1.18-.56-2.82t.56-2.8q.561-1.18 1.56-1.8 1-.64 2.32-.64 1.28 0 2.24.64.98.62 1.3 1.68h-.22l.22-2.12h2.4l-.12 1.26q-.04.64-.04 1.26V93h-2.48l-.02-2.08h.24q-.32 1.04-1.3 1.66t-2.22.62m.7-1.92q1.18 0 1.9-.82.72-.84.72-2.52t-.72-2.5-1.9-.82-1.9.82-.72 2.5.7 2.52q.72.82 1.92.82M46.064 93l2.12-3.78q.4-.66.76-1.08a3 3 0 0 1 .82-.68q.44-.24 1-.3l-.52.78-3.74-5.04h2.68l2.98 3.96h1.26V82.9h2.48v3.96h1.24l2.96-3.96h2.7l-3.76 5.04-.52-.78q.56.06 1 .3t.82.68q.4.42.78 1.08l2.12 3.78h-2.66l-1.72-3.04a3.4 3.4 0 0 0-.52-.72 1.4 1.4 0 0 0-.58-.36 2.6 2.6 0 0 0-.78-.1h-1.08V93h-2.48v-4.22h-1.1a2.6 2.6 0 0 0-.78.1 1.4 1.4 0 0 0-.58.36 4.6 4.6 0 0 0-.52.72L48.724 93zm18.493 0V82.9h2.08l3.48 6.04 3.48-6.04h2.08V93h-2.2v-7.3h.46l-3.24 5.66h-1.16l-3.24-5.66h.46V93zm13.965 0V82.9h2.26v7.64h-.6l5.74-7.64h2.06V93h-2.26v-7.66h.62L80.582 93zm14.484 0v-8.14h-3.46V82.9h9.42v1.96h-3.48V93zm12.37.2q-2.54 0-3.98-1.4t-1.44-3.84q0-1.58.62-2.76t1.72-1.84q1.12-.66 2.6-.66 1.46 0 2.44.62t1.48 1.74q.52 1.12.52 2.62v.66h-7.36v-1.32h5.58l-.34.28q0-1.4-.6-2.14-.58-.74-1.7-.74-1.24 0-1.92.88-.66.88-.66 2.46v.26q0 1.64.8 2.46.82.8 2.3.8a5.6 5.6 0 0 0 1.6-.22q.76-.24 1.44-.76l.74 1.68a5.3 5.3 0 0 1-1.72.9 6.9 6.9 0 0 1-2.12.32m11.759-.2V82.9h2.48v3.96h1.52l2.96-3.96h2.68l-3.72 5.04-.54-.78q.56.06.98.3.44.24.82.68.4.42.78 1.08l2.12 3.78h-2.66l-1.72-3.04a3.4 3.4 0 0 0-.52-.72 1.4 1.4 0 0 0-.58-.36 2.6 2.6 0 0 0-.78-.1h-1.34V93zm11.406 0V82.9h2.48v3.96h4.56V82.9h2.48V93h-2.48v-4.22h-4.56V93zm17.003.2q-1.56 0-2.7-.64a4.5 4.5 0 0 1-1.78-1.82q-.62-1.18-.62-2.8t.62-2.78a4.5 4.5 0 0 1 1.78-1.82q1.14-.64 2.7-.64t2.7.64a4.33 4.33 0 0 1 1.78 1.82q.64 1.16.64 2.78t-.64 2.8a4.33 4.33 0 0 1-1.78 1.82q-1.14.64-2.7.64m0-1.92q1.18 0 1.88-.82.7-.84.7-2.52t-.7-2.5-1.88-.82-1.88.82-.7 2.5.7 2.52q.7.82 1.88.82m7.489 1.72V82.9h9.46V93h-2.48v-8.18h-4.5V93zm12.305 0V82.9h2.48v3.96h1.52l2.96-3.96h2.68l-3.72 5.04-.54-.78q.56.06.98.3.44.24.82.68.4.42.78 1.08l2.12 3.78h-2.66l-1.72-3.04a3.4 3.4 0 0 0-.52-.72 1.4 1.4 0 0 0-.58-.36 2.6 2.6 0 0 0-.78-.1h-1.34V93zm11.286 4.54-.58-1.98a9.5 9.5 0 0 0 1.58-.46q.64-.26 1.06-.68t.7-1.08l.5-1.18-.06.98-4.4-10.24h2.66l3.16 7.88h-.58l3.18-7.88h2.52l-4.6 10.66q-.46 1.08-1 1.78-.54.72-1.16 1.14-.62.44-1.36.68t-1.62.38m18.421-6.26-2.62-3.64 2.62-3.64h2.08l-2.46 3.64 2.46 3.64zm4.16 0-2.62-3.64 2.62-3.64h2.08l-2.46 3.64 2.46 3.64zm6.421 1.72 2.48-4.7.04.8-6.52-10.2h2.76l5.02 7.96h-.5l4.18-7.96h2.66l-7.44 14.1zm14.705.2q-1.56 0-2.74-.64a4.47 4.47 0 0 1-1.8-1.82q-.64-1.2-.64-2.84t.64-2.8a4.5 4.5 0 0 1 1.82-1.78q1.16-.62 2.72-.62 1 0 1.94.32.96.3 1.56.88l-.76 1.74a3.5 3.5 0 0 0-1.22-.74 3.5 3.5 0 0 0-1.3-.26q-1.34 0-2.1.84-.74.84-.74 2.44t.74 2.46q.76.86 2.1.86.62 0 1.28-.24.68-.24 1.24-.74l.76 1.72q-.62.58-1.58.9a5.9 5.9 0 0 1-1.92.32m7.812-.2v-8.14h-3.46V82.9h9.42v1.96h-3.48V93zm11.487.2q-1.32 0-2.32-.62-.999-.64-1.56-1.82-.56-1.18-.56-2.82t.56-2.8q.561-1.18 1.56-1.8 1-.64 2.32-.64 1.28 0 2.24.64.98.62 1.3 1.68h-.22l.22-2.12h2.4l-.12 1.26q-.04.64-.04 1.26V93h-2.48l-.02-2.08h.24q-.32 1.04-1.3 1.66t-2.22.62m.7-1.92q1.18 0 1.9-.82.72-.84.72-2.52t-.72-2.5-1.9-.82-1.9.82-.72 2.5.7 2.52q.72.82 1.92.82m7.996 1.72V82.9h2.48v3.96h4.56V82.9h2.48V93h-2.48v-4.22h-4.56V93zm17.004.2q-1.56 0-2.7-.64a4.5 4.5 0 0 1-1.78-1.82q-.62-1.18-.62-2.8t.62-2.78a4.5 4.5 0 0 1 1.78-1.82q1.14-.64 2.7-.64t2.7.64a4.35 4.35 0 0 1 1.78 1.82q.64 1.16.64 2.78t-.64 2.8a4.35 4.35 0 0 1-1.78 1.82q-1.14.64-2.7.64m0-1.92q1.18 0 1.88-.82.7-.84.7-2.52t-.7-2.5-1.88-.82-1.88.82-.7 2.5.7 2.52q.7.82 1.88.82m7.488 1.72V82.9h5.38q1.9 0 2.78.7.88.68.88 1.94 0 .96-.64 1.6t-1.7.8v-.28q1.3.08 2 .76t.7 1.76q0 1.3-1 2.06t-2.84.76zm2.32-1.54h2.98q.88 0 1.34-.36.48-.36.48-1.06t-.48-1.06q-.46-.36-1.34-.36h-2.98zm0-4.38h2.76q.8 0 1.24-.34.44-.36.44-1t-.44-.98-1.24-.34h-2.76zM284.4 93V82.9h2.26v7.64h-.6l5.74-7.64h2.06V93h-2.26v-7.66h.62L286.46 93zm14.485 0v-8.14h-3.46V82.9h9.42v1.96h-3.48V93zm7.508 0V82.9h2.48v3.38h2.66q2.02 0 3.04.86 1.02.84 1.02 2.44 0 1.04-.48 1.82-.48.76-1.4 1.18-.9.42-2.18.42zm2.48-1.64h2.32q1.02 0 1.56-.42.54-.44.54-1.32t-.54-1.28q-.52-.42-1.56-.42h-2.32zm10.089-.08h-2.08l2.46-3.64-2.46-3.64h2.1l2.6 3.64zm4.16 0h-2.08l2.46-3.64-2.46-3.64h2.1l2.6 3.64zM333.131 93V82.9h2.26v7.64h-.6l5.74-7.64h2.06V93h-2.26v-7.66h.62l-5.76 7.66zm17.793 0V82.9h9.46V93h-2.48v-8.18h-4.5V93zm12.045.28-.78-1.96q.66-.24 1.1-.62.459-.4.72-1 .28-.62.4-1.52.12-.92.12-2.18v-3.1h8.04V93h-2.48v-8.18h-3.28v1.26q0 2.18-.4 3.66-.4 1.46-1.24 2.32t-2.2 1.22m16.427-.08q-1.32 0-2.32-.62-1-.64-1.56-1.82t-.56-2.82.56-2.8q.56-1.18 1.56-1.8 1-.64 2.32-.64 1.28 0 2.24.64.98.62 1.3 1.68h-.22l.22-2.12h2.4l-.12 1.26q-.04.64-.04 1.26V93h-2.48l-.02-2.08h.24q-.32 1.04-1.3 1.66t-2.22.62m.7-1.92q1.18 0 1.9-.82.72-.84.72-2.52t-.72-2.5-1.9-.82-1.9.82-.72 2.5.7 2.52q.72.82 1.92.82m7.996 1.72V82.9h7.58v1.96h-5.08V93zm9.336 0V82.9h2.26v7.64h-.6l5.74-7.64h2.06V93h-2.26v-7.66h.62l-5.76 7.66zm12.305 0V82.9h2.48v3.96h4.56V82.9h2.48V93h-2.48v-4.22h-4.56V93zm16.951 2.6v-4.5h1.16q.6-.94.86-2.2.28-1.28.28-3.12V82.9h7.78v8.2h1.64v4.5h-2.12V93h-7.48v2.6zm3.4-4.48h4.34v-6.34h-3.32v1.56q0 1.34-.26 2.62t-.76 2.16m14.796 2.08q-1.56 0-2.7-.64a4.5 4.5 0 0 1-1.78-1.82q-.62-1.18-.62-2.8t.62-2.78a4.5 4.5 0 0 1 1.78-1.82q1.14-.64 2.7-.64t2.7.64a4.33 4.33 0 0 1 1.78 1.82q.64 1.16.64 2.78t-.64 2.8a4.33 4.33 0 0 1-1.78 1.82q-1.14.64-2.7.64m0-1.92q1.18 0 1.88-.82.7-.84.7-2.52t-.7-2.5-1.88-.82-1.88.82-.7 2.5.7 2.52q.7.82 1.88.82m12.229 1.92q-2.38 0-3.8-1.44-1.4-1.44-1.4-4.22v-1.72q0-2.86 1.3-4.6t3.92-2.3l3.7-.84.68 1.96-4.16.92q-1.04.22-1.72.84a3.8 3.8 0 0 0-1.02 1.44q-.34.84-.34 1.8v1.06h-.34q.22-.9.74-1.56a3.56 3.56 0 0 1 1.32-1.06q.8-.38 1.82-.38 1.28 0 2.24.6.98.58 1.54 1.7.56 1.1.56 2.64 0 1.58-.64 2.74a4.4 4.4 0 0 1-1.76 1.8q-1.119.62-2.64.62m-.08-1.9q1.24 0 1.92-.78.7-.8.7-2.38 0-1.54-.7-2.34-.699-.82-1.92-.82-1.22 0-1.92.8t-.7 2.28q0 1.62.7 2.44.7.8 1.92.8m11.469 1.9q-1.32 0-2.32-.62-1-.64-1.56-1.82t-.56-2.82.56-2.8q.56-1.18 1.56-1.8 1-.64 2.32-.64 1.28 0 2.24.64.98.62 1.3 1.68h-.22l.22-2.12h2.4l-.12 1.26q-.04.64-.04 1.26V93h-2.48l-.02-2.08h.24q-.32 1.04-1.3 1.66-.981.62-2.22.62m.7-1.92q1.18 0 1.9-.82.72-.84.72-2.52t-.72-2.5-1.9-.82-1.9.82-.72 2.5.7 2.52q.72.82 1.92.82m7.995 1.72V82.9h5.38q1.9 0 2.78.7.88.68.88 1.94 0 .96-.64 1.6t-1.7.8v-.28q1.3.08 2 .76t.7 1.76q0 1.3-1 2.06t-2.84.76zm2.32-1.54h2.98q.88 0 1.34-.36.48-.36.48-1.06t-.48-1.06q-.46-.36-1.34-.36h-2.98zm0-4.38h2.76q.8 0 1.24-.34.44-.36.44-1t-.44-.98-1.24-.34h-2.76zm9.262 5.92V82.9h2.26v7.64h-.6l5.74-7.64h2.06V93h-2.26v-7.66h.62l-5.76 7.66zm14.485 0v-8.14h-3.46V82.9h9.42v1.96h-3.48V93zm12.13.2q-1.56 0-2.74-.64a4.47 4.47 0 0 1-1.8-1.82q-.64-1.2-.64-2.84t.64-2.8a4.5 4.5 0 0 1 1.82-1.78q1.16-.62 2.72-.62a6 6 0 0 1 1.94.32q.96.3 1.56.88l-.76 1.74a3.5 3.5 0 0 0-1.22-.74 3.5 3.5 0 0 0-1.3-.26q-1.34 0-2.1.84-.74.84-.74 2.44t.74 2.46q.76.86 2.1.86.62 0 1.28-.24.68-.24 1.24-.74l.76 1.72q-.62.58-1.58.9a5.9 5.9 0 0 1-1.92.32m4.792-.2 1.54-2.66q.4-.68.98-1.08.6-.42 1.24-.42h.44l-.02.22q-1.78 0-2.74-.78t-.96-2.28q0-1.48.98-2.28 1-.82 2.92-.82h5.02V93h-2.28v-3.56h-1.14q-.62 0-1.1.34-.46.34-.78.88l-1.32 2.34zm4.86-5.18h2.26v-3.3h-2.26q-1.02 0-1.54.44-.5.44-.5 1.2 0 .8.5 1.24.52.42 1.54.42M19.42 120v-10.1h5.38q1.9 0 2.78.7.88.68.88 1.94 0 .96-.64 1.6t-1.7.8v-.28q1.3.08 2 .76t.7 1.76q0 1.3-1 2.06t-2.84.76zm2.32-1.54h2.98q.88 0 1.34-.36.48-.36.48-1.06t-.48-1.06q-.46-.36-1.34-.36h-2.98zm0-4.38h2.76q.8 0 1.24-.34.44-.36.44-1t-.44-.98-1.24-.34h-2.76zm19.47 6.12q-1.56 0-2.74-.64a4.47 4.47 0 0 1-1.8-1.82q-.64-1.2-.64-2.84t.64-2.8a4.5 4.5 0 0 1 1.82-1.78q1.16-.62 2.72-.62 1 0 1.94.32.96.3 1.56.88l-.76 1.74a3.5 3.5 0 0 0-1.22-.74 3.5 3.5 0 0 0-1.3-.26q-1.34 0-2.1.84-.74.84-.74 2.44t.74 2.46q.76.86 2.1.86.62 0 1.28-.24.68-.24 1.24-.74l.76 1.72q-.62.58-1.58.9a6 6 0 0 1-1.92.32m5.632-.2v-10.1h9.46V120h-2.48v-8.18h-4.5V120zm12.305 0v-10.1h2.26v7.64h-.6l5.74-7.64h2.06V120h-2.26v-7.66h.62l-5.76 7.66zm17.024.2q-1.56 0-2.74-.64a4.46 4.46 0 0 1-1.8-1.82q-.64-1.2-.64-2.84t.64-2.8a4.5 4.5 0 0 1 1.82-1.78q1.16-.62 2.72-.62 1 0 1.94.32.96.3 1.56.88l-.76 1.74a3.5 3.5 0 0 0-1.22-.74 3.5 3.5 0 0 0-1.3-.26q-1.34 0-2.1.84-.74.84-.74 2.44t.74 2.46q.76.86 2.1.86.62 0 1.28-.24.68-.24 1.24-.74l.76 1.72q-.62.58-1.58.9a6 6 0 0 1-1.92.32m10.272 0q-1.56 0-2.7-.64a4.5 4.5 0 0 1-1.78-1.82q-.62-1.18-.62-2.8t.62-2.78a4.5 4.5 0 0 1 1.78-1.82q1.14-.64 2.7-.64t2.7.64a4.34 4.34 0 0 1 1.78 1.82q.64 1.16.64 2.78t-.64 2.8a4.34 4.34 0 0 1-1.78 1.82q-1.14.64-2.7.64m0-1.92q1.18 0 1.88-.82.7-.84.7-2.52t-.7-2.5-1.88-.82-1.88.82-.7 2.5.7 2.52q.7.82 1.88.82m7.489 1.72v-10.1h2.48v3.96h1.52l2.96-3.96h2.68l-3.72 5.04-.54-.78q.56.06.98.3.44.24.82.68.399.42.78 1.08l2.12 3.78h-2.66l-1.72-3.04a3.3 3.3 0 0 0-.52-.72 1.4 1.4 0 0 0-.58-.36 2.6 2.6 0 0 0-.78-.1h-1.34V120zm16.974 4.32v-11.9a20 20 0 0 0-.16-2.52h2.42l.22 2.12h-.22q.3-1.06 1.26-1.68.98-.64 2.26-.64 1.341 0 2.34.64 1 .62 1.56 1.8.56 1.16.56 2.8t-.56 2.82-1.56 1.82q-.999.62-2.34.62-1.26 0-2.22-.62t-1.28-1.66h.22v6.4zm5.08-6.04q1.2 0 1.92-.82.72-.84.72-2.52t-.72-2.5-1.92-.82q-1.18 0-1.9.82t-.72 2.5.72 2.52q.72.82 1.9.82m11.496 1.92q-1.32 0-2.32-.62-1-.64-1.56-1.82t-.56-2.82.56-2.8q.56-1.18 1.56-1.8 1-.64 2.32-.64 1.28 0 2.24.64.98.62 1.3 1.68h-.22l.22-2.12h2.4l-.12 1.26q-.04.64-.04 1.26V120h-2.48l-.02-2.08h.24q-.32 1.04-1.3 1.66t-2.22.62m.7-1.92q1.18 0 1.9-.82.72-.84.72-2.52t-.72-2.5-1.9-.82-1.9.82-.72 2.5.7 2.52q.72.82 1.92.82m12.716 1.92q-1.56 0-2.74-.64a4.46 4.46 0 0 1-1.8-1.82q-.64-1.2-.64-2.84t.64-2.8a4.5 4.5 0 0 1 1.82-1.78q1.16-.62 2.72-.62 1 0 1.94.32.96.3 1.56.88l-.76 1.74a3.5 3.5 0 0 0-1.22-.74 3.5 3.5 0 0 0-1.3-.26q-1.341 0-2.1.84-.74.84-.74 2.44t.74 2.46q.759.86 2.1.86.62 0 1.28-.24.68-.24 1.24-.74l.76 1.72q-.62.58-1.58.9a6 6 0 0 1-1.92.32m5.631-.2v-10.1h2.34v8.18h3.56v-8.18h2.32v8.18h3.56v-8.18h2.34V120zm16.954 0v-10.1h2.26v7.64h-.6l5.74-7.64h2.06V120h-2.26v-7.66h.62l-5.76 7.66zm12.384 4.32v-11.9a20 20 0 0 0-.16-2.52h2.42l.22 2.12h-.22q.3-1.06 1.26-1.68.98-.64 2.26-.64 1.341 0 2.34.64 1 .62 1.56 1.8.56 1.16.56 2.8t-.56 2.82-1.56 1.82q-.999.62-2.34.62-1.26 0-2.22-.62t-1.28-1.66h.22v6.4zm5.08-6.04q1.2 0 1.92-.82.72-.84.72-2.52t-.72-2.5-1.92-.82q-1.18 0-1.9.82t-.72 2.5.72 2.52q.72.82 1.9.82m12.476 1.92q-2.54 0-3.98-1.4t-1.44-3.84q0-1.58.62-2.76a4.6 4.6 0 0 1 1.72-1.84q1.12-.66 2.6-.66 1.46 0 2.44.62t1.48 1.74q.52 1.12.52 2.62v.66h-7.36v-1.32h5.58l-.34.28q0-1.4-.6-2.14-.58-.74-1.7-.74-1.24 0-1.92.88-.66.88-.66 2.46v.26q0 1.64.8 2.46.82.8 2.3.8a5.6 5.6 0 0 0 1.6-.22q.76-.24 1.44-.76l.74 1.68a5.3 5.3 0 0 1-1.72.9 7 7 0 0 1-2.12.32m6.27-.2v-10.1h2.48v3.96h4.56v-3.96h2.48V120h-2.48v-4.22h-4.56V120zm12.364 0v-10.1h2.26v7.64h-.6l5.74-7.64h2.06V120h-2.26v-7.66h.62l-5.76 7.66zm12.304 0v-10.1h2.26v7.64h-.6l5.74-7.64h2.06V120h-2.26v-7.66h.62l-5.76 7.66zm4.72-11.02q-1 0-1.76-.32a3.46 3.46 0 0 1-1.26-.94 3.85 3.85 0 0 1-.72-1.46l1.28-.44q.34.92.94 1.36.6.42 1.54.42t1.54-.42.98-1.34l1.22.42q-.42 1.34-1.4 2.04-.96.68-2.36.68m17.813 11.22q-2.38 0-3.8-1.44-1.4-1.44-1.4-4.22v-1.72q0-2.86 1.3-4.6t3.92-2.3l3.7-.84.68 1.96-4.16.92q-1.04.22-1.72.84a3.8 3.8 0 0 0-1.02 1.44q-.34.84-.34 1.8v1.06h-.34q.22-.9.74-1.56a3.56 3.56 0 0 1 1.32-1.06q.8-.38 1.82-.38 1.28 0 2.24.6.98.58 1.54 1.7.56 1.1.56 2.64 0 1.58-.64 2.74-.62 1.16-1.76 1.8-1.119.62-2.64.62m-.08-1.9q1.24 0 1.92-.78.7-.8.7-2.38 0-1.54-.7-2.34-.699-.82-1.92-.82-1.22 0-1.92.8t-.7 2.28q0 1.62.7 2.44.7.8 1.92.8m7.569 6.02v-11.9q0-.62-.04-1.26a20 20 0 0 0-.12-1.26h2.42l.22 2.12h-.22q.3-1.06 1.26-1.68.98-.64 2.26-.64 1.34 0 2.34.64.999.62 1.56 1.8.56 1.16.56 2.8t-.56 2.82-1.56 1.82q-1 .62-2.34.62-1.26 0-2.22-.62t-1.28-1.66h.22v6.4zm5.08-6.04q1.2 0 1.92-.82.72-.84.72-2.52t-.72-2.5-1.92-.82q-1.18 0-1.9.82t-.72 2.5.72 2.52q.72.82 1.9.82m11.496 1.92q-1.32 0-2.32-.62-1-.64-1.56-1.82t-.56-2.82.56-2.8q.56-1.18 1.56-1.8 1-.64 2.32-.64 1.28 0 2.24.64.98.62 1.3 1.68h-.22l.22-2.12h2.4l-.12 1.26q-.04.64-.04 1.26V120h-2.48l-.02-2.08h.24q-.32 1.04-1.3 1.66-.981.62-2.22.62m.7-1.92q1.18 0 1.9-.82.72-.84.72-2.52t-.72-2.5-1.9-.82-1.9.82-.72 2.5.7 2.52q.72.82 1.92.82m7.875 6.26-.58-1.98a9.5 9.5 0 0 0 1.58-.46q.64-.26 1.06-.68t.7-1.08l.5-1.18-.06.98-4.4-10.24h2.66l3.16 7.88h-.58l3.18-7.88h2.52l-4.6 10.66q-.46 1.08-1 1.78-.54.72-1.16 1.14-.62.44-1.36.68a10.7 10.7 0 0 1-1.62.38m14.876-4.34q-1.36 0-2.56-.32-1.18-.32-1.98-.92l.7-1.64q.74.54 1.72.82.999.28 2.1.28 1.28 0 1.86-.34.6-.36.6-1.04 0-.64-.46-.96-.46-.34-1.36-.34h-2.62v-1.72h2.38q.819 0 1.26-.32.44-.32.44-.9 0-.62-.54-.98-.52-.36-1.72-.36-1.04 0-1.9.26a6 6 0 0 0-1.62.72l-.68-1.56q.819-.58 1.98-.88 1.18-.3 2.56-.3 2.02 0 3.1.74t1.08 2.1q0 .92-.64 1.58-.621.66-1.68.82v-.28q1.24.08 1.96.74t.72 1.78q0 1.38-1.22 2.2-1.221.82-3.48.82m11.845 0q-2.54 0-3.98-1.4t-1.44-3.84q0-1.58.62-2.76a4.6 4.6 0 0 1 1.72-1.84q1.12-.66 2.6-.66 1.46 0 2.44.62t1.48 1.74q.52 1.12.52 2.62v.66h-7.36v-1.32h5.58l-.34.28q0-1.4-.6-2.14-.58-.74-1.7-.74-1.24 0-1.92.88-.66.88-.66 2.46v.26q0 1.64.8 2.46.82.8 2.3.8a5.6 5.6 0 0 0 1.6-.22q.76-.24 1.44-.76l.74 1.68a5.3 5.3 0 0 1-1.72.9 7 7 0 0 1-2.12.32m6.35 4.12v-11.9a20 20 0 0 0-.16-2.52h2.42l.22 2.12h-.22q.3-1.06 1.26-1.68.98-.64 2.26-.64 1.341 0 2.34.64 1 .62 1.56 1.8.56 1.16.56 2.8t-.56 2.82-1.56 1.82q-.999.62-2.34.62-1.26 0-2.22-.62t-1.28-1.66h.22v6.4zm5.08-6.04q1.2 0 1.92-.82.72-.84.72-2.52t-.72-2.5-1.92-.82q-1.18 0-1.9.82t-.72 2.5.72 2.52q.72.82 1.9.82m11.496 1.92q-1.32 0-2.32-.62-.999-.64-1.56-1.82-.56-1.18-.56-2.82t.56-2.8q.561-1.18 1.56-1.8 1-.64 2.32-.64 1.28 0 2.24.64.98.62 1.3 1.68h-.22l.22-2.12h2.4l-.12 1.26q-.04.64-.04 1.26V120h-2.48l-.02-2.08h.24q-.32 1.04-1.3 1.66t-2.22.62m.7-1.92q1.18 0 1.9-.82.72-.84.72-2.52t-.72-2.5-1.9-.82-1.9.82-.72 2.5.7 2.52q.72.82 1.92.82"/></svg>