<svg xmlns="http://www.w3.org/2000/svg" width="611" height="143" fill="none"><path fill="#000" d="M611 20c0-11.046-8.954-20-20-20H130c-11.046 0-20 8.954-20 20v20c0 11.046-8.954 20-20 20H20C8.954 60 0 68.954 0 80v43c0 11.046 8.954 20 20 20h571c11.046 0 20-8.954 20-20z"/><rect width="99.038" height="50" fill="#5329FF" rx="15"/><path fill="#5329FF" d="M28.057 31.2q-1.46 0-2.8-.42-1.34-.44-2.2-1.2l.84-1.94q.94.72 1.94 1.06 1.02.34 2.14.34 1.36 0 2.06-.54t.7-1.58q0-1-.7-1.5-.68-.52-2-.52h-2.28v-2.06h2.06q1.14 0 1.82-.56t.68-1.54q0-.92-.64-1.4-.62-.48-1.8-.48-2.12 0-3.74 1.44l-.84-1.92q.86-.8 2.12-1.24a8.2 8.2 0 0 1 2.68-.44q2.2 0 3.44 1 1.26.98 1.26 2.74 0 1.26-.72 2.18-.7.9-1.94 1.2v-.24q1.46.24 2.26 1.2.82.94.82 2.36 0 1.88-1.38 2.98-1.38 1.08-3.78 1.08m13.12-.2V20.9h2.34v8.18h3.56V20.9h2.32v8.18h3.56V20.9h2.34V31zm20.934.2q-1.32 0-2.32-.62-1-.64-1.56-1.82t-.56-2.82.56-2.8q.56-1.18 1.56-1.8 1-.64 2.32-.64 1.28 0 2.24.64.98.62 1.3 1.68h-.22l.22-2.12h2.4l-.12 1.26q-.04.64-.04 1.26V31h-2.48l-.02-2.08h.24q-.32 1.04-1.3 1.66t-2.22.62m.7-1.92q1.18 0 1.9-.82.72-.84.72-2.52t-.72-2.5-1.9-.82-1.9.82-.72 2.5.7 2.52q.72.82 1.92.82M70.807 31V20.9h7.58v1.96h-5.08V31z"/><path fill="#000" d="M19.56 93V78.9H31.9V93h-2.56V81H22.1v12zm20.27.2q-2.54 0-3.98-1.4t-1.44-3.84q0-1.58.62-2.76t1.72-1.84q1.12-.66 2.6-.66 1.46 0 2.44.62t1.48 1.74q.52 1.12.52 2.62v.66h-7.36v-1.32h5.58l-.34.28q0-1.4-.6-2.14-.58-.74-1.7-.74-1.24 0-1.92.88-.66.88-.66 2.46v.26q0 1.64.8 2.46.82.8 2.3.8a5.6 5.6 0 0 0 1.6-.22q.759-.24 1.44-.76l.74 1.68a5.3 5.3 0 0 1-1.72.9 6.9 6.9 0 0 1-2.12.32m6.35 4.12v-11.9a20 20 0 0 0-.16-2.52h2.42l.22 2.12h-.22q.3-1.06 1.26-1.68.98-.64 2.26-.64 1.34 0 2.34.64.999.62 1.56 1.8.56 1.16.56 2.8t-.56 2.82-1.56 1.82q-1 .62-2.34.62-1.26 0-2.22-.62t-1.28-1.66h.22v6.4zm5.08-6.04q1.2 0 1.92-.82.72-.84.72-2.52t-.72-2.5-1.92-.82q-1.18 0-1.9.82t-.72 2.5.72 2.52q.72.82 1.9.82m12.476 1.92q-2.54 0-3.98-1.4t-1.44-3.84q0-1.58.62-2.76t1.72-1.84q1.12-.66 2.6-.66 1.46 0 2.44.62t1.48 1.74q.52 1.12.52 2.62v.66h-7.36v-1.32h5.58l-.34.28q0-1.4-.6-2.14-.58-.74-1.7-.74-1.24 0-1.92.88-.66.88-.66 2.46v.26q0 1.64.8 2.46.82.8 2.3.8a5.6 5.6 0 0 0 1.6-.22q.759-.24 1.44-.76l.74 1.68a5.3 5.3 0 0 1-1.72.9 6.9 6.9 0 0 1-2.12.32m4.595-.2 4.7-5.78v1.14l-4.44-5.46h2.96l2.9 3.74h-.9l2.9-3.74h2.94l-4.4 5.46v-1.14L79.67 93h-2.98l-3.14-4.02h.9L71.29 93zm17.194.2q-1.56 0-2.7-.64a4.5 4.5 0 0 1-1.78-1.82q-.62-1.18-.62-2.8t.62-2.78a4.5 4.5 0 0 1 1.78-1.82q1.14-.64 2.7-.64t2.7.64a4.34 4.34 0 0 1 1.78 1.82q.64 1.16.64 2.78t-.64 2.8a4.34 4.34 0 0 1-1.78 1.82q-1.14.64-2.7.64m0-1.92q1.18 0 1.88-.82.7-.84.7-2.52t-.7-2.5-1.88-.82-1.88.82-.7 2.5.7 2.52q.7.82 1.88.82m6.589 4.32v-4.5h1.16q.6-.94.86-2.2.28-1.28.28-3.12V82.9h7.78v8.2h1.64v4.5h-2.12V93h-7.48v2.6zm3.4-4.48h4.34v-6.34h-3.32v1.56q0 1.34-.26 2.62t-.76 2.16M105.67 93V82.9h2.26v7.64h-.6l5.74-7.64h2.06V93h-2.26v-7.66h.62L107.73 93zm14.485 0v-8.14h-3.46V82.9h9.42v1.96h-3.48V93zm12.37.2q-2.54 0-3.98-1.4t-1.44-3.84q0-1.58.62-2.76t1.72-1.84q1.12-.66 2.6-.66 1.46 0 2.44.62t1.48 1.74q.52 1.12.52 2.62v.66h-7.36v-1.32h5.58l-.34.28q0-1.4-.6-2.14-.58-.74-1.7-.74-1.24 0-1.92.88-.66.88-.66 2.46v.26q0 1.64.8 2.46.82.8 2.3.8.86 0 1.6-.22a4.7 4.7 0 0 0 1.44-.76l.74 1.68a5.3 5.3 0 0 1-1.72.9 7 7 0 0 1-2.12.32m11.758-.2V82.9h2.48v3.96h4.56V82.9h2.48V93h-2.48v-4.22h-4.56V93zm16.344.2q-1.32 0-2.32-.62-1-.64-1.56-1.82t-.56-2.82.56-2.8q.56-1.18 1.56-1.8 1-.64 2.32-.64 1.28 0 2.24.64.98.62 1.3 1.68h-.22l.22-2.12h2.4l-.12 1.26q-.04.64-.04 1.26V93h-2.48l-.02-2.08h.24q-.32 1.04-1.3 1.66-.981.62-2.22.62m.7-1.92q1.18 0 1.9-.82.72-.84.72-2.52t-.72-2.5-1.9-.82-1.9.82-.72 2.5.7 2.52q.72.82 1.92.82m13.224 2-.78-1.96q.66-.24 1.1-.62.459-.4.72-1 .28-.62.4-1.52.12-.92.12-2.18v-3.1h8.04V93h-2.48v-8.18h-3.28v1.26q0 2.18-.4 3.66-.4 1.46-1.24 2.32t-2.2 1.22m21.647-.08q-2.1 0-3.44-1.16-1.32-1.18-1.58-3.26h-1.74V93h-2.44V82.9h2.44v3.96h1.76q.32-1.96 1.64-3.06t3.36-1.1q1.56 0 2.7.64a4.2 4.2 0 0 1 1.78 1.8q.64 1.16.64 2.8 0 1.62-.64 2.8a4.34 4.34 0 0 1-1.78 1.82q-1.14.64-2.7.64m0-1.9q1.18 0 1.9-.82.72-.84.72-2.54 0-1.68-.72-2.5-.72-.84-1.9-.84-1.2 0-1.92.84-.7.82-.7 2.5 0 1.7.7 2.54.72.82 1.92.82m12.22 1.9q-2.38 0-3.8-1.44-1.4-1.44-1.4-4.22v-1.72q0-2.86 1.3-4.6t3.92-2.3l3.7-.84.68 1.96-4.16.92q-1.04.22-1.72.84-.681.6-1.02 1.44-.34.84-.34 1.8v1.06h-.34q.22-.9.74-1.56a3.54 3.54 0 0 1 1.32-1.06q.8-.38 1.82-.38 1.28 0 2.24.6.98.58 1.54 1.7.56 1.1.56 2.64 0 1.58-.64 2.74-.62 1.16-1.76 1.8-1.12.62-2.64.62m-.08-1.9q1.239 0 1.92-.78.7-.8.7-2.38 0-1.54-.7-2.34-.7-.82-1.92-.82-1.221 0-1.92.8-.7.8-.7 2.28 0 1.62.7 2.44.699.8 1.92.8m7.212 6.24-.58-1.98a9.5 9.5 0 0 0 1.58-.46q.64-.26 1.06-.68t.7-1.08l.5-1.18-.06.98-4.4-10.24h2.66l3.16 7.88h-.58l3.18-7.88h2.52l-4.6 10.66q-.46 1.08-1 1.78-.54.72-1.16 1.14a5 5 0 0 1-1.36.68q-.74.24-1.62.38m20.453-4.34q-2.1 0-3.44-1.16-1.32-1.18-1.58-3.26h-1.74V93h-2.44V82.9h2.44v3.96h1.76q.32-1.96 1.64-3.06t3.36-1.1q1.56 0 2.7.64a4.22 4.22 0 0 1 1.78 1.8q.64 1.16.64 2.8 0 1.62-.64 2.8a4.35 4.35 0 0 1-1.78 1.82q-1.14.64-2.7.64m0-1.9q1.18 0 1.9-.82.72-.84.72-2.54 0-1.68-.72-2.5-.72-.84-1.9-.84-1.2 0-1.92.84-.7.82-.7 2.5 0 1.7.7 2.54.72.82 1.92.82m17.688 1.9q-1.56 0-2.74-.64a4.46 4.46 0 0 1-1.8-1.82q-.64-1.2-.64-2.84t.64-2.8a4.5 4.5 0 0 1 1.82-1.78q1.16-.62 2.72-.62 1 0 1.94.32.96.3 1.56.88l-.76 1.74a3.5 3.5 0 0 0-1.22-.74 3.5 3.5 0 0 0-1.3-.26q-1.341 0-2.1.84-.74.84-.74 2.44t.74 2.46q.759.86 2.1.86.62 0 1.28-.24.68-.24 1.24-.74l.76 1.72q-.62.58-1.58.9a5.9 5.9 0 0 1-1.92.32m7.811-.2v-8.14h-3.46V82.9h9.42v1.96h-3.48V93zm7.588 4.32v-11.9a20 20 0 0 0-.16-2.52h2.42l.22 2.12h-.22q.3-1.06 1.26-1.68.98-.64 2.26-.64 1.34 0 2.34.64 1 .62 1.56 1.8.56 1.16.56 2.8t-.56 2.82-1.56 1.82q-1 .62-2.34.62-1.26 0-2.22-.62t-1.28-1.66h.22v6.4zm5.08-6.04q1.2 0 1.92-.82.72-.84.72-2.52t-.72-2.5-1.92-.82q-1.18 0-1.9.82t-.72 2.5.72 2.52q.72.82 1.9.82m11.496 1.92q-1.32 0-2.32-.62-1-.64-1.56-1.82t-.56-2.82.56-2.8q.56-1.18 1.56-1.8 1-.64 2.32-.64 1.28 0 2.24.64.98.62 1.3 1.68h-.22l.22-2.12h2.4l-.12 1.26q-.04.64-.04 1.26V93h-2.48l-.02-2.08h.24q-.32 1.04-1.3 1.66-.981.62-2.22.62m.7-1.92q1.18 0 1.9-.82.72-.84.72-2.52t-.72-2.5-1.9-.82-1.9.82-.72 2.5.7 2.52q.72.82 1.92.82m7.995 1.72V82.9h2.48v3.96h4.56V82.9h2.48V93h-2.48v-4.22h-4.56V93zm12.364 0V82.9h2.26v7.64h-.6l5.74-7.64h2.06V93h-2.26v-7.66h.62l-5.76 7.66zm21.064 2.6V93h-8.76V82.9h2.48v8.18h4.28V82.9h2.46v8.18h1.64v4.52zm3.816 1.94-.58-1.98a9.6 9.6 0 0 0 1.58-.46q.64-.26 1.06-.68t.7-1.08l.5-1.18-.06.98-4.4-10.24h2.66l3.16 7.88h-.58l3.18-7.88h2.52l-4.6 10.66q-.46 1.08-1 1.78-.54.72-1.16 1.14-.62.44-1.36.68t-1.62.38M350.526 93v-8.14h-3.46V82.9h9.42v1.96h-3.48V93zm12.05.2q-1.56 0-2.7-.64a4.5 4.5 0 0 1-1.78-1.82q-.62-1.18-.62-2.8t.62-2.78a4.5 4.5 0 0 1 1.78-1.82q1.14-.64 2.7-.64t2.7.64a4.35 4.35 0 0 1 1.78 1.82q.64 1.16.64 2.78t-.64 2.8a4.35 4.35 0 0 1-1.78 1.82q-1.14.64-2.7.64m0-1.92q1.18 0 1.88-.82.7-.84.7-2.52t-.7-2.5-1.88-.82-1.88.82-.7 2.5.7 2.52q.7.82 1.88.82m7.489 1.72V82.9h5.38q1.9 0 2.78.7.88.68.88 1.94 0 .96-.64 1.6t-1.7.8v-.28q1.3.08 2 .76t.7 1.76q0 1.3-1 2.06t-2.84.76zm2.32-1.54h2.98q.88 0 1.34-.36.48-.36.48-1.06t-.48-1.06q-.46-.36-1.34-.36h-2.98zm0-4.38h2.76q.8 0 1.24-.34.44-.36.44-1t-.44-.98-1.24-.34h-2.76zm13.242 6.12q-1.32 0-2.32-.62-1-.64-1.56-1.82t-.56-2.82.56-2.8q.56-1.18 1.56-1.8 1-.64 2.32-.64 1.28 0 2.24.64.98.62 1.3 1.68h-.22l.22-2.12h2.4l-.12 1.26q-.04.64-.04 1.26V93h-2.48l-.02-2.08h.24q-.32 1.04-1.3 1.66-.981.62-2.22.62m.7-1.92q1.18 0 1.9-.82.72-.84.72-2.52t-.72-2.5-1.9-.82-1.9.82-.72 2.5.7 2.52q.72.82 1.92.82m8.075 6.04v-11.9a20 20 0 0 0-.16-2.52h2.42l.22 2.12h-.22q.3-1.06 1.26-1.68.98-.64 2.26-.64 1.341 0 2.34.64 1 .62 1.56 1.8.56 1.16.56 2.8t-.56 2.82-1.56 1.82q-.999.62-2.34.62-1.26 0-2.22-.62t-1.28-1.66h.22v6.4zm5.08-6.04q1.2 0 1.92-.82.72-.84.72-2.52t-.72-2.5-1.92-.82q-1.18 0-1.9.82t-.72 2.5.72 2.52q.72.82 1.9.82m11.496 1.92q-1.32 0-2.32-.62-1-.64-1.56-1.82t-.56-2.82.56-2.8q.56-1.18 1.56-1.8 1-.64 2.32-.64 1.28 0 2.24.64.98.62 1.3 1.68h-.22l.22-2.12h2.4l-.12 1.26q-.04.64-.04 1.26V93h-2.48l-.02-2.08h.24q-.32 1.04-1.3 1.66t-2.22.62m.7-1.92q1.18 0 1.9-.82.72-.84.72-2.52t-.72-2.5-1.9-.82-1.9.82-.72 2.5.7 2.52q.72.82 1.92.82M425.162 93V82.9h2.48v3.96h4.56V82.9h2.48V93h-2.48v-4.22h-4.56V93zm16.343.2q-1.32 0-2.32-.62-.999-.64-1.56-1.82-.56-1.18-.56-2.82t.56-2.8q.561-1.18 1.56-1.8 1-.64 2.32-.64 1.28 0 2.24.64.98.62 1.3 1.68h-.22l.22-2.12h2.4l-.12 1.26q-.04.64-.04 1.26V93h-2.48l-.02-2.08h.24q-.32 1.04-1.3 1.66t-2.22.62m.7-1.92q1.18 0 1.9-.82.72-.84.72-2.52t-.72-2.5-1.9-.82-1.9.82-.72 2.5.7 2.52q.72.82 1.92.82M459.75 93l-4.98-14.1h2.68l3.84 11.56h-.8l4.14-11.56h1.92l3.84 11.56h-.74l4.02-11.56h2.52L471.17 93h-2.14l-3.72-10.84h.44L461.89 93zm18.301 0V82.9h2.5V93zm-.14-12v-2.44h2.78V81zm5.355 12V78.28h2.5V93zm9.135.2q-1.32 0-2.34-.62-1-.64-1.56-1.82t-.56-2.82.56-2.8q.56-1.18 1.56-1.8 1.02-.64 2.34-.64 1.26 0 2.22.62.98.6 1.3 1.64h-.26v-6.68h2.5V93h-2.46v-2.14h.24q-.32 1.08-1.3 1.72-.96.62-2.24.62m.7-1.92q1.18 0 1.9-.82.72-.84.72-2.52t-.72-2.5-1.9-.82-1.92.82q-.72.82-.72 2.5t.72 2.52q.74.82 1.92.82m13.562 1.92q-1.28 0-2.24-.62-.96-.64-1.28-1.72h.22V93h-2.48V78.28h2.5v6.68h-.24a2.98 2.98 0 0 1 1.3-1.64q.96-.62 2.22-.62 1.341 0 2.34.64 1 .64 1.56 1.82.56 1.16.56 2.8t-.56 2.82q-.56 1.16-1.58 1.8-1 .62-2.32.62m-.7-1.92q1.18 0 1.9-.82.74-.82.74-2.5t-.74-2.5q-.72-.84-1.9-.84t-1.9.82-.72 2.5.72 2.52q.72.82 1.9.82m12.203 1.92q-2.54 0-3.98-1.4t-1.44-3.84q0-1.58.62-2.76t1.72-1.84q1.12-.66 2.6-.66 1.46 0 2.44.62t1.48 1.74q.52 1.12.52 2.62v.66h-7.36v-1.32h5.58l-.34.28q0-1.4-.6-2.14-.58-.74-1.7-.74-1.24 0-1.92.88-.66.88-.66 2.46v.26q0 1.64.8 2.46.82.8 2.3.8.86 0 1.6-.22a4.7 4.7 0 0 0 1.44-.76l.74 1.68a5.3 5.3 0 0 1-1.72.9 7 7 0 0 1-2.12.32m6.057-.2v-7.52q0-.64-.04-1.3a13 13 0 0 0-.1-1.28h2.42l.28 2.76h-.4q.2-1 .66-1.66.48-.66 1.16-.98a3.4 3.4 0 0 1 1.48-.32q.36 0 .58.04.22.02.44.1l-.02 2.2a2.8 2.8 0 0 0-.66-.2 4.5 4.5 0 0 0-.66-.04q-.86 0-1.46.36-.58.36-.88 1-.28.64-.28 1.46V93zm7.851 0v-7.52q0-.64-.04-1.3-.02-.66-.1-1.28h2.42l.28 2.76h-.4q.201-1 .66-1.66.48-.66 1.16-.98t1.48-.32q.36 0 .58.04.22.02.44.1l-.02 2.2a2.8 2.8 0 0 0-.66-.2 4.5 4.5 0 0 0-.66-.04q-.86 0-1.46.36-.58.36-.88 1-.28.64-.28 1.46V93zm7.872 0V82.9h2.5V93zm-.14-12v-2.44h2.78V81zm10.235 12.2q-2.54 0-3.98-1.4t-1.44-3.84q0-1.58.62-2.76t1.72-1.84q1.12-.66 2.6-.66 1.46 0 2.44.62t1.48 1.74q.52 1.12.52 2.62v.66h-7.36v-1.32h5.58l-.34.28q0-1.4-.6-2.14-.58-.74-1.7-.74-1.24 0-1.92.88-.66.88-.66 2.46v.26q0 1.64.8 2.46.82.8 2.3.8.86 0 1.6-.22a4.7 4.7 0 0 0 1.44-.76l.74 1.68a5.3 5.3 0 0 1-1.72.9 7 7 0 0 1-2.12.32m9.677 0q-1.3 0-2.4-.3-1.08-.32-1.82-.88l.7-1.68a6 6 0 0 0 1.68.8q.92.28 1.86.28 1 0 1.48-.34.5-.34.5-.92 0-.46-.32-.72-.3-.28-.98-.42l-2-.38q-1.28-.28-1.96-.96-.66-.68-.66-1.78 0-.94.5-1.66.52-.72 1.46-1.12.96-.42 2.24-.42 1.119 0 2.1.3.999.3 1.68.9l-.72 1.62a4.7 4.7 0 0 0-1.42-.78 4.7 4.7 0 0 0-1.56-.28q-1.04 0-1.52.38-.48.36-.48.94 0 .44.28.74.3.28.92.42l2 .38q1.34.26 2.02.92.7.64.7 1.76 0 1-.54 1.72t-1.5 1.1-2.24.38M19.42 120v-10.1h2.26v7.64h-.6l5.74-7.64h2.06V120h-2.26v-7.66h.62L21.48 120zm17.793 0v-10.1h2.26v7.64h-.6l5.74-7.64h2.06V120h-2.26v-7.66h.62l-5.76 7.66zm16.025.2q-1.36 0-2.56-.32-1.18-.32-1.98-.92l.7-1.64q.74.54 1.72.82a7.7 7.7 0 0 0 2.1.28q1.28 0 1.86-.34.6-.36.6-1.04 0-.64-.46-.96-.46-.34-1.36-.34h-2.62v-1.72h2.38q.819 0 1.26-.32.44-.32.44-.9 0-.62-.54-.98-.52-.36-1.72-.36-1.04 0-1.9.26-.861.24-1.62.72l-.68-1.56q.819-.58 1.98-.88 1.18-.3 2.56-.3 2.02 0 3.1.74t1.08 2.1a2.2 2.2 0 0 1-.64 1.58q-.621.66-1.68.82v-.28q1.24.08 1.96.74t.72 1.78q0 1.38-1.22 2.2-1.221.82-3.48.82m6.765 4.34-.58-1.98a9.5 9.5 0 0 0 1.58-.46q.64-.26 1.06-.68t.7-1.08l.5-1.18-.06.98-4.4-10.24h2.66l3.16 7.88h-.58l3.18-7.88h2.52l-4.6 10.66q-.46 1.08-1 1.78-.54.72-1.16 1.14-.62.44-1.36.68t-1.62.38M77.676 120v-3.68q-.56.26-1.16.4t-1.26.14q-2.22 0-3.32-1.06-1.08-1.06-1.08-3.16v-2.74h2.48v2.52q0 1.28.56 1.86.56.56 1.8.56.58 0 1.04-.12t.88-.38v-4.44h2.48V120zm9.24.2q-1.32 0-2.32-.62-1-.64-1.56-1.82t-.56-2.82.56-2.8q.56-1.18 1.56-1.8 1-.64 2.32-.64 1.28 0 2.24.64.98.62 1.3 1.68h-.22l.22-2.12h2.4l-.12 1.26q-.04.64-.04 1.26V120h-2.48l-.02-2.08h.24q-.32 1.04-1.3 1.66-.981.62-2.22.62m.7-1.92q1.18 0 1.9-.82.72-.84.72-2.52t-.72-2.5-1.9-.82-1.9.82-.72 2.5.7 2.52q.72.82 1.92.82M95.61 120v-10.1h2.26v7.64h-.6l5.74-7.64h2.06V120h-2.26v-7.66h.62l-5.76 7.66zm4.72-11.02q-1 0-1.76-.32a3.44 3.44 0 0 1-1.26-.94 3.84 3.84 0 0 1-.72-1.46l1.28-.44q.34.92.94 1.36.6.42 1.54.42t1.54-.42.98-1.34l1.22.42q-.42 1.34-1.4 2.04-.96.68-2.36.68m9.765 11.02v-8.14h-3.46v-1.96h9.42v1.96h-3.48V120zm12.37.2q-2.54 0-3.98-1.4t-1.44-3.84q0-1.58.62-2.76a4.6 4.6 0 0 1 1.72-1.84q1.12-.66 2.6-.66 1.46 0 2.44.62t1.48 1.74q.52 1.12.52 2.62v.66h-7.36v-1.32h5.58l-.34.28q0-1.4-.6-2.14-.58-.74-1.7-.74-1.24 0-1.92.88-.66.88-.66 2.46v.26q0 1.64.8 2.46.82.8 2.3.8a5.6 5.6 0 0 0 1.6-.22q.76-.24 1.44-.76l.74 1.68a5.3 5.3 0 0 1-1.72.9 7 7 0 0 1-2.12.32m10.859 2.4v-4.5h1.16q.6-.94.86-2.2.28-1.28.28-3.12v-2.88h7.78v8.2h1.64v4.5h-2.12V120h-7.48v2.6zm3.4-4.48h4.34v-6.34h-3.32v1.56q0 1.34-.26 2.62t-.76 2.16m14.136 2.08q-1.32 0-2.32-.62-1-.64-1.56-1.82t-.56-2.82.56-2.8q.56-1.18 1.56-1.8 1-.64 2.32-.64 1.28 0 2.24.64.98.62 1.3 1.68h-.22l.22-2.12h2.4l-.12 1.26q-.04.64-.04 1.26V120h-2.48l-.02-2.08h.24q-.32 1.04-1.3 1.66t-2.22.62m.7-1.92q1.18 0 1.9-.82.72-.84.72-2.52t-.72-2.5-1.9-.82-1.9.82-.72 2.5.7 2.52q.72.82 1.92.82m7.996 1.72v-10.1h2.48v3.96h4.56v-3.96h2.48V120h-2.48v-4.22h-4.56V120zm12.363 0v-10.1h2.48v3.96h4.56v-3.96h2.48V120h-2.48v-4.22h-4.56V120zm12.363 0v-10.1h2.48v3.38h2.66q2.02 0 3.04.86 1.02.84 1.02 2.44 0 1.04-.48 1.82-.48.76-1.4 1.18-.9.42-2.18.42zm2.48-1.64h2.32q1.02 0 1.56-.42.54-.44.54-1.32t-.54-1.28q-.519-.42-1.56-.42h-2.32zm7.98 1.64v-10.1h2.48V120zm10.282.2q-2.54 0-3.98-1.4t-1.44-3.84q0-1.58.62-2.76t1.72-1.84q1.12-.66 2.6-.66 1.46 0 2.44.62t1.48 1.74q.52 1.12.52 2.62v.66h-7.36v-1.32h5.58l-.34.28q0-1.4-.6-2.14-.58-.74-1.7-.74-1.24 0-1.92.88-.66.88-.66 2.46v.26q0 1.64.8 2.46.82.8 2.3.8.86 0 1.6-.22.759-.24 1.44-.76l.74 1.68a5.3 5.3 0 0 1-1.72.9 7 7 0 0 1-2.12.32"/></svg>