<svg xmlns="http://www.w3.org/2000/svg" width="581" height="63" fill="none"><rect width="581" height="63" fill="#5329FF" rx="8"/><path fill="#fff" d="M253.562 31.646q0-1.998.702-3.456t2.034-2.25q1.35-.792 3.204-.792 1.836 0 3.168.792t2.052 2.25q.738 1.458.738 3.438 0 1.998-.738 3.474a5.34 5.34 0 0 1-2.07 2.268q-1.332.792-3.15.792-1.854 0-3.186-.792-1.332-.81-2.052-2.268-.702-1.476-.702-3.456m1.962 0q0 2.304 1.008 3.6t2.97 1.296q1.908 0 2.952-1.278 1.044-1.296 1.044-3.618t-1.044-3.6q-1.026-1.278-2.952-1.278-1.962 0-2.97 1.278t-1.008 3.6M269.839 38v-7.614h-3.204v-1.458h8.226v1.458h-3.222V38zm6.476 0v-9.072h1.8v3.708h1.566l2.826-3.708h1.98l-3.384 4.464-.45-.576q.522.054.9.27.378.198.738.594t.738 1.044l1.89 3.276h-1.944l-1.62-2.772a3.5 3.5 0 0 0-.522-.72q-.252-.27-.576-.36a2.5 2.5 0 0 0-.792-.108h-1.35V38zm10.004 3.888V31.106q0-.522-.054-1.062a35 35 0 0 0-.09-1.116h1.764l.18 2.052h-.198a2.84 2.84 0 0 1 1.152-1.62q.882-.594 2.088-.594t2.106.576q.9.558 1.386 1.602.504 1.044.504 2.52 0 1.458-.504 2.52-.486 1.062-1.386 1.62t-2.106.558q-1.188 0-2.07-.576a2.83 2.83 0 0 1-1.152-1.602h.198v5.904zm4.392-5.148q1.188 0 1.89-.828.72-.828.72-2.448t-.72-2.43q-.702-.828-1.89-.828t-1.908.828q-.702.81-.702 2.43t.702 2.448q.72.828 1.908.828m6.716 1.26v-9.072h1.8v3.168h2.574q1.782 0 2.682.756.9.738.9 2.16 0 .918-.414 1.602-.414.666-1.224 1.026-.792.36-1.944.36zm1.8-1.242h2.376q1.026 0 1.548-.414.54-.432.54-1.314t-.54-1.278q-.522-.414-1.548-.414h-2.376zM306.661 38v-9.072h1.8V38zm6.456 0v-7.614h-3.204v-1.458h8.226v1.458h-3.222V38zm6.476 0v-9.072h1.8v3.168h2.574q1.782 0 2.682.756.9.738.9 2.16 0 .918-.414 1.602-.414.666-1.224 1.026-.792.36-1.944.36zm1.8-1.242h2.376q1.008 0 1.548-.414.54-.432.54-1.314t-.54-1.278q-.522-.414-1.548-.414h-2.376z"/></svg>