<svg xmlns="http://www.w3.org/2000/svg" width="611" height="188" fill="none"><path fill="#000" d="M611 20c0-11.046-8.954-20-20-20H130c-11.046 0-20 8.954-20 20v20c0 11.046-8.954 20-20 20H20C8.954 60 0 68.954 0 80v88c0 11.046 8.954 20 20 20h571c11.046 0 20-8.954 20-20z"/><rect width="99.038" height="50" fill="#5329FF" rx="15"/><path fill="#5329FF" d="M24.497 32v-2.14h3.24v-9.8h1.24l-4.16 2.48V20.1l3.66-2.2h1.84v11.96h3.04V32zm16.68 0V21.9h2.34v8.18h3.56V21.9h2.32v8.18h3.56V21.9h2.34V32zm20.934.2q-1.32 0-2.32-.62-1-.64-1.56-1.82t-.56-2.82.56-2.8q.56-1.18 1.56-1.8 1-.64 2.32-.64 1.28 0 2.24.64.98.62 1.3 1.68h-.22l.22-2.12h2.4l-.12 1.26q-.04.64-.04 1.26V32h-2.48l-.02-2.08h.24q-.32 1.04-1.3 1.66t-2.22.62m.7-1.92q1.18 0 1.9-.82.72-.84.72-2.52t-.72-2.5-1.9-.82-1.9.82-.72 2.5.7 2.52q.72.82 1.92.82M70.807 32V21.9h7.58v1.96h-5.08V32z"/><path fill="#000" d="M16.1 85.94q0-2.22.8-3.84.82-1.62 2.34-2.5 1.52-.9 3.62-.9 2.08 0 3.6.9 1.52.88 2.34 2.5.84 1.62.84 3.82 0 2.22-.84 3.86a6 6 0 0 1-2.34 2.52q-1.52.9-3.6.9-2.1 0-3.62-.9-1.5-.9-2.32-2.52-.82-1.64-.82-3.84m2.7 0q0 2.38 1.02 3.72T22.86 91q1.96 0 3.02-1.34t1.06-3.72q0-2.4-1.06-3.72-1.04-1.32-3.02-1.32-2.02 0-3.04 1.32t-1.02 3.72M34.342 93v-8.14h-3.46V82.9h9.42v1.96h-3.48V93zm7.508 0V82.9h2.48v3.96h1.52l2.96-3.96h2.68l-3.72 5.04-.54-.78q.56.06.98.3.44.24.82.68.399.42.78 1.08L51.93 93h-2.66l-1.72-3.04a3.4 3.4 0 0 0-.52-.72 1.4 1.4 0 0 0-.58-.36 2.6 2.6 0 0 0-.78-.1h-1.34V93zm11.486 4.32v-11.9a20 20 0 0 0-.16-2.52h2.42l.22 2.12h-.22q.3-1.06 1.26-1.68.98-.64 2.26-.64 1.34 0 2.34.64 1 .62 1.56 1.8.56 1.16.56 2.8t-.56 2.82-1.56 1.82q-1 .62-2.34.62-1.26 0-2.22-.62t-1.28-1.66h.22v6.4zm5.08-6.04q1.2 0 1.92-.82.72-.84.72-2.52t-.72-2.5-1.92-.82q-1.18 0-1.9.82t-.72 2.5.72 2.52q.72.82 1.9.82m12.156 1.92q-1.56 0-2.7-.64a4.5 4.5 0 0 1-1.78-1.82q-.62-1.18-.62-2.8t.62-2.78a4.5 4.5 0 0 1 1.78-1.82q1.14-.64 2.7-.64t2.7.64a4.34 4.34 0 0 1 1.78 1.82q.64 1.16.64 2.78t-.64 2.8a4.34 4.34 0 0 1-1.78 1.82q-1.14.64-2.7.64m0-1.92q1.18 0 1.88-.82.7-.84.7-2.52t-.7-2.5-1.88-.82-1.88.82-.7 2.5.7 2.52q.7.82 1.88.82M78.06 93V82.9h2.26v7.64h-.6l5.74-7.64h2.06V93h-2.26v-7.66h.62L80.12 93zm4.72-11.02q-1 0-1.76-.32a3.44 3.44 0 0 1-1.26-.94 3.85 3.85 0 0 1-.72-1.46l1.28-.44q.34.92.94 1.36.6.42 1.54.42t1.54-.42.98-1.34l1.22.42q-.42 1.34-1.4 2.04-.96.68-2.36.68M92.545 93v-8.14h-3.46V82.9h9.42v1.96h-3.48V93zm12.37.2q-2.54 0-3.98-1.4t-1.44-3.84q0-1.58.62-2.76t1.72-1.84q1.12-.66 2.6-.66 1.46 0 2.44.62t1.48 1.74q.52 1.12.52 2.62v.66h-7.36v-1.32h5.58l-.34.28q0-1.4-.6-2.14-.58-.74-1.7-.74-1.24 0-1.92.88-.66.88-.66 2.46v.26q0 1.64.8 2.46.82.8 2.3.8a5.6 5.6 0 0 0 1.6-.22q.76-.24 1.44-.76l.74 1.68a5.3 5.3 0 0 1-1.72.9 6.9 6.9 0 0 1-2.12.32m16.479 0q-1.56 0-2.74-.64a4.47 4.47 0 0 1-1.8-1.82q-.64-1.2-.64-2.84t.64-2.8a4.5 4.5 0 0 1 1.82-1.78q1.16-.62 2.72-.62a6 6 0 0 1 1.94.32q.96.3 1.56.88l-.76 1.74a3.5 3.5 0 0 0-1.22-.74 3.5 3.5 0 0 0-1.3-.26q-1.34 0-2.1.84-.74.84-.74 2.44t.74 2.46q.76.86 2.1.86.62 0 1.28-.24.68-.24 1.24-.74l.76 1.72q-.62.58-1.58.9a5.9 5.9 0 0 1-1.92.32m7.811-.2v-8.14h-3.46V82.9h9.42v1.96h-3.48V93zm7.588 4.32v-11.9a20 20 0 0 0-.16-2.52h2.42l.22 2.12h-.22q.3-1.06 1.26-1.68.98-.64 2.26-.64 1.34 0 2.34.64 1 .62 1.56 1.8.56 1.16.56 2.8t-.56 2.82-1.56 1.82q-1 .62-2.34.62-1.26 0-2.22-.62t-1.28-1.66h.22v6.4zm5.08-6.04q1.2 0 1.92-.82.72-.84.72-2.52t-.72-2.5-1.92-.82q-1.18 0-1.9.82t-.72 2.5.72 2.52q.72.82 1.9.82m11.496 1.92q-1.32 0-2.32-.62-1-.64-1.56-1.82t-.56-2.82.56-2.8q.56-1.18 1.56-1.8 1-.64 2.32-.64 1.28 0 2.24.64.98.62 1.3 1.68h-.22l.22-2.12h2.4l-.12 1.26q-.04.64-.04 1.26V93h-2.48l-.02-2.08h.24q-.32 1.04-1.3 1.66-.981.62-2.22.62m.7-1.92q1.18 0 1.9-.82.72-.84.72-2.52t-.72-2.5-1.9-.82-1.9.82-.72 2.5.7 2.52q.72.82 1.92.82m7.996 1.72V82.9h2.48v3.96h4.56V82.9h2.48V93h-2.48v-4.22h-4.56V93zm12.363 0V82.9h2.26v7.64h-.6l5.74-7.64h2.06V93h-2.26v-7.66h.62l-5.76 7.66zm21.065 2.6V93h-8.76V82.9h2.48v8.18h4.28V82.9h2.46v8.18h1.64v4.52zm3.815 1.94-.58-1.98a9.6 9.6 0 0 0 1.58-.46q.64-.26 1.06-.68t.7-1.08l.5-1.18-.06.98-4.4-10.24h2.66l3.16 7.88h-.58l3.18-7.88h2.52l-4.6 10.66q-.46 1.08-1 1.78-.54.72-1.16 1.14-.62.44-1.36.68t-1.62.38M216.049 93V82.9h9.46V93h-2.48v-8.18h-4.5V93zm12.045.28-.78-1.96q.66-.24 1.1-.62.459-.4.72-1 .28-.62.4-1.52.12-.92.12-2.18v-3.1h8.04V93h-2.48v-8.18h-3.28v1.26q0 2.18-.4 3.66-.4 1.46-1.24 2.32t-2.2 1.22m16.427-.08q-1.32 0-2.32-.62-1-.64-1.56-1.82t-.56-2.82.56-2.8q.56-1.18 1.56-1.8 1-.64 2.32-.64 1.28 0 2.24.64.98.62 1.3 1.68h-.22l.22-2.12h2.4l-.12 1.26q-.04.64-.04 1.26V93h-2.48l-.02-2.08h.24q-.32 1.04-1.3 1.66t-2.22.62m.7-1.92q1.18 0 1.9-.82.72-.84.72-2.52t-.72-2.5-1.9-.82-1.9.82-.72 2.5.7 2.52q.72.82 1.92.82m7.996 1.72V82.9h7.58v1.96h-5.08V93zm9.336 0V82.9h2.26v7.64h-.6l5.74-7.64h2.06V93h-2.26v-7.66h.62l-5.76 7.66zm12.305 0V82.9h2.48v3.96h4.56V82.9h2.48V93h-2.48v-4.22h-4.56V93zm16.343.2q-1.32 0-2.32-.62-1-.64-1.56-1.82t-.56-2.82.56-2.8q.56-1.18 1.56-1.8 1-.64 2.32-.64 1.28 0 2.24.64.98.62 1.3 1.68h-.22l.22-2.12h2.4l-.12 1.26q-.04.64-.04 1.26V93h-2.48l-.02-2.08h.24q-.32 1.04-1.3 1.66-.981.62-2.22.62m.7-1.92q1.18 0 1.9-.82.72-.84.72-2.52t-.72-2.5-1.9-.82-1.9.82-.72 2.5.7 2.52q.72.82 1.92.82M305.385 93V82.9h5.38q1.9 0 2.78.7.88.68.88 1.94 0 .96-.64 1.6t-1.7.8v-.28q1.3.08 2 .76t.7 1.76q0 1.3-1 2.06t-2.84.76zm2.32-1.54h2.98q.88 0 1.34-.36.48-.36.48-1.06t-.48-1.06q-.46-.36-1.34-.36h-2.98zm0-4.38h2.76q.8 0 1.24-.34.44-.36.44-1t-.44-.98-1.24-.34h-2.76zm14.75 5.92V82.9h2.26v7.64h-.6l5.74-7.64h2.06V93h-2.26v-7.66h.62l-5.76 7.66zm12.305 0V82.9h2.48v3.96h4.56V82.9h2.48V93h-2.48v-4.22h-4.56V93zm14.543 0v-8.14h-3.46V82.9h9.42v1.96h-3.48V93zm12.37.2q-2.54 0-3.98-1.4t-1.44-3.84q0-1.58.62-2.76t1.72-1.84q1.12-.66 2.6-.66 1.46 0 2.44.62t1.48 1.74q.52 1.12.52 2.62v.66h-7.36v-1.32h5.58l-.34.28q0-1.4-.6-2.14-.58-.74-1.7-.74-1.24 0-1.92.88-.66.88-.66 2.46v.26q0 1.64.8 2.46.82.8 2.3.8a5.6 5.6 0 0 0 1.6-.22q.76-.24 1.44-.76l.74 1.68a5.3 5.3 0 0 1-1.72.9 6.9 6.9 0 0 1-2.12.32m6.35 4.12v-11.9a20 20 0 0 0-.16-2.52h2.42l.22 2.12h-.22q.3-1.06 1.26-1.68.98-.64 2.26-.64 1.341 0 2.34.64 1 .62 1.56 1.8.56 1.16.56 2.8t-.56 2.82-1.56 1.82q-.999.62-2.34.62-1.26 0-2.22-.62t-1.28-1.66h.22v6.4zm5.08-6.04q1.2 0 1.92-.82.72-.84.72-2.52t-.72-2.5-1.92-.82q-1.18 0-1.9.82t-.72 2.5.72 2.52q.72.82 1.9.82m7.516 1.72V82.9h2.48v3.96h4.56V82.9h2.48V93h-2.48v-4.22h-4.56V93zm17.324.2q-2.54 0-3.98-1.4t-1.44-3.84q0-1.58.62-2.76t1.72-1.84q1.12-.66 2.6-.66 1.46 0 2.44.62t1.48 1.74q.52 1.12.52 2.62v.66h-7.36v-1.32h5.58l-.34.28q0-1.4-.6-2.14-.58-.74-1.7-.74-1.24 0-1.92.88-.66.88-.66 2.46v.26q0 1.64.8 2.46.82.8 2.3.8.86 0 1.6-.22a4.7 4.7 0 0 0 1.44-.76l.74 1.68a5.3 5.3 0 0 1-1.72.9 7 7 0 0 1-2.12.32m8.45-.2v-8.14h-3.46V82.9h9.42v1.96h-3.48V93zm7.427-4.52V86.5h6.08v1.98zm8.85 4.52V82.9h2.08l3.48 6.04 3.48-6.04h2.08V93h-2.2v-7.3h.46l-3.24 5.66h-1.16l-3.24-5.66h.46V93zm17.945.2q-1.32 0-2.32-.62-1-.64-1.56-1.82t-.56-2.82.56-2.8q.56-1.18 1.56-1.8 1-.64 2.32-.64 1.28 0 2.24.64.98.62 1.3 1.68h-.22l.22-2.12h2.4l-.12 1.26q-.04.64-.04 1.26V93h-2.48l-.02-2.08h.24q-.32 1.04-1.3 1.66t-2.22.62m.7-1.92q1.18 0 1.9-.82.72-.84.72-2.52t-.72-2.5-1.9-.82-1.9.82-.72 2.5.7 2.52q.72.82 1.92.82m7.996 1.72V82.9h7.58v1.96h-5.08V93zm13.316.2q-1.32 0-2.32-.62-1-.64-1.56-1.82t-.56-2.82.56-2.8q.56-1.18 1.56-1.8 1-.64 2.32-.64 1.28 0 2.24.64.98.62 1.3 1.68h-.22l.22-2.12h2.4l-.12 1.26q-.04.64-.04 1.26V93h-2.48l-.02-2.08h.24q-.32 1.04-1.3 1.66-.981.62-2.22.62m.7-1.92q1.18 0 1.9-.82.72-.84.72-2.52t-.72-2.5-1.9-.82-1.9.82-.72 2.5.7 2.52q.72.82 1.92.82m11.715 1.92q-1.36 0-2.56-.32-1.179-.32-1.98-.92l.7-1.64a5.4 5.4 0 0 0 1.72.82q1 .28 2.1.28 1.281 0 1.86-.34.6-.36.6-1.04 0-.64-.46-.96-.46-.34-1.36-.34h-2.62v-1.72h2.38q.82 0 1.26-.32t.44-.9q0-.62-.54-.98-.52-.36-1.72-.36-1.04 0-1.9.26-.86.24-1.62.72l-.68-1.56q.82-.58 1.98-.88 1.18-.3 2.56-.3 2.02 0 3.1.74t1.08 2.1q0 .92-.64 1.58-.62.66-1.68.82v-.28q1.24.08 1.96.74t.72 1.78q0 1.38-1.22 2.2t-3.48.82m6.886-.2V82.9h2.26v7.64h-.6l5.74-7.64h2.06V93h-2.26v-7.66h.62l-5.76 7.66zm12.305 0V82.9h2.48v3.96h4.56V82.9h2.48V93h-2.48v-4.22h-4.56V93zm22.431.2q-1.56 0-2.74-.64a4.47 4.47 0 0 1-1.8-1.82q-.64-1.2-.64-2.84t.64-2.8a4.5 4.5 0 0 1 1.82-1.78q1.16-.62 2.72-.62a6 6 0 0 1 1.94.32q.96.3 1.56.88l-.76 1.74a3.5 3.5 0 0 0-1.22-.74 3.5 3.5 0 0 0-1.3-.26q-1.34 0-2.1.84-.74.84-.74 2.44t.74 2.46q.76.86 2.1.86.62 0 1.28-.24.68-.24 1.24-.74l.76 1.72q-.62.58-1.58.9a5.9 5.9 0 0 1-1.92.32m5.438-.2V78.28h2.5v6.64h-.28q.46-1.08 1.42-1.64.96-.58 2.2-.58 1.8 0 2.68 1.02.88 1 .88 3.06V93h-2.5v-6.1q0-1.18-.46-1.7-.44-.54-1.42-.54-1.14 0-1.84.72-.68.7-.68 1.88V93zm12.031 0v-7.52q0-.64-.04-1.3-.02-.66-.1-1.28h2.42l.28 2.76h-.4q.2-1 .66-1.66.48-.66 1.16-.98t1.48-.32q.36 0 .58.04.22.02.44.1l-.02 2.2a2.8 2.8 0 0 0-.66-.2 4.5 4.5 0 0 0-.66-.04q-.86 0-1.46.36-.58.36-.88 1-.28.64-.28 1.46V93zm12.275.2q-1.56 0-2.7-.64a4.5 4.5 0 0 1-1.78-1.82q-.62-1.18-.62-2.8t.62-2.78a4.5 4.5 0 0 1 1.78-1.82q1.14-.64 2.7-.64t2.7.64a4.33 4.33 0 0 1 1.78 1.82q.64 1.16.64 2.78t-.64 2.8a4.33 4.33 0 0 1-1.78 1.82q-1.14.64-2.7.64m0-1.92q1.18 0 1.88-.82.7-.84.7-2.52t-.7-2.5-1.88-.82-1.88.82-.7 2.5.7 2.52q.7.82 1.88.82m7.276 1.72v-7.58a20 20 0 0 0-.16-2.52h2.42l.2 2h-.24q.42-1.04 1.28-1.62.88-.58 2.08-.58t1.98.58q.8.56 1.12 1.76h-.32q.42-1.08 1.38-1.7.96-.64 2.2-.64 1.7 0 2.54 1t.84 3.12V93h-2.5v-6.08q0-1.2-.4-1.72-.4-.54-1.28-.54-1.04 0-1.64.74-.6.72-.6 1.96V93h-2.5v-6.08q0-1.2-.4-1.72-.4-.54-1.28-.54-1.04 0-1.64.74-.58.72-.58 1.96V93zm22.869.2q-2.54 0-3.98-1.4t-1.44-3.84q0-1.58.62-2.76t1.72-1.84q1.12-.66 2.6-.66 1.46 0 2.44.62t1.48 1.74q.52 1.12.52 2.62v.66h-7.36v-1.32h5.58l-.34.28q0-1.4-.6-2.14-.58-.74-1.7-.74-1.24 0-1.92.88-.66.88-.66 2.46v.26q0 1.64.8 2.46.82.8 2.3.8.86 0 1.6-.22a4.7 4.7 0 0 0 1.44-.76l.74 1.68a5.3 5.3 0 0 1-1.72.9 7 7 0 0 1-2.12.32"/></svg>