<svg xmlns="http://www.w3.org/2000/svg" width="35" height="35" fill="none"><rect width="35" height="35" fill="#000" rx="5"/><path fill="#000100" d="M7.375 16.996q8.054-3.6 10.74-4.745c5.114-2.182 6.177-2.561 6.87-2.574.152-.002.493.036.713.22.186.155.238.364.262.511s.055.482.031.744c-.277 2.987-1.476 10.235-2.086 13.58-.259 1.416-.767 1.89-1.259 1.937-1.07.1-1.881-.725-2.917-1.422-1.621-1.09-2.537-1.768-4.11-2.831-1.819-1.229-.64-1.904.396-3.008.272-.29 4.984-4.685 5.075-5.084.011-.05.022-.236-.086-.334s-.266-.065-.381-.038q-.244.057-7.768 5.266-1.102.777-1.997.757c-.658-.015-1.923-.381-2.863-.695-1.153-.385-2.07-.588-1.99-1.24q.062-.51 1.37-1.044"/></svg>