<svg xmlns="http://www.w3.org/2000/svg" width="24" height="24" fill="none"><path fill="#5329FF" fill-rule="evenodd" d="M6.902 5.456a.8.8 0 0 0-.188.05 138 138 0 0 0-2.572.226l-.162.016-.055.006h-.002a.75.75 0 0 0 .154 1.492l-.001-.007v.007l.055-.005.158-.016.59-.056c.503-.047 1.205-.11 2.005-.171C8.49 6.873 10.465 6.75 12 6.75s3.51.123 5.116.248a137 137 0 0 1 2.595.227l.159.016.053.005a.75.75 0 0 0 .154-1.492l-.057-.006-.162-.016-.599-.057c-.496-.046-1.186-.107-1.973-.169a.8.8 0 0 0-.164-.046 1.44 1.44 0 0 1-1.099-.88l-.09-.224A3.37 3.37 0 0 0 12.81 2.25h-1.347a3.32 3.32 0 0 0-3.081 2.078A1.82 1.82 0 0 1 6.93 5.453zm4.56-1.706c-.742 0-1.411.451-1.69 1.14q-.09.225-.21.43c.849-.042 1.69-.07 2.438-.07.83 0 1.775.034 2.719.085a3 3 0 0 1-.087-.193l-.09-.224A1.87 1.87 0 0 0 12.81 3.75z" clip-rule="evenodd"/><path fill="#5329FF" d="M18.747 9.065a.75.75 0 1 0-1.494-.13l-.805 9.26a2.25 2.25 0 0 1-2.242 2.055H9.394a2.25 2.25 0 0 1-2.248-2.152l-.397-9.13a.75.75 0 0 0-1.498.065l.397 9.13a3.75 3.75 0 0 0 3.746 3.587h4.812a3.75 3.75 0 0 0 3.736-3.425z"/><path fill="#5329FF" d="M9 17.25a.75.75 0 0 0 0 1.5h6a.75.75 0 0 0 0-1.5z"/></svg>