<svg xmlns="http://www.w3.org/2000/svg" width="32" height="33" fill="none"><path fill="#5329FF" d="M16.707 3.793a1 1 0 0 0-1.414 0L12.627 6.46a1 1 0 1 0 1.414 1.414l.96-.96v10.92a1 1 0 0 0 2 0V6.913l.959.96a1 1 0 1 0 1.414-1.414z"/><path fill="#5329FF" d="M5 20.5a3 3 0 0 1 3-3 1 1 0 1 0 0-2 5 5 0 0 0-5 5v2.667A6.333 6.333 0 0 0 9.334 29.5h13.333A6.333 6.333 0 0 0 29 23.167V20.5a5 5 0 0 0-5-5 1 1 0 0 0 0 2 3 3 0 0 1 3 3v2.667a4.333 4.333 0 0 1-4.333 4.333H9.334A4.333 4.333 0 0 1 5 23.167z"/></svg>