<svg xmlns="http://www.w3.org/2000/svg" width="80" height="44" fill="none"><path fill="url(#a)" d="M7.539 13.758H0l11.228 28.571h4.973l6.736-16.949 6.577 16.95h5.133l11.067-28.572h-7.699L31.599 29.9l-6.095-16.142H20.37L13.955 29.9z"/><path fill="url(#b)" fill-rule="evenodd" d="M55.262 0h-6.747v28.594h.012c.337 8.397 7.25 15.1 15.73 15.1C72.95 43.695 80 36.647 80 27.953S72.95 12.209 64.257 12.209a15.67 15.67 0 0 0-8.995 2.821zm17.67 27.952a8.675 8.675 0 1 1-17.35 0 8.675 8.675 0 0 1 17.35 0" clip-rule="evenodd"/><defs><linearGradient id="a" x1="31.597" x2="20.562" y1="13.758" y2="46.801" gradientUnits="userSpaceOnUse"><stop stop-color="#D923D0"/><stop offset="1" stop-color="#9223EB"/></linearGradient><linearGradient id="b" x1="70.276" x2="43.402" y1="0" y2="36.242" gradientUnits="userSpaceOnUse"><stop stop-color="#D923D0"/><stop offset="1" stop-color="#9223EB"/></linearGradient></defs></svg>