<svg xmlns="http://www.w3.org/2000/svg" width="573" height="43" fill="none"><rect width="573" height="43" fill="#F0AD00" rx="10"/><path fill="#fff" d="M17.95 31V13.375h7.7q2.9 0 4.475 1.375 1.6 1.376 1.6 3.825 0 1.624-.725 2.775-.7 1.15-2.025 1.775-1.325.6-3.125.6l.35-.475h.85q1.05 0 1.875.55t1.35 1.675L32.85 31H29.3l-2.6-5.725q-.35-.875-1.075-1.15-.7-.275-1.7-.275h-2.75V31zm3.225-9.525h3.95q1.7 0 2.575-.7.9-.724.9-2.1 0-1.375-.9-2.075-.875-.7-2.575-.7h-3.95zm18.832 9.775q-1.65 0-2.9-.775-1.251-.8-1.95-2.275t-.7-3.525.7-3.5q.699-1.475 1.95-2.25 1.25-.8 2.9-.8 1.6 0 2.8.8 1.224.775 1.625 2.1h-.275l.275-2.65h3l-.15 1.575q-.05.8-.05 1.575V31h-3.1l-.025-2.6h.3q-.4 1.3-1.625 2.075t-2.775.775m.875-2.4q1.475 0 2.375-1.025.9-1.05.9-3.15t-.9-3.125-2.375-1.025-2.375 1.025-.9 3.125.875 3.15q.9 1.025 2.4 1.025m14.653 2.4q-1.65 0-2.925-.775-1.251-.8-1.95-2.275t-.7-3.525.7-3.5q.699-1.475 1.95-2.25 1.275-.8 2.925-.8 1.575 0 2.775.775 1.224.75 1.625 2.05h-.325V12.6h3.125V31H59.66v-2.675h.3q-.4 1.35-1.625 2.15-1.2.775-2.8.775m.875-2.4q1.475 0 2.375-1.025.9-1.05.9-3.15t-.9-3.125-2.375-1.025q-1.476 0-2.4 1.025-.9 1.025-.9 3.125t.9 3.15q.924 1.025 2.4 1.025m14.603 2.4q-1.65 0-2.9-.775-1.251-.8-1.95-2.275t-.7-3.525.7-3.5q.699-1.475 1.95-2.25 1.25-.8 2.9-.8 1.6 0 2.8.8 1.225.775 1.624 2.1h-.275l.275-2.65h3l-.15 1.575q-.05.8-.05 1.575V31h-3.1l-.025-2.6h.3q-.4 1.3-1.625 2.075-1.224.775-2.775.775m.874-2.4q1.475 0 2.376-1.025.9-1.05.9-3.15t-.9-3.125-2.376-1.025-2.374 1.025-.9 3.125.874 3.15q.9 1.025 2.4 1.025M81.616 31v-9.4q0-.8-.05-1.625a16 16 0 0 0-.125-1.6h3.025l.35 3.45h-.5q.25-1.25.825-2.075.6-.825 1.45-1.225a4.3 4.3 0 0 1 1.85-.4q.45 0 .725.05.276.025.55.125l-.025 2.75a3.4 3.4 0 0 0-.825-.25 5.6 5.6 0 0 0-.825-.05q-1.075 0-1.825.45-.725.45-1.1 1.25-.35.8-.35 1.825V31zm15 0 7.975-17.625h2.7L115.365 31h-3.275l-2.15-4.95 1.3.875h-10.575l1.35-.875-2.15 4.95zm9.3-14.175-3.525 8.35-.65-.775h8.4l-.525.775-3.6-8.35zM117.065 31v-9.475a25 25 0 0 0-.2-3.15h3.025l.25 2.5h-.3q.6-1.325 1.775-2.025 1.176-.725 2.725-.725 2.225 0 3.35 1.25t1.125 3.9V31h-3.125v-7.575q0-1.525-.6-2.175-.574-.675-1.75-.675-1.45 0-2.3.9t-.85 2.4V31zm19.939.25q-1.65 0-2.9-.775-1.251-.8-1.95-2.275t-.7-3.525.7-3.5q.699-1.475 1.95-2.25 1.25-.8 2.9-.8 1.6 0 2.8.8 1.224.775 1.625 2.1h-.275l.275-2.65h3l-.15 1.575q-.05.8-.05 1.575V31h-3.1l-.025-2.6h.3q-.4 1.3-1.625 2.075t-2.775.775m.875-2.4q1.475 0 2.375-1.025.9-1.05.9-3.15t-.9-3.125-2.375-1.025q-1.476 0-2.375 1.025-.9 1.025-.9 3.125t.875 3.15q.9 1.025 2.4 1.025m9.753 2.15V12.6h3.125V31zm6.268 5.675-.725-2.475q1.176-.25 1.975-.575t1.325-.85.875-1.35l.625-1.475-.075 1.225-5.5-12.8h3.325l3.95 9.85h-.725l3.975-9.85h3.15l-5.75 13.325q-.575 1.35-1.25 2.225-.675.9-1.45 1.425a6.2 6.2 0 0 1-1.7.85q-.924.3-2.025.475m19.542-5.425q-2.25 0-3.4-1.175t-1.15-3.525v-5.825h-2.425v-2.35h2.425V15.15l3.125-.8v4.025h3.375v2.35h-3.375v5.625q0 1.3.5 1.825t1.375.525q.474 0 .8-.075.35-.075.675-.2V30.9q-.425.175-.95.25-.501.1-.975.1m4.072-.25V18.375h3.125V31zm-.175-15v-3.05h3.475V16zm12.494 15.25q-1.95 0-3.425-.8a5.58 5.58 0 0 1-2.25-2.275q-.8-1.5-.8-3.55t.8-3.5a5.6 5.6 0 0 1 2.275-2.225q1.45-.775 3.4-.775 1.25 0 2.425.4 1.2.375 1.95 1.1l-.95 2.175a4.4 4.4 0 0 0-1.525-.925 4.4 4.4 0 0 0-1.625-.325q-1.675 0-2.625 1.05-.925 1.05-.925 3.05t.925 3.075q.95 1.075 2.625 1.075.775 0 1.6-.3a4.6 4.6 0 0 0 1.55-.925l.95 2.15q-.775.725-1.975 1.125-1.174.4-2.4.4m11.599 0q-1.65 0-2.9-.775-1.25-.8-1.95-2.275t-.7-3.525.7-3.5q.7-1.475 1.95-2.25 1.25-.8 2.9-.8 1.6 0 2.8.8 1.226.775 1.625 2.1h-.275l.275-2.65h3l-.15 1.575q-.05.8-.05 1.575V31h-3.1l-.025-2.6h.3q-.4 1.3-1.625 2.075-1.224.775-2.775.775m.875-2.4q1.476 0 2.375-1.025.9-1.05.9-3.15t-.9-3.125-2.375-1.025-2.375 1.025-.9 3.125.875 3.15q.9 1.025 2.4 1.025M218.996 31V18.375h11.825V31h-3.1V20.775h-5.625V31zm21.181.25q-1.95 0-3.375-.8a5.6 5.6 0 0 1-2.225-2.275q-.775-1.475-.775-3.5t.775-3.475a5.6 5.6 0 0 1 2.225-2.275q1.425-.8 3.375-.8t3.375.8a5.43 5.43 0 0 1 2.225 2.275q.8 1.45.8 3.475t-.8 3.5a5.43 5.43 0 0 1-2.225 2.275q-1.425.8-3.375.8m0-2.4q1.474 0 2.35-1.025.875-1.05.875-3.15t-.875-3.125q-.876-1.025-2.35-1.025-1.476 0-2.35 1.025t-.875 3.125q0 2.1.875 3.15.874 1.025 2.35 1.025m8.236 5.4v-5.625h1.45q.75-1.175 1.075-2.75.35-1.6.35-3.9v-3.6h9.725v10.25h2.05v5.625h-2.65V31h-9.35v3.25zm4.25-5.6h5.425v-7.925h-4.15v1.95a16.5 16.5 0 0 1-.325 3.275q-.326 1.6-.95 2.7m18.595 2.6q-1.95 0-3.425-.8a5.58 5.58 0 0 1-2.25-2.275q-.8-1.5-.8-3.55t.8-3.5a5.6 5.6 0 0 1 2.275-2.225q1.45-.775 3.4-.775 1.25 0 2.425.4 1.2.375 1.95 1.1l-.95 2.175a4.4 4.4 0 0 0-1.525-.925 4.4 4.4 0 0 0-1.625-.325q-1.675 0-2.625 1.05-.925 1.05-.925 3.05t.925 3.075q.95 1.075 2.625 1.075.775 0 1.6-.3a4.6 4.6 0 0 0 1.55-.925l.95 2.15q-.775.725-1.975 1.125-1.175.4-2.4.4m7.039-.25V18.375h6.725q2.376 0 3.475.875 1.1.85 1.1 2.425 0 1.2-.8 2t-2.125 1v-.35q1.626.1 2.5.95t.875 2.2q0 1.625-1.25 2.575t-3.55.95zm2.9-1.925h3.725q1.1 0 1.675-.45.6-.45.6-1.325t-.6-1.325q-.574-.45-1.675-.45h-3.725zm0-5.475h3.45q1 0 1.55-.425.55-.45.55-1.25t-.55-1.225-1.55-.425h-3.45zm17.778 7.65q-3.175 0-4.975-1.75t-1.8-4.8q0-1.976.775-3.45t2.15-2.3q1.4-.825 3.25-.825 1.825 0 3.05.775 1.225.776 1.85 2.175.65 1.4.65 3.275v.825h-9.2v-1.65h6.975l-.425.35q0-1.75-.75-2.675-.725-.925-2.125-.925-1.55 0-2.4 1.1-.825 1.1-.825 3.075v.325q0 2.05 1 3.075 1.025 1 2.875 1a7 7 0 0 0 2-.275 5.9 5.9 0 0 0 1.8-.95l.925 2.1q-.9.725-2.15 1.125t-2.65.4m10.563-.25V20.825h-4.325v-2.45h11.775v2.45h-4.35V31zm9.384 0V18.375h2.825v9.55h-.75l7.175-9.55h2.575V31h-2.825v-9.575h.775l-7.2 9.575zm18.106 0V20.825h-4.325v-2.45h11.775v2.45h-4.35V31zm16.245 0V18.375h6.725q2.375 0 3.475.875 1.1.85 1.1 2.425 0 1.2-.8 2t-2.125 1v-.35q1.625.1 2.5.95t.875 2.2q0 1.625-1.25 2.575t-3.55.95zm2.9-1.925h3.725q1.1 0 1.675-.45.6-.45.6-1.325t-.6-1.325q-.575-.45-1.675-.45h-3.725zm0-5.475h3.45q1 0 1.55-.425.55-.45.55-1.25t-.55-1.225-1.55-.425h-3.45zm17.478 7.65q-1.95 0-3.425-.8a5.58 5.58 0 0 1-2.25-2.275q-.8-1.5-.8-3.55t.8-3.5a5.6 5.6 0 0 1 2.275-2.225q1.45-.775 3.4-.775 1.25 0 2.425.4 1.2.375 1.95 1.1l-.95 2.175a4.4 4.4 0 0 0-1.525-.925 4.4 4.4 0 0 0-1.625-.325q-1.675 0-2.625 1.05-.925 1.05-.925 3.05t.925 3.075q.95 1.075 2.625 1.075.774 0 1.6-.3a4.6 4.6 0 0 0 1.55-.925l.95 2.15q-.775.725-1.975 1.125-1.176.4-2.4.4m13.239 0q-3.175 0-4.975-1.75t-1.8-4.8q0-1.976.775-3.45t2.15-2.3q1.4-.825 3.25-.825 1.825 0 3.05.775 1.225.776 1.85 2.175.65 1.4.65 3.275v.825h-9.2v-1.65h6.975l-.425.35q0-1.75-.75-2.675-.725-.925-2.125-.925-1.55 0-2.4 1.1-.825 1.1-.825 3.075v.325q0 2.05 1 3.075 1.025 1 2.875 1a7 7 0 0 0 2-.275 5.9 5.9 0 0 0 1.8-.95l.925 2.1q-.9.725-2.15 1.125t-2.65.4m17.423-.25V20.825h-4.325v-2.45h11.775v2.45h-4.35V31zm15.063.25q-1.95 0-3.375-.8a5.6 5.6 0 0 1-2.225-2.275q-.775-1.475-.775-3.5t.775-3.475a5.6 5.6 0 0 1 2.225-2.275q1.425-.8 3.375-.8t3.375.8a5.43 5.43 0 0 1 2.225 2.275q.8 1.45.8 3.475t-.8 3.5a5.43 5.43 0 0 1-2.225 2.275q-1.425.8-3.375.8m0-2.4q1.474 0 2.35-1.025.875-1.05.875-3.15t-.875-3.125-2.35-1.025-2.35 1.025q-.876 1.025-.875 3.125 0 2.1.875 3.15.874 1.025 2.35 1.025M436.762 31v-4.6q-.7.325-1.45.5a7 7 0 0 1-1.575.175q-2.775 0-4.15-1.325-1.35-1.325-1.35-3.95v-3.425h3.1v3.15q0 1.6.7 2.325.7.7 2.25.7.725 0 1.3-.15t1.1-.475v-5.55h3.1V31zm6.575 0V18.375h3.1v4.95h1.9l3.7-4.95h3.35l-4.65 6.3-.675-.975q.7.075 1.225.375.55.3 1.025.85.5.525.975 1.35l2.65 4.725h-3.325l-2.15-3.8q-.326-.575-.65-.9a1.8 1.8 0 0 0-.725-.45 3.3 3.3 0 0 0-.975-.125h-1.675V31zm14.257 0V18.375h2.825v9.55h-.75l7.175-9.55h2.575V31h-2.825v-9.575h.775l-7.2 9.575zm22.342 5.4V21.525a26 26 0 0 0-.2-3.15h3.025l.275 2.65h-.275q.375-1.324 1.575-2.1 1.224-.8 2.825-.8 1.674 0 2.925.8 1.25.775 1.95 2.25.7 1.45.7 3.5t-.7 3.525-1.95 2.275q-1.251.775-2.925.775-1.575 0-2.775-.775t-1.6-2.075h.275v8zm6.35-7.55q1.5 0 2.4-1.025.9-1.05.9-3.15t-.9-3.125-2.4-1.025q-1.476 0-2.375 1.025-.9 1.025-.9 3.125t.9 3.15q.9 1.025 2.375 1.025m15.194 2.4q-1.95 0-3.375-.8a5.63 5.63 0 0 1-2.225-2.275q-.774-1.475-.775-3.5 0-2.025.775-3.475a5.63 5.63 0 0 1 2.225-2.275q1.425-.8 3.375-.8t3.375.8a5.4 5.4 0 0 1 2.225 2.275q.8 1.45.8 3.475t-.8 3.5a5.4 5.4 0 0 1-2.225 2.275q-1.425.8-3.375.8m0-2.4q1.476 0 2.35-1.025.876-1.05.875-3.15 0-2.1-.875-3.125-.874-1.025-2.35-1.025-1.474 0-2.35 1.025-.875 1.025-.875 3.125t.875 3.15q.876 1.025 2.35 1.025m15.261 2.4q-1.95 0-3.425-.8a5.6 5.6 0 0 1-2.25-2.275q-.8-1.5-.8-3.55t.8-3.5a5.63 5.63 0 0 1 2.275-2.225q1.45-.775 3.4-.775 1.25 0 2.425.4 1.2.375 1.95 1.1l-.95 2.175a4.4 4.4 0 0 0-1.525-.925 4.4 4.4 0 0 0-1.625-.325q-1.674 0-2.625 1.05-.924 1.05-.925 3.05 0 2 .925 3.075.951 1.075 2.625 1.075.775 0 1.6-.3a4.6 4.6 0 0 0 1.55-.925l.95 2.15q-.774.725-1.975 1.125-1.174.4-2.4.4m9.765-.25V20.825h-4.325v-2.45h11.775v2.45h-4.35V31zm14.359.25q-1.65 0-2.9-.775-1.25-.8-1.95-2.275t-.7-3.525.7-3.5q.7-1.475 1.95-2.25 1.25-.8 2.9-.8 1.6 0 2.8.8 1.226.775 1.625 2.1h-.275l.275-2.65h3l-.15 1.575q-.05.8-.05 1.575V31h-3.1l-.025-2.6h.3q-.4 1.3-1.625 2.075-1.224.775-2.775.775m.875-2.4q1.476 0 2.375-1.025.9-1.05.9-3.15t-.9-3.125-2.375-1.025-2.375 1.025-.9 3.125.875 3.15q.9 1.025 2.4 1.025m10.37-3.075-.975-12.4h3.85l-.975 12.4zm-.8 5.225v-3.475h3.5V31z"/></svg>