<svg xmlns="http://www.w3.org/2000/svg" width="1420" height="63" fill="none"><path fill="#fff" d="M2.652 44V20.03H23.63V44h-4.352V23.6H6.97V44zm33.914.34q-2.652 0-4.59-1.088t-3.026-3.094q-1.054-2.006-1.054-4.76t1.054-4.726q1.088-2.006 3.026-3.094t4.59-1.088 4.59 1.088a7.38 7.38 0 0 1 3.026 3.094q1.088 1.972 1.088 4.726t-1.088 4.76a7.38 7.38 0 0 1-3.026 3.094q-1.938 1.088-4.59 1.088m0-3.264q2.005 0 3.196-1.394 1.19-1.428 1.19-4.284t-1.19-4.25-3.196-1.394q-2.007 0-3.196 1.394-1.19 1.395-1.19 4.25t1.19 4.284q1.19 1.395 3.196 1.394m11.2 7.344v-7.65h1.973q1.02-1.598 1.462-3.74.476-2.176.476-5.304V26.83h13.226v13.94h2.788v7.65h-3.604V44H51.37v4.42zm5.78-7.616h7.379V30.026H55.28v2.652q0 2.278-.442 4.454t-1.292 3.672m25.698 3.536q-4.317 0-6.766-2.38t-2.448-6.528q0-2.686 1.054-4.692t2.924-3.128q1.905-1.122 4.42-1.122 2.483 0 4.148 1.054 1.667 1.055 2.516 2.958.884 1.905.884 4.454v1.122H73.464v-2.244h9.486l-.578.476q0-2.38-1.02-3.638-.985-1.258-2.89-1.258-2.107 0-3.264 1.496-1.122 1.496-1.122 4.182v.442q0 2.788 1.36 4.182 1.395 1.36 3.91 1.36 1.463 0 2.72-.374a8 8 0 0 0 2.448-1.292l1.258 2.856q-1.224.986-2.924 1.53a11.8 11.8 0 0 1-3.604.544m10.218.136-1.326-3.332q1.123-.408 1.87-1.054a4.7 4.7 0 0 0 1.224-1.7q.476-1.054.68-2.584.204-1.564.204-3.706v-5.27h13.668V44h-4.216V30.094H95.99v2.142q0 3.706-.68 6.222-.68 2.483-2.108 3.944-1.427 1.462-3.74 2.074M110.623 44V26.83h3.842v12.988h-1.02l9.758-12.988h3.502V44h-3.842V30.978h1.054L114.125 44zm24.624 0V30.162h-5.882V26.83h16.014v3.332h-5.916V44zm21.029.34q-4.318 0-6.766-2.38t-2.448-6.528q0-2.686 1.054-4.692 1.053-2.006 2.924-3.128 1.903-1.122 4.42-1.122 2.481 0 4.148 1.054 1.665 1.055 2.516 2.958.884 1.905.884 4.454v1.122h-12.512v-2.244h9.486l-.578.476q0-2.38-1.02-3.638-.987-1.258-2.89-1.258-2.109 0-3.264 1.496-1.122 1.496-1.122 4.182v.442q0 2.788 1.36 4.182 1.393 1.36 3.91 1.36 1.461 0 2.72-.374a8 8 0 0 0 2.448-1.292l1.258 2.856q-1.224.986-2.924 1.53a11.8 11.8 0 0 1-3.604.544m18.683 0q-2.651 0-4.658-1.088a7.6 7.6 0 0 1-3.06-3.094q-1.088-2.04-1.088-4.828t1.088-4.76a7.65 7.65 0 0 1 3.094-3.026q1.972-1.054 4.624-1.054 1.7 0 3.298.544 1.632.51 2.652 1.496l-1.292 2.958a5.9 5.9 0 0 0-2.074-1.258 6 6 0 0 0-2.21-.442q-2.277 0-3.57 1.428-1.257 1.428-1.258 4.148 0 2.72 1.258 4.182 1.293 1.462 3.57 1.462a6.4 6.4 0 0 0 2.176-.408 6.3 6.3 0 0 0 2.108-1.258l1.292 2.924q-1.053.986-2.686 1.53a10 10 0 0 1-3.264.544m9.574-.34V26.83h4.216v5.746h4.522q3.434 0 5.168 1.462 1.734 1.428 1.734 4.148 0 1.768-.816 3.094-.816 1.292-2.38 2.006-1.53.714-3.706.714zm4.216-2.788h3.944q1.734 0 2.652-.714.918-.748.918-2.244t-.918-2.176q-.883-.714-2.652-.714h-3.944zm32.33 3.128q-2.652 0-4.658-1.088a7.6 7.6 0 0 1-3.06-3.094q-1.089-2.04-1.088-4.828t1.088-4.76a7.64 7.64 0 0 1 3.094-3.026q1.971-1.054 4.624-1.054 1.7 0 3.298.544 1.632.51 2.652 1.496l-1.292 2.958a5.9 5.9 0 0 0-2.074-1.258 6 6 0 0 0-2.21-.442q-2.279 0-3.57 1.428-1.258 1.428-1.258 4.148t1.258 4.182q1.291 1.462 3.57 1.462 1.054 0 2.176-.408a6.3 6.3 0 0 0 2.108-1.258l1.292 2.924q-1.054.986-2.686 1.53a10 10 0 0 1-3.264.544m17.597 0q-2.651 0-4.658-1.088a7.6 7.6 0 0 1-3.06-3.094q-1.088-2.04-1.088-4.828t1.088-4.76a7.65 7.65 0 0 1 3.094-3.026q1.972-1.054 4.624-1.054 1.7 0 3.298.544 1.632.51 2.652 1.496l-1.292 2.958a5.9 5.9 0 0 0-2.074-1.258 6 6 0 0 0-2.21-.442q-2.277 0-3.57 1.428-1.258 1.428-1.258 4.148t1.258 4.182q1.293 1.462 3.57 1.462a6.4 6.4 0 0 0 2.176-.408 6.3 6.3 0 0 0 2.108-1.258l1.292 2.924q-1.054.986-2.686 1.53a10 10 0 0 1-3.264.544m9.574-.34V26.83h4.216v5.746h4.522q3.434 0 5.168 1.462 1.734 1.428 1.734 4.148 0 1.768-.816 3.094-.816 1.292-2.38 2.006-1.53.714-3.706.714zm4.216-2.788h3.944q1.734 0 2.652-.714.918-.748.918-2.244t-.918-2.176q-.884-.714-2.652-.714h-3.944zM266.032 44V26.83h4.216V44zm8.604.476-1.326-3.332q1.122-.408 1.87-1.054a4.7 4.7 0 0 0 1.224-1.7q.476-1.054.68-2.584.204-1.564.204-3.706v-5.27h13.668V44h-4.216V30.094h-5.576v2.142q0 3.706-.68 6.222-.68 2.483-2.108 3.944-1.428 1.462-3.74 2.074M295.797 44V26.83h4.216v6.732h2.584l5.032-6.732h4.556l-6.324 8.568-.918-1.326q.952.102 1.666.51.747.408 1.394 1.156.68.714 1.326 1.836L312.933 44h-4.522l-2.924-5.168q-.443-.782-.884-1.224a2.4 2.4 0 0 0-.986-.612q-.545-.17-1.326-.17h-2.278V44zm27.278.34q-2.652 0-4.59-1.088t-3.026-3.094q-1.053-2.006-1.054-4.76 0-2.754 1.054-4.726 1.089-2.006 3.026-3.094 1.938-1.088 4.59-1.088t4.59 1.088a7.37 7.37 0 0 1 3.026 3.094q1.089 1.972 1.088 4.726t-1.088 4.76a7.37 7.37 0 0 1-3.026 3.094q-1.938 1.088-4.59 1.088m0-3.264q2.007 0 3.196-1.394 1.19-1.428 1.19-4.284t-1.19-4.25-3.196-1.394q-2.005 0-3.196 1.394-1.19 1.395-1.19 4.25t1.19 4.284q1.19 1.395 3.196 1.394M335.807 44V26.83h3.842v12.988h-1.02l9.758-12.988h3.502V44h-3.842V30.978h1.054L339.309 44zm8.024-18.734q-1.7 0-2.992-.544a5.84 5.84 0 0 1-2.142-1.598q-.85-1.054-1.224-2.482l2.176-.748q.578 1.564 1.598 2.312 1.02.714 2.618.714t2.618-.714 1.666-2.278l2.074.714q-.714 2.278-2.38 3.468-1.632 1.156-4.012 1.156M366.055 44V26.83h4.216v6.732h7.752V26.83h4.216V44h-4.216v-7.174h-7.752V44zm27.783.34q-2.243 0-3.944-1.054-1.7-1.088-2.652-3.094-.951-2.006-.952-4.794 0-2.788.952-4.76.953-2.006 2.652-3.06 1.7-1.088 3.944-1.088 2.176 0 3.808 1.088 1.667 1.054 2.21 2.856h-.374l.374-3.604h4.08q-.102 1.055-.204 2.142-.068 1.088-.068 2.142V44h-4.216l-.034-3.536h.408q-.543 1.769-2.21 2.822-1.665 1.054-3.774 1.054m1.19-3.264q2.007 0 3.23-1.394 1.224-1.428 1.224-4.284t-1.224-4.25-3.23-1.394-3.23 1.394q-1.224 1.395-1.224 4.25t1.19 4.284q1.224 1.395 3.264 1.394"/><rect width="437" height="63" x="427" fill="#F0AD00" rx="10"/><path fill="#fff" d="M457.438 44.34q-2.652 0-4.658-1.088a7.6 7.6 0 0 1-3.06-3.094q-1.088-2.04-1.088-4.828t1.088-4.76a7.64 7.64 0 0 1 3.094-3.026q1.972-1.054 4.624-1.054 1.7 0 3.298.544 1.632.51 2.652 1.496l-1.292 2.958a5.9 5.9 0 0 0-2.074-1.258 6 6 0 0 0-2.21-.442q-2.279 0-3.57 1.428-1.258 1.428-1.258 4.148t1.258 4.182q1.291 1.462 3.57 1.462a6.4 6.4 0 0 0 2.176-.408 6.3 6.3 0 0 0 2.108-1.258l1.292 2.924q-1.054.986-2.686 1.53a10 10 0 0 1-3.264.544m18.006 0q-4.318 0-6.766-2.38t-2.448-6.528q0-2.686 1.054-4.692 1.053-2.006 2.924-3.128 1.903-1.122 4.42-1.122 2.481 0 4.148 1.054 1.665 1.055 2.516 2.958.884 1.905.884 4.454v1.122h-12.512v-2.244h9.486l-.578.476q0-2.38-1.02-3.638-.987-1.258-2.89-1.258-2.109 0-3.264 1.496-1.122 1.496-1.122 4.182v.442q0 2.788 1.36 4.182 1.393 1.36 3.91 1.36 1.461 0 2.72-.374a8 8 0 0 0 2.448-1.292l1.258 2.856q-1.224.986-2.924 1.53a11.8 11.8 0 0 1-3.604.544m10.795 7.004v-20.23a34 34 0 0 0-.272-4.284h4.114l.374 3.604h-.374q.51-1.802 2.142-2.856 1.667-1.088 3.842-1.088 2.278 0 3.978 1.088 1.701 1.054 2.652 3.06.952 1.972.952 4.76 0 2.789-.952 4.794-.951 2.006-2.652 3.094-1.7 1.054-3.978 1.054-2.142 0-3.774-1.054t-2.176-2.822h.374v10.88zm8.636-10.268q2.04 0 3.264-1.394 1.224-1.428 1.224-4.284t-1.224-4.25-3.264-1.394q-2.006 0-3.23 1.394-1.224 1.395-1.224 4.25t1.224 4.284q1.224 1.395 3.23 1.394M507.652 44V26.83h9.146q3.23 0 4.726 1.19 1.497 1.156 1.496 3.298 0 1.632-1.088 2.72-1.087 1.088-2.89 1.36v-.476q2.21.135 3.4 1.292 1.19 1.156 1.19 2.992 0 2.21-1.7 3.502T517.104 44zm3.944-2.618h5.066q1.497 0 2.278-.612.816-.612.816-1.802t-.816-1.802q-.781-.612-2.278-.612h-5.066zm0-7.446h4.692q1.36 0 2.108-.578.748-.612.748-1.7 0-1.087-.748-1.666-.747-.578-2.108-.578h-4.692zM527.342 44V26.83h3.842v12.988h-1.02l9.758-12.988h3.502V44h-3.842V30.978h1.054L530.844 44zm28.942.34q-2.652 0-4.658-1.088a7.6 7.6 0 0 1-3.06-3.094q-1.089-2.04-1.088-4.828t1.088-4.76a7.64 7.64 0 0 1 3.094-3.026q1.971-1.054 4.624-1.054 1.7 0 3.298.544 1.632.51 2.652 1.496l-1.292 2.958a5.9 5.9 0 0 0-2.074-1.258 6 6 0 0 0-2.21-.442q-2.279 0-3.57 1.428-1.258 1.428-1.258 4.148t1.258 4.182q1.292 1.462 3.57 1.462 1.053 0 2.176-.408a6.3 6.3 0 0 0 2.108-1.258l1.292 2.924q-1.054.986-2.686 1.53a10 10 0 0 1-3.264.544m19.141-.34V20.03h10.472q3.945 0 6.086 1.87 2.176 1.87 2.176 5.202 0 2.21-.986 3.774-.951 1.564-2.754 2.414-1.802.816-4.25.816l.476-.646h1.156q1.428 0 2.55.748t1.836 2.278L595.689 44h-4.828l-3.536-7.786q-.475-1.19-1.462-1.564-.951-.375-2.312-.374h-3.74V44zm4.386-12.954h5.372q2.313 0 3.502-.952 1.224-.986 1.224-2.856t-1.224-2.822q-1.19-.952-3.502-.952h-5.372zm25.611 13.294q-2.243 0-3.944-1.054-1.7-1.088-2.652-3.094t-.952-4.794.952-4.76q.952-2.006 2.652-3.06 1.7-1.088 3.944-1.088 2.176 0 3.808 1.088 1.667 1.054 2.21 2.856h-.374l.374-3.604h4.08q-.102 1.055-.204 2.142-.068 1.088-.068 2.142V44h-4.216l-.034-3.536h.408q-.543 1.769-2.21 2.822-1.665 1.054-3.774 1.054m1.19-3.264q2.006 0 3.23-1.394 1.224-1.428 1.224-4.284t-1.224-4.25-3.23-1.394-3.23 1.394q-1.224 1.395-1.224 4.25t1.19 4.284q1.224 1.395 3.264 1.394m19.928 3.264q-2.244 0-3.978-1.054-1.7-1.088-2.652-3.094t-.952-4.794.952-4.76q.952-2.006 2.652-3.06 1.734-1.088 3.978-1.088 2.142 0 3.774 1.054 1.667 1.02 2.21 2.788h-.442V18.976h4.25V44h-4.182v-3.638h.408q-.543 1.836-2.21 2.924-1.632 1.054-3.808 1.054m1.19-3.264q2.006 0 3.23-1.394 1.224-1.428 1.224-4.284t-1.224-4.25-3.23-1.394q-2.005 0-3.264 1.394-1.224 1.395-1.224 4.25t1.224 4.284q1.259 1.395 3.264 1.394m19.86 3.264q-2.244 0-3.944-1.054-1.7-1.088-2.652-3.094t-.952-4.794.952-4.76q.952-2.006 2.652-3.06 1.7-1.088 3.944-1.088 2.176 0 3.808 1.088 1.667 1.054 2.21 2.856h-.374l.374-3.604h4.08q-.102 1.055-.204 2.142-.068 1.088-.068 2.142V44H653.2l-.034-3.536h.408q-.543 1.769-2.21 2.822-1.665 1.054-3.774 1.054m1.19-3.264q2.006 0 3.23-1.394 1.224-1.428 1.224-4.284t-1.224-4.25-3.23-1.394-3.23 1.394q-1.224 1.395-1.224 4.25t1.19 4.284q1.224 1.395 3.264 1.394M662.01 44V31.216q0-1.088-.068-2.21a22 22 0 0 0-.17-2.176h4.114l.476 4.692h-.68q.34-1.7 1.122-2.822.817-1.122 1.972-1.666a5.8 5.8 0 0 1 2.516-.544q.612 0 .986.068.375.035.748.17l-.034 3.74q-.645-.272-1.122-.34a7.6 7.6 0 0 0-1.122-.068q-1.462 0-2.482.612a3.9 3.9 0 0 0-1.496 1.7q-.476 1.088-.476 2.482V44zm10.373-8.092v-2.55h17.17v2.55zM688.951 44l10.846-23.97h3.672L714.451 44h-4.454l-2.924-6.732 1.768 1.19h-14.382l1.836-1.19L693.371 44zm12.648-19.278-4.794 11.356-.884-1.054h11.424l-.714 1.054-4.896-11.356zM716.763 44V31.114a34 34 0 0 0-.272-4.284h4.114l.34 3.4h-.408q.816-1.802 2.414-2.754 1.599-.986 3.706-.986 3.026 0 4.556 1.7t1.53 5.304V44h-4.25V33.698q0-2.075-.816-2.958-.781-.918-2.38-.918-1.971 0-3.128 1.224-1.155 1.224-1.156 3.264V44zm27.117.34q-2.244 0-3.945-1.054-1.7-1.088-2.651-3.094-.952-2.006-.952-4.794t.952-4.76q.951-2.006 2.651-3.06 1.701-1.088 3.945-1.088 2.176 0 3.808 1.088 1.665 1.054 2.21 2.856h-.374l.374-3.604h4.08q-.102 1.055-.204 2.142-.069 1.088-.068 2.142V44h-4.216l-.034-3.536h.408q-.545 1.769-2.21 2.822-1.667 1.054-3.774 1.054m1.19-3.264q2.006 0 3.23-1.394 1.224-1.428 1.224-4.284t-1.224-4.25-3.23-1.394-3.23 1.394q-1.224 1.395-1.224 4.25t1.19 4.284q1.224 1.395 3.264 1.394M758.333 44V18.976h4.25V44zm8.526 7.718-.986-3.366q1.597-.34 2.686-.782t1.802-1.156 1.19-1.836l.85-2.006-.102 1.666-7.48-17.408h4.522l5.372 13.396h-.986l5.406-13.396h4.284l-7.82 18.122q-.783 1.836-1.7 3.026-.918 1.224-1.972 1.938a8.5 8.5 0 0 1-2.312 1.156q-1.258.408-2.754.646m26.576-7.378q-3.06 0-4.624-1.598-1.564-1.597-1.564-4.794v-7.922h-3.298V26.83h3.298v-4.386l4.25-1.088v5.474h4.59v3.196h-4.59v7.65q0 1.768.68 2.482t1.87.714q.647 0 1.088-.102a6 6 0 0 0 .918-.272v3.366a5.4 5.4 0 0 1-1.292.34q-.68.136-1.326.136m5.539-.34V26.83h4.25V44zm-.238-20.4v-4.148h4.726V23.6zm16.991 20.74q-2.652 0-4.658-1.088a7.6 7.6 0 0 1-3.06-3.094q-1.088-2.04-1.088-4.828t1.088-4.76a7.65 7.65 0 0 1 3.094-3.026q1.972-1.054 4.624-1.054 1.7 0 3.298.544 1.632.51 2.652 1.496l-1.292 2.958a5.9 5.9 0 0 0-2.074-1.258 6 6 0 0 0-2.21-.442q-2.277 0-3.57 1.428-1.258 1.428-1.258 4.148t1.258 4.182q1.293 1.462 3.57 1.462a6.4 6.4 0 0 0 2.176-.408 6.3 6.3 0 0 0 2.108-1.258l1.292 2.924q-1.053.986-2.686 1.53a10 10 0 0 1-3.264.544m15.776 0q-2.244 0-3.944-1.054-1.701-1.088-2.652-3.094t-.952-4.794q0-2.788.952-4.76.951-2.006 2.652-3.06 1.7-1.088 3.944-1.088 2.176 0 3.808 1.088 1.665 1.054 2.21 2.856h-.374l.374-3.604h4.08q-.102 1.055-.204 2.142-.069 1.088-.068 2.142V44h-4.216l-.034-3.536h.408q-.545 1.769-2.21 2.822-1.667 1.054-3.774 1.054m1.19-3.264q2.006 0 3.23-1.394 1.224-1.428 1.224-4.284t-1.224-4.25-3.23-1.394-3.23 1.394q-1.224 1.395-1.224 4.25t1.19 4.284q1.224 1.395 3.264 1.394"/></svg>