<svg xmlns="http://www.w3.org/2000/svg" width="35" height="35" fill="none"><rect width="35" height="35" fill="#000" rx="5"/><path fill="#000100" d="M27.582 12.863a2.5 2.5 0 0 0-.646-1.119 2.5 2.5 0 0 0-1.122-.649C24.25 10.677 18 10.677 18 10.677s-6.25 0-7.814.418a2.5 2.5 0 0 0-1.122.65c-.31.31-.533.695-.646 1.118C8 14.423 8 17.677 8 17.677s0 3.254.418 4.814c.113.423.336.809.646 1.12.31.31.698.534 1.122.648 1.564.418 7.814.418 7.814.418s6.25 0 7.814-.418a2.5 2.5 0 0 0 1.122-.649c.31-.31.533-.696.646-1.119.418-1.56.418-4.814.418-4.814s0-3.254-.418-4.814"/><path fill="#FEFEFE" d="M16 20.677v-6l5 3z"/></svg>