<svg xmlns="http://www.w3.org/2000/svg" width="29" height="25" fill="none"><rect width="26.137" height="21.5" x="1.913" y=".788" stroke="#F0AD00" stroke-opacity=".2" stroke-width="1.5" rx="5.25" transform="rotate(3 1.913 .788)"/><path fill="#1A1A1A" d="m4.867 16.424 4.265-8.248 1.295.067 3.428 8.652-1.57-.083-.906-2.426.6.452-5.068-.266.669-.385-1.155 2.318zm4.814-6.561-1.9 3.914-.292-.388 4.027.21-.271.359-1.516-4.093zm5.108 7.08.443-8.448 1.546.081-.443 8.449z"/><path fill="#F0AD00" fill-rule="evenodd" d="m22 6.359-.037.1a2.54 2.54 0 0 1-1.503 1.504L20.359 8l.1.037a2.54 2.54 0 0 1 1.504 1.503l.037.101.038-.1a2.54 2.54 0 0 1 1.502-1.504L23.642 8l-.102-.037a2.54 2.54 0 0 1-1.502-1.503zm.979-1.678c-.336-.908-1.621-.908-1.958 0l-.465 1.258c-.106.286-.331.511-.617.617l-1.257.465c-.909.336-.909 1.622 0 1.958l1.257.465c.286.106.511.331.617.617l.465 1.258c.337.908 1.622.908 1.958 0l.465-1.258c.106-.286.331-.511.617-.617l1.258-.465c.908-.336.908-1.622 0-1.958l-1.258-.465a1.04 1.04 0 0 1-.617-.617z" clip-rule="evenodd"/></svg>