<svg xmlns="http://www.w3.org/2000/svg" width="60" height="60" fill="none"><rect width="60" height="60" fill="#FEC53D" opacity=".21" rx="10"/><path fill="#FEC53D" d="m15 24.317 12.9 7.448q.21.12.433.174v14.446L15.92 39.039c-.57-.338-.92-.951-.92-1.614zm30-.198v13.306c0 .663-.35 1.276-.92 1.614l-12.413 7.346V31.813l.09-.048z"/><path fill="#FEC53D" d="M15.405 20.701c.158-.199.357-.367.589-.49l13.125-6.99a1.88 1.88 0 0 1 1.762 0l13.126 6.99q.268.144.473.359l-14.39 8.308a1.7 1.7 0 0 0-.261.186 1.7 1.7 0 0 0-.262-.186z" opacity=".499"/></svg>