<svg xmlns="http://www.w3.org/2000/svg" width="20" height="18" fill="none"><path fill="#363538" fill-rule="evenodd" d="M.517 5.296A4.75 4.75 0 0 1 5.258.25H9.5a2.25 2.25 0 0 1 2.25 2.25c0 .414.336.75.75.75h2.347a4.596 4.596 0 0 1 4.585 4.919V9.5a.8.8 0 0 1-.046.26c.412.725.524 1.627.197 2.502l-1.12 3a1 1 0 0 1-.053.113 4.75 4.75 0 0 1-4.114 2.375H5.758a4.75 4.75 0 0 1-4.74-4.454zM5.758 16.25h8.538a3.25 3.25 0 0 0 2.785-1.574l1.097-2.938a1.473 1.473 0 0 0-1.38-1.988H13.02a2.038 2.038 0 0 1-2.01-2.373.538.538 0 0 0-.532-.627H7.3a3.23 3.23 0 0 0-3.177 2.63l-.239 1.26-.003.016-.551 2.595c-.328 1.544.85 2.999 2.429 2.999m6.732-8.627a.538.538 0 0 0 .53.627h3.778c.406 0 .788.08 1.134.222v-.33q0-.03.002-.058a3.096 3.096 0 0 0-3.087-3.334H12.5a2.25 2.25 0 0 1-2.25-2.25.75.75 0 0 0-.75-.75H5.258a3.25 3.25 0 0 0-3.244 3.453l.34 5.422.057-.273.238-1.251a4.73 4.73 0 0 1 4.65-3.851h3.18c1.26 0 2.218 1.13 2.01 2.373" clip-rule="evenodd"/></svg>