<svg xmlns="http://www.w3.org/2000/svg" width="150" height="45" fill="none"><rect width="150" height="45" fill="#5329FF" rx="8"/><path fill="#fff" d="M17.9 20.7h4.5L17 26.1l-5.4-5.4h4.5v-6.3h1.8zm-8.1 8.1h14.4v-6.3H26v7.2a.9.9 0 0 1-.9.9H8.9a.9.9 0 0 1-.9-.9v-7.2h1.8zM40.4 28.644q-1.728 0-2.944-.704a4.7 4.7 0 0 1-1.872-2q-.64-1.312-.64-3.088t.64-3.072a4.7 4.7 0 0 1 1.872-2q1.216-.704 2.944-.704 1.2 0 2.144.352t1.648 1.024l-.576 1.328q-.768-.656-1.504-.944-.72-.288-1.68-.288-1.824 0-2.784 1.12t-.96 3.184.96 3.2q.96 1.12 2.784 1.12.96 0 1.68-.288.736-.288 1.504-.96l.576 1.328a5 5 0 0 1-1.648 1.04q-.945.352-2.144.352m5.77-.144v-8.064h1.6v3.296h1.391l2.512-3.296h1.76l-3.008 3.968-.4-.512q.465.048.8.24.336.176.656.528t.656.928l1.68 2.912H52.09l-1.44-2.464a3 3 0 0 0-.464-.64q-.224-.24-.512-.32a2.3 2.3 0 0 0-.704-.096h-1.2v3.52zm11.98.144q-1.073 0-1.873-.496-.8-.495-1.248-1.44-.432-.944-.432-2.24 0-1.312.432-2.24.448-.928 1.248-1.424.801-.512 1.872-.512 1.056 0 1.84.528.785.528 1.04 1.44h-.176l.16-1.824h1.568l-.096.992q-.032.48-.032.944V28.5h-1.616v-1.792h.176a2.48 2.48 0 0 1-1.056 1.424q-.783.512-1.808.512m.4-1.264q1.04 0 1.663-.736.64-.735.64-2.176 0-1.44-.64-2.16-.623-.736-1.664-.736-1.057 0-1.696.736-.624.72-.624 2.16t.624 2.176q.625.736 1.696.736m11.537 1.12v-3.12a4.8 4.8 0 0 1-.96.384 4.5 4.5 0 0 1-1.088.128q-1.745 0-2.592-.816-.832-.832-.832-2.48v-2.16h1.6v2.032q0 1.104.496 1.6.495.496 1.568.496.543 0 .96-.112.416-.128.816-.384v-3.632h1.616V28.5zm7.156.144q-1.072 0-1.872-.496-.8-.495-1.248-1.44-.432-.944-.432-2.24 0-1.312.432-2.24.449-.928 1.248-1.424.8-.512 1.872-.512 1.056 0 1.84.528.785.528 1.04 1.44h-.176l.16-1.824h1.568l-.096.992q-.032.48-.032.944V28.5h-1.616v-1.792h.176a2.48 2.48 0 0 1-1.056 1.424q-.784.512-1.808.512m.4-1.264q1.04 0 1.664-.736.64-.735.64-2.176 0-1.44-.64-2.16-.623-.736-1.664-.736-1.056 0-1.696.736-.624.72-.624 2.16t.624 2.176 1.696.736m8.114 1.12v-6.768h-2.849v-1.296h7.313v1.296h-2.865V28.5zm5.756 0v-8.064h1.6v2.816H95.4q1.583 0 2.384.672.8.655.8 1.92 0 .816-.368 1.424-.368.593-1.088.912-.705.32-1.728.32zm1.6-1.104h2.112q.896 0 1.376-.368.48-.384.48-1.168t-.48-1.136q-.464-.368-1.376-.368h-2.112zM104.78 28.5V17.22h7.392v1.328h-5.776V22.1h5.408v1.344h-5.408v3.712h5.776V28.5zm8.157 0 3.664-4.544v.768l-3.472-4.288h1.936l2.448 3.152h-.576l2.448-3.152h1.92l-3.44 4.272v-.736l3.648 4.528h-1.936l-2.64-3.376h.576l-2.656 3.376zm13.157.144q-1.216 0-2.128-.496a3.53 3.53 0 0 1-1.392-1.456q-.48-.96-.48-2.272 0-1.296.496-2.224a3.35 3.35 0 0 1 1.392-1.408q.895-.495 2.112-.496.784 0 1.52.272.736.256 1.216.736l-.528 1.136a2.9 2.9 0 0 0-1.008-.64 2.9 2.9 0 0 0-1.088-.224q-1.152 0-1.808.736-.656.735-.656 2.128 0 1.408.656 2.16t1.808.752q.512 0 1.072-.192a2.9 2.9 0 0 0 1.024-.656l.528 1.136a3.5 3.5 0 0 1-1.248.752q-.736.255-1.488.256m8.02 0q-1.951 0-3.072-1.104t-1.12-3.056q0-1.265.48-2.208a3.6 3.6 0 0 1 1.36-1.456q.88-.528 2.032-.528 1.136 0 1.904.48t1.168 1.36q.4.864.4 2.048v.512h-6.08v-.928h4.976l-.272.208q0-1.2-.544-1.856-.528-.672-1.536-.672-1.12 0-1.728.784-.608.768-.608 2.128v.16q0 1.425.688 2.144.704.72 1.984.72.704 0 1.312-.192a3.7 3.7 0 0 0 1.184-.672l.528 1.104a3.9 3.9 0 0 1-1.36.768 5.5 5.5 0 0 1-1.696.256m5.007-.144V16.724h1.616V28.5z"/></svg>