<svg xmlns="http://www.w3.org/2000/svg" width="168" height="42" fill="none"><rect width="168" height="42" fill="#5329FF" rx="8"/><path fill="#5329FF" d="M14.94 23.036c-.233.624-.43 1.2-.606 1.783.96-.697 2.101-1.139 3.418-1.304 2.513-.314 4.746-1.973 5.876-4.058l-1.456-1.455 1.413-1.415 1-1.001c.43-.43.915-1.224 1.428-2.368-5.593.867-9.018 4.292-11.074 9.818zM25 18.001 26 19c-1 3-4 6-8 6.5q-4.003.5-5.002 5.5H11c1-6 3-20 18-20q-1.5 4.496-2.997 5.997zM41.328 27V15.72h4.784q1.808 0 2.768.88.976.864.976 2.4t-.976 2.416q-.96.88-2.768.88h-3.12V27zm1.664-6.032h2.944q1.136 0 1.712-.512T48.224 19q0-.928-.576-1.44t-1.712-.512h-2.944zm12.282 6.176q-1.953 0-3.072-1.104-1.12-1.104-1.12-3.056 0-1.265.48-2.208a3.6 3.6 0 0 1 1.36-1.456q.88-.528 2.032-.528 1.136 0 1.904.48t1.168 1.36q.4.864.4 2.048v.512h-6.08v-.928h4.976l-.272.208q0-1.2-.544-1.856-.528-.672-1.536-.672-1.12 0-1.728.784-.608.768-.608 2.128v.16q0 1.425.688 2.144.703.72 1.984.72.703 0 1.312-.192.623-.209 1.184-.672l.528 1.104a3.9 3.9 0 0 1-1.36.768 5.5 5.5 0 0 1-1.696.256m4.33 1.936v-3.328h.895q.528-.8.768-1.872t.24-2.592v-2.352h5.905v6.816h1.295v3.328h-1.391V27h-6.32v2.08zm2.383-3.312h3.904v-5.584H62.9v1.424q0 1.168-.24 2.288-.224 1.104-.672 1.872m11.475 1.376q-1.073 0-1.872-.496-.801-.495-1.248-1.44-.432-.944-.432-2.24 0-1.312.432-2.24.447-.928 1.248-1.424.8-.512 1.872-.512 1.056 0 1.84.528t1.04 1.44h-.176l.16-1.824h1.568l-.096.992q-.033.48-.032.944V27H76.15v-1.792h.176a2.48 2.48 0 0 1-1.056 1.424q-.785.512-1.808.512m.4-1.264q1.04 0 1.664-.736.64-.735.64-2.176 0-1.44-.64-2.16-.623-.736-1.664-.736-1.056 0-1.696.736-.624.72-.624 2.16t.624 2.176 1.696.736M80.247 27v-8.064h1.6v3.296h1.392l2.512-3.296h1.76l-3.008 3.968-.4-.512q.465.048.8.24.336.176.656.528t.656.928L87.895 27h-1.728l-1.44-2.464a3 3 0 0 0-.464-.64q-.225-.24-.512-.32a2.3 2.3 0 0 0-.704-.096h-1.2V27zm10.556 0v-6.768h-2.848v-1.296h7.312v1.296h-2.864V27zm5.757 0v-8.064h1.472v6.512h-.448l4.864-6.512h1.344V27h-1.456v-6.528h.464L97.904 27zm9.72 3.456v-9.584q0-.464-.048-.944-.032-.495-.08-.992h1.568l.16 1.824h-.176a2.52 2.52 0 0 1 1.024-1.44q.784-.528 1.856-.528t1.872.512q.8.495 1.232 1.424.448.928.448 2.24 0 1.296-.448 2.24-.432.945-1.232 1.44t-1.872.496q-1.056 0-1.84-.512a2.52 2.52 0 0 1-1.024-1.424h.176v5.248zm3.904-4.576q1.056 0 1.68-.736.64-.735.64-2.176 0-1.44-.64-2.16-.624-.736-1.68-.736t-1.696.736q-.624.72-.624 2.16t.624 2.176q.64.736 1.696.736m9.49 1.264q-1.2 0-2.08-.496a3.47 3.47 0 0 1-1.36-1.44q-.48-.944-.48-2.24t.48-2.224a3.35 3.35 0 0 1 1.36-1.44q.88-.512 2.08-.512t2.08.512q.896.495 1.376 1.44.496.928.496 2.224t-.496 2.24a3.45 3.45 0 0 1-1.376 1.44q-.88.495-2.08.496m0-1.264q1.056 0 1.68-.736.624-.735.624-2.176 0-1.44-.624-2.16-.624-.736-1.68-.736-1.04 0-1.664.736-.624.72-.624 2.16t.608 2.176q.624.736 1.68.736m5.948 1.12v-8.064h4.064q1.457 0 2.144.56.705.544.704 1.552 0 .784-.528 1.296-.511.512-1.36.624v-.208q1.008.048 1.584.592t.576 1.408q0 1.04-.784 1.648-.767.592-2.192.592zm1.52-1.04h2.56q.784 0 1.2-.32.416-.336.416-.96t-.416-.944-1.2-.32h-2.56zm0-3.584h2.384q.72 0 1.12-.32t.4-.88q0-.576-.4-.88-.4-.32-1.12-.32h-2.384zm10.726 4.768q-1.072 0-1.872-.496-.8-.495-1.248-1.44-.432-.944-.432-2.24 0-1.312.432-2.24.449-.928 1.248-1.424.8-.512 1.872-.512 1.056 0 1.84.528t1.04 1.44h-.176l.16-1.824h1.568l-.096.992q-.032.48-.032.944V27h-1.616v-1.792h.176a2.48 2.48 0 0 1-1.056 1.424q-.784.512-1.808.512m.4-1.264q1.04 0 1.664-.736.64-.735.64-2.176 0-1.44-.64-2.16-.624-.736-1.664-.736-1.056 0-1.696.736-.624.72-.624 2.16t.624 2.176 1.696.736m8.114 1.12v-6.768h-2.848v-1.296h7.312v1.296h-2.864V27zm5.756 0v-8.064h1.6v2.816h2.288q1.584 0 2.384.672.8.655.8 1.92 0 .816-.368 1.424-.368.593-1.088.912-.703.32-1.728.32zm1.6-1.104h2.112q.896 0 1.376-.368.48-.384.48-1.168t-.48-1.136q-.464-.368-1.376-.368h-2.112z"/></svg>