<svg xmlns="http://www.w3.org/2000/svg" width="24" height="24" fill="none"><path fill="#5329FF" fill-rule="evenodd" d="M6.712 3.354a.788.788 0 0 1 1.121-.648l2.5 1.227a.77.77 0 0 0 .548.047l2.752-.784c.538-.153 1.036.284.936.821l-.51 2.75a.72.72 0 0 0 .105.527l1.514 2.294c.296.448.007 1.062-.543 1.154l-1.855.312 6.559 9.36a.75.75 0 0 1-1.229.861l-6.816-9.728-1.774 2.148c-.354.43-1.031.373-1.27-.107L7.52 11.13a.72.72 0 0 0-.404-.354L4.48 9.843c-.515-.183-.644-.832-.243-1.221L6.291 6.63a.77.77 0 0 0 .234-.499zm1.31 2.878.115-1.706 1.534.754c.511.25 1.09.293 1.62.142l1.575-.448-.282 1.52a2.22 2.22 0 0 0 .328 1.627l.876 1.327-1.716.288a2.3 2.3 0 0 0-1.392.804l-1.107 1.342-.711-1.423c-.26-.519-.71-.908-1.245-1.097l-1.458-.516 1.176-1.14c.396-.384.648-.906.687-1.474" clip-rule="evenodd"/></svg>