<svg xmlns="http://www.w3.org/2000/svg" width="64" height="48" fill="none"><path fill="#5329FF" d="M20 11a4.5 4.5 0 0 0-4.5 4.5v.5a4.5 4.5 0 1 0 9 0v-.5A4.5 4.5 0 0 0 20 11M11.5 47h42a9 9 0 0 0 9-9v-8l-14.658-8.58a9 9 0 0 0-10.748 1.245L26.75 32.5z"/><path stroke="#5329FF" d="M11.5 47h42a9 9 0 0 0 9-9v-8m-51 17H10a8.5 8.5 0 0 1-8.5-8.5m10 8.5 15.25-14.5M62.5 30V10a9 9 0 0 0-9-9h-43a9 9 0 0 0-9 9v28.5m61-8.5-14.658-8.58a9 9 0 0 0-10.748 1.245L26.75 32.5m0 0-5.611-3.242a9 9 0 0 0-10.497 1.08L1.5 38.5m23-23v.5a4.5 4.5 0 1 1-9 0v-.5a4.5 4.5 0 1 1 9 0Z"/></svg>