<svg xmlns="http://www.w3.org/2000/svg" width="18" height="20" fill="none"><path fill="#5329FF" fill-rule="evenodd" d="M1 1a1 1 0 0 1 1-1h14a1 1 0 0 1 1 1v18a1 1 0 0 1-1.65.76l-1.032-.885a1 1 0 0 0-1.302 0l-1.032.884a1 1 0 0 1-1.302 0l-1.031-.884a1 1 0 0 0-1.302 0l-1.032.884a1 1 0 0 1-1.301 0l-1.032-.884a1 1 0 0 0-1.301 0l-1.032.884A1 1 0 0 1 1 19zm2 1v14.946a3 3 0 0 1 3.286.41l.38.327.382-.327a3 3 0 0 1 3.904 0l.381.327.381-.327a3 3 0 0 1 3.286-.41V2z" clip-rule="evenodd"/><path fill="#5329FF" fill-rule="evenodd" d="M5 5a1 1 0 0 1 1-1h6a1 1 0 1 1 0 2H6a1 1 0 0 1-1-1M5 9a1 1 0 0 1 1-1h6a1 1 0 1 1 0 2H6a1 1 0 0 1-1-1M7 13a1 1 0 0 1 1-1h4a1 1 0 1 1 0 2H8a1 1 0 0 1-1-1" clip-rule="evenodd"/></svg>