<svg xmlns="http://www.w3.org/2000/svg" width="20" height="20" fill="none"><path fill="#363538" fill-rule="evenodd" d="M13.7 12.5c0 1.45-1.209 2.625-2.7 2.625S8.3 13.95 8.3 12.5 9.509 9.875 11 9.875s2.7 1.175 2.7 2.625m-1.5 0c0 .582-.497 1.125-1.2 1.125s-1.2-.543-1.2-1.125.497-1.125 1.2-1.125 1.2.543 1.2 1.125" clip-rule="evenodd"/><path fill="#363538" fill-rule="evenodd" d="M18 3.5v2.17c1.165.413 2 1.524 2 2.83v8a3 3 0 0 1-3 3H5a3 3 0 0 1-3-3v-2.17a3 3 0 0 1-2-2.83v-8a3 3 0 0 1 3-3h12a3 3 0 0 1 3 3M4.35 2h9.3a2.75 2.75 0 0 0 2.75 2.75h.1v.75h-5.751A2.74 2.74 0 0 0 9 4.875c-.667 0-1.278.235-1.749.625H5a3 3 0 0 0-3 3v1.779a3 3 0 0 0-.4-.029h-.1v-5.5h.1A2.75 2.75 0 0 0 4.35 2M2 11.815v.803a1.5 1.5 0 0 1-.48-.868h.08q.21.001.4.065m13.15-9.808a1.5 1.5 0 0 1 1.33 1.243h-.08a1.25 1.25 0 0 1-1.25-1.243M1.6 3.25h-.08a1.5 1.5 0 0 1 1.33-1.243A1.25 1.25 0 0 1 1.6 3.25M15.65 7h-9.3A2.75 2.75 0 0 1 3.6 9.75h-.1v5.5h.1A2.75 2.75 0 0 1 6.35 18h9.3a2.75 2.75 0 0 1 2.75-2.75h.1v-5.5h-.1A2.75 2.75 0 0 1 15.65 7M3.52 8.25a1.5 1.5 0 0 1 1.33-1.243A1.25 1.25 0 0 1 3.6 8.25zm1.33 9.743A1.25 1.25 0 0 0 3.6 16.75h-.08a1.5 1.5 0 0 0 1.33 1.243m13.63-1.243a1.5 1.5 0 0 1-1.33 1.243 1.25 1.25 0 0 1 1.25-1.243zm-1.33-9.743A1.25 1.25 0 0 0 18.4 8.25h.08a1.5 1.5 0 0 0-1.33-1.243" clip-rule="evenodd"/></svg>