<svg xmlns="http://www.w3.org/2000/svg" width="20" height="20" fill="none"><path fill="#363538" fill-rule="evenodd" d="M12.25 5.469c0-.255-.05-.502-.144-.73L8.715 6.746h-.002a3.4 3.4 0 0 1-.963.393v.827l-.107.06A4.2 4.2 0 0 0 6.25 9.283V7.16a3.4 3.4 0 0 1-.968-.365L1.848 4.862a1.9 1.9 0 0 0-.098.607V8.33c0 .696.377 1.337.986 1.675l2.766 1.537-.002.125v1.584a3 3 0 0 1-.16-.083l-3.333-1.852A3.42 3.42 0 0 1 .25 8.331V5.469c0-1.241.673-2.384 1.757-2.987L5.341.63a3.42 3.42 0 0 1 3.318 0l3.334 1.852a3.42 3.42 0 0 1 1.757 2.987v.248a4.2 4.2 0 0 0-1.5 0zM6.07 1.94a1.92 1.92 0 0 1 1.86 0l3.074 1.707-1.317.78L5.88 2.046zm-.053 3.545L2.872 3.717l1.511-.839 3.85 2.41-.286.169-.004.002a1.92 1.92 0 0 1-1.926.027" clip-rule="evenodd"/><path fill="#363538" fill-rule="evenodd" d="M14.66 6.83a3.42 3.42 0 0 0-3.32 0L8.008 8.68a3.42 3.42 0 0 0-1.757 2.987v2.862c0 1.24.673 2.384 1.757 2.987l3.334 1.851a3.42 3.42 0 0 0 3.318 0l3.334-1.851a3.42 3.42 0 0 0 1.757-2.987v-2.862c0-1.24-.673-2.384-1.757-2.987zm-2.59 1.31a1.92 1.92 0 0 1 1.86 0l3.074 1.708-1.317.779-3.806-2.382zm-1.687.937-1.51.84 3.144 1.769c.6.337 1.335.327 1.926-.027l.004-.003.286-.17zm-2.535 1.985a1.9 1.9 0 0 0-.098.606v2.862c0 .696.377 1.337.986 1.675l3.333 1.852q.09.05.181.088v-4.787a3.4 3.4 0 0 1-.968-.365zm5.902 2.277v4.806a2 2 0 0 0 .18-.088l3.334-1.852c.609-.338.986-.98.986-1.675v-2.862c0-.254-.05-.502-.144-.73l-3.391 2.007-.002.001a3.4 3.4 0 0 1-.963.393" clip-rule="evenodd"/></svg>