<svg xmlns="http://www.w3.org/2000/svg" width="60" height="60" fill="none"><rect width="60" height="60" fill="#4AD991" opacity=".21" rx="10"/><path fill="#4AD991" d="M19.111 40.889h23.333a1.555 1.555 0 1 1 0 3.111H17.556c-.86 0-1.556-.696-1.556-1.556V17.556a1.556 1.556 0 1 1 3.111 0z"/><path fill="#4AD991" d="M24.913 34.175a1.556 1.556 0 0 1-2.27-2.128l5.834-6.222a1.556 1.556 0 0 1 2.144-.12l4.604 3.93 5.999-7.599a1.555 1.555 0 1 1 2.442 1.928l-7 8.867a1.556 1.556 0 0 1-2.23.219l-4.705-4.014z" opacity=".5"/></svg>