<svg xmlns="http://www.w3.org/2000/svg" width="24" height="24" fill="none"><path fill="#5329FF" d="M17.834 6.166a3.25 3.25 0 0 0-4.596 0l-1.415 1.415a.75.75 0 1 1-1.06-1.061l1.414-1.414a4.75 4.75 0 0 1 6.717 6.717l-1.414 1.414a.75.75 0 0 1-1.06-1.06l1.414-1.414a3.25 3.25 0 0 0 0-4.597M7.58 10.763a.75.75 0 0 1 0 1.06l-1.414 1.415a3.25 3.25 0 1 0 4.597 4.596l1.414-1.415a.75.75 0 1 1 1.06 1.061l-1.414 1.414a4.75 4.75 0 1 1-6.717-6.717l1.414-1.414a.75.75 0 0 1 1.06 0"/><path fill="#5329FF" d="M9.348 13.591a.75.75 0 0 0 1.061 1.06l4.243-4.242a.75.75 0 1 0-1.061-1.06z"/></svg>