<svg xmlns="http://www.w3.org/2000/svg" width="21" height="20" fill="none"><path fill="#363538" fill-rule="evenodd" d="M5 1.5h6a.5.5 0 0 1 .5.5v8a.5.5 0 0 1-.5.5H3a.5.5 0 0 1-.5-.5V9H1v1a2 2 0 0 0 2 2h.25v2a3.74 3.74 0 0 0 1.266 2.81 3 3 0 0 0 5.712.94h2.044a3 3 0 0 0 5.49-.078A3.75 3.75 0 0 0 20.75 14V9.869a2.75 2.75 0 0 0-.47-1.537l-3.358-4.986a4.75 4.75 0 0 0-3.94-2.096h-.127l.024.062A2 2 0 0 0 11 0H5C3.52 0 2.227.804 1.535 2H3.5c.418-.314.937-.5 1.5-.5M4.75 14v-2H11a2 2 0 0 0 2-2V2.75a3.25 3.25 0 0 1 2.678 1.434l.12.178A2.25 2.25 0 0 0 14.25 6.5v1.75a4 4 0 0 0 4 4h1V14a2.25 2.25 0 0 1-1.286 2.034 3 3 0 0 0-5.954.216h-1.52a3 3 0 0 0-5.543-1.327A2.2 2.2 0 0 1 4.75 14m14.5-3.25v-.881a1.25 1.25 0 0 0-.213-.698L16.733 5.75H16.5a.75.75 0 0 0-.75.75v1.75a2.5 2.5 0 0 0 2.5 2.5zM7.5 18a1.5 1.5 0 1 0 0-3 1.5 1.5 0 0 0 0 3m9-1.5a1.5 1.5 0 1 1-3 0 1.5 1.5 0 0 1 3 0" clip-rule="evenodd"/><path fill="#363538" d="M.25 4A.75.75 0 0 1 1 3.25h4a.75.75 0 0 1 0 1.5H1A.75.75 0 0 1 .25 4M1 6.25a.75.75 0 0 0 0 1.5h7a.75.75 0 0 0 0-1.5z"/></svg>