<svg xmlns="http://www.w3.org/2000/svg" width="200" height="74" fill="none"><path fill="#1A1A1A" d="M160.646 41.553V15.744h8.587v6.082q1.328-3.322 3.628-4.983t5.571-1.661q.537 0 1.073.05.563.027 1.124.103l-.868 8.28a9.7 9.7 0 0 0-3.143-.537q-3.322 0-5.137 2.044-1.788 2.02-1.789 5.75v10.681zM147.293 28.623q0-3.015-1.61-4.778-1.61-1.764-4.396-1.764t-4.395 1.764q-1.584 1.737-1.584 4.778 0 3.015 1.61 4.753t4.369 1.738q2.785 0 4.396-1.738t1.61-4.753m7.998-12.879v25.81h-8.356v-4.191q-1.79 2.682-4.038 3.935-2.223 1.252-5.238 1.252-5.162 0-8.254-3.756-3.092-3.783-3.092-10.12 0-6.31 3.22-10.017 3.245-3.73 8.714-3.73 2.913 0 5.008 1.252 2.121 1.226 3.629 3.807v-4.242zM114.365 28.674q0-3.015-1.609-4.753-1.585-1.738-4.345-1.738t-4.344 1.738-1.584 4.753q0 3.04 1.559 4.779 1.584 1.712 4.369 1.712 2.76 0 4.345-1.738 1.61-1.738 1.609-4.753m8.075-26.729v39.608h-8.381v-4.19q-1.738 2.605-3.91 3.91-2.172 1.276-4.83 1.277-5.443 0-8.662-3.757-3.22-3.756-3.22-10.119 0-6.158 3.194-9.94 3.22-3.808 8.382-3.808 3.27 0 5.315 1.176 2.07 1.175 3.68 3.935a21 21 0 0 1-.23-2.07 39 39 0 0 1-.077-2.53V1.945zM81.336 28.623q0-3.015-1.61-4.778-1.61-1.764-4.395-1.764t-4.395 1.764q-1.585 1.737-1.585 4.778 0 3.015 1.61 4.753t4.37 1.738q2.785 0 4.395-1.738t1.61-4.753m7.998-12.879v25.81h-8.356v-4.191q-1.788 2.682-4.037 3.935-2.223 1.252-5.239 1.252-5.16 0-8.254-3.756-3.091-3.783-3.092-10.12 0-6.31 3.22-10.017 3.245-3.73 8.714-3.73 2.913 0 5.008 1.252 2.122 1.226 3.63 3.807v-4.242zM30.291 41.553V4.143h10.656q6.26 0 8.714.587 2.479.563 4.267 1.917 2.02 1.533 3.092 3.91 1.1 2.376 1.099 5.238 0 4.344-2.147 7.079-2.12 2.707-6.21 3.603L59.96 41.553H48.434l-8.586-14.642v14.642zm9.557-19.727h1.891q3.297 0 4.804-1.125 1.533-1.125 1.533-3.526 0-2.811-1.43-3.986-1.407-1.201-4.754-1.201h-2.044z"/><path fill="#F0AD00" d="M65.88 53.931a7.647 7.647 0 0 1 7.095-8.162l117.476-8.214a7.647 7.647 0 0 1 8.162 7.094l.854 12.206a7.647 7.647 0 0 1-7.095 8.162L74.895 73.23a7.647 7.647 0 0 1-8.161-7.094zM19.032 46.988c-1.616.514-3.35-.378-3.802-2.014a79.77 79.77 0 0 1 .096-42.828C15.786.512 17.523-.372 19.138.15s2.494 2.252 2.04 3.887a73.6 73.6 0 0 0-.088 39.073c.446 1.637-.44 3.363-2.058 3.878M5.116 41.322c-1.651.389-3.312-.634-3.637-2.3A79.8 79.8 0 0 1 1.223 9.82c.296-1.67 1.938-2.722 3.596-2.362s2.704 1.995 2.413 3.667a73.6 73.6 0 0 0 .232 26.488c.32 1.666-.696 3.32-2.348 3.709"/><path fill="#fff" d="m179.885 53.762 3.874-.27-1.784-4.612q-.083-.21-.234-.68l-.388-1.208q-.09.536-.183 1.023-.084.486-.18.934zm-5.081 5.72 3.928-14.63 4.879-.342 5.936 13.94-3.873.271-.901-2.506-5.533.387-.563 2.608zM173.326 45.788l.298 4.255q-.863-.832-1.691-1.186a3.6 3.6 0 0 0-1.727-.301q-1.679.117-2.642 1.342-.955 1.213-.826 3.058.12 1.718 1.253 2.775 1.143 1.058 2.782.943a3.64 3.64 0 0 0 1.669-.528q.771-.476 1.509-1.43l.298 4.265a9.3 9.3 0 0 1-1.797.802 7.8 7.8 0 0 1-1.839.354 8 8 0 0 1-2.186-.132 6.1 6.1 0 0 1-1.873-.712q-1.675-.96-2.629-2.532-.952-1.57-1.095-3.61-.115-1.64.318-3.013a7.4 7.4 0 0 1 1.44-2.552 6.7 6.7 0 0 1 2.174-1.721q1.243-.606 2.803-.716a7.8 7.8 0 0 1 1.87.095 9.3 9.3 0 0 1 1.891.544M156.85 60.737l-.999-14.285 3.932-.276.999 14.286zM147.746 61.373l-.763-10.909-3.201.224-.236-3.376 10.295-.72.236 3.376-3.201.224.763 10.909z"/><path fill="#fff" d="m136.28 62.175-.455-6.518-5.539-7.418 4.469-.312 2.179 3.544a4.48 4.48 0 0 1 .563 1.177q.065-.485.345-1.094l.068-.151 1.645-3.812 4.479-.313-4.453 8.116.456 6.518zM124.201 63.02l-.999-14.285 3.893-.273.766 10.948 4.839-.338.234 3.337zM113.162 58.428l3.874-.27-1.783-4.612q-.084-.21-.234-.68l-.389-1.208q-.09.535-.183 1.023-.084.486-.18.934zm-5.081 5.719 3.929-14.63 4.878-.341 5.937 13.94-3.874.27-.901-2.505-5.532.387-.563 2.608zM92.723 65.22l-1-14.284 3.757-.263 5.91 6.97q.172.213.571.872.408.648.903 1.555-.18-.88-.286-1.569-.097-.69-.135-1.226l-.493-7.054 3.737-.262.999 14.285-3.737.262-5.912-7q-.182-.213-.59-.86-.399-.66-.883-1.547.18.89.277 1.579.108.69.145 1.225l.493 7.055zM81.684 60.63l3.874-.272-1.783-4.61q-.084-.21-.234-.68l-.389-1.209q-.09.535-.183 1.023-.084.486-.18.934zm-5.081 5.718 3.929-14.63 4.878-.34 5.937 13.94-3.874.27-.9-2.506-5.533.387-.563 2.608z"/></svg>