<svg xmlns="http://www.w3.org/2000/svg" width="20" height="16" fill="currentColor"><path fill-rule="evenodd" d="M15.8.11a3.117 3.117 0 0 1 3.95 3.004v7.773a3.117 3.117 0 0 1-3.95 3.002l-8.05-2.235v1.71a2.387 2.387 0 0 1-4.734.43l-.674-3.668a3.382 3.382 0 0 1 .384-6.384zM1.75 7c0 .845.564 1.587 1.378 1.813L15.25 12.18V1.82L3.128 5.187A1.88 1.88 0 0 0 1.75 7m15-5.5v11a1.62 1.62 0 0 0 1.5-1.614V3.114c0-.877-.685-1.556-1.5-1.614M3.954 10.6l.537 2.924a.887.887 0 0 0 1.759-.16v-2.127z" clip-rule="evenodd"/></svg>