<svg xmlns="http://www.w3.org/2000/svg" width="24" height="24" fill="none"><path fill="#5329FF" d="M17.63 8.048a.75.75 0 1 0 .923 1.182l2.155-1.685a.75.75 0 0 0 .096-1.093l-1.83-2.034a.75.75 0 0 0-1.115 1.004l.745.828H17a5.74 5.74 0 0 0-4.656 2.376c.352.453.636.963.834 1.514A4.25 4.25 0 0 1 17 7.75h1.01zM10.823 13.86c.197.55.48 1.06.833 1.514A5.74 5.74 0 0 1 7 17.75H4a.75.75 0 0 1 0-1.5h3a4.25 4.25 0 0 0 3.823-2.39"/><path fill="#5329FF" d="M3.25 7A.75.75 0 0 1 4 6.25h3A5.75 5.75 0 0 1 12.75 12 4.25 4.25 0 0 0 17 16.25h1.01l-.38-.298a.75.75 0 1 1 .923-1.182l2.155 1.685a.75.75 0 0 1 .096 1.093l-1.83 2.034a.75.75 0 1 1-1.115-1.004l.745-.828H17A5.75 5.75 0 0 1 11.25 12 4.25 4.25 0 0 0 7 7.75H4A.75.75 0 0 1 3.25 7"/></svg>