<svg xmlns="http://www.w3.org/2000/svg" width="20" height="20" fill="none"><path fill="#5329FF" d="M12.693 7.439a2.6 2.6 0 0 1-.79-1.551L11.5 2.805 8.77 4.29a2.6 2.6 0 0 1-1.72.273l-3.056-.57.57 3.056a2.6 2.6 0 0 1-.273 1.72L2.805 11.5l3.083.403a2.6 2.6 0 0 1 1.55.79l2.138 2.257 1.336-2.807a2.6 2.6 0 0 1 1.23-1.231l2.808-1.336zm.025 5.563-2.213 4.65a.6.6 0 0 1-.977.155l-3.542-3.74a.6.6 0 0 0-.357-.181l-5.107-.668a.6.6 0 0 1-.45-.881l2.463-4.524a.6.6 0 0 0 .062-.396l-.943-5.063a.6.6 0 0 1 .7-.7l5.063.943a.6.6 0 0 0 .396-.062L12.337.073a.6.6 0 0 1 .88.45l.669 5.106a.6.6 0 0 0 .182.357l3.739 3.542a.6.6 0 0 1-.155.977l-4.65 2.213a.6.6 0 0 0-.284.284m.797 1.927 1.414-1.414 4.243 4.242-1.415 1.415z"/></svg>