<svg xmlns="http://www.w3.org/2000/svg" width="20" height="20" fill="none"><path fill="#363538" d="M13.829 10.993a.75.75 0 0 1-.75-.75V9.21l-2.549 2.548a.75.75 0 0 1-1.06 0l-.97-.97-2.97 2.97a.75.75 0 1 1-1.06-1.06l3.5-3.5a.75.75 0 0 1 1.06 0l.97.969 2.004-2.004H11a.75.75 0 0 1 0-1.5h2.829a.75.75 0 0 1 .75.75v2.829a.75.75 0 0 1-.75.75"/><path fill="#363538" fill-rule="evenodd" d="M0 10c0 3.739 0 5.608.804 7A6 6 0 0 0 3 19.196C4.392 20 6.262 20 10 20s5.608 0 7-.804A6 6 0 0 0 19.196 17C20 15.608 20 13.739 20 10s0-5.608-.804-7A6 6 0 0 0 17 .804C15.608 0 13.739 0 10 0S4.392 0 3 .804A6 6 0 0 0 .804 3C0 4.392 0 6.262 0 10m17.897-6.25c.248.43.418 1.001.509 2.006.093 1.025.094 2.347.094 4.244s-.001 3.22-.094 4.244c-.091 1.005-.26 1.576-.509 2.006a4.5 4.5 0 0 1-1.647 1.647c-.43.248-1.001.418-2.006.509-1.025.093-2.347.094-4.244.094s-3.22-.001-4.244-.094c-1.005-.091-1.576-.26-2.006-.509a4.5 4.5 0 0 1-1.647-1.647c-.248-.43-.418-1.001-.509-2.006C1.501 13.22 1.5 11.897 1.5 10s.001-3.22.094-4.244c.091-1.005.26-1.576.509-2.006A4.5 4.5 0 0 1 3.75 2.103c.43-.248 1.001-.418 2.006-.509C6.78 1.501 8.103 1.5 10 1.5s3.22.001 4.244.094c1.005.091 1.576.26 2.006.509a4.5 4.5 0 0 1 1.647 1.647" clip-rule="evenodd"/></svg>