<svg xmlns="http://www.w3.org/2000/svg" width="54" height="54" fill="none"><path fill="#fff" d="M0 0h54v54H0z"/><path fill="#1A1A1A" d="M27 42.631V9.947h9.698q5.697 0 7.93.514 2.255.49 3.884 1.674a8.8 8.8 0 0 1 2.814 3.416q1 2.076 1 4.577 0 3.795-1.954 6.184-1.93 2.366-5.651 3.147L54 42.632H43.512L35.698 29.84v12.792zm8.698-17.235h1.72q3 0 4.373-.982 1.395-.983 1.395-3.08 0-2.457-1.302-3.484-1.28-1.05-4.326-1.049h-1.86z"/><path fill="#F0AD00" d="M17.736 48.184c-1.541.466-3.193-.341-3.624-1.82a68.6 68.6 0 0 1 .092-38.739c.438-1.477 2.094-2.277 3.632-1.805s2.377 2.037 1.944 3.516a63.33 63.33 0 0 0-.084 35.34c.426 1.481-.42 3.043-1.96 3.508M4.832 42.559c-1.56.341-3.128-.556-3.435-2.017a65.1 65.1 0 0 1-.242-25.618c.28-1.466 1.83-2.389 3.396-2.073s2.554 1.75 2.28 3.217a60.1 60.1 0 0 0 .219 23.237c.302 1.462-.658 2.913-2.218 3.254"/></svg>