<svg xmlns="http://www.w3.org/2000/svg" width="60" height="60" fill="none"><rect width="60" height="60" fill="#FF9066" opacity=".21" rx="10"/><path fill="#FF9066" d="M22.721 15.179a.5.5 0 0 0-.869.205l-1.633 6.848a.5.5 0 0 0 .514.616l7.045-.4a.5.5 0 0 0 .355-.82L26.33 19.48c1.165-.398 2.4-.606 3.669-.606 6.26 0 11.333 5.074 11.333 11.333S36.26 41.542 30 41.542s-11.333-5.074-11.333-11.334c0-1.05.142-2.08.42-3.069l-2.568-.72A14 14 0 0 0 16 30.21c0 7.731 6.268 14 14 14s14-6.269 14-14c0-7.733-6.268-14-14-14-1.945 0-3.797.396-5.48 1.113z" opacity=".901"/></svg>