<svg xmlns="http://www.w3.org/2000/svg" width="115" height="40" fill="none"><rect width="115" height="40" fill="#F93C65" rx="8"/><path fill="#F93C65" d="M12 16h16v13a1 1 0 0 1-1 1H13a1 1 0 0 1-1-1zm2 2v10h12V18zm3 2h2v6h-2zm4 0h2v6h-2zm-6-7v-2a1 1 0 0 1 1-1h8a1 1 0 0 1 1 1v2h5v2H10v-2zm2-1v1h6v-1zM43.136 26l1.968-3.712.016.576-5.232-8.144h1.792l4.256 6.688H45.6l3.52-6.688h1.728L44.864 26zm7.999 2.08v-3.328h.896q.528-.8.768-1.872t.24-2.592v-2.352h5.904v6.816h1.296v3.328h-1.392V26h-6.32v2.08zm2.384-3.312h3.904v-5.584H54.43v1.424q0 1.168-.24 2.288-.225 1.104-.672 1.872m11.474 1.376q-1.073 0-1.872-.496-.8-.495-1.248-1.44-.432-.944-.432-2.24 0-1.312.432-2.24.449-.928 1.248-1.424.8-.512 1.872-.512 1.056 0 1.84.528.785.528 1.04 1.44h-.176l.16-1.824h1.568l-.096.992q-.032.48-.032.944V26h-1.616v-1.792h.176a2.48 2.48 0 0 1-1.056 1.424q-.784.512-1.808.512m.4-1.264q1.04 0 1.664-.736.64-.735.64-2.176 0-1.44-.64-2.16-.623-.736-1.664-.736-1.056 0-1.696.736-.624.72-.624 2.16t.624 2.176 1.696.736m6.05 1.328-.544-1.28a3.1 3.1 0 0 0 .912-.56q.383-.352.591-.896.225-.544.32-1.344.097-.8.097-1.936v-2.256h6.08V26h-1.6v-6.8h-2.993v1.04q0 1.824-.287 3.024-.29 1.2-.928 1.904-.624.688-1.648 1.04M81.325 26v-8.064h1.472v6.512h-.448l4.864-6.512h1.344V26h-1.456v-6.528h.464L82.67 26zm11.385 0v-6.768h-2.848v-1.296h7.312v1.296H94.31V26zm5.756 0v-8.064h1.6v2.816h2.288q1.584 0 2.384.672.8.655.8 1.92 0 .816-.368 1.424-.368.593-1.088.912-.703.32-1.728.32zm1.6-1.104h2.112q.896 0 1.376-.368.48-.384.48-1.168t-.48-1.136q-.464-.368-1.376-.368h-2.112z"/></svg>