<svg xmlns="http://www.w3.org/2000/svg" width="95" height="45" fill="none"><rect width="94.544" height="45" fill="#5329FF" fill-opacity=".1" rx="8"/><path fill="#5329FF" fill-rule="evenodd" d="M9.5 21.604a7.876 7.876 0 1 1 15.751 0 7.876 7.876 0 0 1-15.751 0m7.876-9.376a9.376 9.376 0 1 0 0 18.751 9.34 9.34 0 0 0 6.078-2.237l4.03 4.03 1.06-1.06-4.03-4.03a9.34 9.34 0 0 0 2.237-6.078 9.375 9.375 0 0 0-9.375-9.376" clip-rule="evenodd"/><path fill="#5329FF" d="M37.873 28.5V17.22h1.664v4.864h6.336V17.22h1.664V28.5h-1.664v-5.024h-6.336V28.5zm15.352.144q-1.071 0-1.872-.496-.8-.495-1.248-1.44-.432-.944-.432-2.24 0-1.312.432-2.24.45-.928 1.248-1.424.801-.512 1.872-.512 1.056 0 1.84.528.785.528 1.04 1.44h-.176l.16-1.824h1.568l-.096.992q-.031.48-.032.944V28.5h-1.616v-1.792h.176a2.48 2.48 0 0 1-1.056 1.424q-.783.512-1.808.512m.4-1.264q1.04 0 1.664-.736.64-.735.64-2.176 0-1.44-.64-2.16-.623-.736-1.664-.736-1.056 0-1.696.736-.624.72-.624 2.16t.624 2.176 1.696.736m6.386 1.12v-8.064h1.472v6.512h-.448l4.864-6.512h1.344V28.5h-1.456v-6.528h.464L61.355 28.5zm3.616-8.8q-.736 0-1.312-.24a2.7 2.7 0 0 1-.992-.704 3.3 3.3 0 0 1-.608-1.152l.896-.32q.271.752.768 1.12.496.352 1.248.352.768 0 1.248-.336.495-.336.848-1.12l.832.304q-.384 1.088-1.152 1.6-.752.495-1.776.496m7.768 8.8v-6.768h-2.848v-1.296h7.312v1.296h-2.864V28.5zm5.757 0v-8.064h1.472v6.512h-.448l4.864-6.512h1.343V28.5h-1.456v-6.528h.464L78.497 28.5z"/></svg>