<svg xmlns="http://www.w3.org/2000/svg" width="149" height="36" fill="none"><rect width="149" height="36" fill="#00B69B" rx="8"/><circle cx="20" cy="18" r="4" fill="#00B69B"/><path fill="#1A1A1A" d="m35.2 24 1.952-3.68.032.544-5.248-8.144h1.616l4.368 6.816h-.32l3.6-6.816h1.552L36.768 24zm11.208.144q-1.2 0-2.08-.496a3.56 3.56 0 0 1-1.376-1.456q-.48-.96-.48-2.272 0-1.296.496-2.208a3.37 3.37 0 0 1 1.376-1.408q.88-.495 2.064-.496.785 0 1.52.272.735.255 1.2.752l-.496 1.024a2.9 2.9 0 0 0-1.024-.656 3 3 0 0 0-1.104-.224q-1.184 0-1.856.768-.672.752-.672 2.192 0 1.455.672 2.24.672.784 1.856.784.528 0 1.088-.208t1.04-.656l.496 1.008a3.1 3.1 0 0 1-1.232.784 4.5 4.5 0 0 1-1.488.256m6.35-.144v-6.88H49.86v-1.168h7.232v1.168h-2.896V24zm8.782.144q-1.056 0-1.856-.496-.8-.495-1.248-1.44-.448-.944-.448-2.24t.448-2.224q.448-.945 1.248-1.44t1.856-.496q1.072 0 1.856.544a2.48 2.48 0 0 1 1.056 1.456h-.192l.176-1.856h1.408l-.096.96q-.032.48-.032.944V24H64.26v-1.84h.176a2.55 2.55 0 0 1-1.056 1.456q-.784.528-1.84.528m.336-1.152q1.087 0 1.744-.768.656-.768.656-2.256t-.656-2.24-1.744-.752-1.76.752q-.656.752-.656 2.24t.656 2.256 1.76.768M68.279 24v-8.048h1.44v3.328h4.256v-3.328h1.44V24h-1.44v-3.568H69.72V24zm13.065.144q-1.184 0-2.048-.496a3.5 3.5 0 0 1-1.344-1.44q-.48-.944-.48-2.24 0-1.28.48-2.208.48-.945 1.344-1.44.864-.512 2.048-.512t2.048.512q.88.495 1.344 1.44.48.928.48 2.208 0 1.296-.48 2.24a3.37 3.37 0 0 1-1.344 1.44q-.863.495-2.048.496m0-1.152q1.089 0 1.744-.768.657-.768.656-2.256 0-1.488-.656-2.24-.655-.752-1.744-.752-1.103 0-1.76.752-.64.752-.64 2.24t.64 2.256q.657.768 1.76.768M87.294 24v-8.048h3.969q1.424 0 2.112.544.704.544.704 1.568 0 .768-.528 1.296-.528.512-1.376.624v-.208q1.008.032 1.584.592.592.544.592 1.408 0 1.024-.784 1.632-.768.592-2.16.592zm1.377-.96h2.64q.816 0 1.248-.336.432-.352.432-.992 0-.656-.432-.992t-1.248-.336h-2.64zm0-3.616h2.464q.751 0 1.168-.336t.416-.928q0-.608-.416-.928-.417-.32-1.168-.32H88.67zm7.255 4.768-.511-1.136q.56-.255.927-.608.385-.368.593-.928.223-.56.32-1.392.096-.832.096-2.016v-2.16h5.935V24h-1.439v-6.912h-3.152v1.056q0 1.855-.288 3.072-.273 1.2-.88 1.904-.592.705-1.6 1.072m13.565-.048q-1.92 0-3.04-1.104-1.104-1.105-1.104-3.04 0-1.28.48-2.208a3.6 3.6 0 0 1 1.36-1.456q.864-.528 2.016-.528 1.104 0 1.872.48.769.464 1.168 1.328.4.864.4 2.048v.48h-6.16v-.864h5.168l-.272.208q0-1.248-.56-1.936-.543-.688-1.616-.688-1.167 0-1.808.816-.64.8-.64 2.192v.144q0 1.472.72 2.224.736.752 2.032.752.72 0 1.344-.208a3.7 3.7 0 0 0 1.2-.688l.48 1.008q-.543.496-1.36.768a5.2 5.2 0 0 1-1.68.272M114.67 24v-8.048h1.44v3.328h4.256v-3.328h1.44V24h-1.44v-3.568h-4.256V24zm12.745.144q-1.056 0-1.856-.496-.8-.495-1.248-1.44-.448-.944-.448-2.24t.448-2.224q.448-.945 1.248-1.44t1.856-.496q1.072 0 1.856.544.8.528 1.056 1.456h-.192l.176-1.856h1.408l-.096.96q-.032.48-.032.944V24h-1.456v-1.84h.176a2.55 2.55 0 0 1-1.056 1.456q-.784.528-1.84.528m.336-1.152q1.088 0 1.744-.768t.656-2.256-.656-2.24-1.744-.752-1.76.752q-.656.752-.656 2.24t.656 2.256 1.76.768"/></svg>