<svg xmlns="http://www.w3.org/2000/svg" width="60" height="60" fill="none"><rect width="60" height="60" fill="#0069FF" rx="8.101"/><path fill="#fff" d="M30.042 39.24q-2.04 0-3.768-.504-1.704-.528-2.928-1.44l.96-2.424a10.7 10.7 0 0 0 1.704.984q.888.384 1.896.6 1.008.192 2.136.192 1.896 0 2.736-.624t.84-1.632q0-.888-.576-1.344-.576-.48-2.064-.792l-2.712-.552q-2.328-.48-3.48-1.608t-1.152-3.024q0-1.584.84-2.76t2.352-1.824 3.528-.648q1.8 0 3.336.528 1.536.504 2.568 1.464l-.96 2.304q-1.032-.864-2.256-1.272-1.224-.432-2.736-.432-1.704 0-2.664.672-.936.648-.936 1.8 0 .888.576 1.416.6.528 2.016.816l2.688.528q2.4.48 3.552 1.584 1.152 1.08 1.152 2.928 0 1.512-.816 2.664-.816 1.128-2.304 1.776-1.488.624-3.528.624"/></svg>