<svg xmlns="http://www.w3.org/2000/svg" width="252" height="45" fill="none"><rect width="252" height="45" fill="#5329FF" fill-opacity=".05" rx="8"/><path fill="#5329FF" d="M17 31.5a9 9 0 0 1-9-9 9 9 0 0 1 9-9 9 9 0 0 1 9 9 9 9 0 0 1-9 9m0-1.8a7.2 7.2 0 1 0 0-14.4 7.2 7.2 0 0 0 0 14.4m0-11.655 4.455 4.455L17 26.955 12.545 22.5zm0 2.546L15.091 22.5 17 24.409l1.909-1.909zM37.136 28.5l1.968-3.712.016.576-5.232-8.144h1.792l4.256 6.688H39.6l3.52-6.688h1.728L38.864 28.5zm11.383.144q-1.216 0-2.128-.496A3.53 3.53 0 0 1 45 26.692q-.48-.96-.48-2.272 0-1.296.496-2.224a3.35 3.35 0 0 1 1.392-1.408q.897-.495 2.112-.496.785 0 1.52.272.736.256 1.216.736l-.528 1.136a2.9 2.9 0 0 0-1.008-.64 2.9 2.9 0 0 0-1.088-.224q-1.151 0-1.808.736-.656.735-.656 2.128 0 1.408.656 2.16t1.808.752q.512 0 1.072-.192a2.9 2.9 0 0 0 1.024-.656l.528 1.136q-.496.48-1.248.752a4.5 4.5 0 0 1-1.488.256m6.3-.144v-6.768h-2.848v-1.296h7.312v1.296h-2.864V28.5zm8.908.144q-1.071 0-1.872-.496-.8-.495-1.248-1.44-.432-.944-.432-2.24 0-1.312.432-2.24.448-.928 1.248-1.424.801-.512 1.872-.512 1.056 0 1.84.528.785.528 1.04 1.44h-.176l.16-1.824h1.568l-.096.992q-.032.48-.032.944V28.5h-1.616v-1.792h.176a2.48 2.48 0 0 1-1.056 1.424q-.783.512-1.808.512m.4-1.264q1.04 0 1.664-.736.64-.735.64-2.176 0-1.44-.64-2.16-.623-.736-1.664-.736-1.056 0-1.696.736-.624.72-.624 2.16t.624 2.176 1.696.736m6.386 1.12v-8.064h1.6v3.28h4.08v-3.28h1.6V28.5h-1.6v-3.52h-4.08v3.52zm13.239.144q-1.2 0-2.08-.496a3.48 3.48 0 0 1-1.36-1.44q-.48-.944-.48-2.24t.48-2.224q.48-.945 1.36-1.44.88-.512 2.08-.512t2.08.512q.896.495 1.376 1.44.495.928.496 2.224 0 1.296-.496 2.24a3.45 3.45 0 0 1-1.376 1.44q-.88.495-2.08.496m0-1.264q1.056 0 1.68-.736.624-.735.624-2.176 0-1.44-.624-2.16-.624-.736-1.68-.736-1.04 0-1.664.736-.624.72-.624 2.16t.608 2.176q.624.736 1.68.736M89.7 28.5v-8.064h4.064q1.457 0 2.144.56.704.544.704 1.552 0 .784-.528 1.296-.511.512-1.36.624v-.208q1.008.048 1.584.592t.576 1.408q0 1.04-.784 1.648-.767.592-2.192.592zm1.52-1.04h2.56q.784 0 1.2-.32.417-.336.416-.96 0-.623-.416-.944t-1.2-.32h-2.56zm0-3.584h2.384q.72 0 1.12-.32t.4-.88q0-.576-.4-.88-.4-.32-1.12-.32H91.22zm7.574 4.624v-8.064h1.472v6.512h-.448l4.864-6.512h1.344V28.5h-1.456v-6.528h.464l-4.896 6.528zm11.384 0v-6.768h-2.848v-1.296h7.312v1.296h-2.864V28.5zm5.757 0v-8.064h1.6v2.816h2.288q1.583 0 2.384.672.8.655.8 1.92 0 .816-.368 1.424-.369.593-1.088.912-.705.32-1.728.32zm1.6-1.104h2.112q.896 0 1.376-.368.48-.384.48-1.168t-.48-1.136q-.464-.368-1.376-.368h-2.112zm15.156 1.248q-1.216 0-2.128-.496a3.53 3.53 0 0 1-1.392-1.456q-.48-.96-.48-2.272 0-1.296.496-2.224a3.35 3.35 0 0 1 1.392-1.408q.895-.495 2.112-.496.784 0 1.52.272.736.256 1.216.736l-.528 1.136a2.9 2.9 0 0 0-1.008-.64 2.9 2.9 0 0 0-1.088-.224q-1.152 0-1.808.736-.656.735-.656 2.128 0 1.408.656 2.16t1.808.752q.512 0 1.072-.192a2.9 2.9 0 0 0 1.024-.656l.528 1.136a3.5 3.5 0 0 1-1.248.752q-.737.255-1.488.256m8.364 0q-1.951 0-3.072-1.104t-1.12-3.056q0-1.265.48-2.208a3.6 3.6 0 0 1 1.36-1.456q.88-.528 2.032-.528 1.136 0 1.904.48t1.168 1.36q.4.864.4 2.048v.512h-6.08v-.928h4.976l-.272.208q0-1.2-.544-1.856-.528-.672-1.536-.672-1.12 0-1.728.784-.608.768-.608 2.128v.16q0 1.425.688 2.144.704.72 1.984.72.704 0 1.312-.192a3.7 3.7 0 0 0 1.184-.672l.528 1.104a3.9 3.9 0 0 1-1.36.768 5.5 5.5 0 0 1-1.696.256m8.714 0q-1.824 0-2.912-1.136-1.072-1.136-1.072-3.344v-1.392q0-2.256.96-3.632.975-1.376 3.008-1.856l2.944-.704.464 1.296-3.296.768q-.864.192-1.424.72a3.45 3.45 0 0 0-.848 1.248q-.273.72-.272 1.536v.736h-.24q.191-.736.608-1.248.432-.528 1.056-.816a3.3 3.3 0 0 1 1.424-.304q1.04 0 1.824.48t1.216 1.392q.447.896.448 2.128 0 1.28-.48 2.208a3.38 3.38 0 0 1-1.36 1.424q-.864.495-2.048.496m-.048-1.248q1.087 0 1.696-.704.624-.72.624-2.112 0-1.376-.624-2.096t-1.696-.72-1.696.72q-.624.704-.624 2.016 0 1.44.608 2.176.623.72 1.712.72m9.74 1.248q-1.951 0-3.072-1.104t-1.12-3.056q0-1.265.48-2.208a3.6 3.6 0 0 1 1.36-1.456q.88-.528 2.032-.528 1.136 0 1.904.48t1.168 1.36q.4.864.4 2.048v.512h-6.08v-.928h4.976l-.272.208q0-1.2-.544-1.856-.528-.672-1.536-.672-1.12 0-1.728.784-.608.768-.608 2.128v.16q0 1.425.688 2.144.704.72 1.984.72.704 0 1.312-.192a3.7 3.7 0 0 0 1.184-.672l.528 1.104a3.9 3.9 0 0 1-1.36.768 5.5 5.5 0 0 1-1.696.256m8.73 0q-1.216 0-2.128-.496a3.53 3.53 0 0 1-1.392-1.456q-.48-.96-.48-2.272 0-1.296.496-2.224a3.35 3.35 0 0 1 1.392-1.408q.895-.495 2.112-.496.784 0 1.52.272.736.256 1.216.736l-.528 1.136a2.9 2.9 0 0 0-1.008-.64 2.9 2.9 0 0 0-1.088-.224q-1.152 0-1.808.736-.656.735-.656 2.128 0 1.408.656 2.16t1.808.752q.512 0 1.072-.192a2.9 2.9 0 0 0 1.024-.656l.528 1.136a3.5 3.5 0 0 1-1.248.752q-.737.255-1.488.256m6.3-.144v-6.768h-2.848v-1.296h7.312v1.296h-2.864V28.5zm9.229.144q-1.2 0-2.08-.496a3.5 3.5 0 0 1-1.36-1.44q-.48-.944-.48-2.24t.48-2.224q.48-.945 1.36-1.44.88-.512 2.08-.512t2.08.512q.897.495 1.376 1.44.496.928.496 2.224t-.496 2.24a3.44 3.44 0 0 1-1.376 1.44q-.88.495-2.08.496m0-1.264q1.056 0 1.68-.736.624-.735.624-2.176 0-1.44-.624-2.16-.624-.736-1.68-.736-1.04 0-1.664.736-.624.72-.624 2.16t.608 2.176q.624.736 1.68.736m5.949 1.12v-8.064h1.472v6.512h-.448l4.864-6.512h1.344V28.5h-1.456v-6.528h.464l-4.896 6.528zm9.656 0v-8.064h1.344l2.912 5.152 2.912-5.152h1.344V28.5h-1.424v-6.256h.352l-2.8 4.96h-.768l-2.8-4.96h.352V28.5zm14.458.144q-1.2 0-2.08-.496a3.47 3.47 0 0 1-1.36-1.44q-.48-.944-.48-2.24t.48-2.224a3.35 3.35 0 0 1 1.36-1.44q.88-.512 2.08-.512t2.08.512q.896.495 1.376 1.44.496.928.496 2.224t-.496 2.24a3.45 3.45 0 0 1-1.376 1.44q-.88.495-2.08.496m0-1.264q1.056 0 1.68-.736.624-.735.624-2.176 0-1.44-.624-2.16-.624-.736-1.68-.736-1.04 0-1.664.736-.624.72-.624 2.16t.608 2.176q.624.736 1.68.736m9.549 1.264q-1.216 0-2.128-.496a3.5 3.5 0 0 1-1.392-1.456q-.48-.96-.48-2.272 0-1.296.496-2.224a3.34 3.34 0 0 1 1.392-1.408q.895-.495 2.112-.496.783 0 1.52.272.736.256 1.216.736l-.528 1.136a2.9 2.9 0 0 0-1.008-.64 2.9 2.9 0 0 0-1.088-.224q-1.152 0-1.808.736-.656.735-.656 2.128 0 1.408.656 2.16t1.808.752q.511 0 1.072-.192a2.95 2.95 0 0 0 1.024-.656l.528 1.136a3.5 3.5 0 0 1-1.248.752q-.736.255-1.488.256m6.3-.144v-6.768h-2.848v-1.296h7.312v1.296h-2.864V28.5zm5.756 0v-8.064h1.6v2.816h2.288q1.584 0 2.384.672.8.655.8 1.92 0 .816-.368 1.424-.368.593-1.088.912-.703.32-1.728.32zm1.6-1.104h2.112q.896 0 1.376-.368.48-.384.48-1.168t-.48-1.136q-.464-.368-1.376-.368h-2.112z"/></svg>