<svg xmlns="http://www.w3.org/2000/svg" width="20" height="21" fill="none"><path fill="#363538" fill-rule="evenodd" d="M7.693 1.424a4.75 4.75 0 0 1 4.614 0l5 2.777a4.75 4.75 0 0 1 2.443 4.153v4.292a4.75 4.75 0 0 1-2.443 4.153l-5 2.777a4.75 4.75 0 0 1-4.614 0l-5-2.777A4.75 4.75 0 0 1 .25 12.646V8.354A4.75 4.75 0 0 1 2.693 4.2zm3.885 1.31a3.25 3.25 0 0 0-3.156 0l-.838.466 6.44 4.03 2.729-1.613a3 3 0 0 0-.175-.104zm6.238 3.997-5.437 3.216-.002.001a4.8 4.8 0 0 1-1.627.606v8.033c.286-.068.565-.175.828-.322l5-2.778a3.25 3.25 0 0 0 1.672-2.84V8.353c0-.58-.155-1.138-.434-1.623M9.25 10.575a4.8 4.8 0 0 1-1.644-.56L2.088 6.91a3.25 3.25 0 0 0-.338 1.444v4.292c0 1.18.64 2.268 1.672 2.841l5 2.778c.263.147.542.254.828.322zM3.068 5.74l5.274 2.967a3.25 3.25 0 0 0 3.265-.046l.004-.002.96-.568-6.485-4.059-2.664 1.48a3 3 0 0 0-.354.228" clip-rule="evenodd"/></svg>