<svg width="1190" height="74" viewBox="0 0 1190 74" fill="none" xmlns="http://www.w3.org/2000/svg">
<path d="M1.376 16V4.72H10.896V16H9.424V5.968H2.848V16H1.376ZM17.2256 16.144C15.9456 16.144 14.9323 15.776 14.1856 15.04C13.4496 14.304 13.0816 13.2907 13.0816 12C13.0816 11.1467 13.2416 10.4107 13.5616 9.792C13.8923 9.16267 14.3456 8.67733 14.9216 8.336C15.4976 7.984 16.1696 7.808 16.9376 7.808C17.6736 7.808 18.2976 7.968 18.8096 8.288C19.3216 8.59733 19.711 9.04 19.9776 9.616C20.2443 10.192 20.3776 10.8747 20.3776 11.664V12.144H14.2176V11.28H19.3856L19.1136 11.488C19.1136 10.656 18.927 10.0107 18.5536 9.552C18.191 9.09333 17.6523 8.864 16.9376 8.864C16.159 8.864 15.5563 9.136 15.1296 9.68C14.703 10.2133 14.4896 10.944 14.4896 11.872V12.016C14.4896 12.9973 14.7296 13.7387 15.2096 14.24C15.7003 14.7413 16.3776 14.992 17.2416 14.992C17.7216 14.992 18.1696 14.9227 18.5856 14.784C19.0016 14.6453 19.4016 14.416 19.7856 14.096L20.2656 15.104C19.903 15.4347 19.4496 15.6907 18.9056 15.872C18.3723 16.0533 17.8123 16.144 17.2256 16.144ZM22.4523 19.456V9.856C22.4523 9.54667 22.4416 9.232 22.4203 8.912C22.3989 8.592 22.3669 8.272 22.3243 7.952H23.7323L23.9083 9.808H23.7323C23.8923 9.18933 24.2336 8.704 24.7563 8.352C25.2789 7.98933 25.9029 7.808 26.6283 7.808C27.3429 7.808 27.9669 7.97333 28.5003 8.304C29.0336 8.63467 29.4443 9.11467 29.7323 9.744C30.0309 10.3627 30.1803 11.104 30.1803 11.968C30.1803 12.832 30.0309 13.5787 29.7323 14.208C29.4443 14.8373 29.0336 15.3173 28.5003 15.648C27.9669 15.9787 27.3429 16.144 26.6283 16.144C25.9136 16.144 25.2949 15.968 24.7723 15.616C24.2603 15.2533 23.9136 14.768 23.7323 14.16H23.9083V19.456H22.4523ZM26.2923 14.992C27.0283 14.992 27.6149 14.736 28.0523 14.224C28.4896 13.712 28.7083 12.96 28.7083 11.968C28.7083 10.976 28.4896 10.2293 28.0523 9.728C27.6149 9.22667 27.0283 8.976 26.2923 8.976C25.5563 8.976 24.9696 9.22667 24.5323 9.728C24.1056 10.2293 23.8923 10.976 23.8923 11.968C23.8923 12.96 24.1056 13.712 24.5323 14.224C24.9696 14.736 25.5563 14.992 26.2923 14.992ZM32.2636 16V7.952H33.5916V14.624H33.1596L38.1516 7.952H39.3676V16H38.0396V9.312H38.4876L33.4796 16H32.2636ZM45.2974 16.144C44.508 16.144 43.8254 15.9787 43.2494 15.648C42.6734 15.3067 42.2254 14.8267 41.9054 14.208C41.5854 13.5787 41.4254 12.832 41.4254 11.968C41.4254 11.1147 41.5854 10.3787 41.9054 9.76C42.2254 9.13067 42.6734 8.65067 43.2494 8.32C43.8254 7.97867 44.508 7.808 45.2974 7.808C46.0867 7.808 46.7694 7.97867 47.3454 8.32C47.932 8.65067 48.38 9.13067 48.6894 9.76C49.0094 10.3787 49.1694 11.1147 49.1694 11.968C49.1694 12.832 49.0094 13.5787 48.6894 14.208C48.38 14.8267 47.932 15.3067 47.3454 15.648C46.7694 15.9787 46.0867 16.144 45.2974 16.144ZM45.2974 14.992C46.0227 14.992 46.604 14.736 47.0414 14.224C47.4787 13.712 47.6974 12.96 47.6974 11.968C47.6974 10.976 47.4787 10.2293 47.0414 9.728C46.604 9.22667 46.0227 8.976 45.2974 8.976C44.5614 8.976 43.9747 9.22667 43.5374 9.728C43.1107 10.2293 42.8974 10.976 42.8974 11.968C42.8974 12.96 43.1107 13.712 43.5374 14.224C43.9747 14.736 44.5614 14.992 45.2974 14.992ZM50.416 18.08V14.864H51.296C51.6587 14.32 51.92 13.68 52.08 12.944C52.2507 12.208 52.336 11.3333 52.336 10.32V7.952H58.112V14.864H59.392V18.08H58.144V16H51.68V18.08H50.416ZM52.672 14.88H56.752V9.072H53.616V10.576C53.616 11.3867 53.536 12.176 53.376 12.944C53.216 13.7013 52.9813 14.3467 52.672 14.88Z" fill="#1A1A1A"/>
<rect y="30" width="240" height="44" rx="8" fill="black" fill-opacity="0.05"/>
<path d="M17.328 58V46.72H26.96V58H25.312V48.096H18.976V58H17.328ZM33.0173 58.144C32.2173 58.144 31.5239 57.9787 30.9373 57.648C30.3506 57.3067 29.8973 56.8267 29.5773 56.208C29.2573 55.5787 29.0973 54.832 29.0973 53.968C29.0973 53.104 29.2573 52.3627 29.5773 51.744C29.8973 51.1147 30.3506 50.6347 30.9373 50.304C31.5239 49.9627 32.2173 49.792 33.0173 49.792C33.8173 49.792 34.5106 49.9627 35.0973 50.304C35.6946 50.6347 36.1533 51.1147 36.4733 51.744C36.8039 52.3627 36.9693 53.104 36.9693 53.968C36.9693 54.832 36.8039 55.5787 36.4733 56.208C36.1533 56.8267 35.6946 57.3067 35.0973 57.648C34.5106 57.9787 33.8173 58.144 33.0173 58.144ZM33.0173 56.88C33.7213 56.88 34.2813 56.6347 34.6973 56.144C35.1133 55.6533 35.3213 54.928 35.3213 53.968C35.3213 53.008 35.1133 52.288 34.6973 51.808C34.2813 51.3173 33.7213 51.072 33.0173 51.072C32.3239 51.072 31.7693 51.3173 31.3533 51.808C30.9373 52.288 30.7293 53.008 30.7293 53.968C30.7293 54.928 30.9319 55.6533 31.3373 56.144C31.7533 56.6347 32.3133 56.88 33.0173 56.88ZM42.566 58.144C41.7553 58.144 41.046 57.9787 40.438 57.648C39.8407 57.3067 39.3767 56.8213 39.046 56.192C38.726 55.552 38.566 54.7947 38.566 53.92C38.566 53.056 38.7313 52.3147 39.062 51.696C39.3927 51.0773 39.8567 50.608 40.454 50.288C41.0513 49.9573 41.7553 49.792 42.566 49.792C43.0887 49.792 43.5953 49.8827 44.086 50.064C44.5767 50.2347 44.982 50.48 45.302 50.8L44.774 51.936C44.4753 51.648 44.1393 51.4347 43.766 51.296C43.3927 51.1467 43.03 51.072 42.678 51.072C41.91 51.072 41.3073 51.3173 40.87 51.808C40.4327 52.2987 40.214 53.008 40.214 53.936C40.214 54.8747 40.4327 55.5947 40.87 56.096C41.3073 56.5973 41.91 56.848 42.678 56.848C43.0193 56.848 43.3767 56.784 43.75 56.656C44.1233 56.5173 44.4647 56.2987 44.774 56L45.302 57.136C44.9713 57.456 44.5553 57.7067 44.054 57.888C43.5633 58.0587 43.0673 58.144 42.566 58.144ZM46.8019 58.208L46.2579 56.928C46.6205 56.7787 46.9245 56.592 47.1699 56.368C47.4259 56.1333 47.6232 55.8347 47.7619 55.472C47.9112 55.1093 48.0179 54.6613 48.0819 54.128C48.1459 53.5947 48.1779 52.9493 48.1779 52.192V49.936H54.2579V58H52.6579V51.2H49.6659V52.24C49.6659 53.456 49.5699 54.464 49.3779 55.264C49.1859 56.064 48.8765 56.6987 48.4499 57.168C48.0339 57.6267 47.4845 57.9733 46.8019 58.208ZM60.4768 58.144C59.1754 58.144 58.1514 57.776 57.4048 57.04C56.6581 56.304 56.2848 55.2853 56.2848 53.984C56.2848 53.1413 56.4448 52.4053 56.7648 51.776C57.0954 51.1467 57.5488 50.6613 58.1248 50.32C58.7114 49.968 59.3888 49.792 60.1568 49.792C60.9141 49.792 61.5488 49.952 62.0608 50.272C62.5728 50.592 62.9621 51.0453 63.2288 51.632C63.4954 52.208 63.6288 52.8907 63.6288 53.68V54.192H57.5488V53.264H62.5248L62.2528 53.472C62.2528 52.672 62.0714 52.0533 61.7088 51.616C61.3568 51.168 60.8448 50.944 60.1727 50.944C59.4261 50.944 58.8501 51.2053 58.4448 51.728C58.0394 52.24 57.8368 52.9493 57.8368 53.856V54.016C57.8368 54.9653 58.0661 55.68 58.5248 56.16C58.9941 56.64 59.6554 56.88 60.5088 56.88C60.9781 56.88 61.4154 56.816 61.8208 56.688C62.2368 56.5493 62.6314 56.3253 63.0048 56.016L63.5328 57.12C63.1594 57.4507 62.7061 57.7067 62.1728 57.888C61.6394 58.0587 61.0741 58.144 60.4768 58.144ZM64.8066 60.08V56.752H65.7026C66.0546 56.2187 66.3106 55.5947 66.4706 54.88C66.6306 54.1653 66.7106 53.3013 66.7106 52.288V49.936H72.6146V56.752H73.9106V60.08H72.5186V58H66.1986V60.08H64.8066ZM67.1906 56.768H71.0946V51.184H68.1026V52.608C68.1026 53.3867 68.0226 54.1493 67.8626 54.896C67.7133 55.632 67.4893 56.256 67.1906 56.768ZM75.5129 58V49.936H77.1129V53.216H81.1929V49.936H82.7929V58H81.1929V54.48H77.1129V58H75.5129ZM85.2316 58V49.936H86.7036V56.448H86.2556L91.1196 49.936H92.4636V58H91.0076V51.472H91.4716L86.5756 58H85.2316ZM98.6799 58.144C97.3785 58.144 96.3545 57.776 95.6079 57.04C94.8612 56.304 94.4879 55.2853 94.4879 53.984C94.4879 53.1413 94.6479 52.4053 94.9679 51.776C95.2985 51.1467 95.7519 50.6613 96.3279 50.32C96.9145 49.968 97.5919 49.792 98.3599 49.792C99.1172 49.792 99.7519 49.952 100.264 50.272C100.776 50.592 101.165 51.0453 101.432 51.632C101.699 52.208 101.832 52.8907 101.832 53.68V54.192H95.7519V53.264H100.728L100.456 53.472C100.456 52.672 100.275 52.0533 99.9119 51.616C99.5599 51.168 99.0479 50.944 98.3759 50.944C97.6292 50.944 97.0532 51.2053 96.6479 51.728C96.2425 52.24 96.0399 52.9493 96.0399 53.856V54.016C96.0399 54.9653 96.2692 55.68 96.7279 56.16C97.1972 56.64 97.8585 56.88 98.7119 56.88C99.1812 56.88 99.6185 56.816 100.024 56.688C100.44 56.5493 100.835 56.3253 101.208 56.016L101.736 57.12C101.363 57.4507 100.909 57.7067 100.376 57.888C99.8425 58.0587 99.2772 58.144 98.6799 58.144ZM108.779 58V56.608H111.403V48.128H112.235L109.035 50.08V48.48L111.867 46.72H113.067V56.608H115.531V58H108.779ZM122.405 58V55.664H117.189V54.48L122.677 46.72H124.021V54.368H125.701V55.664H124.021V58H122.405ZM122.405 54.368V48.688H122.773L118.485 54.768V54.368H122.405ZM130.729 60.08V56.752H131.625C131.977 56.2187 132.233 55.5947 132.393 54.88C132.553 54.1653 132.633 53.3013 132.633 52.288V49.936H138.536V56.752H139.833V60.08H138.441V58H132.121V60.08H130.729ZM133.113 56.768H137.017V51.184H134.025V52.608C134.025 53.3867 133.945 54.1493 133.785 54.896C133.635 55.632 133.411 56.256 133.113 56.768ZM141.435 58V49.936H143.035V53.216H147.115V49.936H148.715V58H147.115V54.48H143.035V58H141.435ZM154.946 58.144C153.644 58.144 152.62 57.776 151.874 57.04C151.127 56.304 150.754 55.2853 150.754 53.984C150.754 53.1413 150.914 52.4053 151.234 51.776C151.564 51.1467 152.018 50.6613 152.594 50.32C153.18 49.968 153.858 49.792 154.626 49.792C155.383 49.792 156.018 49.952 156.53 50.272C157.042 50.592 157.431 51.0453 157.698 51.632C157.964 52.208 158.098 52.8907 158.098 53.68V54.192H152.018V53.264H156.994L156.722 53.472C156.722 52.672 156.54 52.0533 156.178 51.616C155.826 51.168 155.314 50.944 154.641 50.944C153.895 50.944 153.319 51.2053 152.914 51.728C152.508 52.24 152.306 52.9493 152.306 53.856V54.016C152.306 54.9653 152.535 55.68 152.994 56.16C153.463 56.64 154.124 56.88 154.978 56.88C155.447 56.88 155.884 56.816 156.29 56.688C156.706 56.5493 157.1 56.3253 157.474 56.016L158.002 57.12C157.628 57.4507 157.175 57.7067 156.642 57.888C156.108 58.0587 155.543 58.144 154.946 58.144ZM160.075 58V49.936H161.547V56.448H161.099L165.963 49.936H167.307V58H165.851V51.472H166.315L161.419 58H160.075ZM163.691 49.2C163.201 49.2 162.763 49.12 162.379 48.96C161.995 48.8 161.665 48.5653 161.387 48.256C161.121 47.936 160.918 47.552 160.779 47.104L161.675 46.784C161.857 47.2853 162.113 47.6587 162.443 47.904C162.774 48.1387 163.19 48.256 163.691 48.256C164.203 48.256 164.619 48.144 164.939 47.92C165.27 47.696 165.553 47.3227 165.787 46.8L166.619 47.104C166.363 47.8293 165.979 48.3627 165.467 48.704C164.966 49.0347 164.374 49.2 163.691 49.2Z" fill="#1A1A1A"/>
<path d="M212 49L218 55L224 49" stroke="#8C8C8C" stroke-width="2" stroke-linecap="round"/>
<path d="M257.376 16V4.72H258.688L263.136 14.736H262.656L267.104 4.72H268.4V16H267.04V6.704H267.536L263.36 16H262.416L258.24 6.704H258.736V16H257.376ZM274.149 16.144C273.445 16.144 272.827 15.9787 272.293 15.648C271.76 15.3173 271.344 14.8373 271.045 14.208C270.747 13.5787 270.597 12.832 270.597 11.968C270.597 11.104 270.747 10.3627 271.045 9.744C271.344 9.11467 271.76 8.63467 272.293 8.304C272.827 7.97333 273.445 7.808 274.149 7.808C274.864 7.808 275.483 7.98933 276.005 8.352C276.539 8.704 276.891 9.18933 277.061 9.808H276.869L277.045 7.952H278.453C278.421 8.272 278.389 8.592 278.357 8.912C278.336 9.232 278.325 9.54667 278.325 9.856V16H276.869V14.16H277.045C276.875 14.768 276.523 15.2533 275.989 15.616C275.467 15.968 274.853 16.144 274.149 16.144ZM274.485 14.992C275.211 14.992 275.792 14.736 276.229 14.224C276.667 13.712 276.885 12.96 276.885 11.968C276.885 10.976 276.667 10.2293 276.229 9.728C275.792 9.22667 275.211 8.976 274.485 8.976C273.76 8.976 273.173 9.22667 272.725 9.728C272.288 10.2293 272.069 10.976 272.069 11.968C272.069 12.96 272.288 13.712 272.725 14.224C273.163 14.736 273.749 14.992 274.485 14.992ZM280.937 19.456V9.856C280.937 9.54667 280.926 9.232 280.905 8.912C280.883 8.592 280.851 8.272 280.809 7.952H282.217L282.393 9.808H282.217C282.377 9.18933 282.718 8.704 283.241 8.352C283.763 7.98933 284.387 7.808 285.113 7.808C285.827 7.808 286.451 7.97333 286.985 8.304C287.518 8.63467 287.929 9.11467 288.217 9.744C288.515 10.3627 288.665 11.104 288.665 11.968C288.665 12.832 288.515 13.5787 288.217 14.208C287.929 14.8373 287.518 15.3173 286.985 15.648C286.451 15.9787 285.827 16.144 285.113 16.144C284.398 16.144 283.779 15.968 283.257 15.616C282.745 15.2533 282.398 14.768 282.217 14.16H282.393V19.456H280.937ZM284.777 14.992C285.513 14.992 286.099 14.736 286.537 14.224C286.974 13.712 287.193 12.96 287.193 11.968C287.193 10.976 286.974 10.2293 286.537 9.728C286.099 9.22667 285.513 8.976 284.777 8.976C284.041 8.976 283.454 9.22667 283.017 9.728C282.59 10.2293 282.377 10.976 282.377 11.968C282.377 12.96 282.59 13.712 283.017 14.224C283.454 14.736 284.041 14.992 284.777 14.992ZM290.748 16V7.952H292.188V11.28H293.644L296.236 7.952H297.82L294.812 11.872L294.428 11.424C294.737 11.456 295.004 11.536 295.228 11.664C295.452 11.7813 295.665 11.9573 295.868 12.192C296.081 12.4267 296.311 12.7413 296.556 13.136L298.22 16H296.652L295.196 13.52C295.036 13.232 294.876 13.008 294.716 12.848C294.556 12.688 294.375 12.576 294.172 12.512C293.98 12.448 293.735 12.416 293.436 12.416H292.188V16H290.748ZM303.179 16.144C301.899 16.144 300.885 15.776 300.139 15.04C299.403 14.304 299.035 13.2907 299.035 12C299.035 11.1467 299.195 10.4107 299.515 9.792C299.845 9.16267 300.299 8.67733 300.875 8.336C301.451 7.984 302.123 7.808 302.891 7.808C303.627 7.808 304.251 7.968 304.763 8.288C305.275 8.59733 305.664 9.04 305.931 9.616C306.197 10.192 306.331 10.8747 306.331 11.664V12.144H300.171V11.28H305.339L305.067 11.488C305.067 10.656 304.88 10.0107 304.507 9.552C304.144 9.09333 303.605 8.864 302.891 8.864C302.112 8.864 301.509 9.136 301.083 9.68C300.656 10.2133 300.443 10.944 300.443 11.872V12.016C300.443 12.9973 300.683 13.7387 301.163 14.24C301.653 14.7413 302.331 14.992 303.195 14.992C303.675 14.992 304.123 14.9227 304.539 14.784C304.955 14.6453 305.355 14.416 305.739 14.096L306.219 15.104C305.856 15.4347 305.403 15.6907 304.859 15.872C304.325 16.0533 303.765 16.144 303.179 16.144ZM310.085 16V9.12H307.189V7.952H314.421V9.12H311.525V16H310.085ZM315.748 16V7.952H322.836V16H321.396V9.088H317.188V16H315.748ZM324.942 16.192L324.43 15.056C324.803 14.8853 325.113 14.6827 325.358 14.448C325.614 14.2027 325.811 13.8933 325.95 13.52C326.099 13.1467 326.206 12.6827 326.27 12.128C326.334 11.5733 326.366 10.9013 326.366 10.112V7.952H332.302V16H330.862V9.088H327.71V10.144C327.71 11.3813 327.614 12.4053 327.422 13.216C327.241 14.016 326.947 14.6507 326.542 15.12C326.147 15.5893 325.614 15.9467 324.942 16.192ZM338.507 16.144C337.227 16.144 336.214 15.776 335.467 15.04C334.731 14.304 334.363 13.2907 334.363 12C334.363 11.1467 334.523 10.4107 334.843 9.792C335.174 9.16267 335.627 8.67733 336.203 8.336C336.779 7.984 337.451 7.808 338.219 7.808C338.955 7.808 339.579 7.968 340.091 8.288C340.603 8.59733 340.992 9.04 341.259 9.616C341.526 10.192 341.659 10.8747 341.659 11.664V12.144H335.499V11.28H340.667L340.395 11.488C340.395 10.656 340.208 10.0107 339.835 9.552C339.472 9.09333 338.934 8.864 338.219 8.864C337.44 8.864 336.838 9.136 336.411 9.68C335.984 10.2133 335.771 10.944 335.771 11.872V12.016C335.771 12.9973 336.011 13.7387 336.491 14.24C336.982 14.7413 337.659 14.992 338.523 14.992C339.003 14.992 339.451 14.9227 339.867 14.784C340.283 14.6453 340.683 14.416 341.067 14.096L341.547 15.104C341.184 15.4347 340.731 15.6907 340.187 15.872C339.654 16.0533 339.094 16.144 338.507 16.144ZM343.686 16V7.952H345.014V14.624H344.582L349.574 7.952H350.79V16H349.462V9.312H349.91L344.902 16H343.686ZM347.238 7.216C346.779 7.216 346.358 7.136 345.974 6.976C345.59 6.816 345.259 6.58667 344.982 6.288C344.715 5.97867 344.512 5.59467 344.374 5.136L345.206 4.832C345.398 5.344 345.659 5.72267 345.99 5.968C346.32 6.20267 346.736 6.32 347.238 6.32C347.75 6.32 348.171 6.208 348.502 5.984C348.832 5.76 349.12 5.38133 349.366 4.848L350.15 5.136C349.883 5.86133 349.494 6.38933 348.982 6.72C348.48 7.05067 347.899 7.216 347.238 7.216ZM356.783 16.144C355.983 16.144 355.29 15.9787 354.703 15.648C354.117 15.3067 353.658 14.8213 353.327 14.192C353.007 13.552 352.847 12.7947 352.847 11.92C352.847 11.056 353.013 10.32 353.343 9.712C353.674 9.09333 354.133 8.624 354.719 8.304C355.306 7.97333 355.994 7.808 356.783 7.808C357.306 7.808 357.813 7.89867 358.303 8.08C358.794 8.25067 359.194 8.50133 359.503 8.832L359.007 9.856C358.698 9.55733 358.357 9.33867 357.983 9.2C357.61 9.05067 357.242 8.976 356.879 8.976C356.09 8.976 355.471 9.232 355.023 9.744C354.575 10.2453 354.351 10.976 354.351 11.936C354.351 12.9067 354.575 13.6533 355.023 14.176C355.471 14.6987 356.09 14.96 356.879 14.96C357.231 14.96 357.594 14.8907 357.967 14.752C358.341 14.6133 358.687 14.3947 359.007 14.096L359.503 15.104C359.183 15.4453 358.773 15.7067 358.271 15.888C357.781 16.0587 357.285 16.144 356.783 16.144Z" fill="#1A1A1A"/>
<path d="M256 38C256 33.5817 259.582 30 264 30H448C452.418 30 456 33.5817 456 38V66C456 70.4183 452.418 74 448 74H264C259.582 74 256 70.4183 256 66V38Z" fill="black" fill-opacity="0.05"/>
<path d="M276.032 58V48.112H272.176V46.72H281.552V48.112H277.696V58H276.032ZM285.555 58.144C284.254 58.144 283.23 57.776 282.483 57.04C281.736 56.304 281.363 55.2853 281.363 53.984C281.363 53.1413 281.523 52.4053 281.843 51.776C282.174 51.1467 282.627 50.6613 283.203 50.32C283.79 49.968 284.467 49.792 285.235 49.792C285.992 49.792 286.627 49.952 287.139 50.272C287.651 50.592 288.04 51.0453 288.307 51.632C288.574 52.208 288.707 52.8907 288.707 53.68V54.192H282.627V53.264H287.603L287.331 53.472C287.331 52.672 287.15 52.0533 286.787 51.616C286.435 51.168 285.923 50.944 285.251 50.944C284.504 50.944 283.928 51.2053 283.523 51.728C283.118 52.24 282.915 52.9493 282.915 53.856V54.016C282.915 54.9653 283.144 55.68 283.603 56.16C284.072 56.64 284.734 56.88 285.587 56.88C286.056 56.88 286.494 56.816 286.899 56.688C287.315 56.5493 287.71 56.3253 288.083 56.016L288.611 57.12C288.238 57.4507 287.784 57.7067 287.251 57.888C286.718 58.0587 286.152 58.144 285.555 58.144ZM294.285 58.144C293.474 58.144 292.765 57.9787 292.157 57.648C291.559 57.3067 291.095 56.8213 290.765 56.192C290.445 55.552 290.285 54.7947 290.285 53.92C290.285 53.056 290.45 52.3147 290.781 51.696C291.111 51.0773 291.575 50.608 292.173 50.288C292.77 49.9573 293.474 49.792 294.285 49.792C294.807 49.792 295.314 49.8827 295.805 50.064C296.295 50.2347 296.701 50.48 297.021 50.8L296.493 51.936C296.194 51.648 295.858 51.4347 295.485 51.296C295.111 51.1467 294.749 51.072 294.397 51.072C293.629 51.072 293.026 51.3173 292.589 51.808C292.151 52.2987 291.933 53.008 291.933 53.936C291.933 54.8747 292.151 55.5947 292.589 56.096C293.026 56.5973 293.629 56.848 294.397 56.848C294.738 56.848 295.095 56.784 295.469 56.656C295.842 56.5173 296.183 56.2987 296.493 56L297.021 57.136C296.69 57.456 296.274 57.7067 295.773 57.888C295.282 58.0587 294.786 58.144 294.285 58.144ZM300.585 58V51.232H297.737V49.936H305.049V51.232H302.185V58H300.585ZM309.814 58.144C309.014 58.144 308.321 57.9787 307.734 57.648C307.147 57.3067 306.694 56.8267 306.374 56.208C306.054 55.5787 305.894 54.832 305.894 53.968C305.894 53.104 306.054 52.3627 306.374 51.744C306.694 51.1147 307.147 50.6347 307.734 50.304C308.321 49.9627 309.014 49.792 309.814 49.792C310.614 49.792 311.307 49.9627 311.894 50.304C312.491 50.6347 312.95 51.1147 313.27 51.744C313.601 52.3627 313.766 53.104 313.766 53.968C313.766 54.832 313.601 55.5787 313.27 56.208C312.95 56.8267 312.491 57.3067 311.894 57.648C311.307 57.9787 310.614 58.144 309.814 58.144ZM309.814 56.88C310.518 56.88 311.078 56.6347 311.494 56.144C311.91 55.6533 312.118 54.928 312.118 53.968C312.118 53.008 311.91 52.288 311.494 51.808C311.078 51.3173 310.518 51.072 309.814 51.072C309.121 51.072 308.566 51.3173 308.15 51.808C307.734 52.288 307.526 53.008 307.526 53.968C307.526 54.928 307.729 55.6533 308.134 56.144C308.55 56.6347 309.11 56.88 309.814 56.88ZM315.763 58V49.936H319.827C320.798 49.936 321.512 50.1227 321.971 50.496C322.44 50.8587 322.675 51.376 322.675 52.048C322.675 52.5707 322.499 53.0027 322.147 53.344C321.806 53.6853 321.352 53.8933 320.787 53.968V53.76C321.459 53.792 321.987 53.9893 322.371 54.352C322.755 54.7147 322.947 55.184 322.947 55.76C322.947 56.4533 322.686 57.0027 322.163 57.408C321.651 57.8027 320.92 58 319.971 58H315.763ZM317.283 56.96H319.843C320.366 56.96 320.766 56.8533 321.043 56.64C321.32 56.416 321.459 56.096 321.459 55.68C321.459 55.264 321.32 54.9493 321.043 54.736C320.766 54.5227 320.366 54.416 319.843 54.416H317.283V56.96ZM317.283 53.376H319.667C320.147 53.376 320.52 53.2693 320.787 53.056C321.054 52.8427 321.187 52.5493 321.187 52.176C321.187 51.792 321.054 51.4987 320.787 51.296C320.52 51.0827 320.147 50.976 319.667 50.976H317.283V53.376ZM324.857 58V49.936H326.457V52.752H328.745C329.801 52.752 330.595 52.976 331.129 53.424C331.662 53.8613 331.929 54.5013 331.929 55.344C331.929 55.888 331.806 56.3627 331.561 56.768C331.315 57.1627 330.953 57.4667 330.473 57.68C330.003 57.8933 329.427 58 328.745 58H324.857ZM326.457 56.896H328.569C329.177 56.896 329.635 56.7733 329.945 56.528C330.265 56.272 330.425 55.8827 330.425 55.36C330.425 54.8373 330.265 54.4587 329.945 54.224C329.635 53.9787 329.177 53.856 328.569 53.856H326.457V56.896ZM333.065 58V49.936H334.665V58H333.065ZM337.075 58V49.936H338.547V56.448H338.099L342.963 49.936H344.307V58H342.851V51.472H343.315L338.419 58H337.075ZM340.691 49.2C340.201 49.2 339.763 49.12 339.379 48.96C338.995 48.8 338.665 48.5653 338.387 48.256C338.121 47.936 337.918 47.552 337.779 47.104L338.675 46.784C338.857 47.2853 339.113 47.6587 339.443 47.904C339.774 48.1387 340.19 48.256 340.691 48.256C341.203 48.256 341.619 48.144 341.939 47.92C342.27 47.696 342.553 47.3227 342.787 46.8L343.619 47.104C343.363 47.8293 342.979 48.3627 342.467 48.704C341.966 49.0347 341.374 49.2 340.691 49.2Z" fill="#1A1A1A"/>
<path d="M428 49L434 55L440 49" stroke="#1A1A1A" stroke-width="2" stroke-linecap="round"/>
<path d="M473.376 16V4.72H474.688L479.136 14.736H478.656L483.104 4.72H484.4V16H483.04V6.704H483.536L479.36 16H478.416L474.24 6.704H474.736V16H473.376ZM490.149 16.144C489.445 16.144 488.827 15.9787 488.293 15.648C487.76 15.3173 487.344 14.8373 487.045 14.208C486.747 13.5787 486.597 12.832 486.597 11.968C486.597 11.104 486.747 10.3627 487.045 9.744C487.344 9.11467 487.76 8.63467 488.293 8.304C488.827 7.97333 489.445 7.808 490.149 7.808C490.864 7.808 491.483 7.98933 492.005 8.352C492.539 8.704 492.891 9.18933 493.061 9.808H492.869L493.045 7.952H494.453C494.421 8.272 494.389 8.592 494.357 8.912C494.336 9.232 494.325 9.54667 494.325 9.856V16H492.869V14.16H493.045C492.875 14.768 492.523 15.2533 491.989 15.616C491.467 15.968 490.853 16.144 490.149 16.144ZM490.485 14.992C491.211 14.992 491.792 14.736 492.229 14.224C492.667 13.712 492.885 12.96 492.885 11.968C492.885 10.976 492.667 10.2293 492.229 9.728C491.792 9.22667 491.211 8.976 490.485 8.976C489.76 8.976 489.173 9.22667 488.725 9.728C488.288 10.2293 488.069 10.976 488.069 11.968C488.069 12.96 488.288 13.712 488.725 14.224C489.163 14.736 489.749 14.992 490.485 14.992ZM496.889 16V7.952H502.601V9.12H498.345V16H496.889ZM507.212 16.144C506.508 16.144 505.889 15.9787 505.356 15.648C504.822 15.3173 504.406 14.8373 504.108 14.208C503.809 13.5787 503.66 12.832 503.66 11.968C503.66 11.104 503.809 10.3627 504.108 9.744C504.406 9.11467 504.822 8.63467 505.356 8.304C505.889 7.97333 506.508 7.808 507.212 7.808C507.926 7.808 508.545 7.98933 509.068 8.352C509.601 8.704 509.953 9.18933 510.124 9.808H509.932L510.108 7.952H511.516C511.484 8.272 511.452 8.592 511.42 8.912C511.398 9.232 511.388 9.54667 511.388 9.856V16H509.932V14.16H510.108C509.937 14.768 509.585 15.2533 509.052 15.616C508.529 15.968 507.916 16.144 507.212 16.144ZM507.548 14.992C508.273 14.992 508.854 14.736 509.292 14.224C509.729 13.712 509.948 12.96 509.948 11.968C509.948 10.976 509.729 10.2293 509.292 9.728C508.854 9.22667 508.273 8.976 507.548 8.976C506.822 8.976 506.236 9.22667 505.788 9.728C505.35 10.2293 505.132 10.976 505.132 11.968C505.132 12.96 505.35 13.712 505.788 14.224C506.225 14.736 506.812 14.992 507.548 14.992ZM516.687 16.144C515.983 16.144 515.327 16.0533 514.719 15.872C514.111 15.6907 513.61 15.4347 513.215 15.104L513.695 14.096C514.09 14.416 514.538 14.656 515.039 14.816C515.54 14.976 516.084 15.056 516.671 15.056C517.439 15.056 517.994 14.944 518.335 14.72C518.687 14.4853 518.863 14.1493 518.863 13.712C518.863 13.296 518.719 12.9813 518.431 12.768C518.143 12.5547 517.722 12.448 517.167 12.448H515.215V11.392H516.991C517.492 11.392 517.882 11.2853 518.159 11.072C518.447 10.848 518.591 10.544 518.591 10.16C518.591 9.76533 518.431 9.456 518.111 9.232C517.791 8.99733 517.3 8.88 516.639 8.88C516.084 8.88 515.578 8.95467 515.119 9.104C514.66 9.24267 514.223 9.456 513.807 9.744L513.343 8.8C513.78 8.45867 514.292 8.208 514.879 8.048C515.466 7.888 516.106 7.808 516.799 7.808C517.812 7.808 518.586 8.00533 519.119 8.4C519.663 8.784 519.935 9.33333 519.935 10.048C519.935 10.5493 519.764 10.9813 519.423 11.344C519.082 11.696 518.628 11.9093 518.063 11.984V11.776C518.703 11.808 519.22 12.0053 519.615 12.368C520.01 12.72 520.207 13.1893 520.207 13.776C520.207 14.4907 519.908 15.0667 519.311 15.504C518.714 15.9307 517.839 16.144 516.687 16.144ZM522.154 16V7.952H523.482V14.624H523.05L528.042 7.952H529.258V16H527.93V9.312H528.378L523.37 16H522.154ZM531.748 16V7.952H533.188V11.28H537.444V7.952H538.884V16H537.444V12.432H533.188V16H531.748Z" fill="#1A1A1A"/>
<path d="M472 38C472 33.5817 475.582 30 480 30H664C668.418 30 672 33.5817 672 38V66C672 70.4183 668.418 74 664 74H480C475.582 74 472 70.4183 472 66V38Z" fill="black" fill-opacity="0.05"/>
<path d="M492.032 58V48.112H488.176V46.72H497.552V48.112H493.696V58H492.032ZM501.555 58.144C500.254 58.144 499.23 57.776 498.483 57.04C497.736 56.304 497.363 55.2853 497.363 53.984C497.363 53.1413 497.523 52.4053 497.843 51.776C498.174 51.1467 498.627 50.6613 499.203 50.32C499.79 49.968 500.467 49.792 501.235 49.792C501.992 49.792 502.627 49.952 503.139 50.272C503.651 50.592 504.04 51.0453 504.307 51.632C504.574 52.208 504.707 52.8907 504.707 53.68V54.192H498.627V53.264H503.603L503.331 53.472C503.331 52.672 503.15 52.0533 502.787 51.616C502.435 51.168 501.923 50.944 501.251 50.944C500.504 50.944 499.928 51.2053 499.523 51.728C499.118 52.24 498.915 52.9493 498.915 53.856V54.016C498.915 54.9653 499.144 55.68 499.603 56.16C500.072 56.64 500.734 56.88 501.587 56.88C502.056 56.88 502.494 56.816 502.899 56.688C503.315 56.5493 503.71 56.3253 504.083 56.016L504.611 57.12C504.238 57.4507 503.784 57.7067 503.251 57.888C502.718 58.0587 502.152 58.144 501.555 58.144ZM510.285 58.144C509.474 58.144 508.765 57.9787 508.157 57.648C507.559 57.3067 507.095 56.8213 506.765 56.192C506.445 55.552 506.285 54.7947 506.285 53.92C506.285 53.056 506.45 52.3147 506.781 51.696C507.111 51.0773 507.575 50.608 508.173 50.288C508.77 49.9573 509.474 49.792 510.285 49.792C510.807 49.792 511.314 49.8827 511.805 50.064C512.295 50.2347 512.701 50.48 513.021 50.8L512.493 51.936C512.194 51.648 511.858 51.4347 511.485 51.296C511.111 51.1467 510.749 51.072 510.397 51.072C509.629 51.072 509.026 51.3173 508.589 51.808C508.151 52.2987 507.933 53.008 507.933 53.936C507.933 54.8747 508.151 55.5947 508.589 56.096C509.026 56.5973 509.629 56.848 510.397 56.848C510.738 56.848 511.095 56.784 511.469 56.656C511.842 56.5173 512.183 56.2987 512.493 56L513.021 57.136C512.69 57.456 512.274 57.7067 511.773 57.888C511.282 58.0587 510.786 58.144 510.285 58.144ZM516.585 58V51.232H513.737V49.936H521.049V51.232H518.185V58H516.585ZM525.814 58.144C525.014 58.144 524.321 57.9787 523.734 57.648C523.147 57.3067 522.694 56.8267 522.374 56.208C522.054 55.5787 521.894 54.832 521.894 53.968C521.894 53.104 522.054 52.3627 522.374 51.744C522.694 51.1147 523.147 50.6347 523.734 50.304C524.321 49.9627 525.014 49.792 525.814 49.792C526.614 49.792 527.307 49.9627 527.894 50.304C528.491 50.6347 528.95 51.1147 529.27 51.744C529.601 52.3627 529.766 53.104 529.766 53.968C529.766 54.832 529.601 55.5787 529.27 56.208C528.95 56.8267 528.491 57.3067 527.894 57.648C527.307 57.9787 526.614 58.144 525.814 58.144ZM525.814 56.88C526.518 56.88 527.078 56.6347 527.494 56.144C527.91 55.6533 528.118 54.928 528.118 53.968C528.118 53.008 527.91 52.288 527.494 51.808C527.078 51.3173 526.518 51.072 525.814 51.072C525.121 51.072 524.566 51.3173 524.15 51.808C523.734 52.288 523.526 53.008 523.526 53.968C523.526 54.928 523.729 55.6533 524.134 56.144C524.55 56.6347 525.11 56.88 525.814 56.88ZM531.763 58V49.936H535.827C536.798 49.936 537.512 50.1227 537.971 50.496C538.44 50.8587 538.675 51.376 538.675 52.048C538.675 52.5707 538.499 53.0027 538.147 53.344C537.806 53.6853 537.352 53.8933 536.787 53.968V53.76C537.459 53.792 537.987 53.9893 538.371 54.352C538.755 54.7147 538.947 55.184 538.947 55.76C538.947 56.4533 538.686 57.0027 538.163 57.408C537.651 57.8027 536.92 58 535.971 58H531.763ZM533.283 56.96H535.843C536.366 56.96 536.766 56.8533 537.043 56.64C537.32 56.416 537.459 56.096 537.459 55.68C537.459 55.264 537.32 54.9493 537.043 54.736C536.766 54.5227 536.366 54.416 535.843 54.416H533.283V56.96ZM533.283 53.376H535.667C536.147 53.376 536.52 53.2693 536.787 53.056C537.054 52.8427 537.187 52.5493 537.187 52.176C537.187 51.792 537.054 51.4987 536.787 51.296C536.52 51.0827 536.147 50.976 535.667 50.976H533.283V53.376ZM540.857 58V49.936H542.457V52.752H544.745C545.801 52.752 546.595 52.976 547.129 53.424C547.662 53.8613 547.929 54.5013 547.929 55.344C547.929 55.888 547.806 56.3627 547.561 56.768C547.315 57.1627 546.953 57.4667 546.473 57.68C546.003 57.8933 545.427 58 544.745 58H540.857ZM542.457 56.896H544.569C545.177 56.896 545.635 56.7733 545.945 56.528C546.265 56.272 546.425 55.8827 546.425 55.36C546.425 54.8373 546.265 54.4587 545.945 54.224C545.635 53.9787 545.177 53.856 544.569 53.856H542.457V56.896ZM549.065 58V49.936H550.665V58H549.065ZM553.075 58V49.936H554.547V56.448H554.099L558.963 49.936H560.307V58H558.851V51.472H559.315L554.419 58H553.075ZM556.691 49.2C556.201 49.2 555.763 49.12 555.379 48.96C554.995 48.8 554.665 48.5653 554.387 48.256C554.121 47.936 553.918 47.552 553.779 47.104L554.675 46.784C554.857 47.2853 555.113 47.6587 555.443 47.904C555.774 48.1387 556.19 48.256 556.691 48.256C557.203 48.256 557.619 48.144 557.939 47.92C558.27 47.696 558.553 47.3227 558.787 46.8L559.619 47.104C559.363 47.8293 558.979 48.3627 558.467 48.704C557.966 49.0347 557.374 49.2 556.691 49.2Z" fill="#1A1A1A"/>
<path d="M644 49L650 55L656 49" stroke="#1A1A1A" stroke-width="2" stroke-linecap="round"/>
<path d="M689.376 16V4.72H697.072V5.92H690.816V9.648H694.32C695.536 9.648 696.48 9.91467 697.152 10.448C697.835 10.9707 698.176 11.7547 698.176 12.8C698.176 13.8453 697.835 14.64 697.152 15.184C696.48 15.728 695.536 16 694.32 16H689.376ZM690.816 14.816H694.16C695.035 14.816 695.675 14.6507 696.08 14.32C696.496 13.9893 696.704 13.488 696.704 12.816C696.704 12.144 696.496 11.648 696.08 11.328C695.675 10.9973 695.035 10.832 694.16 10.832H690.816V14.816ZM700.171 19.456V9.856C700.171 9.54667 700.16 9.232 700.139 8.912C700.118 8.592 700.086 8.272 700.043 7.952H701.451L701.627 9.808H701.451C701.611 9.18933 701.952 8.704 702.475 8.352C702.998 7.98933 703.622 7.808 704.347 7.808C705.062 7.808 705.686 7.97333 706.219 8.304C706.752 8.63467 707.163 9.11467 707.451 9.744C707.75 10.3627 707.899 11.104 707.899 11.968C707.899 12.832 707.75 13.5787 707.451 14.208C707.163 14.8373 706.752 15.3173 706.219 15.648C705.686 15.9787 705.062 16.144 704.347 16.144C703.632 16.144 703.014 15.968 702.491 15.616C701.979 15.2533 701.632 14.768 701.451 14.16H701.627V19.456H700.171ZM704.011 14.992C704.747 14.992 705.334 14.736 705.771 14.224C706.208 13.712 706.427 12.96 706.427 11.968C706.427 10.976 706.208 10.2293 705.771 9.728C705.334 9.22667 704.747 8.976 704.011 8.976C703.275 8.976 702.688 9.22667 702.251 9.728C701.824 10.2293 701.611 10.976 701.611 11.968C701.611 12.96 701.824 13.712 702.251 14.224C702.688 14.736 703.275 14.992 704.011 14.992ZM713.694 16.144C712.414 16.144 711.401 15.776 710.654 15.04C709.918 14.304 709.55 13.2907 709.55 12C709.55 11.1467 709.71 10.4107 710.03 9.792C710.361 9.16267 710.814 8.67733 711.39 8.336C711.966 7.984 712.638 7.808 713.406 7.808C714.142 7.808 714.766 7.968 715.278 8.288C715.79 8.59733 716.18 9.04 716.446 9.616C716.713 10.192 716.846 10.8747 716.846 11.664V12.144H710.686V11.28H715.854L715.582 11.488C715.582 10.656 715.396 10.0107 715.022 9.552C714.66 9.09333 714.121 8.864 713.406 8.864C712.628 8.864 712.025 9.136 711.598 9.68C711.172 10.2133 710.958 10.944 710.958 11.872V12.016C710.958 12.9973 711.198 13.7387 711.678 14.24C712.169 14.7413 712.846 14.992 713.71 14.992C714.19 14.992 714.638 14.9227 715.054 14.784C715.47 14.6453 715.87 14.416 716.254 14.096L716.734 15.104C716.372 15.4347 715.918 15.6907 715.374 15.872C714.841 16.0533 714.281 16.144 713.694 16.144ZM718.873 16V7.952H720.313V11.28H724.569V7.952H726.009V16H724.569V12.432H720.313V16H718.873ZM727.666 18.08V14.864H728.546C728.909 14.32 729.17 13.68 729.33 12.944C729.501 12.208 729.586 11.3333 729.586 10.32V7.952H735.362V14.864H736.642V18.08H735.394V16H728.93V18.08H727.666ZM729.922 14.88H734.002V9.072H730.866V10.576C730.866 11.3867 730.786 12.176 730.626 12.944C730.466 13.7013 730.231 14.3467 729.922 14.88Z" fill="#1A1A1A"/>
<path d="M688 38C688 33.5817 691.582 30 696 30H880C884.418 30 888 33.5817 888 38V66C888 70.4183 884.418 74 880 74H696C691.582 74 688 70.4183 688 66V38Z" fill="black" fill-opacity="0.05"/>
<path d="M708.032 58V48.112H704.176V46.72H713.552V48.112H709.696V58H708.032ZM717.555 58.144C716.254 58.144 715.23 57.776 714.483 57.04C713.736 56.304 713.363 55.2853 713.363 53.984C713.363 53.1413 713.523 52.4053 713.843 51.776C714.174 51.1467 714.627 50.6613 715.203 50.32C715.79 49.968 716.467 49.792 717.235 49.792C717.992 49.792 718.627 49.952 719.139 50.272C719.651 50.592 720.04 51.0453 720.307 51.632C720.574 52.208 720.707 52.8907 720.707 53.68V54.192H714.627V53.264H719.603L719.331 53.472C719.331 52.672 719.15 52.0533 718.787 51.616C718.435 51.168 717.923 50.944 717.251 50.944C716.504 50.944 715.928 51.2053 715.523 51.728C715.118 52.24 714.915 52.9493 714.915 53.856V54.016C714.915 54.9653 715.144 55.68 715.603 56.16C716.072 56.64 716.734 56.88 717.587 56.88C718.056 56.88 718.494 56.816 718.899 56.688C719.315 56.5493 719.71 56.3253 720.083 56.016L720.611 57.12C720.238 57.4507 719.784 57.7067 719.251 57.888C718.718 58.0587 718.152 58.144 717.555 58.144ZM726.285 58.144C725.474 58.144 724.765 57.9787 724.157 57.648C723.559 57.3067 723.095 56.8213 722.765 56.192C722.445 55.552 722.285 54.7947 722.285 53.92C722.285 53.056 722.45 52.3147 722.781 51.696C723.111 51.0773 723.575 50.608 724.173 50.288C724.77 49.9573 725.474 49.792 726.285 49.792C726.807 49.792 727.314 49.8827 727.805 50.064C728.295 50.2347 728.701 50.48 729.021 50.8L728.493 51.936C728.194 51.648 727.858 51.4347 727.485 51.296C727.111 51.1467 726.749 51.072 726.397 51.072C725.629 51.072 725.026 51.3173 724.589 51.808C724.151 52.2987 723.933 53.008 723.933 53.936C723.933 54.8747 724.151 55.5947 724.589 56.096C725.026 56.5973 725.629 56.848 726.397 56.848C726.738 56.848 727.095 56.784 727.469 56.656C727.842 56.5173 728.183 56.2987 728.493 56L729.021 57.136C728.69 57.456 728.274 57.7067 727.773 57.888C727.282 58.0587 726.786 58.144 726.285 58.144ZM732.585 58V51.232H729.737V49.936H737.049V51.232H734.185V58H732.585ZM741.814 58.144C741.014 58.144 740.321 57.9787 739.734 57.648C739.147 57.3067 738.694 56.8267 738.374 56.208C738.054 55.5787 737.894 54.832 737.894 53.968C737.894 53.104 738.054 52.3627 738.374 51.744C738.694 51.1147 739.147 50.6347 739.734 50.304C740.321 49.9627 741.014 49.792 741.814 49.792C742.614 49.792 743.307 49.9627 743.894 50.304C744.491 50.6347 744.95 51.1147 745.27 51.744C745.601 52.3627 745.766 53.104 745.766 53.968C745.766 54.832 745.601 55.5787 745.27 56.208C744.95 56.8267 744.491 57.3067 743.894 57.648C743.307 57.9787 742.614 58.144 741.814 58.144ZM741.814 56.88C742.518 56.88 743.078 56.6347 743.494 56.144C743.91 55.6533 744.118 54.928 744.118 53.968C744.118 53.008 743.91 52.288 743.494 51.808C743.078 51.3173 742.518 51.072 741.814 51.072C741.121 51.072 740.566 51.3173 740.15 51.808C739.734 52.288 739.526 53.008 739.526 53.968C739.526 54.928 739.729 55.6533 740.134 56.144C740.55 56.6347 741.11 56.88 741.814 56.88ZM747.763 58V49.936H751.827C752.798 49.936 753.512 50.1227 753.971 50.496C754.44 50.8587 754.675 51.376 754.675 52.048C754.675 52.5707 754.499 53.0027 754.147 53.344C753.806 53.6853 753.352 53.8933 752.787 53.968V53.76C753.459 53.792 753.987 53.9893 754.371 54.352C754.755 54.7147 754.947 55.184 754.947 55.76C754.947 56.4533 754.686 57.0027 754.163 57.408C753.651 57.8027 752.92 58 751.971 58H747.763ZM749.283 56.96H751.843C752.366 56.96 752.766 56.8533 753.043 56.64C753.32 56.416 753.459 56.096 753.459 55.68C753.459 55.264 753.32 54.9493 753.043 54.736C752.766 54.5227 752.366 54.416 751.843 54.416H749.283V56.96ZM749.283 53.376H751.667C752.147 53.376 752.52 53.2693 752.787 53.056C753.054 52.8427 753.187 52.5493 753.187 52.176C753.187 51.792 753.054 51.4987 752.787 51.296C752.52 51.0827 752.147 50.976 751.667 50.976H749.283V53.376ZM756.857 58V49.936H758.457V52.752H760.745C761.801 52.752 762.595 52.976 763.129 53.424C763.662 53.8613 763.929 54.5013 763.929 55.344C763.929 55.888 763.806 56.3627 763.561 56.768C763.315 57.1627 762.953 57.4667 762.473 57.68C762.003 57.8933 761.427 58 760.745 58H756.857ZM758.457 56.896H760.569C761.177 56.896 761.635 56.7733 761.945 56.528C762.265 56.272 762.425 55.8827 762.425 55.36C762.425 54.8373 762.265 54.4587 761.945 54.224C761.635 53.9787 761.177 53.856 760.569 53.856H758.457V56.896ZM765.065 58V49.936H766.665V58H765.065ZM769.075 58V49.936H770.547V56.448H770.099L774.963 49.936H776.307V58H774.851V51.472H775.315L770.419 58H769.075ZM772.691 49.2C772.201 49.2 771.763 49.12 771.379 48.96C770.995 48.8 770.665 48.5653 770.387 48.256C770.121 47.936 769.918 47.552 769.779 47.104L770.675 46.784C770.857 47.2853 771.113 47.6587 771.443 47.904C771.774 48.1387 772.19 48.256 772.691 48.256C773.203 48.256 773.619 48.144 773.939 47.92C774.27 47.696 774.553 47.3227 774.787 46.8L775.619 47.104C775.363 47.8293 774.979 48.3627 774.467 48.704C773.966 49.0347 773.374 49.2 772.691 49.2Z" fill="#1A1A1A"/>
<path d="M860 49L866 55L872 49" stroke="#1A1A1A" stroke-width="2" stroke-linecap="round"/>
<path d="M904.224 16L909.216 4.72H910.512L915.584 16H914.048L912.656 12.8L913.296 13.184H906.432L907.136 12.8L905.744 16H904.224ZM909.84 6.384L907.344 12.304L906.96 11.968H912.768L912.464 12.304L909.904 6.384H909.84ZM917.109 19.456V9.856C917.109 9.54667 917.098 9.232 917.077 8.912C917.055 8.592 917.023 8.272 916.981 7.952H918.389L918.565 9.808H918.389C918.549 9.18933 918.89 8.704 919.413 8.352C919.935 7.98933 920.559 7.808 921.285 7.808C921.999 7.808 922.623 7.97333 923.157 8.304C923.69 8.63467 924.101 9.11467 924.389 9.744C924.687 10.3627 924.837 11.104 924.837 11.968C924.837 12.832 924.687 13.5787 924.389 14.208C924.101 14.8373 923.69 15.3173 923.157 15.648C922.623 15.9787 921.999 16.144 921.285 16.144C920.57 16.144 919.951 15.968 919.429 15.616C918.917 15.2533 918.57 14.768 918.389 14.16H918.565V19.456H917.109ZM920.949 14.992C921.685 14.992 922.271 14.736 922.709 14.224C923.146 13.712 923.365 12.96 923.365 11.968C923.365 10.976 923.146 10.2293 922.709 9.728C922.271 9.22667 921.685 8.976 920.949 8.976C920.213 8.976 919.626 9.22667 919.189 9.728C918.762 10.2293 918.549 10.976 918.549 11.968C918.549 12.96 918.762 13.712 919.189 14.224C919.626 14.736 920.213 14.992 920.949 14.992ZM928.648 16V9.12H925.752V7.952H932.984V9.12H930.088V16H928.648ZM934.311 16V7.952H935.639V14.624H935.207L940.199 7.952H941.415V16H940.087V9.312H940.535L935.527 16H934.311ZM943.904 16V7.952H945.344V11.28H946.8L949.392 7.952H950.976L947.968 11.872L947.584 11.424C947.894 11.456 948.16 11.536 948.384 11.664C948.608 11.7813 948.822 11.9573 949.024 12.192C949.238 12.4267 949.467 12.7413 949.712 13.136L951.376 16H949.808L948.352 13.52C948.192 13.232 948.032 13.008 947.872 12.848C947.712 12.688 947.531 12.576 947.328 12.512C947.136 12.448 946.891 12.416 946.592 12.416H945.344V16H943.904ZM952.399 19.632L952.063 18.448C952.564 18.3307 952.98 18.192 953.311 18.032C953.642 17.8827 953.919 17.6853 954.143 17.44C954.367 17.1947 954.564 16.8853 954.735 16.512L955.135 15.552L955.103 16.16L951.599 7.952H953.167L955.967 14.848H955.551L958.351 7.952H959.855L956.159 16.624C955.935 17.1467 955.69 17.584 955.423 17.936C955.167 18.288 954.884 18.576 954.575 18.8C954.276 19.024 953.946 19.2 953.583 19.328C953.22 19.456 952.826 19.5573 952.399 19.632ZM960.458 16.192L959.946 15.056C960.319 14.8853 960.628 14.6827 960.874 14.448C961.13 14.2027 961.327 13.8933 961.466 13.52C961.615 13.1467 961.722 12.6827 961.786 12.128C961.85 11.5733 961.882 10.9013 961.882 10.112V7.952H967.818V16H966.378V9.088H963.226V10.144C963.226 11.3813 963.13 12.4053 962.938 13.216C962.756 14.016 962.463 14.6507 962.058 15.12C961.663 15.5893 961.13 15.9467 960.458 16.192Z" fill="#1A1A1A"/>
<path d="M904 38C904 33.5817 907.582 30 912 30H1096C1100.42 30 1104 33.5817 1104 38V66C1104 70.4183 1100.42 74 1096 74H912C907.582 74 904 70.4183 904 66V38Z" fill="black" fill-opacity="0.05"/>
<path d="M924.8 58.144C923.499 58.144 922.496 57.648 921.792 56.656C921.099 55.6533 920.752 54.2187 920.752 52.352C920.752 50.4533 921.099 49.0187 921.792 48.048C922.496 47.0667 923.499 46.576 924.8 46.576C926.112 46.576 927.115 47.0667 927.808 48.048C928.501 49.0187 928.848 50.448 928.848 52.336C928.848 54.2133 928.496 55.6533 927.792 56.656C927.099 57.648 926.101 58.144 924.8 58.144ZM924.8 56.752C925.621 56.752 926.229 56.3947 926.624 55.68C927.029 54.9653 927.232 53.8507 927.232 52.336C927.232 50.8107 927.029 49.7013 926.624 49.008C926.229 48.304 925.621 47.952 924.8 47.952C923.989 47.952 923.381 48.304 922.976 49.008C922.571 49.7013 922.368 50.8053 922.368 52.32C922.368 53.8453 922.571 54.9653 922.976 55.68C923.392 56.3947 924 56.752 924.8 56.752ZM934.394 58.144C933.092 58.144 932.09 57.648 931.386 56.656C930.692 55.6533 930.346 54.2187 930.346 52.352C930.346 50.4533 930.692 49.0187 931.386 48.048C932.09 47.0667 933.092 46.576 934.394 46.576C935.706 46.576 936.708 47.0667 937.402 48.048C938.095 49.0187 938.442 50.448 938.442 52.336C938.442 54.2133 938.09 55.6533 937.386 56.656C936.692 57.648 935.695 58.144 934.394 58.144ZM934.394 56.752C935.215 56.752 935.823 56.3947 936.218 55.68C936.623 54.9653 936.826 53.8507 936.826 52.336C936.826 50.8107 936.623 49.7013 936.218 49.008C935.823 48.304 935.215 47.952 934.394 47.952C933.583 47.952 932.975 48.304 932.57 49.008C932.164 49.7013 931.962 50.8053 931.962 52.32C931.962 53.8453 932.164 54.9653 932.57 55.68C932.986 56.3947 933.594 56.752 934.394 56.752ZM943.988 58.144C942.686 58.144 941.684 57.648 940.98 56.656C940.286 55.6533 939.94 54.2187 939.94 52.352C939.94 50.4533 940.286 49.0187 940.98 48.048C941.684 47.0667 942.686 46.576 943.988 46.576C945.3 46.576 946.302 47.0667 946.996 48.048C947.689 49.0187 948.036 50.448 948.036 52.336C948.036 54.2133 947.684 55.6533 946.98 56.656C946.286 57.648 945.289 58.144 943.988 58.144ZM943.988 56.752C944.809 56.752 945.417 56.3947 945.812 55.68C946.217 54.9653 946.42 53.8507 946.42 52.336C946.42 50.8107 946.217 49.7013 945.812 49.008C945.417 48.304 944.809 47.952 943.988 47.952C943.177 47.952 942.569 48.304 942.164 49.008C941.758 49.7013 941.556 50.8053 941.556 52.32C941.556 53.8453 941.758 54.9653 942.164 55.68C942.58 56.3947 943.188 56.752 943.988 56.752ZM953.581 58.144C952.28 58.144 951.277 57.648 950.573 56.656C949.88 55.6533 949.533 54.2187 949.533 52.352C949.533 50.4533 949.88 49.0187 950.573 48.048C951.277 47.0667 952.28 46.576 953.581 46.576C954.893 46.576 955.896 47.0667 956.589 48.048C957.283 49.0187 957.629 50.448 957.629 52.336C957.629 54.2133 957.277 55.6533 956.573 56.656C955.88 57.648 954.883 58.144 953.581 58.144ZM953.581 56.752C954.403 56.752 955.011 56.3947 955.405 55.68C955.811 54.9653 956.013 53.8507 956.013 52.336C956.013 50.8107 955.811 49.7013 955.405 49.008C955.011 48.304 954.403 47.952 953.581 47.952C952.771 47.952 952.163 48.304 951.757 49.008C951.352 49.7013 951.149 50.8053 951.149 52.32C951.149 53.8453 951.352 54.9653 951.757 55.68C952.173 56.3947 952.781 56.752 953.581 56.752ZM967.441 58.144C966.139 58.144 965.137 57.648 964.433 56.656C963.739 55.6533 963.393 54.2187 963.393 52.352C963.393 50.4533 963.739 49.0187 964.433 48.048C965.137 47.0667 966.139 46.576 967.441 46.576C968.753 46.576 969.755 47.0667 970.449 48.048C971.142 49.0187 971.489 50.448 971.489 52.336C971.489 54.2133 971.137 55.6533 970.433 56.656C969.739 57.648 968.742 58.144 967.441 58.144ZM967.441 56.752C968.262 56.752 968.87 56.3947 969.265 55.68C969.67 54.9653 969.873 53.8507 969.873 52.336C969.873 50.8107 969.67 49.7013 969.265 49.008C968.87 48.304 968.262 47.952 967.441 47.952C966.63 47.952 966.022 48.304 965.617 49.008C965.211 49.7013 965.009 50.8053 965.009 52.32C965.009 53.8453 965.211 54.9653 965.617 55.68C966.033 56.3947 966.641 56.752 967.441 56.752ZM977.034 58.144C975.733 58.144 974.73 57.648 974.026 56.656C973.333 55.6533 972.986 54.2187 972.986 52.352C972.986 50.4533 973.333 49.0187 974.026 48.048C974.73 47.0667 975.733 46.576 977.034 46.576C978.346 46.576 979.349 47.0667 980.042 48.048C980.736 49.0187 981.082 50.448 981.082 52.336C981.082 54.2133 980.73 55.6533 980.026 56.656C979.333 57.648 978.336 58.144 977.034 58.144ZM977.034 56.752C977.856 56.752 978.464 56.3947 978.858 55.68C979.264 54.9653 979.466 53.8507 979.466 52.336C979.466 50.8107 979.264 49.7013 978.858 49.008C978.464 48.304 977.856 47.952 977.034 47.952C976.224 47.952 975.616 48.304 975.21 49.008C974.805 49.7013 974.602 50.8053 974.602 52.32C974.602 53.8453 974.805 54.9653 975.21 55.68C975.626 56.3947 976.234 56.752 977.034 56.752ZM986.628 58.144C985.327 58.144 984.324 57.648 983.62 56.656C982.927 55.6533 982.58 54.2187 982.58 52.352C982.58 50.4533 982.927 49.0187 983.62 48.048C984.324 47.0667 985.327 46.576 986.628 46.576C987.94 46.576 988.943 47.0667 989.636 48.048C990.329 49.0187 990.676 50.448 990.676 52.336C990.676 54.2133 990.324 55.6533 989.62 56.656C988.927 57.648 987.929 58.144 986.628 58.144ZM986.628 56.752C987.449 56.752 988.057 56.3947 988.452 55.68C988.857 54.9653 989.06 53.8507 989.06 52.336C989.06 50.8107 988.857 49.7013 988.452 49.008C988.057 48.304 987.449 47.952 986.628 47.952C985.817 47.952 985.209 48.304 984.804 49.008C984.399 49.7013 984.196 50.8053 984.196 52.32C984.196 53.8453 984.399 54.9653 984.804 55.68C985.22 56.3947 985.828 56.752 986.628 56.752ZM996.222 58.144C994.921 58.144 993.918 57.648 993.214 56.656C992.521 55.6533 992.174 54.2187 992.174 52.352C992.174 50.4533 992.521 49.0187 993.214 48.048C993.918 47.0667 994.921 46.576 996.222 46.576C997.534 46.576 998.537 47.0667 999.23 48.048C999.923 49.0187 1000.27 50.448 1000.27 52.336C1000.27 54.2133 999.918 55.6533 999.214 56.656C998.521 57.648 997.523 58.144 996.222 58.144ZM996.222 56.752C997.043 56.752 997.651 56.3947 998.046 55.68C998.451 54.9653 998.654 53.8507 998.654 52.336C998.654 50.8107 998.451 49.7013 998.046 49.008C997.651 48.304 997.043 47.952 996.222 47.952C995.411 47.952 994.803 48.304 994.398 49.008C993.993 49.7013 993.79 50.8053 993.79 52.32C993.79 53.8453 993.993 54.9653 994.398 55.68C994.814 56.3947 995.422 56.752 996.222 56.752ZM1010.08 58.144C1008.78 58.144 1007.78 57.648 1007.07 56.656C1006.38 55.6533 1006.03 54.2187 1006.03 52.352C1006.03 50.4533 1006.38 49.0187 1007.07 48.048C1007.78 47.0667 1008.78 46.576 1010.08 46.576C1011.39 46.576 1012.4 47.0667 1013.09 48.048C1013.78 49.0187 1014.13 50.448 1014.13 52.336C1014.13 54.2133 1013.78 55.6533 1013.07 56.656C1012.38 57.648 1011.38 58.144 1010.08 58.144ZM1010.08 56.752C1010.9 56.752 1011.51 56.3947 1011.91 55.68C1012.31 54.9653 1012.51 53.8507 1012.51 52.336C1012.51 50.8107 1012.31 49.7013 1011.91 49.008C1011.51 48.304 1010.9 47.952 1010.08 47.952C1009.27 47.952 1008.66 48.304 1008.26 49.008C1007.85 49.7013 1007.65 50.8053 1007.65 52.32C1007.65 53.8453 1007.85 54.9653 1008.26 55.68C1008.67 56.3947 1009.28 56.752 1010.08 56.752ZM1019.68 58.144C1018.37 58.144 1017.37 57.648 1016.67 56.656C1015.97 55.6533 1015.63 54.2187 1015.63 52.352C1015.63 50.4533 1015.97 49.0187 1016.67 48.048C1017.37 47.0667 1018.37 46.576 1019.68 46.576C1020.99 46.576 1021.99 47.0667 1022.68 48.048C1023.38 49.0187 1023.72 50.448 1023.72 52.336C1023.72 54.2133 1023.37 55.6533 1022.67 56.656C1021.97 57.648 1020.98 58.144 1019.68 58.144ZM1019.68 56.752C1020.5 56.752 1021.1 56.3947 1021.5 55.68C1021.9 54.9653 1022.11 53.8507 1022.11 52.336C1022.11 50.8107 1021.9 49.7013 1021.5 49.008C1021.1 48.304 1020.5 47.952 1019.68 47.952C1018.86 47.952 1018.26 48.304 1017.85 49.008C1017.45 49.7013 1017.24 50.8053 1017.24 52.32C1017.24 53.8453 1017.45 54.9653 1017.85 55.68C1018.27 56.3947 1018.88 56.752 1019.68 56.752Z" fill="#1A1A1A"/>
<path d="M1121.38 16V4.72H1126.05C1127.25 4.72 1128.18 5.008 1128.82 5.584C1129.46 6.16 1129.78 6.95467 1129.78 7.968C1129.78 8.98133 1129.46 9.78133 1128.82 10.368C1128.18 10.944 1127.25 11.232 1126.05 11.232H1122.86V16H1121.38ZM1122.86 10.016H1125.9C1126.69 10.016 1127.29 9.84 1127.7 9.488C1128.1 9.12533 1128.3 8.61867 1128.3 7.968C1128.3 7.31733 1128.1 6.816 1127.7 6.464C1127.29 6.112 1126.69 5.936 1125.9 5.936H1122.86V10.016ZM1134.66 16.144C1133.96 16.144 1133.34 15.9787 1132.81 15.648C1132.28 15.3173 1131.86 14.8373 1131.56 14.208C1131.26 13.5787 1131.11 12.832 1131.11 11.968C1131.11 11.104 1131.26 10.3627 1131.56 9.744C1131.86 9.11467 1132.28 8.63467 1132.81 8.304C1133.34 7.97333 1133.96 7.808 1134.66 7.808C1135.38 7.808 1136 7.98933 1136.52 8.352C1137.05 8.704 1137.41 9.18933 1137.58 9.808H1137.38L1137.56 7.952H1138.97C1138.94 8.272 1138.9 8.592 1138.87 8.912C1138.85 9.232 1138.84 9.54667 1138.84 9.856V16H1137.38V14.16H1137.56C1137.39 14.768 1137.04 15.2533 1136.5 15.616C1135.98 15.968 1135.37 16.144 1134.66 16.144ZM1135 14.992C1135.73 14.992 1136.31 14.736 1136.74 14.224C1137.18 13.712 1137.4 12.96 1137.4 11.968C1137.4 10.976 1137.18 10.2293 1136.74 9.728C1136.31 9.22667 1135.73 8.976 1135 8.976C1134.28 8.976 1133.69 9.22667 1133.24 9.728C1132.8 10.2293 1132.58 10.976 1132.58 11.968C1132.58 12.96 1132.8 13.712 1133.24 14.224C1133.68 14.736 1134.26 14.992 1135 14.992ZM1144.14 16.144C1143.44 16.144 1142.78 16.0533 1142.17 15.872C1141.56 15.6907 1141.06 15.4347 1140.67 15.104L1141.15 14.096C1141.54 14.416 1141.99 14.656 1142.49 14.816C1142.99 14.976 1143.54 15.056 1144.12 15.056C1144.89 15.056 1145.45 14.944 1145.79 14.72C1146.14 14.4853 1146.32 14.1493 1146.32 13.712C1146.32 13.296 1146.17 12.9813 1145.88 12.768C1145.6 12.5547 1145.17 12.448 1144.62 12.448H1142.67V11.392H1144.44C1144.95 11.392 1145.33 11.2853 1145.61 11.072C1145.9 10.848 1146.04 10.544 1146.04 10.16C1146.04 9.76533 1145.88 9.456 1145.56 9.232C1145.24 8.99733 1144.75 8.88 1144.09 8.88C1143.54 8.88 1143.03 8.95467 1142.57 9.104C1142.11 9.24267 1141.68 9.456 1141.26 9.744L1140.8 8.8C1141.23 8.45867 1141.75 8.208 1142.33 8.048C1142.92 7.888 1143.56 7.808 1144.25 7.808C1145.27 7.808 1146.04 8.00533 1146.57 8.4C1147.12 8.784 1147.39 9.33333 1147.39 10.048C1147.39 10.5493 1147.22 10.9813 1146.88 11.344C1146.53 11.696 1146.08 11.9093 1145.52 11.984V11.776C1146.16 11.808 1146.67 12.0053 1147.07 12.368C1147.46 12.72 1147.66 13.1893 1147.66 13.776C1147.66 14.4907 1147.36 15.0667 1146.76 15.504C1146.17 15.9307 1145.29 16.144 1144.14 16.144ZM1149.61 16V7.952H1150.82L1153.78 13.216L1156.76 7.952H1157.96V16H1156.68V9.584H1157.03L1154.15 14.704H1153.43L1150.55 9.568H1150.89V16H1149.61ZM1164.16 16.144C1162.88 16.144 1161.87 15.776 1161.12 15.04C1160.39 14.304 1160.02 13.2907 1160.02 12C1160.02 11.1467 1160.18 10.4107 1160.5 9.792C1160.83 9.16267 1161.28 8.67733 1161.86 8.336C1162.44 7.984 1163.11 7.808 1163.88 7.808C1164.61 7.808 1165.24 7.968 1165.75 8.288C1166.26 8.59733 1166.65 9.04 1166.92 9.616C1167.18 10.192 1167.32 10.8747 1167.32 11.664V12.144H1161.16V11.28H1166.32L1166.05 11.488C1166.05 10.656 1165.86 10.0107 1165.49 9.552C1165.13 9.09333 1164.59 8.864 1163.88 8.864C1163.1 8.864 1162.49 9.136 1162.07 9.68C1161.64 10.2133 1161.43 10.944 1161.43 11.872V12.016C1161.43 12.9973 1161.67 13.7387 1162.15 14.24C1162.64 14.7413 1163.32 14.992 1164.18 14.992C1164.66 14.992 1165.11 14.9227 1165.52 14.784C1165.94 14.6453 1166.34 14.416 1166.72 14.096L1167.2 15.104C1166.84 15.4347 1166.39 15.6907 1165.84 15.872C1165.31 16.0533 1164.75 16.144 1164.16 16.144ZM1169.39 19.456V9.856C1169.39 9.54667 1169.38 9.232 1169.36 8.912C1169.34 8.592 1169.3 8.272 1169.26 7.952H1170.67L1170.85 9.808H1170.67C1170.83 9.18933 1171.17 8.704 1171.69 8.352C1172.22 7.98933 1172.84 7.808 1173.57 7.808C1174.28 7.808 1174.9 7.97333 1175.44 8.304C1175.97 8.63467 1176.38 9.11467 1176.67 9.744C1176.97 10.3627 1177.12 11.104 1177.12 11.968C1177.12 12.832 1176.97 13.5787 1176.67 14.208C1176.38 14.8373 1175.97 15.3173 1175.44 15.648C1174.9 15.9787 1174.28 16.144 1173.57 16.144C1172.85 16.144 1172.23 15.968 1171.71 15.616C1171.2 15.2533 1170.85 14.768 1170.67 14.16H1170.85V19.456H1169.39ZM1173.23 14.992C1173.97 14.992 1174.55 14.736 1174.99 14.224C1175.43 13.712 1175.65 12.96 1175.65 11.968C1175.65 10.976 1175.43 10.2293 1174.99 9.728C1174.55 9.22667 1173.97 8.976 1173.23 8.976C1172.49 8.976 1171.91 9.22667 1171.47 9.728C1171.04 10.2293 1170.83 10.976 1170.83 11.968C1170.83 12.96 1171.04 13.712 1171.47 14.224C1171.91 14.736 1172.49 14.992 1173.23 14.992Z" fill="#1A1A1A"/>
<path d="M1120 38C1120 33.5817 1123.58 30 1128 30H1182C1186.42 30 1190 33.5817 1190 38V66C1190 70.4183 1186.42 74 1182 74H1128C1123.58 74 1120 70.4183 1120 66V38Z" fill="black" fill-opacity="0.05"/>
<path d="M1141.95 58V55.664H1136.74V54.48L1142.22 46.72H1143.57V54.368H1145.25V55.664H1143.57V58H1141.95ZM1141.95 54.368V48.688H1142.32L1138.03 54.768V54.368H1141.95ZM1150.39 58.144C1149.09 58.144 1148.08 57.8667 1147.35 57.312C1146.63 56.7573 1146.27 55.984 1146.27 54.992C1146.27 54.2027 1146.51 53.552 1146.99 53.04C1147.47 52.5173 1148.1 52.2027 1148.87 52.096V52.384C1148.17 52.2347 1147.6 51.9093 1147.18 51.408C1146.76 50.9067 1146.55 50.2987 1146.55 49.584C1146.55 48.6453 1146.9 47.9093 1147.58 47.376C1148.26 46.8427 1149.2 46.576 1150.39 46.576C1151.6 46.576 1152.54 46.8427 1153.23 47.376C1153.91 47.9093 1154.25 48.6453 1154.25 49.584C1154.25 50.2987 1154.05 50.912 1153.64 51.424C1153.25 51.9253 1152.7 52.24 1152.01 52.368V52.096C1152.78 52.2027 1153.39 52.5173 1153.85 53.04C1154.31 53.552 1154.54 54.2027 1154.54 54.992C1154.54 55.984 1154.18 56.7573 1153.45 57.312C1152.72 57.8667 1151.71 58.144 1150.39 58.144ZM1150.39 56.832C1151.26 56.832 1151.9 56.672 1152.33 56.352C1152.76 56.0213 1152.97 55.5307 1152.97 54.88C1152.97 54.2293 1152.76 53.744 1152.33 53.424C1151.9 53.104 1151.26 52.944 1150.39 52.944C1149.53 52.944 1148.88 53.104 1148.46 53.424C1148.03 53.744 1147.82 54.2293 1147.82 54.88C1147.82 55.5307 1148.03 56.0213 1148.46 56.352C1148.9 56.672 1149.54 56.832 1150.39 56.832ZM1150.39 51.632C1151.14 51.632 1151.71 51.4667 1152.09 51.136C1152.48 50.7947 1152.68 50.3307 1152.68 49.744C1152.68 49.168 1152.48 48.7147 1152.09 48.384C1151.71 48.0533 1151.14 47.888 1150.39 47.888C1149.66 47.888 1149.09 48.0533 1148.7 48.384C1148.3 48.7147 1148.11 49.168 1148.11 49.744C1148.11 50.3307 1148.3 50.7947 1148.7 51.136C1149.09 51.4667 1149.66 51.632 1150.39 51.632Z" fill="#1A1A1A"/>
</svg>
