<svg width="294" height="109" viewBox="0 0 294 109" fill="none" xmlns="http://www.w3.org/2000/svg">
<rect width="294" height="108.336" rx="8" fill="white"/>
<g clip-path="url(#clip0_277_455)">
<path d="M8.79349 16.1572V10.4064H12.8966V11.2221H9.79683V12.8128H11.4691C12.0999 12.8128 12.592 12.9542 12.9455 13.2369C13.299 13.5143 13.4757 13.9276 13.4757 14.4768C13.4757 15.0207 13.299 15.4367 12.9455 15.7249C12.592 16.0131 12.0999 16.1572 11.4691 16.1572H8.79349ZM9.79683 15.3497H11.3467C11.7328 15.3497 12.0156 15.279 12.1951 15.1376C12.3745 14.9907 12.4642 14.7705 12.4642 14.4768C12.4642 14.1886 12.3745 13.9738 12.1951 13.8324C12.0156 13.691 11.7328 13.6203 11.3467 13.6203H9.79683V15.3497ZM15.9837 16.2388C15.6248 16.2388 15.3094 16.1545 15.0375 15.9859C14.7656 15.8119 14.5535 15.5645 14.4012 15.2436C14.2489 14.9228 14.1728 14.5394 14.1728 14.0934C14.1728 13.6475 14.2489 13.2668 14.4012 12.9514C14.5535 12.6306 14.7656 12.3859 15.0375 12.2173C15.3094 12.0433 15.6248 11.9563 15.9837 11.9563C16.3317 11.9563 16.6363 12.0433 16.8973 12.2173C17.1638 12.3859 17.3405 12.6143 17.4275 12.9025H17.3378L17.4275 12.0378H18.4064C18.3901 12.2064 18.3738 12.3777 18.3575 12.5517C18.3466 12.7258 18.3411 12.8971 18.3411 13.0656V16.1572H17.3296L17.3215 15.3089H17.4194C17.3324 15.5917 17.1556 15.8173 16.8892 15.9859C16.6227 16.1545 16.3209 16.2388 15.9837 16.2388ZM16.2692 15.4557C16.5901 15.4557 16.8484 15.3442 17.0441 15.1213C17.2399 14.8929 17.3378 14.5503 17.3378 14.0934C17.3378 13.6366 17.2399 13.2968 17.0441 13.0738C16.8484 12.8508 16.5901 12.7393 16.2692 12.7393C15.9484 12.7393 15.69 12.8508 15.4943 13.0738C15.2985 13.2968 15.2006 13.6366 15.2006 14.0934C15.2006 14.5503 15.2958 14.8929 15.4861 15.1213C15.6819 15.3442 15.9429 15.4557 16.2692 15.4557ZM21.0476 16.2388C20.6778 16.2388 20.3298 16.1953 20.0035 16.1083C19.6826 16.0213 19.4135 15.8962 19.1959 15.7331L19.4814 15.0642C19.6826 15.211 19.9165 15.3225 20.183 15.3986C20.4549 15.4747 20.7404 15.5128 21.0395 15.5128C21.3875 15.5128 21.6404 15.4666 21.7981 15.3741C21.9612 15.2762 22.0428 15.1349 22.0428 14.95C22.0428 14.7759 21.9803 14.6454 21.8552 14.5584C21.7301 14.466 21.5452 14.4197 21.3005 14.4197H20.2319V13.7182H21.2026C21.4256 13.7182 21.5969 13.6747 21.7165 13.5877C21.8361 13.5007 21.896 13.3783 21.896 13.2206C21.896 13.052 21.8226 12.9188 21.6757 12.8209C21.5343 12.723 21.3005 12.6741 20.9742 12.6741C20.6914 12.6741 20.4331 12.7094 20.1993 12.7801C19.9654 12.8454 19.7452 12.9433 19.5385 13.0738L19.2612 12.4375C19.4841 12.2798 19.7533 12.1602 20.0687 12.0786C20.3896 11.997 20.7376 11.9563 21.1129 11.9563C21.6621 11.9563 22.0836 12.0569 22.3772 12.2581C22.6709 12.4593 22.8177 12.7448 22.8177 13.1146C22.8177 13.3647 22.7307 13.5795 22.5567 13.759C22.3881 13.9385 22.1597 14.0499 21.8715 14.0934V13.9792C22.2087 14.001 22.4751 14.1016 22.6709 14.2811C22.8667 14.4605 22.9646 14.7025 22.9646 15.0071C22.9646 15.3823 22.7987 15.6814 22.467 15.9044C22.1352 16.1273 21.6621 16.2388 21.0476 16.2388ZM25.7484 16.2388C25.3242 16.2388 24.9572 16.1518 24.6472 15.9778C24.3372 15.8037 24.0952 15.5563 23.9212 15.2355C23.7526 14.9146 23.6683 14.5339 23.6683 14.0934C23.6683 13.653 23.7526 13.275 23.9212 12.9596C24.0952 12.6387 24.3372 12.3913 24.6472 12.2173C24.9572 12.0433 25.3242 11.9563 25.7484 11.9563C26.1726 11.9563 26.5397 12.0433 26.8496 12.2173C27.165 12.3913 27.407 12.6387 27.5756 12.9596C27.7496 13.275 27.8367 13.653 27.8367 14.0934C27.8367 14.5339 27.7496 14.9146 27.5756 15.2355C27.407 15.5563 27.165 15.8037 26.8496 15.9778C26.5397 16.1518 26.1726 16.2388 25.7484 16.2388ZM25.7484 15.4557C26.0693 15.4557 26.3249 15.3442 26.5152 15.1213C26.7055 14.8929 26.8007 14.5503 26.8007 14.0934C26.8007 13.6366 26.7055 13.2968 26.5152 13.0738C26.3249 12.8508 26.0693 12.7393 25.7484 12.7393C25.4276 12.7393 25.172 12.8508 24.9816 13.0738C24.7913 13.2968 24.6961 13.6366 24.6961 14.0934C24.6961 14.5503 24.7913 14.8929 24.9816 15.1213C25.172 15.3442 25.4276 15.4557 25.7484 15.4557ZM28.8028 16.1572V12.0378H30.9971C31.5138 12.0378 31.8917 12.133 32.131 12.3233C32.3703 12.5082 32.4899 12.772 32.4899 13.1146C32.4899 13.3756 32.4029 13.5931 32.2289 13.7672C32.0549 13.9412 31.8237 14.0499 31.5355 14.0934V13.9792C31.889 14.001 32.1609 14.1043 32.3512 14.2892C32.5416 14.4741 32.6367 14.7134 32.6367 15.0071C32.6367 15.3605 32.5008 15.6406 32.2289 15.8473C31.957 16.0539 31.5709 16.1572 31.0706 16.1572H28.8028ZM29.7491 15.5291H30.9645C31.2038 15.5291 31.386 15.4802 31.511 15.3823C31.6416 15.2844 31.7068 15.1403 31.7068 14.95C31.7068 14.7596 31.6416 14.6155 31.511 14.5176C31.386 14.4197 31.2038 14.3708 30.9645 14.3708H29.7491V15.5291ZM29.7491 13.7427H30.8748C31.0923 13.7427 31.2609 13.6965 31.3805 13.604C31.5002 13.5061 31.56 13.3702 31.56 13.1962C31.56 13.0221 31.5002 12.8889 31.3805 12.7964C31.2609 12.704 31.0923 12.6578 30.8748 12.6578H29.7491V13.7427ZM33.5267 16.1572V12.0378H34.5382V13.4164H35.6231C36.1724 13.4164 36.5857 13.5333 36.863 13.7672C37.1404 13.9956 37.279 14.3273 37.279 14.7623C37.279 15.0451 37.2138 15.2926 37.0833 15.5046C36.9527 15.7113 36.7624 15.8717 36.5122 15.9859C36.2675 16.1001 35.9712 16.1572 35.6231 16.1572H33.5267ZM34.5382 15.4883H35.4844C35.7618 15.4883 35.9739 15.4312 36.1207 15.317C36.2675 15.1974 36.3409 15.0179 36.3409 14.7787C36.3409 14.5394 36.2675 14.3654 36.1207 14.2566C35.9793 14.1424 35.7672 14.0853 35.4844 14.0853H34.5382V15.4883ZM37.7929 16.1572V12.0378H38.8044V16.1572H37.7929ZM41.9863 16.2388C41.2956 16.2388 40.7545 16.0485 40.363 15.6678C39.9714 15.2871 39.7756 14.7651 39.7756 14.1016C39.7756 13.672 39.8599 13.2968 40.0285 12.9759C40.1971 12.6551 40.4309 12.4049 40.73 12.2254C41.0346 12.046 41.3881 11.9563 41.7905 11.9563C42.1875 11.9563 42.5192 12.0405 42.7857 12.2091C43.0521 12.3777 43.2533 12.6143 43.3893 12.9188C43.5307 13.2233 43.6014 13.5795 43.6014 13.9874V14.2566H40.5995V13.7182H42.8754L42.7367 13.8324C42.7367 13.4517 42.6551 13.1608 42.492 12.9596C42.3343 12.7584 42.1032 12.6578 41.7986 12.6578C41.4615 12.6578 41.2004 12.7774 41.0155 13.0167C40.8361 13.256 40.7464 13.5904 40.7464 14.02V14.1261C40.7464 14.572 40.8551 14.9065 41.0726 15.1294C41.2956 15.3469 41.6083 15.4557 42.0107 15.4557C42.2446 15.4557 42.4621 15.4258 42.6633 15.366C42.87 15.3007 43.0657 15.1974 43.2506 15.056L43.5524 15.7412C43.3567 15.8989 43.1228 16.0213 42.8509 16.1083C42.579 16.1953 42.2908 16.2388 41.9863 16.2388ZM46.4151 17.2177V15.3823H46.8882C47.0514 15.1267 47.1683 14.8276 47.239 14.485C47.3151 14.137 47.3532 13.7128 47.3532 13.2125V12.0378H50.5264V15.3823H51.1953V17.2177H50.3306V16.1572H47.2798V17.2177H46.4151ZM47.8018 15.3904H49.572V12.8046H48.2179V13.4409C48.2179 13.8052 48.1825 14.1614 48.1118 14.5095C48.0411 14.8575 47.9378 15.1512 47.8018 15.3904ZM53.5675 16.2388C53.2086 16.2388 52.8931 16.1545 52.6212 15.9859C52.3493 15.8119 52.1372 15.5645 51.985 15.2436C51.8327 14.9228 51.7566 14.5394 51.7566 14.0934C51.7566 13.6475 51.8327 13.2668 51.985 12.9514C52.1372 12.6306 52.3493 12.3859 52.6212 12.2173C52.8931 12.0433 53.2086 11.9563 53.5675 11.9563C53.9155 11.9563 54.2201 12.0433 54.4811 12.2173C54.7476 12.3859 54.9243 12.6143 55.0113 12.9025H54.9216L55.0113 12.0378H55.9902C55.9739 12.2064 55.9575 12.3777 55.9412 12.5517C55.9304 12.7258 55.9249 12.8971 55.9249 13.0656V16.1572H54.9134L54.9053 15.3089H55.0031C54.9161 15.5917 54.7394 15.8173 54.4729 15.9859C54.2065 16.1545 53.9046 16.2388 53.5675 16.2388ZM53.853 15.4557C54.1738 15.4557 54.4321 15.3442 54.6279 15.1213C54.8237 14.8929 54.9216 14.5503 54.9216 14.0934C54.9216 13.6366 54.8237 13.2968 54.6279 13.0738C54.4321 12.8508 54.1738 12.7393 53.853 12.7393C53.5321 12.7393 53.2738 12.8508 53.078 13.0738C52.8823 13.2968 52.7844 13.6366 52.7844 14.0934C52.7844 14.5503 52.8795 14.8929 53.0699 15.1213C53.2657 15.3442 53.5267 15.4557 53.853 15.4557ZM57.1141 16.1572V12.0378H58.1256V13.653H59.9855V12.0378H60.997V16.1572H59.9855V14.4361H58.1256V16.1572H57.1141ZM62.1567 16.1572V12.0378H63.1681V13.653H65.028V12.0378H66.0395V16.1572H65.028V14.4361H63.1681V16.1572H62.1567ZM67.1992 16.1572V12.0378H68.2107V13.4164H69.2956C69.8448 13.4164 70.2581 13.5333 70.5355 13.7672C70.8128 13.9956 70.9515 14.3273 70.9515 14.7623C70.9515 15.0451 70.8862 15.2926 70.7557 15.5046C70.6252 15.7113 70.4349 15.8717 70.1847 15.9859C69.94 16.1001 69.6436 16.1572 69.2956 16.1572H67.1992ZM68.2107 15.4883H69.1569C69.4342 15.4883 69.6463 15.4312 69.7932 15.317C69.94 15.1974 70.0134 15.0179 70.0134 14.7787C70.0134 14.5394 69.94 14.3654 69.7932 14.2566C69.6518 14.1424 69.4397 14.0853 69.1569 14.0853H68.2107V15.4883ZM71.4654 16.1572V12.0378H72.4769V16.1572H71.4654ZM75.6587 16.2388C74.9681 16.2388 74.427 16.0485 74.0354 15.6678C73.6439 15.2871 73.4481 14.7651 73.4481 14.1016C73.4481 13.672 73.5324 13.2968 73.701 12.9759C73.8696 12.6551 74.1034 12.4049 74.4025 12.2254C74.707 12.046 75.0605 11.9563 75.4629 11.9563C75.8599 11.9563 76.1916 12.0405 76.4581 12.2091C76.7246 12.3777 76.9258 12.6143 77.0617 12.9188C77.2031 13.2233 77.2738 13.5795 77.2738 13.9874V14.2566H74.272V13.7182H76.5478L76.4092 13.8324C76.4092 13.4517 76.3276 13.1608 76.1645 12.9596C76.0067 12.7584 75.7756 12.6578 75.4711 12.6578C75.1339 12.6578 74.8729 12.7774 74.688 13.0167C74.5085 13.256 74.4188 13.5904 74.4188 14.02V14.1261C74.4188 14.572 74.5276 14.9065 74.7451 15.1294C74.9681 15.3469 75.2808 15.4557 75.6832 15.4557C75.917 15.4557 76.1345 15.4258 76.3358 15.366C76.5424 15.3007 76.7382 15.1974 76.9231 15.056L77.2249 15.7412C77.0291 15.8989 76.7953 16.0213 76.5234 16.1083C76.2515 16.1953 75.9632 16.2388 75.6587 16.2388Z" fill="#1A1A1A"/>
</g>
<g clip-path="url(#clip1_277_455)">
<path d="M8.78533 34.1722L8.27143 33.3973C8.49983 33.2722 8.70104 33.1254 8.87506 32.9568C9.04908 32.7882 9.19319 32.5789 9.3074 32.3287C9.4216 32.0731 9.50589 31.7604 9.56027 31.3906C9.62009 31.0154 9.65 30.564 9.65 30.0365V28.2827H13.8265V34.0336H12.7824V29.1392H10.6207V30.2976C10.6207 30.8468 10.5799 31.3308 10.4984 31.7495C10.4168 32.1683 10.2971 32.5354 10.1394 32.8508C9.98173 33.1607 9.78867 33.4245 9.56027 33.642C9.33731 33.8541 9.07899 34.0309 8.78533 34.1722ZM16.93 34.1151C16.5058 34.1151 16.1388 34.0281 15.8288 33.8541C15.5188 33.6801 15.2768 33.4327 15.1028 33.1118C14.9342 32.791 14.8499 32.4103 14.8499 31.9698C14.8499 31.5293 14.9342 31.1513 15.1028 30.8359C15.2768 30.5151 15.5188 30.2677 15.8288 30.0936C16.1388 29.9196 16.5058 29.8326 16.93 29.8326C17.3542 29.8326 17.7213 29.9196 18.0312 30.0936C18.3466 30.2677 18.5886 30.5151 18.7572 30.8359C18.9312 31.1513 19.0183 31.5293 19.0183 31.9698C19.0183 32.4103 18.9312 32.791 18.7572 33.1118C18.5886 33.4327 18.3466 33.6801 18.0312 33.8541C17.7213 34.0281 17.3542 34.1151 16.93 34.1151ZM16.93 33.332C17.2509 33.332 17.5064 33.2206 17.6968 32.9976C17.8871 32.7692 17.9823 32.4266 17.9823 31.9698C17.9823 31.513 17.8871 31.1731 17.6968 30.9501C17.5064 30.7272 17.2509 30.6157 16.93 30.6157C16.6092 30.6157 16.3536 30.7272 16.1632 30.9501C15.9729 31.1731 15.8777 31.513 15.8777 31.9698C15.8777 32.4266 15.9729 32.7692 16.1632 32.9976C16.3536 33.2206 16.6092 33.332 16.93 33.332ZM19.9844 34.0336V29.9142H23.076V30.7136H21.0041V34.0336H19.9844ZM23.7922 34.0336V29.9142H24.714V33.0302H24.4693L26.8104 29.9142H27.6506V34.0336H26.7288V30.9094H26.9817L24.6324 34.0336H23.7922ZM30.7359 34.1151C30.3117 34.1151 29.9392 34.0281 29.6184 33.8541C29.303 33.6801 29.0582 33.4327 28.8842 33.1118C28.7102 32.7855 28.6232 32.3994 28.6232 31.9535C28.6232 31.5075 28.7102 31.1269 28.8842 30.8115C29.0637 30.4961 29.3111 30.2541 29.6265 30.0855C29.9419 29.9169 30.3117 29.8326 30.7359 29.8326C31.0078 29.8326 31.2716 29.8761 31.5272 29.9631C31.7882 30.0447 32.0003 30.1643 32.1634 30.322L31.8535 31.0317C31.7066 30.8958 31.5408 30.7952 31.3559 30.7299C31.1764 30.6592 30.9997 30.6238 30.8256 30.6238C30.4613 30.6238 30.1758 30.7381 29.9691 30.9665C29.7679 31.1949 29.6673 31.5266 29.6673 31.9616C29.6673 32.3967 29.7679 32.7311 29.9691 32.965C30.1758 33.1988 30.4613 33.3157 30.8256 33.3157C30.9942 33.3157 31.1682 33.2831 31.3477 33.2178C31.5326 33.1526 31.7012 33.052 31.8535 32.916L32.1634 33.6176C31.9948 33.7753 31.78 33.8976 31.519 33.9846C31.2634 34.0716 31.0024 34.1151 30.7359 34.1151ZM33.9219 34.0336V30.7136H32.5107V29.9142H36.3528V30.7136H34.9334V34.0336H33.9219ZM36.984 34.0336V29.9142H37.9057V33.0302H37.661L40.0021 29.9142H40.8423V34.0336H39.9206V30.9094H40.1734L37.8242 34.0336H36.984ZM42.0026 34.0336V29.9142H43.0141V31.5293H43.634L44.8413 29.9142H45.9344L44.4171 31.9698L44.1969 31.6517C44.3491 31.668 44.4824 31.7088 44.5966 31.774C44.7162 31.8393 44.8277 31.9317 44.931 32.0514C45.0398 32.1656 45.1458 32.3124 45.2491 32.4919L46.1138 34.0336H45.0289L44.3274 32.7937C44.2567 32.6686 44.186 32.5707 44.1153 32.5C44.0446 32.4293 43.9657 32.3804 43.8787 32.3532C43.7917 32.326 43.6857 32.3124 43.5606 32.3124H43.0141V34.0336H42.0026ZM48.278 34.1151C47.9191 34.1151 47.6037 34.0309 47.3318 33.8623C47.0599 33.6882 46.8478 33.4408 46.6955 33.12C46.5433 32.7991 46.4671 32.4157 46.4671 31.9698C46.4671 31.5239 46.5433 31.1432 46.6955 30.8278C46.8478 30.5069 47.0599 30.2622 47.3318 30.0936C47.6037 29.9196 47.9191 29.8326 48.278 29.8326C48.6261 29.8326 48.9306 29.9196 49.1916 30.0936C49.4581 30.2622 49.6348 30.4906 49.7219 30.7788H49.6321L49.7219 29.9142H50.7007C50.6844 30.0828 50.6681 30.2541 50.6518 30.4281C50.6409 30.6021 50.6355 30.7734 50.6355 30.942V34.0336H49.624L49.6158 33.1852H49.7137C49.6267 33.468 49.4499 33.6937 49.1835 33.8623C48.917 34.0309 48.6152 34.1151 48.278 34.1151ZM48.5635 33.332C48.8844 33.332 49.1427 33.2206 49.3385 32.9976C49.5342 32.7692 49.6321 32.4266 49.6321 31.9698C49.6321 31.513 49.5342 31.1731 49.3385 30.9501C49.1427 30.7272 48.8844 30.6157 48.5635 30.6157C48.2427 30.6157 47.9844 30.7272 47.7886 30.9501C47.5928 31.1731 47.4949 31.513 47.4949 31.9698C47.4949 32.4266 47.5901 32.7692 47.7804 32.9976C47.9762 33.2206 48.2372 33.332 48.5635 33.332Z" fill="#1A1A1A"/>
</g>
<g clip-path="url(#clip2_277_455)">
<path d="M9.67447 51.9098L10.686 49.9928L10.7023 50.3191L8.04303 46.1589H9.16872L11.2162 49.4055H11.0123L12.7171 46.1589H13.802L10.7675 51.9098H9.67447ZM13.9057 52.9702V51.1349H14.3788C14.542 50.8793 14.6589 50.5802 14.7296 50.2376C14.8057 49.8895 14.8438 49.4653 14.8438 48.965V47.7904H18.017V51.1349H18.6858V52.9702H17.8212V51.9098H14.7704V52.9702H13.9057ZM15.2924 51.143H17.0626V48.5572H15.7085V49.1934C15.7085 49.5578 15.6731 49.914 15.6024 50.262C15.5317 50.6101 15.4284 50.9037 15.2924 51.143ZM21.4578 51.9914C20.7671 51.9914 20.226 51.801 19.8345 51.4204C19.4429 51.0397 19.2472 50.5176 19.2472 49.8542C19.2472 49.4246 19.3315 49.0493 19.5 48.7285C19.6686 48.4076 19.9025 48.1575 20.2016 47.978C20.5061 47.7985 20.8596 47.7088 21.262 47.7088C21.659 47.7088 21.9907 47.7931 22.2572 47.9617C22.5236 48.1303 22.7249 48.3668 22.8608 48.6714C23.0022 48.9759 23.0729 49.3321 23.0729 49.74V50.0092H20.071V49.4708H22.3469L22.2082 49.585C22.2082 49.2043 22.1267 48.9134 21.9635 48.7122C21.8058 48.5109 21.5747 48.4103 21.2702 48.4103C20.933 48.4103 20.672 48.53 20.4871 48.7693C20.3076 49.0085 20.2179 49.343 20.2179 49.7726V49.8786C20.2179 50.3246 20.3266 50.659 20.5442 50.882C20.7671 51.0995 21.0798 51.2083 21.4822 51.2083C21.7161 51.2083 21.9336 51.1784 22.1348 51.1185C22.3415 51.0533 22.5372 50.95 22.7221 50.8086L23.024 51.4938C22.8282 51.6515 22.5943 51.7738 22.3224 51.8608C22.0505 51.9479 21.7623 51.9914 21.4578 51.9914ZM24.0479 53.6718V48.8182C24.0479 48.6496 24.0424 48.4783 24.0316 48.3043C24.0207 48.1303 24.0044 47.959 23.9826 47.7904H24.9696L25.0594 48.6551H24.9696C25.0512 48.3668 25.2225 48.1384 25.4836 47.9699C25.75 47.7958 26.0573 47.7088 26.4053 47.7088C26.7697 47.7088 27.0878 47.7958 27.3597 47.9699C27.6316 48.1384 27.8437 48.3831 27.996 48.704C28.1482 49.0194 28.2244 49.4001 28.2244 49.846C28.2244 50.2919 28.1482 50.6753 27.996 50.9962C27.8437 51.317 27.6316 51.5645 27.3597 51.7385C27.0878 51.9071 26.7697 51.9914 26.4053 51.9914C26.0627 51.9914 25.7609 51.9071 25.4999 51.7385C25.2388 51.5699 25.0648 51.3442 24.9778 51.0614H25.0675V53.6718H24.0479ZM26.1198 51.2083C26.4461 51.2083 26.7071 51.0968 26.9029 50.8738C27.0987 50.6454 27.1966 50.3028 27.1966 49.846C27.1966 49.3892 27.0987 49.0493 26.9029 48.8264C26.7071 48.6034 26.4461 48.4919 26.1198 48.4919C25.799 48.4919 25.5407 48.6034 25.3449 48.8264C25.1491 49.0493 25.0512 49.3892 25.0512 49.846C25.0512 50.3028 25.1491 50.6454 25.3449 50.8738C25.5407 51.0968 25.799 51.2083 26.1198 51.2083ZM28.5653 51.9098L29.4299 50.3681C29.5387 50.1886 29.642 50.0418 29.7399 49.9276C29.8432 49.8079 29.9547 49.7155 30.0744 49.6502C30.194 49.585 30.3299 49.5442 30.4822 49.5279L30.2701 49.846L28.7447 47.7904H29.8378L31.0532 49.4055H31.5671V47.7904H32.5786V49.4055H33.0844L34.2916 47.7904H35.3929L33.8593 49.846L33.6472 49.5279C33.7995 49.5442 33.9354 49.585 34.0551 49.6502C34.1747 49.7155 34.2862 49.8079 34.3895 49.9276C34.4983 50.0418 34.6043 50.1886 34.7077 50.3681L35.5723 51.9098H34.4874L33.7859 50.6699C33.7152 50.5448 33.6445 50.4469 33.5738 50.3762C33.5031 50.3055 33.4243 50.2566 33.3372 50.2294C33.2502 50.2022 33.1442 50.1886 33.0191 50.1886H32.5786V51.9098H31.5671V50.1886H31.1185C30.9934 50.1886 30.8874 50.2022 30.8003 50.2294C30.7133 50.2566 30.6345 50.3055 30.5638 50.3762C30.4985 50.4469 30.4278 50.5448 30.3517 50.6699L29.6502 51.9098H28.5653ZM37.731 51.9914C37.3721 51.9914 37.0567 51.9071 36.7848 51.7385C36.5128 51.5645 36.3008 51.317 36.1485 50.9962C35.9962 50.6753 35.9201 50.2919 35.9201 49.846C35.9201 49.4001 35.9962 49.0194 36.1485 48.704C36.3008 48.3831 36.5128 48.1384 36.7848 47.9699C37.0567 47.7958 37.3721 47.7088 37.731 47.7088C38.079 47.7088 38.3836 47.7958 38.6446 47.9699C38.9111 48.1384 39.0878 48.3668 39.1748 48.6551H39.0851L39.1748 47.7904H40.1537C40.1374 47.959 40.1211 48.1303 40.1047 48.3043C40.0939 48.4783 40.0884 48.6496 40.0884 48.8182V51.9098H39.0769L39.0688 51.0614H39.1667C39.0796 51.3442 38.9029 51.5699 38.6364 51.7385C38.37 51.9071 38.0682 51.9914 37.731 51.9914ZM38.0165 51.2083C38.3373 51.2083 38.5957 51.0968 38.7914 50.8738C38.9872 50.6454 39.0851 50.3028 39.0851 49.846C39.0851 49.3892 38.9872 49.0493 38.7914 48.8264C38.5957 48.6034 38.3373 48.4919 38.0165 48.4919C37.6956 48.4919 37.4373 48.6034 37.2416 48.8264C37.0458 49.0493 36.9479 49.3892 36.9479 49.846C36.9479 50.3028 37.0431 50.6454 37.2334 50.8738C37.4292 51.0968 37.6902 51.2083 38.0165 51.2083ZM41.2777 51.9098V47.7904H42.2892V49.4055H44.149V47.7904H45.1605V51.9098H44.149V50.1886H42.2892V51.9098H41.2777ZM46.3202 51.9098V47.7904H47.2419V50.9065H46.9972L49.3383 47.7904H50.1785V51.9098H49.2568V48.7856H49.5096L47.1604 51.9098H46.3202ZM50.9962 51.9098L51.6243 50.8249C51.733 50.64 51.8663 50.4932 52.024 50.3844C52.1871 50.2702 52.3557 50.2131 52.5297 50.2131H52.7092L52.701 50.3028C52.217 50.3028 51.8445 50.1968 51.5835 49.9847C51.3225 49.7726 51.1919 49.4626 51.1919 49.0548C51.1919 48.6523 51.3252 48.3424 51.5916 48.1248C51.8635 47.9019 52.2605 47.7904 52.7826 47.7904H54.8301V51.9098H53.9001V50.4578H53.4352C53.2666 50.4578 53.117 50.504 52.9865 50.5965C52.8615 50.6889 52.7554 50.8086 52.6684 50.9554L52.13 51.9098H50.9962ZM52.9784 49.7971H53.9001V48.4511H52.9784C52.701 48.4511 52.4917 48.5109 52.3503 48.6306C52.2143 48.7502 52.1463 48.9134 52.1463 49.12C52.1463 49.3375 52.2143 49.5061 52.3503 49.6258C52.4917 49.74 52.701 49.7971 52.9784 49.7971ZM58.2294 51.9098V47.7904H59.0777L60.4971 50.2539L61.9165 47.7904H62.7648V51.9098H61.8675V48.9324H62.0551L60.7337 51.2409H60.2605L58.9391 48.9324H59.1267V51.9098H58.2294ZM65.5484 51.9914C65.1895 51.9914 64.8741 51.9071 64.6022 51.7385C64.3303 51.5645 64.1182 51.317 63.9659 50.9962C63.8136 50.6753 63.7375 50.2919 63.7375 49.846C63.7375 49.4001 63.8136 49.0194 63.9659 48.704C64.1182 48.3831 64.3303 48.1384 64.6022 47.9699C64.8741 47.7958 65.1895 47.7088 65.5484 47.7088C65.8964 47.7088 66.201 47.7958 66.462 47.9699C66.7285 48.1384 66.9052 48.3668 66.9922 48.6551H66.9025L66.9922 47.7904H67.9711C67.9548 47.959 67.9385 48.1303 67.9222 48.3043C67.9113 48.4783 67.9058 48.6496 67.9058 48.8182V51.9098H66.8943L66.8862 51.0614H66.9841C66.8971 51.3442 66.7203 51.5699 66.4539 51.7385C66.1874 51.9071 65.8856 51.9914 65.5484 51.9914ZM65.8339 51.2083C66.1548 51.2083 66.4131 51.0968 66.6088 50.8738C66.8046 50.6454 66.9025 50.3028 66.9025 49.846C66.9025 49.3892 66.8046 49.0493 66.6088 48.8264C66.4131 48.6034 66.1548 48.4919 65.8339 48.4919C65.5131 48.4919 65.2547 48.6034 65.059 48.8264C64.8632 49.0493 64.7653 49.3892 64.7653 49.846C64.7653 50.3028 64.8605 50.6454 65.0508 50.8738C65.2466 51.0968 65.5076 51.2083 65.8339 51.2083ZM69.1277 53.6718V48.8182C69.1277 48.6496 69.1223 48.4783 69.1114 48.3043C69.1005 48.1303 69.0842 47.959 69.0624 47.7904H70.0495L70.1392 48.6551H70.0495C70.131 48.3668 70.3023 48.1384 70.5634 47.9699C70.8298 47.7958 71.1371 47.7088 71.4851 47.7088C71.8495 47.7088 72.1676 47.7958 72.4395 47.9699C72.7114 48.1384 72.9235 48.3831 73.0758 48.704C73.2281 49.0194 73.3042 49.4001 73.3042 49.846C73.3042 50.2919 73.2281 50.6753 73.0758 50.9962C72.9235 51.317 72.7114 51.5645 72.4395 51.7385C72.1676 51.9071 71.8495 51.9914 71.4851 51.9914C71.1425 51.9914 70.8407 51.9071 70.5797 51.7385C70.3187 51.5699 70.1446 51.3442 70.0576 51.0614H70.1474V53.6718H69.1277ZM71.1996 51.2083C71.5259 51.2083 71.787 51.0968 71.9827 50.8738C72.1785 50.6454 72.2764 50.3028 72.2764 49.846C72.2764 49.3892 72.1785 49.0493 71.9827 48.8264C71.787 48.6034 71.5259 48.4919 71.1996 48.4919C70.8788 48.4919 70.6205 48.6034 70.4247 48.8264C70.2289 49.0493 70.131 49.3892 70.131 49.846C70.131 50.3028 70.2289 50.6454 70.4247 50.8738C70.6205 51.0968 70.8788 51.2083 71.1996 51.2083ZM74.265 51.9098V47.7904H75.2765V49.4055H75.8965L77.1037 47.7904H78.1968L76.6796 49.846L76.4593 49.5279C76.6116 49.5442 76.7448 49.585 76.859 49.6502C76.9787 49.7155 77.0901 49.8079 77.1935 49.9276C77.3022 50.0418 77.4083 50.1886 77.5116 50.3681L78.3763 51.9098H77.2914L76.5898 50.6699C76.5191 50.5448 76.4484 50.4469 76.3778 50.3762C76.3071 50.3055 76.2282 50.2566 76.1412 50.2294C76.0542 50.2022 75.9481 50.1886 75.8231 50.1886H75.2765V51.9098H74.265ZM80.9402 51.9914C80.2495 51.9914 79.7084 51.801 79.3169 51.4204C78.9254 51.0397 78.7296 50.5176 78.7296 49.8542C78.7296 49.4246 78.8139 49.0493 78.9825 48.7285C79.151 48.4076 79.3849 48.1575 79.684 47.978C79.9885 47.7985 80.342 47.7088 80.7444 47.7088C81.1414 47.7088 81.4731 47.7931 81.7396 47.9617C82.0061 48.1303 82.2073 48.3668 82.3432 48.6714C82.4846 48.9759 82.5553 49.3321 82.5553 49.74V50.0092H79.5535V49.4708H81.8293L81.6907 49.585C81.6907 49.2043 81.6091 48.9134 81.4459 48.7122C81.2882 48.5109 81.0571 48.4103 80.7526 48.4103C80.4154 48.4103 80.1544 48.53 79.9695 48.7693C79.79 49.0085 79.7003 49.343 79.7003 49.7726V49.8786C79.7003 50.3246 79.8091 50.659 80.0266 50.882C80.2495 51.0995 80.5622 51.2083 80.9647 51.2083C81.1985 51.2083 81.416 51.1784 81.6172 51.1185C81.8239 51.0533 82.0197 50.95 82.2046 50.8086L82.5064 51.4938C82.3106 51.6515 82.0768 51.7738 81.8049 51.8608C81.5329 51.9479 81.2447 51.9914 80.9402 51.9914ZM84.3868 51.9098V48.5898H82.9756V47.7904H86.8177V48.5898H85.3983V51.9098H84.3868ZM87.4488 51.9098V47.7904H91.3072V51.9098H90.2957V48.5735H88.4603V51.9098H87.4488ZM92.3614 52.024L92.0433 51.2246C92.2227 51.1593 92.3723 51.075 92.4919 50.9717C92.617 50.8629 92.7149 50.727 92.7856 50.5638C92.8617 50.3953 92.9161 50.1886 92.9487 49.9439C92.9813 49.6937 92.9977 49.3974 92.9977 49.0548V47.7904H96.2769V51.9098H95.2654V48.5735H93.9276V49.0874C93.9276 49.6801 93.8732 50.1777 93.7644 50.5802C93.6557 50.9771 93.4871 51.2926 93.2587 51.5264C93.0303 51.7602 92.7312 51.9261 92.3614 52.024ZM99.4612 51.9914C98.7706 51.9914 98.2295 51.801 97.8379 51.4204C97.4464 51.0397 97.2506 50.5176 97.2506 49.8542C97.2506 49.4246 97.3349 49.0493 97.5035 48.7285C97.6721 48.4076 97.9059 48.1575 98.205 47.978C98.5096 47.7985 98.863 47.7088 99.2655 47.7088C99.6624 47.7088 99.9942 47.7931 100.261 47.9617C100.527 48.1303 100.728 48.3668 100.864 48.6714C101.006 48.9759 101.076 49.3321 101.076 49.74V50.0092H98.0745V49.4708H100.35L100.212 49.585C100.212 49.2043 100.13 48.9134 99.967 48.7122C99.8093 48.5109 99.5782 48.4103 99.2736 48.4103C98.9365 48.4103 98.6754 48.53 98.4905 48.7693C98.3111 49.0085 98.2213 49.343 98.2213 49.7726V49.8786C98.2213 50.3246 98.3301 50.659 98.5476 50.882C98.7706 51.0995 99.0833 51.2083 99.4857 51.2083C99.7195 51.2083 99.9371 51.1784 100.138 51.1185C100.345 51.0533 100.541 50.95 100.726 50.8086L101.027 51.4938C100.832 51.6515 100.598 51.7738 100.326 51.8608C100.054 51.9479 99.7658 51.9914 99.4612 51.9914ZM102.019 51.9098V47.7904H102.94V50.9065H102.696L105.037 47.7904H105.877V51.9098H104.955V48.7856H105.208L102.859 51.9098H102.019ZM103.944 47.4152C103.672 47.4152 103.433 47.3717 103.226 47.2846C103.019 47.1922 102.848 47.0644 102.712 46.9013C102.576 46.7327 102.478 46.5342 102.418 46.3058L102.94 46.1263C103.033 46.3765 103.161 46.5614 103.324 46.681C103.487 46.7952 103.696 46.8523 103.952 46.8523C104.208 46.8523 104.417 46.7952 104.58 46.681C104.743 46.5668 104.876 46.3846 104.98 46.1345L105.477 46.3058C105.363 46.6701 105.173 46.9475 104.906 47.1378C104.645 47.3227 104.324 47.4152 103.944 47.4152ZM108.962 51.9914C108.538 51.9914 108.166 51.9044 107.845 51.7303C107.529 51.5563 107.285 51.3089 107.111 50.988C106.937 50.6617 106.85 50.2756 106.85 49.8297C106.85 49.3838 106.937 49.0031 107.111 48.6877C107.29 48.3723 107.538 48.1303 107.853 47.9617C108.168 47.7931 108.538 47.7088 108.962 47.7088C109.234 47.7088 109.498 47.7523 109.754 47.8393C110.015 47.9209 110.227 48.0405 110.39 48.1983L110.08 48.9079C109.933 48.772 109.767 48.6714 109.582 48.6061C109.403 48.5354 109.226 48.5001 109.052 48.5001C108.688 48.5001 108.402 48.6143 108.196 48.8427C107.994 49.0711 107.894 49.4028 107.894 49.8379C107.894 50.2729 107.994 50.6074 108.196 50.8412C108.402 51.075 108.688 51.192 109.052 51.192C109.221 51.192 109.395 51.1593 109.574 51.0941C109.759 51.0288 109.928 50.9282 110.08 50.7923L110.39 51.4938C110.221 51.6515 110.007 51.7738 109.746 51.8608C109.49 51.9479 109.229 51.9914 108.962 51.9914ZM112.883 51.9914C112.524 51.9914 112.208 51.9071 111.936 51.7385C111.664 51.5645 111.452 51.317 111.3 50.9962C111.148 50.6753 111.072 50.2919 111.072 49.846C111.072 49.4001 111.148 49.0194 111.3 48.704C111.452 48.3831 111.664 48.1384 111.936 47.9699C112.208 47.7958 112.524 47.7088 112.883 47.7088C113.231 47.7088 113.535 47.7958 113.796 47.9699C114.063 48.1384 114.239 48.3668 114.326 48.6551H114.237L114.326 47.7904H115.305C115.289 47.959 115.273 48.1303 115.256 48.3043C115.245 48.4783 115.24 48.6496 115.24 48.8182V51.9098H114.229L114.22 51.0614H114.318C114.231 51.3442 114.055 51.5699 113.788 51.7385C113.522 51.9071 113.22 51.9914 112.883 51.9914ZM113.168 51.2083C113.489 51.2083 113.747 51.0968 113.943 50.8738C114.139 50.6454 114.237 50.3028 114.237 49.846C114.237 49.3892 114.139 49.0493 113.943 48.8264C113.747 48.6034 113.489 48.4919 113.168 48.4919C112.847 48.4919 112.589 48.6034 112.393 48.8264C112.197 49.0493 112.1 49.3892 112.1 49.846C112.1 50.3028 112.195 50.6454 112.385 50.8738C112.581 51.0968 112.842 51.2083 113.168 51.2083Z" fill="#1A1A1A"/>
</g>
<g clip-path="url(#clip3_277_455)">
<path d="M8.27143 71.1321V68.9623H8.86691C9.13881 68.636 9.34002 68.19 9.47054 67.6245C9.60106 67.0589 9.66631 66.3628 9.66631 65.5362V64.0353H13.8347V68.9623H14.6748V71.1321H13.7612V69.7861H9.19319V71.1321H8.27143ZM9.91919 68.9623H12.7905V64.851H10.6289V65.6341C10.6289 66.4226 10.569 67.0861 10.4494 67.6245C10.3352 68.1628 10.1585 68.6088 9.91919 68.9623ZM17.3363 69.8677C16.9121 69.8677 16.545 69.7807 16.235 69.6067C15.9251 69.4327 15.6831 69.1852 15.5091 68.8644C15.3405 68.5435 15.2562 68.1628 15.2562 67.7224C15.2562 67.2819 15.3405 66.9039 15.5091 66.5885C15.6831 66.2676 15.9251 66.0202 16.235 65.8462C16.545 65.6722 16.9121 65.5852 17.3363 65.5852C17.7604 65.5852 18.1275 65.6722 18.4375 65.8462C18.7529 66.0202 18.9949 66.2676 19.1635 66.5885C19.3375 66.9039 19.4245 67.2819 19.4245 67.7224C19.4245 68.1628 19.3375 68.5435 19.1635 68.8644C18.9949 69.1852 18.7529 69.4327 18.4375 69.6067C18.1275 69.7807 17.7604 69.8677 17.3363 69.8677ZM17.3363 69.0846C17.6571 69.0846 17.9127 68.9731 18.1031 68.7502C18.2934 68.5218 18.3886 68.1792 18.3886 67.7224C18.3886 67.2656 18.2934 66.9257 18.1031 66.7027C17.9127 66.4797 17.6571 66.3683 17.3363 66.3683C17.0154 66.3683 16.7598 66.4797 16.5695 66.7027C16.3792 66.9257 16.284 67.2656 16.284 67.7224C16.284 68.1792 16.3792 68.5218 16.5695 68.7502C16.7598 68.9731 17.0154 69.0846 17.3363 69.0846ZM20.3907 69.7861V65.6667H24.2491V69.7861H23.2376V66.4498H21.4022V69.7861H20.3907ZM27.3018 69.8677C26.8776 69.8677 26.5105 69.7807 26.2006 69.6067C25.8906 69.4327 25.6486 69.1852 25.4746 68.8644C25.306 68.5435 25.2217 68.1628 25.2217 67.7224C25.2217 67.2819 25.306 66.9039 25.4746 66.5885C25.6486 66.2676 25.8906 66.0202 26.2006 65.8462C26.5105 65.6722 26.8776 65.5852 27.3018 65.5852C27.726 65.5852 28.093 65.6722 28.403 65.8462C28.7184 66.0202 28.9604 66.2676 29.129 66.5885C29.303 66.9039 29.39 67.2819 29.39 67.7224C29.39 68.1628 29.303 68.5435 29.129 68.8644C28.9604 69.1852 28.7184 69.4327 28.403 69.6067C28.093 69.7807 27.726 69.8677 27.3018 69.8677ZM27.3018 69.0846C27.6226 69.0846 27.8782 68.9731 28.0686 68.7502C28.2589 68.5218 28.3541 68.1792 28.3541 67.7224C28.3541 67.2656 28.2589 66.9257 28.0686 66.7027C27.8782 66.4797 27.6226 66.3683 27.3018 66.3683C26.9809 66.3683 26.7253 66.4797 26.535 66.7027C26.3447 66.9257 26.2495 67.2656 26.2495 67.7224C26.2495 68.1792 26.3447 68.5218 26.535 68.7502C26.7253 68.9731 26.9809 69.0846 27.3018 69.0846ZM30.1705 69.9003L29.8524 69.1009C30.0318 69.0357 30.1814 68.9514 30.301 68.8481C30.4261 68.7393 30.524 68.6033 30.5947 68.4402C30.6708 68.2716 30.7252 68.065 30.7578 67.8202C30.7905 67.5701 30.8068 67.2737 30.8068 66.9311V65.6667H34.086V69.7861H33.0745V66.4498H31.7367V66.9637C31.7367 67.5565 31.6823 68.0541 31.5736 68.4565C31.4648 68.8535 31.2962 69.1689 31.0678 69.4027C30.8394 69.6366 30.5403 69.8024 30.1705 69.9003ZM35.2474 69.7861V65.6667H36.2589V67.2819H38.1187V65.6667H39.1302V69.7861H38.1187V68.065H36.2589V69.7861H35.2474ZM40.2899 69.7861V65.6667H41.2116V68.7828H40.9669L43.308 65.6667H44.1482V69.7861H43.2265V66.6619H43.4793L41.1301 69.7861H40.2899ZM46.1976 69.7861V66.4661H44.7864V65.6667H48.6285V66.4661H47.2091V69.7861H46.1976ZM51.2428 69.8677C50.5521 69.8677 50.0111 69.6774 49.6195 69.2967C49.228 68.916 49.0322 68.394 49.0322 67.7305C49.0322 67.3009 49.1165 66.9257 49.2851 66.6048C49.4536 66.284 49.6875 66.0338 49.9866 65.8544C50.2911 65.6749 50.6446 65.5852 51.047 65.5852C51.444 65.5852 51.7757 65.6695 52.0422 65.838C52.3087 66.0066 52.5099 66.2432 52.6458 66.5477C52.7872 66.8523 52.8579 67.2084 52.8579 67.6163V67.8855H49.8561V67.3471H52.1319L51.9933 67.4613C51.9933 67.0807 51.9117 66.7897 51.7485 66.5885C51.5908 66.3873 51.3597 66.2867 51.0552 66.2867C50.718 66.2867 50.457 66.4063 50.2721 66.6456C50.0926 66.8849 50.0029 67.2193 50.0029 67.6489V67.755C50.0029 68.2009 50.1117 68.5354 50.3292 68.7583C50.5522 68.9758 50.8648 69.0846 51.2673 69.0846C51.5011 69.0846 51.7186 69.0547 51.9198 68.9949C52.1265 68.9296 52.3223 68.8263 52.5072 68.6849L52.809 69.3701C52.6132 69.5278 52.3794 69.6502 52.1075 69.7372C51.8356 69.8242 51.5473 69.8677 51.2428 69.8677ZM53.6942 69.9003L53.3761 69.1009C53.5556 69.0357 53.7051 68.9514 53.8247 68.8481C53.9498 68.7393 54.0477 68.6033 54.1184 68.4402C54.1945 68.2716 54.2489 68.065 54.2816 67.8202C54.3142 67.5701 54.3305 67.2737 54.3305 66.9311V65.6667H57.6097V69.7861H56.5982V66.4498H55.2604V66.9637C55.2604 67.5565 55.206 68.0541 55.0973 68.4565C54.9885 68.8535 54.8199 69.1689 54.5915 69.4027C54.3631 69.6366 54.064 69.8024 53.6942 69.9003ZM58.7711 69.7861V65.6667H59.7826V67.0453H60.8675C61.4167 67.0453 61.83 67.1622 62.1074 67.3961C62.3847 67.6245 62.5234 67.9562 62.5234 68.3912C62.5234 68.674 62.4582 68.9215 62.3276 69.1336C62.1971 69.3402 62.0068 69.5006 61.7566 69.6148C61.5119 69.729 61.2155 69.7861 60.8675 69.7861H58.7711ZM59.7826 69.1172H60.7288C61.0062 69.1172 61.2183 69.0601 61.3651 68.9459C61.5119 68.8263 61.5853 68.6468 61.5853 68.4076C61.5853 68.1683 61.5119 67.9943 61.3651 67.8855C61.2237 67.7713 61.0116 67.7142 60.7288 67.7142H59.7826V69.1172ZM63.3755 69.7861V65.6667H64.387V67.2819H66.2468V65.6667H67.2583V69.7861H66.2468V68.065H64.387V69.7861H63.3755ZM68.418 69.7861V65.6667H69.4295V67.0453H70.5144C71.0636 67.0453 71.4769 67.1622 71.7543 67.3961C72.0316 67.6245 72.1703 67.9562 72.1703 68.3912C72.1703 68.674 72.105 68.9215 71.9745 69.1336C71.844 69.3402 71.6537 69.5006 71.4035 69.6148C71.1588 69.729 70.8624 69.7861 70.5144 69.7861H68.418ZM69.4295 69.1172H70.3757C70.653 69.1172 70.8651 69.0601 71.012 68.9459C71.1588 68.8263 71.2322 68.6468 71.2322 68.4076C71.2322 68.1683 71.1588 67.9943 71.012 67.8855C70.8706 67.7713 70.6585 67.7142 70.3757 67.7142H69.4295V69.1172ZM72.6842 69.7861V65.6667H73.6957V69.7861H72.6842ZM76.8775 69.8677C76.1869 69.8677 75.6458 69.6774 75.2542 69.2967C74.8627 68.916 74.6669 68.394 74.6669 67.7305C74.6669 67.3009 74.7512 66.9257 74.9198 66.6048C75.0884 66.284 75.3222 66.0338 75.6213 65.8544C75.9258 65.6749 76.2793 65.5852 76.6817 65.5852C77.0787 65.5852 77.4105 65.6695 77.6769 65.838C77.9434 66.0066 78.1446 66.2432 78.2806 66.5477C78.4219 66.8523 78.4926 67.2084 78.4926 67.6163V67.8855H75.4908V67.3471H77.7667L77.628 67.4613C77.628 67.0807 77.5464 66.7897 77.3833 66.5885C77.2256 66.3873 76.9944 66.2867 76.6899 66.2867C76.3527 66.2867 76.0917 66.4063 75.9068 66.6456C75.7273 66.8849 75.6376 67.2193 75.6376 67.6489V67.755C75.6376 68.2009 75.7464 68.5354 75.9639 68.7583C76.1869 68.9758 76.4996 69.0846 76.902 69.0846C77.1358 69.0846 77.3534 69.0547 77.5546 68.9949C77.7612 68.9296 77.957 68.8263 78.1419 68.6849L78.4437 69.3701C78.2479 69.5278 78.0141 69.6502 77.7422 69.7372C77.4703 69.8242 77.1821 69.8677 76.8775 69.8677ZM81.6735 69.7861V65.6667H82.685V67.2819H84.5448V65.6667H85.5563V69.7861H84.5448V68.065H82.685V69.7861H81.6735ZM88.3392 69.8677C87.9803 69.8677 87.6649 69.7834 87.393 69.6148C87.1211 69.4408 86.909 69.1934 86.7567 68.8725C86.6045 68.5517 86.5283 68.1683 86.5283 67.7224C86.5283 67.2764 86.6045 66.8958 86.7567 66.5803C86.909 66.2595 87.1211 66.0148 87.393 65.8462C87.6649 65.6722 87.9803 65.5852 88.3392 65.5852C88.6873 65.5852 88.9918 65.6722 89.2529 65.8462C89.5193 66.0148 89.6961 66.2432 89.7831 66.5314H89.6933L89.7831 65.6667H90.7619C90.7456 65.8353 90.7293 66.0066 90.713 66.1806C90.7021 66.3547 90.6967 66.526 90.6967 66.6945V69.7861H89.6852L89.677 68.9378H89.7749C89.6879 69.2206 89.5112 69.4462 89.2447 69.6148C88.9782 69.7834 88.6764 69.8677 88.3392 69.8677ZM88.6247 69.0846C88.9456 69.0846 89.2039 68.9731 89.3997 68.7502C89.5955 68.5218 89.6933 68.1792 89.6933 67.7224C89.6933 67.2656 89.5955 66.9257 89.3997 66.7027C89.2039 66.4797 88.9456 66.3683 88.6247 66.3683C88.3039 66.3683 88.0456 66.4797 87.8498 66.7027C87.654 66.9257 87.5562 67.2656 87.5562 67.7224C87.5562 68.1792 87.6513 68.5218 87.8417 68.7502C88.0374 68.9731 88.2985 69.0846 88.6247 69.0846ZM93.811 69.8677C93.3868 69.8677 93.0143 69.7807 92.6935 69.6067C92.3781 69.4327 92.1333 69.1852 91.9593 68.8644C91.7853 68.5381 91.6983 68.152 91.6983 67.706C91.6983 67.2601 91.7853 66.8794 91.9593 66.564C92.1388 66.2486 92.3862 66.0066 92.7016 65.838C93.017 65.6695 93.3868 65.5852 93.811 65.5852C94.0829 65.5852 94.3467 65.6287 94.6023 65.7157C94.8633 65.7972 95.0754 65.9169 95.2385 66.0746L94.9286 66.7843C94.7817 66.6483 94.6159 66.5477 94.431 66.4825C94.2515 66.4118 94.0748 66.3764 93.9007 66.3764C93.5364 66.3764 93.2509 66.4906 93.0442 66.719C92.843 66.9474 92.7424 67.2791 92.7424 67.7142C92.7424 68.1492 92.843 68.4837 93.0442 68.7175C93.2509 68.9514 93.5364 69.0683 93.9007 69.0683C94.0693 69.0683 94.2433 69.0357 94.4228 68.9704C94.6077 68.9052 94.7763 68.8045 94.9286 68.6686L95.2385 69.3701C95.0699 69.5278 94.8551 69.6502 94.5941 69.7372C94.3385 69.8242 94.0775 69.8677 93.811 69.8677ZM96.9971 69.7861V66.4661H95.5859V65.6667H99.4279V66.4661H98.0086V69.7861H96.9971ZM100.092 71.5481V66.6945C100.092 66.526 100.086 66.3547 100.075 66.1806C100.065 66.0066 100.048 65.8353 100.026 65.6667H101.013L101.103 66.5314H101.013C101.095 66.2432 101.266 66.0148 101.527 65.8462C101.794 65.6722 102.101 65.5852 102.449 65.5852C102.813 65.5852 103.132 65.6722 103.404 65.8462C103.675 66.0148 103.888 66.2595 104.04 66.5803C104.192 66.8958 104.268 67.2764 104.268 67.7224C104.268 68.1683 104.192 68.5517 104.04 68.8725C103.888 69.1934 103.675 69.4408 103.404 69.6148C103.132 69.7834 102.813 69.8677 102.449 69.8677C102.107 69.8677 101.805 69.7834 101.544 69.6148C101.283 69.4462 101.109 69.2206 101.022 68.9378H101.111V71.5481H100.092ZM102.164 69.0846C102.49 69.0846 102.751 68.9731 102.947 68.7502C103.142 68.5218 103.24 68.1792 103.24 67.7224C103.24 67.2656 103.142 66.9257 102.947 66.7027C102.751 66.4797 102.49 66.3683 102.164 66.3683C101.843 66.3683 101.584 66.4797 101.389 66.7027C101.193 66.9257 101.095 67.2656 101.095 67.7224C101.095 68.1792 101.193 68.5218 101.389 68.7502C101.584 68.9731 101.843 69.0846 102.164 69.0846ZM107.122 69.8677C106.697 69.8677 106.33 69.7807 106.02 69.6067C105.71 69.4327 105.468 69.1852 105.294 68.8644C105.126 68.5435 105.041 68.1628 105.041 67.7224C105.041 67.2819 105.126 66.9039 105.294 66.5885C105.468 66.2676 105.71 66.0202 106.02 65.8462C106.33 65.6722 106.697 65.5852 107.122 65.5852C107.546 65.5852 107.913 65.6722 108.223 65.8462C108.538 66.0202 108.78 66.2676 108.949 66.5885C109.123 66.9039 109.21 67.2819 109.21 67.7224C109.21 68.1628 109.123 68.5435 108.949 68.8644C108.78 69.1852 108.538 69.4327 108.223 69.6067C107.913 69.7807 107.546 69.8677 107.122 69.8677ZM107.122 69.0846C107.442 69.0846 107.698 68.9731 107.888 68.7502C108.079 68.5218 108.174 68.1792 108.174 67.7224C108.174 67.2656 108.079 66.9257 107.888 66.7027C107.698 66.4797 107.442 66.3683 107.122 66.3683C106.801 66.3683 106.545 66.4797 106.355 66.7027C106.164 66.9257 106.069 67.2656 106.069 67.7224C106.069 68.1792 106.164 68.5218 106.355 68.7502C106.545 68.9731 106.801 69.0846 107.122 69.0846ZM110.176 69.7861V65.6667H111.098V68.7828H110.853L113.194 65.6667H114.034V69.7861H113.113V66.6619H113.365L111.016 69.7861H110.176ZM112.101 65.2915C111.829 65.2915 111.59 65.248 111.383 65.161C111.177 65.0685 111.005 64.9407 110.869 64.7776C110.733 64.609 110.635 64.4105 110.576 64.1821L111.098 64.0027C111.19 64.2528 111.318 64.4377 111.481 64.5574C111.644 64.6716 111.854 64.7287 112.109 64.7287C112.365 64.7287 112.574 64.6716 112.737 64.5574C112.9 64.4432 113.034 64.261 113.137 64.0108L113.635 64.1821C113.52 64.5465 113.33 64.8238 113.064 65.0142C112.803 65.1991 112.482 65.2915 112.101 65.2915ZM115.195 69.7861V65.6667H116.206V67.2819H116.826L118.033 65.6667H119.126L117.609 67.7224L117.389 67.4042C117.541 67.4205 117.674 67.4613 117.789 67.5266C117.908 67.5918 118.02 67.6843 118.123 67.8039C118.232 67.9181 118.338 68.065 118.441 68.2444L119.306 69.7861H118.221L117.519 68.5462C117.449 68.4212 117.378 68.3233 117.307 68.2526C117.237 68.1819 117.158 68.1329 117.071 68.1057C116.984 68.0786 116.878 68.065 116.753 68.065H116.206V69.7861H115.195ZM119.847 69.7861V65.6667H120.768V68.7828H120.524L122.865 65.6667H123.705V69.7861H122.783V66.6619H123.036L120.687 69.7861H119.847ZM126.737 70.8466V69.0112H127.21C127.373 68.7556 127.49 68.4565 127.561 68.1139C127.637 67.7659 127.675 67.3417 127.675 66.8414V65.6667H130.848V69.0112H131.517V70.8466H130.652V69.7861H127.601V70.8466H126.737ZM128.123 69.0194H129.894V66.4335H128.539V67.0698C128.539 67.4341 128.504 67.7903 128.433 68.1384C128.363 68.4864 128.259 68.7801 128.123 69.0194ZM132.16 69.9003L131.842 69.1009C132.021 69.0357 132.171 68.9514 132.29 68.8481C132.415 68.7393 132.513 68.6033 132.584 68.4402C132.66 68.2716 132.714 68.065 132.747 67.8202C132.78 67.5701 132.796 67.2737 132.796 66.9311V65.6667H136.075V69.7861H135.064V66.4498H133.726V66.9637C133.726 67.5565 133.672 68.0541 133.563 68.4565C133.454 68.8535 133.285 69.1689 133.057 69.4027C132.829 69.6366 132.53 69.8024 132.16 69.9003ZM136.894 69.7861L137.522 68.7012C137.631 68.5163 137.764 68.3695 137.922 68.2607C138.085 68.1465 138.254 68.0894 138.428 68.0894H138.607L138.599 68.1792C138.115 68.1792 137.742 68.0731 137.481 67.861C137.22 67.6489 137.09 67.339 137.09 66.9311C137.09 66.5287 137.223 66.2187 137.489 66.0012C137.761 65.7782 138.158 65.6667 138.68 65.6667H140.728V69.7861H139.798V68.3341H139.333C139.164 68.3341 139.015 68.3804 138.884 68.4728C138.759 68.5653 138.653 68.6849 138.566 68.8317L138.028 69.7861H136.894ZM138.876 67.6734H139.798V66.3275H138.876C138.599 66.3275 138.389 66.3873 138.248 66.5069C138.112 66.6266 138.044 66.7897 138.044 66.9964C138.044 67.2139 138.112 67.3825 138.248 67.5021C138.389 67.6163 138.599 67.6734 138.876 67.6734ZM146.06 69.8677C145.413 69.8677 144.897 69.6719 144.511 69.2804C144.13 68.8888 143.94 68.3151 143.94 67.5592V66.8577C143.94 66.08 144.116 65.4546 144.47 64.9815C144.823 64.5084 145.356 64.1957 146.069 64.0434L147.578 63.7008L147.855 64.5003L146.158 64.8755C145.876 64.9353 145.642 65.0495 145.457 65.2181C145.272 65.3812 145.133 65.577 145.041 65.8054C144.948 66.0338 144.902 66.2785 144.902 66.5396V66.9719H144.763C144.823 66.7272 144.924 66.5151 145.065 66.3356C145.207 66.1507 145.386 66.0066 145.604 65.9033C145.821 65.8 146.069 65.7483 146.346 65.7483C146.694 65.7483 146.999 65.8299 147.26 65.993C147.526 66.1507 147.735 66.3819 147.888 66.6864C148.04 66.9855 148.116 67.3444 148.116 67.7631C148.116 68.1928 148.029 68.5653 147.855 68.8807C147.686 69.1961 147.447 69.4408 147.137 69.6148C146.833 69.7834 146.474 69.8677 146.06 69.8677ZM146.028 69.0928C146.365 69.0928 146.626 68.9867 146.811 68.7746C147.001 68.5571 147.096 68.2335 147.096 67.8039C147.096 67.3852 147.001 67.0671 146.811 66.8495C146.621 66.6266 146.36 66.5151 146.028 66.5151C145.696 66.5151 145.435 66.6238 145.245 66.8414C145.054 67.0589 144.959 67.3689 144.959 67.7713C144.959 68.2118 145.054 68.5435 145.245 68.7665C145.435 68.984 145.696 69.0928 146.028 69.0928ZM150.975 69.8677C150.55 69.8677 150.183 69.7807 149.873 69.6067C149.563 69.4327 149.321 69.1852 149.147 68.8644C148.979 68.5435 148.894 68.1628 148.894 67.7224C148.894 67.2819 148.979 66.9039 149.147 66.5885C149.321 66.2676 149.563 66.0202 149.873 65.8462C150.183 65.6722 150.55 65.5852 150.975 65.5852C151.399 65.5852 151.766 65.6722 152.076 65.8462C152.391 66.0202 152.633 66.2676 152.802 66.5885C152.976 66.9039 153.063 67.2819 153.063 67.7224C153.063 68.1628 152.976 68.5435 152.802 68.8644C152.633 69.1852 152.391 69.4327 152.076 69.6067C151.766 69.7807 151.399 69.8677 150.975 69.8677ZM150.975 69.0846C151.295 69.0846 151.551 68.9731 151.741 68.7502C151.932 68.5218 152.027 68.1792 152.027 67.7224C152.027 67.2656 151.932 66.9257 151.741 66.7027C151.551 66.4797 151.295 66.3683 150.975 66.3683C150.654 66.3683 150.398 66.4797 150.208 66.7027C150.017 66.9257 149.922 67.2656 149.922 67.7224C149.922 68.1792 150.017 68.5218 150.208 68.7502C150.398 68.9731 150.654 69.0846 150.975 69.0846ZM153.843 69.9003L153.525 69.1009C153.705 69.0357 153.854 68.9514 153.974 68.8481C154.099 68.7393 154.197 68.6033 154.267 68.4402C154.344 68.2716 154.398 68.065 154.431 67.8202C154.463 67.5701 154.48 67.2737 154.48 66.9311V65.6667H157.759V69.7861H156.747V66.4498H155.409V66.9637C155.409 67.5565 155.355 68.0541 155.246 68.4565C155.138 68.8535 154.969 69.1689 154.741 69.4027C154.512 69.6366 154.213 69.8024 153.843 69.9003ZM160.943 69.8677C160.252 69.8677 159.711 69.6774 159.32 69.2967C158.928 68.916 158.733 68.394 158.733 67.7305C158.733 67.3009 158.817 66.9257 158.985 66.6048C159.154 66.284 159.388 66.0338 159.687 65.8544C159.991 65.6749 160.345 65.5852 160.747 65.5852C161.144 65.5852 161.476 65.6695 161.743 65.838C162.009 66.0066 162.21 66.2432 162.346 66.5477C162.488 66.8523 162.558 67.2084 162.558 67.6163V67.8855H159.556V67.3471H161.832L161.694 67.4613C161.694 67.0807 161.612 66.7897 161.449 66.5885C161.291 66.3873 161.06 66.2867 160.756 66.2867C160.418 66.2867 160.157 66.4063 159.972 66.6456C159.793 66.8849 159.703 67.2193 159.703 67.6489V67.755C159.703 68.2009 159.812 68.5354 160.03 68.7583C160.252 68.9758 160.565 69.0846 160.968 69.0846C161.201 69.0846 161.419 69.0547 161.62 68.9949C161.827 68.9296 162.023 68.8263 162.207 68.6849L162.509 69.3701C162.314 69.5278 162.08 69.6502 161.808 69.7372C161.536 69.8242 161.248 69.8677 160.943 69.8677ZM165.524 69.8677C164.833 69.8677 164.292 69.6774 163.9 69.2967C163.509 68.916 163.313 68.394 163.313 67.7305C163.313 67.3009 163.397 66.9257 163.566 66.6048C163.734 66.284 163.968 66.0338 164.267 65.8544C164.572 65.6749 164.925 65.5852 165.328 65.5852C165.725 65.5852 166.057 65.6695 166.323 65.838C166.589 66.0066 166.791 66.2432 166.927 66.5477C167.068 66.8523 167.139 67.2084 167.139 67.6163V67.8855H164.137V67.3471H166.413L166.274 67.4613C166.274 67.0807 166.192 66.7897 166.029 66.5885C165.872 66.3873 165.641 66.2867 165.336 66.2867C164.999 66.2867 164.738 66.4063 164.553 66.6456C164.373 66.8849 164.284 67.2193 164.284 67.6489V67.755C164.284 68.2009 164.392 68.5354 164.61 68.7583C164.833 68.9758 165.146 69.0846 165.548 69.0846C165.782 69.0846 165.999 69.0547 166.201 68.9949C166.407 68.9296 166.603 68.8263 166.788 68.6849L167.09 69.3701C166.894 69.5278 166.66 69.6502 166.388 69.7372C166.116 69.8242 165.828 69.8677 165.524 69.8677ZM171.209 69.7861V66.4661H169.797V65.6667H173.64V66.4661H172.22V69.7861H171.209ZM176.123 69.8677C175.699 69.8677 175.332 69.7807 175.022 69.6067C174.712 69.4327 174.47 69.1852 174.296 68.8644C174.128 68.5435 174.043 68.1628 174.043 67.7224C174.043 67.2819 174.128 66.9039 174.296 66.5885C174.47 66.2676 174.712 66.0202 175.022 65.8462C175.332 65.6722 175.699 65.5852 176.123 65.5852C176.548 65.5852 176.915 65.6722 177.225 65.8462C177.54 66.0202 177.782 66.2676 177.951 66.5885C178.125 66.9039 178.212 67.2819 178.212 67.7224C178.212 68.1628 178.125 68.5435 177.951 68.8644C177.782 69.1852 177.54 69.4327 177.225 69.6067C176.915 69.7807 176.548 69.8677 176.123 69.8677ZM176.123 69.0846C176.444 69.0846 176.7 68.9731 176.89 68.7502C177.08 68.5218 177.176 68.1792 177.176 67.7224C177.176 67.2656 177.08 66.9257 176.89 66.7027C176.7 66.4797 176.444 66.3683 176.123 66.3683C175.802 66.3683 175.547 66.4797 175.357 66.7027C175.166 66.9257 175.071 67.2656 175.071 67.7224C175.071 68.1792 175.166 68.5218 175.357 68.7502C175.547 68.9731 175.802 69.0846 176.123 69.0846ZM181.796 69.7861V68.2852C181.644 68.3559 181.486 68.4103 181.323 68.4483C181.16 68.4864 180.989 68.5054 180.809 68.5054C180.206 68.5054 179.754 68.3613 179.455 68.0731C179.161 67.7849 179.015 67.3553 179.015 66.7843V65.6667H180.026V66.6945C180.026 67.0426 180.102 67.2955 180.255 67.4532C180.407 67.6054 180.652 67.6816 180.989 67.6816C181.146 67.6816 181.288 67.6653 181.413 67.6326C181.538 67.6 181.658 67.5483 181.772 67.4776V65.6667H182.783V69.7861H181.796ZM183.941 69.7861V65.6667H184.953V67.2819H186.813V65.6667H187.824V69.7861H186.813V68.065H184.953V69.7861H183.941ZM190.876 69.8677C190.452 69.8677 190.085 69.7807 189.775 69.6067C189.465 69.4327 189.223 69.1852 189.049 68.8644C188.881 68.5435 188.796 68.1628 188.796 67.7224C188.796 67.2819 188.881 66.9039 189.049 66.5885C189.223 66.2676 189.465 66.0202 189.775 65.8462C190.085 65.6722 190.452 65.5852 190.876 65.5852C191.301 65.5852 191.668 65.6722 191.978 65.8462C192.293 66.0202 192.535 66.2676 192.704 66.5885C192.878 66.9039 192.965 67.2819 192.965 67.7224C192.965 68.1628 192.878 68.5435 192.704 68.8644C192.535 69.1852 192.293 69.4327 191.978 69.6067C191.668 69.7807 191.301 69.8677 190.876 69.8677ZM190.876 69.0846C191.197 69.0846 191.453 68.9731 191.643 68.7502C191.834 68.5218 191.929 68.1792 191.929 67.7224C191.929 67.2656 191.834 66.9257 191.643 66.7027C191.453 66.4797 191.197 66.3683 190.876 66.3683C190.556 66.3683 190.3 66.4797 190.11 66.7027C189.919 66.9257 189.824 67.2656 189.824 67.7224C189.824 68.1792 189.919 68.5218 190.11 68.7502C190.3 68.9731 190.556 69.0846 190.876 69.0846ZM193.931 69.7861V65.6667H197.022V66.4661H194.951V69.7861H193.931ZM199.631 69.8677C199.207 69.8677 198.84 69.7807 198.53 69.6067C198.22 69.4327 197.978 69.1852 197.804 68.8644C197.635 68.5435 197.551 68.1628 197.551 67.7224C197.551 67.2819 197.635 66.9039 197.804 66.5885C197.978 66.2676 198.22 66.0202 198.53 65.8462C198.84 65.6722 199.207 65.5852 199.631 65.5852C200.055 65.5852 200.422 65.6722 200.732 65.8462C201.048 66.0202 201.29 66.2676 201.458 66.5885C201.632 66.9039 201.719 67.2819 201.719 67.7224C201.719 68.1628 201.632 68.5435 201.458 68.8644C201.29 69.1852 201.048 69.4327 200.732 69.6067C200.422 69.7807 200.055 69.8677 199.631 69.8677ZM199.631 69.0846C199.952 69.0846 200.208 68.9731 200.398 68.7502C200.588 68.5218 200.683 68.1792 200.683 67.7224C200.683 67.2656 200.588 66.9257 200.398 66.7027C200.208 66.4797 199.952 66.3683 199.631 66.3683C199.31 66.3683 199.055 66.4797 198.864 66.7027C198.674 66.9257 198.579 67.2656 198.579 67.7224C198.579 68.1792 198.674 68.5218 198.864 68.7502C199.055 68.9731 199.31 69.0846 199.631 69.0846ZM204.957 71.5481V66.6945C204.957 66.526 204.951 66.3547 204.94 66.1806C204.929 66.0066 204.913 65.8353 204.891 65.6667H205.878L205.968 66.5314H205.878C205.96 66.2432 206.131 66.0148 206.392 65.8462C206.659 65.6722 206.966 65.5852 207.314 65.5852C207.678 65.5852 207.997 65.6722 208.268 65.8462C208.54 66.0148 208.752 66.2595 208.905 66.5803C209.057 66.8958 209.133 67.2764 209.133 67.7224C209.133 68.1683 209.057 68.5517 208.905 68.8725C208.752 69.1934 208.54 69.4408 208.268 69.6148C207.997 69.7834 207.678 69.8677 207.314 69.8677C206.971 69.8677 206.67 69.7834 206.409 69.6148C206.148 69.4462 205.974 69.2206 205.887 68.9378H205.976V71.5481H204.957ZM207.029 69.0846C207.355 69.0846 207.616 68.9731 207.812 68.7502C208.007 68.5218 208.105 68.1792 208.105 67.7224C208.105 67.2656 208.007 66.9257 207.812 66.7027C207.616 66.4797 207.355 66.3683 207.029 66.3683C206.708 66.3683 206.449 66.4797 206.254 66.7027C206.058 66.9257 205.96 67.2656 205.96 67.7224C205.96 68.1792 206.058 68.5218 206.254 68.7502C206.449 68.9731 206.708 69.0846 207.029 69.0846ZM211.717 69.8677C211.358 69.8677 211.043 69.7834 210.771 69.6148C210.499 69.4408 210.287 69.1934 210.135 68.8725C209.982 68.5517 209.906 68.1683 209.906 67.7224C209.906 67.2764 209.982 66.8958 210.135 66.5803C210.287 66.2595 210.499 66.0148 210.771 65.8462C211.043 65.6722 211.358 65.5852 211.717 65.5852C212.065 65.5852 212.37 65.6722 212.631 65.8462C212.897 66.0148 213.074 66.2432 213.161 66.5314H213.071L213.161 65.6667H214.14C214.124 65.8353 214.107 66.0066 214.091 66.1806C214.08 66.3547 214.075 66.526 214.075 66.6945V69.7861H213.063L213.055 68.9378H213.153C213.066 69.2206 212.889 69.4462 212.623 69.6148C212.356 69.7834 212.054 69.8677 211.717 69.8677ZM212.003 69.0846C212.324 69.0846 212.582 68.9731 212.778 68.7502C212.973 68.5218 213.071 68.1792 213.071 67.7224C213.071 67.2656 212.973 66.9257 212.778 66.7027C212.582 66.4797 212.324 66.3683 212.003 66.3683C211.682 66.3683 211.424 66.4797 211.228 66.7027C211.032 66.9257 210.934 67.2656 210.934 67.7224C210.934 68.1792 211.029 68.5218 211.22 68.7502C211.415 68.9731 211.676 69.0846 212.003 69.0846ZM217.189 69.8677C216.765 69.8677 216.392 69.7807 216.072 69.6067C215.756 69.4327 215.511 69.1852 215.337 68.8644C215.163 68.5381 215.076 68.152 215.076 67.706C215.076 67.2601 215.163 66.8794 215.337 66.564C215.517 66.2486 215.764 66.0066 216.08 65.838C216.395 65.6695 216.765 65.5852 217.189 65.5852C217.461 65.5852 217.725 65.6287 217.98 65.7157C218.241 65.7972 218.453 65.9169 218.617 66.0746L218.307 66.7843C218.16 66.6483 217.994 66.5477 217.809 66.4825C217.63 66.4118 217.453 66.3764 217.279 66.3764C216.914 66.3764 216.629 66.4906 216.422 66.719C216.221 66.9474 216.12 67.2791 216.12 67.7142C216.12 68.1492 216.221 68.4837 216.422 68.7175C216.629 68.9514 216.914 69.0683 217.279 69.0683C217.447 69.0683 217.621 69.0357 217.801 68.9704C217.986 68.9052 218.154 68.8045 218.307 68.6686L218.617 69.3701C218.448 69.5278 218.233 69.6502 217.972 69.7372C217.717 69.8242 217.456 69.8677 217.189 69.8677ZM222.104 69.7861V68.2852C221.952 68.3559 221.794 68.4103 221.631 68.4483C221.468 68.4864 221.297 68.5054 221.117 68.5054C220.514 68.5054 220.062 68.3613 219.763 68.0731C219.47 67.7849 219.323 67.3553 219.323 66.7843V65.6667H220.334V66.6945C220.334 67.0426 220.41 67.2955 220.563 67.4532C220.715 67.6054 220.96 67.6816 221.297 67.6816C221.455 67.6816 221.596 67.6653 221.721 67.6326C221.846 67.6 221.966 67.5483 222.08 67.4776V65.6667H223.091V69.7861H222.104ZM226.273 69.8677C225.582 69.8677 225.041 69.6774 224.649 69.2967C224.258 68.916 224.062 68.394 224.062 67.7305C224.062 67.3009 224.146 66.9257 224.315 66.6048C224.483 66.284 224.717 66.0338 225.016 65.8544C225.321 65.6749 225.674 65.5852 226.077 65.5852C226.474 65.5852 226.806 65.6695 227.072 65.838C227.339 66.0066 227.54 66.2432 227.676 66.5477C227.817 66.8523 227.888 67.2084 227.888 67.6163V67.8855H224.886V67.3471H227.162L227.023 67.4613C227.023 67.0807 226.942 66.7897 226.778 66.5885C226.621 66.3873 226.39 66.2867 226.085 66.2867C225.748 66.2867 225.487 66.4063 225.302 66.6456C225.122 66.8849 225.033 67.2193 225.033 67.6489V67.755C225.033 68.2009 225.141 68.5354 225.359 68.7583C225.582 68.9758 225.895 69.0846 226.297 69.0846C226.531 69.0846 226.748 69.0547 226.95 68.9949C227.156 68.9296 227.352 68.8263 227.537 68.6849L227.839 69.3701C227.643 69.5278 227.409 69.6502 227.137 69.7372C226.865 69.8242 226.577 69.8677 226.273 69.8677ZM229.719 69.7861V66.4661H228.308V65.6667H232.15V66.4661H230.731V69.7861H229.719ZM234.405 69.8677C234.046 69.8677 233.73 69.7834 233.458 69.6148C233.186 69.4408 232.974 69.1934 232.822 68.8725C232.67 68.5517 232.594 68.1683 232.594 67.7224C232.594 67.2764 232.67 66.8958 232.822 66.5803C232.974 66.2595 233.186 66.0148 233.458 65.8462C233.73 65.6722 234.046 65.5852 234.405 65.5852C234.753 65.5852 235.057 65.6722 235.318 65.8462C235.585 66.0148 235.761 66.2432 235.848 66.5314H235.759L235.848 65.6667H236.827C236.811 65.8353 236.795 66.0066 236.778 66.1806C236.767 66.3547 236.762 66.526 236.762 66.6945V69.7861H235.75L235.742 68.9378H235.84C235.753 69.2206 235.576 69.4462 235.31 69.6148C235.044 69.7834 234.742 69.8677 234.405 69.8677ZM234.69 69.0846C235.011 69.0846 235.269 68.9731 235.465 68.7502C235.661 68.5218 235.759 68.1792 235.759 67.7224C235.759 67.2656 235.661 66.9257 235.465 66.7027C235.269 66.4797 235.011 66.3683 234.69 66.3683C234.369 66.3683 234.111 66.4797 233.915 66.7027C233.719 66.9257 233.621 67.2656 233.621 67.7224C233.621 68.1792 233.717 68.5218 233.907 68.7502C234.103 68.9731 234.364 69.0846 234.69 69.0846Z" fill="#1A1A1A"/>
<path d="M10.8763 78.7538H109.562C110.97 78.7538 112.111 79.8951 112.111 81.3029V97.4602C112.111 98.868 110.97 100.009 109.562 100.009H10.8763C9.46846 100.009 8.32717 98.868 8.32717 97.4602V81.3029C8.32717 79.8951 9.46845 78.7538 10.8763 78.7538Z" stroke="#E8E8E8" strokeWidth="0.339884"/>
<path d="M15.4705 89.2636C15.4705 88.8196 15.5505 88.4356 15.7105 88.1116C15.8745 87.7876 16.1085 87.5376 16.4125 87.3616C16.7165 87.1816 17.0785 87.0916 17.4985 87.0916C17.9145 87.0916 18.2745 87.1816 18.5785 87.3616C18.8825 87.5376 19.1165 87.7876 19.2805 88.1116C19.4485 88.4356 19.5325 88.8176 19.5325 89.2576C19.5325 89.7016 19.4485 90.0876 19.2805 90.4156C19.1165 90.7396 18.8825 90.9916 18.5785 91.1716C18.2745 91.3516 17.9145 91.4416 17.4985 91.4416C17.0785 91.4416 16.7165 91.3516 16.4125 91.1716C16.1125 90.9916 15.8805 90.7396 15.7165 90.4156C15.5525 90.0876 15.4705 89.7036 15.4705 89.2636ZM16.2805 89.2636C16.2805 89.7396 16.3825 90.1116 16.5865 90.3796C16.7905 90.6476 17.0945 90.7816 17.4985 90.7816C17.8905 90.7816 18.1925 90.6476 18.4045 90.3796C18.6165 90.1116 18.7225 89.7396 18.7225 89.2636C18.7225 88.7836 18.6165 88.4116 18.4045 88.1476C18.1965 87.8836 17.8945 87.7516 17.4985 87.7516C17.0945 87.7516 16.7905 87.8836 16.5865 88.1476C16.3825 88.4116 16.2805 88.7836 16.2805 89.2636ZM20.3132 92.6776V89.1076C20.3132 88.9836 20.3092 88.8576 20.3012 88.7296C20.2932 88.6016 20.2812 88.4756 20.2652 88.3516H20.9912L21.0572 88.9876H20.9912C21.0512 88.7756 21.1772 88.6076 21.3692 88.4836C21.5652 88.3556 21.7912 88.2916 22.0472 88.2916C22.3152 88.2916 22.5492 88.3556 22.7492 88.4836C22.9492 88.6076 23.1052 88.7876 23.2172 89.0236C23.3292 89.2556 23.3852 89.5356 23.3852 89.8636C23.3852 90.1916 23.3292 90.4736 23.2172 90.7096C23.1052 90.9456 22.9492 91.1276 22.7492 91.2556C22.5492 91.3796 22.3152 91.4416 22.0472 91.4416C21.7952 91.4416 21.5732 91.3796 21.3812 91.2556C21.1892 91.1316 21.0612 90.9656 20.9972 90.7576H21.0632V92.6776H20.3132ZM21.8372 90.8656C22.0772 90.8656 22.2692 90.7836 22.4132 90.6196C22.5572 90.4516 22.6292 90.1996 22.6292 89.8636C22.6292 89.5276 22.5572 89.2776 22.4132 89.1136C22.2692 88.9496 22.0772 88.8676 21.8372 88.8676C21.6012 88.8676 21.4112 88.9496 21.2672 89.1136C21.1232 89.2776 21.0512 89.5276 21.0512 89.8636C21.0512 90.1996 21.1232 90.4516 21.2672 90.6196C21.4112 90.7836 21.6012 90.8656 21.8372 90.8656ZM24.0919 91.3816V88.3516H26.3659V88.9396H24.8419V91.3816H24.0919ZM28.0867 91.4416C27.8227 91.4416 27.5907 91.3796 27.3907 91.2556C27.1907 91.1276 27.0347 90.9456 26.9227 90.7096C26.8107 90.4736 26.7547 90.1916 26.7547 89.8636C26.7547 89.5356 26.8107 89.2556 26.9227 89.0236C27.0347 88.7876 27.1907 88.6076 27.3907 88.4836C27.5907 88.3556 27.8227 88.2916 28.0867 88.2916C28.3427 88.2916 28.5667 88.3556 28.7587 88.4836C28.9547 88.6076 29.0847 88.7756 29.1487 88.9876H29.0827L29.1487 88.3516H29.8687C29.8567 88.4756 29.8447 88.6016 29.8327 88.7296C29.8247 88.8576 29.8207 88.9836 29.8207 89.1076V91.3816H29.0767L29.0707 90.7576H29.1427C29.0787 90.9656 28.9487 91.1316 28.7527 91.2556C28.5567 91.3796 28.3347 91.4416 28.0867 91.4416ZM28.2967 90.8656C28.5327 90.8656 28.7227 90.7836 28.8667 90.6196C29.0107 90.4516 29.0827 90.1996 29.0827 89.8636C29.0827 89.5276 29.0107 89.2776 28.8667 89.1136C28.7227 88.9496 28.5327 88.8676 28.2967 88.8676C28.0607 88.8676 27.8707 88.9496 27.7267 89.1136C27.5827 89.2776 27.5107 89.5276 27.5107 89.8636C27.5107 90.1996 27.5807 90.4516 27.7207 90.6196C27.8647 90.7836 28.0567 90.8656 28.2967 90.8656ZM30.6954 91.3816V88.3516H31.4394V89.5396H32.8074V88.3516H33.5514V91.3816H32.8074V90.1156H31.4394V91.3816H30.6954ZM34.4044 91.3816V88.3516H35.0824V90.6436H34.9024L36.6244 88.3516H37.2424V91.3816H36.5644V89.0836H36.7504L35.0224 91.3816H34.4044ZM39.2118 91.4416C38.9398 91.4416 38.6838 91.4096 38.4438 91.3456C38.2078 91.2816 38.0098 91.1896 37.8498 91.0696L38.0598 90.5776C38.2078 90.6856 38.3798 90.7676 38.5758 90.8236C38.7758 90.8796 38.9858 90.9076 39.2058 90.9076C39.4618 90.9076 39.6478 90.8736 39.7638 90.8056C39.8838 90.7336 39.9438 90.6296 39.9438 90.4936C39.9438 90.3656 39.8978 90.2696 39.8058 90.2056C39.7138 90.1376 39.5778 90.1036 39.3978 90.1036H38.6118V89.5876H39.3258C39.4898 89.5876 39.6158 89.5556 39.7038 89.4916C39.7918 89.4276 39.8358 89.3376 39.8358 89.2216C39.8358 89.0976 39.7818 88.9996 39.6738 88.9276C39.5698 88.8556 39.3978 88.8196 39.1578 88.8196C38.9498 88.8196 38.7598 88.8456 38.5878 88.8976C38.4158 88.9456 38.2538 89.0176 38.1018 89.1136L37.8978 88.6456C38.0618 88.5296 38.2598 88.4416 38.4918 88.3816C38.7278 88.3216 38.9838 88.2916 39.2598 88.2916C39.6638 88.2916 39.9738 88.3656 40.1898 88.5136C40.4058 88.6616 40.5138 88.8716 40.5138 89.1436C40.5138 89.3276 40.4498 89.4856 40.3218 89.6176C40.1978 89.7496 40.0298 89.8316 39.8178 89.8636V89.7796C40.0658 89.7956 40.2618 89.8696 40.4058 90.0016C40.5498 90.1336 40.6218 90.3116 40.6218 90.5356C40.6218 90.8116 40.4998 91.0316 40.2558 91.1956C40.0118 91.3596 39.6638 91.4416 39.2118 91.4416ZM42.4714 91.4416C42.2074 91.4416 41.9754 91.3796 41.7754 91.2556C41.5754 91.1276 41.4194 90.9456 41.3074 90.7096C41.1954 90.4736 41.1394 90.1916 41.1394 89.8636C41.1394 89.5356 41.1954 89.2556 41.3074 89.0236C41.4194 88.7876 41.5754 88.6076 41.7754 88.4836C41.9754 88.3556 42.2074 88.2916 42.4714 88.2916C42.7274 88.2916 42.9514 88.3556 43.1434 88.4836C43.3394 88.6076 43.4694 88.7756 43.5334 88.9876H43.4674L43.5334 88.3516H44.2534C44.2414 88.4756 44.2294 88.6016 44.2174 88.7296C44.2094 88.8576 44.2054 88.9836 44.2054 89.1076V91.3816H43.4614L43.4554 90.7576H43.5274C43.4634 90.9656 43.3334 91.1316 43.1374 91.2556C42.9414 91.3796 42.7194 91.4416 42.4714 91.4416ZM42.6814 90.8656C42.9174 90.8656 43.1074 90.7836 43.2514 90.6196C43.3954 90.4516 43.4674 90.1996 43.4674 89.8636C43.4674 89.5276 43.3954 89.2776 43.2514 89.1136C43.1074 88.9496 42.9174 88.8676 42.6814 88.8676C42.4454 88.8676 42.2554 88.9496 42.1114 89.1136C41.9674 89.2776 41.8954 89.5276 41.8954 89.8636C41.8954 90.1996 41.9654 90.4516 42.1054 90.6196C42.2494 90.7836 42.4414 90.8656 42.6814 90.8656ZM47.7082 92.1616V91.3816H45.0802V88.3516H45.8242V90.8056H47.1082V88.3516H47.8462V90.8056H48.3382V92.1616H47.7082ZM48.8888 91.3816V88.3516H49.5668V90.6436H49.3868L51.1088 88.3516H51.7268V91.3816H51.0488V89.0836H51.2348L49.5068 91.3816H48.8888ZM52.3282 91.3816L52.7902 90.5836C52.8702 90.4476 52.9682 90.3396 53.0842 90.2596C53.2042 90.1756 53.3282 90.1336 53.4562 90.1336H53.5882L53.5822 90.1996C53.2262 90.1996 52.9522 90.1216 52.7602 89.9656C52.5682 89.8096 52.4722 89.5816 52.4722 89.2816C52.4722 88.9856 52.5702 88.7576 52.7662 88.5976C52.9662 88.4336 53.2582 88.3516 53.6422 88.3516H55.1482V91.3816H54.4642V90.3136H54.1222C53.9982 90.3136 53.8882 90.3476 53.7922 90.4156C53.7002 90.4836 53.6222 90.5716 53.5582 90.6796L53.1622 91.3816H52.3282ZM53.7862 89.8276H54.4642V88.8376H53.7862C53.5822 88.8376 53.4282 88.8816 53.3242 88.9696C53.2242 89.0576 53.1742 89.1776 53.1742 89.3296C53.1742 89.4896 53.2242 89.6136 53.3242 89.7016C53.4282 89.7856 53.5822 89.8276 53.7862 89.8276ZM57.6485 91.3816V88.3516H60.4865V91.3816H59.7425V88.9276H58.3925V91.3816H57.6485ZM62.7319 91.4416C62.4199 91.4416 62.1499 91.3776 61.9219 91.2496C61.6939 91.1216 61.5159 90.9396 61.3879 90.7036C61.2639 90.4676 61.2019 90.1876 61.2019 89.8636C61.2019 89.5396 61.2639 89.2616 61.3879 89.0296C61.5159 88.7936 61.6939 88.6116 61.9219 88.4836C62.1499 88.3556 62.4199 88.2916 62.7319 88.2916C63.0439 88.2916 63.3139 88.3556 63.5419 88.4836C63.7739 88.6116 63.9519 88.7936 64.0759 89.0296C64.2039 89.2616 64.2679 89.5396 64.2679 89.8636C64.2679 90.1876 64.2039 90.4676 64.0759 90.7036C63.9519 90.9396 63.7739 91.1216 63.5419 91.2496C63.3139 91.3776 63.0439 91.4416 62.7319 91.4416ZM62.7319 90.8656C62.9679 90.8656 63.1559 90.7836 63.2959 90.6196C63.4359 90.4516 63.5059 90.1996 63.5059 89.8636C63.5059 89.5276 63.4359 89.2776 63.2959 89.1136C63.1559 88.9496 62.9679 88.8676 62.7319 88.8676C62.4959 88.8676 62.3079 88.9496 62.1679 89.1136C62.0279 89.2776 61.9579 89.5276 61.9579 89.8636C61.9579 90.1996 62.0279 90.4516 62.1679 90.6196C62.3079 90.7836 62.4959 90.8656 62.7319 90.8656ZM66.3946 91.4416C66.0826 91.4416 65.8086 91.3776 65.5726 91.2496C65.3406 91.1216 65.1606 90.9396 65.0326 90.7036C64.9046 90.4636 64.8406 90.1796 64.8406 89.8516C64.8406 89.5236 64.9046 89.2436 65.0326 89.0116C65.1646 88.7796 65.3466 88.6016 65.5786 88.4776C65.8106 88.3536 66.0826 88.2916 66.3946 88.2916C66.5946 88.2916 66.7886 88.3236 66.9766 88.3876C67.1686 88.4476 67.3246 88.5356 67.4446 88.6516L67.2166 89.1736C67.1086 89.0736 66.9866 88.9996 66.8506 88.9516C66.7186 88.8996 66.5886 88.8736 66.4606 88.8736C66.1926 88.8736 65.9826 88.9576 65.8306 89.1256C65.6826 89.2936 65.6086 89.5376 65.6086 89.8576C65.6086 90.1776 65.6826 90.4236 65.8306 90.5956C65.9826 90.7676 66.1926 90.8536 66.4606 90.8536C66.5846 90.8536 66.7126 90.8296 66.8446 90.7816C66.9806 90.7336 67.1046 90.6596 67.2166 90.5596L67.4446 91.0756C67.3206 91.1916 67.1626 91.2816 66.9706 91.3456C66.7826 91.4096 66.5906 91.4416 66.3946 91.4416ZM68.7381 91.3816V88.9396H67.7001V88.3516H70.5261V88.9396H69.4821V91.3816H68.7381ZM72.1843 91.4416C71.9203 91.4416 71.6883 91.3796 71.4883 91.2556C71.2883 91.1276 71.1323 90.9456 71.0203 90.7096C70.9083 90.4736 70.8523 90.1916 70.8523 89.8636C70.8523 89.5356 70.9083 89.2556 71.0203 89.0236C71.1323 88.7876 71.2883 88.6076 71.4883 88.4836C71.6883 88.3556 71.9203 88.2916 72.1843 88.2916C72.4403 88.2916 72.6643 88.3556 72.8563 88.4836C73.0523 88.6076 73.1823 88.7756 73.2463 88.9876H73.1803L73.2463 88.3516H73.9663C73.9543 88.4756 73.9423 88.6016 73.9303 88.7296C73.9223 88.8576 73.9183 88.9836 73.9183 89.1076V91.3816H73.1743L73.1683 90.7576H73.2403C73.1763 90.9656 73.0463 91.1316 72.8503 91.2556C72.6543 91.3796 72.4323 91.4416 72.1843 91.4416ZM72.3943 90.8656C72.6303 90.8656 72.8203 90.7836 72.9643 90.6196C73.1083 90.4516 73.1803 90.1996 73.1803 89.8636C73.1803 89.5276 73.1083 89.2776 72.9643 89.1136C72.8203 88.9496 72.6303 88.8676 72.3943 88.8676C72.1583 88.8676 71.9683 88.9496 71.8243 89.1136C71.6803 89.2776 71.6083 89.5276 71.6083 89.8636C71.6083 90.1996 71.6783 90.4516 71.8183 90.6196C71.9623 90.7836 72.1543 90.8656 72.3943 90.8656ZM74.7931 91.3816V88.3516H76.4071C76.7871 88.3516 77.0651 88.4216 77.2411 88.5616C77.4171 88.6976 77.5051 88.8916 77.5051 89.1436C77.5051 89.3356 77.4411 89.4956 77.3131 89.6236C77.1851 89.7516 77.0151 89.8316 76.8031 89.8636V89.7796C77.0631 89.7956 77.2631 89.8716 77.4031 90.0076C77.5431 90.1436 77.6131 90.3196 77.6131 90.5356C77.6131 90.7956 77.5131 91.0016 77.3131 91.1536C77.1131 91.3056 76.8291 91.3816 76.4611 91.3816H74.7931ZM75.4891 90.9196H76.3831C76.5591 90.9196 76.6931 90.8836 76.7851 90.8116C76.8811 90.7396 76.9291 90.6336 76.9291 90.4936C76.9291 90.3536 76.8811 90.2476 76.7851 90.1756C76.6931 90.1036 76.5591 90.0676 76.3831 90.0676H75.4891V90.9196ZM75.4891 89.6056H76.3171C76.4771 89.6056 76.6011 89.5716 76.6891 89.5036C76.7771 89.4316 76.8211 89.3316 76.8211 89.2036C76.8211 89.0756 76.7771 88.9776 76.6891 88.9096C76.6011 88.8416 76.4771 88.8076 76.3171 88.8076H75.4891V89.6056ZM78.2677 91.3816V88.3516H79.0117V89.5396H79.4677L80.3557 88.3516H81.1597L80.0437 89.8636L79.8817 89.6296C79.9937 89.6416 80.0917 89.6716 80.1757 89.7196C80.2637 89.7676 80.3457 89.8356 80.4217 89.9236C80.5017 90.0076 80.5797 90.1156 80.6557 90.2476L81.2917 91.3816H80.4937L79.9777 90.4696C79.9257 90.3776 79.8737 90.3056 79.8217 90.2536C79.7697 90.2016 79.7117 90.1656 79.6477 90.1456C79.5837 90.1256 79.5057 90.1156 79.4137 90.1156H79.0117V91.3816H78.2677ZM81.6895 91.3816V88.3516H82.3675V90.6436H82.1875L83.9095 88.3516H84.5275V91.3816H83.8495V89.0836H84.0355L82.3075 91.3816H81.6895Z" fill="#1A1A1A"/>
<path d="M101.405 88.3619L103.444 90.4012L105.483 88.3619" stroke="#1A1A1A" strokeWidth="0.679769" strokeLinecap="round"/>
<path d="M117.719 78.7538H176.281C177.689 78.7538 178.83 79.8951 178.83 81.3029V97.4602C178.83 98.868 177.689 100.009 176.281 100.009H117.719C116.311 100.009 115.17 98.868 115.17 97.4602V81.3029C115.17 79.8951 116.311 78.7538 117.719 78.7538Z" stroke="#E8E8E8" strokeWidth="0.339884"/>
<path d="M123.029 91.3816V87.1516H123.803V88.9156H125.969V87.1516H126.743V91.3816H125.969V89.5576H123.803V91.3816H123.029ZM128.828 91.4416C128.564 91.4416 128.332 91.3796 128.132 91.2556C127.932 91.1276 127.776 90.9456 127.664 90.7096C127.552 90.4736 127.496 90.1916 127.496 89.8636C127.496 89.5356 127.552 89.2556 127.664 89.0236C127.776 88.7876 127.932 88.6076 128.132 88.4836C128.332 88.3556 128.564 88.2916 128.828 88.2916C129.084 88.2916 129.308 88.3556 129.5 88.4836C129.696 88.6076 129.826 88.7756 129.89 88.9876H129.824L129.89 88.3516H130.61C130.598 88.4756 130.586 88.6016 130.574 88.7296C130.566 88.8576 130.562 88.9836 130.562 89.1076V91.3816H129.818L129.812 90.7576H129.884C129.82 90.9656 129.69 91.1316 129.494 91.2556C129.298 91.3796 129.076 91.4416 128.828 91.4416ZM129.038 90.8656C129.274 90.8656 129.464 90.7836 129.608 90.6196C129.752 90.4516 129.824 90.1996 129.824 89.8636C129.824 89.5276 129.752 89.2776 129.608 89.1136C129.464 88.9496 129.274 88.8676 129.038 88.8676C128.802 88.8676 128.612 88.9496 128.468 89.1136C128.324 89.2776 128.252 89.5276 128.252 89.8636C128.252 90.1996 128.322 90.4516 128.462 90.6196C128.606 90.7836 128.798 90.8656 129.038 90.8656ZM131.359 91.4656L131.125 90.8776C131.257 90.8296 131.367 90.7676 131.455 90.6916C131.547 90.6116 131.619 90.5116 131.671 90.3916C131.727 90.2676 131.767 90.1156 131.791 89.9356C131.815 89.7516 131.827 89.5336 131.827 89.2816V88.3516H134.239V91.3816H133.495V88.9276H132.511V89.3056C132.511 89.7416 132.471 90.1076 132.391 90.4036C132.311 90.6956 132.187 90.9276 132.019 91.0996C131.851 91.2716 131.631 91.3936 131.359 91.4656ZM136.485 91.4416C136.173 91.4416 135.903 91.3776 135.675 91.2496C135.447 91.1216 135.269 90.9396 135.141 90.7036C135.017 90.4676 134.955 90.1876 134.955 89.8636C134.955 89.5396 135.017 89.2616 135.141 89.0296C135.269 88.7936 135.447 88.6116 135.675 88.4836C135.903 88.3556 136.173 88.2916 136.485 88.2916C136.797 88.2916 137.067 88.3556 137.295 88.4836C137.527 88.6116 137.705 88.7936 137.829 89.0296C137.957 89.2616 138.021 89.5396 138.021 89.8636C138.021 90.1876 137.957 90.4676 137.829 90.7036C137.705 90.9396 137.527 91.1216 137.295 91.2496C137.067 91.3776 136.797 91.4416 136.485 91.4416ZM136.485 90.8656C136.721 90.8656 136.909 90.7836 137.049 90.6196C137.189 90.4516 137.259 90.1996 137.259 89.8636C137.259 89.5276 137.189 89.2776 137.049 89.1136C136.909 88.9496 136.721 88.8676 136.485 88.8676C136.249 88.8676 136.061 88.9496 135.921 89.1136C135.781 89.2776 135.711 89.5276 135.711 89.8636C135.711 90.1996 135.781 90.4516 135.921 90.6196C136.061 90.7836 136.249 90.8656 136.485 90.8656ZM138.732 91.3816V88.3516H141.006V88.9396H139.482V91.3816H138.732ZM141.532 91.3816V88.3516H142.21V90.6436H142.03L143.752 88.3516H144.37V91.3816H143.692V89.0836H143.878L142.15 91.3816H141.532Z" fill="#1A1A1A"/>
<path d="M168.124 88.3619L170.163 90.4012L172.202 88.3619" stroke="#1A1A1A" strokeWidth="0.679769" strokeLinecap="round"/>
<path d="M184.438 78.7538H283.124C284.532 78.7538 285.673 79.8951 285.673 81.3029V97.4602C285.673 98.868 284.532 100.009 283.124 100.009H184.438C183.03 100.009 181.889 98.868 181.889 97.4602V81.3029C181.889 79.8951 183.03 78.7538 184.438 78.7538Z" stroke="#E8E8E8" strokeWidth="0.339884"/>
<path d="M189.094 91.3816V87.1516H192.796V91.3816H192.028V87.7816H189.856V91.3816H189.094ZM193.711 92.6776V89.1076C193.711 88.9836 193.707 88.8576 193.699 88.7296C193.691 88.6016 193.679 88.4756 193.663 88.3516H194.389L194.455 88.9876H194.389C194.449 88.7756 194.575 88.6076 194.767 88.4836C194.963 88.3556 195.189 88.2916 195.445 88.2916C195.713 88.2916 195.947 88.3556 196.147 88.4836C196.347 88.6076 196.503 88.7876 196.615 89.0236C196.727 89.2556 196.783 89.5356 196.783 89.8636C196.783 90.1916 196.727 90.4736 196.615 90.7096C196.503 90.9456 196.347 91.1276 196.147 91.2556C195.947 91.3796 195.713 91.4416 195.445 91.4416C195.193 91.4416 194.971 91.3796 194.779 91.2556C194.587 91.1316 194.459 90.9656 194.395 90.7576H194.461V92.6776H193.711ZM195.235 90.8656C195.475 90.8656 195.667 90.7836 195.811 90.6196C195.955 90.4516 196.027 90.1996 196.027 89.8636C196.027 89.5276 195.955 89.2776 195.811 89.1136C195.667 88.9496 195.475 88.8676 195.235 88.8676C194.999 88.8676 194.809 88.9496 194.665 89.1136C194.521 89.2776 194.449 89.5276 194.449 89.8636C194.449 90.1996 194.521 90.4516 194.665 90.6196C194.809 90.7836 194.999 90.8656 195.235 90.8656ZM198.882 91.4416C198.57 91.4416 198.3 91.3776 198.072 91.2496C197.844 91.1216 197.666 90.9396 197.538 90.7036C197.414 90.4676 197.352 90.1876 197.352 89.8636C197.352 89.5396 197.414 89.2616 197.538 89.0296C197.666 88.7936 197.844 88.6116 198.072 88.4836C198.3 88.3556 198.57 88.2916 198.882 88.2916C199.194 88.2916 199.464 88.3556 199.692 88.4836C199.924 88.6116 200.102 88.7936 200.226 89.0296C200.354 89.2616 200.418 89.5396 200.418 89.8636C200.418 90.1876 200.354 90.4676 200.226 90.7036C200.102 90.9396 199.924 91.1216 199.692 91.2496C199.464 91.3776 199.194 91.4416 198.882 91.4416ZM198.882 90.8656C199.118 90.8656 199.306 90.7836 199.446 90.6196C199.586 90.4516 199.656 90.1996 199.656 89.8636C199.656 89.5276 199.586 89.2776 199.446 89.1136C199.306 88.9496 199.118 88.8676 198.882 88.8676C198.646 88.8676 198.458 88.9496 198.318 89.1136C198.178 89.2776 198.108 89.5276 198.108 89.8636C198.108 90.1996 198.178 90.4516 198.318 90.6196C198.458 90.7836 198.646 90.8656 198.882 90.8656ZM203.054 91.3816V90.2776C202.942 90.3296 202.826 90.3696 202.706 90.3976C202.586 90.4256 202.46 90.4396 202.328 90.4396C201.884 90.4396 201.552 90.3336 201.332 90.1216C201.116 89.9096 201.008 89.5936 201.008 89.1736V88.3516H201.752V89.1076C201.752 89.3636 201.808 89.5496 201.92 89.6656C202.032 89.7776 202.212 89.8336 202.46 89.8336C202.576 89.8336 202.68 89.8216 202.772 89.7976C202.864 89.7736 202.952 89.7356 203.036 89.6836V88.3516H203.78V91.3816H203.054ZM204.632 91.3816V88.3516H205.31V90.6436H205.13L206.852 88.3516H207.47V91.3816H206.792V89.0836H206.978L205.25 91.3816H204.632ZM209.812 91.4416C209.304 91.4416 208.906 91.3016 208.618 91.0216C208.33 90.7416 208.186 90.3576 208.186 89.8696C208.186 89.5536 208.248 89.2776 208.372 89.0416C208.496 88.8056 208.668 88.6216 208.888 88.4896C209.112 88.3576 209.372 88.2916 209.668 88.2916C209.96 88.2916 210.204 88.3536 210.4 88.4776C210.596 88.6016 210.744 88.7756 210.844 88.9996C210.948 89.2236 211 89.4856 211 89.7856V89.9836H208.792V89.5876H210.466L210.364 89.6716C210.364 89.3916 210.304 89.1776 210.184 89.0296C210.068 88.8816 209.898 88.8076 209.674 88.8076C209.426 88.8076 209.234 88.8956 209.098 89.0716C208.966 89.2476 208.9 89.4936 208.9 89.8096V89.8876C208.9 90.2156 208.98 90.4616 209.14 90.6256C209.304 90.7856 209.534 90.8656 209.83 90.8656C210.002 90.8656 210.162 90.8436 210.31 90.7996C210.462 90.7516 210.606 90.6756 210.742 90.5716L210.964 91.0756C210.82 91.1916 210.648 91.2816 210.448 91.3456C210.248 91.4096 210.036 91.4416 209.812 91.4416ZM213.363 92.6776V89.1076C213.363 88.9836 213.359 88.8576 213.351 88.7296C213.343 88.6016 213.331 88.4756 213.315 88.3516H214.041L214.107 88.9876H214.041C214.101 88.7756 214.227 88.6076 214.419 88.4836C214.615 88.3556 214.841 88.2916 215.097 88.2916C215.365 88.2916 215.599 88.3556 215.799 88.4836C215.999 88.6076 216.155 88.7876 216.267 89.0236C216.379 89.2556 216.435 89.5356 216.435 89.8636C216.435 90.1916 216.379 90.4736 216.267 90.7096C216.155 90.9456 215.999 91.1276 215.799 91.2556C215.599 91.3796 215.365 91.4416 215.097 91.4416C214.845 91.4416 214.623 91.3796 214.431 91.2556C214.239 91.1316 214.111 90.9656 214.047 90.7576H214.113V92.6776H213.363ZM214.887 90.8656C215.127 90.8656 215.319 90.7836 215.463 90.6196C215.607 90.4516 215.679 90.1996 215.679 89.8636C215.679 89.5276 215.607 89.2776 215.463 89.1136C215.319 88.9496 215.127 88.8676 214.887 88.8676C214.651 88.8676 214.461 88.9496 214.317 89.1136C214.173 89.2776 214.101 89.5276 214.101 89.8636C214.101 90.1996 214.173 90.4516 214.317 90.6196C214.461 90.7836 214.651 90.8656 214.887 90.8656ZM218.336 91.4416C218.072 91.4416 217.84 91.3796 217.64 91.2556C217.44 91.1276 217.284 90.9456 217.172 90.7096C217.06 90.4736 217.004 90.1916 217.004 89.8636C217.004 89.5356 217.06 89.2556 217.172 89.0236C217.284 88.7876 217.44 88.6076 217.64 88.4836C217.84 88.3556 218.072 88.2916 218.336 88.2916C218.592 88.2916 218.816 88.3556 219.008 88.4836C219.204 88.6076 219.334 88.7756 219.398 88.9876H219.332L219.398 88.3516H220.118C220.106 88.4756 220.094 88.6016 220.082 88.7296C220.074 88.8576 220.07 88.9836 220.07 89.1076V91.3816H219.326L219.32 90.7576H219.392C219.328 90.9656 219.198 91.1316 219.002 91.2556C218.806 91.3796 218.584 91.4416 218.336 91.4416ZM218.546 90.8656C218.782 90.8656 218.972 90.7836 219.116 90.6196C219.26 90.4516 219.332 90.1996 219.332 89.8636C219.332 89.5276 219.26 89.2776 219.116 89.1136C218.972 88.9496 218.782 88.8676 218.546 88.8676C218.31 88.8676 218.12 88.9496 217.976 89.1136C217.832 89.2776 217.76 89.5276 217.76 89.8636C217.76 90.1996 217.83 90.4516 217.97 90.6196C218.114 90.7836 218.306 90.8656 218.546 90.8656ZM222.361 91.4416C222.049 91.4416 221.775 91.3776 221.539 91.2496C221.307 91.1216 221.127 90.9396 220.999 90.7036C220.871 90.4636 220.807 90.1796 220.807 89.8516C220.807 89.5236 220.871 89.2436 220.999 89.0116C221.131 88.7796 221.313 88.6016 221.545 88.4776C221.777 88.3536 222.049 88.2916 222.361 88.2916C222.561 88.2916 222.755 88.3236 222.943 88.3876C223.135 88.4476 223.291 88.5356 223.411 88.6516L223.183 89.1736C223.075 89.0736 222.953 88.9996 222.817 88.9516C222.685 88.8996 222.555 88.8736 222.427 88.8736C222.159 88.8736 221.949 88.9576 221.797 89.1256C221.649 89.2936 221.575 89.5376 221.575 89.8576C221.575 90.1776 221.649 90.4236 221.797 90.5956C221.949 90.7676 222.159 90.8536 222.427 90.8536C222.551 90.8536 222.679 90.8296 222.811 90.7816C222.947 90.7336 223.071 90.6596 223.183 90.5596L223.411 91.0756C223.287 91.1916 223.129 91.2816 222.937 91.3456C222.749 91.4096 222.557 91.4416 222.361 91.4416ZM223.606 91.3816L225.016 89.6476V89.9896L223.684 88.3516H224.572L225.442 89.4736H225.172L226.042 88.3516H226.924L225.604 89.9896V89.6476L227.008 91.3816H226.114L225.172 90.1756H225.442L224.494 91.3816H223.606ZM228.765 91.4416C228.453 91.4416 228.183 91.3776 227.955 91.2496C227.727 91.1216 227.549 90.9396 227.421 90.7036C227.297 90.4676 227.235 90.1876 227.235 89.8636C227.235 89.5396 227.297 89.2616 227.421 89.0296C227.549 88.7936 227.727 88.6116 227.955 88.4836C228.183 88.3556 228.453 88.2916 228.765 88.2916C229.077 88.2916 229.347 88.3556 229.575 88.4836C229.807 88.6116 229.985 88.7936 230.109 89.0296C230.237 89.2616 230.301 89.5396 230.301 89.8636C230.301 90.1876 230.237 90.4676 230.109 90.7036C229.985 90.9396 229.807 91.1216 229.575 91.2496C229.347 91.3776 229.077 91.4416 228.765 91.4416ZM228.765 90.8656C229.001 90.8656 229.189 90.7836 229.329 90.6196C229.469 90.4516 229.539 90.1996 229.539 89.8636C229.539 89.5276 229.469 89.2776 229.329 89.1136C229.189 88.9496 229.001 88.8676 228.765 88.8676C228.529 88.8676 228.341 88.9496 228.201 89.1136C228.061 89.2776 227.991 89.5276 227.991 89.8636C227.991 90.1996 228.061 90.4516 228.201 90.6196C228.341 90.7836 228.529 90.8656 228.765 90.8656ZM230.741 92.1616V90.8116H231.089C231.209 90.6236 231.295 90.4036 231.347 90.1516C231.403 89.8956 231.431 89.5836 231.431 89.2156V88.3516H233.765V90.8116H234.257V92.1616H233.621V91.3816H231.377V92.1616H230.741ZM231.761 90.8176H233.063V88.9156H232.067V89.3836C232.067 89.6516 232.041 89.9136 231.989 90.1696C231.937 90.4256 231.861 90.6416 231.761 90.8176ZM234.808 91.3816V88.3516H235.552V89.3656H236.35C236.754 89.3656 237.058 89.4516 237.262 89.6236C237.466 89.7916 237.568 90.0356 237.568 90.3556C237.568 90.5636 237.52 90.7456 237.424 90.9016C237.328 91.0536 237.188 91.1716 237.004 91.2556C236.824 91.3396 236.606 91.3816 236.35 91.3816H234.808ZM235.552 90.8896H236.248C236.452 90.8896 236.608 90.8476 236.716 90.7636C236.824 90.6756 236.878 90.5436 236.878 90.3676C236.878 90.1916 236.824 90.0636 236.716 89.9836C236.612 89.8996 236.456 89.8576 236.248 89.8576H235.552V90.8896ZM237.946 91.3816V88.3516H238.69V91.3816H237.946ZM241.189 91.3816V88.3516H241.933V89.5396H243.301V88.3516H244.045V91.3816H243.301V90.1156H241.933V91.3816H241.189ZM246.092 91.4416C245.828 91.4416 245.596 91.3796 245.396 91.2556C245.196 91.1276 245.04 90.9456 244.928 90.7096C244.816 90.4736 244.76 90.1916 244.76 89.8636C244.76 89.5356 244.816 89.2556 244.928 89.0236C245.04 88.7876 245.196 88.6076 245.396 88.4836C245.596 88.3556 245.828 88.2916 246.092 88.2916C246.348 88.2916 246.572 88.3556 246.764 88.4836C246.96 88.6076 247.09 88.7756 247.154 88.9876H247.088L247.154 88.3516H247.874C247.862 88.4756 247.85 88.6016 247.838 88.7296C247.83 88.8576 247.826 88.9836 247.826 89.1076V91.3816H247.082L247.076 90.7576H247.148C247.084 90.9656 246.954 91.1316 246.758 91.2556C246.562 91.3796 246.34 91.4416 246.092 91.4416ZM246.302 90.8656C246.538 90.8656 246.728 90.7836 246.872 90.6196C247.016 90.4516 247.088 90.1996 247.088 89.8636C247.088 89.5276 247.016 89.2776 246.872 89.1136C246.728 88.9496 246.538 88.8676 246.302 88.8676C246.066 88.8676 245.876 88.9496 245.732 89.1136C245.588 89.2776 245.516 89.5276 245.516 89.8636C245.516 90.1996 245.586 90.4516 245.726 90.6196C245.87 90.7836 246.062 90.8656 246.302 90.8656ZM251.001 91.3816V88.9396H249.963V88.3516H252.789V88.9396H251.745V91.3816H251.001ZM254.616 91.4416C254.304 91.4416 254.034 91.3776 253.806 91.2496C253.578 91.1216 253.4 90.9396 253.272 90.7036C253.148 90.4676 253.086 90.1876 253.086 89.8636C253.086 89.5396 253.148 89.2616 253.272 89.0296C253.4 88.7936 253.578 88.6116 253.806 88.4836C254.034 88.3556 254.304 88.2916 254.616 88.2916C254.928 88.2916 255.198 88.3556 255.426 88.4836C255.658 88.6116 255.836 88.7936 255.96 89.0296C256.088 89.2616 256.152 89.5396 256.152 89.8636C256.152 90.1876 256.088 90.4676 255.96 90.7036C255.836 90.9396 255.658 91.1216 255.426 91.2496C255.198 91.3776 254.928 91.4416 254.616 91.4416ZM254.616 90.8656C254.852 90.8656 255.04 90.7836 255.18 90.6196C255.32 90.4516 255.39 90.1996 255.39 89.8636C255.39 89.5276 255.32 89.2776 255.18 89.1136C255.04 88.9496 254.852 88.8676 254.616 88.8676C254.38 88.8676 254.192 88.9496 254.052 89.1136C253.912 89.2776 253.842 89.5276 253.842 89.8636C253.842 90.1996 253.912 90.4516 254.052 90.6196C254.192 90.7836 254.38 90.8656 254.616 90.8656ZM256.863 91.3816V88.3516H258.477C258.857 88.3516 259.135 88.4216 259.311 88.5616C259.487 88.6976 259.575 88.8916 259.575 89.1436C259.575 89.3356 259.511 89.4956 259.383 89.6236C259.255 89.7516 259.085 89.8316 258.873 89.8636V89.7796C259.133 89.7956 259.333 89.8716 259.473 90.0076C259.613 90.1436 259.683 90.3196 259.683 90.5356C259.683 90.7956 259.583 91.0016 259.383 91.1536C259.183 91.3056 258.899 91.3816 258.531 91.3816H256.863ZM257.559 90.9196H258.453C258.629 90.9196 258.763 90.8836 258.855 90.8116C258.951 90.7396 258.999 90.6336 258.999 90.4936C258.999 90.3536 258.951 90.2476 258.855 90.1756C258.763 90.1036 258.629 90.0676 258.453 90.0676H257.559V90.9196ZM257.559 89.6056H258.387C258.547 89.6056 258.671 89.5716 258.759 89.5036C258.847 89.4316 258.891 89.3316 258.891 89.2036C258.891 89.0756 258.847 88.9776 258.759 88.9096C258.671 88.8416 258.547 88.8076 258.387 88.8076H257.559V89.6056ZM261.531 91.4416C261.267 91.4416 261.035 91.3796 260.835 91.2556C260.635 91.1276 260.479 90.9456 260.367 90.7096C260.255 90.4736 260.199 90.1916 260.199 89.8636C260.199 89.5356 260.255 89.2556 260.367 89.0236C260.479 88.7876 260.635 88.6076 260.835 88.4836C261.035 88.3556 261.267 88.2916 261.531 88.2916C261.787 88.2916 262.011 88.3556 262.203 88.4836C262.399 88.6076 262.529 88.7756 262.593 88.9876H262.527L262.593 88.3516H263.313C263.301 88.4756 263.289 88.6016 263.277 88.7296C263.269 88.8576 263.265 88.9836 263.265 89.1076V91.3816H262.521L262.515 90.7576H262.587C262.523 90.9656 262.393 91.1316 262.197 91.2556C262.001 91.3796 261.779 91.4416 261.531 91.4416ZM261.741 90.8656C261.977 90.8656 262.167 90.7836 262.311 90.6196C262.455 90.4516 262.527 90.1996 262.527 89.8636C262.527 89.5276 262.455 89.2776 262.311 89.1136C262.167 88.9496 261.977 88.8676 261.741 88.8676C261.505 88.8676 261.315 88.9496 261.171 89.1136C261.027 89.2776 260.955 89.5276 260.955 89.8636C260.955 90.1996 261.025 90.4516 261.165 90.6196C261.309 90.7836 261.501 90.8656 261.741 90.8656ZM264.164 92.6776V89.1076C264.164 88.9836 264.16 88.8576 264.152 88.7296C264.144 88.6016 264.132 88.4756 264.116 88.3516H264.842L264.908 88.9876H264.842C264.902 88.7756 265.028 88.6076 265.22 88.4836C265.416 88.3556 265.642 88.2916 265.898 88.2916C266.166 88.2916 266.4 88.3556 266.6 88.4836C266.8 88.6076 266.956 88.7876 267.068 89.0236C267.18 89.2556 267.236 89.5356 267.236 89.8636C267.236 90.1916 267.18 90.4736 267.068 90.7096C266.956 90.9456 266.8 91.1276 266.6 91.2556C266.4 91.3796 266.166 91.4416 265.898 91.4416C265.646 91.4416 265.424 91.3796 265.232 91.2556C265.04 91.1316 264.912 90.9656 264.848 90.7576H264.914V92.6776H264.164ZM265.688 90.8656C265.928 90.8656 266.12 90.7836 266.264 90.6196C266.408 90.4516 266.48 90.1996 266.48 89.8636C266.48 89.5276 266.408 89.2776 266.264 89.1136C266.12 88.9496 265.928 88.8676 265.688 88.8676C265.452 88.8676 265.262 88.9496 265.118 89.1136C264.974 89.2776 264.902 89.5276 264.902 89.8636C264.902 90.1996 264.974 90.4516 265.118 90.6196C265.262 90.7836 265.452 90.8656 265.688 90.8656Z" fill="#1A1A1A"/>
<path d="M274.967 88.3619L277.006 90.4012L279.045 88.3619" stroke="#1A1A1A" strokeWidth="0.679769" strokeLinecap="round"/>
</g>
<defs>
<clipPath id="clip0_277_455">
<rect width="277.686" height="10.8763" fill="white" transform="translate(8.15723 8.15723)"/>
</clipPath>
<clipPath id="clip1_277_455">
<rect width="277.686" height="10.8763" fill="white" transform="translate(8.15723 26.0336)"/>
</clipPath>
<clipPath id="clip2_277_455">
<rect width="277.686" height="10.8763" fill="white" transform="translate(8.15723 43.9098)"/>
</clipPath>
<clipPath id="clip3_277_455">
<rect width="277.686" height="38.3931" fill="white" transform="translate(8.15723 61.7861)"/>
</clipPath>
</defs>
</svg>
