<svg width="175" height="108" viewBox="0 0 175 108" fill="none" xmlns="http://www.w3.org/2000/svg">
<rect width="174.514" height="108.007" rx="5" fill="white"/>
<path d="M8.60997 14.9986C8.0158 14.9986 7.50536 14.8798 7.07863 14.6421C6.65731 14.3991 6.33322 14.0588 6.10636 13.6212C5.87949 13.1783 5.76606 12.6571 5.76606 12.0575C5.76606 11.4579 5.87949 10.9394 6.10636 10.5018C6.33322 10.0643 6.65731 9.72673 7.07863 9.48906C7.50536 9.24599 8.0158 9.12446 8.60997 9.12446C9.00968 9.12446 9.36888 9.18117 9.68758 9.29461C10.0117 9.40804 10.2898 9.57548 10.5221 9.79695L10.1818 10.6234C9.92794 10.4181 9.68217 10.2723 9.44451 10.1859C9.21224 10.094 8.94486 10.0481 8.64238 10.0481C8.06441 10.0481 7.62149 10.2237 7.3136 10.5748C7.01111 10.9205 6.85987 11.4147 6.85987 12.0575C6.85987 12.7003 7.01111 13.1972 7.3136 13.5483C7.62149 13.8994 8.06441 14.075 8.64238 14.075C8.94486 14.075 9.21224 14.0318 9.44451 13.9453C9.68217 13.8535 9.92794 13.7023 10.1818 13.4916L10.5221 14.318C10.2898 14.5341 10.0117 14.7015 9.68758 14.8204C9.36888 14.9392 9.00968 14.9986 8.60997 14.9986ZM12.3254 14.9176V11.62H10.9237V10.8259H14.7399V11.62H13.3301V14.9176H12.3254ZM15.3993 16.6677V11.8468C15.3993 11.6794 15.3939 11.5092 15.3831 11.3364C15.3722 11.1635 15.356 10.9934 15.3344 10.8259H16.3148L16.4039 11.6848H16.3148C16.3958 11.3985 16.566 11.1716 16.8253 11.0042C17.0899 10.8313 17.3951 10.7449 17.7408 10.7449C18.1027 10.7449 18.4187 10.8313 18.6888 11.0042C18.9589 11.1716 19.1695 11.4147 19.3208 11.7334C19.472 12.0467 19.5476 12.4248 19.5476 12.8677C19.5476 13.3106 19.472 13.6915 19.3208 14.0101C19.1695 14.3288 18.9589 14.5746 18.6888 14.7475C18.4187 14.9149 18.1027 14.9986 17.7408 14.9986C17.4005 14.9986 17.1007 14.9149 16.8415 14.7475C16.5822 14.58 16.4093 14.3558 16.3229 14.075H16.412V16.6677H15.3993ZM17.4572 14.2208C17.7813 14.2208 18.0406 14.1101 18.2351 13.8886C18.4295 13.6617 18.5267 13.3214 18.5267 12.8677C18.5267 12.414 18.4295 12.0764 18.2351 11.8549C18.0406 11.6335 17.7813 11.5227 17.4572 11.5227C17.1385 11.5227 16.882 11.6335 16.6875 11.8549C16.4931 12.0764 16.3958 12.414 16.3958 12.8677C16.3958 13.3214 16.4931 13.6617 16.6875 13.8886C16.882 14.1101 17.1385 14.2208 17.4572 14.2208ZM20.3901 16.7568L20.1551 15.9547C20.409 15.9007 20.6223 15.8386 20.7952 15.7683C20.968 15.6981 21.1112 15.6063 21.2246 15.4929C21.3381 15.3794 21.4326 15.2336 21.5082 15.0553L21.7108 14.5773L21.6865 14.9743L19.9039 10.8259H20.9816L22.2617 14.0182H22.0267L23.315 10.8259H24.3359L22.4724 15.1445C22.3481 15.4361 22.2131 15.6765 22.0673 15.8656C21.9214 16.06 21.7648 16.214 21.5973 16.3274C21.4299 16.4462 21.2462 16.5381 21.0464 16.6029C20.8465 16.6677 20.6278 16.719 20.3901 16.7568ZM24.9488 14.9176V10.8259H25.9535V12.4302H26.5692L27.7684 10.8259H28.8541L27.347 12.8677L27.1283 12.5517C27.2795 12.5679 27.4119 12.6084 27.5253 12.6733C27.6441 12.7381 27.7549 12.8299 27.8575 12.9487C27.9655 13.0622 28.0709 13.208 28.1735 13.3863L29.0323 14.9176H27.9547L27.2579 13.6861C27.1877 13.5618 27.1175 13.4646 27.0473 13.3944C26.977 13.3241 26.8987 13.2755 26.8123 13.2485C26.7259 13.2215 26.6205 13.208 26.4963 13.208H25.9535V14.9176H24.9488ZM30.4528 14.9176V11.62H29.0511V10.8259H32.8672V11.62H31.4574V14.9176H30.4528ZM33.4851 16.7568L33.2501 15.9547C33.504 15.9007 33.7174 15.8386 33.8902 15.7683C34.0631 15.6981 34.2062 15.6063 34.3196 15.4929C34.4331 15.3794 34.5276 15.2336 34.6032 15.0553L34.8058 14.5773L34.7815 14.9743L32.999 10.8259H34.0766L35.3567 14.0182H35.1218L36.41 10.8259H37.4309L35.5674 15.1445C35.4432 15.4361 35.3081 15.6765 35.1623 15.8656C35.0164 16.06 34.8598 16.214 34.6924 16.3274C34.5249 16.4462 34.3413 16.5381 34.1414 16.6029C33.9415 16.6677 33.7228 16.719 33.4851 16.7568ZM38.0762 16.6677V11.8468C38.0762 11.6794 38.0708 11.5092 38.06 11.3364C38.0492 11.1635 38.033 10.9934 38.0114 10.8259H38.9918L39.0809 11.6848H38.9918C39.0728 11.3985 39.2429 11.1716 39.5022 11.0042C39.7669 10.8313 40.0721 10.7449 40.4178 10.7449C40.7797 10.7449 41.0957 10.8313 41.3657 11.0042C41.6358 11.1716 41.8465 11.4147 41.9977 11.7334C42.149 12.0467 42.2246 12.4248 42.2246 12.8677C42.2246 13.3106 42.149 13.6915 41.9977 14.0101C41.8465 14.3288 41.6358 14.5746 41.3657 14.7475C41.0957 14.9149 40.7797 14.9986 40.4178 14.9986C40.0775 14.9986 39.7777 14.9149 39.5184 14.7475C39.2591 14.58 39.0863 14.3558 38.9999 14.075H39.089V16.6677H38.0762ZM40.1342 14.2208C40.4583 14.2208 40.7176 14.1101 40.912 13.8886C41.1065 13.6617 41.2037 13.3214 41.2037 12.8677C41.2037 12.414 41.1065 12.0764 40.912 11.8549C40.7176 11.6335 40.4583 11.5227 40.1342 11.5227C39.8155 11.5227 39.5589 11.6335 39.3645 11.8549C39.17 12.0764 39.0728 12.414 39.0728 12.8677C39.0728 13.3214 39.17 13.6617 39.3645 13.8886C39.5589 14.1101 39.8155 14.2208 40.1342 14.2208ZM44.7913 14.9986C44.4348 14.9986 44.1215 14.9149 43.8514 14.7475C43.5814 14.5746 43.3707 14.3288 43.2195 14.0101C43.0682 13.6915 42.9926 13.3106 42.9926 12.8677C42.9926 12.4248 43.0682 12.0467 43.2195 11.7334C43.3707 11.4147 43.5814 11.1716 43.8514 11.0042C44.1215 10.8313 44.4348 10.7449 44.7913 10.7449C45.137 10.7449 45.4395 10.8313 45.6988 11.0042C45.9634 11.1716 46.139 11.3985 46.2254 11.6848H46.1363L46.2254 10.8259H47.1977C47.1815 10.9934 47.1653 11.1635 47.1491 11.3364C47.1383 11.5092 47.1329 11.6794 47.1329 11.8468V14.9176H46.1282L46.1201 14.075H46.2173C46.1309 14.3558 45.9553 14.58 45.6907 14.7475C45.426 14.9149 45.1262 14.9986 44.7913 14.9986ZM45.0749 14.2208C45.3936 14.2208 45.6501 14.1101 45.8446 13.8886C46.0391 13.6617 46.1363 13.3214 46.1363 12.8677C46.1363 12.414 46.0391 12.0764 45.8446 11.8549C45.6501 11.6335 45.3936 11.5227 45.0749 11.5227C44.7562 11.5227 44.4996 11.6335 44.3052 11.8549C44.1107 12.0764 44.0135 12.414 44.0135 12.8677C44.0135 13.3214 44.108 13.6617 44.2971 13.8886C44.4915 14.1101 44.7508 14.2208 45.0749 14.2208ZM52.0445 14.9986C51.6772 14.9986 51.3315 14.9554 51.0074 14.869C50.6887 14.7826 50.4213 14.6583 50.2053 14.4963L50.4889 13.8319C50.6887 13.9777 50.921 14.0885 51.1857 14.1641C51.4557 14.2397 51.7393 14.2775 52.0364 14.2775C52.3821 14.2775 52.6333 14.2316 52.7899 14.1398C52.952 14.0426 53.033 13.9021 53.033 13.7185C53.033 13.5456 52.9709 13.416 52.8466 13.3296C52.7224 13.2377 52.5388 13.1918 52.2957 13.1918H51.2343V12.495H52.1985C52.4199 12.495 52.5901 12.4518 52.7089 12.3654C52.8277 12.279 52.8872 12.1574 52.8872 12.0008C52.8872 11.8333 52.8142 11.701 52.6684 11.6038C52.5279 11.5065 52.2957 11.4579 51.9716 11.4579C51.6907 11.4579 51.4341 11.493 51.2019 11.5632C50.9696 11.6281 50.7508 11.7253 50.5456 11.8549L50.2701 11.223C50.4916 11.0663 50.7589 10.9475 51.0722 10.8665C51.3909 10.7854 51.7366 10.7449 52.1093 10.7449C52.6549 10.7449 53.0735 10.8448 53.3652 11.0447C53.6569 11.2446 53.8027 11.5281 53.8027 11.8954C53.8027 12.1439 53.7163 12.3573 53.5434 12.5355C53.376 12.7138 53.1491 12.8245 52.8628 12.8677V12.7543C53.1977 12.7759 53.4624 12.8758 53.6569 13.0541C53.8513 13.2323 53.9486 13.4727 53.9486 13.7752C53.9486 14.1479 53.7838 14.445 53.4543 14.6664C53.1248 14.8879 52.6549 14.9986 52.0445 14.9986ZM56.4463 14.9986C56.0898 14.9986 55.7765 14.9149 55.5064 14.7475C55.2363 14.5746 55.0257 14.3288 54.8744 14.0101C54.7232 13.6915 54.6476 13.3106 54.6476 12.8677C54.6476 12.4248 54.7232 12.0467 54.8744 11.7334C55.0257 11.4147 55.2363 11.1716 55.5064 11.0042C55.7765 10.8313 56.0898 10.7449 56.4463 10.7449C56.792 10.7449 57.0945 10.8313 57.3537 11.0042C57.6184 11.1716 57.794 11.3985 57.8804 11.6848H57.7913L57.8804 10.8259H58.8527C58.8365 10.9934 58.8202 11.1635 58.804 11.3364C58.7932 11.5092 58.7878 11.6794 58.7878 11.8468V14.9176H57.7832L57.7751 14.075H57.8723C57.7859 14.3558 57.6103 14.58 57.3456 14.7475C57.081 14.9149 56.7812 14.9986 56.4463 14.9986ZM56.7299 14.2208C57.0485 14.2208 57.3051 14.1101 57.4996 13.8886C57.694 13.6617 57.7913 13.3214 57.7913 12.8677C57.7913 12.414 57.694 12.0764 57.4996 11.8549C57.3051 11.6335 57.0485 11.5227 56.7299 11.5227C56.4112 11.5227 56.1546 11.6335 55.9601 11.8549C55.7657 12.0764 55.6685 12.414 55.6685 12.8677C55.6685 13.3214 55.763 13.6617 55.952 13.8886C56.1465 14.1101 56.4058 14.2208 56.7299 14.2208ZM59.9691 14.9176V10.8259H60.9738V12.4302H61.5895L62.7887 10.8259H63.8744L62.3673 12.8677L62.1486 12.5517C62.2998 12.5679 62.4322 12.6084 62.5456 12.6733C62.6644 12.7381 62.7752 12.8299 62.8778 12.9487C62.9858 13.0622 63.0912 13.208 63.1938 13.3863L64.0526 14.9176H62.975L62.2782 13.6861C62.208 13.5618 62.1378 13.4646 62.0676 13.3944C61.9973 13.3241 61.919 13.2755 61.8326 13.2485C61.7462 13.2215 61.6408 13.208 61.5166 13.208H60.9738V14.9176H59.9691ZM66.2023 14.9986C65.8458 14.9986 65.5325 14.9149 65.2624 14.7475C64.9923 14.5746 64.7817 14.3288 64.6304 14.0101C64.4792 13.6915 64.4036 13.3106 64.4036 12.8677C64.4036 12.4248 64.4792 12.0467 64.6304 11.7334C64.7817 11.4147 64.9923 11.1716 65.2624 11.0042C65.5325 10.8313 65.8458 10.7449 66.2023 10.7449C66.548 10.7449 66.8505 10.8313 67.1097 11.0042C67.3744 11.1716 67.55 11.3985 67.6364 11.6848H67.5473L67.6364 10.8259H68.6087C68.5924 10.9934 68.5762 11.1635 68.56 11.3364C68.5492 11.5092 68.5438 11.6794 68.5438 11.8468V14.9176H67.5391L67.531 14.075H67.6283C67.5419 14.3558 67.3663 14.58 67.1016 14.7475C66.837 14.9149 66.5372 14.9986 66.2023 14.9986ZM66.4859 14.2208C66.8045 14.2208 67.0611 14.1101 67.2556 13.8886C67.45 13.6617 67.5473 13.3214 67.5473 12.8677C67.5473 12.414 67.45 12.0764 67.2556 11.8549C67.0611 11.6335 66.8045 11.5227 66.4859 11.5227C66.1672 11.5227 65.9106 11.6335 65.7161 11.8549C65.5217 12.0764 65.4244 12.414 65.4244 12.8677C65.4244 13.3214 65.519 13.6617 65.708 13.8886C65.9025 14.1101 66.1618 14.2208 66.4859 14.2208ZM71.2321 14.9986C70.8648 14.9986 70.5191 14.9554 70.195 14.869C69.8763 14.7826 69.6089 14.6583 69.3929 14.4963L69.6764 13.8319C69.8763 13.9777 70.1086 14.0885 70.3732 14.1641C70.6433 14.2397 70.9269 14.2775 71.224 14.2775C71.5697 14.2775 71.8209 14.2316 71.9775 14.1398C72.1395 14.0426 72.2206 13.9021 72.2206 13.7185C72.2206 13.5456 72.1585 13.416 72.0342 13.3296C71.91 13.2377 71.7263 13.1918 71.4833 13.1918H70.4219V12.495H71.386C71.6075 12.495 71.7776 12.4518 71.8965 12.3654C72.0153 12.279 72.0747 12.1574 72.0747 12.0008C72.0747 11.8333 72.0018 11.701 71.856 11.6038C71.7155 11.5065 71.4833 11.4579 71.1592 11.4579C70.8783 11.4579 70.6217 11.493 70.3894 11.5632C70.1572 11.6281 69.9384 11.7253 69.7332 11.8549L69.4577 11.223C69.6791 11.0663 69.9465 10.9475 70.2598 10.8665C70.5785 10.7854 70.9242 10.7449 71.2969 10.7449C71.8425 10.7449 72.2611 10.8448 72.5528 11.0447C72.8444 11.2446 72.9903 11.5281 72.9903 11.8954C72.9903 12.1439 72.9039 12.3573 72.731 12.5355C72.5636 12.7138 72.3367 12.8245 72.0504 12.8677V12.7543C72.3853 12.7759 72.65 12.8758 72.8444 13.0541C73.0389 13.2323 73.1361 13.4727 73.1361 13.7752C73.1361 14.1479 72.9714 14.445 72.6419 14.6664C72.3124 14.8879 71.8425 14.9986 71.2321 14.9986ZM75.9012 14.9986C75.4799 14.9986 75.1153 14.9122 74.8074 14.7394C74.4995 14.5665 74.2592 14.3207 74.0863 14.002C73.9189 13.6834 73.8351 13.3052 73.8351 12.8677C73.8351 12.4302 73.9189 12.0548 74.0863 11.7415C74.2592 11.4228 74.4995 11.177 74.8074 11.0042C75.1153 10.8313 75.4799 10.7449 75.9012 10.7449C76.3225 10.7449 76.6871 10.8313 76.995 11.0042C77.3083 11.177 77.5487 11.4228 77.7161 11.7415C77.889 12.0548 77.9754 12.4302 77.9754 12.8677C77.9754 13.3052 77.889 13.6834 77.7161 14.002C77.5487 14.3207 77.3083 14.5665 76.995 14.7394C76.6871 14.9122 76.3225 14.9986 75.9012 14.9986ZM75.9012 14.2208C76.2199 14.2208 76.4738 14.1101 76.6628 13.8886C76.8519 13.6617 76.9464 13.3214 76.9464 12.8677C76.9464 12.414 76.8519 12.0764 76.6628 11.8549C76.4738 11.6335 76.2199 11.5227 75.9012 11.5227C75.5825 11.5227 75.3287 11.6335 75.1396 11.8549C74.9506 12.0764 74.856 12.414 74.856 12.8677C74.856 13.3214 74.9506 13.6617 75.1396 13.8886C75.3287 14.1101 75.5825 14.2208 75.9012 14.2208ZM78.9351 14.9176V10.8259H81.1146C81.6278 10.8259 82.0032 10.9205 82.2408 11.1095C82.4785 11.2932 82.5973 11.5551 82.5973 11.8954C82.5973 12.1547 82.5109 12.3708 82.3381 12.5436C82.1652 12.7165 81.9356 12.8245 81.6494 12.8677V12.7543C82.0005 12.7759 82.2705 12.8785 82.4596 13.0622C82.6487 13.2458 82.7432 13.4835 82.7432 13.7752C82.7432 14.1263 82.6081 14.4045 82.3381 14.6097C82.068 14.815 81.6845 14.9176 81.1875 14.9176H78.9351ZM79.875 14.2937H81.0822C81.3199 14.2937 81.5008 14.2451 81.6251 14.1479C81.7547 14.0507 81.8195 13.9075 81.8195 13.7185C81.8195 13.5294 81.7547 13.3863 81.6251 13.289C81.5008 13.1918 81.3199 13.1432 81.0822 13.1432H79.875V14.2937ZM79.875 12.5193H80.9931C81.2091 12.5193 81.3766 12.4734 81.4954 12.3816C81.6143 12.2844 81.6737 12.1493 81.6737 11.9765C81.6737 11.8036 81.6143 11.6713 81.4954 11.5795C81.3766 11.4876 81.2091 11.4417 80.9931 11.4417H79.875V12.5193ZM87.3576 14.9986C86.9903 14.9986 86.6446 14.9554 86.3205 14.869C86.0018 14.7826 85.7344 14.6583 85.5183 14.4963L85.8019 13.8319C86.0018 13.9777 86.234 14.0885 86.4987 14.1641C86.7688 14.2397 87.0524 14.2775 87.3495 14.2775C87.6952 14.2775 87.9463 14.2316 88.103 14.1398C88.265 14.0426 88.346 13.9021 88.346 13.7185C88.346 13.5456 88.2839 13.416 88.1597 13.3296C88.0355 13.2377 87.8518 13.1918 87.6087 13.1918H86.5473V12.495H87.5115C87.733 12.495 87.9031 12.4518 88.022 12.3654C88.1408 12.279 88.2002 12.1574 88.2002 12.0008C88.2002 11.8333 88.1273 11.701 87.9814 11.6038C87.841 11.5065 87.6087 11.4579 87.2846 11.4579C87.0038 11.4579 86.7472 11.493 86.5149 11.5632C86.2827 11.6281 86.0639 11.7253 85.8586 11.8549L85.5832 11.223C85.8046 11.0663 86.072 10.9475 86.3853 10.8665C86.704 10.7854 87.0497 10.7449 87.4224 10.7449C87.9679 10.7449 88.3866 10.8448 88.6782 11.0447C88.9699 11.2446 89.1158 11.5281 89.1158 11.8954C89.1158 12.1439 89.0293 12.3573 88.8565 12.5355C88.689 12.7138 88.4622 12.8245 88.1759 12.8677V12.7543C88.5108 12.7759 88.7755 12.8758 88.9699 13.0541C89.1644 13.2323 89.2616 13.4727 89.2616 13.7752C89.2616 14.1479 89.0969 14.445 88.7674 14.6664C88.4379 14.8879 87.9679 14.9986 87.3576 14.9986ZM91.7593 14.9986C91.4028 14.9986 91.0895 14.9149 90.8195 14.7475C90.5494 14.5746 90.3387 14.3288 90.1875 14.0101C90.0362 13.6915 89.9606 13.3106 89.9606 12.8677C89.9606 12.4248 90.0362 12.0467 90.1875 11.7334C90.3387 11.4147 90.5494 11.1716 90.8195 11.0042C91.0895 10.8313 91.4028 10.7449 91.7593 10.7449C92.105 10.7449 92.4075 10.8313 92.6668 11.0042C92.9315 11.1716 93.107 11.3985 93.1934 11.6848H93.1043L93.1934 10.8259H94.1657C94.1495 10.9934 94.1333 11.1635 94.1171 11.3364C94.1063 11.5092 94.1009 11.6794 94.1009 11.8468V14.9176H93.0962L93.0881 14.075H93.1853C93.0989 14.3558 92.9234 14.58 92.6587 14.7475C92.394 14.9149 92.0942 14.9986 91.7593 14.9986ZM92.0429 14.2208C92.3616 14.2208 92.6182 14.1101 92.8126 13.8886C93.0071 13.6617 93.1043 13.3214 93.1043 12.8677C93.1043 12.414 93.0071 12.0764 92.8126 11.8549C92.6182 11.6335 92.3616 11.5227 92.0429 11.5227C91.7242 11.5227 91.4676 11.6335 91.2732 11.8549C91.0787 12.0764 90.9815 12.414 90.9815 12.8677C90.9815 13.3214 91.076 13.6617 91.2651 13.8886C91.4595 14.1101 91.7188 14.2208 92.0429 14.2208ZM99.2718 14.9986C98.8775 14.9986 98.4994 14.9419 98.1375 14.8285C97.7756 14.7096 97.4785 14.5476 97.2462 14.3423L97.5865 13.5564C97.8404 13.7509 98.1024 13.894 98.3725 13.9858C98.6479 14.0777 98.9369 14.1236 99.2394 14.1236C99.6067 14.1236 99.8849 14.0507 100.074 13.9048C100.263 13.759 100.358 13.5456 100.358 13.2647C100.358 12.9947 100.263 12.7921 100.074 12.6571C99.8903 12.5166 99.6202 12.4464 99.2637 12.4464H98.34V11.6119H99.1746C99.4825 11.6119 99.7282 11.5362 99.9119 11.385C100.096 11.2338 100.187 11.0258 100.187 10.7611C100.187 10.5127 100.101 10.3236 99.9281 10.194C99.7606 10.0643 99.5176 9.99951 99.1989 9.99951C98.6263 9.99951 98.1213 10.194 97.6838 10.5829L97.3435 9.80505C97.5757 9.58899 97.862 9.42154 98.2023 9.30271C98.548 9.18387 98.9099 9.12446 99.288 9.12446C99.8822 9.12446 100.347 9.2595 100.682 9.52957C101.022 9.79425 101.192 10.1643 101.192 10.6396C101.192 10.9799 101.095 11.2743 100.9 11.5227C100.711 11.7658 100.449 11.9279 100.114 12.0089V11.9116C100.509 11.9765 100.814 12.1385 101.03 12.3978C101.251 12.6517 101.362 12.9703 101.362 13.3539C101.362 13.8616 101.176 14.264 100.803 14.5611C100.43 14.8528 99.92 14.9986 99.2718 14.9986ZM104.219 14.9986C103.549 14.9986 103.034 14.7448 102.672 14.237C102.31 13.7239 102.129 12.9947 102.129 12.0494C102.129 11.0933 102.31 10.3668 102.672 9.86987C103.034 9.37293 103.549 9.12446 104.219 9.12446C104.894 9.12446 105.41 9.37293 105.767 9.86987C106.129 10.3668 106.31 11.0906 106.31 12.0413C106.31 12.992 106.129 13.7239 105.767 14.237C105.41 14.7448 104.894 14.9986 104.219 14.9986ZM104.219 14.1398C104.586 14.1398 104.859 13.9723 105.037 13.6374C105.216 13.2971 105.305 12.7651 105.305 12.0413C105.305 11.3175 105.216 10.7935 105.037 10.4694C104.859 10.1399 104.586 9.9752 104.219 9.9752C103.857 9.9752 103.584 10.1399 103.401 10.4694C103.223 10.7935 103.133 11.3175 103.133 12.0413C103.133 12.7651 103.223 13.2971 103.401 13.6374C103.584 13.9723 103.857 14.1398 104.219 14.1398ZM109.081 15.9709V14.1479H109.551C109.713 13.894 109.829 13.5969 109.899 13.2566C109.975 12.9109 110.012 12.4896 110.012 11.9927V10.8259H113.164V14.1479H113.829V15.9709H112.97V14.9176H109.94V15.9709H109.081ZM110.458 14.156H112.216V11.5876H110.871V12.2195C110.871 12.5814 110.836 12.9352 110.766 13.2809C110.696 13.6266 110.593 13.9183 110.458 14.156ZM114.573 14.9176V10.8259H115.577V12.4302H117.425V10.8259H118.429V14.9176H117.425V13.208H115.577V14.9176H114.573ZM121.59 14.9986C120.904 14.9986 120.367 14.8096 119.978 14.4315C119.589 14.0534 119.395 13.5348 119.395 12.8758C119.395 12.4491 119.478 12.0764 119.646 11.7577C119.813 11.439 120.046 11.1905 120.343 11.0123C120.645 10.834 120.996 10.7449 121.396 10.7449C121.79 10.7449 122.12 10.8286 122.385 10.9961C122.649 11.1635 122.849 11.3985 122.984 11.701C123.125 12.0035 123.195 12.3573 123.195 12.7624V13.0298H120.213V12.495H122.474L122.336 12.6084C122.336 12.2303 122.255 11.9414 122.093 11.7415C121.936 11.5416 121.707 11.4417 121.404 11.4417C121.069 11.4417 120.81 11.5605 120.626 11.7982C120.448 12.0359 120.359 12.3681 120.359 12.7948V12.9001C120.359 13.3431 120.467 13.6752 120.683 13.8967C120.904 14.1128 121.215 14.2208 121.615 14.2208C121.847 14.2208 122.063 14.1911 122.263 14.1317C122.468 14.0669 122.663 13.9642 122.846 13.8238L123.146 14.5044C122.952 14.661 122.719 14.7826 122.449 14.869C122.179 14.9554 121.893 14.9986 121.59 14.9986ZM124.131 14.9176V10.8259H125.046V13.921H124.803L127.129 10.8259H127.963V14.9176H127.048V11.8144H127.299L124.965 14.9176H124.131ZM126.043 10.4532C125.773 10.4532 125.535 10.41 125.33 10.3236C125.125 10.2318 124.954 10.1048 124.819 9.94279C124.684 9.77534 124.587 9.57819 124.528 9.35132L125.046 9.17307C125.138 9.42154 125.265 9.60519 125.427 9.72403C125.589 9.83746 125.797 9.89418 126.051 9.89418C126.305 9.89418 126.513 9.83746 126.675 9.72403C126.837 9.61059 126.969 9.42964 127.072 9.18117L127.566 9.35132C127.453 9.71322 127.264 9.9887 126.999 10.1778C126.74 10.3614 126.421 10.4532 126.043 10.4532Z" fill="#1A1A1A"/>
<path d="M32.2955 96.4825C31.9469 97.4619 30.8683 97.9774 29.9066 97.5827C24.1237 95.2094 18.9753 91.4978 14.8905 86.7427C10.8057 81.9875 7.91299 76.3383 6.43884 70.2636C6.19368 69.2533 6.86599 68.2649 7.88671 68.0679L10.1523 67.6309C11.1731 67.4339 12.1549 68.1035 12.4087 69.1116C13.6771 74.1492 16.1002 78.8326 19.4964 82.7861C22.8926 86.7397 27.157 89.8412 31.9457 91.8548C32.904 92.2578 33.4178 93.3294 33.0692 94.3087L32.2955 96.4825Z" fill="#9A81FF"/>
<path d="M7.68194 66.9098C6.65557 67.0748 5.68507 66.3768 5.56895 65.3438C5.03173 60.5644 5.36833 55.7217 6.56779 51.0535C7.76725 46.3852 9.80679 41.98 12.5814 38.0516C13.1811 37.2025 14.3679 37.0588 15.1875 37.6981L17.0069 39.1173C17.8266 39.7566 17.9681 40.9366 17.3757 41.7908C15.1103 45.0574 13.4404 48.7047 12.4487 52.5645C11.457 56.4243 11.1618 60.4249 11.5719 64.3788C11.6791 65.4128 10.9864 66.3784 9.96008 66.5435L7.68194 66.9098Z" fill="#4AD991"/>
<path d="M15.9455 36.7578C15.1467 36.0926 15.0352 34.9023 15.7376 34.136C19.29 30.2603 23.5783 27.1299 28.3523 24.9276C29.2962 24.4922 30.3958 24.9611 30.786 25.9247L31.652 28.0634C32.0422 29.0269 31.5746 30.1195 30.6345 30.5631C26.7836 32.3798 23.3134 34.913 20.4094 38.027C19.7005 38.7873 18.5174 38.8997 17.7186 38.2344L15.9455 36.7578Z" fill="#FEC53D"/>
<path d="M31.763 24.9073C31.519 24.2413 31.8606 23.5014 32.5341 23.2791V23.2791C33.2077 23.0568 33.9225 23.4481 34.1229 24.1285L35.1679 27.6779C35.3376 28.2541 35.0074 28.857 34.437 29.0452V29.0452C33.8666 29.2334 33.2424 28.9455 33.0358 28.3815L31.763 24.9073Z" fill="#FE773D"/>
<path d="M35.0986 23.8552C34.9163 23.1697 35.3238 22.4641 36.0148 22.3041V22.3041C36.7058 22.1441 37.382 22.5988 37.5195 23.2946L38.2369 26.9244C38.3534 27.5137 37.9696 28.084 37.3844 28.2195V28.2195C36.7993 28.355 36.2039 28.0114 36.0495 27.4309L35.0986 23.8552Z" fill="#EB90F6"/>
<path d="M38.4535 23.122C38.3333 22.423 38.8023 21.7566 39.5049 21.6591V21.6591C40.2074 21.5616 40.8402 22.075 40.9149 22.7803L41.3047 26.4598C41.368 27.0571 40.9348 27.5908 40.3398 27.6734V27.6734C39.7449 27.7559 39.1826 27.3605 39.0808 26.7685L38.4535 23.122Z" fill="#1DBEA8"/>
<path d="M41.8431 22.6934C41.7855 21.9864 42.312 21.3645 43.0204 21.3298V21.3298C43.7289 21.2952 44.3135 21.8629 44.3251 22.5721L44.3859 26.2716C44.3958 26.8722 43.9167 27.3652 43.3168 27.3945V27.3945C42.7169 27.4238 42.1921 26.9799 42.1433 26.3812L41.8431 22.6934Z" fill="#1C4EF1"/>
<path d="M79.3674 76.4402C80.3149 76.8677 80.7406 77.9848 80.2687 78.911C76.139 87.016 69.3348 93.473 60.9802 97.1664C52.6255 100.86 43.2705 101.546 34.4965 99.1459C33.4938 98.8716 32.954 97.8049 33.2756 96.8163L33.9895 94.6221C34.3111 93.6336 35.3723 93.0984 36.3773 93.3641C43.7263 95.3071 51.5388 94.7015 58.5251 91.6129C65.5115 88.5244 71.2175 83.1538 74.7265 76.4108C75.2064 75.4886 76.3165 75.0639 77.2641 75.4914L79.3674 76.4402Z" fill="#FF9972"/>
<path d="M45.2246 23.1649C45.2246 22.1253 46.0678 21.278 47.1062 21.327C53.0239 21.6063 58.8136 23.2004 64.051 26.0029C69.8423 29.1018 74.7792 33.5824 78.4234 39.0471C82.0676 44.5118 84.3065 50.7916 84.9414 57.3291C85.5155 63.2414 84.7618 69.1991 82.7452 74.7696C82.3913 75.747 81.2849 76.1998 80.3252 75.8002L78.157 74.8975C77.1973 74.4979 76.7485 73.3975 77.094 72.417C78.7288 67.7781 79.3336 62.8306 78.8568 57.92C78.3191 52.384 76.4232 47.0663 73.3373 42.4388C70.2514 37.8113 66.0709 34.0172 61.1668 31.393C56.8168 29.0653 52.0168 27.7221 47.1059 27.4482C46.068 27.3904 45.2246 26.5531 45.2246 25.5136L45.2246 23.1649Z" fill="#81ACFF"/>
<circle cx="91.5138" cy="25.7824" r="2.12808" fill="#81ACFF"/>
<path d="M98.002 28.2824V27.4064H96.046V26.9624L98.104 24.0524H98.608V26.9204H99.238V27.4064H98.608V28.2824H98.002ZM98.002 26.9204V24.7904H98.14L96.532 27.0704V26.9204H98.002ZM101.168 28.3364C100.68 28.3364 100.3 28.2324 100.028 28.0244C99.7557 27.8164 99.6197 27.5264 99.6197 27.1544C99.6197 26.8584 99.7097 26.6144 99.8897 26.4224C100.07 26.2264 100.306 26.1084 100.598 26.0684V26.1764C100.334 26.1204 100.122 25.9984 99.9617 25.8104C99.8057 25.6224 99.7277 25.3944 99.7277 25.1264C99.7277 24.7744 99.8557 24.4984 100.112 24.2984C100.368 24.0984 100.72 23.9984 101.168 23.9984C101.62 23.9984 101.974 24.0984 102.23 24.2984C102.486 24.4984 102.614 24.7744 102.614 25.1264C102.614 25.3944 102.538 25.6244 102.386 25.8164C102.238 26.0044 102.034 26.1224 101.774 26.1704V26.0684C102.062 26.1084 102.292 26.2264 102.464 26.4224C102.636 26.6144 102.722 26.8584 102.722 27.1544C102.722 27.5264 102.586 27.8164 102.314 28.0244C102.042 28.2324 101.66 28.3364 101.168 28.3364ZM101.168 27.8444C101.492 27.8444 101.734 27.7844 101.894 27.6644C102.054 27.5404 102.134 27.3564 102.134 27.1124C102.134 26.8684 102.054 26.6864 101.894 26.5664C101.734 26.4464 101.492 26.3864 101.168 26.3864C100.844 26.3864 100.602 26.4464 100.442 26.5664C100.282 26.6864 100.202 26.8684 100.202 27.1124C100.202 27.3564 100.282 27.5404 100.442 27.6644C100.606 27.7844 100.848 27.8444 101.168 27.8444ZM101.168 25.8944C101.448 25.8944 101.66 25.8324 101.804 25.7084C101.952 25.5804 102.026 25.4064 102.026 25.1864C102.026 24.9704 101.952 24.8004 101.804 24.6764C101.66 24.5524 101.448 24.4904 101.168 24.4904C100.892 24.4904 100.68 24.5524 100.532 24.6764C100.384 24.8004 100.31 24.9704 100.31 25.1864C100.31 25.4064 100.384 25.5804 100.532 25.7084C100.68 25.8324 100.892 25.8944 101.168 25.8944ZM105.933 29.3624C105.757 29.0664 105.613 28.7744 105.501 28.4864C105.389 28.2024 105.307 27.9144 105.255 27.6224C105.203 27.3264 105.177 27.0204 105.177 26.7044C105.177 26.3844 105.203 26.0784 105.255 25.7864C105.307 25.4944 105.389 25.2064 105.501 24.9224C105.613 24.6384 105.757 24.3484 105.933 24.0524H106.425C106.217 24.5044 106.061 24.9504 105.957 25.3904C105.857 25.8264 105.807 26.2644 105.807 26.7044C105.807 27.1444 105.857 27.5844 105.957 28.0244C106.061 28.4604 106.217 28.9064 106.425 29.3624H105.933ZM107.073 28.2824V24.0524H107.697V28.2824H107.073ZM108.69 28.2824V24.0524H109.314V28.2824H108.69ZM110.451 29.3624H109.959C110.167 28.9104 110.323 28.4644 110.427 28.0244C110.531 27.5844 110.583 27.1444 110.583 26.7044C110.583 26.2684 110.531 25.8304 110.427 25.3904C110.323 24.9504 110.167 24.5044 109.959 24.0524H110.451C110.631 24.3484 110.777 24.6384 110.889 24.9224C111.001 25.2064 111.081 25.4964 111.129 25.7924C111.181 26.0844 111.207 26.3884 111.207 26.7044C111.207 27.0244 111.181 27.3324 111.129 27.6284C111.081 27.9204 111.001 28.2084 110.889 28.4924C110.777 28.7764 110.631 29.0664 110.451 29.3624Z" fill="#1A1A1A"/>
<path d="M89.3861 31.3465H169.193" stroke="#E8E8E8" stroke-width="0.532053"/>
<circle cx="91.5138" cy="36.9107" r="2.12808" fill="#FF9972"/>
<path d="M98.0021 39.4106V38.5346H96.0461V38.0906L98.1041 35.1806H98.6081V38.0486H99.2381V38.5346H98.6081V39.4106H98.0021ZM98.0021 38.0486V35.9186H98.1401L96.5321 38.1986V38.0486H98.0021ZM101.312 39.4646C100.788 39.4646 100.384 39.2826 100.1 38.9186C99.8198 38.5546 99.6798 38.0446 99.6798 37.3886C99.6798 36.9006 99.7518 36.4906 99.8958 36.1586C100.04 35.8226 100.244 35.5666 100.508 35.3906C100.776 35.2146 101.098 35.1266 101.474 35.1266C101.698 35.1266 101.922 35.1706 102.146 35.2586C102.37 35.3426 102.558 35.4626 102.71 35.6186L102.488 36.0866C102.34 35.9426 102.178 35.8346 102.002 35.7626C101.826 35.6906 101.648 35.6546 101.468 35.6546C101.08 35.6546 100.784 35.7906 100.58 36.0626C100.376 36.3306 100.274 36.7326 100.274 37.2686V37.7786H100.214C100.242 37.5626 100.31 37.3766 100.418 37.2206C100.526 37.0606 100.666 36.9386 100.838 36.8546C101.01 36.7706 101.202 36.7286 101.414 36.7286C101.666 36.7286 101.888 36.7866 102.08 36.9026C102.276 37.0186 102.43 37.1786 102.542 37.3826C102.654 37.5826 102.71 37.8126 102.71 38.0726C102.71 38.3406 102.65 38.5806 102.53 38.7926C102.41 39.0046 102.244 39.1706 102.032 39.2906C101.824 39.4066 101.584 39.4646 101.312 39.4646ZM101.276 38.9606C101.444 38.9606 101.59 38.9246 101.714 38.8526C101.842 38.7806 101.942 38.6806 102.014 38.5526C102.086 38.4206 102.122 38.2686 102.122 38.0966C102.122 37.9246 102.086 37.7746 102.014 37.6466C101.942 37.5186 101.842 37.4186 101.714 37.3466C101.59 37.2706 101.444 37.2326 101.276 37.2326C101.108 37.2326 100.96 37.2706 100.832 37.3466C100.704 37.4186 100.604 37.5186 100.532 37.6466C100.46 37.7746 100.424 37.9246 100.424 38.0966C100.424 38.2686 100.46 38.4206 100.532 38.5526C100.604 38.6806 100.704 38.7806 100.832 38.8526C100.96 38.9246 101.108 38.9606 101.276 38.9606ZM105.933 40.4906C105.757 40.1946 105.613 39.9026 105.501 39.6146C105.389 39.3306 105.307 39.0426 105.255 38.7506C105.203 38.4546 105.177 38.1486 105.177 37.8326C105.177 37.5126 105.203 37.2066 105.255 36.9146C105.307 36.6226 105.389 36.3346 105.501 36.0506C105.613 35.7666 105.757 35.4766 105.933 35.1806H106.425C106.217 35.6326 106.061 36.0786 105.957 36.5186C105.857 36.9546 105.807 37.3926 105.807 37.8326C105.807 38.2726 105.857 38.7126 105.957 39.1526C106.061 39.5886 106.217 40.0346 106.425 40.4906H105.933ZM107.073 39.4106V35.1806H107.697V39.4106H107.073ZM108.69 39.4106V35.1806H109.314V39.4106H108.69ZM110.451 40.4906H109.959C110.167 40.0386 110.323 39.5926 110.427 39.1526C110.531 38.7126 110.583 38.2726 110.583 37.8326C110.583 37.3966 110.531 36.9586 110.427 36.5186C110.323 36.0786 110.167 35.6326 109.959 35.1806H110.451C110.631 35.4766 110.777 35.7666 110.889 36.0506C111.001 36.3346 111.081 36.6246 111.129 36.9206C111.181 37.2126 111.207 37.5166 111.207 37.8326C111.207 38.1526 111.181 38.4606 111.129 38.7566C111.081 39.0486 111.001 39.3366 110.889 39.6206C110.777 39.9046 110.631 40.1946 110.451 40.4906Z" fill="#1A1A1A"/>
<path d="M89.3861 42.4747H169.193" stroke="#E8E8E8" stroke-width="0.532053"/>
<circle cx="91.5138" cy="48.0388" r="2.12808" fill="#9A81FF"/>
<path d="M98.0026 50.5388V49.6628H96.0466V49.2188L98.1046 46.3088H98.6086V49.1768H99.2386V49.6628H98.6086V50.5388H98.0026ZM98.0026 49.1768V47.0468H98.1406L96.5326 49.3268V49.1768H98.0026ZM101.168 50.5928C100.68 50.5928 100.304 50.4068 100.04 50.0348C99.7803 49.6588 99.6503 49.1208 99.6503 48.4208C99.6503 47.7088 99.7803 47.1708 100.04 46.8068C100.304 46.4388 100.68 46.2548 101.168 46.2548C101.66 46.2548 102.036 46.4388 102.296 46.8068C102.556 47.1708 102.686 47.7068 102.686 48.4148C102.686 49.1188 102.554 49.6588 102.29 50.0348C102.03 50.4068 101.656 50.5928 101.168 50.5928ZM101.168 50.0708C101.476 50.0708 101.704 49.9368 101.852 49.6688C102.004 49.4008 102.08 48.9828 102.08 48.4148C102.08 47.8428 102.004 47.4268 101.852 47.1668C101.704 46.9028 101.476 46.7708 101.168 46.7708C100.864 46.7708 100.636 46.9028 100.484 47.1668C100.332 47.4268 100.256 47.8408 100.256 48.4088C100.256 48.9808 100.332 49.4008 100.484 49.6688C100.64 49.9368 100.868 50.0708 101.168 50.0708ZM105.934 51.6188C105.758 51.3228 105.614 51.0308 105.502 50.7428C105.39 50.4588 105.308 50.1708 105.256 49.8788C105.204 49.5828 105.178 49.2768 105.178 48.9608C105.178 48.6408 105.204 48.3348 105.256 48.0428C105.308 47.7508 105.39 47.4628 105.502 47.1788C105.614 46.8948 105.758 46.6048 105.934 46.3088H106.426C106.218 46.7608 106.062 47.2068 105.958 47.6468C105.858 48.0828 105.808 48.5208 105.808 48.9608C105.808 49.4008 105.858 49.8408 105.958 50.2808C106.062 50.7168 106.218 51.1628 106.426 51.6188H105.934ZM107.073 50.5388V46.3088H107.697V50.5388H107.073ZM108.691 50.5388V46.3088H109.315V50.5388H108.691ZM110.452 51.6188H109.96C110.168 51.1668 110.324 50.7208 110.428 50.2808C110.532 49.8408 110.584 49.4008 110.584 48.9608C110.584 48.5248 110.532 48.0868 110.428 47.6468C110.324 47.2068 110.168 46.7608 109.96 46.3088H110.452C110.632 46.6048 110.778 46.8948 110.89 47.1788C111.002 47.4628 111.082 47.7528 111.13 48.0488C111.182 48.3408 111.208 48.6448 111.208 48.9608C111.208 49.2808 111.182 49.5888 111.13 49.8848C111.082 50.1768 111.002 50.4648 110.89 50.7488C110.778 51.0328 110.632 51.3228 110.452 51.6188Z" fill="#1A1A1A"/>
<path d="M89.3861 53.603H169.193" stroke="#E8E8E8" stroke-width="0.532053"/>
<circle cx="91.5138" cy="59.1671" r="2.12808" fill="#4AD991"/>
<path d="M98.0021 61.6671V60.7911H96.0461V60.3471L98.1041 57.4371H98.6081V60.3051H99.2381V60.7911H98.6081V61.6671H98.0021ZM98.0021 60.3051V58.1751H98.1401L96.5321 60.4551V60.3051H98.0021ZM101.6 61.6671V60.7911H99.6438V60.3471L101.702 57.4371H102.206V60.3051H102.836V60.7911H102.206V61.6671H101.6ZM101.6 60.3051V58.1751H101.738L100.13 60.4551V60.3051H101.6ZM105.933 62.7471C105.757 62.4511 105.613 62.1591 105.501 61.8711C105.389 61.5871 105.307 61.2991 105.255 61.0071C105.203 60.7111 105.177 60.4051 105.177 60.0891C105.177 59.7691 105.203 59.4631 105.255 59.1711C105.307 58.8791 105.389 58.5911 105.501 58.3071C105.613 58.0231 105.757 57.7331 105.933 57.4371H106.425C106.217 57.8891 106.061 58.3351 105.957 58.7751C105.857 59.2111 105.807 59.6491 105.807 60.0891C105.807 60.5291 105.857 60.9691 105.957 61.4091C106.061 61.8451 106.217 62.2911 106.425 62.7471H105.933ZM107.073 61.6671V57.4371H107.697V61.6671H107.073ZM108.69 61.6671V57.4371H109.314V61.6671H108.69ZM110.451 62.7471H109.959C110.167 62.2951 110.323 61.8491 110.427 61.4091C110.531 60.9691 110.583 60.5291 110.583 60.0891C110.583 59.6531 110.531 59.2151 110.427 58.7751C110.323 58.3351 110.167 57.8891 109.959 57.4371H110.451C110.631 57.7331 110.777 58.0231 110.889 58.3071C111.001 58.5911 111.081 58.8811 111.129 59.1771C111.181 59.4691 111.207 59.7731 111.207 60.0891C111.207 60.4091 111.181 60.7171 111.129 61.0131C111.081 61.3051 111.001 61.5931 110.889 61.8771C110.777 62.1611 110.631 62.4511 110.451 62.7471Z" fill="#1A1A1A"/>
<path d="M89.3861 64.7311H169.193" stroke="#E8E8E8" stroke-width="0.532053"/>
<circle cx="91.5138" cy="70.2953" r="2.12808" fill="#FEC53D"/>
<path d="M98.0021 72.7953V71.9193H96.0461V71.4753L98.1041 68.5653H98.6081V71.4333H99.2381V71.9193H98.6081V72.7953H98.0021ZM98.0021 71.4333V69.3033H98.1401L96.5321 71.5833V71.4333H98.0021ZM99.8658 72.7953V72.3333L101.318 70.8153C101.506 70.6193 101.646 70.4353 101.738 70.2633C101.83 70.0913 101.876 69.9133 101.876 69.7293C101.876 69.5013 101.804 69.3293 101.66 69.2133C101.52 69.0973 101.316 69.0393 101.048 69.0393C100.836 69.0393 100.636 69.0773 100.448 69.1533C100.264 69.2293 100.086 69.3453 99.9138 69.5013L99.6978 69.0273C99.8658 68.8713 100.074 68.7473 100.322 68.6553C100.574 68.5593 100.84 68.5113 101.12 68.5113C101.56 68.5113 101.898 68.6113 102.134 68.8113C102.374 69.0113 102.494 69.2973 102.494 69.6693C102.494 69.9333 102.43 70.1873 102.302 70.4313C102.174 70.6713 101.982 70.9193 101.726 71.1753L100.472 72.4413V72.2733H102.668V72.7953H99.8658ZM105.933 73.8753C105.757 73.5793 105.613 73.2873 105.501 72.9993C105.389 72.7153 105.307 72.4273 105.255 72.1353C105.203 71.8393 105.177 71.5333 105.177 71.2173C105.177 70.8973 105.203 70.5913 105.255 70.2993C105.307 70.0073 105.389 69.7193 105.501 69.4353C105.613 69.1513 105.757 68.8613 105.933 68.5653H106.425C106.217 69.0173 106.061 69.4633 105.957 69.9033C105.857 70.3393 105.807 70.7773 105.807 71.2173C105.807 71.6573 105.857 72.0973 105.957 72.5373C106.061 72.9733 106.217 73.4193 106.425 73.8753H105.933ZM107.073 72.7953V68.5653H107.697V72.7953H107.073ZM108.69 72.7953V68.5653H109.314V72.7953H108.69ZM110.451 73.8753H109.959C110.167 73.4233 110.323 72.9773 110.427 72.5373C110.531 72.0973 110.583 71.6573 110.583 71.2173C110.583 70.7813 110.531 70.3433 110.427 69.9033C110.323 69.4633 110.167 69.0173 109.959 68.5653H110.451C110.631 68.8613 110.777 69.1513 110.889 69.4353C111.001 69.7193 111.081 70.0093 111.129 70.3053C111.181 70.5973 111.207 70.9013 111.207 71.2173C111.207 71.5373 111.181 71.8453 111.129 72.1413C111.081 72.4333 111.001 72.7213 110.889 73.0053C110.777 73.2893 110.631 73.5793 110.451 73.8753Z" fill="#1A1A1A"/>
<path d="M89.3861 75.8594H169.193" stroke="#E8E8E8" stroke-width="0.532053"/>
<circle cx="91.5138" cy="81.4235" r="2.12808" fill="#FE773D"/>
<path d="M97.6301 83.9775C97.4461 83.9775 97.2641 83.9575 97.0841 83.9175C96.9041 83.8775 96.7361 83.8215 96.5801 83.7495C96.4241 83.6735 96.2881 83.5835 96.1721 83.4795L96.3881 83.0055C96.5801 83.1535 96.7761 83.2655 96.9761 83.3415C97.1801 83.4135 97.3941 83.4495 97.6181 83.4495C97.9021 83.4495 98.1241 83.3755 98.2841 83.2275C98.4481 83.0795 98.5301 82.8815 98.5301 82.6335C98.5301 82.3775 98.4521 82.1715 98.2961 82.0155C98.1441 81.8555 97.9321 81.7755 97.6601 81.7755C97.4721 81.7755 97.3001 81.8135 97.1441 81.8895C96.9921 81.9655 96.8581 82.0815 96.7421 82.2375H96.3101V79.6935H98.8721V80.2155H96.9041V81.7395H96.7481C96.8561 81.5875 97.0001 81.4695 97.1801 81.3855C97.3641 81.3015 97.5701 81.2595 97.7981 81.2595C98.0701 81.2595 98.3061 81.3155 98.5061 81.4275C98.7061 81.5395 98.8601 81.6955 98.9681 81.8955C99.0801 82.0955 99.1361 82.3315 99.1361 82.6035C99.1361 82.8755 99.0741 83.1155 98.9501 83.3235C98.8301 83.5275 98.6561 83.6875 98.4281 83.8035C98.2041 83.9195 97.9381 83.9775 97.6301 83.9775ZM101.168 83.9775C100.68 83.9775 100.304 83.7915 100.04 83.4195C99.7798 83.0435 99.6498 82.5055 99.6498 81.8055C99.6498 81.0935 99.7798 80.5555 100.04 80.1915C100.304 79.8235 100.68 79.6395 101.168 79.6395C101.66 79.6395 102.036 79.8235 102.296 80.1915C102.556 80.5555 102.686 81.0915 102.686 81.7995C102.686 82.5035 102.554 83.0435 102.29 83.4195C102.03 83.7915 101.656 83.9775 101.168 83.9775ZM101.168 83.4555C101.476 83.4555 101.704 83.3215 101.852 83.0535C102.004 82.7855 102.08 82.3675 102.08 81.7995C102.08 81.2275 102.004 80.8115 101.852 80.5515C101.704 80.2875 101.476 80.1555 101.168 80.1555C100.864 80.1555 100.636 80.2875 100.484 80.5515C100.332 80.8115 100.256 81.2255 100.256 81.7935C100.256 82.3655 100.332 82.7855 100.484 83.0535C100.64 83.3215 100.868 83.4555 101.168 83.4555ZM105.933 85.0035C105.757 84.7075 105.613 84.4155 105.501 84.1275C105.389 83.8435 105.307 83.5555 105.255 83.2635C105.203 82.9675 105.177 82.6615 105.177 82.3455C105.177 82.0255 105.203 81.7195 105.255 81.4275C105.307 81.1355 105.389 80.8475 105.501 80.5635C105.613 80.2795 105.757 79.9895 105.933 79.6935H106.425C106.217 80.1455 106.061 80.5915 105.957 81.0315C105.857 81.4675 105.807 81.9055 105.807 82.3455C105.807 82.7855 105.857 83.2255 105.957 83.6655C106.061 84.1015 106.217 84.5475 106.425 85.0035H105.933ZM107.073 83.9235V79.6935H107.697V83.9235H107.073ZM108.69 83.9235V79.6935H109.314V83.9235H108.69ZM110.451 85.0035H109.959C110.167 84.5515 110.323 84.1055 110.427 83.6655C110.531 83.2255 110.583 82.7855 110.583 82.3455C110.583 81.9095 110.531 81.4715 110.427 81.0315C110.323 80.5915 110.167 80.1455 109.959 79.6935H110.451C110.631 79.9895 110.777 80.2795 110.889 80.5635C111.001 80.8475 111.081 81.1375 111.129 81.4335C111.181 81.7255 111.207 82.0295 111.207 82.3455C111.207 82.6655 111.181 82.9735 111.129 83.2695C111.081 83.5615 111.001 83.8495 110.889 84.1335C110.777 84.4175 110.631 84.7075 110.451 85.0035Z" fill="#1A1A1A"/>
<path d="M89.3861 86.9875H169.193" stroke="#E8E8E8" stroke-width="0.532053"/>
<circle cx="91.5138" cy="92.5517" r="2.12808" fill="#EB90F5"/>
<path d="M97.6301 95.1057C97.4461 95.1057 97.2641 95.0857 97.0841 95.0457C96.9041 95.0057 96.7361 94.9497 96.5801 94.8777C96.4241 94.8017 96.2881 94.7117 96.1721 94.6077L96.3881 94.1337C96.5801 94.2817 96.7761 94.3937 96.9761 94.4697C97.1801 94.5417 97.3941 94.5777 97.6181 94.5777C97.9021 94.5777 98.1241 94.5037 98.2841 94.3557C98.4481 94.2077 98.5301 94.0097 98.5301 93.7617C98.5301 93.5057 98.4521 93.2997 98.2961 93.1437C98.1441 92.9837 97.9321 92.9037 97.6601 92.9037C97.4721 92.9037 97.3001 92.9417 97.1441 93.0177C96.9921 93.0937 96.8581 93.2097 96.7421 93.3657H96.3101V90.8217H98.8721V91.3437H96.9041V92.8677H96.7481C96.8561 92.7157 97.0001 92.5977 97.1801 92.5137C97.3641 92.4297 97.5701 92.3877 97.7981 92.3877C98.0701 92.3877 98.3061 92.4437 98.5061 92.5557C98.7061 92.6677 98.8601 92.8237 98.9681 93.0237C99.0801 93.2237 99.1361 93.4597 99.1361 93.7317C99.1361 94.0037 99.0741 94.2437 98.9501 94.4517C98.8301 94.6557 98.6561 94.8157 98.4281 94.9317C98.2041 95.0477 97.9381 95.1057 97.6301 95.1057ZM99.8658 95.0517V94.5897L101.318 93.0717C101.506 92.8757 101.646 92.6917 101.738 92.5197C101.83 92.3477 101.876 92.1697 101.876 91.9857C101.876 91.7577 101.804 91.5857 101.66 91.4697C101.52 91.3537 101.316 91.2957 101.048 91.2957C100.836 91.2957 100.636 91.3337 100.448 91.4097C100.264 91.4857 100.086 91.6017 99.9138 91.7577L99.6978 91.2837C99.8658 91.1277 100.074 91.0037 100.322 90.9117C100.574 90.8157 100.84 90.7677 101.12 90.7677C101.56 90.7677 101.898 90.8677 102.134 91.0677C102.374 91.2677 102.494 91.5537 102.494 91.9257C102.494 92.1897 102.43 92.4437 102.302 92.6877C102.174 92.9277 101.982 93.1757 101.726 93.4317L100.472 94.6977V94.5297H102.668V95.0517H99.8658ZM105.933 96.1317C105.757 95.8357 105.613 95.5437 105.501 95.2557C105.389 94.9717 105.307 94.6837 105.255 94.3917C105.203 94.0957 105.177 93.7897 105.177 93.4737C105.177 93.1537 105.203 92.8477 105.255 92.5557C105.307 92.2637 105.389 91.9757 105.501 91.6917C105.613 91.4077 105.757 91.1177 105.933 90.8217H106.425C106.217 91.2737 106.061 91.7197 105.957 92.1597C105.857 92.5957 105.807 93.0337 105.807 93.4737C105.807 93.9137 105.857 94.3537 105.957 94.7937C106.061 95.2297 106.217 95.6757 106.425 96.1317H105.933ZM107.073 95.0517V90.8217H107.697V95.0517H107.073ZM108.69 95.0517V90.8217H109.314V95.0517H108.69ZM110.451 96.1317H109.959C110.167 95.6797 110.323 95.2337 110.427 94.7937C110.531 94.3537 110.583 93.9137 110.583 93.4737C110.583 93.0377 110.531 92.5997 110.427 92.1597C110.323 91.7197 110.167 91.2737 109.959 90.8217H110.451C110.631 91.1177 110.777 91.4077 110.889 91.6917C111.001 91.9757 111.081 92.2657 111.129 92.5617C111.181 92.8537 111.207 93.1577 111.207 93.4737C111.207 93.7937 111.181 94.1017 111.129 94.3977C111.081 94.6897 111.001 94.9777 110.889 95.2617C110.777 95.5457 110.631 95.8357 110.451 96.1317Z" fill="#1A1A1A"/>
</svg>
