<svg width="155" height="108" viewBox="0 0 155 108" fill="none" xmlns="http://www.w3.org/2000/svg">
<rect width="155" height="108" rx="7.1202" fill="white"/>
<path d="M7.75222 15.1202V9.40806H8.71639V13.7185H8.52194L11.8277 9.40806H12.6136V15.1202H11.6413V10.8098H11.8358L8.52194 15.1202H7.75222ZM14.6949 15.1202V11.8225H13.2932V11.0285H17.1094V11.8225H15.6996V15.1202H14.6949ZM19.5765 15.2012C19.1552 15.2012 18.7906 15.1148 18.4827 14.9419C18.1748 14.7691 17.9344 14.5233 17.7616 14.2046C17.5942 13.8859 17.5104 13.5078 17.5104 13.0703C17.5104 12.6328 17.5942 12.2574 17.7616 11.9441C17.9344 11.6254 18.1748 11.3796 18.4827 11.2068C18.7906 11.0339 19.1552 10.9475 19.5765 10.9475C19.9978 10.9475 20.3624 11.0339 20.6703 11.2068C20.9836 11.3796 21.224 11.6254 21.3914 11.9441C21.5643 12.2574 21.6507 12.6328 21.6507 13.0703C21.6507 13.5078 21.5643 13.8859 21.3914 14.2046C21.224 14.5233 20.9836 14.7691 20.6703 14.9419C20.3624 15.1148 19.9978 15.2012 19.5765 15.2012ZM19.5765 14.4234C19.8952 14.4234 20.1491 14.3126 20.3381 14.0912C20.5272 13.8643 20.6217 13.524 20.6217 13.0703C20.6217 12.6166 20.5272 12.279 20.3381 12.0575C20.1491 11.836 19.8952 11.7253 19.5765 11.7253C19.2578 11.7253 19.004 11.836 18.8149 12.0575C18.6258 12.279 18.5313 12.6166 18.5313 13.0703C18.5313 13.524 18.6258 13.8643 18.8149 14.0912C19.004 14.3126 19.2578 14.4234 19.5765 14.4234ZM22.6104 15.1202V11.0285H25.6812V11.8225H23.6232V15.1202H22.6104ZM28.2722 15.2012C27.8509 15.2012 27.4863 15.1148 27.1784 14.9419C26.8705 14.7691 26.6302 14.5233 26.4573 14.2046C26.2899 13.8859 26.2062 13.5078 26.2062 13.0703C26.2062 12.6328 26.2899 12.2574 26.4573 11.9441C26.6302 11.6254 26.8705 11.3796 27.1784 11.2068C27.4863 11.0339 27.8509 10.9475 28.2722 10.9475C28.6936 10.9475 29.0582 11.0339 29.3661 11.2068C29.6793 11.3796 29.9197 11.6254 30.0872 11.9441C30.26 12.2574 30.3464 12.6328 30.3464 13.0703C30.3464 13.5078 30.26 13.8859 30.0872 14.2046C29.9197 14.5233 29.6793 14.7691 29.3661 14.9419C29.0582 15.1148 28.6936 15.2012 28.2722 15.2012ZM28.2722 14.4234C28.5909 14.4234 28.8448 14.3126 29.0339 14.0912C29.2229 13.8643 29.3174 13.524 29.3174 13.0703C29.3174 12.6166 29.2229 12.279 29.0339 12.0575C28.8448 11.836 28.5909 11.7253 28.2722 11.7253C27.9536 11.7253 27.6997 11.836 27.5106 12.0575C27.3216 12.279 27.227 12.6166 27.227 13.0703C27.227 13.524 27.3216 13.8643 27.5106 14.0912C27.6997 14.3126 27.9536 14.4234 28.2722 14.4234ZM31.3061 15.1202V11.0285H33.4856C33.9988 11.0285 34.3742 11.123 34.6119 11.3121C34.8495 11.4957 34.9684 11.7577 34.9684 12.098C34.9684 12.3573 34.8819 12.5734 34.7091 12.7462C34.5362 12.9191 34.3067 13.0271 34.0204 13.0703V12.9569C34.3715 12.9785 34.6416 13.0811 34.8306 13.2648C35.0197 13.4484 35.1142 13.6861 35.1142 13.9778C35.1142 14.3289 34.9792 14.607 34.7091 14.8123C34.439 15.0175 34.0555 15.1202 33.5586 15.1202H31.3061ZM32.246 14.4963H33.4532C33.6909 14.4963 33.8718 14.4477 33.9961 14.3505C34.1257 14.2532 34.1905 14.1101 34.1905 13.921C34.1905 13.732 34.1257 13.5888 33.9961 13.4916C33.8718 13.3944 33.6909 13.3458 33.4532 13.3458H32.246V14.4963ZM32.246 12.7219H33.3641C33.5802 12.7219 33.7476 12.676 33.8664 12.5842C33.9853 12.4869 34.0447 12.3519 34.0447 12.179C34.0447 12.0062 33.9853 11.8739 33.8664 11.782C33.7476 11.6902 33.5802 11.6443 33.3641 11.6443H32.246V12.7219ZM35.9982 15.1202V11.0285H37.0029V12.3978H38.0805C38.626 12.3978 39.0365 12.5139 39.312 12.7462C39.5875 12.9731 39.7252 13.3026 39.7252 13.7347C39.7252 14.0156 39.6604 14.2613 39.5308 14.472C39.4011 14.6773 39.2121 14.8366 38.9636 14.95C38.7205 15.0635 38.4262 15.1202 38.0805 15.1202H35.9982ZM37.0029 14.4558H37.9427C38.2182 14.4558 38.4289 14.3991 38.5747 14.2856C38.7205 14.1668 38.7935 13.9886 38.7935 13.7509C38.7935 13.5132 38.7205 13.3404 38.5747 13.2323C38.4343 13.1189 38.2236 13.0622 37.9427 13.0622H37.0029V14.4558ZM40.2357 15.1202V11.0285H41.2404V15.1202H40.2357ZM44.4008 15.2012C43.7148 15.2012 43.1773 15.0121 42.7884 14.634C42.3995 14.2559 42.205 13.7374 42.205 13.0784C42.205 12.6517 42.2888 12.279 42.4562 11.9603C42.6237 11.6416 42.8559 11.3931 43.153 11.2149C43.4555 11.0366 43.8066 10.9475 44.2063 10.9475C44.6006 10.9475 44.9301 11.0312 45.1948 11.1987C45.4595 11.3661 45.6593 11.6011 45.7944 11.9036C45.9348 12.2061 46.005 12.5599 46.005 12.965V13.2323H43.0234V12.6976H45.2839L45.1462 12.811C45.1462 12.4329 45.0652 12.1439 44.9031 11.9441C44.7465 11.7442 44.5169 11.6443 44.2144 11.6443C43.8795 11.6443 43.6202 11.7631 43.4366 12.0008C43.2583 12.2385 43.1692 12.5707 43.1692 12.9974V13.1027C43.1692 13.5456 43.2772 13.8778 43.4933 14.0993C43.7148 14.3153 44.0254 14.4234 44.4251 14.4234C44.6573 14.4234 44.8734 14.3937 45.0733 14.3343C45.2785 14.2694 45.473 14.1668 45.6566 14.0264L45.9564 14.707C45.762 14.8636 45.5297 14.9851 45.2596 15.0716C44.9895 15.158 44.7033 15.2012 44.4008 15.2012ZM50.6714 15.2012C50.3041 15.2012 49.9584 15.158 49.6343 15.0716C49.3157 14.9851 49.0483 14.8609 48.8322 14.6989L49.1158 14.0345C49.3157 14.1803 49.5479 14.291 49.8126 14.3667C50.0827 14.4423 50.3663 14.4801 50.6633 14.4801C51.009 14.4801 51.2602 14.4342 51.4169 14.3424C51.5789 14.2451 51.6599 14.1047 51.6599 13.921C51.6599 13.7482 51.5978 13.6186 51.4736 13.5321C51.3493 13.4403 51.1657 13.3944 50.9226 13.3944H49.8612V12.6976H50.8254C51.0468 12.6976 51.217 12.6544 51.3358 12.568C51.4547 12.4815 51.5141 12.36 51.5141 12.2033C51.5141 12.0359 51.4412 11.9036 51.2953 11.8063C51.1549 11.7091 50.9226 11.6605 50.5985 11.6605C50.3176 11.6605 50.0611 11.6956 49.8288 11.7658C49.5965 11.8306 49.3778 11.9279 49.1725 12.0575L48.897 11.4255C49.1185 11.2689 49.3859 11.1501 49.6992 11.069C50.0179 10.988 50.3636 10.9475 50.7363 10.9475C51.2818 10.9475 51.7004 11.0474 51.9921 11.2473C52.2838 11.4471 52.4296 11.7307 52.4296 12.098C52.4296 12.3465 52.3432 12.5599 52.1704 12.7381C52.0029 12.9164 51.7761 13.0271 51.4898 13.0703V12.9569C51.8247 12.9785 52.0893 13.0784 52.2838 13.2566C52.4783 13.4349 52.5755 13.6753 52.5755 13.9778C52.5755 14.3505 52.4107 14.6475 52.0812 14.869C51.7517 15.0905 51.2818 15.2012 50.6714 15.2012ZM53.4608 15.1202V11.0285H54.4655V12.6328H56.3129V11.0285H57.3175V15.1202H56.3129V13.4106H54.4655V15.1202H53.4608ZM60.0818 15.2012C59.7253 15.2012 59.412 15.1175 59.1419 14.95C58.8718 14.7772 58.6612 14.5314 58.5099 14.2127C58.3587 13.894 58.283 13.5132 58.283 13.0703C58.283 12.6274 58.3587 12.2493 58.5099 11.936C58.6612 11.6173 58.8718 11.3742 59.1419 11.2068C59.412 11.0339 59.7253 10.9475 60.0818 10.9475C60.4275 10.9475 60.7299 11.0339 60.9892 11.2068C61.2539 11.3742 61.4294 11.6011 61.5159 11.8874H61.4267L61.5159 11.0285H62.4881C62.4719 11.196 62.4557 11.3661 62.4395 11.539C62.4287 11.7118 62.4233 11.882 62.4233 12.0494V15.1202H61.4186L61.4105 14.2775H61.5078C61.4213 14.5584 61.2458 14.7826 60.9811 14.95C60.7164 15.1175 60.4167 15.2012 60.0818 15.2012ZM60.3653 14.4234C60.684 14.4234 60.9406 14.3126 61.1351 14.0912C61.3295 13.8643 61.4267 13.524 61.4267 13.0703C61.4267 12.6166 61.3295 12.279 61.1351 12.0575C60.9406 11.836 60.684 11.7253 60.3653 11.7253C60.0466 11.7253 59.7901 11.836 59.5956 12.0575C59.4012 12.279 59.3039 12.6166 59.3039 13.0703C59.3039 13.524 59.3985 13.8643 59.5875 14.0912C59.782 14.3126 60.0412 14.4234 60.3653 14.4234ZM66.2054 15.1202V13.6294C66.0541 13.6996 65.8975 13.7536 65.7355 13.7914C65.5734 13.8292 65.4033 13.8481 65.225 13.8481C64.6254 13.8481 64.1771 13.705 63.88 13.4187C63.5883 13.1324 63.4425 12.7057 63.4425 12.1385V11.0285H64.4472V12.0494C64.4472 12.3951 64.5228 12.6463 64.6741 12.8029C64.8253 12.9542 65.0684 13.0298 65.4033 13.0298C65.5599 13.0298 65.7003 13.0136 65.8246 12.9812C65.9488 12.9488 66.0676 12.8974 66.1811 12.8272V11.0285H67.1858V15.1202H66.2054ZM70.3455 15.2012C69.6595 15.2012 69.1221 15.0121 68.7332 14.634C68.3443 14.2559 68.1498 13.7374 68.1498 13.0784C68.1498 12.6517 68.2335 12.279 68.401 11.9603C68.5684 11.6416 68.8007 11.3931 69.0978 11.2149C69.4003 11.0366 69.7514 10.9475 70.1511 10.9475C70.5454 10.9475 70.8749 11.0312 71.1396 11.1987C71.4042 11.3661 71.6041 11.6011 71.7391 11.9036C71.8796 12.2061 71.9498 12.5599 71.9498 12.965V13.2323H68.9681V12.6976H71.2287L71.0909 12.811C71.0909 12.4329 71.0099 12.1439 70.8479 11.9441C70.6912 11.7442 70.4617 11.6443 70.1592 11.6443C69.8243 11.6443 69.565 11.7631 69.3814 12.0008C69.2031 12.2385 69.114 12.5707 69.114 12.9974V13.1027C69.114 13.5456 69.222 13.8778 69.4381 14.0993C69.6595 14.3153 69.9701 14.4234 70.3698 14.4234C70.6021 14.4234 70.8182 14.3937 71.018 14.3343C71.2233 14.2694 71.4177 14.1668 71.6014 14.0264L71.9012 14.707C71.7067 14.8636 71.4745 14.9851 71.2044 15.0716C70.9343 15.158 70.648 15.2012 70.3455 15.2012ZM72.8858 15.1202V11.0285H73.8905V12.6328H75.7378V11.0285H76.7425V15.1202H75.7378V13.4106H73.8905V15.1202H72.8858ZM77.8943 15.1202V11.0285H78.8099V14.1236H78.5668L80.8922 11.0285H81.7267V15.1202H80.8112V12.017H81.0623L78.7289 15.1202H77.8943ZM82.5389 15.1202L83.1627 14.0426C83.2708 13.8589 83.4031 13.7131 83.5598 13.605C83.7218 13.4916 83.8893 13.4349 84.0621 13.4349H84.2404L84.2322 13.524C83.7515 13.524 83.3815 13.4187 83.1222 13.208C82.863 12.9974 82.7333 12.6895 82.7333 12.2844C82.7333 11.8847 82.8657 11.5768 83.1303 11.3607C83.4004 11.1392 83.7947 11.0285 84.3133 11.0285H86.347V15.1202H85.4233V13.678H84.9615C84.794 13.678 84.6455 13.7239 84.5158 13.8157C84.3916 13.9075 84.2863 14.0264 84.1998 14.1722L83.6651 15.1202H82.5389ZM84.5077 13.0217H85.4233V11.6848H84.5077C84.2322 11.6848 84.0243 11.7442 83.8839 11.8631C83.7488 11.9819 83.6813 12.1439 83.6813 12.3492C83.6813 12.5653 83.7488 12.7327 83.8839 12.8515C84.0243 12.965 84.2322 13.0217 84.5077 13.0217Z" fill="#1A1A1A"/>
<path d="M7.45024 28.5887C7.45024 28.1447 7.53024 27.7607 7.69024 27.4367C7.85424 27.1127 8.08824 26.8627 8.39224 26.6867C8.69624 26.5067 9.05824 26.4167 9.47824 26.4167C9.89424 26.4167 10.2542 26.5067 10.5582 26.6867C10.8622 26.8627 11.0962 27.1127 11.2602 27.4367C11.4282 27.7607 11.5122 28.1427 11.5122 28.5827C11.5122 29.0267 11.4282 29.4127 11.2602 29.7407C11.0962 30.0647 10.8622 30.3167 10.5582 30.4967C10.2542 30.6767 9.89424 30.7667 9.47824 30.7667C9.05824 30.7667 8.69624 30.6767 8.39224 30.4967C8.09224 30.3167 7.86024 30.0647 7.69624 29.7407C7.53224 29.4127 7.45024 29.0287 7.45024 28.5887ZM8.26024 28.5887C8.26024 29.0647 8.36224 29.4367 8.56624 29.7047C8.77024 29.9727 9.07424 30.1067 9.47824 30.1067C9.87024 30.1067 10.1722 29.9727 10.3842 29.7047C10.5962 29.4367 10.7022 29.0647 10.7022 28.5887C10.7022 28.1087 10.5962 27.7367 10.3842 27.4727C10.1762 27.2087 9.87424 27.0767 9.47824 27.0767C9.07424 27.0767 8.77024 27.2087 8.56624 27.4727C8.36224 27.7367 8.26024 28.1087 8.26024 28.5887ZM13.6909 30.7667C13.2149 30.7667 12.8349 30.6227 12.5509 30.3347C12.2709 30.0467 12.1309 29.6247 12.1309 29.0687V28.5527C12.1309 27.9807 12.2609 27.5207 12.5209 27.1727C12.7809 26.8247 13.1729 26.5947 13.6969 26.4827L14.8069 26.2307L15.0109 26.8187L13.7629 27.0947C13.5549 27.1387 13.3829 27.2227 13.2469 27.3467C13.1109 27.4667 13.0089 27.6107 12.9409 27.7787C12.8729 27.9467 12.8389 28.1267 12.8389 28.3187V28.6367H12.7369C12.7809 28.4567 12.8549 28.3007 12.9589 28.1687C13.0629 28.0327 13.1949 27.9267 13.3549 27.8507C13.5149 27.7747 13.6969 27.7367 13.9009 27.7367C14.1569 27.7367 14.3809 27.7967 14.5729 27.9167C14.7689 28.0327 14.9229 28.2027 15.0349 28.4267C15.1469 28.6467 15.2029 28.9107 15.2029 29.2187C15.2029 29.5347 15.1389 29.8087 15.0109 30.0407C14.8869 30.2727 14.7109 30.4527 14.4829 30.5807C14.2589 30.7047 13.9949 30.7667 13.6909 30.7667ZM13.6669 30.1967C13.9149 30.1967 14.1069 30.1187 14.2429 29.9627C14.3829 29.8027 14.4529 29.5647 14.4529 29.2487C14.4529 28.9407 14.3829 28.7067 14.2429 28.5467C14.1029 28.3827 13.9109 28.3007 13.6669 28.3007C13.4229 28.3007 13.2309 28.3807 13.0909 28.5407C12.9509 28.7007 12.8809 28.9287 12.8809 29.2247C12.8809 29.5487 12.9509 29.7927 13.0909 29.9567C13.2309 30.1167 13.4229 30.1967 13.6669 30.1967ZM20.0114 31.4867V30.7067H15.9134V27.6767H16.6154V30.1307H17.6834V27.6767H18.3794V30.1307H19.4474V27.6767H20.1494V30.1307H20.6414V31.4867H20.0114ZM22.3867 30.7667C22.1227 30.7667 21.8907 30.7047 21.6907 30.5807C21.4907 30.4527 21.3347 30.2707 21.2227 30.0347C21.1107 29.7987 21.0547 29.5167 21.0547 29.1887C21.0547 28.8607 21.1107 28.5807 21.2227 28.3487C21.3347 28.1127 21.4907 27.9327 21.6907 27.8087C21.8907 27.6807 22.1227 27.6167 22.3867 27.6167C22.6427 27.6167 22.8667 27.6807 23.0587 27.8087C23.2547 27.9327 23.3847 28.1007 23.4487 28.3127H23.3827L23.4487 27.6767H24.1687C24.1567 27.8007 24.1447 27.9267 24.1327 28.0547C24.1247 28.1827 24.1207 28.3087 24.1207 28.4327V30.7067H23.3767L23.3707 30.0827H23.4427C23.3787 30.2907 23.2487 30.4567 23.0527 30.5807C22.8567 30.7047 22.6347 30.7667 22.3867 30.7667ZM22.5967 30.1907C22.8327 30.1907 23.0227 30.1087 23.1667 29.9447C23.3107 29.7767 23.3827 29.5247 23.3827 29.1887C23.3827 28.8527 23.3107 28.6027 23.1667 28.4387C23.0227 28.2747 22.8327 28.1927 22.5967 28.1927C22.3607 28.1927 22.1707 28.2747 22.0267 28.4387C21.8827 28.6027 21.8107 28.8527 21.8107 29.1887C21.8107 29.5247 21.8807 29.7767 22.0207 29.9447C22.1647 30.1087 22.3567 30.1907 22.5967 30.1907ZM24.7435 30.7067L25.2055 29.9087C25.2855 29.7727 25.3835 29.6647 25.4995 29.5847C25.6195 29.5007 25.7435 29.4587 25.8715 29.4587H26.0035L25.9975 29.5247C25.6415 29.5247 25.3675 29.4467 25.1755 29.2907C24.9835 29.1347 24.8875 28.9067 24.8875 28.6067C24.8875 28.3107 24.9855 28.0827 25.1815 27.9227C25.3815 27.7587 25.6735 27.6767 26.0575 27.6767H27.5635V30.7067H26.8795V29.6387H26.5375C26.4135 29.6387 26.3035 29.6727 26.2075 29.7407C26.1155 29.8087 26.0375 29.8967 25.9735 30.0047L25.5775 30.7067H24.7435ZM26.2015 29.1527H26.8795V28.1627H26.2015C25.9975 28.1627 25.8435 28.2067 25.7395 28.2947C25.6395 28.3827 25.5895 28.5027 25.5895 28.6547C25.5895 28.8147 25.6395 28.9387 25.7395 29.0267C25.8435 29.1107 25.9975 29.1527 26.2015 29.1527ZM31.4798 30.7667C31.1678 30.7667 30.8938 30.7027 30.6578 30.5747C30.4258 30.4467 30.2458 30.2647 30.1178 30.0287C29.9898 29.7887 29.9258 29.5047 29.9258 29.1767C29.9258 28.8487 29.9898 28.5687 30.1178 28.3367C30.2498 28.1047 30.4318 27.9267 30.6638 27.8027C30.8958 27.6787 31.1678 27.6167 31.4798 27.6167C31.6798 27.6167 31.8738 27.6487 32.0618 27.7127C32.2538 27.7727 32.4098 27.8607 32.5298 27.9767L32.3018 28.4987C32.1938 28.3987 32.0718 28.3247 31.9358 28.2767C31.8038 28.2247 31.6738 28.1987 31.5458 28.1987C31.2778 28.1987 31.0678 28.2827 30.9158 28.4507C30.7678 28.6187 30.6938 28.8627 30.6938 29.1827C30.6938 29.5027 30.7678 29.7487 30.9158 29.9207C31.0678 30.0927 31.2778 30.1787 31.5458 30.1787C31.6698 30.1787 31.7978 30.1547 31.9298 30.1067C32.0658 30.0587 32.1898 29.9847 32.3018 29.8847L32.5298 30.4007C32.4058 30.5167 32.2478 30.6067 32.0558 30.6707C31.8678 30.7347 31.6758 30.7667 31.4798 30.7667ZM34.6573 30.7667C34.1493 30.7667 33.7513 30.6267 33.4633 30.3467C33.1753 30.0667 33.0313 29.6827 33.0313 29.1947C33.0313 28.8787 33.0933 28.6027 33.2173 28.3667C33.3413 28.1307 33.5133 27.9467 33.7333 27.8147C33.9573 27.6827 34.2173 27.6167 34.5133 27.6167C34.8053 27.6167 35.0493 27.6787 35.2453 27.8027C35.4413 27.9267 35.5893 28.1007 35.6893 28.3247C35.7933 28.5487 35.8453 28.8107 35.8453 29.1107V29.3087H33.6373V28.9127H35.3113L35.2093 28.9967C35.2093 28.7167 35.1493 28.5027 35.0293 28.3547C34.9133 28.2067 34.7433 28.1327 34.5193 28.1327C34.2713 28.1327 34.0793 28.2207 33.9433 28.3967C33.8113 28.5727 33.7453 28.8187 33.7453 29.1347V29.2127C33.7453 29.5407 33.8253 29.7867 33.9853 29.9507C34.1493 30.1107 34.3793 30.1907 34.6753 30.1907C34.8473 30.1907 35.0073 30.1687 35.1553 30.1247C35.3073 30.0767 35.4513 30.0007 35.5873 29.8967L35.8093 30.4007C35.6653 30.5167 35.4933 30.6067 35.2933 30.6707C35.0933 30.7347 34.8813 30.7667 34.6573 30.7667ZM37.9604 30.7667C37.4844 30.7667 37.1044 30.6227 36.8204 30.3347C36.5404 30.0467 36.4004 29.6247 36.4004 29.0687V28.5527C36.4004 27.9807 36.5304 27.5207 36.7904 27.1727C37.0504 26.8247 37.4424 26.5947 37.9664 26.4827L39.0764 26.2307L39.2804 26.8187L38.0324 27.0947C37.8244 27.1387 37.6524 27.2227 37.5164 27.3467C37.3804 27.4667 37.2784 27.6107 37.2104 27.7787C37.1424 27.9467 37.1084 28.1267 37.1084 28.3187V28.6367H37.0064C37.0504 28.4567 37.1244 28.3007 37.2284 28.1687C37.3324 28.0327 37.4644 27.9267 37.6244 27.8507C37.7844 27.7747 37.9664 27.7367 38.1704 27.7367C38.4264 27.7367 38.6504 27.7967 38.8424 27.9167C39.0384 28.0327 39.1924 28.2027 39.3044 28.4267C39.4164 28.6467 39.4724 28.9107 39.4724 29.2187C39.4724 29.5347 39.4084 29.8087 39.2804 30.0407C39.1564 30.2727 38.9804 30.4527 38.7524 30.5807C38.5284 30.7047 38.2644 30.7667 37.9604 30.7667ZM37.9364 30.1967C38.1844 30.1967 38.3764 30.1187 38.5124 29.9627C38.6524 29.8027 38.7224 29.5647 38.7224 29.2487C38.7224 28.9407 38.6524 28.7067 38.5124 28.5467C38.3724 28.3827 38.1804 28.3007 37.9364 28.3007C37.6924 28.3007 37.5004 28.3807 37.3604 28.5407C37.2204 28.7007 37.1504 28.9287 37.1504 29.2247C37.1504 29.5487 37.2204 29.7927 37.3604 29.9567C37.5004 30.1167 37.6924 30.1967 37.9364 30.1967ZM41.671 30.7667C41.163 30.7667 40.765 30.6267 40.477 30.3467C40.189 30.0667 40.045 29.6827 40.045 29.1947C40.045 28.8787 40.107 28.6027 40.231 28.3667C40.355 28.1307 40.527 27.9467 40.747 27.8147C40.971 27.6827 41.231 27.6167 41.527 27.6167C41.819 27.6167 42.063 27.6787 42.259 27.8027C42.455 27.9267 42.603 28.1007 42.703 28.3247C42.807 28.5487 42.859 28.8107 42.859 29.1107V29.3087H40.651V28.9127H42.325L42.223 28.9967C42.223 28.7167 42.163 28.5027 42.043 28.3547C41.927 28.2067 41.757 28.1327 41.533 28.1327C41.285 28.1327 41.093 28.2207 40.957 28.3967C40.825 28.5727 40.759 28.8187 40.759 29.1347V29.2127C40.759 29.5407 40.839 29.7867 40.999 29.9507C41.163 30.1107 41.393 30.1907 41.689 30.1907C41.861 30.1907 42.021 30.1687 42.169 30.1247C42.321 30.0767 42.465 30.0007 42.601 29.8967L42.823 30.4007C42.679 30.5167 42.507 30.6067 42.307 30.6707C42.107 30.7347 41.895 30.7667 41.671 30.7667ZM44.9681 30.7667C44.6561 30.7667 44.3821 30.7027 44.1461 30.5747C43.9141 30.4467 43.7341 30.2647 43.6061 30.0287C43.4781 29.7887 43.4141 29.5047 43.4141 29.1767C43.4141 28.8487 43.4781 28.5687 43.6061 28.3367C43.7381 28.1047 43.9201 27.9267 44.1521 27.8027C44.3841 27.6787 44.6561 27.6167 44.9681 27.6167C45.1681 27.6167 45.3621 27.6487 45.5501 27.7127C45.7421 27.7727 45.8981 27.8607 46.0181 27.9767L45.7901 28.4987C45.6821 28.3987 45.5601 28.3247 45.4241 28.2767C45.2921 28.2247 45.1621 28.1987 45.0341 28.1987C44.7661 28.1987 44.5561 28.2827 44.4041 28.4507C44.2561 28.6187 44.1821 28.8627 44.1821 29.1827C44.1821 29.5027 44.2561 29.7487 44.4041 29.9207C44.5561 30.0927 44.7661 30.1787 45.0341 30.1787C45.1581 30.1787 45.2861 30.1547 45.4181 30.1067C45.5541 30.0587 45.6781 29.9847 45.7901 29.8847L46.0181 30.4007C45.8941 30.5167 45.7361 30.6067 45.5441 30.6707C45.3561 30.7347 45.1641 30.7667 44.9681 30.7667ZM47.3116 30.7067V28.2647H46.2736V27.6767H49.0996V28.2647H48.0556V30.7067H47.3116ZM50.9265 30.7667C50.6145 30.7667 50.3445 30.7027 50.1165 30.5747C49.8885 30.4467 49.7105 30.2647 49.5825 30.0287C49.4585 29.7927 49.3965 29.5127 49.3965 29.1887C49.3965 28.8647 49.4585 28.5867 49.5825 28.3547C49.7105 28.1187 49.8885 27.9367 50.1165 27.8087C50.3445 27.6807 50.6145 27.6167 50.9265 27.6167C51.2385 27.6167 51.5085 27.6807 51.7365 27.8087C51.9685 27.9367 52.1465 28.1187 52.2705 28.3547C52.3985 28.5867 52.4625 28.8647 52.4625 29.1887C52.4625 29.5127 52.3985 29.7927 52.2705 30.0287C52.1465 30.2647 51.9685 30.4467 51.7365 30.5747C51.5085 30.7027 51.2385 30.7667 50.9265 30.7667ZM50.9265 30.1907C51.1625 30.1907 51.3505 30.1087 51.4905 29.9447C51.6305 29.7767 51.7005 29.5247 51.7005 29.1887C51.7005 28.8527 51.6305 28.6027 51.4905 28.4387C51.3505 28.2747 51.1625 28.1927 50.9265 28.1927C50.6905 28.1927 50.5025 28.2747 50.3625 28.4387C50.2225 28.6027 50.1525 28.8527 50.1525 29.1887C50.1525 29.5247 50.2225 29.7767 50.3625 29.9447C50.5025 30.1087 50.6905 30.1907 50.9265 30.1907ZM53.1732 30.7067V27.6767H53.8512V29.9687H53.6712L55.3932 27.6767H56.0112V30.7067H55.3332V28.4087H55.5192L53.7912 30.7067H53.1732ZM56.8646 30.7067V27.6767H57.4886L58.5326 29.4887L59.5766 27.6767H60.2006V30.7067H59.5406V28.5167H59.6786L58.7066 30.2147H58.3586L57.3866 28.5167H57.5246V30.7067H56.8646ZM62.4461 30.7667C62.1341 30.7667 61.8641 30.7027 61.6361 30.5747C61.4081 30.4467 61.2301 30.2647 61.1021 30.0287C60.9781 29.7927 60.9161 29.5127 60.9161 29.1887C60.9161 28.8647 60.9781 28.5867 61.1021 28.3547C61.2301 28.1187 61.4081 27.9367 61.6361 27.8087C61.8641 27.6807 62.1341 27.6167 62.4461 27.6167C62.7581 27.6167 63.0281 27.6807 63.2561 27.8087C63.4881 27.9367 63.6661 28.1187 63.7901 28.3547C63.9181 28.5867 63.9821 28.8647 63.9821 29.1887C63.9821 29.5127 63.9181 29.7927 63.7901 30.0287C63.6661 30.2647 63.4881 30.4467 63.2561 30.5747C63.0281 30.7027 62.7581 30.7667 62.4461 30.7667ZM62.4461 30.1907C62.6821 30.1907 62.8701 30.1087 63.0101 29.9447C63.1501 29.7767 63.2201 29.5247 63.2201 29.1887C63.2201 28.8527 63.1501 28.6027 63.0101 28.4387C62.8701 28.2747 62.6821 28.1927 62.4461 28.1927C62.2101 28.1927 62.0221 28.2747 61.8821 28.4387C61.7421 28.6027 61.6721 28.8527 61.6721 29.1887C61.6721 29.5247 61.7421 29.7767 61.8821 29.9447C62.0221 30.1087 62.2101 30.1907 62.4461 30.1907ZM66.1087 30.7667C65.7967 30.7667 65.5227 30.7027 65.2867 30.5747C65.0547 30.4467 64.8747 30.2647 64.7467 30.0287C64.6187 29.7887 64.5547 29.5047 64.5547 29.1767C64.5547 28.8487 64.6187 28.5687 64.7467 28.3367C64.8787 28.1047 65.0607 27.9267 65.2927 27.8027C65.5247 27.6787 65.7967 27.6167 66.1087 27.6167C66.3087 27.6167 66.5027 27.6487 66.6907 27.7127C66.8827 27.7727 67.0387 27.8607 67.1587 27.9767L66.9307 28.4987C66.8227 28.3987 66.7007 28.3247 66.5647 28.2767C66.4327 28.2247 66.3027 28.1987 66.1747 28.1987C65.9067 28.1987 65.6967 28.2827 65.5447 28.4507C65.3967 28.6187 65.3227 28.8627 65.3227 29.1827C65.3227 29.5027 65.3967 29.7487 65.5447 29.9207C65.6967 30.0927 65.9067 30.1787 66.1747 30.1787C66.2987 30.1787 66.4267 30.1547 66.5587 30.1067C66.6947 30.0587 66.8187 29.9847 66.9307 29.8847L67.1587 30.4007C67.0347 30.5167 66.8767 30.6067 66.6847 30.6707C66.4967 30.7347 66.3047 30.7667 66.1087 30.7667ZM68.4522 30.7067V28.2647H67.4142V27.6767H70.2402V28.2647H69.1962V30.7067H68.4522ZM70.7044 30.7067V27.6767H71.4484V28.6907H72.2464C72.6504 28.6907 72.9544 28.7767 73.1584 28.9487C73.3624 29.1167 73.4644 29.3607 73.4644 29.6807C73.4644 29.8887 73.4164 30.0707 73.3204 30.2267C73.2244 30.3787 73.0844 30.4967 72.9004 30.5807C72.7204 30.6647 72.5024 30.7067 72.2464 30.7067H70.7044ZM71.4484 30.2147H72.1444C72.3484 30.2147 72.5044 30.1727 72.6124 30.0887C72.7204 30.0007 72.7744 29.8687 72.7744 29.6927C72.7744 29.5167 72.7204 29.3887 72.6124 29.3087C72.5084 29.2247 72.3524 29.1827 72.1444 29.1827H71.4484V30.2147Z" fill="#1A1A1A"/>
<path d="M128.911 30.7067V30.0647H129.883V27.1247H130.255L129.007 27.8687V27.1367L130.105 26.4767H130.657V30.0647H131.569V30.7067H128.911ZM133.643 30.7667C133.147 30.7667 132.765 30.5787 132.497 30.2027C132.229 29.8227 132.095 29.2827 132.095 28.5827C132.095 27.8747 132.229 27.3367 132.497 26.9687C132.765 26.6007 133.147 26.4167 133.643 26.4167C134.143 26.4167 134.525 26.6007 134.789 26.9687C135.057 27.3367 135.191 27.8727 135.191 28.5767C135.191 29.2807 135.057 29.8227 134.789 30.2027C134.525 30.5787 134.143 30.7667 133.643 30.7667ZM133.643 30.1307C133.915 30.1307 134.117 30.0067 134.249 29.7587C134.381 29.5067 134.447 29.1127 134.447 28.5767C134.447 28.0407 134.381 27.6527 134.249 27.4127C134.117 27.1687 133.915 27.0467 133.643 27.0467C133.375 27.0467 133.173 27.1687 133.037 27.4127C132.905 27.6527 132.839 28.0407 132.839 28.5767C132.839 29.1127 132.905 29.5067 133.037 29.7587C133.173 30.0067 133.375 30.1307 133.643 30.1307ZM137.27 30.7667C137.086 30.7667 136.902 30.7467 136.718 30.7067C136.538 30.6667 136.368 30.6107 136.208 30.5387C136.052 30.4667 135.918 30.3807 135.806 30.2807L136.058 29.6987C136.246 29.8387 136.438 29.9447 136.634 30.0167C136.834 30.0847 137.042 30.1187 137.258 30.1187C137.518 30.1187 137.72 30.0547 137.864 29.9267C138.012 29.7947 138.086 29.6187 138.086 29.3987C138.086 29.1747 138.016 28.9947 137.876 28.8587C137.736 28.7187 137.544 28.6487 137.3 28.6487C137.128 28.6487 136.97 28.6827 136.826 28.7507C136.686 28.8147 136.56 28.9147 136.448 29.0507H135.938V26.4767H138.566V27.1127H136.67V28.4567H136.484C136.588 28.3167 136.726 28.2087 136.898 28.1327C137.074 28.0567 137.27 28.0187 137.486 28.0187C137.758 28.0187 137.994 28.0747 138.194 28.1867C138.394 28.2987 138.55 28.4567 138.662 28.6607C138.774 28.8607 138.83 29.0967 138.83 29.3687C138.83 29.6447 138.766 29.8887 138.638 30.1007C138.514 30.3087 138.334 30.4727 138.098 30.5927C137.866 30.7087 137.59 30.7667 137.27 30.7667ZM140.988 30.7667C140.456 30.7667 140.044 30.5827 139.752 30.2147C139.464 29.8467 139.32 29.3307 139.32 28.6667C139.32 28.1867 139.394 27.7807 139.542 27.4487C139.69 27.1127 139.9 26.8567 140.172 26.6807C140.448 26.5047 140.778 26.4167 141.162 26.4167C141.39 26.4167 141.616 26.4587 141.84 26.5427C142.064 26.6227 142.256 26.7387 142.416 26.8907L142.158 27.4667C142.01 27.3307 141.85 27.2307 141.678 27.1667C141.506 27.0987 141.332 27.0647 141.156 27.0647C140.796 27.0647 140.522 27.1867 140.334 27.4307C140.146 27.6747 140.052 28.0387 140.052 28.5227V28.9727H139.98C140.012 28.7687 140.08 28.5947 140.184 28.4507C140.288 28.3027 140.422 28.1907 140.586 28.1147C140.75 28.0347 140.932 27.9947 141.132 27.9947C141.38 27.9947 141.6 28.0527 141.792 28.1687C141.984 28.2847 142.134 28.4447 142.242 28.6487C142.354 28.8527 142.41 29.0867 142.41 29.3507C142.41 29.6227 142.348 29.8667 142.224 30.0827C142.104 30.2947 141.938 30.4627 141.726 30.5867C141.514 30.7067 141.268 30.7667 140.988 30.7667ZM140.946 30.1547C141.094 30.1547 141.224 30.1227 141.336 30.0587C141.448 29.9947 141.534 29.9047 141.594 29.7887C141.658 29.6687 141.69 29.5327 141.69 29.3807C141.69 29.2247 141.658 29.0887 141.594 28.9727C141.534 28.8567 141.448 28.7667 141.336 28.7027C141.224 28.6347 141.094 28.6007 140.946 28.6007C140.798 28.6007 140.668 28.6347 140.556 28.7027C140.444 28.7667 140.356 28.8567 140.292 28.9727C140.228 29.0887 140.196 29.2247 140.196 29.3807C140.196 29.5327 140.228 29.6687 140.292 29.7887C140.356 29.9047 140.444 29.9947 140.556 30.0587C140.668 30.1227 140.798 30.1547 140.946 30.1547ZM144.906 30.7067V29.8307H144.396V29.3867H144.906V28.8947H144.396V28.4507H144.906V26.4767H146.34C146.648 26.4767 146.908 26.5287 147.12 26.6327C147.336 26.7367 147.498 26.8807 147.606 27.0647C147.718 27.2487 147.774 27.4647 147.774 27.7127C147.774 27.9607 147.718 28.1727 147.606 28.3487C147.494 28.5247 147.334 28.6607 147.126 28.7567C146.918 28.8487 146.666 28.8947 146.37 28.8947H145.68V29.3867H146.646V29.8307H145.68V30.7067H144.906ZM145.668 28.4507H146.262C146.522 28.4507 146.72 28.3927 146.856 28.2767C146.996 28.1607 147.066 27.9847 147.066 27.7487C147.066 27.5087 146.996 27.3327 146.856 27.2207C146.72 27.1047 146.522 27.0467 146.262 27.0467H145.668V28.4507Z" fill="#1A1A1A"/>
<path d="M7.58824 42.7067V38.4767H9.46624C9.93024 38.4767 10.2842 38.5887 10.5282 38.8127C10.7722 39.0367 10.8942 39.3447 10.8942 39.7367C10.8942 40.1247 10.7722 40.4327 10.5282 40.6607C10.2842 40.8887 9.93024 41.0027 9.46624 41.0027H8.36224V42.7067H7.58824ZM8.36224 40.3907H9.37624C9.63224 40.3907 9.82424 40.3347 9.95224 40.2227C10.0802 40.1067 10.1442 39.9447 10.1442 39.7367C10.1442 39.5287 10.0802 39.3687 9.95224 39.2567C9.82424 39.1407 9.63224 39.0827 9.37624 39.0827H8.36224V40.3907ZM12.9249 42.7667C12.4169 42.7667 12.0189 42.6267 11.7309 42.3467C11.4429 42.0667 11.2989 41.6827 11.2989 41.1947C11.2989 40.8787 11.3609 40.6027 11.4849 40.3667C11.6089 40.1307 11.7809 39.9467 12.0009 39.8147C12.2249 39.6827 12.4849 39.6167 12.7809 39.6167C13.0729 39.6167 13.3169 39.6787 13.5129 39.8027C13.7089 39.9267 13.8569 40.1007 13.9569 40.3247C14.0609 40.5487 14.1129 40.8107 14.1129 41.1107V41.3087H11.9049V40.9127H13.5789L13.4769 40.9967C13.4769 40.7167 13.4169 40.5027 13.2969 40.3547C13.1809 40.2067 13.0109 40.1327 12.7869 40.1327C12.5389 40.1327 12.3469 40.2207 12.2109 40.3967C12.0789 40.5727 12.0129 40.8187 12.0129 41.1347V41.2127C12.0129 41.5407 12.0929 41.7867 12.2529 41.9507C12.4169 42.1107 12.6469 42.1907 12.9429 42.1907C13.1149 42.1907 13.2749 42.1687 13.4229 42.1247C13.5749 42.0767 13.7189 42.0007 13.8549 41.8967L14.0769 42.4007C13.9329 42.5167 13.7609 42.6067 13.5609 42.6707C13.3609 42.7347 13.1489 42.7667 12.9249 42.7667ZM14.806 42.7067V39.6767H15.55V40.8647H16.918V39.6767H17.662V42.7067H16.918V41.4407H15.55V42.7067H14.806ZM19.169 42.7067V40.2647H18.131V39.6767H20.957V40.2647H19.913V42.7067H19.169ZM22.6152 42.7667C22.3512 42.7667 22.1192 42.7047 21.9192 42.5807C21.7192 42.4527 21.5632 42.2707 21.4512 42.0347C21.3392 41.7987 21.2832 41.5167 21.2832 41.1887C21.2832 40.8607 21.3392 40.5807 21.4512 40.3487C21.5632 40.1127 21.7192 39.9327 21.9192 39.8087C22.1192 39.6807 22.3512 39.6167 22.6152 39.6167C22.8712 39.6167 23.0952 39.6807 23.2872 39.8087C23.4832 39.9327 23.6132 40.1007 23.6772 40.3127H23.6112L23.6772 39.6767H24.3972C24.3852 39.8007 24.3732 39.9267 24.3612 40.0547C24.3532 40.1827 24.3492 40.3087 24.3492 40.4327V42.7067H23.6052L23.5992 42.0827H23.6712C23.6072 42.2907 23.4772 42.4567 23.2812 42.5807C23.0852 42.7047 22.8632 42.7667 22.6152 42.7667ZM22.8252 42.1907C23.0612 42.1907 23.2512 42.1087 23.3952 41.9447C23.5392 41.7767 23.6112 41.5247 23.6112 41.1887C23.6112 40.8527 23.5392 40.6027 23.3952 40.4387C23.2512 40.2747 23.0612 40.1927 22.8252 40.1927C22.5892 40.1927 22.3992 40.2747 22.2552 40.4387C22.1112 40.6027 22.0392 40.8527 22.0392 41.1887C22.0392 41.5247 22.1092 41.7767 22.2492 41.9447C22.3932 42.1087 22.5852 42.1907 22.8252 42.1907ZM26.646 42.7667C26.17 42.7667 25.79 42.6227 25.506 42.3347C25.226 42.0467 25.086 41.6247 25.086 41.0687V40.5527C25.086 39.9807 25.216 39.5207 25.476 39.1727C25.736 38.8247 26.128 38.5947 26.652 38.4827L27.762 38.2307L27.966 38.8187L26.718 39.0947C26.51 39.1387 26.338 39.2227 26.202 39.3467C26.066 39.4667 25.964 39.6107 25.896 39.7787C25.828 39.9467 25.794 40.1267 25.794 40.3187V40.6367H25.692C25.736 40.4567 25.81 40.3007 25.914 40.1687C26.018 40.0327 26.15 39.9267 26.31 39.8507C26.47 39.7747 26.652 39.7367 26.856 39.7367C27.112 39.7367 27.336 39.7967 27.528 39.9167C27.724 40.0327 27.878 40.2027 27.99 40.4267C28.102 40.6467 28.158 40.9107 28.158 41.2187C28.158 41.5347 28.094 41.8087 27.966 42.0407C27.842 42.2727 27.666 42.4527 27.438 42.5807C27.214 42.7047 26.95 42.7667 26.646 42.7667ZM26.622 42.1967C26.87 42.1967 27.062 42.1187 27.198 41.9627C27.338 41.8027 27.408 41.5647 27.408 41.2487C27.408 40.9407 27.338 40.7067 27.198 40.5467C27.058 40.3827 26.866 40.3007 26.622 40.3007C26.378 40.3007 26.186 40.3807 26.046 40.5407C25.906 40.7007 25.836 40.9287 25.836 41.2247C25.836 41.5487 25.906 41.7927 26.046 41.9567C26.186 42.1167 26.378 42.1967 26.622 42.1967ZM30.3565 42.7667C29.8485 42.7667 29.4505 42.6267 29.1625 42.3467C28.8745 42.0667 28.7305 41.6827 28.7305 41.1947C28.7305 40.8787 28.7925 40.6027 28.9165 40.3667C29.0405 40.1307 29.2125 39.9467 29.4325 39.8147C29.6565 39.6827 29.9165 39.6167 30.2125 39.6167C30.5045 39.6167 30.7485 39.6787 30.9445 39.8027C31.1405 39.9267 31.2885 40.1007 31.3885 40.3247C31.4925 40.5487 31.5445 40.8107 31.5445 41.1107V41.3087H29.3365V40.9127H31.0105L30.9085 40.9967C30.9085 40.7167 30.8485 40.5027 30.7285 40.3547C30.6125 40.2067 30.4425 40.1327 30.2185 40.1327C29.9705 40.1327 29.7785 40.2207 29.6425 40.3967C29.5105 40.5727 29.4445 40.8187 29.4445 41.1347V41.2127C29.4445 41.5407 29.5245 41.7867 29.6845 41.9507C29.8485 42.1107 30.0785 42.1907 30.3745 42.1907C30.5465 42.1907 30.7065 42.1687 30.8545 42.1247C31.0065 42.0767 31.1505 42.0007 31.2865 41.8967L31.5085 42.4007C31.3645 42.5167 31.1925 42.6067 30.9925 42.6707C30.7925 42.7347 30.5805 42.7667 30.3565 42.7667ZM32.1596 42.7907L31.9256 42.2027C32.0576 42.1547 32.1676 42.0927 32.2556 42.0167C32.3476 41.9367 32.4196 41.8367 32.4716 41.7167C32.5276 41.5927 32.5676 41.4407 32.5916 41.2607C32.6156 41.0767 32.6276 40.8587 32.6276 40.6067V39.6767H35.0396V42.7067H34.2956V40.2527H33.3116V40.6307C33.3116 41.0667 33.2716 41.4327 33.1916 41.7287C33.1116 42.0207 32.9876 42.2527 32.8196 42.4247C32.6516 42.5967 32.4316 42.7187 32.1596 42.7907ZM35.8939 42.7067V39.6767H36.6379V40.6907H37.4359C37.8399 40.6907 38.1439 40.7767 38.3479 40.9487C38.5519 41.1167 38.6539 41.3607 38.6539 41.6807C38.6539 41.8887 38.6059 42.0707 38.5099 42.2267C38.4139 42.3787 38.2739 42.4967 38.0899 42.5807C37.9099 42.6647 37.6919 42.7067 37.4359 42.7067H35.8939ZM36.6379 42.2147H37.3339C37.5379 42.2147 37.6939 42.1727 37.8019 42.0887C37.9099 42.0007 37.9639 41.8687 37.9639 41.6927C37.9639 41.5167 37.9099 41.3887 37.8019 41.3087C37.6979 41.2247 37.5419 41.1827 37.3339 41.1827H36.6379V42.2147ZM39.2806 42.7067V39.6767H40.0246V40.8647H41.3926V39.6767H42.1366V42.7067H41.3926V41.4407H40.0246V42.7067H39.2806ZM44.3816 42.7667C44.0696 42.7667 43.7996 42.7027 43.5716 42.5747C43.3436 42.4467 43.1656 42.2647 43.0376 42.0287C42.9136 41.7927 42.8516 41.5127 42.8516 41.1887C42.8516 40.8647 42.9136 40.5867 43.0376 40.3547C43.1656 40.1187 43.3436 39.9367 43.5716 39.8087C43.7996 39.6807 44.0696 39.6167 44.3816 39.6167C44.6936 39.6167 44.9636 39.6807 45.1916 39.8087C45.4236 39.9367 45.6016 40.1187 45.7256 40.3547C45.8536 40.5867 45.9176 40.8647 45.9176 41.1887C45.9176 41.5127 45.8536 41.7927 45.7256 42.0287C45.6016 42.2647 45.4236 42.4467 45.1916 42.5747C44.9636 42.7027 44.6936 42.7667 44.3816 42.7667ZM44.3816 42.1907C44.6176 42.1907 44.8056 42.1087 44.9456 41.9447C45.0856 41.7767 45.1556 41.5247 45.1556 41.1887C45.1556 40.8527 45.0856 40.6027 44.9456 40.4387C44.8056 40.2747 44.6176 40.1927 44.3816 40.1927C44.1456 40.1927 43.9576 40.2747 43.8176 40.4387C43.6776 40.6027 43.6076 40.8527 43.6076 41.1887C43.6076 41.5247 43.6776 41.7767 43.8176 41.9447C43.9576 42.1087 44.1456 42.1907 44.3816 42.1907ZM48.0443 42.7667C47.7323 42.7667 47.4583 42.7027 47.2223 42.5747C46.9903 42.4467 46.8103 42.2647 46.6823 42.0287C46.5543 41.7887 46.4903 41.5047 46.4903 41.1767C46.4903 40.8487 46.5543 40.5687 46.6823 40.3367C46.8143 40.1047 46.9963 39.9267 47.2283 39.8027C47.4603 39.6787 47.7323 39.6167 48.0443 39.6167C48.2443 39.6167 48.4383 39.6487 48.6263 39.7127C48.8183 39.7727 48.9743 39.8607 49.0943 39.9767L48.8663 40.4987C48.7583 40.3987 48.6363 40.3247 48.5003 40.2767C48.3683 40.2247 48.2383 40.1987 48.1103 40.1987C47.8423 40.1987 47.6323 40.2827 47.4803 40.4507C47.3323 40.6187 47.2583 40.8627 47.2583 41.1827C47.2583 41.5027 47.3323 41.7487 47.4803 41.9207C47.6323 42.0927 47.8423 42.1787 48.1103 42.1787C48.2343 42.1787 48.3623 42.1547 48.4943 42.1067C48.6303 42.0587 48.7543 41.9847 48.8663 41.8847L49.0943 42.4007C48.9703 42.5167 48.8123 42.6067 48.6203 42.6707C48.4323 42.7347 48.2403 42.7667 48.0443 42.7667ZM50.3877 42.7067V40.2647H49.3497V39.6767H52.1757V40.2647H51.1317V42.7067H50.3877ZM52.64 42.7067V39.6767H53.384V40.6907H54.182C54.586 40.6907 54.89 40.7767 55.094 40.9487C55.298 41.1167 55.4 41.3607 55.4 41.6807C55.4 41.8887 55.352 42.0707 55.256 42.2267C55.16 42.3787 55.02 42.4967 54.836 42.5807C54.656 42.6647 54.438 42.7067 54.182 42.7067H52.64ZM53.384 42.2147H54.08C54.284 42.2147 54.44 42.1727 54.548 42.0887C54.656 42.0007 54.71 41.8687 54.71 41.6927C54.71 41.5167 54.656 41.3887 54.548 41.3087C54.444 41.2247 54.288 41.1827 54.08 41.1827H53.384V42.2147ZM57.7152 42.7067V38.4767H59.5632C60.0272 38.4767 60.3852 38.5867 60.6372 38.8067C60.8932 39.0267 61.0212 39.3327 61.0212 39.7247C61.0212 39.9847 60.9632 40.2067 60.8472 40.3907C60.7352 40.5747 60.5732 40.7167 60.3612 40.8167C60.1492 40.9127 59.8992 40.9607 59.6112 40.9607L59.6952 40.8467H59.8992C60.0672 40.8467 60.2172 40.8907 60.3492 40.9787C60.4812 41.0667 60.5892 41.2007 60.6732 41.3807L61.2912 42.7067H60.4392L59.8152 41.3327C59.7592 41.1927 59.6732 41.1007 59.5572 41.0567C59.4452 41.0127 59.3092 40.9907 59.1492 40.9907H58.4892V42.7067H57.7152ZM58.4892 40.4207H59.4372C59.7092 40.4207 59.9152 40.3647 60.0552 40.2527C60.1992 40.1367 60.2712 39.9687 60.2712 39.7487C60.2712 39.5287 60.1992 39.3627 60.0552 39.2507C59.9152 39.1387 59.7092 39.0827 59.4372 39.0827H58.4892V40.4207ZM61.7608 40.5887C61.7608 40.1447 61.8408 39.7607 62.0008 39.4367C62.1648 39.1127 62.3988 38.8627 62.7028 38.6867C63.0068 38.5067 63.3688 38.4167 63.7888 38.4167C64.2048 38.4167 64.5648 38.5067 64.8688 38.6867C65.1728 38.8627 65.4068 39.1127 65.5708 39.4367C65.7388 39.7607 65.8228 40.1427 65.8228 40.5827C65.8228 41.0267 65.7388 41.4127 65.5708 41.7407C65.4068 42.0647 65.1728 42.3167 64.8688 42.4967C64.5648 42.6767 64.2048 42.7667 63.7888 42.7667C63.3688 42.7667 63.0068 42.6767 62.7028 42.4967C62.4028 42.3167 62.1708 42.0647 62.0068 41.7407C61.8428 41.4127 61.7608 41.0287 61.7608 40.5887ZM62.5708 40.5887C62.5708 41.0647 62.6728 41.4367 62.8768 41.7047C63.0808 41.9727 63.3848 42.1067 63.7888 42.1067C64.1808 42.1067 64.4828 41.9727 64.6948 41.7047C64.9068 41.4367 65.0128 41.0647 65.0128 40.5887C65.0128 40.1087 64.9068 39.7367 64.6948 39.4727C64.4868 39.2087 64.1848 39.0767 63.7888 39.0767C63.3848 39.0767 63.0808 39.2087 62.8768 39.4727C62.6728 39.7367 62.5708 40.1087 62.5708 40.5887ZM66.6214 42.7067V38.4767H67.3954V42.7067H66.6214Z" fill="#1A1A1A"/>
<path d="M133.853 42.7067L135.905 38.8547V39.1247H133.661V38.4767H136.619V39.0527L134.699 42.7067H133.853ZM138.669 42.7667C138.377 42.7667 138.097 42.7247 137.829 42.6407C137.561 42.5527 137.341 42.4327 137.169 42.2807L137.421 41.6987C137.609 41.8427 137.803 41.9487 138.003 42.0167C138.207 42.0847 138.421 42.1187 138.645 42.1187C138.917 42.1187 139.123 42.0647 139.263 41.9567C139.403 41.8487 139.473 41.6907 139.473 41.4827C139.473 41.2827 139.403 41.1327 139.263 41.0327C139.127 40.9287 138.927 40.8767 138.663 40.8767H137.979V40.2587H138.597C138.825 40.2587 139.007 40.2027 139.143 40.0907C139.279 39.9787 139.347 39.8247 139.347 39.6287C139.347 39.4447 139.283 39.3047 139.155 39.2087C139.031 39.1127 138.851 39.0647 138.615 39.0647C138.191 39.0647 137.817 39.2087 137.493 39.4967L137.241 38.9207C137.413 38.7607 137.625 38.6367 137.877 38.5487C138.133 38.4607 138.401 38.4167 138.681 38.4167C139.121 38.4167 139.465 38.5167 139.713 38.7167C139.965 38.9127 140.091 39.1867 140.091 39.5387C140.091 39.7907 140.019 40.0087 139.875 40.1927C139.735 40.3727 139.541 40.4927 139.293 40.5527V40.4807C139.585 40.5287 139.811 40.6487 139.971 40.8407C140.135 41.0287 140.217 41.2647 140.217 41.5487C140.217 41.9247 140.079 42.2227 139.803 42.4427C139.527 42.6587 139.149 42.7667 138.669 42.7667ZM144.105 42.7067H143.463L145.959 38.4767H146.601L144.105 42.7067ZM143.511 41.0027C143.171 41.0027 142.905 40.8867 142.713 40.6547C142.521 40.4227 142.425 40.1067 142.425 39.7067C142.425 39.3027 142.521 38.9867 142.713 38.7587C142.909 38.5307 143.175 38.4167 143.511 38.4167C143.851 38.4167 144.117 38.5327 144.309 38.7647C144.501 38.9967 144.597 39.3107 144.597 39.7067C144.597 40.1067 144.501 40.4227 144.309 40.6547C144.117 40.8867 143.851 41.0027 143.511 41.0027ZM143.511 40.5227C143.659 40.5227 143.773 40.4567 143.853 40.3247C143.937 40.1927 143.979 39.9867 143.979 39.7067C143.979 39.4227 143.937 39.2187 143.853 39.0947C143.773 38.9667 143.659 38.9027 143.511 38.9027C143.363 38.9027 143.247 38.9647 143.163 39.0887C143.083 39.2127 143.043 39.4187 143.043 39.7067C143.043 39.9947 143.083 40.2027 143.163 40.3307C143.247 40.4587 143.363 40.5227 143.511 40.5227ZM146.553 42.7667C146.213 42.7667 145.947 42.6507 145.755 42.4187C145.563 42.1827 145.467 41.8647 145.467 41.4647C145.467 41.0607 145.563 40.7467 145.755 40.5227C145.951 40.2947 146.217 40.1807 146.553 40.1807C146.893 40.1807 147.159 40.2967 147.351 40.5287C147.543 40.7567 147.639 41.0687 147.639 41.4647C147.639 41.8647 147.543 42.1827 147.351 42.4187C147.159 42.6507 146.893 42.7667 146.553 42.7667ZM146.553 42.2807C146.701 42.2807 146.815 42.2167 146.895 42.0887C146.979 41.9567 147.021 41.7487 147.021 41.4647C147.021 41.1807 146.979 40.9767 146.895 40.8527C146.815 40.7247 146.701 40.6607 146.553 40.6607C146.405 40.6607 146.289 40.7247 146.205 40.8527C146.125 40.9767 146.085 41.1807 146.085 41.4647C146.085 41.7527 146.125 41.9607 146.205 42.0887C146.289 42.2167 146.405 42.2807 146.553 42.2807Z" fill="#1A1A1A"/>
<path d="M7.59424 54.7067V50.4767H8.27224L9.82624 53.9747H9.64024L11.1942 50.4767H11.8662V54.7067H11.1642V51.5687H11.3802L9.95824 54.7067H9.49624L8.07424 51.5687H8.29624V54.7067H7.59424ZM13.9609 54.7667C13.6969 54.7667 13.4649 54.7047 13.2649 54.5807C13.0649 54.4527 12.9089 54.2707 12.7969 54.0347C12.6849 53.7987 12.6289 53.5167 12.6289 53.1887C12.6289 52.8607 12.6849 52.5807 12.7969 52.3487C12.9089 52.1127 13.0649 51.9327 13.2649 51.8087C13.4649 51.6807 13.6969 51.6167 13.9609 51.6167C14.2169 51.6167 14.4409 51.6807 14.6329 51.8087C14.8289 51.9327 14.9589 52.1007 15.0229 52.3127H14.9569L15.0229 51.6767H15.7429C15.7309 51.8007 15.7189 51.9267 15.7069 52.0547C15.6989 52.1827 15.6949 52.3087 15.6949 52.4327V54.7067H14.9509L14.9449 54.0827H15.0169C14.9529 54.2907 14.8229 54.4567 14.6269 54.5807C14.4309 54.7047 14.2089 54.7667 13.9609 54.7667ZM14.1709 54.1907C14.4069 54.1907 14.5969 54.1087 14.7409 53.9447C14.8849 53.7767 14.9569 53.5247 14.9569 53.1887C14.9569 52.8527 14.8849 52.6027 14.7409 52.4387C14.5969 52.2747 14.4069 52.1927 14.1709 52.1927C13.9349 52.1927 13.7449 52.2747 13.6009 52.4387C13.4569 52.6027 13.3849 52.8527 13.3849 53.1887C13.3849 53.5247 13.4549 53.7767 13.5949 53.9447C13.7389 54.1087 13.9309 54.1907 14.1709 54.1907ZM16.5937 56.0027V52.4327C16.5937 52.3087 16.5897 52.1827 16.5817 52.0547C16.5737 51.9267 16.5617 51.8007 16.5457 51.6767H17.2717L17.3377 52.3127H17.2717C17.3317 52.1007 17.4577 51.9327 17.6497 51.8087C17.8457 51.6807 18.0717 51.6167 18.3277 51.6167C18.5957 51.6167 18.8297 51.6807 19.0297 51.8087C19.2297 51.9327 19.3857 52.1127 19.4977 52.3487C19.6097 52.5807 19.6657 52.8607 19.6657 53.1887C19.6657 53.5167 19.6097 53.7987 19.4977 54.0347C19.3857 54.2707 19.2297 54.4527 19.0297 54.5807C18.8297 54.7047 18.5957 54.7667 18.3277 54.7667C18.0757 54.7667 17.8537 54.7047 17.6617 54.5807C17.4697 54.4567 17.3417 54.2907 17.2777 54.0827H17.3437V56.0027H16.5937ZM18.1177 54.1907C18.3577 54.1907 18.5497 54.1087 18.6937 53.9447C18.8377 53.7767 18.9097 53.5247 18.9097 53.1887C18.9097 52.8527 18.8377 52.6027 18.6937 52.4387C18.5497 52.2747 18.3577 52.1927 18.1177 52.1927C17.8817 52.1927 17.6917 52.2747 17.5477 52.4387C17.4037 52.6027 17.3317 52.8527 17.3317 53.1887C17.3317 53.5247 17.4037 53.7767 17.5477 53.9447C17.6917 54.1087 17.8817 54.1907 18.1177 54.1907ZM19.9164 54.7067L20.5524 53.5727C20.6324 53.4407 20.7084 53.3327 20.7804 53.2487C20.8564 53.1607 20.9384 53.0927 21.0264 53.0447C21.1144 52.9967 21.2144 52.9667 21.3264 52.9547L21.1704 53.1887L20.0484 51.6767H20.8524L21.7464 52.8647H22.1244V51.6767H22.8684V52.8647H23.2404L24.1284 51.6767H24.9384L23.8104 53.1887L23.6544 52.9547C23.7664 52.9667 23.8664 52.9967 23.9544 53.0447C24.0424 53.0927 24.1244 53.1607 24.2004 53.2487C24.2804 53.3327 24.3584 53.4407 24.4344 53.5727L25.0704 54.7067H24.2724L23.7564 53.7947C23.7044 53.7027 23.6524 53.6307 23.6004 53.5787C23.5484 53.5267 23.4904 53.4907 23.4264 53.4707C23.3624 53.4507 23.2844 53.4407 23.1924 53.4407H22.8684V54.7067H22.1244V53.4407H21.7944C21.7024 53.4407 21.6244 53.4507 21.5604 53.4707C21.4964 53.4907 21.4384 53.5267 21.3864 53.5787C21.3384 53.6307 21.2864 53.7027 21.2304 53.7947L20.7144 54.7067H19.9164ZM25.4642 54.7067V51.6767H26.1422V53.9687H25.9622L27.6842 51.6767H28.3022V54.7067H27.6242V52.4087H27.8102L26.0822 54.7067H25.4642ZM29.1556 54.7067V51.6767H29.8996V52.8647H31.2676V51.6767H32.0116V54.7067H31.2676V53.4407H29.8996V54.7067H29.1556ZM34.0586 54.7667C33.7946 54.7667 33.5626 54.7047 33.3626 54.5807C33.1626 54.4527 33.0066 54.2707 32.8946 54.0347C32.7826 53.7987 32.7266 53.5167 32.7266 53.1887C32.7266 52.8607 32.7826 52.5807 32.8946 52.3487C33.0066 52.1127 33.1626 51.9327 33.3626 51.8087C33.5626 51.6807 33.7946 51.6167 34.0586 51.6167C34.3146 51.6167 34.5386 51.6807 34.7306 51.8087C34.9266 51.9327 35.0566 52.1007 35.1206 52.3127H35.0546L35.1206 51.6767H35.8406C35.8286 51.8007 35.8166 51.9267 35.8046 52.0547C35.7966 52.1827 35.7926 52.3087 35.7926 52.4327V54.7067H35.0486L35.0426 54.0827H35.1146C35.0506 54.2907 34.9206 54.4567 34.7246 54.5807C34.5286 54.7047 34.3066 54.7667 34.0586 54.7667ZM34.2686 54.1907C34.5046 54.1907 34.6946 54.1087 34.8386 53.9447C34.9826 53.7767 35.0546 53.5247 35.0546 53.1887C35.0546 52.8527 34.9826 52.6027 34.8386 52.4387C34.6946 52.2747 34.5046 52.1927 34.2686 52.1927C34.0326 52.1927 33.8426 52.2747 33.6986 52.4387C33.5546 52.6027 33.4826 52.8527 33.4826 53.1887C33.4826 53.5247 33.5526 53.7767 33.6926 53.9447C33.8366 54.1087 34.0286 54.1907 34.2686 54.1907ZM36.5893 54.7907L36.3553 54.2027C36.4873 54.1547 36.5973 54.0927 36.6853 54.0167C36.7773 53.9367 36.8493 53.8367 36.9013 53.7167C36.9573 53.5927 36.9973 53.4407 37.0213 53.2607C37.0453 53.0767 37.0573 52.8587 37.0573 52.6067V51.6767H39.4693V54.7067H38.7253V52.2527H37.7413V52.6307C37.7413 53.0667 37.7013 53.4327 37.6213 53.7287C37.5413 54.0207 37.4173 54.2527 37.2493 54.4247C37.0813 54.5967 36.8613 54.7187 36.5893 54.7907ZM40.3236 54.7067V51.6767H41.0676V52.6907H41.8656C42.2696 52.6907 42.5736 52.7767 42.7776 52.9487C42.9816 53.1167 43.0836 53.3607 43.0836 53.6807C43.0836 53.8887 43.0356 54.0707 42.9396 54.2267C42.8436 54.3787 42.7036 54.4967 42.5196 54.5807C42.3396 54.6647 42.1216 54.7067 41.8656 54.7067H40.3236ZM41.0676 54.2147H41.7636C41.9676 54.2147 42.1236 54.1727 42.2316 54.0887C42.3396 54.0007 42.3936 53.8687 42.3936 53.6927C42.3936 53.5167 42.3396 53.3887 42.2316 53.3087C42.1276 53.2247 41.9716 53.1827 41.7636 53.1827H41.0676V54.2147ZM43.7103 54.7067V51.6767H44.4543V52.8647H45.8223V51.6767H46.5663V54.7067H45.8223V53.4407H44.4543V54.7067H43.7103ZM48.8113 54.7667C48.4993 54.7667 48.2293 54.7027 48.0013 54.5747C47.7733 54.4467 47.5953 54.2647 47.4673 54.0287C47.3433 53.7927 47.2813 53.5127 47.2813 53.1887C47.2813 52.8647 47.3433 52.5867 47.4673 52.3547C47.5953 52.1187 47.7733 51.9367 48.0013 51.8087C48.2293 51.6807 48.4993 51.6167 48.8113 51.6167C49.1233 51.6167 49.3933 51.6807 49.6213 51.8087C49.8533 51.9367 50.0313 52.1187 50.1553 52.3547C50.2833 52.5867 50.3473 52.8647 50.3473 53.1887C50.3473 53.5127 50.2833 53.7927 50.1553 54.0287C50.0313 54.2647 49.8533 54.4467 49.6213 54.5747C49.3933 54.7027 49.1233 54.7667 48.8113 54.7667ZM48.8113 54.1907C49.0473 54.1907 49.2353 54.1087 49.3753 53.9447C49.5153 53.7767 49.5853 53.5247 49.5853 53.1887C49.5853 52.8527 49.5153 52.6027 49.3753 52.4387C49.2353 52.2747 49.0473 52.1927 48.8113 52.1927C48.5753 52.1927 48.3873 52.2747 48.2473 52.4387C48.1073 52.6027 48.0373 52.8527 48.0373 53.1887C48.0373 53.5247 48.1073 53.7767 48.2473 53.9447C48.3873 54.1087 48.5753 54.1907 48.8113 54.1907ZM52.474 54.7667C52.162 54.7667 51.888 54.7027 51.652 54.5747C51.42 54.4467 51.24 54.2647 51.112 54.0287C50.984 53.7887 50.92 53.5047 50.92 53.1767C50.92 52.8487 50.984 52.5687 51.112 52.3367C51.244 52.1047 51.426 51.9267 51.658 51.8027C51.89 51.6787 52.162 51.6167 52.474 51.6167C52.674 51.6167 52.868 51.6487 53.056 51.7127C53.248 51.7727 53.404 51.8607 53.524 51.9767L53.296 52.4987C53.188 52.3987 53.066 52.3247 52.93 52.2767C52.798 52.2247 52.668 52.1987 52.54 52.1987C52.272 52.1987 52.062 52.2827 51.91 52.4507C51.762 52.6187 51.688 52.8627 51.688 53.1827C51.688 53.5027 51.762 53.7487 51.91 53.9207C52.062 54.0927 52.272 54.1787 52.54 54.1787C52.664 54.1787 52.792 54.1547 52.924 54.1067C53.06 54.0587 53.184 53.9847 53.296 53.8847L53.524 54.4007C53.4 54.5167 53.242 54.6067 53.05 54.6707C52.862 54.7347 52.67 54.7667 52.474 54.7667ZM54.8174 54.7067V52.2647H53.7794V51.6767H56.6054V52.2647H55.5614V54.7067H54.8174ZM57.0697 54.7067V51.6767H57.8137V52.6907H58.6117C59.0157 52.6907 59.3197 52.7767 59.5237 52.9487C59.7277 53.1167 59.8297 53.3607 59.8297 53.6807C59.8297 53.8887 59.7817 54.0707 59.6857 54.2267C59.5897 54.3787 59.4497 54.4967 59.2657 54.5807C59.0857 54.6647 58.8677 54.7067 58.6117 54.7067H57.0697ZM57.8137 54.2147H58.5097C58.7137 54.2147 58.8697 54.1727 58.9777 54.0887C59.0857 54.0007 59.1397 53.8687 59.1397 53.6927C59.1397 53.5167 59.0857 53.3887 58.9777 53.3087C58.8737 53.2247 58.7177 53.1827 58.5097 53.1827H57.8137V54.2147Z" fill="#1A1A1A"/>
<path d="M135.473 54.7067V53.8787H133.583V53.3387L135.593 50.4767H136.217V53.2907H136.823V53.8787H136.217V54.7067H135.473ZM135.473 53.2907V51.3887H135.617L134.159 53.4707V53.2907H135.473ZM137.403 54.7067V54.1367L138.807 52.6727C138.983 52.4887 139.113 52.3187 139.197 52.1627C139.281 52.0067 139.323 51.8467 139.323 51.6827C139.323 51.4787 139.259 51.3247 139.131 51.2207C139.003 51.1167 138.817 51.0647 138.573 51.0647C138.377 51.0647 138.189 51.1007 138.009 51.1727C137.829 51.2407 137.653 51.3487 137.481 51.4967L137.229 50.9207C137.401 50.7687 137.613 50.6467 137.865 50.5547C138.121 50.4627 138.389 50.4167 138.669 50.4167C139.125 50.4167 139.475 50.5187 139.719 50.7227C139.963 50.9267 140.085 51.2187 140.085 51.5987C140.085 51.8627 140.023 52.1147 139.899 52.3547C139.775 52.5907 139.583 52.8387 139.323 53.0987L138.153 54.2687V54.0647H140.253V54.7067H137.403ZM144.105 54.7067H143.463L145.959 50.4767H146.601L144.105 54.7067ZM143.511 53.0027C143.171 53.0027 142.905 52.8867 142.713 52.6547C142.521 52.4227 142.425 52.1067 142.425 51.7067C142.425 51.3027 142.521 50.9867 142.713 50.7587C142.909 50.5307 143.175 50.4167 143.511 50.4167C143.851 50.4167 144.117 50.5327 144.309 50.7647C144.501 50.9967 144.597 51.3107 144.597 51.7067C144.597 52.1067 144.501 52.4227 144.309 52.6547C144.117 52.8867 143.851 53.0027 143.511 53.0027ZM143.511 52.5227C143.659 52.5227 143.773 52.4567 143.853 52.3247C143.937 52.1927 143.979 51.9867 143.979 51.7067C143.979 51.4227 143.937 51.2187 143.853 51.0947C143.773 50.9667 143.659 50.9027 143.511 50.9027C143.363 50.9027 143.247 50.9647 143.163 51.0887C143.083 51.2127 143.043 51.4187 143.043 51.7067C143.043 51.9947 143.083 52.2027 143.163 52.3307C143.247 52.4587 143.363 52.5227 143.511 52.5227ZM146.553 54.7667C146.213 54.7667 145.947 54.6507 145.755 54.4187C145.563 54.1827 145.467 53.8647 145.467 53.4647C145.467 53.0607 145.563 52.7467 145.755 52.5227C145.951 52.2947 146.217 52.1807 146.553 52.1807C146.893 52.1807 147.159 52.2967 147.351 52.5287C147.543 52.7567 147.639 53.0687 147.639 53.4647C147.639 53.8647 147.543 54.1827 147.351 54.4187C147.159 54.6507 146.893 54.7667 146.553 54.7667ZM146.553 54.2807C146.701 54.2807 146.815 54.2167 146.895 54.0887C146.979 53.9567 147.021 53.7487 147.021 53.4647C147.021 53.1807 146.979 52.9767 146.895 52.8527C146.815 52.7247 146.701 52.6607 146.553 52.6607C146.405 52.6607 146.289 52.7247 146.205 52.8527C146.125 52.9767 146.085 53.1807 146.085 53.4647C146.085 53.7527 146.125 53.9607 146.205 54.0887C146.289 54.2167 146.405 54.2807 146.553 54.2807Z" fill="#1A1A1A"/>
<path d="M7.12024 64.2933H147.88" stroke="black" stroke-opacity="0.1" strokeWidth="0.5"/>
<path d="M9.90203 77.8798V76.3241C9.7904 76.3781 9.64996 76.4213 9.48071 76.4538C9.31146 76.4862 9.14221 76.5024 8.97297 76.5024C8.46882 76.5024 8.08351 76.3727 7.81704 76.1135C7.55416 75.8506 7.42273 75.4563 7.42273 74.9305V74.0717H7.97908V74.8981C7.97908 75.287 8.06551 75.5715 8.23836 75.7516C8.41481 75.928 8.67948 76.0162 9.03238 76.0162C9.18363 76.0162 9.33307 76.0018 9.48071 75.973C9.62835 75.9442 9.76879 75.8956 9.90203 75.8272V74.0717H10.4584V77.8798H9.90203ZM11.3182 77.8798V75.1574H11.8151V77.3558H11.6639L13.3059 75.1574H13.7597V77.8798H13.2681V75.6759H13.4248L11.7719 77.8798H11.3182ZM15.7934 77.9284C15.5197 77.9284 15.2803 77.8726 15.075 77.7609C14.8734 77.6457 14.7167 77.4818 14.6051 77.2694C14.497 77.0533 14.443 76.7977 14.443 76.5024C14.443 76.2107 14.4988 75.9604 14.6105 75.7516C14.7221 75.5427 14.8788 75.3843 15.0804 75.2762C15.2821 75.1646 15.5197 75.1088 15.7934 75.1088C15.9699 75.1088 16.1409 75.1394 16.3066 75.2006C16.4722 75.2582 16.609 75.341 16.7171 75.4491L16.5388 75.8326C16.438 75.7354 16.3246 75.6633 16.1985 75.6165C16.0725 75.5661 15.9501 75.5409 15.8312 75.5409C15.572 75.5409 15.3685 75.6237 15.2209 75.7894C15.0732 75.955 14.9994 76.1945 14.9994 76.5078C14.9994 76.8247 15.0732 77.0677 15.2209 77.237C15.3685 77.4062 15.572 77.4909 15.8312 77.4909C15.9465 77.4909 16.0671 77.4692 16.1931 77.426C16.3192 77.3792 16.4344 77.3054 16.5388 77.2046L16.7171 77.5881C16.6054 77.6961 16.465 77.7807 16.2958 77.8419C16.1301 77.8996 15.9627 77.9284 15.7934 77.9284ZM17.9202 77.8798V75.5949H16.9588V75.1574H19.4273V75.5949H18.4604V77.8798H17.9202ZM20.9277 77.9284C20.6864 77.9284 20.4757 77.8726 20.2957 77.7609C20.1156 77.6493 19.9752 77.4872 19.8744 77.2748C19.7771 77.0623 19.7285 76.8103 19.7285 76.5186C19.7285 76.2233 19.7771 75.9712 19.8744 75.7624C19.9752 75.5535 20.1156 75.3933 20.2957 75.2816C20.4757 75.1664 20.6864 75.1088 20.9277 75.1088C21.1653 75.1088 21.3724 75.1682 21.5488 75.287C21.7253 75.4059 21.8423 75.5679 21.8999 75.7732H21.8405L21.8945 75.1574H22.4239C22.4131 75.269 22.4023 75.3807 22.3915 75.4923C22.3843 75.6003 22.3807 75.7065 22.3807 75.811V77.8798H21.8351V77.2748H21.8945C21.8369 77.4764 21.7181 77.6367 21.538 77.7555C21.3616 77.8708 21.1581 77.9284 20.9277 77.9284ZM21.0627 77.5017C21.2968 77.5017 21.484 77.4188 21.6245 77.2532C21.7685 77.0875 21.8405 76.8427 21.8405 76.5186C21.8405 76.1945 21.7685 75.9514 21.6245 75.7894C21.484 75.6237 21.2968 75.5409 21.0627 75.5409C20.825 75.5409 20.6342 75.6237 20.4901 75.7894C20.3497 75.9514 20.2795 76.1945 20.2795 76.5186C20.2795 76.8427 20.3497 77.0875 20.4901 77.2532C20.6306 77.4188 20.8214 77.5017 21.0627 77.5017ZM22.997 77.8798L23.4237 77.1452C23.4921 77.0263 23.5785 76.9309 23.6829 76.8589C23.791 76.7832 23.9008 76.7454 24.0124 76.7454H24.1097L24.1043 76.7995C23.7946 76.7995 23.5533 76.7292 23.3805 76.5888C23.2076 76.4484 23.1212 76.2467 23.1212 75.9838C23.1212 75.7209 23.2076 75.5175 23.3805 75.3734C23.5533 75.2294 23.8072 75.1574 24.1421 75.1574H25.4168V77.8798H24.9145V76.8697H24.5526C24.4158 76.8697 24.2987 76.9039 24.2015 76.9723C24.1079 77.0407 24.0304 77.1307 23.9692 77.2424L23.6019 77.8798H22.997ZM24.2393 76.5024H24.9145V75.5247H24.2393C24.0376 75.5247 23.8864 75.5679 23.7856 75.6543C23.6883 75.7408 23.6397 75.8596 23.6397 76.0108C23.6397 76.1693 23.6883 76.2917 23.7856 76.3781C23.8864 76.461 24.0376 76.5024 24.2393 76.5024ZM27.6757 77.8798V75.1574H30.1172V77.8798H29.5771V75.5841H28.2159V77.8798H27.6757ZM30.9573 79.0465V75.811C30.9573 75.7065 30.9519 75.6003 30.941 75.4923C30.9338 75.3807 30.9248 75.269 30.914 75.1574H31.4434L31.4974 75.7732H31.438C31.4956 75.5679 31.6108 75.4059 31.7837 75.287C31.9601 75.1682 32.169 75.1088 32.4103 75.1088C32.6515 75.1088 32.8622 75.1664 33.0422 75.2816C33.2223 75.3933 33.3609 75.5535 33.4582 75.7624C33.559 75.9712 33.6094 76.2233 33.6094 76.5186C33.6094 76.8103 33.559 77.0623 33.4582 77.2748C33.3609 77.4872 33.2223 77.6493 33.0422 77.7609C32.8622 77.8726 32.6515 77.9284 32.4103 77.9284C32.1726 77.9284 31.9655 77.8708 31.7891 77.7555C31.6162 77.6367 31.501 77.4764 31.4434 77.2748H31.5028V79.0465H30.9573ZM32.2752 77.5017C32.5129 77.5017 32.7019 77.4188 32.8424 77.2532C32.9864 77.0875 33.0585 76.8427 33.0585 76.5186C33.0585 76.1945 32.9864 75.9514 32.8424 75.7894C32.7019 75.6237 32.5129 75.5409 32.2752 75.5409C32.0376 75.5409 31.8467 75.6237 31.7027 75.7894C31.5622 75.9514 31.492 76.1945 31.492 76.5186C31.492 76.8427 31.5622 77.0875 31.7027 77.2532C31.8467 77.4188 32.0376 77.5017 32.2752 77.5017ZM34.2905 77.8798V75.1574H34.7874V77.3558H34.6362L36.2783 75.1574H36.732V77.8798H36.2405V75.6759H36.3971L34.7442 77.8798H34.2905ZM38.7604 77.9284C38.3498 77.9284 38.0222 77.8005 37.7773 77.5449C37.536 77.2892 37.4154 76.9129 37.4154 76.4159V75.946C37.4154 75.4383 37.5234 75.0296 37.7395 74.7199C37.9591 74.4102 38.2976 74.2013 38.755 74.0933L39.7488 73.8556L39.9055 74.2931L38.7928 74.5524C38.5983 74.5956 38.4381 74.6767 38.312 74.7955C38.186 74.9143 38.0906 75.0548 38.0258 75.2168C37.9645 75.3789 37.9339 75.5517 37.9339 75.7354V75.9838H37.8529C37.8961 75.8182 37.9645 75.6777 38.0582 75.5625C38.1554 75.4437 38.2742 75.3518 38.4147 75.287C38.5587 75.2186 38.7189 75.1844 38.8954 75.1844C39.1295 75.1844 39.3347 75.2384 39.5112 75.3464C39.6876 75.4545 39.8245 75.6111 39.9217 75.8164C40.0225 76.018 40.0729 76.2575 40.0729 76.5348C40.0729 76.8229 40.0189 77.0713 39.9109 77.2802C39.8029 77.489 39.6498 77.6493 39.4518 77.7609C39.2573 77.8726 39.0268 77.9284 38.7604 77.9284ZM38.7442 77.5071C38.989 77.5071 39.1799 77.4278 39.3167 77.2694C39.4572 77.1073 39.5274 76.8697 39.5274 76.5564C39.5274 76.2467 39.4572 76.0108 39.3167 75.8488C39.1763 75.6867 38.9854 75.6057 38.7442 75.6057C38.5029 75.6057 38.312 75.6867 38.1716 75.8488C38.0312 76.0072 37.9609 76.2341 37.9609 76.5294C37.9609 76.8535 38.0294 77.0983 38.1662 77.264C38.3066 77.426 38.4993 77.5071 38.7442 77.5071ZM40.7523 77.8798V75.1574H41.2925V76.1081H42.0649C42.4214 76.1081 42.6897 76.1837 42.8697 76.3349C43.0498 76.4826 43.1398 76.6986 43.1398 76.9831C43.1398 77.1668 43.0984 77.327 43.0155 77.4638C42.9327 77.5971 42.8103 77.6997 42.6482 77.7717C42.4898 77.8438 42.2953 77.8798 42.0649 77.8798H40.7523ZM41.2925 77.5071H42.0055C42.2107 77.5071 42.3656 77.4656 42.47 77.3828C42.578 77.2964 42.632 77.165 42.632 76.9885C42.632 76.8121 42.578 76.6842 42.47 76.605C42.3656 76.5222 42.2107 76.4808 42.0055 76.4808H41.2925V77.5071ZM43.5233 77.8798V75.1574H44.0634V77.8798H43.5233ZM44.7639 77.95L44.5802 77.5179C44.7027 77.4674 44.8053 77.4044 44.8881 77.3288C44.9745 77.2496 45.0411 77.1488 45.088 77.0263C45.1384 76.9039 45.1744 76.7526 45.196 76.5726C45.2176 76.3925 45.2284 76.1747 45.2284 75.919V75.1574H47.281V77.8798H46.7408V75.5841H45.7307V75.9352C45.7307 76.3457 45.6983 76.686 45.6335 76.9561C45.5687 77.2262 45.4643 77.4404 45.3202 77.5989C45.1798 77.7537 44.9943 77.8708 44.7639 77.95ZM48.1003 77.8798V75.1574H48.6404V76.1081H49.4129C49.7694 76.1081 50.0376 76.1837 50.2177 76.3349C50.3977 76.4826 50.4878 76.6986 50.4878 76.9831C50.4878 77.1668 50.4464 77.327 50.3635 77.4638C50.2807 77.5971 50.1583 77.6997 49.9962 77.7717C49.8378 77.8438 49.6433 77.8798 49.4129 77.8798H48.1003ZM48.6404 77.5071H49.3534C49.5551 77.5071 49.7099 77.4656 49.818 77.3828C49.926 77.2964 49.98 77.165 49.98 76.9885C49.98 76.8121 49.926 76.6842 49.818 76.605C49.7135 76.5222 49.5587 76.4808 49.3534 76.4808H48.6404V77.5071Z" fill="#1A1A1A"/>
<path d="M125.339 77.8798L127.165 74.4514V74.6917H125.168V74.115H127.801V74.6276L126.092 77.8798H125.339ZM129.983 77.8798V77.1428H128.301V76.6622L130.09 74.115H130.645V76.6195H131.185V77.1428H130.645V77.8798H129.983ZM129.983 76.6195V74.9267H130.111L128.813 76.7797V76.6195H129.983ZM134.351 77.9332C133.91 77.9332 133.57 77.7658 133.331 77.4312C133.093 77.093 132.974 76.6124 132.974 75.9893C132.974 75.3592 133.093 74.8804 133.331 74.5528C133.57 74.2253 133.91 74.0616 134.351 74.0616C134.796 74.0616 135.136 74.2253 135.371 74.5528C135.61 74.8804 135.729 75.3574 135.729 75.984C135.729 76.6106 135.61 77.093 135.371 77.4312C135.136 77.7658 134.796 77.9332 134.351 77.9332ZM134.351 77.3671C134.593 77.3671 134.773 77.2567 134.891 77.036C135.008 76.8117 135.067 76.4611 135.067 75.984C135.067 75.507 135.008 75.1616 134.891 74.948C134.773 74.7309 134.593 74.6223 134.351 74.6223C134.113 74.6223 133.933 74.7309 133.812 74.948C133.695 75.1616 133.636 75.507 133.636 75.984C133.636 76.4611 133.695 76.8117 133.812 77.036C133.933 77.2567 134.113 77.3671 134.351 77.3671ZM137.553 77.9332C137.112 77.9332 136.772 77.7658 136.533 77.4312C136.295 77.093 136.176 76.6124 136.176 75.9893C136.176 75.3592 136.295 74.8804 136.533 74.5528C136.772 74.2253 137.112 74.0616 137.553 74.0616C137.998 74.0616 138.338 74.2253 138.573 74.5528C138.812 74.8804 138.931 75.3574 138.931 75.984C138.931 76.6106 138.812 77.093 138.573 77.4312C138.338 77.7658 137.998 77.9332 137.553 77.9332ZM137.553 77.3671C137.795 77.3671 137.975 77.2567 138.093 77.036C138.21 76.8117 138.269 76.4611 138.269 75.984C138.269 75.507 138.21 75.1616 138.093 74.948C137.975 74.7309 137.795 74.6223 137.553 74.6223C137.315 74.6223 137.135 74.7309 137.014 74.948C136.897 75.1616 136.838 75.507 136.838 75.984C136.838 76.4611 136.897 76.8117 137.014 77.036C137.135 77.2567 137.315 77.3671 137.553 77.3671ZM140.755 77.9332C140.314 77.9332 139.974 77.7658 139.735 77.4312C139.497 77.093 139.378 76.6124 139.378 75.9893C139.378 75.3592 139.497 74.8804 139.735 74.5528C139.974 74.2253 140.314 74.0616 140.755 74.0616C141.2 74.0616 141.54 74.2253 141.775 74.5528C142.014 74.8804 142.133 75.3574 142.133 75.984C142.133 76.6106 142.014 77.093 141.775 77.4312C141.54 77.7658 141.2 77.9332 140.755 77.9332ZM140.755 77.3671C140.997 77.3671 141.177 77.2567 141.295 77.036C141.412 76.8117 141.471 76.4611 141.471 75.984C141.471 75.507 141.412 75.1616 141.295 74.948C141.177 74.7309 140.997 74.6223 140.755 74.6223C140.517 74.6223 140.337 74.7309 140.216 74.948C140.099 75.1616 140.04 75.507 140.04 75.984C140.04 76.4611 140.099 76.8117 140.216 77.036C140.337 77.2567 140.517 77.3671 140.755 77.3671ZM144.376 77.8798V77.1001H143.922V76.7049H144.376V76.267H143.922V75.8719H144.376V74.115H145.652C145.927 74.115 146.158 74.1612 146.347 74.2538C146.539 74.3464 146.683 74.4745 146.779 74.6383C146.879 74.8021 146.929 74.9943 146.929 75.215C146.929 75.4358 146.879 75.6244 146.779 75.7811C146.679 75.9377 146.537 76.0588 146.352 76.1442C146.167 76.2261 145.943 76.267 145.679 76.267H145.065V76.7049H145.925V77.1001H145.065V77.8798H144.376ZM145.054 75.8719H145.583C145.814 75.8719 145.991 75.8202 146.112 75.717C146.236 75.6138 146.299 75.4571 146.299 75.2471C146.299 75.0335 146.236 74.8768 146.112 74.7771C145.991 74.6739 145.814 74.6223 145.583 74.6223H145.054V75.8719Z" fill="#1A1A1A"/>
<path d="M7.57397 88.8798V85.0717H8.06551L9.53473 88.3828H9.37268L10.8419 85.0717H11.328V88.8798H10.8203V85.8333H10.9985L9.62655 88.8798H9.27545L7.90346 85.8333H8.08711V88.8798H7.57397ZM12.1991 88.8798V86.1574H12.696V88.3558H12.5448L14.1868 86.1574H14.6406V88.8798H14.149V86.6759H14.3057L12.6528 88.8798H12.1991ZM15.459 88.8798V86.1574H15.9991V87.2647H17.3765V86.1574H17.9167V88.8798H17.3765V87.6914H15.9991V88.8798H15.459ZM18.74 88.8798V86.1574H19.2369V88.3558H19.0857L20.7278 86.1574H21.1815V88.8798H20.6899V86.6759H20.8466L19.1937 88.8798H18.74ZM21.9999 88.8798V86.1574H22.4536L23.4367 87.8967L24.4198 86.1574H24.8735V88.8798H24.3928V86.7678H24.5116L23.5664 88.4422H23.3071L22.3618 86.7678H22.4806V88.8798H21.9999ZM26.7565 88.9284C26.5152 88.9284 26.3045 88.8726 26.1245 88.7609C25.9444 88.6493 25.804 88.4872 25.7032 88.2748C25.6059 88.0623 25.5573 87.8103 25.5573 87.5186C25.5573 87.2233 25.6059 86.9712 25.7032 86.7624C25.804 86.5535 25.9444 86.3933 26.1245 86.2816C26.3045 86.1664 26.5152 86.1088 26.7565 86.1088C26.9941 86.1088 27.2012 86.1682 27.3776 86.287C27.5541 86.4059 27.6711 86.5679 27.7287 86.7732H27.6693L27.7233 86.1574H28.2527C28.2419 86.269 28.2311 86.3807 28.2203 86.4923C28.2131 86.6003 28.2095 86.7065 28.2095 86.811V88.8798H27.6639V88.2748H27.7233C27.6657 88.4764 27.5469 88.6367 27.3668 88.7555C27.1904 88.8708 26.9869 88.9284 26.7565 88.9284ZM26.8915 88.5017C27.1256 88.5017 27.3128 88.4188 27.4533 88.2532C27.5973 88.0875 27.6693 87.8427 27.6693 87.5186C27.6693 87.1945 27.5973 86.9514 27.4533 86.7894C27.3128 86.6237 27.1256 86.5409 26.8915 86.5409C26.6538 86.5409 26.463 86.6237 26.3189 86.7894C26.1785 86.9514 26.1083 87.1945 26.1083 87.5186C26.1083 87.8427 26.1785 88.0875 26.3189 88.2532C26.4594 88.4188 26.6502 88.5017 26.8915 88.5017ZM28.9338 88.95L28.7501 88.5179C28.8726 88.4674 28.9752 88.4044 29.058 88.3288C29.1444 88.2496 29.2111 88.1488 29.2579 88.0263C29.3083 87.9039 29.3443 87.7526 29.3659 87.5726C29.3875 87.3925 29.3983 87.1747 29.3983 86.919V86.1574H31.4509V88.8798H30.9107V86.5841H29.9007V86.9352C29.9007 87.3457 29.8683 87.686 29.8034 87.9561C29.7386 88.2262 29.6342 88.4404 29.4901 88.5989C29.3497 88.7537 29.1643 88.8708 28.9338 88.95ZM32.2702 88.8798V86.1574H32.8104V87.1081H33.5828C33.9393 87.1081 34.2076 87.1837 34.3876 87.3349C34.5677 87.4826 34.6577 87.6986 34.6577 87.9831C34.6577 88.1668 34.6163 88.327 34.5334 88.4638C34.4506 88.5971 34.3282 88.6997 34.1661 88.7717C34.0077 88.8438 33.8132 88.8798 33.5828 88.8798H32.2702ZM32.8104 88.5071H33.5234C33.725 88.5071 33.8799 88.4656 33.9879 88.3828C34.0959 88.2964 34.1499 88.165 34.1499 87.9885C34.1499 87.8121 34.0959 87.6842 33.9879 87.605C33.8835 87.5222 33.7286 87.4808 33.5234 87.4808H32.8104V88.5071ZM35.2716 88.8798V86.1574H35.8118V87.2647H37.1892V86.1574H37.7293V88.8798H37.1892V87.6914H35.8118V88.8798H35.2716ZM39.6168 88.9284C39.3755 88.9284 39.1648 88.8726 38.9848 88.7609C38.8047 88.6493 38.6643 88.4872 38.5635 88.2748C38.4662 88.0623 38.4176 87.8103 38.4176 87.5186C38.4176 87.2233 38.4662 86.9712 38.5635 86.7624C38.6643 86.5535 38.8047 86.3933 38.9848 86.2816C39.1648 86.1664 39.3755 86.1088 39.6168 86.1088C39.8544 86.1088 40.0615 86.1682 40.2379 86.287C40.4144 86.4059 40.5314 86.5679 40.589 86.7732H40.5296L40.5836 86.1574H41.113C41.1022 86.269 41.0914 86.3807 41.0806 86.4923C41.0734 86.6003 41.0698 86.7065 41.0698 86.811V88.8798H40.5242V88.2748H40.5836C40.526 88.4764 40.4072 88.6367 40.2271 88.7555C40.0507 88.8708 39.8472 88.9284 39.6168 88.9284ZM39.7518 88.5017C39.9859 88.5017 40.1731 88.4188 40.3136 88.2532C40.4576 88.0875 40.5296 87.8427 40.5296 87.5186C40.5296 87.1945 40.4576 86.9514 40.3136 86.7894C40.1731 86.6237 39.9859 86.5409 39.7518 86.5409C39.5141 86.5409 39.3233 86.6237 39.1792 86.7894C39.0388 86.9514 38.9686 87.1945 38.9686 87.5186C38.9686 87.8427 39.0388 88.0875 39.1792 88.2532C39.3197 88.4188 39.5105 88.5017 39.7518 88.5017ZM41.6861 88.8798L42.1128 88.1452C42.1812 88.0263 42.2676 87.9309 42.372 87.8589C42.4801 87.7832 42.5899 87.7454 42.7015 87.7454H42.7988L42.7934 87.7995C42.4837 87.7995 42.2424 87.7292 42.0696 87.5888C41.8967 87.4484 41.8103 87.2467 41.8103 86.9838C41.8103 86.7209 41.8967 86.5175 42.0696 86.3734C42.2424 86.2294 42.4963 86.1574 42.8312 86.1574H44.1059V88.8798H43.6036V87.8697H43.2417C43.1049 87.8697 42.9878 87.9039 42.8906 87.9723C42.797 88.0407 42.7195 88.1307 42.6583 88.2424L42.291 88.8798H41.6861ZM42.9284 87.5024H43.6036V86.5247H42.9284C42.7267 86.5247 42.5755 86.5679 42.4747 86.6543C42.3774 86.7408 42.3288 86.8596 42.3288 87.0108C42.3288 87.1693 42.3774 87.2917 42.4747 87.3781C42.5755 87.461 42.7267 87.5024 42.9284 87.5024ZM48.7199 89.582V88.8798H46.3648V86.1574H46.905V88.453H48.2068V86.1574H48.7415V88.453H49.179V89.582H48.7199ZM51.0051 88.9284C50.5658 88.9284 50.2201 88.8041 49.968 88.5557C49.716 88.3072 49.5899 87.9633 49.5899 87.524C49.5899 87.2395 49.6439 86.991 49.752 86.7786C49.8636 86.5661 50.0167 86.4023 50.2111 86.287C50.4092 86.1682 50.6378 86.1088 50.8971 86.1088C51.1528 86.1088 51.367 86.1628 51.5399 86.2708C51.7127 86.3789 51.8442 86.5319 51.9342 86.7299C52.0242 86.9244 52.0692 87.1549 52.0692 87.4213V87.5942H50.0167V87.2809H51.6965L51.6047 87.3511C51.6047 87.081 51.5435 86.8722 51.4211 86.7245C51.3022 86.5733 51.1294 86.4977 50.9025 86.4977C50.6504 86.4977 50.456 86.5859 50.3191 86.7624C50.1823 86.9352 50.1139 87.1747 50.1139 87.4808V87.5348C50.1139 87.8553 50.1913 88.0965 50.3461 88.2586C50.5046 88.4206 50.7279 88.5017 51.0159 88.5017C51.1744 88.5017 51.322 88.48 51.4589 88.4368C51.5993 88.39 51.7325 88.3144 51.8586 88.21L52.0368 88.5827C51.9108 88.6943 51.7577 88.7807 51.5777 88.8419C51.3976 88.8996 51.2068 88.9284 51.0051 88.9284ZM52.737 88.8798V86.1574H53.2771V87.2647H54.6545V86.1574H55.1947V88.8798H54.6545V87.6914H53.2771V88.8798H52.737ZM57.0821 88.9284C56.8408 88.9284 56.6301 88.8726 56.4501 88.7609C56.27 88.6493 56.1296 88.4872 56.0288 88.2748C55.9315 88.0623 55.8829 87.8103 55.8829 87.5186C55.8829 87.2233 55.9315 86.9712 56.0288 86.7624C56.1296 86.5535 56.27 86.3933 56.4501 86.2816C56.6301 86.1664 56.8408 86.1088 57.0821 86.1088C57.3197 86.1088 57.5268 86.1682 57.7032 86.287C57.8797 86.4059 57.9967 86.5679 58.0543 86.7732H57.9949L58.0489 86.1574H58.5783C58.5675 86.269 58.5567 86.3807 58.5459 86.4923C58.5387 86.6003 58.5351 86.7065 58.5351 86.811V88.8798H57.9895V88.2748H58.0489C57.9913 88.4764 57.8725 88.6367 57.6924 88.7555C57.516 88.8708 57.3125 88.9284 57.0821 88.9284ZM57.2171 88.5017C57.4512 88.5017 57.6384 88.4188 57.7789 88.2532C57.9229 88.0875 57.9949 87.8427 57.9949 87.5186C57.9949 87.1945 57.9229 86.9514 57.7789 86.7894C57.6384 86.6237 57.4512 86.5409 57.2171 86.5409C56.9794 86.5409 56.7886 86.6237 56.6445 86.7894C56.5041 86.9514 56.4339 87.1945 56.4339 87.5186C56.4339 87.8427 56.5041 88.0875 56.6445 88.2532C56.785 88.4188 56.9758 88.5017 57.2171 88.5017Z" fill="#1A1A1A"/>
<path d="M134.199 88.9332C133.996 88.9332 133.795 88.8958 133.595 88.821C133.396 88.7427 133.225 88.6377 133.083 88.506L133.312 87.9933C133.444 88.1143 133.587 88.2051 133.74 88.2656C133.893 88.3262 134.048 88.3564 134.204 88.3564C134.521 88.3564 134.763 88.2478 134.931 88.0307C135.101 87.8135 135.187 87.4895 135.187 87.0588V86.6583H135.251C135.226 86.8363 135.165 86.9911 135.069 87.1229C134.973 87.2546 134.852 87.356 134.706 87.4272C134.564 87.4949 134.404 87.5287 134.226 87.5287C134.008 87.5287 133.813 87.4771 133.638 87.3738C133.467 87.2706 133.332 87.1282 133.232 86.9466C133.136 86.7615 133.088 86.5532 133.088 86.3218C133.088 86.0762 133.142 85.859 133.248 85.6703C133.359 85.4816 133.508 85.3339 133.697 85.2271C133.886 85.1167 134.103 85.0616 134.348 85.0616C134.825 85.0616 135.192 85.2253 135.448 85.5528C135.708 85.8768 135.838 86.3361 135.838 86.9306C135.838 87.3543 135.772 87.7156 135.641 88.0147C135.513 88.3137 135.326 88.5416 135.08 88.6982C134.834 88.8548 134.541 88.9332 134.199 88.9332ZM134.391 86.984C134.523 86.984 134.639 86.9555 134.738 86.8986C134.838 86.8416 134.916 86.7615 134.973 86.6583C135.03 86.5515 135.059 86.4304 135.059 86.2951C135.059 86.1563 135.03 86.0352 134.973 85.932C134.916 85.8288 134.838 85.7487 134.738 85.6917C134.639 85.6312 134.523 85.6009 134.391 85.6009C134.259 85.6009 134.144 85.6312 134.044 85.6917C133.944 85.7487 133.866 85.8288 133.809 85.932C133.756 86.0352 133.729 86.1563 133.729 86.2951C133.729 86.4304 133.756 86.5515 133.809 86.6583C133.866 86.7615 133.944 86.8416 134.044 86.8986C134.144 86.9555 134.259 86.984 134.391 86.984ZM137.817 88.9332C137.344 88.9332 136.977 88.7694 136.717 88.4419C136.461 88.1143 136.333 87.6551 136.333 87.0641C136.333 86.6369 136.399 86.2755 136.53 85.9801C136.662 85.681 136.849 85.4532 137.091 85.2965C137.337 85.1399 137.631 85.0616 137.972 85.0616C138.175 85.0616 138.376 85.0989 138.576 85.1737C138.775 85.2449 138.946 85.3481 139.088 85.4834L138.859 85.9961C138.727 85.875 138.585 85.786 138.432 85.7291C138.278 85.6685 138.124 85.6383 137.967 85.6383C137.647 85.6383 137.403 85.7469 137.235 85.964C137.068 86.1812 136.984 86.5052 136.984 86.9359V87.3365H136.92C136.949 87.1549 137.009 87 137.102 86.8719C137.194 86.7401 137.314 86.6405 137.46 86.5728C137.606 86.5016 137.768 86.466 137.946 86.466C138.166 86.466 138.362 86.5176 138.533 86.6209C138.704 86.7241 138.837 86.8665 138.934 87.0481C139.033 87.2297 139.083 87.4379 139.083 87.6729C139.083 87.915 139.028 88.1321 138.918 88.3244C138.811 88.5131 138.663 88.6626 138.474 88.773C138.286 88.8798 138.067 88.9332 137.817 88.9332ZM137.78 88.3885C137.912 88.3885 138.027 88.36 138.127 88.303C138.227 88.2461 138.303 88.166 138.357 88.0627C138.414 87.9559 138.442 87.8349 138.442 87.6996C138.442 87.5607 138.414 87.4397 138.357 87.3365C138.303 87.2332 138.227 87.1531 138.127 87.0961C138.027 87.0356 137.912 87.0054 137.78 87.0054C137.648 87.0054 137.533 87.0356 137.433 87.0961C137.333 87.1531 137.255 87.2332 137.198 87.3365C137.141 87.4397 137.113 87.5607 137.113 87.6996C137.113 87.8349 137.141 87.9559 137.198 88.0627C137.255 88.166 137.333 88.2461 137.433 88.303C137.533 88.36 137.648 88.3885 137.78 88.3885ZM140.886 88.9332C140.444 88.9332 140.104 88.7658 139.866 88.4312C139.627 88.093 139.508 87.6124 139.508 86.9893C139.508 86.3592 139.627 85.8804 139.866 85.5528C140.104 85.2253 140.444 85.0616 140.886 85.0616C141.331 85.0616 141.671 85.2253 141.906 85.5528C142.144 85.8804 142.264 86.3574 142.264 86.984C142.264 87.6106 142.144 88.093 141.906 88.4312C141.671 88.7658 141.331 88.9332 140.886 88.9332ZM140.886 88.3671C141.128 88.3671 141.308 88.2567 141.425 88.036C141.543 87.8117 141.602 87.4611 141.602 86.984C141.602 86.507 141.543 86.1616 141.425 85.948C141.308 85.7309 141.128 85.6223 140.886 85.6223C140.647 85.6223 140.468 85.7309 140.347 85.948C140.229 86.1616 140.17 86.507 140.17 86.984C140.17 87.4611 140.229 87.8117 140.347 88.036C140.468 88.2567 140.647 88.3671 140.886 88.3671ZM144.507 88.8798V88.1001H144.053V87.7049H144.507V87.267H144.053V86.8719H144.507V85.115H145.783C146.057 85.115 146.289 85.1612 146.477 85.2538C146.669 85.3464 146.814 85.4745 146.91 85.6383C147.009 85.8021 147.059 85.9943 147.059 86.215C147.059 86.4358 147.009 86.6244 146.91 86.7811C146.81 86.9377 146.668 87.0588 146.483 87.1442C146.297 87.2261 146.073 87.267 145.81 87.267H145.196V87.7049H146.055V88.1001H145.196V88.8798H144.507ZM145.185 86.8719H145.714C145.945 86.8719 146.121 86.8202 146.242 86.717C146.367 86.6138 146.429 86.4571 146.429 86.2471C146.429 86.0335 146.367 85.8768 146.242 85.7771C146.121 85.6739 145.945 85.6223 145.714 85.6223H145.185V86.8719Z" fill="#1A1A1A"/>
<path d="M7.57397 99.8798V96.0717H8.06551L9.53473 99.3828H9.37268L10.8419 96.0717H11.328V99.8798H10.8203V96.8333H10.9985L9.62655 99.8798H9.27545L7.90346 96.8333H8.08711V99.8798H7.57397ZM13.2632 99.9284C13.0219 99.9284 12.8112 99.8726 12.6312 99.7609C12.4511 99.6493 12.3107 99.4872 12.2099 99.2748C12.1126 99.0623 12.064 98.8103 12.064 98.5186C12.064 98.2233 12.1126 97.9712 12.2099 97.7624C12.3107 97.5535 12.4511 97.3933 12.6312 97.2816C12.8112 97.1664 13.0219 97.1088 13.2632 97.1088C13.5008 97.1088 13.7079 97.1682 13.8844 97.287C14.0608 97.4059 14.1778 97.5679 14.2355 97.7732H14.176L14.2301 97.1574H14.7594C14.7486 97.269 14.7378 97.3807 14.727 97.4923C14.7198 97.6003 14.7162 97.7065 14.7162 97.811V99.8798H14.1706V99.2748H14.2301C14.1724 99.4764 14.0536 99.6367 13.8735 99.7555C13.6971 99.8708 13.4936 99.9284 13.2632 99.9284ZM13.3982 99.5017C13.6323 99.5017 13.8195 99.4188 13.96 99.2532C14.104 99.0875 14.176 98.8427 14.176 98.5186C14.176 98.1945 14.104 97.9514 13.96 97.7894C13.8195 97.6237 13.6323 97.5409 13.3982 97.5409C13.1605 97.5409 12.9697 97.6237 12.8257 97.7894C12.6852 97.9514 12.615 98.1945 12.615 98.5186C12.615 98.8427 12.6852 99.0875 12.8257 99.2532C12.9661 99.4188 13.1569 99.5017 13.3982 99.5017ZM15.5539 99.8798V97.1574H16.0941V98.2701H16.564L17.4121 97.1574H18.0062L16.9907 98.497L16.8557 98.3241C16.9601 98.3349 17.0502 98.3619 17.1258 98.4051C17.2014 98.4448 17.2752 98.5042 17.3472 98.5834C17.4193 98.6626 17.4931 98.767 17.5687 98.8967L18.1359 99.8798H17.5525L17.0664 99.0479C17.0123 98.9543 16.9601 98.8823 16.9097 98.8319C16.8593 98.7778 16.8017 98.7418 16.7369 98.7238C16.6721 98.7022 16.5928 98.6914 16.4992 98.6914H16.0941V99.8798H15.5539ZM19.7496 99.9284C19.4759 99.9284 19.2365 99.8726 19.0312 99.7609C18.8296 99.6457 18.6729 99.4818 18.5613 99.2694C18.4532 99.0533 18.3992 98.7977 18.3992 98.5024C18.3992 98.2107 18.455 97.9604 18.5667 97.7516C18.6783 97.5427 18.835 97.3843 19.0366 97.2762C19.2383 97.1646 19.4759 97.1088 19.7496 97.1088C19.9261 97.1088 20.0971 97.1394 20.2628 97.2006C20.4284 97.2582 20.5652 97.341 20.6733 97.4491L20.495 97.8326C20.3942 97.7354 20.2808 97.6633 20.1547 97.6165C20.0287 97.5661 19.9063 97.5409 19.7874 97.5409C19.5282 97.5409 19.3247 97.6237 19.1771 97.7894C19.0294 97.955 18.9556 98.1945 18.9556 98.5078C18.9556 98.8247 19.0294 99.0677 19.1771 99.237C19.3247 99.4062 19.5282 99.4909 19.7874 99.4909C19.9027 99.4909 20.0233 99.4692 20.1493 99.426C20.2754 99.3792 20.3906 99.3054 20.495 99.2046L20.6733 99.5881C20.5616 99.6961 20.4212 99.7807 20.252 99.8419C20.0863 99.8996 19.9189 99.9284 19.7496 99.9284ZM21.2931 99.8798V97.1574H21.79V99.3558H21.6388L23.2808 97.1574H23.7346V99.8798H23.243V97.6759H23.3997L21.7468 99.8798H21.2931ZM24.553 99.8798V97.1574H25.0067L25.9898 98.8967L26.9729 97.1574H27.4266V99.8798H26.9459V97.7678H27.0647L26.1194 99.4422H25.8601L24.9149 97.7678H25.0337V99.8798H24.553ZM29.3095 99.9284C29.0683 99.9284 28.8576 99.8726 28.6776 99.7609C28.4975 99.6493 28.3571 99.4872 28.2562 99.2748C28.159 99.0623 28.1104 98.8103 28.1104 98.5186C28.1104 98.2233 28.159 97.9712 28.2562 97.7624C28.3571 97.5535 28.4975 97.3933 28.6776 97.2816C28.8576 97.1664 29.0683 97.1088 29.3095 97.1088C29.5472 97.1088 29.7543 97.1682 29.9307 97.287C30.1072 97.4059 30.2242 97.5679 30.2818 97.7732H30.2224L30.2764 97.1574H30.8058C30.795 97.269 30.7842 97.3807 30.7733 97.4923C30.7661 97.6003 30.7625 97.7065 30.7625 97.811V99.8798H30.217V99.2748H30.2764C30.2188 99.4764 30.1 99.6367 29.9199 99.7555C29.7435 99.8708 29.54 99.9284 29.3095 99.9284ZM29.4446 99.5017C29.6786 99.5017 29.8659 99.4188 30.0063 99.2532C30.1504 99.0875 30.2224 98.8427 30.2224 98.5186C30.2224 98.1945 30.1504 97.9514 30.0063 97.7894C29.8659 97.6237 29.6786 97.5409 29.4446 97.5409C29.2069 97.5409 29.016 97.6237 28.872 97.7894C28.7316 97.9514 28.6613 98.1945 28.6613 98.5186C28.6613 98.8427 28.7316 99.0875 28.872 99.2532C29.0124 99.4188 29.2033 99.5017 29.4446 99.5017ZM31.4869 99.95L31.3032 99.5179C31.4256 99.4674 31.5283 99.4044 31.6111 99.3288C31.6975 99.2496 31.7641 99.1488 31.811 99.0263C31.8614 98.9039 31.8974 98.7526 31.919 98.5726C31.9406 98.3925 31.9514 98.1747 31.9514 97.919V97.1574H34.004V99.8798H33.4638V97.5841H32.4537V97.9352C32.4537 98.3457 32.4213 98.686 32.3565 98.9561C32.2917 99.2262 32.1873 99.4404 32.0432 99.5989C31.9028 99.7537 31.7173 99.8708 31.4869 99.95ZM34.8233 99.8798V97.1574H35.3634V98.1081H36.1358C36.4923 98.1081 36.7606 98.1837 36.9407 98.3349C37.1207 98.4826 37.2108 98.6986 37.2108 98.9831C37.2108 99.1668 37.1693 99.327 37.0865 99.4638C37.0037 99.5971 36.8813 99.6997 36.7192 99.7717C36.5608 99.8438 36.3663 99.8798 36.1358 99.8798H34.8233ZM35.3634 99.5071H36.0764C36.2781 99.5071 36.4329 99.4656 36.541 99.3828C36.649 99.2964 36.703 99.165 36.703 98.9885C36.703 98.8121 36.649 98.6842 36.541 98.605C36.4365 98.5222 36.2817 98.4808 36.0764 98.4808H35.3634V99.5071ZM37.8247 99.8798V97.1574H38.3649V98.2647H39.7423V97.1574H40.2824V99.8798H39.7423V98.6914H38.3649V99.8798H37.8247ZM42.1698 99.9284C41.9286 99.9284 41.7179 99.8726 41.5378 99.7609C41.3578 99.6493 41.2174 99.4872 41.1165 99.2748C41.0193 99.0623 40.9707 98.8103 40.9707 98.5186C40.9707 98.2233 41.0193 97.9712 41.1165 97.7624C41.2174 97.5535 41.3578 97.3933 41.5378 97.2816C41.7179 97.1664 41.9286 97.1088 42.1698 97.1088C42.4075 97.1088 42.6146 97.1682 42.791 97.287C42.9675 97.4059 43.0845 97.5679 43.1421 97.7732H43.0827L43.1367 97.1574H43.666C43.6552 97.269 43.6444 97.3807 43.6336 97.4923C43.6264 97.6003 43.6228 97.7065 43.6228 97.811V99.8798H43.0773V99.2748H43.1367C43.0791 99.4764 42.9602 99.6367 42.7802 99.7555C42.6037 99.8708 42.4003 99.9284 42.1698 99.9284ZM42.3049 99.5017C42.5389 99.5017 42.7262 99.4188 42.8666 99.2532C43.0107 99.0875 43.0827 98.8427 43.0827 98.5186C43.0827 98.1945 43.0107 97.9514 42.8666 97.7894C42.7262 97.6237 42.5389 97.5409 42.3049 97.5409C42.0672 97.5409 41.8763 97.6237 41.7323 97.7894C41.5919 97.9514 41.5216 98.1945 41.5216 98.5186C41.5216 98.8427 41.5919 99.0875 41.7323 99.2532C41.8727 99.4188 42.0636 99.5017 42.3049 99.5017ZM44.2391 99.8798L44.6658 99.1452C44.7343 99.0263 44.8207 98.9309 44.9251 98.8589C45.0331 98.7832 45.143 98.7454 45.2546 98.7454H45.3518L45.3464 98.7995C45.0367 98.7995 44.7955 98.7292 44.6226 98.5888C44.4498 98.4484 44.3634 98.2467 44.3634 97.9838C44.3634 97.7209 44.4498 97.5175 44.6226 97.3734C44.7955 97.2294 45.0494 97.1574 45.3842 97.1574H46.659V99.8798H46.1567V98.8697H45.7948C45.6579 98.8697 45.5409 98.9039 45.4437 98.9723C45.35 99.0407 45.2726 99.1307 45.2114 99.2424L44.8441 99.8798H44.2391ZM45.4815 98.5024H46.1567V97.5247H45.4815C45.2798 97.5247 45.1286 97.5679 45.0277 97.6543C44.9305 97.7408 44.8819 97.8596 44.8819 98.0108C44.8819 98.1693 44.9305 98.2917 45.0277 98.3781C45.1286 98.461 45.2798 98.5024 45.4815 98.5024ZM50.1333 99.9284C49.8596 99.9284 49.6201 99.8726 49.4148 99.7609C49.2132 99.6457 49.0565 99.4818 48.9449 99.2694C48.8369 99.0533 48.7829 98.7977 48.7829 98.5024C48.7829 98.2107 48.8387 97.9604 48.9503 97.7516C49.0619 97.5427 49.2186 97.3843 49.4202 97.2762C49.6219 97.1646 49.8596 97.1088 50.1333 97.1088C50.3097 97.1088 50.4807 97.1394 50.6464 97.2006C50.812 97.2582 50.9489 97.341 51.0569 97.4491L50.8787 97.8326C50.7778 97.7354 50.6644 97.6633 50.5384 97.6165C50.4123 97.5661 50.2899 97.5409 50.1711 97.5409C49.9118 97.5409 49.7083 97.6237 49.5607 97.7894C49.413 97.955 49.3392 98.1945 49.3392 98.5078C49.3392 98.8247 49.413 99.0677 49.5607 99.237C49.7083 99.4062 49.9118 99.4909 50.1711 99.4909C50.2863 99.4909 50.4069 99.4692 50.533 99.426C50.659 99.3792 50.7742 99.3054 50.8787 99.2046L51.0569 99.5881C50.9453 99.6961 50.8048 99.7807 50.6356 99.8419C50.4699 99.8996 50.3025 99.9284 50.1333 99.9284ZM51.6767 99.8798V97.1574H52.2168V98.2701H52.6868L53.5348 97.1574H54.129L53.1135 98.497L52.9785 98.3241C53.0829 98.3349 53.1729 98.3619 53.2485 98.4051C53.3242 98.4448 53.398 98.5042 53.47 98.5834C53.542 98.6626 53.6158 98.767 53.6915 98.8967L54.2586 99.8798H53.6753L53.1891 99.0479C53.1351 98.9543 53.0829 98.8823 53.0325 98.8319C52.9821 98.7778 52.9244 98.7418 52.8596 98.7238C52.7948 98.7022 52.7156 98.6914 52.622 98.6914H52.2168V99.8798H51.6767ZM54.657 99.8798V97.1574H55.154V99.3558H55.0027L56.6448 97.1574H57.0985V99.8798H56.607V97.6759H56.7636L55.1108 99.8798H54.657ZM57.6469 100.582V99.4584H57.9494C58.0682 99.2784 58.1546 99.0677 58.2086 98.8265C58.2626 98.5852 58.2897 98.2935 58.2897 97.9514V97.1574H60.2828V99.4584H60.7203V100.582H60.2504V99.8798H58.1168V100.582H57.6469ZM58.4517 99.4638H59.7697V97.5787H58.7596V98.0594C58.7596 98.3223 58.7326 98.5798 58.6786 98.8319C58.6281 99.0803 58.5525 99.291 58.4517 99.4638ZM61.2613 99.8798V97.1574H61.8014V98.2701H62.2713L63.1194 97.1574H63.7136L62.6981 98.497L62.563 98.3241C62.6675 98.3349 62.7575 98.3619 62.8331 98.4051C62.9087 98.4448 62.9825 98.5042 63.0546 98.5834C63.1266 98.6626 63.2004 98.767 63.276 98.8967L63.8432 99.8798H63.2598L62.7737 99.0479C62.7197 98.9543 62.6675 98.8823 62.617 98.8319C62.5666 98.7778 62.509 98.7418 62.4442 98.7238C62.3794 98.7022 62.3002 98.6914 62.2065 98.6914H61.8014V99.8798H61.2613ZM65.3057 99.9284C65.0644 99.9284 64.8538 99.8726 64.6737 99.7609C64.4937 99.6493 64.3532 99.4872 64.2524 99.2748C64.1552 99.0623 64.1066 98.8103 64.1066 98.5186C64.1066 98.2233 64.1552 97.9712 64.2524 97.7624C64.3532 97.5535 64.4937 97.3933 64.6737 97.2816C64.8538 97.1664 65.0644 97.1088 65.3057 97.1088C65.5434 97.1088 65.7504 97.1682 65.9269 97.287C66.1033 97.4059 66.2204 97.5679 66.278 97.7732H66.2186L66.2726 97.1574H66.8019C66.7911 97.269 66.7803 97.3807 66.7695 97.4923C66.7623 97.6003 66.7587 97.7065 66.7587 97.811V99.8798H66.2132V99.2748H66.2726C66.215 99.4764 66.0961 99.6367 65.9161 99.7555C65.7396 99.8708 65.5362 99.9284 65.3057 99.9284ZM65.4407 99.5017C65.6748 99.5017 65.8621 99.4188 66.0025 99.2532C66.1465 99.0875 66.2186 98.8427 66.2186 98.5186C66.2186 98.1945 66.1465 97.9514 66.0025 97.7894C65.8621 97.6237 65.6748 97.5409 65.4407 97.5409C65.2031 97.5409 65.0122 97.6237 64.8682 97.7894C64.7277 97.9514 64.6575 98.1945 64.6575 98.5186C64.6575 98.8427 64.7277 99.0875 64.8682 99.2532C65.0086 99.4188 65.1995 99.5017 65.4407 99.5017Z" fill="#1A1A1A"/>
<path d="M135.296 99.8798V99.3724L136.546 98.0694C136.703 97.9057 136.818 97.7544 136.893 97.6155C136.968 97.4767 137.005 97.3343 137.005 97.1883C137.005 97.0068 136.948 96.8697 136.834 96.7771C136.72 96.6846 136.555 96.6383 136.338 96.6383C136.163 96.6383 135.996 96.6703 135.836 96.7344C135.676 96.7949 135.519 96.8911 135.366 97.0228L135.142 96.5101C135.295 96.3748 135.483 96.2663 135.708 96.1844C135.935 96.1025 136.174 96.0616 136.423 96.0616C136.829 96.0616 137.141 96.1523 137.358 96.3339C137.575 96.5155 137.683 96.7754 137.683 97.1136C137.683 97.3485 137.628 97.5728 137.518 97.7864C137.408 97.9965 137.237 98.2172 137.005 98.4486L135.964 99.4899V99.3084H137.833V99.8798H135.296ZM139.684 99.9332C139.242 99.9332 138.902 99.7658 138.664 99.4312C138.425 99.093 138.306 98.6124 138.306 97.9893C138.306 97.3592 138.425 96.8804 138.664 96.5528C138.902 96.2253 139.242 96.0616 139.684 96.0616C140.129 96.0616 140.469 96.2253 140.704 96.5528C140.942 96.8804 141.062 97.3574 141.062 97.984C141.062 98.6106 140.942 99.093 140.704 99.4312C140.469 99.7658 140.129 99.9332 139.684 99.9332ZM139.684 99.3671C139.926 99.3671 140.106 99.2567 140.223 99.036C140.341 98.8117 140.4 98.4611 140.4 97.984C140.4 97.507 140.341 97.1616 140.223 96.948C140.106 96.7309 139.926 96.6223 139.684 96.6223C139.445 96.6223 139.266 96.7309 139.145 96.948C139.027 97.1616 138.968 97.507 138.968 97.984C138.968 98.4611 139.027 98.8117 139.145 99.036C139.266 99.2567 139.445 99.3671 139.684 99.3671ZM144.463 99.8798H143.892L146.114 96.115H146.685L144.463 99.8798ZM143.935 98.3632C143.632 98.3632 143.395 98.2599 143.225 98.0534C143.054 97.8469 142.968 97.5657 142.968 97.2097C142.968 96.8501 143.054 96.5689 143.225 96.3659C143.399 96.163 143.636 96.0616 143.935 96.0616C144.237 96.0616 144.474 96.1648 144.645 96.3713C144.816 96.5778 144.901 96.8572 144.901 97.2097C144.901 97.5657 144.816 97.8469 144.645 98.0534C144.474 98.2599 144.237 98.3632 143.935 98.3632ZM143.935 97.9359C144.067 97.9359 144.168 97.8772 144.239 97.7597C144.314 97.6422 144.351 97.4589 144.351 97.2097C144.351 96.9569 144.314 96.7754 144.239 96.665C144.168 96.5511 144.067 96.4941 143.935 96.4941C143.803 96.4941 143.7 96.5493 143.625 96.6596C143.554 96.77 143.518 96.9534 143.518 97.2097C143.518 97.466 143.554 97.6511 143.625 97.7651C143.7 97.879 143.803 97.9359 143.935 97.9359ZM146.642 99.9332C146.34 99.9332 146.103 99.8299 145.932 99.6234C145.761 99.4134 145.676 99.1304 145.676 98.7743C145.676 98.4148 145.761 98.1353 145.932 97.9359C146.106 97.733 146.343 97.6316 146.642 97.6316C146.945 97.6316 147.182 97.7348 147.353 97.9413C147.523 98.1442 147.609 98.4219 147.609 98.7743C147.609 99.1304 147.523 99.4134 147.353 99.6234C147.182 99.8299 146.945 99.9332 146.642 99.9332ZM146.642 99.5006C146.774 99.5006 146.875 99.4436 146.947 99.3297C147.021 99.2122 147.059 99.0271 147.059 98.7743C147.059 98.5216 147.021 98.34 146.947 98.2297C146.875 98.1157 146.774 98.0588 146.642 98.0588C146.511 98.0588 146.407 98.1157 146.333 98.2297C146.261 98.34 146.226 98.5216 146.226 98.7743C146.226 99.0307 146.261 99.2158 146.333 99.3297C146.407 99.4436 146.511 99.5006 146.642 99.5006Z" fill="#1A1A1A"/>
</svg>
