<svg width="155" height="108" viewBox="0 0 155 108" fill="none" xmlns="http://www.w3.org/2000/svg">
<rect width="155" height="108" rx="7.1202" fill="white"/>
<path d="M7.74504 15.1202V9.47297H10.2522C10.8717 9.47297 11.3443 9.62249 11.6701 9.92154C11.9958 10.2206 12.1587 10.6318 12.1587 11.1551C12.1587 11.6731 11.9958 12.0843 11.6701 12.3887C11.3443 12.6931 10.8717 12.8453 10.2522 12.8453H8.77836V15.1202H7.74504ZM8.77836 12.0282H10.1321C10.4739 12.0282 10.7302 11.9535 10.9011 11.8039C11.072 11.6491 11.1574 11.4328 11.1574 11.1551C11.1574 10.8774 11.072 10.6638 10.9011 10.5143C10.7302 10.3594 10.4739 10.282 10.1321 10.282H8.77836V12.0282ZM14.5162 15.2003C14.1638 15.2003 13.8541 15.1175 13.5871 14.952C13.3201 14.7811 13.1118 14.5381 12.9623 14.223C12.8127 13.908 12.738 13.5315 12.738 13.0936C12.738 12.6557 12.8127 12.2819 12.9623 11.9722C13.1118 11.6571 13.3201 11.4168 13.5871 11.2512C13.8541 11.0804 14.1638 10.9949 14.5162 10.9949C14.858 10.9949 15.1571 11.0804 15.4134 11.2512C15.6751 11.4168 15.8486 11.6411 15.9341 11.9241H15.8459L15.9341 11.075H16.8953C16.8793 11.2406 16.8632 11.4088 16.8472 11.5797C16.8365 11.7505 16.8312 11.9188 16.8312 12.0843V15.1202H15.8379L15.8299 14.2871H15.926C15.8406 14.5648 15.6671 14.7864 15.4054 14.952C15.1437 15.1175 14.8473 15.2003 14.5162 15.2003ZM14.7966 14.4313C15.1117 14.4313 15.3653 14.3218 15.5576 14.1029C15.7498 13.8786 15.8459 13.5422 15.8459 13.0936C15.8459 12.645 15.7498 12.3113 15.5576 12.0923C15.3653 11.8734 15.1117 11.7639 14.7966 11.7639C14.4815 11.7639 14.2279 11.8734 14.0356 12.0923C13.8434 12.3113 13.7473 12.645 13.7473 13.0936C13.7473 13.5422 13.8407 13.8786 14.0276 14.1029C14.2199 14.3218 14.4762 14.4313 14.7966 14.4313ZM19.8894 15.2003C19.4729 15.2003 19.1071 15.1148 18.792 14.944C18.4823 14.7731 18.242 14.5301 18.0711 14.215C17.9002 13.8946 17.8148 13.5155 17.8148 13.0776C17.8148 12.6397 17.9002 12.2659 18.0711 11.9561C18.2473 11.6464 18.4903 11.4088 18.8 11.2432C19.1098 11.0777 19.4729 10.9949 19.8894 10.9949C20.1564 10.9949 20.4154 11.0376 20.6664 11.1231C20.9227 11.2032 21.131 11.3207 21.2912 11.4755L20.9868 12.1724C20.8426 12.0389 20.6798 11.9401 20.4982 11.876C20.322 11.8066 20.1484 11.7719 19.9775 11.7719C19.6197 11.7719 19.3394 11.884 19.1365 12.1083C18.9389 12.3326 18.8401 12.6584 18.8401 13.0856C18.8401 13.5128 18.9389 13.8412 19.1365 14.0708C19.3394 14.3005 19.6197 14.4153 19.9775 14.4153C20.1431 14.4153 20.314 14.3832 20.4902 14.3192C20.6718 14.2551 20.8373 14.1563 20.9868 14.0228L21.2912 14.7117C21.1257 14.8665 20.9147 14.9867 20.6584 15.0721C20.4074 15.1576 20.1511 15.2003 19.8894 15.2003ZM24.7162 15.1202V13.6463C24.5667 13.7157 24.4118 13.7691 24.2516 13.8065C24.0914 13.8439 23.9232 13.8626 23.747 13.8626C23.1542 13.8626 22.711 13.7211 22.4173 13.438C22.1289 13.155 21.9847 12.7331 21.9847 12.1724V11.075H22.978V12.0843C22.978 12.4261 23.0528 12.6744 23.2023 12.8293C23.3518 12.9788 23.5921 13.0535 23.9232 13.0535C24.0781 13.0535 24.2169 13.0375 24.3397 13.0055C24.4626 12.9734 24.58 12.9227 24.6922 12.8533V11.075H25.6854V15.1202H24.7162ZM28.8093 15.2003C28.1311 15.2003 27.5998 15.0134 27.2153 14.6396C26.8308 14.2658 26.6385 13.7531 26.6385 13.1016C26.6385 12.6797 26.7213 12.3113 26.8869 11.9962C27.0524 11.6811 27.282 11.4355 27.5757 11.2592C27.8748 11.083 28.2219 10.9949 28.6171 10.9949C29.0069 10.9949 29.3326 11.0777 29.5943 11.2432C29.856 11.4088 30.0536 11.6411 30.1871 11.9401C30.3259 12.2392 30.3953 12.5889 30.3953 12.9895V13.2538H27.4476V12.7251H29.6824L29.5463 12.8373C29.5463 12.4635 29.4662 12.1778 29.3059 11.9802C29.1511 11.7826 28.9241 11.6838 28.6251 11.6838C28.294 11.6838 28.0377 11.8013 27.8561 12.0362C27.6799 12.2712 27.5918 12.5996 27.5918 13.0215V13.1256C27.5918 13.5635 27.6986 13.8919 27.9122 14.1109C28.1311 14.3245 28.4382 14.4313 28.8333 14.4313C29.063 14.4313 29.2766 14.4019 29.4742 14.3432C29.6771 14.2791 29.8693 14.1776 30.0509 14.0388L30.3473 14.7117C30.155 14.8665 29.9254 14.9867 29.6584 15.0721C29.3914 15.1576 29.1084 15.2003 28.8093 15.2003ZM32.1938 15.1202V11.86H30.8081V11.075H34.5809V11.86H33.1871V15.1202H32.1938ZM37.3988 15.1202V11.075H41.1876V15.1202H40.1944V11.844H38.3921V15.1202H37.3988ZM43.921 15.2003C43.5685 15.2003 43.2588 15.1175 42.9918 14.952C42.7248 14.7811 42.5165 14.5381 42.367 14.223C42.2175 13.908 42.1427 13.5315 42.1427 13.0936C42.1427 12.6557 42.2175 12.2819 42.367 11.9722C42.5165 11.6571 42.7248 11.4168 42.9918 11.2512C43.2588 11.0804 43.5685 10.9949 43.921 10.9949C44.2628 10.9949 44.5618 11.0804 44.8181 11.2512C45.0798 11.4168 45.2534 11.6411 45.3388 11.9241H45.2507L45.3388 11.075H46.3C46.284 11.2406 46.268 11.4088 46.252 11.5797C46.2413 11.7505 46.2359 11.9188 46.2359 12.0843V15.1202H45.2427L45.2347 14.2871H45.3308C45.2453 14.5648 45.0718 14.7864 44.8101 14.952C44.5485 15.1175 44.2521 15.2003 43.921 15.2003ZM44.2013 14.4313C44.5164 14.4313 44.7701 14.3218 44.9623 14.1029C45.1546 13.8786 45.2507 13.5422 45.2507 13.0936C45.2507 12.645 45.1546 12.3113 44.9623 12.0923C44.7701 11.8734 44.5164 11.7639 44.2013 11.7639C43.8863 11.7639 43.6326 11.8734 43.4404 12.0923C43.2481 12.3113 43.152 12.645 43.152 13.0936C43.152 13.5422 43.2455 13.8786 43.4324 14.1029C43.6246 14.3218 43.8809 14.4313 44.2013 14.4313ZM47.4358 16.8504V12.0843C47.4358 11.9188 47.4304 11.7505 47.4198 11.5797C47.4091 11.4088 47.3931 11.2406 47.3717 11.075H48.3409L48.4291 11.9241H48.3409C48.421 11.6411 48.5893 11.4168 48.8456 11.2512C49.1073 11.0804 49.409 10.9949 49.7507 10.9949C50.1085 10.9949 50.4209 11.0804 50.6879 11.2512C50.955 11.4168 51.1632 11.6571 51.3127 11.9722C51.4623 12.2819 51.537 12.6557 51.537 13.0936C51.537 13.5315 51.4623 13.908 51.3127 14.223C51.1632 14.5381 50.955 14.7811 50.6879 14.952C50.4209 15.1175 50.1085 15.2003 49.7507 15.2003C49.4143 15.2003 49.1179 15.1175 48.8616 14.952C48.6053 14.7864 48.4344 14.5648 48.349 14.2871H48.4371V16.8504H47.4358ZM49.4704 14.4313C49.7908 14.4313 50.0471 14.3218 50.2394 14.1029C50.4316 13.8786 50.5277 13.5422 50.5277 13.0936C50.5277 12.645 50.4316 12.3113 50.2394 12.0923C50.0471 11.8734 49.7908 11.7639 49.4704 11.7639C49.1553 11.7639 48.9017 11.8734 48.7094 12.0923C48.5172 12.3113 48.421 12.645 48.421 13.0936C48.421 13.5422 48.5172 13.8786 48.7094 14.1029C48.9017 14.3218 49.1553 14.4313 49.4704 14.4313ZM53.3537 15.1202V11.86H51.9679V11.075H55.7407V11.86H54.3469V15.1202H53.3537ZM56.3605 15.1202V11.075H57.2657V14.1349H57.0254L59.3243 11.075H60.1493V15.1202H59.2442V12.0523H59.4925L57.1856 15.1202H56.3605ZM61.2887 15.1202V11.075H62.1938V14.1349H61.9535L64.2525 11.075H65.0775V15.1202H64.1724V12.0523H64.4207L62.1137 15.1202H61.2887Z" fill="#1A1A1A"/>
<path d="M7.57949 28.5345V24.7697H8.01739L9.50195 28.1127H9.34174L10.8263 24.7697H11.2589V28.5345H10.8049V25.4319H10.9705L9.57671 28.5345H9.26164L7.86786 25.4319H8.03341V28.5345H7.57949ZM13.2845 28.5826C13.0211 28.5826 12.7932 28.5274 12.601 28.4171C12.4087 28.3031 12.2592 28.1429 12.1524 27.9364C12.0456 27.7264 11.9922 27.4772 11.9922 27.1888C11.9922 26.904 12.0456 26.6584 12.1524 26.4519C12.2592 26.2418 12.4087 26.0816 12.601 25.9713C12.7932 25.8573 13.0211 25.8004 13.2845 25.8004C13.548 25.8004 13.7758 25.8573 13.9681 25.9713C14.1639 26.0816 14.3134 26.2418 14.4166 26.4519C14.5234 26.6584 14.5768 26.904 14.5768 27.1888C14.5768 27.4772 14.5234 27.7264 14.4166 27.9364C14.3134 28.1429 14.1639 28.3031 13.9681 28.4171C13.7758 28.5274 13.548 28.5826 13.2845 28.5826ZM13.2845 28.1981C13.5266 28.1981 13.7206 28.1127 13.8666 27.9418C14.0126 27.7709 14.0856 27.5199 14.0856 27.1888C14.0856 26.8577 14.0126 26.6085 13.8666 26.4412C13.7206 26.2739 13.5266 26.1902 13.2845 26.1902C13.0389 26.1902 12.8431 26.2739 12.6971 26.4412C12.5547 26.6085 12.4835 26.8577 12.4835 27.1888C12.4835 27.5199 12.5547 27.7709 12.6971 27.9418C12.8431 28.1127 13.0389 28.1981 13.2845 28.1981ZM15.2706 28.5345V25.8484H15.7138V28.0753H15.5697L17.2358 25.8484H17.6416V28.5345H17.1984V26.3024H17.3479L15.6765 28.5345H15.2706ZM19.8807 28.5345V25.8484H21.205C21.5219 25.8484 21.7568 25.909 21.9099 26.03C22.0666 26.1511 22.1449 26.3255 22.1449 26.5533C22.1449 26.7242 22.0861 26.8684 21.9687 26.9859C21.8512 27.0998 21.6981 27.1692 21.5094 27.1942V27.1247C21.7337 27.1319 21.9099 27.1977 22.0381 27.3223C22.1698 27.4434 22.2357 27.6 22.2357 27.7923C22.2357 28.0201 22.1484 28.2017 21.974 28.337C21.8031 28.4687 21.5628 28.5345 21.2531 28.5345H19.8807ZM20.3399 28.2141H21.221C21.4026 28.2141 21.5414 28.1768 21.6376 28.102C21.7337 28.0237 21.7818 27.9133 21.7818 27.7709C21.7818 27.6249 21.7337 27.5146 21.6376 27.4398C21.5414 27.3651 21.4026 27.3277 21.221 27.3277H20.3399V28.2141ZM20.3399 27.0073H21.1623C21.3296 27.0073 21.4596 26.9699 21.5521 26.8951C21.6447 26.8204 21.691 26.7171 21.691 26.5854C21.691 26.4501 21.6447 26.3469 21.5521 26.2757C21.4596 26.2045 21.3296 26.1689 21.1623 26.1689H20.3399V27.0073ZM22.7615 28.5986L22.5907 28.2195C22.7153 28.1625 22.8185 28.0949 22.9004 28.0166C22.9858 27.9347 23.0517 27.8314 23.098 27.7068C23.1478 27.5822 23.1834 27.4274 23.2048 27.2422C23.2261 27.0571 23.2368 26.8328 23.2368 26.5694V25.8484H25.218V28.5345H24.7374V26.2276H23.6854V26.58C23.6854 26.993 23.6534 27.3348 23.5893 27.6054C23.5288 27.8724 23.4308 28.0842 23.2956 28.2408C23.1638 28.3975 22.9858 28.5167 22.7615 28.5986ZM27.1981 28.5826C26.9347 28.5826 26.7068 28.5274 26.5146 28.4171C26.3223 28.3031 26.1728 28.1429 26.066 27.9364C25.9592 27.7264 25.9058 27.4772 25.9058 27.1888C25.9058 26.904 25.9592 26.6584 26.066 26.4519C26.1728 26.2418 26.3223 26.0816 26.5146 25.9713C26.7068 25.8573 26.9347 25.8004 27.1981 25.8004C27.4616 25.8004 27.6894 25.8573 27.8817 25.9713C28.0775 26.0816 28.227 26.2418 28.3302 26.4519C28.437 26.6584 28.4904 26.904 28.4904 27.1888C28.4904 27.4772 28.437 27.7264 28.3302 27.9364C28.227 28.1429 28.0775 28.3031 27.8817 28.4171C27.6894 28.5274 27.4616 28.5826 27.1981 28.5826ZM27.1981 28.1981C27.4402 28.1981 27.6342 28.1127 27.7802 27.9418C27.9262 27.7709 27.9992 27.5199 27.9992 27.1888C27.9992 26.8577 27.9262 26.6085 27.7802 26.4412C27.6342 26.2739 27.4402 26.1902 27.1981 26.1902C26.9525 26.1902 26.7567 26.2739 26.6107 26.4412C26.4683 26.6085 26.3971 26.8577 26.3971 27.1888C26.3971 27.5199 26.4683 27.7709 26.6107 27.9418C26.7567 28.1127 26.9525 28.1981 27.1981 28.1981ZM28.7677 28.5345L29.3231 27.5787C29.4049 27.4469 29.4797 27.3419 29.5473 27.2636C29.615 27.1853 29.6862 27.1265 29.7609 27.0874C29.8393 27.0446 29.9301 27.0179 30.0333 27.0073L29.9158 27.1568L28.8958 25.8484H29.4299L30.3003 26.9592H30.7115V25.8484H31.1921V26.9592H31.598L32.4631 25.8484H33.0024L31.9824 27.1568L31.8596 27.0073C31.9629 27.0179 32.0519 27.0446 32.1266 27.0874C32.205 27.1265 32.2797 27.1853 32.3509 27.2636C32.4221 27.3419 32.4969 27.4469 32.5752 27.5787L33.1306 28.5345H32.6126L32.1266 27.7068C32.0697 27.6107 32.0145 27.5359 31.9611 27.4825C31.9077 27.4291 31.8472 27.3918 31.7795 27.3704C31.7154 27.349 31.6336 27.3384 31.5339 27.3384H31.1921V28.5345H30.7115V27.3384H30.3644C30.2647 27.3384 30.181 27.349 30.1134 27.3704C30.0493 27.3918 29.9906 27.4291 29.9372 27.4825C29.8873 27.5359 29.8321 27.6107 29.7716 27.7068L29.291 28.5345H28.7677ZM34.7881 28.5826C34.3609 28.5826 34.0227 28.4598 33.7734 28.2141C33.5278 27.9685 33.405 27.6303 33.405 27.1995C33.405 26.9147 33.4584 26.6691 33.5652 26.4626C33.6755 26.2525 33.8268 26.0905 34.0191 25.9766C34.2113 25.8591 34.4356 25.8004 34.692 25.8004C34.9376 25.8004 35.1459 25.8538 35.3167 25.9606C35.4876 26.0638 35.6176 26.2116 35.7066 26.4038C35.7956 26.5961 35.8401 26.8239 35.8401 27.0874V27.2476H33.7841V26.9592H35.509L35.4182 27.0286C35.4182 26.7509 35.3559 26.5355 35.2313 26.3825C35.1103 26.2294 34.9305 26.1528 34.692 26.1528C34.4321 26.1528 34.2309 26.2436 34.0885 26.4252C33.9461 26.6032 33.8749 26.8471 33.8749 27.1568V27.2048C33.8749 27.5324 33.955 27.7798 34.1152 27.9471C34.279 28.1145 34.505 28.1981 34.7934 28.1981C34.9536 28.1981 35.1031 28.175 35.242 28.1287C35.3808 28.0824 35.5143 28.0059 35.6425 27.8991L35.8027 28.2355C35.6817 28.3459 35.5304 28.4313 35.3488 28.4918C35.1708 28.5523 34.9839 28.5826 34.7881 28.5826ZM36.5165 28.5345V25.8484H36.9971V26.9592H38.4176V25.8484H38.8982V28.5345H38.4176V27.3437H36.9971V28.5345H36.5165ZM39.7289 28.5345V25.8484H40.1722V28.0753H40.028L41.6941 25.8484H42.1V28.5345H41.6567V26.3024H41.8062L40.1348 28.5345H39.7289ZM42.7173 28.5345L43.1392 27.8029C43.2068 27.6855 43.2923 27.5911 43.3955 27.5199C43.4988 27.4452 43.6074 27.4078 43.7213 27.4078H43.8067L43.8014 27.4558C43.4988 27.4558 43.262 27.3882 43.0911 27.2529C42.9203 27.1141 42.8348 26.9147 42.8348 26.6548C42.8348 26.3985 42.9185 26.2009 43.0858 26.0621C43.2531 25.9197 43.5023 25.8484 43.8334 25.8484H45.0563V28.5345H44.6077V27.5199H44.2232C44.0844 27.5199 43.9651 27.5555 43.8655 27.6267C43.7658 27.6944 43.6839 27.7851 43.6198 27.8991L43.2567 28.5345H42.7173ZM43.9189 27.1835H44.6077V26.1795H43.9189C43.7088 26.1795 43.5522 26.224 43.4489 26.313C43.3492 26.402 43.2994 26.5249 43.2994 26.6815C43.2994 26.8417 43.3492 26.9663 43.4489 27.0553C43.5522 27.1408 43.7088 27.1835 43.9189 27.1835ZM46.0427 29.17L45.8237 28.9991C45.9234 28.8959 45.9911 28.798 46.0267 28.7054C46.0623 28.6164 46.0801 28.5239 46.0801 28.4277L46.1869 28.5345H45.797V27.9418H46.3898V28.353C46.3898 28.5061 46.3649 28.6467 46.315 28.7749C46.2652 28.9066 46.1744 29.0383 46.0427 29.17ZM48.7078 28.5345V27.7335H48.2165V27.4185H48.7078V26.9111H48.2165V26.6014H48.7078V24.7697H49.9467C50.2102 24.7697 50.4362 24.8142 50.6249 24.9032C50.8136 24.9922 50.956 25.1186 51.0521 25.2824C51.1483 25.4426 51.1963 25.6348 51.1963 25.8591C51.1963 26.0799 51.1465 26.2685 51.0468 26.4252C50.9471 26.5818 50.8065 26.7029 50.6249 26.7883C50.4434 26.8702 50.2298 26.9111 49.9841 26.9111H49.2044V27.4185H50.1229V27.7335H49.2044V28.5345H48.7078ZM49.1991 26.6014H49.9093C50.1764 26.6014 50.3811 26.5409 50.5235 26.4198C50.6659 26.2952 50.7371 26.1137 50.7371 25.8751C50.7371 25.6331 50.6659 25.4533 50.5235 25.3358C50.3846 25.2148 50.1799 25.1542 49.9093 25.1542H49.1991V26.6014Z" fill="#1A1A1A"/>
<rect x="7.12024" y="33.9847" width="140.76" height="16.9105" rx="3.5601" fill="black" fill-opacity="0.05"/>
<path d="M15.9066 44.988C15.7428 44.988 15.5809 44.9702 15.4207 44.9346C15.264 44.899 15.1163 44.8492 14.9774 44.7851C14.8386 44.7174 14.7175 44.6356 14.6143 44.5394L14.7905 44.1549C14.965 44.2938 15.143 44.397 15.3245 44.4647C15.5061 44.5287 15.6966 44.5608 15.8959 44.5608C16.1594 44.5608 16.3659 44.4914 16.5154 44.3525C16.6649 44.2137 16.7397 44.0286 16.7397 43.7971C16.7397 43.5586 16.6685 43.3664 16.5261 43.2204C16.3837 43.0709 16.1861 42.9961 15.9333 42.9961C15.7589 42.9961 15.6004 43.0317 15.458 43.1029C15.3192 43.1706 15.1964 43.2792 15.0896 43.4287H14.7371V41.1751H16.996V41.597H15.2177V43.0228H15.0896C15.1857 42.8804 15.3156 42.7701 15.4794 42.6917C15.6467 42.6134 15.8336 42.5743 16.0401 42.5743C16.2822 42.5743 16.4905 42.6241 16.6649 42.7238C16.8429 42.8235 16.98 42.9641 17.0761 43.1456C17.1758 43.3237 17.2256 43.5319 17.2256 43.7704C17.2256 44.009 17.1722 44.2208 17.0654 44.4059C16.9586 44.5875 16.8055 44.7299 16.6062 44.8331C16.4104 44.9364 16.1772 44.988 15.9066 44.988ZM19.0445 44.988C18.6138 44.988 18.2827 44.8225 18.0513 44.4914C17.8199 44.1567 17.7042 43.6779 17.7042 43.0549C17.7042 42.4212 17.8199 41.9423 18.0513 41.6184C18.2827 41.2908 18.6138 41.1271 19.0445 41.1271C19.4789 41.1271 19.81 41.2908 20.0378 41.6184C20.2692 41.9423 20.3849 42.4194 20.3849 43.0495C20.3849 43.6761 20.2692 44.1567 20.0378 44.4914C19.8064 44.8225 19.4753 44.988 19.0445 44.988ZM19.0445 44.5661C19.3293 44.5661 19.5412 44.4433 19.68 44.1977C19.8224 43.952 19.8936 43.5693 19.8936 43.0495C19.8936 42.5298 19.8224 42.1506 19.68 41.9121C19.5412 41.67 19.3293 41.5489 19.0445 41.5489C18.7633 41.5489 18.5515 41.67 18.4091 41.9121C18.2666 42.1506 18.1954 42.5298 18.1954 43.0495C18.1954 43.5693 18.2666 43.952 18.4091 44.1977C18.5515 44.4433 18.7633 44.5661 19.0445 44.5661ZM23.6546 44.988C23.2238 44.988 22.8927 44.8225 22.6613 44.4914C22.4299 44.1567 22.3142 43.6779 22.3142 43.0549C22.3142 42.4212 22.4299 41.9423 22.6613 41.6184C22.8927 41.2908 23.2238 41.1271 23.6546 41.1271C24.0889 41.1271 24.42 41.2908 24.6479 41.6184C24.8793 41.9423 24.995 42.4194 24.995 43.0495C24.995 43.6761 24.8793 44.1567 24.6479 44.4914C24.4164 44.8225 24.0854 44.988 23.6546 44.988ZM23.6546 44.5661C23.9394 44.5661 24.1512 44.4433 24.2901 44.1977C24.4325 43.952 24.5037 43.5693 24.5037 43.0495C24.5037 42.5298 24.4325 42.1506 24.2901 41.9121C24.1512 41.67 23.9394 41.5489 23.6546 41.5489C23.3733 41.5489 23.1615 41.67 23.0191 41.9121C22.8767 42.1506 22.8055 42.5298 22.8055 43.0495C22.8055 43.5693 22.8767 43.952 23.0191 44.1977C23.1615 44.4433 23.3733 44.5661 23.6546 44.5661ZM26.8566 44.988C26.4258 44.988 26.0947 44.8225 25.8633 44.4914C25.6319 44.1567 25.5162 43.6779 25.5162 43.0549C25.5162 42.4212 25.6319 41.9423 25.8633 41.6184C26.0947 41.2908 26.4258 41.1271 26.8566 41.1271C27.2909 41.1271 27.622 41.2908 27.8499 41.6184C28.0813 41.9423 28.197 42.4194 28.197 43.0495C28.197 43.6761 28.0813 44.1567 27.8499 44.4914C27.6185 44.8225 27.2874 44.988 26.8566 44.988ZM26.8566 44.5661C27.1414 44.5661 27.3532 44.4433 27.4921 44.1977C27.6345 43.952 27.7057 43.5693 27.7057 43.0495C27.7057 42.5298 27.6345 42.1506 27.4921 41.9121C27.3532 41.67 27.1414 41.5489 26.8566 41.5489C26.5753 41.5489 26.3635 41.67 26.2211 41.9121C26.0787 42.1506 26.0075 42.5298 26.0075 43.0495C26.0075 43.5693 26.0787 43.952 26.2211 44.1977C26.3635 44.4433 26.5753 44.5661 26.8566 44.5661ZM30.0586 44.988C29.6278 44.988 29.2967 44.8225 29.0653 44.4914C28.8339 44.1567 28.7182 43.6779 28.7182 43.0549C28.7182 42.4212 28.8339 41.9423 29.0653 41.6184C29.2967 41.2908 29.6278 41.1271 30.0586 41.1271C30.4929 41.1271 30.824 41.2908 31.0519 41.6184C31.2833 41.9423 31.399 42.4194 31.399 43.0495C31.399 43.6761 31.2833 44.1567 31.0519 44.4914C30.8205 44.8225 30.4894 44.988 30.0586 44.988ZM30.0586 44.5661C30.3434 44.5661 30.5552 44.4433 30.6941 44.1977C30.8365 43.952 30.9077 43.5693 30.9077 43.0495C30.9077 42.5298 30.8365 42.1506 30.6941 41.9121C30.5552 41.67 30.3434 41.5489 30.0586 41.5489C29.7773 41.5489 29.5655 41.67 29.4231 41.9121C29.2807 42.1506 29.2095 42.5298 29.2095 43.0495C29.2095 43.5693 29.2807 43.952 29.4231 44.1977C29.5655 44.4433 29.7773 44.5661 30.0586 44.5661ZM33.6487 44.9399V44.1389H33.1574V43.8238H33.6487V43.3165H33.1574V43.0068H33.6487V41.1751H34.8876C35.151 41.1751 35.3771 41.2196 35.5658 41.3086C35.7545 41.3976 35.8969 41.524 35.993 41.6878C36.0891 41.848 36.1372 42.0402 36.1372 42.2645C36.1372 42.4853 36.0874 42.6739 35.9877 42.8306C35.888 42.9872 35.7474 43.1083 35.5658 43.1937C35.3842 43.2756 35.1706 43.3165 34.925 43.3165H34.1453V43.8238H35.0638V44.1389H34.1453V44.9399H33.6487ZM34.14 43.0068H34.8502C35.1172 43.0068 35.3219 42.9463 35.4643 42.8252C35.6067 42.7006 35.6779 42.5191 35.6779 42.2805C35.6779 42.0385 35.6067 41.8587 35.4643 41.7412C35.3255 41.6201 35.1208 41.5596 34.8502 41.5596H34.14V43.0068Z" fill="#1A1A1A"/>
<path d="M7.56347 66.8798V63.115H8.11351V64.7598H8.81841L8.6849 64.8452L9.84906 63.115H10.4632L9.2029 64.9413L8.99997 64.7811C9.23138 64.8096 9.42719 64.8879 9.58739 65.0161C9.74759 65.1443 9.88644 65.3241 10.0039 65.5555L10.6661 66.8798H10.068L9.53933 65.7851C9.43965 65.5786 9.32394 65.4326 9.19222 65.3472C9.06049 65.2618 8.89495 65.219 8.69558 65.219H8.11351V66.8798H7.56347ZM12.2523 66.9279C11.9853 66.9279 11.7539 66.8727 11.5581 66.7623C11.3623 66.6484 11.211 66.4882 11.1042 66.2817C10.9974 66.0717 10.944 65.8225 10.944 65.5341C10.944 65.2457 10.9974 64.9983 11.1042 64.7918C11.211 64.5818 11.3623 64.4216 11.5581 64.3112C11.7539 64.1973 11.9853 64.1403 12.2523 64.1403C12.5193 64.1403 12.7507 64.1973 12.9466 64.3112C13.1459 64.4216 13.299 64.5818 13.4058 64.7918C13.5162 64.9983 13.5714 65.2457 13.5714 65.5341C13.5714 65.8225 13.5162 66.0717 13.4058 66.2817C13.299 66.4882 13.1459 66.6484 12.9466 66.7623C12.7507 66.8727 12.5193 66.9279 12.2523 66.9279ZM12.2523 66.506C12.4873 66.506 12.6742 66.4241 12.8131 66.2604C12.9519 66.0966 13.0213 65.8545 13.0213 65.5341C13.0213 65.2137 12.9519 64.9734 12.8131 64.8132C12.6742 64.6494 12.4873 64.5675 12.2523 64.5675C12.0209 64.5675 11.8358 64.6494 11.697 64.8132C11.5581 64.9734 11.4887 65.2137 11.4887 65.5341C11.4887 65.8545 11.5563 66.0966 11.6916 66.2604C11.8305 66.4241 12.0174 66.506 12.2523 66.506ZM14.0735 66.9492L13.8919 66.522C14.013 66.4722 14.1144 66.4099 14.1963 66.3351C14.2818 66.2568 14.3476 66.1571 14.3939 66.0361C14.4437 65.915 14.4793 65.7655 14.5007 65.5875C14.5221 65.4095 14.5327 65.1941 14.5327 64.9413V64.1884H16.562V66.8798H16.028V64.6103H15.0294V64.9574C15.0294 65.3632 14.9973 65.6996 14.9333 65.9667C14.8692 66.2337 14.7659 66.4455 14.6235 66.6021C14.4847 66.7552 14.3013 66.8709 14.0735 66.9492ZM17.34 65.6302V65.1977H18.9046V65.6302H17.34ZM19.6822 66.8798V64.1884H21.0386C21.3626 64.1884 21.6011 64.2507 21.7542 64.3753C21.9109 64.4963 21.9892 64.669 21.9892 64.8933C21.9892 65.0677 21.9304 65.2119 21.813 65.3258C21.699 65.4398 21.5477 65.5092 21.359 65.5341V65.4647C21.5833 65.4754 21.7596 65.5412 21.8877 65.6623C22.0159 65.7833 22.08 65.94 22.08 66.1322C22.08 66.3636 21.9927 66.547 21.8183 66.6822C21.6474 66.814 21.4035 66.8798 21.0867 66.8798H19.6822ZM20.1896 66.5327H21.044C21.2184 66.5327 21.3519 66.4971 21.4445 66.4259C21.5371 66.3511 21.5833 66.2443 21.5833 66.1055C21.5833 65.9667 21.5371 65.8616 21.4445 65.7904C21.3519 65.7192 21.2184 65.6836 21.044 65.6836H20.1896V66.5327ZM20.1896 65.3365H20.9852C21.1454 65.3365 21.27 65.3009 21.359 65.2297C21.4481 65.1585 21.4926 65.0606 21.4926 64.936C21.4926 64.8078 21.4481 64.7099 21.359 64.6423C21.27 64.5711 21.1454 64.5355 20.9852 64.5355H20.1896V65.3365ZM23.8922 66.9279C23.6252 66.9279 23.3938 66.8727 23.198 66.7623C23.0022 66.6484 22.8509 66.4882 22.7441 66.2817C22.6373 66.0717 22.5839 65.8225 22.5839 65.5341C22.5839 65.2457 22.6373 64.9983 22.7441 64.7918C22.8509 64.5818 23.0022 64.4216 23.198 64.3112C23.3938 64.1973 23.6252 64.1403 23.8922 64.1403C24.1592 64.1403 24.3906 64.1973 24.5864 64.3112C24.7858 64.4216 24.9389 64.5818 25.0457 64.7918C25.156 64.9983 25.2112 65.2457 25.2112 65.5341C25.2112 65.8225 25.156 66.0717 25.0457 66.2817C24.9389 66.4882 24.7858 66.6484 24.5864 66.7623C24.3906 66.8727 24.1592 66.9279 23.8922 66.9279ZM23.8922 66.506C24.1272 66.506 24.3141 66.4241 24.4529 66.2604C24.5918 66.0966 24.6612 65.8545 24.6612 65.5341C24.6612 65.2137 24.5918 64.9734 24.4529 64.8132C24.3141 64.6494 24.1272 64.5675 23.8922 64.5675C23.6608 64.5675 23.4757 64.6494 23.3368 64.8132C23.198 64.9734 23.1286 65.2137 23.1286 65.5341C23.1286 65.8545 23.1962 66.0966 23.3315 66.2604C23.4703 66.4241 23.6572 66.506 23.8922 66.506ZM27.8781 66.8798V64.6209H26.9275V64.1884H29.368V64.6209H28.4121V66.8798H27.8781ZM30.9585 66.9279C30.6915 66.9279 30.4601 66.8727 30.2643 66.7623C30.0685 66.6484 29.9172 66.4882 29.8104 66.2817C29.7036 66.0717 29.6502 65.8225 29.6502 65.5341C29.6502 65.2457 29.7036 64.9983 29.8104 64.7918C29.9172 64.5818 30.0685 64.4216 30.2643 64.3112C30.4601 64.1973 30.6915 64.1403 30.9585 64.1403C31.2255 64.1403 31.4569 64.1973 31.6527 64.3112C31.8521 64.4216 32.0052 64.5818 32.112 64.7918C32.2224 64.9983 32.2775 65.2457 32.2775 65.5341C32.2775 65.8225 32.2224 66.0717 32.112 66.2817C32.0052 66.4882 31.8521 66.6484 31.6527 66.7623C31.4569 66.8727 31.2255 66.9279 30.9585 66.9279ZM30.9585 66.506C31.1935 66.506 31.3804 66.4241 31.5192 66.2604C31.6581 66.0966 31.7275 65.8545 31.7275 65.5341C31.7275 65.2137 31.6581 64.9734 31.5192 64.8132C31.3804 64.6494 31.1935 64.5675 30.9585 64.5675C30.7271 64.5675 30.542 64.6494 30.4031 64.8132C30.2643 64.9734 30.1949 65.2137 30.1949 65.5341C30.1949 65.8545 30.2625 66.0966 30.3978 66.2604C30.5366 66.4241 30.7235 66.506 30.9585 66.506ZM32.944 66.8798V64.1884H34.3004C34.6243 64.1884 34.8629 64.2507 35.0159 64.3753C35.1726 64.4963 35.2509 64.669 35.2509 64.8933C35.2509 65.0677 35.1922 65.2119 35.0747 65.3258C34.9608 65.4398 34.8095 65.5092 34.6208 65.5341V65.4647C34.8451 65.4754 35.0213 65.5412 35.1495 65.6623C35.2776 65.7833 35.3417 65.94 35.3417 66.1322C35.3417 66.3636 35.2545 66.547 35.08 66.6822C34.9091 66.814 34.6653 66.8798 34.3484 66.8798H32.944ZM33.4513 66.5327H34.3057C34.4802 66.5327 34.6137 66.4971 34.7062 66.4259C34.7988 66.3511 34.8451 66.2443 34.8451 66.1055C34.8451 65.9667 34.7988 65.8616 34.7062 65.7904C34.6137 65.7192 34.4802 65.6836 34.3057 65.6836H33.4513V66.5327ZM33.4513 65.3365H34.247C34.4072 65.3365 34.5318 65.3009 34.6208 65.2297C34.7098 65.1585 34.7543 65.0606 34.7543 64.936C34.7543 64.8078 34.7098 64.7099 34.6208 64.6423C34.5318 64.5711 34.4072 64.5355 34.247 64.5355H33.4513V65.3365ZM37.0311 66.9279C36.7926 66.9279 36.5843 66.8727 36.4063 66.7623C36.2283 66.652 36.0895 66.4918 35.9898 66.2817C35.8937 66.0717 35.8456 65.8225 35.8456 65.5341C35.8456 65.2422 35.8937 64.993 35.9898 64.7865C36.0895 64.58 36.2283 64.4216 36.4063 64.3112C36.5843 64.1973 36.7926 64.1403 37.0311 64.1403C37.2661 64.1403 37.4708 64.1991 37.6452 64.3165C37.8197 64.434 37.9354 64.5942 37.9923 64.7972H37.9336L37.987 64.1884H38.5103C38.4996 64.2987 38.489 64.4091 38.4783 64.5195C38.4712 64.6263 38.4676 64.7313 38.4676 64.8345V66.8798H37.9282V66.2817H37.987C37.93 66.4811 37.8125 66.6395 37.6345 66.757C37.4601 66.8709 37.259 66.9279 37.0311 66.9279ZM37.1646 66.506C37.396 66.506 37.5811 66.4241 37.72 66.2604C37.8624 66.0966 37.9336 65.8545 37.9336 65.5341C37.9336 65.2137 37.8624 64.9734 37.72 64.8132C37.5811 64.6494 37.396 64.5675 37.1646 64.5675C36.9296 64.5675 36.741 64.6494 36.5986 64.8132C36.4597 64.9734 36.3903 65.2137 36.3903 65.5341C36.3903 65.8545 36.4597 66.0966 36.5986 66.2604C36.7374 66.4241 36.9261 66.506 37.1646 66.506ZM39.3172 68.0333V64.8345C39.3172 64.7313 39.3119 64.6263 39.3012 64.5195C39.2941 64.4091 39.2851 64.2987 39.2745 64.1884H39.7978L39.8512 64.7972H39.7925C39.8494 64.5942 39.9633 64.434 40.1342 64.3165C40.3087 64.1991 40.5152 64.1403 40.7537 64.1403C40.9922 64.1403 41.2005 64.1973 41.3785 64.3112C41.5565 64.4216 41.6936 64.58 41.7897 64.7865C41.8894 64.993 41.9392 65.2422 41.9392 65.5341C41.9392 65.8225 41.8894 66.0717 41.7897 66.2817C41.6936 66.4918 41.5565 66.652 41.3785 66.7623C41.2005 66.8727 40.9922 66.9279 40.7537 66.9279C40.5187 66.9279 40.314 66.8709 40.1396 66.757C39.9687 66.6395 39.8548 66.4811 39.7978 66.2817H39.8565V68.0333H39.3172ZM40.6202 66.506C40.8552 66.506 41.0421 66.4241 41.1809 66.2604C41.3233 66.0966 41.3945 65.8545 41.3945 65.5341C41.3945 65.2137 41.3233 64.9734 41.1809 64.8132C41.0421 64.6494 40.8552 64.5675 40.6202 64.5675C40.3852 64.5675 40.1965 64.6494 40.0541 64.8132C39.9153 64.9734 39.8459 65.2137 39.8459 65.5341C39.8459 65.8545 39.9153 66.0966 40.0541 66.2604C40.1965 66.4241 40.3852 66.506 40.6202 66.506ZM43.6646 66.9279C43.426 66.9279 43.2178 66.8727 43.0398 66.7623C42.8618 66.652 42.7229 66.4918 42.6232 66.2817C42.5271 66.0717 42.4791 65.8225 42.4791 65.5341C42.4791 65.2422 42.5271 64.993 42.6232 64.7865C42.7229 64.58 42.8618 64.4216 43.0398 64.3112C43.2178 64.1973 43.426 64.1403 43.6646 64.1403C43.8995 64.1403 44.1042 64.1991 44.2787 64.3165C44.4531 64.434 44.5688 64.5942 44.6258 64.7972H44.5671L44.6205 64.1884H45.1438C45.1331 64.2987 45.1224 64.4091 45.1118 64.5195C45.1046 64.6263 45.1011 64.7313 45.1011 64.8345V66.8798H44.5617V66.2817H44.6205C44.5635 66.4811 44.446 66.6395 44.268 66.757C44.0936 66.8709 43.8924 66.9279 43.6646 66.9279ZM43.7981 66.506C44.0295 66.506 44.2146 66.4241 44.3535 66.2604C44.4959 66.0966 44.5671 65.8545 44.5671 65.5341C44.5671 65.2137 44.4959 64.9734 44.3535 64.8132C44.2146 64.6494 44.0295 64.5675 43.7981 64.5675C43.5631 64.5675 43.3744 64.6494 43.232 64.8132C43.0932 64.9734 43.0238 65.2137 43.0238 65.5341C43.0238 65.8545 43.0932 66.0966 43.232 66.2604C43.3709 66.4241 43.5596 66.506 43.7981 66.506Z" fill="#1A1A1A"/>
<path d="M129.473 66.8798V66.3084H130.338V63.6918H130.669L129.558 64.3539V63.7024L130.535 63.115H131.027V66.3084H131.838V66.8798H129.473ZM133.983 66.8798V66.1429H132.301V65.6623L134.09 63.115H134.645V65.6195H135.185V66.1429H134.645V66.8798H133.983ZM133.983 65.6195V63.9267H134.111L132.813 65.7798V65.6195H133.983ZM137.019 66.9332C136.546 66.9332 136.179 66.7695 135.919 66.4419C135.663 66.1144 135.535 65.6551 135.535 65.0642C135.535 64.637 135.601 64.2756 135.732 63.9801C135.864 63.6811 136.051 63.4532 136.293 63.2966C136.539 63.1399 136.833 63.0616 137.174 63.0616C137.377 63.0616 137.578 63.099 137.778 63.1738C137.977 63.245 138.148 63.3482 138.29 63.4835L138.061 63.9961C137.929 63.8751 137.787 63.7861 137.634 63.7291C137.48 63.6686 137.326 63.6383 137.169 63.6383C136.849 63.6383 136.605 63.7469 136.437 63.9641C136.27 64.1813 136.186 64.5052 136.186 64.936V65.3365H136.122C136.151 65.155 136.211 65.0001 136.304 64.8719C136.396 64.7402 136.516 64.6405 136.662 64.5729C136.808 64.5017 136.97 64.4661 137.148 64.4661C137.368 64.4661 137.564 64.5177 137.735 64.6209C137.906 64.7242 138.039 64.8666 138.136 65.0481C138.235 65.2297 138.285 65.438 138.285 65.6729C138.285 65.915 138.23 66.1322 138.12 66.3244C138.013 66.5131 137.865 66.6627 137.676 66.773C137.488 66.8798 137.269 66.9332 137.019 66.9332ZM136.982 66.3885C137.114 66.3885 137.229 66.36 137.329 66.3031C137.429 66.2461 137.505 66.166 137.559 66.0628C137.616 65.956 137.644 65.8349 137.644 65.6996C137.644 65.5608 137.616 65.4398 137.559 65.3365C137.505 65.2333 137.429 65.1532 137.329 65.0962C137.229 65.0357 137.114 65.0054 136.982 65.0054C136.85 65.0054 136.735 65.0357 136.635 65.0962C136.535 65.1532 136.457 65.2333 136.4 65.3365C136.343 65.4398 136.315 65.5608 136.315 65.6996C136.315 65.8349 136.343 65.956 136.4 66.0628C136.457 66.166 136.535 66.2461 136.635 66.3031C136.735 66.36 136.85 66.3885 136.982 66.3885ZM140.33 66.8798V64.183H140.955V66.3672H141.906V64.183H142.525V66.3672H143.476V64.183H144.101V66.8798H140.33ZM145.439 66.8798V64.7064H144.515V64.183H147.031V64.7064H146.101V66.8798H145.439Z" fill="#1A1A1A"/>
<path d="M7.56347 77.8798V74.115H9.13348C9.53933 74.115 9.85084 74.2005 10.068 74.3713C10.2887 74.5422 10.3991 74.7825 10.3991 75.0923C10.3991 75.3237 10.3297 75.5177 10.1908 75.6743C10.052 75.831 9.86152 75.936 9.61943 75.9894V75.9093C9.89712 75.9449 10.1125 76.0428 10.2656 76.203C10.4187 76.3632 10.4952 76.575 10.4952 76.8385C10.4952 77.1731 10.3813 77.4312 10.1534 77.6128C9.92916 77.7908 9.61231 77.8798 9.2029 77.8798H7.56347ZM8.10283 77.4473H9.14416C9.39692 77.4473 9.59451 77.3992 9.73691 77.3031C9.88288 77.207 9.95586 77.045 9.95586 76.8171C9.95586 76.5893 9.88288 76.4273 9.73691 76.3312C9.59451 76.2351 9.39692 76.187 9.14416 76.187H8.10283V77.4473ZM8.10283 75.7598H9.04803C9.3186 75.7598 9.52153 75.7082 9.65681 75.6049C9.7921 75.5017 9.85974 75.3504 9.85974 75.151C9.85974 74.9516 9.7921 74.8003 9.65681 74.6971C9.52153 74.5938 9.3186 74.5422 9.04803 74.5422H8.10283V75.7598ZM11.1818 77.8798V75.1884H11.7158V76.1283H12.4795C12.8319 76.1283 13.0971 76.203 13.2751 76.3525C13.4531 76.4985 13.5421 76.7121 13.5421 76.9934C13.5421 77.1749 13.5012 77.3333 13.4193 77.4686C13.3374 77.6004 13.2164 77.7018 13.0562 77.773C12.8996 77.8442 12.7073 77.8798 12.4795 77.8798H11.1818ZM11.7158 77.5114H12.4207C12.6236 77.5114 12.7767 77.4704 12.88 77.3885C12.9868 77.3031 13.0402 77.1731 13.0402 76.9987C13.0402 76.8243 12.9868 76.6979 12.88 76.6195C12.7767 76.5377 12.6236 76.4967 12.4207 76.4967H11.7158V77.5114ZM13.9213 77.8798V75.1884H14.4553V77.8798H13.9213ZM15.2813 79.0333V75.8345C15.2813 75.7313 15.2759 75.6263 15.2653 75.5195C15.2581 75.4091 15.2492 75.2987 15.2386 75.1884H15.7619L15.8153 75.7972H15.7566C15.8135 75.5942 15.9274 75.434 16.0983 75.3165C16.2728 75.1991 16.4793 75.1403 16.7178 75.1403C16.9563 75.1403 17.1646 75.1973 17.3426 75.3112C17.5206 75.4216 17.6577 75.58 17.7538 75.7865C17.8535 75.993 17.9033 76.2422 17.9033 76.5341C17.9033 76.8225 17.8535 77.0717 17.7538 77.2817C17.6577 77.4918 17.5206 77.652 17.3426 77.7623C17.1646 77.8727 16.9563 77.9279 16.7178 77.9279C16.4828 77.9279 16.2781 77.8709 16.1037 77.757C15.9328 77.6395 15.8189 77.4811 15.7619 77.2817H15.8206V79.0333H15.2813ZM16.5843 77.506C16.8193 77.506 17.0062 77.4241 17.145 77.2604C17.2874 77.0966 17.3586 76.8545 17.3586 76.5341C17.3586 76.2137 17.2874 75.9734 17.145 75.8132C17.0062 75.6494 16.8193 75.5675 16.5843 75.5675C16.3493 75.5675 16.1606 75.6494 16.0182 75.8132C15.8794 75.9734 15.81 76.2137 15.81 76.5341C15.81 76.8545 15.8794 77.0966 16.0182 77.2604C16.1606 77.4241 16.3493 77.506 16.5843 77.506ZM18.4814 79.092L18.3533 78.6541C18.5206 78.6185 18.6594 78.5758 18.7698 78.526C18.8837 78.4761 18.9781 78.4103 19.0528 78.3284C19.1276 78.2501 19.1917 78.1486 19.2451 78.024L19.3786 77.7089L19.3679 77.9279L18.1984 75.1884H18.7751L19.683 77.4312H19.5388L20.4466 75.1884H21.002L19.7684 78.0721C19.6901 78.2501 19.6064 78.3996 19.5174 78.5206C19.4284 78.6417 19.3323 78.7396 19.229 78.8143C19.1258 78.8891 19.0119 78.9479 18.8873 78.9906C18.7627 79.0333 18.6274 79.0671 18.4814 79.092ZM23.1853 77.8798V76.8385C23.0856 76.8919 22.9788 76.9346 22.8649 76.9667C22.751 76.9951 22.6299 77.0094 22.5018 77.0094C22.1137 77.0094 21.8253 76.9186 21.6367 76.737C21.4515 76.5519 21.359 76.276 21.359 75.9093V75.1884H21.893V75.8666C21.893 76.1122 21.9482 76.2902 22.0585 76.4006C22.1689 76.511 22.3433 76.5661 22.5819 76.5661C22.7029 76.5661 22.8097 76.5537 22.9023 76.5288C22.9948 76.5003 23.0856 76.4576 23.1746 76.4006V75.1884H23.714V77.8798H23.1853ZM24.5218 77.8798V75.1884H25.0558V76.2885H25.5204L26.3588 75.1884H26.9462L25.9422 76.5127L25.8087 76.3419C25.912 76.3525 26.001 76.3792 26.0757 76.422C26.1505 76.4611 26.2235 76.5199 26.2947 76.5982C26.3659 76.6765 26.4389 76.7798 26.5136 76.9079L27.0743 77.8798H26.4976L26.017 77.0574C25.9636 76.9649 25.912 76.8937 25.8621 76.8438C25.8123 76.7904 25.7553 76.7548 25.6912 76.737C25.6272 76.7157 25.5488 76.705 25.4563 76.705H25.0558V77.8798H24.5218ZM28.5202 77.9279C28.2817 77.9279 28.0734 77.8727 27.8954 77.7623C27.7174 77.652 27.5786 77.4918 27.4789 77.2817C27.3828 77.0717 27.3347 76.8225 27.3347 76.5341C27.3347 76.2422 27.3828 75.993 27.4789 75.7865C27.5786 75.58 27.7174 75.4216 27.8954 75.3112C28.0734 75.1973 28.2817 75.1403 28.5202 75.1403C28.7552 75.1403 28.9599 75.1991 29.1344 75.3165C29.3088 75.434 29.4245 75.5942 29.4815 75.7972H29.4227L29.4761 75.1884H29.9995C29.9888 75.2987 29.9781 75.4091 29.9674 75.5195C29.9603 75.6263 29.9567 75.7313 29.9567 75.8345V77.8798H29.4174V77.2817H29.4761C29.4192 77.4811 29.3017 77.6395 29.1237 77.757C28.9492 77.8709 28.7481 77.9279 28.5202 77.9279ZM28.6537 77.506C28.8851 77.506 29.0703 77.4241 29.2091 77.2604C29.3515 77.0966 29.4227 76.8545 29.4227 76.5341C29.4227 76.2137 29.3515 75.9734 29.2091 75.8132C29.0703 75.6494 28.8851 75.5675 28.6537 75.5675C28.4188 75.5675 28.2301 75.6494 28.0877 75.8132C27.9488 75.9734 27.8794 76.2137 27.8794 76.5341C27.8794 76.8545 27.9488 77.0966 28.0877 77.2604C28.2265 77.4241 28.4152 77.506 28.6537 77.506Z" fill="#1A1A1A"/>
<path d="M122.473 77.8798V77.3084H123.338V74.6918H123.669L122.558 75.3539V74.7024L123.535 74.115H124.027V77.3084H124.838V77.8798H122.473ZM126.983 77.8798V77.1429H125.301V76.6623L127.09 74.115H127.645V76.6195H128.185V77.1429H127.645V77.8798H126.983ZM126.983 76.6195V74.9267H127.111L125.813 76.7798V76.6195H126.983ZM130.019 77.9332C129.546 77.9332 129.179 77.7695 128.919 77.4419C128.663 77.1144 128.535 76.6551 128.535 76.0642C128.535 75.637 128.601 75.2756 128.732 74.9801C128.864 74.6811 129.051 74.4532 129.293 74.2966C129.539 74.1399 129.833 74.0616 130.174 74.0616C130.377 74.0616 130.578 74.099 130.778 74.1738C130.977 74.245 131.148 74.3482 131.29 74.4835L131.061 74.9961C130.929 74.8751 130.787 74.7861 130.634 74.7291C130.48 74.6686 130.326 74.6383 130.169 74.6383C129.849 74.6383 129.605 74.7469 129.437 74.9641C129.27 75.1813 129.186 75.5052 129.186 75.936V76.3365H129.122C129.151 76.155 129.211 76.0001 129.304 75.8719C129.396 75.7402 129.516 75.6405 129.662 75.5729C129.808 75.5017 129.97 75.4661 130.148 75.4661C130.368 75.4661 130.564 75.5177 130.735 75.6209C130.906 75.7242 131.039 75.8666 131.136 76.0481C131.235 76.2297 131.285 76.438 131.285 76.6729C131.285 76.915 131.23 77.1322 131.12 77.3244C131.013 77.5131 130.865 77.6627 130.676 77.773C130.488 77.8798 130.269 77.9332 130.019 77.9332ZM129.982 77.3885C130.114 77.3885 130.229 77.36 130.329 77.3031C130.429 77.2461 130.505 77.166 130.559 77.0628C130.616 76.956 130.644 76.8349 130.644 76.6996C130.644 76.5608 130.616 76.4398 130.559 76.3365C130.505 76.2333 130.429 76.1532 130.329 76.0962C130.229 76.0357 130.114 76.0054 129.982 76.0054C129.85 76.0054 129.735 76.0357 129.635 76.0962C129.535 76.1532 129.457 76.2333 129.4 76.3365C129.343 76.4398 129.315 76.5608 129.315 76.6996C129.315 76.8349 129.343 76.956 129.4 77.0628C129.457 77.166 129.535 77.2461 129.635 77.3031C129.735 77.36 129.85 77.3885 129.982 77.3885ZM134.553 77.9332C134.112 77.9332 133.772 77.7659 133.533 77.4312C133.295 77.093 133.176 76.6124 133.176 75.9894C133.176 75.3593 133.295 74.8804 133.533 74.5529C133.772 74.2254 134.112 74.0616 134.553 74.0616C134.998 74.0616 135.338 74.2254 135.573 74.5529C135.812 74.8804 135.931 75.3575 135.931 75.9841C135.931 76.6106 135.812 77.093 135.573 77.4312C135.338 77.7659 134.998 77.9332 134.553 77.9332ZM134.553 77.3672C134.795 77.3672 134.975 77.2568 135.093 77.0361C135.21 76.8118 135.269 76.4611 135.269 75.9841C135.269 75.507 135.21 75.1617 135.093 74.9481C134.975 74.7309 134.795 74.6223 134.553 74.6223C134.315 74.6223 134.135 74.7309 134.014 74.9481C133.897 75.1617 133.838 75.507 133.838 75.9841C133.838 76.4611 133.897 76.8118 134.014 77.0361C134.135 77.2568 134.315 77.3672 134.553 77.3672ZM137.755 77.9332C137.314 77.9332 136.974 77.7659 136.735 77.4312C136.497 77.093 136.378 76.6124 136.378 75.9894C136.378 75.3593 136.497 74.8804 136.735 74.5529C136.974 74.2254 137.314 74.0616 137.755 74.0616C138.2 74.0616 138.54 74.2254 138.775 74.5529C139.014 74.8804 139.133 75.3575 139.133 75.9841C139.133 76.6106 139.014 77.093 138.775 77.4312C138.54 77.7659 138.2 77.9332 137.755 77.9332ZM137.755 77.3672C137.997 77.3672 138.177 77.2568 138.295 77.0361C138.412 76.8118 138.471 76.4611 138.471 75.9841C138.471 75.507 138.412 75.1617 138.295 74.9481C138.177 74.7309 137.997 74.6223 137.755 74.6223C137.517 74.6223 137.337 74.7309 137.216 74.9481C137.099 75.1617 137.04 75.507 137.04 75.9841C137.04 76.4611 137.099 76.8118 137.216 77.0361C137.337 77.2568 137.517 77.3672 137.755 77.3672ZM140.957 77.9332C140.516 77.9332 140.176 77.7659 139.937 77.4312C139.699 77.093 139.58 76.6124 139.58 75.9894C139.58 75.3593 139.699 74.8804 139.937 74.5529C140.176 74.2254 140.516 74.0616 140.957 74.0616C141.402 74.0616 141.742 74.2254 141.977 74.5529C142.216 74.8804 142.335 75.3575 142.335 75.9841C142.335 76.6106 142.216 77.093 141.977 77.4312C141.742 77.7659 141.402 77.9332 140.957 77.9332ZM140.957 77.3672C141.199 77.3672 141.379 77.2568 141.497 77.0361C141.614 76.8118 141.673 76.4611 141.673 75.9841C141.673 75.507 141.614 75.1617 141.497 74.9481C141.379 74.7309 141.199 74.6223 140.957 74.6223C140.719 74.6223 140.539 74.7309 140.418 74.9481C140.301 75.1617 140.242 75.507 140.242 75.9841C140.242 76.4611 140.301 76.8118 140.418 77.0361C140.539 77.2568 140.719 77.3672 140.957 77.3672ZM144.578 77.8798V77.1002H144.124V76.705H144.578V76.2671H144.124V75.8719H144.578V74.115H145.854C146.129 74.115 146.36 74.1613 146.549 74.2539C146.741 74.3464 146.885 74.4746 146.981 74.6383C147.081 74.8021 147.131 74.9944 147.131 75.2151C147.131 75.4358 147.081 75.6245 146.981 75.7811C146.882 75.9378 146.739 76.0588 146.554 76.1443C146.369 76.2262 146.145 76.2671 145.881 76.2671H145.267V76.705H146.127V77.1002H145.267V77.8798H144.578ZM145.256 75.8719H145.785C146.016 75.8719 146.193 75.8203 146.314 75.7171C146.438 75.6138 146.501 75.4572 146.501 75.2471C146.501 75.0335 146.438 74.8769 146.314 74.7772C146.193 74.6739 146.016 74.6223 145.785 74.6223H145.256V75.8719Z" fill="#1A1A1A"/>
<path d="M9.87042 88.8798V87.3419C9.76006 87.3953 9.62121 87.438 9.45389 87.47C9.28656 87.5021 9.11924 87.5181 8.95191 87.5181C8.4535 87.5181 8.07257 87.3899 7.80912 87.1336C7.54923 86.8737 7.41929 86.4839 7.41929 85.9641V85.115H7.96932V85.9321C7.96932 86.3165 8.05477 86.5978 8.22565 86.7758C8.4001 86.9502 8.66176 87.0375 9.01065 87.0375C9.16018 87.0375 9.30792 87.0232 9.45389 86.9947C9.59985 86.9663 9.73869 86.9182 9.87042 86.8506V85.115H10.4205V88.8798H9.87042ZM11.2705 88.8798V86.1884H11.7618V88.3618H11.6122L13.2356 86.1884H13.6842V88.8798H13.1983V86.701H13.3531L11.719 88.8798H11.2705ZM15.6949 88.9279C15.4243 88.9279 15.1875 88.8727 14.9846 88.7623C14.7853 88.6484 14.6304 88.4864 14.52 88.2764C14.4132 88.0628 14.3598 87.81 14.3598 87.5181C14.3598 87.2297 14.415 86.9823 14.5254 86.7758C14.6357 86.5693 14.7906 86.4127 14.99 86.3059C15.1893 86.1955 15.4243 86.1403 15.6949 86.1403C15.8693 86.1403 16.0384 86.1706 16.2022 86.2311C16.3659 86.2881 16.5012 86.3699 16.608 86.4768L16.4318 86.8559C16.3321 86.7598 16.22 86.6886 16.0954 86.6423C15.9708 86.5925 15.8497 86.5675 15.7322 86.5675C15.4759 86.5675 15.2748 86.6494 15.1288 86.8132C14.9828 86.9769 14.9099 87.2137 14.9099 87.5234C14.9099 87.8367 14.9828 88.077 15.1288 88.2443C15.2748 88.4117 15.4759 88.4953 15.7322 88.4953C15.8462 88.4953 15.9654 88.474 16.09 88.4312C16.2146 88.385 16.3286 88.312 16.4318 88.2123L16.608 88.5915C16.4977 88.6983 16.3588 88.7819 16.1915 88.8424C16.0277 88.8994 15.8622 88.9279 15.6949 88.9279ZM17.7975 88.8798V86.6209H16.847V86.1884H19.2874V86.6209H18.3315V88.8798H17.7975ZM20.7708 88.9279C20.5322 88.9279 20.324 88.8727 20.146 88.7623C19.968 88.652 19.8291 88.4918 19.7294 88.2817C19.6333 88.0717 19.5852 87.8225 19.5852 87.5341C19.5852 87.2422 19.6333 86.993 19.7294 86.7865C19.8291 86.58 19.968 86.4216 20.146 86.3112C20.324 86.1973 20.5322 86.1403 20.7708 86.1403C21.0057 86.1403 21.2104 86.1991 21.3849 86.3165C21.5593 86.434 21.675 86.5942 21.732 86.7972H21.6732L21.7266 86.1884H22.25C22.2393 86.2987 22.2286 86.4091 22.2179 86.5195C22.2108 86.6263 22.2073 86.7313 22.2073 86.8345V88.8798H21.6679V88.2817H21.7266C21.6697 88.4811 21.5522 88.6395 21.3742 88.757C21.1997 88.8709 20.9986 88.9279 20.7708 88.9279ZM20.9043 88.506C21.1357 88.506 21.3208 88.4241 21.4596 88.2604C21.602 88.0966 21.6732 87.8545 21.6732 87.5341C21.6732 87.2137 21.602 86.9734 21.4596 86.8132C21.3208 86.6494 21.1357 86.5675 20.9043 86.5675C20.6693 86.5675 20.4806 86.6494 20.3382 86.8132C20.1994 86.9734 20.1299 87.2137 20.1299 87.5341C20.1299 87.8545 20.1994 88.0966 20.3382 88.2604C20.477 88.4241 20.6657 88.506 20.9043 88.506ZM22.8165 88.8798L23.2384 88.1536C23.306 88.0361 23.3915 87.9417 23.4947 87.8705C23.6015 87.7958 23.7101 87.7584 23.8205 87.7584H23.9166L23.9113 87.8118C23.6051 87.8118 23.3666 87.7424 23.1957 87.6035C23.0248 87.4647 22.9394 87.2653 22.9394 87.0054C22.9394 86.7455 23.0248 86.5444 23.1957 86.402C23.3666 86.2596 23.6176 86.1884 23.9486 86.1884H25.2089V88.8798H24.7123V87.8812H24.3545C24.2192 87.8812 24.1035 87.915 24.0074 87.9827C23.9148 88.0503 23.8383 88.1393 23.7778 88.2497L23.4146 88.8798H22.8165ZM24.0448 87.5181H24.7123V86.5515H24.0448C23.8454 86.5515 23.6959 86.5942 23.5962 86.6797C23.5001 86.7651 23.452 86.8826 23.452 87.0321C23.452 87.1888 23.5001 87.3098 23.5962 87.3953C23.6959 87.4771 23.8454 87.5181 24.0448 87.5181ZM27.4422 88.8798V86.1884H29.8559V88.8798H29.3219V86.6103H27.9762V88.8798H27.4422ZM30.6864 90.0333V86.8345C30.6864 86.7313 30.681 86.6263 30.6704 86.5195C30.6632 86.4091 30.6543 86.2987 30.6437 86.1884H31.167L31.2204 86.7972H31.1617C31.2186 86.5942 31.3325 86.434 31.5034 86.3165C31.6779 86.1991 31.8844 86.1403 32.1229 86.1403C32.3614 86.1403 32.5697 86.1973 32.7477 86.3112C32.9257 86.4216 33.0627 86.58 33.1589 86.7865C33.2586 86.993 33.3084 87.2422 33.3084 87.5341C33.3084 87.8225 33.2586 88.0717 33.1589 88.2817C33.0627 88.4918 32.9257 88.652 32.7477 88.7623C32.5697 88.8727 32.3614 88.9279 32.1229 88.9279C31.8879 88.9279 31.6832 88.8709 31.5088 88.757C31.3379 88.6395 31.224 88.4811 31.167 88.2817H31.2257V90.0333H30.6864ZM31.9894 88.506C32.2243 88.506 32.4112 88.4241 32.5501 88.2604C32.6925 88.0966 32.7637 87.8545 32.7637 87.5341C32.7637 87.2137 32.6925 86.9734 32.5501 86.8132C32.4112 86.6494 32.2243 86.5675 31.9894 86.5675C31.7544 86.5675 31.5657 86.6494 31.4233 86.8132C31.2845 86.9734 31.2151 87.2137 31.2151 87.5341C31.2151 87.8545 31.2845 88.0966 31.4233 88.2604C31.5657 88.4241 31.7544 88.506 31.9894 88.506ZM33.9818 88.8798V86.1884H34.473V88.3618H34.3235L35.9469 86.1884H36.3955V88.8798H35.9095V86.701H36.0644L34.4303 88.8798H33.9818ZM38.4008 88.9279C37.995 88.9279 37.671 88.8015 37.4289 88.5487C37.1904 88.296 37.0711 87.9239 37.0711 87.4326V86.968C37.0711 86.4661 37.1779 86.062 37.3915 85.7558C37.6087 85.4497 37.9433 85.2432 38.3955 85.1364L39.3781 84.9014L39.5329 85.334L38.4329 85.5903C38.2406 85.633 38.0822 85.7131 37.9576 85.8306C37.833 85.9481 37.7386 86.0869 37.6746 86.2471C37.614 86.4073 37.5838 86.5782 37.5838 86.7598V87.0054H37.5037C37.5464 86.8417 37.614 86.7028 37.7066 86.5889C37.8027 86.4714 37.9202 86.3806 38.059 86.3165C38.2014 86.2489 38.3599 86.2151 38.5343 86.2151C38.7657 86.2151 38.9686 86.2685 39.1431 86.3753C39.3175 86.4821 39.4528 86.637 39.5489 86.8399C39.6486 87.0392 39.6985 87.276 39.6985 87.5501C39.6985 87.8349 39.6451 88.0806 39.5383 88.2871C39.4315 88.4936 39.2802 88.652 39.0844 88.7623C38.8921 88.8727 38.6643 88.9279 38.4008 88.9279ZM38.3848 88.5114C38.6269 88.5114 38.8156 88.433 38.9508 88.2764C39.0897 88.1162 39.1591 87.8812 39.1591 87.5715C39.1591 87.2653 39.0897 87.0321 38.9508 86.8719C38.812 86.7117 38.6233 86.6316 38.3848 86.6316C38.1463 86.6316 37.9576 86.7117 37.8187 86.8719C37.6799 87.0286 37.6105 87.2529 37.6105 87.5448C37.6105 87.8652 37.6781 88.1073 37.8134 88.271C37.9522 88.4312 38.1427 88.5114 38.3848 88.5114ZM40.3701 88.8798V86.1884H40.9041V87.1283H41.6678C42.0202 87.1283 42.2855 87.203 42.4635 87.3525C42.6415 87.4985 42.7305 87.7121 42.7305 87.9934C42.7305 88.1749 42.6895 88.3333 42.6076 88.4686C42.5258 88.6004 42.4047 88.7018 42.2445 88.773C42.0879 88.8442 41.8956 88.8798 41.6678 88.8798H40.3701ZM40.9041 88.5114H41.609C41.812 88.5114 41.965 88.4704 42.0683 88.3885C42.1751 88.3031 42.2285 88.1731 42.2285 87.9987C42.2285 87.8243 42.1751 87.6979 42.0683 87.6195C41.965 87.5377 41.812 87.4967 41.609 87.4967H40.9041V88.5114ZM43.1096 88.8798V86.1884H43.6436V88.8798H43.1096ZM44.3361 88.9492L44.1545 88.522C44.2756 88.4722 44.377 88.4099 44.4589 88.3351C44.5444 88.2568 44.6102 88.1571 44.6565 88.0361C44.7064 87.915 44.742 87.7655 44.7633 87.5875C44.7847 87.4095 44.7954 87.1941 44.7954 86.9413V86.1884H46.8246V88.8798H46.2906V86.6103H45.292V86.9574C45.292 87.3632 45.2599 87.6996 45.1959 87.9667C45.1318 88.2337 45.0285 88.4455 44.8861 88.6021C44.7473 88.7552 44.5639 88.8709 44.3361 88.9492ZM47.6346 88.8798V86.1884H48.1686V87.1283H48.9323C49.2847 87.1283 49.5499 87.203 49.7279 87.3525C49.9059 87.4985 49.995 87.7121 49.995 87.9934C49.995 88.1749 49.954 88.3333 49.8721 88.4686C49.7902 88.6004 49.6692 88.7018 49.509 88.773C49.3524 88.8442 49.1601 88.8798 48.9323 88.8798H47.6346ZM48.1686 88.5114H48.8735C49.0729 88.5114 49.226 88.4704 49.3328 88.3885C49.4396 88.3031 49.493 88.1731 49.493 87.9987C49.493 87.8243 49.4396 87.6979 49.3328 87.6195C49.2295 87.5377 49.0764 87.4967 48.8735 87.4967H48.1686V88.5114Z" fill="#1A1A1A"/>
<path d="M125.339 88.8798L127.165 85.4514V85.6918H125.168V85.115H127.801V85.6277L126.092 88.8798H125.339ZM129.983 88.8798V88.1429H128.301V87.6623L130.09 85.115H130.645V87.6195H131.185V88.1429H130.645V88.8798H129.983ZM129.983 87.6195V85.9267H130.111L128.813 87.7798V87.6195H129.983ZM134.351 88.9332C133.91 88.9332 133.57 88.7659 133.331 88.4312C133.093 88.093 132.974 87.6124 132.974 86.9894C132.974 86.3593 133.093 85.8804 133.331 85.5529C133.57 85.2254 133.91 85.0616 134.351 85.0616C134.796 85.0616 135.136 85.2254 135.371 85.5529C135.61 85.8804 135.729 86.3575 135.729 86.9841C135.729 87.6106 135.61 88.093 135.371 88.4312C135.136 88.7659 134.796 88.9332 134.351 88.9332ZM134.351 88.3672C134.593 88.3672 134.773 88.2568 134.891 88.0361C135.008 87.8118 135.067 87.4611 135.067 86.9841C135.067 86.507 135.008 86.1617 134.891 85.9481C134.773 85.7309 134.593 85.6223 134.351 85.6223C134.113 85.6223 133.933 85.7309 133.812 85.9481C133.695 86.1617 133.636 86.507 133.636 86.9841C133.636 87.4611 133.695 87.8118 133.812 88.0361C133.933 88.2568 134.113 88.3672 134.351 88.3672ZM137.553 88.9332C137.112 88.9332 136.772 88.7659 136.533 88.4312C136.295 88.093 136.176 87.6124 136.176 86.9894C136.176 86.3593 136.295 85.8804 136.533 85.5529C136.772 85.2254 137.112 85.0616 137.553 85.0616C137.998 85.0616 138.338 85.2254 138.573 85.5529C138.812 85.8804 138.931 86.3575 138.931 86.9841C138.931 87.6106 138.812 88.093 138.573 88.4312C138.338 88.7659 137.998 88.9332 137.553 88.9332ZM137.553 88.3672C137.795 88.3672 137.975 88.2568 138.093 88.0361C138.21 87.8118 138.269 87.4611 138.269 86.9841C138.269 86.507 138.21 86.1617 138.093 85.9481C137.975 85.7309 137.795 85.6223 137.553 85.6223C137.315 85.6223 137.135 85.7309 137.014 85.9481C136.897 86.1617 136.838 86.507 136.838 86.9841C136.838 87.4611 136.897 87.8118 137.014 88.0361C137.135 88.2568 137.315 88.3672 137.553 88.3672ZM140.755 88.9332C140.314 88.9332 139.974 88.7659 139.735 88.4312C139.497 88.093 139.378 87.6124 139.378 86.9894C139.378 86.3593 139.497 85.8804 139.735 85.5529C139.974 85.2254 140.314 85.0616 140.755 85.0616C141.2 85.0616 141.54 85.2254 141.775 85.5529C142.014 85.8804 142.133 86.3575 142.133 86.9841C142.133 87.6106 142.014 88.093 141.775 88.4312C141.54 88.7659 141.2 88.9332 140.755 88.9332ZM140.755 88.3672C140.997 88.3672 141.177 88.2568 141.295 88.0361C141.412 87.8118 141.471 87.4611 141.471 86.9841C141.471 86.507 141.412 86.1617 141.295 85.9481C141.177 85.7309 140.997 85.6223 140.755 85.6223C140.517 85.6223 140.337 85.7309 140.216 85.9481C140.099 86.1617 140.04 86.507 140.04 86.9841C140.04 87.4611 140.099 87.8118 140.216 88.0361C140.337 88.2568 140.517 88.3672 140.755 88.3672ZM144.376 88.8798V88.1002H143.922V87.705H144.376V87.2671H143.922V86.8719H144.376V85.115H145.652C145.927 85.115 146.158 85.1613 146.347 85.2539C146.539 85.3464 146.683 85.4746 146.779 85.6383C146.879 85.8021 146.929 85.9944 146.929 86.2151C146.929 86.4358 146.879 86.6245 146.779 86.7811C146.679 86.9378 146.537 87.0588 146.352 87.1443C146.167 87.2262 145.943 87.2671 145.679 87.2671H145.065V87.705H145.925V88.1002H145.065V88.8798H144.376ZM145.054 86.8719H145.583C145.814 86.8719 145.991 86.8203 146.112 86.7171C146.236 86.6138 146.299 86.4572 146.299 86.2471C146.299 86.0335 146.236 85.8769 146.112 85.7772C145.991 85.6739 145.814 85.6223 145.583 85.6223H145.054V86.8719Z" fill="#1A1A1A"/>
<path d="M8.46596 99.8798V96.5796H7.17898V96.115H10.3083V96.5796H9.02133V99.8798H8.46596ZM11.5535 99.9279C11.2865 99.9279 11.0551 99.8727 10.8593 99.7623C10.6635 99.6484 10.5122 99.4882 10.4054 99.2817C10.2986 99.0717 10.2452 98.8225 10.2452 98.5341C10.2452 98.2457 10.2986 97.9983 10.4054 97.7918C10.5122 97.5818 10.6635 97.4216 10.8593 97.3112C11.0551 97.1973 11.2865 97.1403 11.5535 97.1403C11.8205 97.1403 12.0519 97.1973 12.2477 97.3112C12.4471 97.4216 12.6002 97.5818 12.707 97.7918C12.8174 97.9983 12.8725 98.2457 12.8725 98.5341C12.8725 98.8225 12.8174 99.0717 12.707 99.2817C12.6002 99.4882 12.4471 99.6484 12.2477 99.7623C12.0519 99.8727 11.8205 99.9279 11.5535 99.9279ZM11.5535 99.506C11.7885 99.506 11.9754 99.4241 12.1142 99.2604C12.2531 99.0966 12.3225 98.8545 12.3225 98.5341C12.3225 98.2137 12.2531 97.9734 12.1142 97.8132C11.9754 97.6494 11.7885 97.5675 11.5535 97.5675C11.3221 97.5675 11.137 97.6494 10.9981 97.8132C10.8593 97.9734 10.7899 98.2137 10.7899 98.5341C10.7899 98.8545 10.8575 99.0966 10.9928 99.2604C11.1317 99.4241 11.3186 99.506 11.5535 99.506ZM15.2585 99.8798V98.8385C15.1588 98.8919 15.052 98.9346 14.9381 98.9667C14.8242 98.9951 14.7031 99.0094 14.575 99.0094C14.1869 99.0094 13.8985 98.9186 13.7099 98.737C13.5247 98.5519 13.4322 98.276 13.4322 97.9093V97.1884H13.9662V97.8666C13.9662 98.1122 14.0214 98.2902 14.1317 98.4006C14.2421 98.511 14.4165 98.5661 14.6551 98.5661C14.7761 98.5661 14.8829 98.5537 14.9755 98.5288C15.068 98.5003 15.1588 98.4576 15.2478 98.4006V97.1884H15.7872V99.8798H15.2585ZM16.595 99.8798V97.1884H17.129V98.2885H17.5936L18.432 97.1884H19.0194L18.0154 98.5127L17.8819 98.3419C17.9852 98.3525 18.0742 98.3792 18.1489 98.422C18.2237 98.4611 18.2967 98.5199 18.3679 98.5982C18.4391 98.6765 18.5121 98.7798 18.5868 98.9079L19.1476 99.8798H18.5708L18.0902 99.0574C18.0368 98.9649 17.9852 98.8937 17.9353 98.8438C17.8855 98.7904 17.8285 98.7548 17.7645 98.737C17.7004 98.7157 17.6221 98.705 17.5295 98.705H17.129V99.8798H16.595ZM20.5934 99.9279C20.3549 99.9279 20.1467 99.8727 19.9686 99.7623C19.7906 99.652 19.6518 99.4918 19.5521 99.2817C19.456 99.0717 19.4079 98.8225 19.4079 98.5341C19.4079 98.2422 19.456 97.993 19.5521 97.7865C19.6518 97.58 19.7906 97.4216 19.9686 97.3112C20.1467 97.1973 20.3549 97.1403 20.5934 97.1403C20.8284 97.1403 21.0331 97.1991 21.2076 97.3165C21.382 97.434 21.4977 97.5942 21.5547 97.7972H21.4959L21.5493 97.1884H22.0727C22.062 97.2987 22.0513 97.4091 22.0406 97.5195C22.0335 97.6263 22.0299 97.7313 22.0299 97.8345V99.8798H21.4906V99.2817H21.5493C21.4924 99.4811 21.3749 99.6395 21.1969 99.757C21.0224 99.8709 20.8213 99.9279 20.5934 99.9279ZM20.7269 99.506C20.9584 99.506 21.1435 99.4241 21.2823 99.2604C21.4247 99.0966 21.4959 98.8545 21.4959 98.5341C21.4959 98.2137 21.4247 97.9734 21.2823 97.8132C21.1435 97.6494 20.9584 97.5675 20.7269 97.5675C20.492 97.5675 20.3033 97.6494 20.1609 97.8132C20.022 97.9734 19.9526 98.2137 19.9526 98.5341C19.9526 98.8545 20.022 99.0966 20.1609 99.2604C20.2997 99.4241 20.4884 99.506 20.7269 99.506ZM25.4781 99.9279C25.0722 99.9279 24.7482 99.8015 24.5062 99.5487C24.2676 99.296 24.1484 98.9239 24.1484 98.4326V97.968C24.1484 97.4661 24.2552 97.062 24.4688 96.7558C24.6859 96.4497 25.0206 96.2432 25.4727 96.1364L26.4553 95.9014L26.6102 96.334L25.5101 96.5903C25.3179 96.633 25.1594 96.7131 25.0348 96.8306C24.9102 96.9481 24.8159 97.0869 24.7518 97.2471C24.6913 97.4073 24.661 97.5782 24.661 97.7598V98.0054H24.5809C24.6236 97.8417 24.6913 97.7028 24.7838 97.5889C24.88 97.4714 24.9974 97.3806 25.1363 97.3165C25.2787 97.2489 25.4371 97.2151 25.6116 97.2151C25.843 97.2151 26.0459 97.2685 26.2203 97.3753C26.3948 97.4821 26.5301 97.637 26.6262 97.8399C26.7259 98.0392 26.7757 98.276 26.7757 98.5501C26.7757 98.8349 26.7223 99.0806 26.6155 99.2871C26.5087 99.4936 26.3574 99.652 26.1616 99.7623C25.9694 99.8727 25.7415 99.9279 25.4781 99.9279ZM25.462 99.5114C25.7041 99.5114 25.8928 99.433 26.0281 99.2764C26.1669 99.1162 26.2364 98.8812 26.2364 98.5715C26.2364 98.2653 26.1669 98.0321 26.0281 97.8719C25.8893 97.7117 25.7006 97.6316 25.462 97.6316C25.2235 97.6316 25.0348 97.7117 24.896 97.8719C24.7571 98.0286 24.6877 98.2529 24.6877 98.5448C24.6877 98.8652 24.7554 99.1073 24.8906 99.271C25.0295 99.4312 25.22 99.5114 25.462 99.5114ZM28.713 99.9279C28.2786 99.9279 27.9369 99.8051 27.6877 99.5594C27.4385 99.3138 27.3139 98.9738 27.3139 98.5394C27.3139 98.2582 27.3673 98.0125 27.4741 97.8025C27.5844 97.5925 27.7357 97.4305 27.928 97.3165C28.1238 97.1991 28.3499 97.1403 28.6062 97.1403C28.8589 97.1403 29.0708 97.1937 29.2417 97.3005C29.4125 97.4073 29.5425 97.5586 29.6315 97.7544C29.7205 97.9467 29.765 98.1745 29.765 98.438V98.6089H27.7357V98.2991H29.3965L29.3057 98.3686C29.3057 98.1016 29.2452 97.8951 29.1242 97.7491C29.0067 97.5996 28.8358 97.5248 28.6115 97.5248C28.3623 97.5248 28.1701 97.612 28.0348 97.7865C27.8995 97.9574 27.8319 98.1941 27.8319 98.4967V98.5501C27.8319 98.867 27.9084 99.1055 28.0615 99.2657C28.2181 99.4259 28.4389 99.506 28.7237 99.506C28.8803 99.506 29.0263 99.4847 29.1616 99.4419C29.3004 99.3956 29.4321 99.3209 29.5567 99.2176L29.733 99.5861C29.6083 99.6965 29.457 99.7819 29.279 99.8424C29.101 99.8994 28.9123 99.9279 28.713 99.9279ZM31.3597 99.9279C31.1247 99.9279 30.904 99.8994 30.6975 99.8424C30.491 99.7819 30.3219 99.6965 30.1902 99.5861L30.3557 99.223C30.4874 99.3262 30.6387 99.4045 30.8096 99.4579C30.9805 99.5078 31.1638 99.5327 31.3597 99.5327C31.6053 99.5327 31.7833 99.4971 31.8937 99.4259C32.0076 99.3511 32.0646 99.2461 32.0646 99.1108C32.0646 98.9791 32.0183 98.8794 31.9257 98.8118C31.8331 98.7441 31.6979 98.7103 31.5199 98.7103H30.8577V98.3258H31.4665C31.6267 98.3258 31.7513 98.292 31.8403 98.2244C31.9293 98.1567 31.9738 98.0624 31.9738 97.9413C31.9738 97.8132 31.9222 97.7135 31.8189 97.6423C31.7157 97.5711 31.5555 97.5355 31.3383 97.5355C31.1532 97.5355 30.9841 97.5586 30.831 97.6049C30.6779 97.6512 30.5319 97.7206 30.3931 97.8132L30.2329 97.4661C30.3788 97.3557 30.5515 97.2738 30.7509 97.2204C30.9502 97.167 31.1656 97.1403 31.397 97.1403C31.7459 97.1403 32.0112 97.2062 32.1927 97.3379C32.3743 97.4661 32.4651 97.6512 32.4651 97.8933C32.4651 98.0606 32.4081 98.203 32.2942 98.3205C32.1838 98.438 32.0343 98.5092 31.8456 98.5341V98.4647C32.0628 98.4754 32.2354 98.5412 32.3636 98.6623C32.4953 98.7798 32.5612 98.9364 32.5612 99.1322C32.5612 99.3743 32.4579 99.5683 32.2515 99.7143C32.0485 99.8567 31.7513 99.9279 31.3597 99.9279ZM33.1303 101.092L33.0022 100.654C33.1695 100.619 33.3083 100.576 33.4187 100.526C33.5326 100.476 33.627 100.41 33.7017 100.328C33.7765 100.25 33.8406 100.149 33.894 100.024L34.0275 99.7089L34.0168 99.9279L32.8473 97.1884H33.424L34.3319 99.4312H34.1877L35.0955 97.1884H35.6509L34.4173 100.072C34.339 100.25 34.2553 100.4 34.1663 100.521C34.0773 100.642 33.9812 100.74 33.878 100.814C33.7747 100.889 33.6608 100.948 33.5362 100.991C33.4116 101.033 33.2763 101.067 33.1303 101.092ZM37.3109 99.9279C36.905 99.9279 36.5811 99.8015 36.339 99.5487C36.1004 99.296 35.9812 98.9239 35.9812 98.4326V97.968C35.9812 97.4661 36.088 97.062 36.3016 96.7558C36.5188 96.4497 36.8534 96.2432 37.3055 96.1364L38.2881 95.9014L38.443 96.334L37.3429 96.5903C37.1507 96.633 36.9922 96.7131 36.8676 96.8306C36.743 96.9481 36.6487 97.0869 36.5846 97.2471C36.5241 97.4073 36.4938 97.5782 36.4938 97.7598V98.0054H36.4137C36.4565 97.8417 36.5241 97.7028 36.6167 97.5889C36.7128 97.4714 36.8303 97.3806 36.9691 97.3165C37.1115 97.2489 37.2699 97.2151 37.4444 97.2151C37.6758 97.2151 37.8787 97.2685 38.0532 97.3753C38.2276 97.4821 38.3629 97.637 38.459 97.8399C38.5587 98.0392 38.6085 98.276 38.6085 98.5501C38.6085 98.8349 38.5551 99.0806 38.4483 99.2871C38.3415 99.4936 38.1902 99.652 37.9944 99.7623C37.8022 99.8727 37.5743 99.9279 37.3109 99.9279ZM37.2949 99.5114C37.5369 99.5114 37.7256 99.433 37.8609 99.2764C37.9998 99.1162 38.0692 98.8812 38.0692 98.5715C38.0692 98.2653 37.9998 98.0321 37.8609 97.8719C37.7221 97.7117 37.5334 97.6316 37.2949 97.6316C37.0563 97.6316 36.8676 97.7117 36.7288 97.8719C36.59 98.0286 36.5205 98.2529 36.5205 98.5448C36.5205 98.8652 36.5882 99.1073 36.7235 99.271C36.8623 99.4312 37.0528 99.5114 37.2949 99.5114ZM39.2802 99.8798V97.1884H39.8142V98.1283H40.5778C40.9303 98.1283 41.1955 98.203 41.3735 98.3525C41.5515 98.4985 41.6405 98.7121 41.6405 98.9934C41.6405 99.1749 41.5996 99.3333 41.5177 99.4686C41.4358 99.6004 41.3148 99.7018 41.1546 99.773C40.9979 99.8442 40.8057 99.8798 40.5778 99.8798H39.2802ZM39.8142 99.5114H40.5191C40.722 99.5114 40.8751 99.4704 40.9784 99.3885C41.0852 99.3031 41.1386 99.1731 41.1386 98.9987C41.1386 98.8243 41.0852 98.6979 40.9784 98.6195C40.8751 98.5377 40.722 98.4967 40.5191 98.4967H39.8142V99.5114ZM42.0197 99.8798V97.1884H42.5537V99.8798H42.0197ZM43.935 99.8798V97.6209H42.9845V97.1884H45.4249V97.6209H44.4691V99.8798H43.935ZM47.0155 99.9279C46.7485 99.9279 46.5171 99.8727 46.3213 99.7623C46.1255 99.6484 45.9742 99.4882 45.8673 99.2817C45.7605 99.0717 45.7071 98.8225 45.7071 98.5341C45.7071 98.2457 45.7605 97.9983 45.8673 97.7918C45.9742 97.5818 46.1255 97.4216 46.3213 97.3112C46.5171 97.1973 46.7485 97.1403 47.0155 97.1403C47.2825 97.1403 47.5139 97.1973 47.7097 97.3112C47.9091 97.4216 48.0622 97.5818 48.169 97.7918C48.2793 97.9983 48.3345 98.2457 48.3345 98.5341C48.3345 98.8225 48.2793 99.0717 48.169 99.2817C48.0622 99.4882 47.9091 99.6484 47.7097 99.7623C47.5139 99.8727 47.2825 99.9279 47.0155 99.9279ZM47.0155 99.506C47.2504 99.506 47.4374 99.4241 47.5762 99.2604C47.715 99.0966 47.7845 98.8545 47.7845 98.5341C47.7845 98.2137 47.715 97.9734 47.5762 97.8132C47.4374 97.6494 47.2504 97.5675 47.0155 97.5675C46.7841 97.5675 46.5989 97.6494 46.4601 97.8132C46.3213 97.9734 46.2518 98.2137 46.2518 98.5341C46.2518 98.8545 46.3195 99.0966 46.4548 99.2604C46.5936 99.4241 46.7805 99.506 47.0155 99.506ZM50.7205 99.8798V98.8385C50.6208 98.8919 50.514 98.9346 50.4001 98.9667C50.2861 98.9951 50.1651 99.0094 50.0369 99.0094C49.6489 99.0094 49.3605 98.9186 49.1718 98.737C48.9867 98.5519 48.8941 98.276 48.8941 97.9093V97.1884H49.4281V97.8666C49.4281 98.1122 49.4833 98.2902 49.5937 98.4006C49.7041 98.511 49.8785 98.5661 50.117 98.5661C50.2381 98.5661 50.3449 98.5537 50.4374 98.5288C50.53 98.5003 50.6208 98.4576 50.7098 98.4006V97.1884H51.2491V99.8798H50.7205ZM52.0569 99.8798V97.1884H52.5909V98.2831H53.9527V97.1884H54.4867V99.8798H53.9527V98.705H52.5909V99.8798H52.0569ZM56.4755 99.9279C56.2085 99.9279 55.9771 99.8727 55.7813 99.7623C55.5855 99.6484 55.4341 99.4882 55.3273 99.2817C55.2205 99.0717 55.1671 98.8225 55.1671 98.5341C55.1671 98.2457 55.2205 97.9983 55.3273 97.7918C55.4341 97.5818 55.5855 97.4216 55.7813 97.3112C55.9771 97.1973 56.2085 97.1403 56.4755 97.1403C56.7425 97.1403 56.9739 97.1973 57.1697 97.3112C57.3691 97.4216 57.5221 97.5818 57.629 97.7918C57.7393 97.9983 57.7945 98.2457 57.7945 98.5341C57.7945 98.8225 57.7393 99.0717 57.629 99.2817C57.5221 99.4882 57.3691 99.6484 57.1697 99.7623C56.9739 99.8727 56.7425 99.9279 56.4755 99.9279ZM56.4755 99.506C56.7104 99.506 56.8974 99.4241 57.0362 99.2604C57.175 99.0966 57.2445 98.8545 57.2445 98.5341C57.2445 98.2137 57.175 97.9734 57.0362 97.8132C56.8974 97.6494 56.7104 97.5675 56.4755 97.5675C56.2441 97.5675 56.0589 97.6494 55.9201 97.8132C55.7813 97.9734 55.7118 98.2137 55.7118 98.5341C55.7118 98.8545 55.7795 99.0966 55.9148 99.2604C56.0536 99.4241 56.2405 99.506 56.4755 99.506ZM59.6625 99.9279C59.3919 99.9279 59.1552 99.8727 58.9522 99.7623C58.7529 99.6484 58.598 99.4864 58.4876 99.2764C58.3808 99.0628 58.3274 98.81 58.3274 98.5181C58.3274 98.2297 58.3826 97.9823 58.493 97.7758C58.6033 97.5693 58.7582 97.4127 58.9576 97.3059C59.1569 97.1955 59.3919 97.1403 59.6625 97.1403C59.8369 97.1403 60.006 97.1706 60.1698 97.2311C60.3335 97.2881 60.4688 97.3699 60.5756 97.4768L60.3994 97.8559C60.2997 97.7598 60.1876 97.6886 60.063 97.6423C59.9384 97.5925 59.8173 97.5675 59.6998 97.5675C59.4435 97.5675 59.2424 97.6494 59.0964 97.8132C58.9504 97.9769 58.8775 98.2137 58.8775 98.5234C58.8775 98.8367 58.9504 99.077 59.0964 99.2443C59.2424 99.4117 59.4435 99.4953 59.6998 99.4953C59.8138 99.4953 59.933 99.474 60.0576 99.4312C60.1822 99.385 60.2962 99.312 60.3994 99.2123L60.5756 99.5915C60.4653 99.6983 60.3264 99.7819 60.1591 99.8424C59.9953 99.8994 59.8298 99.9279 59.6625 99.9279ZM61.7651 99.8798V97.6209H60.8146V97.1884H63.255V97.6209H62.2991V99.8798H61.7651ZM63.6864 99.8798V97.1884H64.1776V99.3618H64.0281L65.6515 97.1884H66.1001V99.8798H65.6141V97.701H65.769L64.1349 99.8798H63.6864Z" fill="#1A1A1A"/>
<path d="M134.423 99.9332C134.163 99.9332 133.914 99.8958 133.676 99.8211C133.437 99.7428 133.241 99.636 133.088 99.5007L133.312 98.9827C133.48 99.1108 133.652 99.2052 133.83 99.2657C134.012 99.3262 134.202 99.3565 134.402 99.3565C134.644 99.3565 134.827 99.3084 134.952 99.2123C135.076 99.1162 135.139 98.9756 135.139 98.7904C135.139 98.6124 135.076 98.4789 134.952 98.3899C134.831 98.2974 134.653 98.2511 134.418 98.2511H133.809V97.701H134.359C134.562 97.701 134.724 97.6512 134.845 97.5515C134.966 97.4518 135.027 97.3148 135.027 97.1403C135.027 96.9766 134.97 96.852 134.856 96.7665C134.745 96.6811 134.585 96.6383 134.375 96.6383C133.998 96.6383 133.665 96.7665 133.377 97.0228L133.152 96.5102C133.305 96.3678 133.494 96.2574 133.718 96.1791C133.946 96.1008 134.185 96.0616 134.434 96.0616C134.825 96.0616 135.132 96.1506 135.352 96.3286C135.577 96.5031 135.689 96.7469 135.689 97.0602C135.689 97.2845 135.625 97.4785 135.497 97.6423C135.372 97.8025 135.199 97.9093 134.979 97.9627V97.8986C135.238 97.9413 135.44 98.0481 135.582 98.219C135.728 98.3864 135.801 98.5964 135.801 98.8492C135.801 99.1838 135.678 99.449 135.432 99.6449C135.187 99.8371 134.85 99.9332 134.423 99.9332ZM137.983 99.8798V99.1429H136.301V98.6623L138.09 96.115H138.645V98.6195H139.185V99.1429H138.645V99.8798H137.983ZM137.983 98.6195V96.9267H138.111L136.813 98.7798V98.6195H137.983ZM141.128 99.8798V97.183H141.753V99.3672H142.704V97.183H143.323V99.3672H144.274V97.183H144.899V99.8798H141.128ZM146.237 99.8798V97.7064H145.313V97.183H147.829V97.7064H146.899V99.8798H146.237Z" fill="#1A1A1A"/>
</svg>
