<svg width="1308" height="139" viewBox="0 0 1308 139" fill="none" xmlns="http://www.w3.org/2000/svg">
<path d="M1.376 16V4.72H10.896V16H9.424V5.968H2.848V16H1.376ZM17.2256 16.144C15.9456 16.144 14.9323 15.776 14.1856 15.04C13.4496 14.304 13.0816 13.2907 13.0816 12C13.0816 11.1467 13.2416 10.4107 13.5616 9.792C13.8923 9.16267 14.3456 8.67733 14.9216 8.336C15.4976 7.984 16.1696 7.808 16.9376 7.808C17.6736 7.808 18.2976 7.968 18.8096 8.288C19.3216 8.59733 19.711 9.04 19.9776 9.616C20.2443 10.192 20.3776 10.8747 20.3776 11.664V12.144H14.2176V11.28H19.3856L19.1136 11.488C19.1136 10.656 18.927 10.0107 18.5536 9.552C18.191 9.09333 17.6523 8.864 16.9376 8.864C16.159 8.864 15.5563 9.136 15.1296 9.68C14.703 10.2133 14.4896 10.944 14.4896 11.872V12.016C14.4896 12.9973 14.7296 13.7387 15.2096 14.24C15.7003 14.7413 16.3776 14.992 17.2416 14.992C17.7216 14.992 18.1696 14.9227 18.5856 14.784C19.0016 14.6453 19.4016 14.416 19.7856 14.096L20.2656 15.104C19.903 15.4347 19.4496 15.6907 18.9056 15.872C18.3723 16.0533 17.8123 16.144 17.2256 16.144ZM22.4523 19.456V9.856C22.4523 9.54667 22.4416 9.232 22.4203 8.912C22.3989 8.592 22.3669 8.272 22.3243 7.952H23.7323L23.9083 9.808H23.7323C23.8923 9.18933 24.2336 8.704 24.7563 8.352C25.2789 7.98933 25.9029 7.808 26.6283 7.808C27.3429 7.808 27.9669 7.97333 28.5003 8.304C29.0336 8.63467 29.4443 9.11467 29.7323 9.744C30.0309 10.3627 30.1803 11.104 30.1803 11.968C30.1803 12.832 30.0309 13.5787 29.7323 14.208C29.4443 14.8373 29.0336 15.3173 28.5003 15.648C27.9669 15.9787 27.3429 16.144 26.6283 16.144C25.9136 16.144 25.2949 15.968 24.7723 15.616C24.2603 15.2533 23.9136 14.768 23.7323 14.16H23.9083V19.456H22.4523ZM26.2923 14.992C27.0283 14.992 27.6149 14.736 28.0523 14.224C28.4896 13.712 28.7083 12.96 28.7083 11.968C28.7083 10.976 28.4896 10.2293 28.0523 9.728C27.6149 9.22667 27.0283 8.976 26.2923 8.976C25.5563 8.976 24.9696 9.22667 24.5323 9.728C24.1056 10.2293 23.8923 10.976 23.8923 11.968C23.8923 12.96 24.1056 13.712 24.5323 14.224C24.9696 14.736 25.5563 14.992 26.2923 14.992ZM32.2636 16V7.952H33.5916V14.624H33.1596L38.1516 7.952H39.3676V16H38.0396V9.312H38.4876L33.4796 16H32.2636ZM45.2974 16.144C44.508 16.144 43.8254 15.9787 43.2494 15.648C42.6734 15.3067 42.2254 14.8267 41.9054 14.208C41.5854 13.5787 41.4254 12.832 41.4254 11.968C41.4254 11.1147 41.5854 10.3787 41.9054 9.76C42.2254 9.13067 42.6734 8.65067 43.2494 8.32C43.8254 7.97867 44.508 7.808 45.2974 7.808C46.0867 7.808 46.7694 7.97867 47.3454 8.32C47.932 8.65067 48.38 9.13067 48.6894 9.76C49.0094 10.3787 49.1694 11.1147 49.1694 11.968C49.1694 12.832 49.0094 13.5787 48.6894 14.208C48.38 14.8267 47.932 15.3067 47.3454 15.648C46.7694 15.9787 46.0867 16.144 45.2974 16.144ZM45.2974 14.992C46.0227 14.992 46.604 14.736 47.0414 14.224C47.4787 13.712 47.6974 12.96 47.6974 11.968C47.6974 10.976 47.4787 10.2293 47.0414 9.728C46.604 9.22667 46.0227 8.976 45.2974 8.976C44.5614 8.976 43.9747 9.22667 43.5374 9.728C43.1107 10.2293 42.8974 10.976 42.8974 11.968C42.8974 12.96 43.1107 13.712 43.5374 14.224C43.9747 14.736 44.5614 14.992 45.2974 14.992ZM50.416 18.08V14.864H51.296C51.6587 14.32 51.92 13.68 52.08 12.944C52.2507 12.208 52.336 11.3333 52.336 10.32V7.952H58.112V14.864H59.392V18.08H58.144V16H51.68V18.08H50.416ZM52.672 14.88H56.752V9.072H53.616V10.576C53.616 11.3867 53.536 12.176 53.376 12.944C53.216 13.7013 52.9813 14.3467 52.672 14.88Z" fill="#1A1A1A"/>
<rect y="30" width="240" height="44" rx="8" fill="black" fill-opacity="0.05"/>
<path d="M17.328 58V46.72H26.96V58H25.312V48.096H18.976V58H17.328ZM33.0173 58.144C32.2173 58.144 31.5239 57.9787 30.9373 57.648C30.3506 57.3067 29.8973 56.8267 29.5773 56.208C29.2573 55.5787 29.0973 54.832 29.0973 53.968C29.0973 53.104 29.2573 52.3627 29.5773 51.744C29.8973 51.1147 30.3506 50.6347 30.9373 50.304C31.5239 49.9627 32.2173 49.792 33.0173 49.792C33.8173 49.792 34.5106 49.9627 35.0973 50.304C35.6946 50.6347 36.1533 51.1147 36.4733 51.744C36.8039 52.3627 36.9693 53.104 36.9693 53.968C36.9693 54.832 36.8039 55.5787 36.4733 56.208C36.1533 56.8267 35.6946 57.3067 35.0973 57.648C34.5106 57.9787 33.8173 58.144 33.0173 58.144ZM33.0173 56.88C33.7213 56.88 34.2813 56.6347 34.6973 56.144C35.1133 55.6533 35.3213 54.928 35.3213 53.968C35.3213 53.008 35.1133 52.288 34.6973 51.808C34.2813 51.3173 33.7213 51.072 33.0173 51.072C32.3239 51.072 31.7693 51.3173 31.3533 51.808C30.9373 52.288 30.7293 53.008 30.7293 53.968C30.7293 54.928 30.9319 55.6533 31.3373 56.144C31.7533 56.6347 32.3133 56.88 33.0173 56.88ZM42.566 58.144C41.7553 58.144 41.046 57.9787 40.438 57.648C39.8407 57.3067 39.3767 56.8213 39.046 56.192C38.726 55.552 38.566 54.7947 38.566 53.92C38.566 53.056 38.7313 52.3147 39.062 51.696C39.3927 51.0773 39.8567 50.608 40.454 50.288C41.0513 49.9573 41.7553 49.792 42.566 49.792C43.0887 49.792 43.5953 49.8827 44.086 50.064C44.5767 50.2347 44.982 50.48 45.302 50.8L44.774 51.936C44.4753 51.648 44.1393 51.4347 43.766 51.296C43.3927 51.1467 43.03 51.072 42.678 51.072C41.91 51.072 41.3073 51.3173 40.87 51.808C40.4327 52.2987 40.214 53.008 40.214 53.936C40.214 54.8747 40.4327 55.5947 40.87 56.096C41.3073 56.5973 41.91 56.848 42.678 56.848C43.0193 56.848 43.3767 56.784 43.75 56.656C44.1233 56.5173 44.4647 56.2987 44.774 56L45.302 57.136C44.9713 57.456 44.5553 57.7067 44.054 57.888C43.5633 58.0587 43.0673 58.144 42.566 58.144ZM46.8019 58.208L46.2579 56.928C46.6205 56.7787 46.9245 56.592 47.1699 56.368C47.4259 56.1333 47.6232 55.8347 47.7619 55.472C47.9112 55.1093 48.0179 54.6613 48.0819 54.128C48.1459 53.5947 48.1779 52.9493 48.1779 52.192V49.936H54.2579V58H52.6579V51.2H49.6659V52.24C49.6659 53.456 49.5699 54.464 49.3779 55.264C49.1859 56.064 48.8765 56.6987 48.4499 57.168C48.0339 57.6267 47.4845 57.9733 46.8019 58.208ZM60.4768 58.144C59.1754 58.144 58.1514 57.776 57.4048 57.04C56.6581 56.304 56.2848 55.2853 56.2848 53.984C56.2848 53.1413 56.4448 52.4053 56.7648 51.776C57.0954 51.1467 57.5488 50.6613 58.1248 50.32C58.7114 49.968 59.3888 49.792 60.1568 49.792C60.9141 49.792 61.5488 49.952 62.0608 50.272C62.5728 50.592 62.9621 51.0453 63.2288 51.632C63.4954 52.208 63.6288 52.8907 63.6288 53.68V54.192H57.5488V53.264H62.5248L62.2528 53.472C62.2528 52.672 62.0714 52.0533 61.7088 51.616C61.3568 51.168 60.8448 50.944 60.1727 50.944C59.4261 50.944 58.8501 51.2053 58.4448 51.728C58.0394 52.24 57.8368 52.9493 57.8368 53.856V54.016C57.8368 54.9653 58.0661 55.68 58.5248 56.16C58.9941 56.64 59.6554 56.88 60.5088 56.88C60.9781 56.88 61.4154 56.816 61.8208 56.688C62.2368 56.5493 62.6314 56.3253 63.0048 56.016L63.5328 57.12C63.1594 57.4507 62.7061 57.7067 62.1728 57.888C61.6394 58.0587 61.0741 58.144 60.4768 58.144ZM64.8066 60.08V56.752H65.7026C66.0546 56.2187 66.3106 55.5947 66.4706 54.88C66.6306 54.1653 66.7106 53.3013 66.7106 52.288V49.936H72.6146V56.752H73.9106V60.08H72.5186V58H66.1986V60.08H64.8066ZM67.1906 56.768H71.0946V51.184H68.1026V52.608C68.1026 53.3867 68.0226 54.1493 67.8626 54.896C67.7133 55.632 67.4893 56.256 67.1906 56.768ZM75.5129 58V49.936H77.1129V53.216H81.1929V49.936H82.7929V58H81.1929V54.48H77.1129V58H75.5129ZM85.2316 58V49.936H86.7036V56.448H86.2556L91.1196 49.936H92.4636V58H91.0076V51.472H91.4716L86.5756 58H85.2316ZM98.6799 58.144C97.3785 58.144 96.3545 57.776 95.6079 57.04C94.8612 56.304 94.4879 55.2853 94.4879 53.984C94.4879 53.1413 94.6479 52.4053 94.9679 51.776C95.2985 51.1467 95.7519 50.6613 96.3279 50.32C96.9145 49.968 97.5919 49.792 98.3599 49.792C99.1172 49.792 99.7519 49.952 100.264 50.272C100.776 50.592 101.165 51.0453 101.432 51.632C101.699 52.208 101.832 52.8907 101.832 53.68V54.192H95.7519V53.264H100.728L100.456 53.472C100.456 52.672 100.275 52.0533 99.9119 51.616C99.5599 51.168 99.0479 50.944 98.3759 50.944C97.6292 50.944 97.0532 51.2053 96.6479 51.728C96.2425 52.24 96.0399 52.9493 96.0399 53.856V54.016C96.0399 54.9653 96.2692 55.68 96.7279 56.16C97.1972 56.64 97.8585 56.88 98.7119 56.88C99.1812 56.88 99.6185 56.816 100.024 56.688C100.44 56.5493 100.835 56.3253 101.208 56.016L101.736 57.12C101.363 57.4507 100.909 57.7067 100.376 57.888C99.8425 58.0587 99.2772 58.144 98.6799 58.144ZM111.547 58.144C110.779 58.144 110.043 58.032 109.339 57.808C108.635 57.5733 108.049 57.2427 107.579 56.816L108.155 55.552C108.678 55.9573 109.211 56.256 109.755 56.448C110.299 56.64 110.881 56.736 111.499 56.736C112.289 56.736 112.886 56.5707 113.291 56.24C113.707 55.9093 113.915 55.4347 113.915 54.816C113.915 54.208 113.707 53.7493 113.291 53.44C112.886 53.12 112.283 52.96 111.483 52.96H109.739V51.616H111.355C112.038 51.616 112.582 51.4453 112.987 51.104C113.393 50.752 113.595 50.2773 113.595 49.68C113.595 49.136 113.409 48.72 113.035 48.432C112.662 48.1333 112.129 47.984 111.435 47.984C110.262 47.984 109.233 48.3947 108.347 49.216L107.787 47.952C108.225 47.5147 108.779 47.1787 109.451 46.944C110.123 46.6987 110.827 46.576 111.563 46.576C112.694 46.576 113.585 46.8373 114.235 47.36C114.886 47.872 115.211 48.5867 115.211 49.504C115.211 50.1973 115.014 50.7893 114.619 51.28C114.235 51.7707 113.707 52.096 113.035 52.256V52.08C113.835 52.208 114.449 52.528 114.875 53.04C115.313 53.5413 115.531 54.1707 115.531 54.928C115.531 55.9307 115.174 56.72 114.459 57.296C113.755 57.8613 112.785 58.144 111.547 58.144ZM121.253 58.144C119.952 58.144 118.949 57.648 118.245 56.656C117.552 55.6533 117.205 54.2187 117.205 52.352C117.205 50.4533 117.552 49.0187 118.245 48.048C118.949 47.0667 119.952 46.576 121.253 46.576C122.565 46.576 123.568 47.0667 124.261 48.048C124.954 49.0187 125.301 50.448 125.301 52.336C125.301 54.2133 124.949 55.6533 124.245 56.656C123.552 57.648 122.554 58.144 121.253 58.144ZM121.253 56.752C122.074 56.752 122.682 56.3947 123.077 55.68C123.482 54.9653 123.685 53.8507 123.685 52.336C123.685 50.8107 123.482 49.7013 123.077 49.008C122.682 48.304 122.074 47.952 121.253 47.952C120.442 47.952 119.834 48.304 119.429 49.008C119.024 49.7013 118.821 50.8053 118.821 52.32C118.821 53.8453 119.024 54.9653 119.429 55.68C119.845 56.3947 120.453 56.752 121.253 56.752ZM130.729 60.08V56.752H131.625C131.977 56.2187 132.233 55.5947 132.393 54.88C132.553 54.1653 132.633 53.3013 132.633 52.288V49.936H138.536V56.752H139.833V60.08H138.441V58H132.121V60.08H130.729ZM133.113 56.768H137.017V51.184H134.025V52.608C134.025 53.3867 133.945 54.1493 133.785 54.896C133.635 55.632 133.411 56.256 133.113 56.768ZM141.435 58V49.936H143.035V53.216H147.115V49.936H148.715V58H147.115V54.48H143.035V58H141.435ZM154.946 58.144C153.644 58.144 152.62 57.776 151.874 57.04C151.127 56.304 150.754 55.2853 150.754 53.984C150.754 53.1413 150.914 52.4053 151.234 51.776C151.564 51.1467 152.018 50.6613 152.594 50.32C153.18 49.968 153.858 49.792 154.626 49.792C155.383 49.792 156.018 49.952 156.53 50.272C157.042 50.592 157.431 51.0453 157.698 51.632C157.964 52.208 158.098 52.8907 158.098 53.68V54.192H152.018V53.264H156.994L156.722 53.472C156.722 52.672 156.54 52.0533 156.178 51.616C155.826 51.168 155.314 50.944 154.641 50.944C153.895 50.944 153.319 51.2053 152.914 51.728C152.508 52.24 152.306 52.9493 152.306 53.856V54.016C152.306 54.9653 152.535 55.68 152.994 56.16C153.463 56.64 154.124 56.88 154.978 56.88C155.447 56.88 155.884 56.816 156.29 56.688C156.706 56.5493 157.1 56.3253 157.474 56.016L158.002 57.12C157.628 57.4507 157.175 57.7067 156.642 57.888C156.108 58.0587 155.543 58.144 154.946 58.144ZM160.075 58V49.936H161.547V56.448H161.099L165.963 49.936H167.307V58H165.851V51.472H166.315L161.419 58H160.075ZM163.691 49.2C163.201 49.2 162.763 49.12 162.379 48.96C161.995 48.8 161.665 48.5653 161.387 48.256C161.121 47.936 160.918 47.552 160.779 47.104L161.675 46.784C161.857 47.2853 162.113 47.6587 162.443 47.904C162.774 48.1387 163.19 48.256 163.691 48.256C164.203 48.256 164.619 48.144 164.939 47.92C165.27 47.696 165.553 47.3227 165.787 46.8L166.619 47.104C166.363 47.8293 165.979 48.3627 165.467 48.704C164.966 49.0347 164.374 49.2 163.691 49.2Z" fill="#1A1A1A"/>
<path d="M212 49L218 55L224 49" stroke="#8C8C8C" stroke-width="2" stroke-linecap="round"/>
<path d="M257.376 16V4.72H258.688L263.136 14.736H262.656L267.104 4.72H268.4V16H267.04V6.704H267.536L263.36 16H262.416L258.24 6.704H258.736V16H257.376ZM274.149 16.144C273.445 16.144 272.827 15.9787 272.293 15.648C271.76 15.3173 271.344 14.8373 271.045 14.208C270.747 13.5787 270.597 12.832 270.597 11.968C270.597 11.104 270.747 10.3627 271.045 9.744C271.344 9.11467 271.76 8.63467 272.293 8.304C272.827 7.97333 273.445 7.808 274.149 7.808C274.864 7.808 275.483 7.98933 276.005 8.352C276.539 8.704 276.891 9.18933 277.061 9.808H276.869L277.045 7.952H278.453C278.421 8.272 278.389 8.592 278.357 8.912C278.336 9.232 278.325 9.54667 278.325 9.856V16H276.869V14.16H277.045C276.875 14.768 276.523 15.2533 275.989 15.616C275.467 15.968 274.853 16.144 274.149 16.144ZM274.485 14.992C275.211 14.992 275.792 14.736 276.229 14.224C276.667 13.712 276.885 12.96 276.885 11.968C276.885 10.976 276.667 10.2293 276.229 9.728C275.792 9.22667 275.211 8.976 274.485 8.976C273.76 8.976 273.173 9.22667 272.725 9.728C272.288 10.2293 272.069 10.976 272.069 11.968C272.069 12.96 272.288 13.712 272.725 14.224C273.163 14.736 273.749 14.992 274.485 14.992ZM280.889 16V7.952H286.601V9.12H282.345V16H280.889ZM291.212 16.144C290.508 16.144 289.889 15.9787 289.356 15.648C288.822 15.3173 288.406 14.8373 288.108 14.208C287.809 13.5787 287.66 12.832 287.66 11.968C287.66 11.104 287.809 10.3627 288.108 9.744C288.406 9.11467 288.822 8.63467 289.356 8.304C289.889 7.97333 290.508 7.808 291.212 7.808C291.926 7.808 292.545 7.98933 293.068 8.352C293.601 8.704 293.953 9.18933 294.124 9.808H293.932L294.108 7.952H295.516C295.484 8.272 295.452 8.592 295.42 8.912C295.398 9.232 295.388 9.54667 295.388 9.856V16H293.932V14.16H294.108C293.937 14.768 293.585 15.2533 293.052 15.616C292.529 15.968 291.916 16.144 291.212 16.144ZM291.548 14.992C292.273 14.992 292.854 14.736 293.292 14.224C293.729 13.712 293.948 12.96 293.948 11.968C293.948 10.976 293.729 10.2293 293.292 9.728C292.854 9.22667 292.273 8.976 291.548 8.976C290.822 8.976 290.236 9.22667 289.788 9.728C289.35 10.2293 289.132 10.976 289.132 11.968C289.132 12.96 289.35 13.712 289.788 14.224C290.225 14.736 290.812 14.992 291.548 14.992ZM300.687 16.144C299.983 16.144 299.327 16.0533 298.719 15.872C298.111 15.6907 297.61 15.4347 297.215 15.104L297.695 14.096C298.09 14.416 298.538 14.656 299.039 14.816C299.54 14.976 300.084 15.056 300.671 15.056C301.439 15.056 301.994 14.944 302.335 14.72C302.687 14.4853 302.863 14.1493 302.863 13.712C302.863 13.296 302.719 12.9813 302.431 12.768C302.143 12.5547 301.722 12.448 301.167 12.448H299.215V11.392H300.991C301.492 11.392 301.882 11.2853 302.159 11.072C302.447 10.848 302.591 10.544 302.591 10.16C302.591 9.76533 302.431 9.456 302.111 9.232C301.791 8.99733 301.3 8.88 300.639 8.88C300.084 8.88 299.578 8.95467 299.119 9.104C298.66 9.24267 298.223 9.456 297.807 9.744L297.343 8.8C297.78 8.45867 298.292 8.208 298.879 8.048C299.466 7.888 300.106 7.808 300.799 7.808C301.812 7.808 302.586 8.00533 303.119 8.4C303.663 8.784 303.935 9.33333 303.935 10.048C303.935 10.5493 303.764 10.9813 303.423 11.344C303.082 11.696 302.628 11.9093 302.063 11.984V11.776C302.703 11.808 303.22 12.0053 303.615 12.368C304.01 12.72 304.207 13.1893 304.207 13.776C304.207 14.4907 303.908 15.0667 303.311 15.504C302.714 15.9307 301.839 16.144 300.687 16.144ZM306.154 16V7.952H307.482V14.624H307.05L312.042 7.952H313.258V16H311.93V9.312H312.378L307.37 16H306.154ZM315.748 16V7.952H317.188V11.28H321.444V7.952H322.884V16H321.444V12.432H317.188V16H315.748Z" fill="#1A1A1A"/>
<path d="M256 38C256 33.5817 259.582 30 264 30H448C452.418 30 456 33.5817 456 38V66C456 70.4183 452.418 74 448 74H264C259.582 74 256 70.4183 256 66V38Z" fill="black" fill-opacity="0.05"/>
<path d="M276.032 58V48.112H272.176V46.72H281.552V48.112H277.696V58H276.032ZM285.555 58.144C284.254 58.144 283.23 57.776 282.483 57.04C281.736 56.304 281.363 55.2853 281.363 53.984C281.363 53.1413 281.523 52.4053 281.843 51.776C282.174 51.1467 282.627 50.6613 283.203 50.32C283.79 49.968 284.467 49.792 285.235 49.792C285.992 49.792 286.627 49.952 287.139 50.272C287.651 50.592 288.04 51.0453 288.307 51.632C288.574 52.208 288.707 52.8907 288.707 53.68V54.192H282.627V53.264H287.603L287.331 53.472C287.331 52.672 287.15 52.0533 286.787 51.616C286.435 51.168 285.923 50.944 285.251 50.944C284.504 50.944 283.928 51.2053 283.523 51.728C283.118 52.24 282.915 52.9493 282.915 53.856V54.016C282.915 54.9653 283.144 55.68 283.603 56.16C284.072 56.64 284.734 56.88 285.587 56.88C286.056 56.88 286.494 56.816 286.899 56.688C287.315 56.5493 287.71 56.3253 288.083 56.016L288.611 57.12C288.238 57.4507 287.784 57.7067 287.251 57.888C286.718 58.0587 286.152 58.144 285.555 58.144ZM294.285 58.144C293.474 58.144 292.765 57.9787 292.157 57.648C291.559 57.3067 291.095 56.8213 290.765 56.192C290.445 55.552 290.285 54.7947 290.285 53.92C290.285 53.056 290.45 52.3147 290.781 51.696C291.111 51.0773 291.575 50.608 292.173 50.288C292.77 49.9573 293.474 49.792 294.285 49.792C294.807 49.792 295.314 49.8827 295.805 50.064C296.295 50.2347 296.701 50.48 297.021 50.8L296.493 51.936C296.194 51.648 295.858 51.4347 295.485 51.296C295.111 51.1467 294.749 51.072 294.397 51.072C293.629 51.072 293.026 51.3173 292.589 51.808C292.151 52.2987 291.933 53.008 291.933 53.936C291.933 54.8747 292.151 55.5947 292.589 56.096C293.026 56.5973 293.629 56.848 294.397 56.848C294.738 56.848 295.095 56.784 295.469 56.656C295.842 56.5173 296.183 56.2987 296.493 56L297.021 57.136C296.69 57.456 296.274 57.7067 295.773 57.888C295.282 58.0587 294.786 58.144 294.285 58.144ZM300.585 58V51.232H297.737V49.936H305.049V51.232H302.185V58H300.585ZM309.814 58.144C309.014 58.144 308.321 57.9787 307.734 57.648C307.147 57.3067 306.694 56.8267 306.374 56.208C306.054 55.5787 305.894 54.832 305.894 53.968C305.894 53.104 306.054 52.3627 306.374 51.744C306.694 51.1147 307.147 50.6347 307.734 50.304C308.321 49.9627 309.014 49.792 309.814 49.792C310.614 49.792 311.307 49.9627 311.894 50.304C312.491 50.6347 312.95 51.1147 313.27 51.744C313.601 52.3627 313.766 53.104 313.766 53.968C313.766 54.832 313.601 55.5787 313.27 56.208C312.95 56.8267 312.491 57.3067 311.894 57.648C311.307 57.9787 310.614 58.144 309.814 58.144ZM309.814 56.88C310.518 56.88 311.078 56.6347 311.494 56.144C311.91 55.6533 312.118 54.928 312.118 53.968C312.118 53.008 311.91 52.288 311.494 51.808C311.078 51.3173 310.518 51.072 309.814 51.072C309.121 51.072 308.566 51.3173 308.15 51.808C307.734 52.288 307.526 53.008 307.526 53.968C307.526 54.928 307.729 55.6533 308.134 56.144C308.55 56.6347 309.11 56.88 309.814 56.88ZM315.763 58V49.936H319.827C320.798 49.936 321.512 50.1227 321.971 50.496C322.44 50.8587 322.675 51.376 322.675 52.048C322.675 52.5707 322.499 53.0027 322.147 53.344C321.806 53.6853 321.352 53.8933 320.787 53.968V53.76C321.459 53.792 321.987 53.9893 322.371 54.352C322.755 54.7147 322.947 55.184 322.947 55.76C322.947 56.4533 322.686 57.0027 322.163 57.408C321.651 57.8027 320.92 58 319.971 58H315.763ZM317.283 56.96H319.843C320.366 56.96 320.766 56.8533 321.043 56.64C321.32 56.416 321.459 56.096 321.459 55.68C321.459 55.264 321.32 54.9493 321.043 54.736C320.766 54.5227 320.366 54.416 319.843 54.416H317.283V56.96ZM317.283 53.376H319.667C320.147 53.376 320.52 53.2693 320.787 53.056C321.054 52.8427 321.187 52.5493 321.187 52.176C321.187 51.792 321.054 51.4987 320.787 51.296C320.52 51.0827 320.147 50.976 319.667 50.976H317.283V53.376ZM324.857 58V49.936H326.457V52.752H328.745C329.801 52.752 330.595 52.976 331.129 53.424C331.662 53.8613 331.929 54.5013 331.929 55.344C331.929 55.888 331.806 56.3627 331.561 56.768C331.315 57.1627 330.953 57.4667 330.473 57.68C330.003 57.8933 329.427 58 328.745 58H324.857ZM326.457 56.896H328.569C329.177 56.896 329.635 56.7733 329.945 56.528C330.265 56.272 330.425 55.8827 330.425 55.36C330.425 54.8373 330.265 54.4587 329.945 54.224C329.635 53.9787 329.177 53.856 328.569 53.856H326.457V56.896ZM333.065 58V49.936H334.665V58H333.065ZM337.075 58V49.936H338.547V56.448H338.099L342.963 49.936H344.307V58H342.851V51.472H343.315L338.419 58H337.075ZM340.691 49.2C340.201 49.2 339.763 49.12 339.379 48.96C338.995 48.8 338.665 48.5653 338.387 48.256C338.121 47.936 337.918 47.552 337.779 47.104L338.675 46.784C338.857 47.2853 339.113 47.6587 339.443 47.904C339.774 48.1387 340.19 48.256 340.691 48.256C341.203 48.256 341.619 48.144 341.939 47.92C342.27 47.696 342.553 47.3227 342.787 46.8L343.619 47.104C343.363 47.8293 342.979 48.3627 342.467 48.704C341.966 49.0347 341.374 49.2 340.691 49.2Z" fill="#1A1A1A"/>
<path d="M428 49L434 55L440 49" stroke="#1A1A1A" stroke-width="2" stroke-linecap="round"/>
<rect x="1158" y="29" width="150" height="45" rx="8" fill="#5329FF"/>
<path d="M1175.9 49.7H1180.4L1175 55.1L1169.6 49.7H1174.1V43.4H1175.9V49.7ZM1167.8 57.8H1182.2V51.5H1184V58.7C1184 58.9387 1183.91 59.1676 1183.74 59.3364C1183.57 59.5052 1183.34 59.6 1183.1 59.6H1166.9C1166.66 59.6 1166.43 59.5052 1166.26 59.3364C1166.09 59.1676 1166 58.9387 1166 58.7V51.5H1167.8V57.8Z" fill="white"/>
<path d="M1198.4 57.644C1197.25 57.644 1196.27 57.4093 1195.46 56.94C1194.65 56.4707 1194.02 55.804 1193.58 54.94C1193.16 54.0653 1192.94 53.036 1192.94 51.852C1192.94 50.668 1193.16 49.644 1193.58 48.78C1194.02 47.916 1194.65 47.2493 1195.46 46.78C1196.27 46.3107 1197.25 46.076 1198.4 46.076C1199.2 46.076 1199.91 46.1933 1200.54 46.428C1201.17 46.6627 1201.72 47.004 1202.19 47.452L1201.62 48.78C1201.1 48.3427 1200.6 48.028 1200.11 47.836C1199.63 47.644 1199.07 47.548 1198.43 47.548C1197.22 47.548 1196.29 47.9213 1195.65 48.668C1195.01 49.4147 1194.69 50.476 1194.69 51.852C1194.69 53.228 1195.01 54.2947 1195.65 55.052C1196.29 55.7987 1197.22 56.172 1198.43 56.172C1199.07 56.172 1199.63 56.076 1200.11 55.884C1200.6 55.692 1201.1 55.372 1201.62 54.924L1202.19 56.252C1201.72 56.7 1201.17 57.0467 1200.54 57.292C1199.91 57.5267 1199.2 57.644 1198.4 57.644ZM1204.17 57.5V49.436H1205.77V52.732H1207.16L1209.67 49.436H1211.43L1208.43 53.404L1208.03 52.892C1208.33 52.924 1208.6 53.004 1208.83 53.132C1209.05 53.2493 1209.27 53.4253 1209.48 53.66C1209.69 53.8947 1209.91 54.204 1210.14 54.588L1211.82 57.5H1210.09L1208.65 55.036C1208.49 54.7587 1208.33 54.5453 1208.19 54.396C1208.04 54.236 1207.87 54.1293 1207.67 54.076C1207.48 54.012 1207.25 53.98 1206.97 53.98H1205.77V57.5H1204.17ZM1216.15 57.644C1215.43 57.644 1214.81 57.4787 1214.28 57.148C1213.74 56.8173 1213.33 56.3373 1213.03 55.708C1212.74 55.0787 1212.6 54.332 1212.6 53.468C1212.6 52.5933 1212.74 51.8467 1213.03 51.228C1213.33 50.6093 1213.74 50.1347 1214.28 49.804C1214.81 49.4627 1215.43 49.292 1216.15 49.292C1216.85 49.292 1217.47 49.468 1217.99 49.82C1218.51 50.172 1218.86 50.652 1219.03 51.26H1218.85L1219.01 49.436H1220.58C1220.55 49.7667 1220.52 50.0973 1220.49 50.428C1220.46 50.748 1220.45 51.0627 1220.45 51.372V57.5H1218.84V55.708H1219.01C1218.84 56.3053 1218.49 56.78 1217.96 57.132C1217.43 57.4733 1216.83 57.644 1216.15 57.644ZM1216.55 56.38C1217.24 56.38 1217.8 56.1347 1218.21 55.644C1218.64 55.1533 1218.85 54.428 1218.85 53.468C1218.85 52.508 1218.64 51.788 1218.21 51.308C1217.8 50.8173 1217.24 50.572 1216.55 50.572C1215.85 50.572 1215.28 50.8173 1214.85 51.308C1214.44 51.788 1214.23 52.508 1214.23 53.468C1214.23 54.428 1214.44 55.1533 1214.85 55.644C1215.27 56.1347 1215.83 56.38 1216.55 56.38ZM1228.09 57.5V54.38C1227.79 54.54 1227.47 54.668 1227.13 54.764C1226.79 54.8493 1226.42 54.892 1226.04 54.892C1224.88 54.892 1224.01 54.62 1223.45 54.076C1222.89 53.5213 1222.61 52.6947 1222.61 51.596V49.436H1224.21V51.468C1224.21 52.204 1224.38 52.7373 1224.71 53.068C1225.04 53.3987 1225.56 53.564 1226.28 53.564C1226.64 53.564 1226.96 53.5267 1227.24 53.452C1227.52 53.3667 1227.79 53.2387 1228.05 53.068V49.436H1229.67V57.5H1228.09ZM1235.24 57.644C1234.53 57.644 1233.9 57.4787 1233.37 57.148C1232.84 56.8173 1232.42 56.3373 1232.12 55.708C1231.84 55.0787 1231.69 54.332 1231.69 53.468C1231.69 52.5933 1231.84 51.8467 1232.12 51.228C1232.42 50.6093 1232.84 50.1347 1233.37 49.804C1233.9 49.4627 1234.53 49.292 1235.24 49.292C1235.95 49.292 1236.56 49.468 1237.08 49.82C1237.61 50.172 1237.95 50.652 1238.12 51.26H1237.95L1238.11 49.436H1239.68C1239.64 49.7667 1239.61 50.0973 1239.58 50.428C1239.56 50.748 1239.55 51.0627 1239.55 51.372V57.5H1237.93V55.708H1238.11C1237.94 56.3053 1237.58 56.78 1237.05 57.132C1236.53 57.4733 1235.93 57.644 1235.24 57.644ZM1235.64 56.38C1236.34 56.38 1236.89 56.1347 1237.31 55.644C1237.73 55.1533 1237.95 54.428 1237.95 53.468C1237.95 52.508 1237.73 51.788 1237.31 51.308C1236.89 50.8173 1236.34 50.572 1235.64 50.572C1234.94 50.572 1234.37 50.8173 1233.95 51.308C1233.53 51.788 1233.32 52.508 1233.32 53.468C1233.32 54.428 1233.53 55.1533 1233.95 55.644C1234.36 56.1347 1234.93 56.38 1235.64 56.38ZM1243.76 57.5V50.732H1240.91V49.436H1248.22V50.732H1245.36V57.5H1243.76ZM1249.51 57.5V49.436H1251.11V52.252H1253.4C1254.46 52.252 1255.25 52.476 1255.78 52.924C1256.32 53.3613 1256.58 54.0013 1256.58 54.844C1256.58 55.388 1256.46 55.8627 1256.22 56.268C1255.97 56.6627 1255.61 56.9667 1255.13 57.18C1254.66 57.3933 1254.08 57.5 1253.4 57.5H1249.51ZM1251.11 56.396H1253.22C1253.82 56.396 1254.28 56.2733 1254.6 56.028C1254.92 55.772 1255.08 55.3827 1255.08 54.86C1255.08 54.3373 1254.92 53.9587 1254.6 53.724C1254.29 53.4787 1253.83 53.356 1253.22 53.356H1251.11V56.396ZM1262.78 57.5V46.22H1270.17V47.548H1264.4V51.1H1269.81V52.444H1264.4V56.156H1270.17V57.5H1262.78ZM1270.94 57.5L1274.6 52.956V53.724L1271.13 49.436H1273.07L1275.51 52.588H1274.94L1277.39 49.436H1279.31L1275.87 53.708V52.972L1279.51 57.5H1277.58L1274.94 54.124H1275.51L1272.86 57.5H1270.94ZM1284.1 57.644C1283.28 57.644 1282.58 57.4787 1281.97 57.148C1281.37 56.8067 1280.91 56.3213 1280.58 55.692C1280.26 55.052 1280.1 54.2947 1280.1 53.42C1280.1 52.556 1280.26 51.8147 1280.59 51.196C1280.92 50.5773 1281.39 50.108 1281.98 49.788C1282.58 49.4573 1283.28 49.292 1284.1 49.292C1284.62 49.292 1285.12 49.3827 1285.62 49.564C1286.11 49.7347 1286.51 49.98 1286.83 50.3L1286.3 51.436C1286 51.148 1285.67 50.9347 1285.3 50.796C1284.92 50.6467 1284.56 50.572 1284.21 50.572C1283.44 50.572 1282.84 50.8173 1282.4 51.308C1281.96 51.7987 1281.74 52.508 1281.74 53.436C1281.74 54.3747 1281.96 55.0947 1282.4 55.596C1282.84 56.0973 1283.44 56.348 1284.21 56.348C1284.55 56.348 1284.91 56.284 1285.28 56.156C1285.65 56.0173 1285.99 55.7987 1286.3 55.5L1286.83 56.636C1286.5 56.956 1286.08 57.2067 1285.58 57.388C1285.09 57.5587 1284.6 57.644 1284.1 57.644ZM1292.12 57.644C1290.81 57.644 1289.79 57.276 1289.04 56.54C1288.3 55.804 1287.92 54.7853 1287.92 53.484C1287.92 52.6413 1288.08 51.9053 1288.4 51.276C1288.73 50.6467 1289.19 50.1613 1289.76 49.82C1290.35 49.468 1291.03 49.292 1291.8 49.292C1292.55 49.292 1293.19 49.452 1293.7 49.772C1294.21 50.092 1294.6 50.5453 1294.87 51.132C1295.13 51.708 1295.27 52.3907 1295.27 53.18V53.692H1289.19V52.764H1294.16L1293.89 52.972C1293.89 52.172 1293.71 51.5533 1293.35 51.116C1293 50.668 1292.48 50.444 1291.81 50.444C1291.06 50.444 1290.49 50.7053 1290.08 51.228C1289.68 51.74 1289.48 52.4493 1289.48 53.356V53.516C1289.48 54.4653 1289.7 55.18 1290.16 55.66C1290.63 56.14 1291.29 56.38 1292.15 56.38C1292.62 56.38 1293.05 56.316 1293.46 56.188C1293.88 56.0493 1294.27 55.8253 1294.64 55.516L1295.17 56.62C1294.8 56.9507 1294.34 57.2067 1293.81 57.388C1293.28 57.5587 1292.71 57.644 1292.12 57.644ZM1297.12 57.5V45.724H1298.74V57.5H1297.12Z" fill="white"/>
<path d="M0 102C0 97.5817 3.58172 94 8 94H135C139.418 94 143 97.5817 143 102V139H0V102Z" fill="#5329FF"/>
<path d="M13.56 124.5V110.4H25.9V124.5H23.34V112.5H16.1V124.5H13.56ZM33.5092 124.7C32.4692 124.7 31.5692 124.487 30.8092 124.06C30.0492 123.633 29.4559 123.027 29.0292 122.24C28.6159 121.453 28.4092 120.52 28.4092 119.44C28.4092 118.36 28.6159 117.433 29.0292 116.66C29.4559 115.873 30.0492 115.267 30.8092 114.84C31.5692 114.413 32.4692 114.2 33.5092 114.2C34.5492 114.2 35.4492 114.413 36.2092 114.84C36.9826 115.267 37.5759 115.873 37.9892 116.66C38.4159 117.433 38.6292 118.36 38.6292 119.44C38.6292 120.52 38.4159 121.453 37.9892 122.24C37.5759 123.027 36.9826 123.633 36.2092 124.06C35.4492 124.487 34.5492 124.7 33.5092 124.7ZM33.5092 122.78C34.2959 122.78 34.9226 122.507 35.3892 121.96C35.8559 121.4 36.0892 120.56 36.0892 119.44C36.0892 118.32 35.8559 117.487 35.3892 116.94C34.9226 116.393 34.2959 116.12 33.5092 116.12C32.7226 116.12 32.0959 116.393 31.6292 116.94C31.1626 117.487 30.9292 118.32 30.9292 119.44C30.9292 120.56 31.1626 121.4 31.6292 121.96C32.0959 122.507 32.7226 122.78 33.5092 122.78ZM46.4864 124.5V114.4H51.8664C53.1331 114.4 54.0597 114.633 54.6464 115.1C55.2331 115.553 55.5264 116.2 55.5264 117.04C55.5264 117.68 55.3131 118.213 54.8864 118.64C54.4597 119.067 53.8931 119.333 53.1864 119.44V119.16C54.0531 119.213 54.7197 119.467 55.1864 119.92C55.6531 120.373 55.8864 120.96 55.8864 121.68C55.8864 122.547 55.5531 123.233 54.8864 123.74C54.2197 124.247 53.2731 124.5 52.0464 124.5H46.4864ZM48.8064 122.96H51.7864C52.3731 122.96 52.8197 122.84 53.1264 122.6C53.4464 122.36 53.6064 122.007 53.6064 121.54C53.6064 121.073 53.4464 120.72 53.1264 120.48C52.8197 120.24 52.3731 120.12 51.7864 120.12H48.8064V122.96ZM48.8064 118.58H51.5664C52.0997 118.58 52.5131 118.467 52.8064 118.24C53.0997 118 53.2464 117.667 53.2464 117.24C53.2464 116.813 53.0997 116.487 52.8064 116.26C52.5131 116.033 52.0997 115.92 51.5664 115.92H48.8064V118.58ZM58.0684 124.5V114.4H60.5484V117.78H63.2084C64.5551 117.78 65.5684 118.067 66.2484 118.64C66.9284 119.2 67.2684 120.013 67.2684 121.08C67.2684 121.773 67.1084 122.38 66.7884 122.9C66.4684 123.407 66.0018 123.8 65.3884 124.08C64.7884 124.36 64.0618 124.5 63.2084 124.5H58.0684ZM60.5484 122.86H62.8684C63.5484 122.86 64.0684 122.72 64.4284 122.44C64.7884 122.147 64.9684 121.707 64.9684 121.12C64.9684 120.533 64.7884 120.107 64.4284 119.84C64.0818 119.56 63.5618 119.42 62.8684 119.42H60.5484V122.86ZM68.5284 124.5V114.4H71.0084V124.5H68.5284ZM73.9297 128.82V116.92C73.9297 116.507 73.9164 116.087 73.8897 115.66C73.863 115.233 73.823 114.813 73.7697 114.4H76.1897L76.4097 116.52H76.1897C76.3897 115.813 76.8097 115.253 77.4497 114.84C78.103 114.413 78.8564 114.2 79.7097 114.2C80.603 114.2 81.383 114.413 82.0497 114.84C82.7164 115.253 83.2364 115.853 83.6097 116.64C83.983 117.413 84.1697 118.347 84.1697 119.44C84.1697 120.533 83.983 121.473 83.6097 122.26C83.2364 123.047 82.7164 123.653 82.0497 124.08C81.383 124.493 80.603 124.7 79.7097 124.7C78.8697 124.7 78.1297 124.493 77.4897 124.08C76.8497 123.667 76.423 123.113 76.2097 122.42H76.4297V128.82H73.9297ZM79.0097 122.78C79.8097 122.78 80.4497 122.507 80.9297 121.96C81.4097 121.4 81.6497 120.56 81.6497 119.44C81.6497 118.32 81.4097 117.487 80.9297 116.94C80.4497 116.393 79.8097 116.12 79.0097 116.12C78.223 116.12 77.5897 116.393 77.1097 116.94C76.6297 117.487 76.3897 118.32 76.3897 119.44C76.3897 120.56 76.6297 121.4 77.1097 121.96C77.5897 122.507 78.223 122.78 79.0097 122.78ZM86.2492 129.04L85.6692 127.06C86.2959 126.927 86.8226 126.773 87.2492 126.6C87.6759 126.427 88.0292 126.2 88.3092 125.92C88.5892 125.64 88.8226 125.28 89.0092 124.84L89.5092 123.66L89.4492 124.64L85.0492 114.4H87.7092L90.8692 122.28H90.2892L93.4692 114.4H95.9892L91.3892 125.06C91.0826 125.78 90.7492 126.373 90.3892 126.84C90.0292 127.32 89.6426 127.7 89.2292 127.98C88.8159 128.273 88.3626 128.5 87.8692 128.66C87.3759 128.82 86.8359 128.947 86.2492 129.04ZM103.922 124.5V120.82C103.549 120.993 103.162 121.127 102.762 121.22C102.362 121.313 101.942 121.36 101.502 121.36C100.022 121.36 98.9154 121.007 98.182 120.3C97.462 119.593 97.102 118.54 97.102 117.14V114.4H99.582V116.92C99.582 117.773 99.7687 118.393 100.142 118.78C100.515 119.153 101.115 119.34 101.942 119.34C102.329 119.34 102.675 119.3 102.982 119.22C103.289 119.14 103.582 119.013 103.862 118.84V114.4H106.342V124.5H103.922ZM109.182 124.5V114.4H111.662V118.36H113.182L116.142 114.4H118.822L115.102 119.44L114.562 118.66C114.935 118.7 115.262 118.8 115.542 118.96C115.835 119.12 116.108 119.347 116.362 119.64C116.628 119.92 116.888 120.28 117.142 120.72L119.262 124.5H116.602L114.882 121.46C114.708 121.153 114.535 120.913 114.362 120.74C114.188 120.567 113.995 120.447 113.782 120.38C113.568 120.313 113.308 120.28 113.002 120.28H111.662V124.5H109.182ZM125.548 124.7C123.855 124.7 122.528 124.233 121.568 123.3C120.608 122.367 120.128 121.087 120.128 119.46C120.128 118.407 120.335 117.487 120.748 116.7C121.161 115.913 121.735 115.3 122.468 114.86C123.215 114.42 124.081 114.2 125.068 114.2C126.041 114.2 126.855 114.407 127.508 114.82C128.161 115.233 128.655 115.813 128.988 116.56C129.335 117.307 129.508 118.18 129.508 119.18V119.84H122.148V118.52H127.728L127.388 118.8C127.388 117.867 127.188 117.153 126.788 116.66C126.401 116.167 125.835 115.92 125.088 115.92C124.261 115.92 123.621 116.213 123.168 116.8C122.728 117.387 122.508 118.207 122.508 119.26V119.52C122.508 120.613 122.775 121.433 123.308 121.98C123.855 122.513 124.621 122.78 125.608 122.78C126.181 122.78 126.715 122.707 127.208 122.56C127.715 122.4 128.195 122.147 128.648 121.8L129.388 123.48C128.908 123.867 128.335 124.167 127.668 124.38C127.001 124.593 126.295 124.7 125.548 124.7Z" fill="white"/>
<path d="M156.66 124.5V110.4H168.7V124.5H166.64V112.12H158.72V124.5H156.66ZM176.272 124.68C175.272 124.68 174.405 124.473 173.672 124.06C172.938 123.633 172.372 123.033 171.972 122.26C171.572 121.473 171.372 120.54 171.372 119.46C171.372 118.38 171.572 117.453 171.972 116.68C172.372 115.893 172.938 115.293 173.672 114.88C174.405 114.453 175.272 114.24 176.272 114.24C177.272 114.24 178.138 114.453 178.872 114.88C179.618 115.293 180.192 115.893 180.592 116.68C181.005 117.453 181.212 118.38 181.212 119.46C181.212 120.54 181.005 121.473 180.592 122.26C180.192 123.033 179.618 123.633 178.872 124.06C178.138 124.473 177.272 124.68 176.272 124.68ZM176.272 123.1C177.152 123.1 177.852 122.793 178.372 122.18C178.892 121.567 179.152 120.66 179.152 119.46C179.152 118.26 178.892 117.36 178.372 116.76C177.852 116.147 177.152 115.84 176.272 115.84C175.405 115.84 174.712 116.147 174.192 116.76C173.672 117.36 173.412 118.26 173.412 119.46C173.412 120.66 173.665 121.567 174.172 122.18C174.692 122.793 175.392 123.1 176.272 123.1ZM189.04 124.5V114.42H198.08V124.5H196.08V116H191.04V124.5H189.04ZM201.19 128.82V116.84C201.19 116.453 201.17 116.06 201.13 115.66C201.103 115.247 201.07 114.833 201.03 114.42H202.99L203.19 116.7H202.97C203.183 115.94 203.61 115.34 204.25 114.9C204.903 114.46 205.677 114.24 206.57 114.24C207.463 114.24 208.243 114.453 208.91 114.88C209.577 115.293 210.09 115.887 210.45 116.66C210.823 117.433 211.01 118.367 211.01 119.46C211.01 120.54 210.823 121.473 210.45 122.26C210.09 123.047 209.577 123.647 208.91 124.06C208.243 124.473 207.463 124.68 206.57 124.68C205.69 124.68 204.923 124.467 204.27 124.04C203.63 123.6 203.203 123.007 202.99 122.26H203.21V128.82H201.19ZM206.07 123.1C206.95 123.1 207.65 122.793 208.17 122.18C208.703 121.567 208.97 120.66 208.97 119.46C208.97 118.26 208.703 117.36 208.17 116.76C207.65 116.147 206.95 115.84 206.07 115.84C205.19 115.84 204.483 116.147 203.95 116.76C203.43 117.36 203.17 118.26 203.17 119.46C203.17 120.66 203.43 121.567 203.95 122.18C204.483 122.793 205.19 123.1 206.07 123.1ZM213.532 124.5V114.42H215.372V122.56H214.812L220.892 114.42H222.572V124.5H220.752V116.34H221.332L215.212 124.5H213.532ZM230.082 124.68C228.562 124.68 227.349 124.207 226.442 123.26C225.549 122.313 225.102 120.92 225.102 119.08V117.34C225.102 115.46 225.502 113.947 226.302 112.8C227.115 111.653 228.369 110.88 230.062 110.48L233.742 109.6L234.322 111.22L230.202 112.18C229.482 112.34 228.889 112.64 228.422 113.08C227.955 113.52 227.602 114.04 227.362 114.64C227.135 115.24 227.022 115.88 227.022 116.56V117.48H226.722C226.882 116.867 227.135 116.347 227.482 115.92C227.842 115.48 228.282 115.14 228.802 114.9C229.335 114.647 229.929 114.52 230.582 114.52C231.449 114.52 232.209 114.72 232.862 115.12C233.515 115.52 234.022 116.1 234.382 116.86C234.755 117.607 234.942 118.493 234.942 119.52C234.942 120.587 234.742 121.507 234.342 122.28C233.942 123.053 233.375 123.647 232.642 124.06C231.922 124.473 231.069 124.68 230.082 124.68ZM230.022 123.12C230.929 123.12 231.635 122.827 232.142 122.24C232.662 121.64 232.922 120.76 232.922 119.6C232.922 118.453 232.662 117.58 232.142 116.98C231.622 116.38 230.915 116.08 230.022 116.08C229.129 116.08 228.422 116.38 227.902 116.98C227.382 117.567 227.122 118.407 227.122 119.5C227.122 120.7 227.375 121.607 227.882 122.22C228.402 122.82 229.115 123.12 230.022 123.12ZM237.458 124.5V114.42H239.458V117.94H242.318C243.638 117.94 244.631 118.22 245.298 118.78C245.964 119.327 246.298 120.127 246.298 121.18C246.298 121.86 246.144 122.453 245.838 122.96C245.531 123.453 245.078 123.833 244.478 124.1C243.891 124.367 243.171 124.5 242.318 124.5H237.458ZM239.458 123.12H242.098C242.858 123.12 243.431 122.967 243.818 122.66C244.218 122.34 244.418 121.853 244.418 121.2C244.418 120.547 244.218 120.073 243.818 119.78C243.431 119.473 242.858 119.32 242.098 119.32H239.458V123.12ZM247.718 124.5V114.42H249.718V124.5H247.718ZM252.311 124.76L251.631 123.16C252.084 122.973 252.464 122.74 252.771 122.46C253.091 122.167 253.338 121.793 253.511 121.34C253.698 120.887 253.831 120.327 253.911 119.66C253.991 118.993 254.031 118.187 254.031 117.24V114.42H261.631V124.5H259.631V116H255.891V117.3C255.891 118.82 255.771 120.08 255.531 121.08C255.291 122.08 254.904 122.873 254.371 123.46C253.851 124.033 253.164 124.467 252.311 124.76ZM264.665 124.5V114.42H266.505V122.56H265.945L272.025 114.42H273.705V124.5H271.885V116.34H272.465L266.345 124.5H264.665Z" fill="black" fill-opacity="0.3"/>
</svg>
