<svg width="487" height="204" viewBox="0 0 487 204" fill="none" xmlns="http://www.w3.org/2000/svg">
<path d="M342.901 109.848V65.8438H357.54V76.2132C359.05 72.4372 361.112 69.6053 363.727 67.7173C366.341 65.8293 369.507 64.8853 373.225 64.8853C373.835 64.8853 374.444 64.9144 375.054 64.9725C375.693 65.0015 376.332 65.0596 376.971 65.1467L375.49 79.263C374.561 78.9435 373.646 78.7112 372.745 78.5659C371.845 78.4207 370.973 78.3481 370.131 78.3481C366.355 78.3481 363.436 79.5099 361.374 81.8336C359.341 84.1282 358.324 87.3959 358.324 91.6366V109.848H342.901Z" fill="#1A1A1A"/>
<path d="M320.132 87.8026C320.132 84.3752 319.217 81.6594 317.387 79.6552C315.557 77.6511 313.059 76.649 309.893 76.649C306.727 76.649 304.229 77.6511 302.399 79.6552C300.598 81.6304 299.698 84.3461 299.698 87.8026C299.698 91.23 300.613 93.9313 302.443 95.9064C304.273 97.8815 306.756 98.8691 309.893 98.8691C313.059 98.8691 315.557 97.8815 317.387 95.9064C319.217 93.9313 320.132 91.23 320.132 87.8026ZM333.769 65.8439V109.848H319.522V102.703C317.488 105.753 315.194 107.989 312.638 109.413C310.111 110.836 307.134 111.548 303.706 111.548C297.839 111.548 293.148 109.413 289.633 105.143C286.119 100.844 284.362 95.0931 284.362 87.8897C284.362 80.7154 286.191 75.0224 289.851 70.8108C293.54 66.5701 298.492 64.4497 304.708 64.4497C308.019 64.4497 310.866 65.1613 313.248 66.5846C315.659 67.9788 317.721 70.1427 319.434 73.0763V65.8439H333.769Z" fill="#1A1A1A"/>
<path d="M263.993 87.8893C263.993 84.4619 263.078 81.7607 261.248 79.7855C259.447 77.8104 256.979 76.8229 253.842 76.8229C250.705 76.8229 248.236 77.8104 246.435 79.7855C244.634 81.7607 243.734 84.4619 243.734 87.8893C243.734 91.3458 244.62 94.0616 246.391 96.0367C248.192 97.9828 250.676 98.9558 253.842 98.9558C256.979 98.9558 259.447 97.9683 261.248 95.9932C263.078 94.018 263.993 91.3168 263.993 87.8893ZM277.761 42.3163V109.848H263.47V102.703C261.495 105.665 259.273 107.887 256.804 109.369C254.335 110.821 251.591 111.547 248.57 111.547C242.383 111.547 237.46 109.412 233.8 105.143C230.14 100.873 228.31 95.1218 228.31 87.8893C228.31 80.8893 230.126 75.2399 233.756 70.9411C237.416 66.6132 242.18 64.4493 248.047 64.4493C251.765 64.4493 254.786 65.1174 257.109 66.4535C259.462 67.7896 261.553 70.0261 263.383 73.1631C263.209 72.1174 263.078 70.9411 262.991 69.634C262.904 68.2979 262.86 66.8601 262.86 65.3207V42.3163H277.761Z" fill="#1A1A1A"/>
<path d="M207.679 87.8026C207.679 84.3752 206.764 81.6594 204.934 79.6552C203.104 77.6511 200.606 76.649 197.44 76.649C194.274 76.649 191.776 77.6511 189.946 79.6552C188.146 81.6304 187.245 84.3461 187.245 87.8026C187.245 91.23 188.16 93.9313 189.99 95.9064C191.82 97.8815 194.303 98.8691 197.44 98.8691C200.606 98.8691 203.104 97.8815 204.934 95.9064C206.764 93.9313 207.679 91.23 207.679 87.8026ZM221.316 65.8439V109.848H207.069V102.703C205.036 105.753 202.741 107.989 200.185 109.413C197.658 110.836 194.681 111.548 191.253 111.548C185.386 111.548 180.695 109.413 177.181 105.143C173.666 100.844 171.909 95.0931 171.909 87.8897C171.909 80.7154 173.739 75.0224 177.399 70.8108C181.087 66.5701 186.04 64.4497 192.256 64.4497C195.567 64.4497 198.413 65.1613 200.795 66.5846C203.206 67.9788 205.268 70.1427 206.982 73.0763V65.8439H221.316Z" fill="#1A1A1A"/>
<path d="M120.646 109.847V46.0627H138.814C145.93 46.0627 150.883 46.3967 153.671 47.0648C156.489 47.7038 158.914 48.793 160.947 50.3324C163.242 52.0752 164.999 54.2972 166.219 56.9985C167.468 59.6997 168.092 62.6769 168.092 65.9301C168.092 70.8679 166.873 74.8907 164.433 77.9986C162.022 81.0775 158.493 83.1252 153.845 84.1418L171.229 109.847H151.58L136.941 84.8825V109.847H120.646ZM136.941 76.2123H140.165C143.912 76.2123 146.642 75.5733 148.356 74.2953C150.099 73.0173 150.97 71.0131 150.97 68.2828C150.97 65.0877 150.157 62.8222 148.53 61.486C146.933 60.1209 144.231 59.4383 140.426 59.4383H136.941V76.2123Z" fill="#1A1A1A"/>
<path d="M181.327 130.952C180.824 123.769 186.24 117.538 193.423 117.036L393.72 103.03C400.903 102.528 407.133 107.944 407.635 115.127L409.091 135.937C409.593 143.12 404.177 149.35 396.994 149.852L196.697 163.859C189.514 164.361 183.284 158.945 182.782 151.762L181.327 130.952Z" fill="#F0AD00"/>
<path d="M101.45 119.114C98.693 119.991 95.7368 118.47 94.9664 115.681C88.3633 91.7817 88.4202 66.528 95.1311 42.6586C95.9141 39.8737 98.8771 38.3656 101.63 39.2552C104.383 40.1448 105.882 43.0953 105.108 45.8827C99.058 67.669 99.0061 90.6887 104.957 112.502C105.719 115.293 104.206 118.237 101.45 119.114Z" fill="#F0AD00"/>
<path d="M77.723 109.453C74.9072 110.116 72.0762 108.373 71.5217 105.534C68.3132 89.1055 68.1652 72.2252 71.085 55.7432C71.5897 52.8947 74.3896 51.1019 77.2166 51.7158C80.0436 52.3298 81.8263 55.1178 81.3308 57.968C78.7312 72.9217 78.8654 88.2238 81.7269 103.13C82.2723 105.971 80.5388 108.79 77.723 109.453Z" fill="#F0AD00"/>
<path d="M375.702 130.664L382.307 130.202L379.266 122.34C379.172 122.101 379.039 121.715 378.868 121.181C378.697 120.646 378.476 119.96 378.205 119.12C378.103 119.729 377.999 120.311 377.893 120.864C377.798 121.417 377.695 121.948 377.586 122.457L375.702 130.664ZM367.039 140.414L373.737 115.471L382.056 114.889L392.177 138.657L385.572 139.118L384.036 134.846L374.603 135.505L373.644 139.953L367.039 140.414Z" fill="white"/>
<path d="M364.522 117.069L365.029 124.322C364.049 123.377 363.088 122.703 362.146 122.3C361.214 121.886 360.232 121.715 359.201 121.787C357.293 121.921 355.792 122.683 354.696 124.075C353.611 125.455 353.142 127.193 353.289 129.289C353.425 131.241 354.138 132.819 355.425 134.022C356.724 135.224 358.305 135.759 360.169 135.629C361.2 135.557 362.149 135.257 363.015 134.728C363.891 134.187 364.748 133.375 365.586 132.291L366.094 139.562C365.076 140.145 364.055 140.601 363.03 140.929C362.006 141.257 360.961 141.459 359.896 141.533C358.565 141.626 357.323 141.551 356.169 141.309C355.027 141.077 353.962 140.672 352.975 140.094C351.07 139.002 349.576 137.562 348.493 135.777C347.41 133.991 346.787 131.94 346.625 129.622C346.495 127.758 346.676 126.046 347.168 124.485C347.671 122.911 348.49 121.461 349.623 120.133C350.693 118.866 351.929 117.888 353.33 117.199C354.741 116.51 356.335 116.103 358.109 115.979C359.174 115.905 360.236 115.958 361.297 116.141C362.357 116.323 363.432 116.632 364.522 117.069Z" fill="white"/>
<path d="M336.429 142.555L334.726 118.199L341.43 117.73L343.133 142.086L336.429 142.555Z" fill="white"/>
<path d="M320.906 143.641L319.605 125.041L314.149 125.422L313.746 119.666L331.298 118.439L331.7 124.195L326.244 124.577L327.544 143.177L320.906 143.641Z" fill="white"/>
<path d="M301.356 145.007L300.579 133.894L291.135 121.247L298.755 120.714L302.471 126.757C302.495 126.789 302.533 126.847 302.584 126.933C302.973 127.563 303.255 128.173 303.43 128.763C303.503 128.212 303.699 127.591 304.019 126.899C304.077 126.773 304.115 126.687 304.135 126.641L306.94 120.142L314.576 119.608L306.984 133.446L307.762 144.56L301.356 145.007Z" fill="white"/>
<path d="M280.76 146.448L279.057 122.091L285.695 121.627L287 140.294L295.252 139.717L295.65 145.406L280.76 146.448Z" fill="white"/>
<path d="M261.941 138.62L268.545 138.158L265.505 130.295C265.41 130.057 265.277 129.671 265.106 129.136C264.935 128.602 264.714 127.916 264.444 127.076C264.341 127.685 264.237 128.267 264.131 128.82C264.036 129.373 263.934 129.904 263.824 130.413L261.941 138.62ZM253.277 148.37L259.976 123.426L268.294 122.845L278.415 146.612L271.81 147.074L270.275 142.801L260.841 143.461L259.882 147.908L253.277 148.37Z" fill="white"/>
<path d="M227.09 150.201L225.387 125.845L231.792 125.397L241.868 137.281C242.063 137.524 242.388 138.019 242.841 138.768C243.305 139.504 243.818 140.388 244.381 141.419C244.177 140.419 244.014 139.527 243.893 138.744C243.782 137.961 243.706 137.264 243.663 136.654L242.822 124.626L249.194 124.18L250.897 148.536L244.525 148.982L234.446 137.048C234.239 136.806 233.904 136.317 233.44 135.58C232.987 134.832 232.485 133.953 231.935 132.944C232.139 133.955 232.297 134.852 232.407 135.636C232.529 136.418 232.611 137.115 232.654 137.725L233.495 149.753L227.09 150.201Z" fill="white"/>
<path d="M208.27 142.372L214.875 141.91L211.834 134.048C211.74 133.809 211.607 133.423 211.436 132.889C211.264 132.355 211.044 131.668 210.773 130.829C210.671 131.438 210.567 132.019 210.461 132.572C210.365 133.125 210.263 133.656 210.154 134.165L208.27 142.372ZM199.607 152.123L206.305 127.179L214.623 126.597L224.745 150.365L218.14 150.827L216.604 146.554L207.171 147.213L206.211 151.661L199.607 152.123Z" fill="white"/>
</svg>
