<svg width="1348" height="252" viewBox="0 0 1348 252" fill="none" xmlns="http://www.w3.org/2000/svg">
<g filter="url(#filter0_d_3011_14137)">
<rect x="20" y="20" width="644" height="212" rx="16" fill="white" shape-rendering="crispEdges"/>
<rect x="44" y="46" width="60" height="60" rx="8.10135" fill="#1A1A1A"/>
<path d="M72.4263 85V70.624H66.8343V68.08H81.1143V70.624H75.5223V85H72.4263Z" fill="white"/>
<path d="M125.856 71V56.624H120.264V54.08H134.544V56.624H128.952V71H125.856ZM140.64 71.24C138.608 71.24 137.016 70.68 135.864 69.56C134.712 68.44 134.136 66.904 134.136 64.952C134.136 63.688 134.384 62.584 134.88 61.64C135.376 60.696 136.064 59.96 136.944 59.432C137.84 58.904 138.88 58.64 140.064 58.64C141.232 58.64 142.208 58.888 142.992 59.384C143.776 59.88 144.368 60.576 144.768 61.472C145.184 62.368 145.392 63.416 145.392 64.616V65.408H136.56V63.824H143.256L142.848 64.16C142.848 63.04 142.608 62.184 142.128 61.592C141.664 61 140.984 60.704 140.088 60.704C139.096 60.704 138.328 61.056 137.784 61.76C137.256 62.464 136.992 63.448 136.992 64.712V65.024C136.992 66.336 137.312 67.32 137.952 67.976C138.608 68.616 139.528 68.936 140.712 68.936C141.4 68.936 142.04 68.848 142.632 68.672C143.24 68.48 143.816 68.176 144.36 67.76L145.248 69.776C144.672 70.24 143.984 70.6 143.184 70.856C142.384 71.112 141.536 71.24 140.64 71.24ZM153.829 71.24C152.581 71.24 151.485 70.984 150.541 70.472C149.613 69.96 148.893 69.232 148.381 68.288C147.869 67.328 147.613 66.192 147.613 64.88C147.613 63.568 147.869 62.448 148.381 61.52C148.909 60.592 149.637 59.88 150.565 59.384C151.493 58.888 152.581 58.64 153.829 58.64C154.629 58.64 155.405 58.768 156.157 59.024C156.925 59.264 157.549 59.616 158.029 60.08L157.117 62.168C156.685 61.768 156.197 61.472 155.653 61.28C155.125 61.072 154.605 60.968 154.093 60.968C153.021 60.968 152.181 61.304 151.573 61.976C150.981 62.648 150.685 63.624 150.685 64.904C150.685 66.184 150.981 67.168 151.573 67.856C152.181 68.544 153.021 68.888 154.093 68.888C154.589 68.888 155.101 68.792 155.629 68.6C156.173 68.408 156.669 68.112 157.117 67.712L158.029 69.776C157.533 70.24 156.901 70.6 156.133 70.856C155.381 71.112 154.613 71.24 153.829 71.24ZM163.203 71V61.232H159.051V58.88H170.355V61.232H166.179V71H163.203ZM177.663 71.24C176.415 71.24 175.335 70.984 174.423 70.472C173.511 69.96 172.799 69.232 172.287 68.288C171.791 67.344 171.543 66.224 171.543 64.928C171.543 63.632 171.791 62.52 172.287 61.592C172.799 60.648 173.511 59.92 174.423 59.408C175.335 58.896 176.415 58.64 177.663 58.64C178.911 58.64 179.991 58.896 180.903 59.408C181.831 59.92 182.543 60.648 183.039 61.592C183.551 62.52 183.807 63.632 183.807 64.928C183.807 66.224 183.551 67.344 183.039 68.288C182.543 69.232 181.831 69.96 180.903 70.472C179.991 70.984 178.911 71.24 177.663 71.24ZM177.663 68.936C178.607 68.936 179.359 68.608 179.919 67.952C180.479 67.28 180.759 66.272 180.759 64.928C180.759 63.584 180.479 62.584 179.919 61.928C179.359 61.272 178.607 60.944 177.663 60.944C176.719 60.944 175.967 61.272 175.407 61.928C174.847 62.584 174.567 63.584 174.567 64.928C174.567 66.272 174.847 67.28 175.407 67.952C175.967 68.608 176.719 68.936 177.663 68.936ZM186.649 71V58.88H193.105C194.625 58.88 195.737 59.16 196.441 59.72C197.145 60.264 197.497 61.04 197.497 62.048C197.497 62.816 197.241 63.456 196.729 63.968C196.217 64.48 195.537 64.8 194.689 64.928V64.592C195.729 64.656 196.529 64.96 197.089 65.504C197.649 66.048 197.929 66.752 197.929 67.616C197.929 68.656 197.529 69.48 196.729 70.088C195.929 70.696 194.793 71 193.321 71H186.649ZM189.433 69.152H193.009C193.713 69.152 194.249 69.008 194.617 68.72C195.001 68.432 195.193 68.008 195.193 67.448C195.193 66.888 195.001 66.464 194.617 66.176C194.249 65.888 193.713 65.744 193.009 65.744H189.433V69.152ZM189.433 63.896H192.745C193.385 63.896 193.881 63.76 194.233 63.488C194.585 63.2 194.761 62.8 194.761 62.288C194.761 61.776 194.585 61.384 194.233 61.112C193.881 60.84 193.385 60.704 192.745 60.704H189.433V63.896ZM200.548 71V58.88H203.524V62.936H206.716C208.332 62.936 209.548 63.28 210.364 63.968C211.18 64.64 211.588 65.616 211.588 66.896C211.588 67.728 211.396 68.456 211.012 69.08C210.628 69.688 210.068 70.16 209.332 70.496C208.612 70.832 207.74 71 206.716 71H200.548ZM203.524 69.032H206.308C207.124 69.032 207.748 68.864 208.18 68.528C208.612 68.176 208.828 67.648 208.828 66.944C208.828 66.24 208.612 65.728 208.18 65.408C207.764 65.072 207.14 64.904 206.308 64.904H203.524V69.032ZM213.1 71V58.88H216.076V71H213.1ZM219.485 71V58.88H222.197V68.048H221.477L228.365 58.88H230.837V71H228.125V61.808H228.869L221.957 71H219.485ZM225.149 57.776C224.349 57.776 223.645 57.648 223.037 57.392C222.429 57.12 221.925 56.744 221.525 56.264C221.125 55.768 220.837 55.184 220.661 54.512L222.197 53.984C222.469 54.72 222.845 55.264 223.325 55.616C223.805 55.952 224.421 56.12 225.173 56.12C225.925 56.12 226.541 55.952 227.021 55.616C227.501 55.28 227.893 54.744 228.197 54.008L229.661 54.512C229.325 55.584 228.765 56.4 227.981 56.96C227.213 57.504 226.269 57.776 225.149 57.776ZM240.837 71V58.88H252.189V71H249.213V61.184H243.813V71H240.837ZM261.554 71.24C259.522 71.24 257.93 70.68 256.778 69.56C255.626 68.44 255.05 66.904 255.05 64.952C255.05 63.688 255.298 62.584 255.794 61.64C256.29 60.696 256.978 59.96 257.858 59.432C258.754 58.904 259.794 58.64 260.978 58.64C262.146 58.64 263.122 58.888 263.906 59.384C264.69 59.88 265.282 60.576 265.682 61.472C266.098 62.368 266.306 63.416 266.306 64.616V65.408H257.474V63.824H264.17L263.762 64.16C263.762 63.04 263.522 62.184 263.042 61.592C262.578 61 261.898 60.704 261.002 60.704C260.01 60.704 259.242 61.056 258.698 61.76C258.17 62.464 257.906 63.448 257.906 64.712V65.024C257.906 66.336 258.226 67.32 258.866 67.976C259.522 68.616 260.442 68.936 261.626 68.936C262.314 68.936 262.954 68.848 263.546 68.672C264.154 68.48 264.73 68.176 265.274 67.76L266.162 69.776C265.586 70.24 264.898 70.6 264.098 70.856C263.298 71.112 262.45 71.24 261.554 71.24ZM269.175 76.184V61.904C269.175 61.408 269.159 60.904 269.127 60.392C269.095 59.88 269.047 59.376 268.983 58.88H271.887L272.151 61.424H271.887C272.127 60.576 272.631 59.904 273.399 59.408C274.183 58.896 275.087 58.64 276.111 58.64C277.183 58.64 278.119 58.896 278.919 59.408C279.719 59.904 280.343 60.624 280.791 61.568C281.239 62.496 281.463 63.616 281.463 64.928C281.463 66.24 281.239 67.368 280.791 68.312C280.343 69.256 279.719 69.984 278.919 70.496C278.119 70.992 277.183 71.24 276.111 71.24C275.103 71.24 274.215 70.992 273.447 70.496C272.679 70 272.167 69.336 271.911 68.504H272.175V76.184H269.175ZM275.271 68.936C276.231 68.936 276.999 68.608 277.575 67.952C278.151 67.28 278.439 66.272 278.439 64.928C278.439 63.584 278.151 62.584 277.575 61.928C276.999 61.272 276.231 60.944 275.271 60.944C274.327 60.944 273.567 61.272 272.991 61.928C272.415 62.584 272.127 63.584 272.127 64.928C272.127 66.272 272.415 67.28 272.991 67.952C273.567 68.608 274.327 68.936 275.271 68.936ZM284.29 71V58.88H287.002V68.048H286.282L293.17 58.88H295.642V71H292.93V61.808H293.674L286.762 71H284.29ZM304.624 71.24C303.376 71.24 302.296 70.984 301.384 70.472C300.472 69.96 299.76 69.232 299.248 68.288C298.752 67.344 298.504 66.224 298.504 64.928C298.504 63.632 298.752 62.52 299.248 61.592C299.76 60.648 300.472 59.92 301.384 59.408C302.296 58.896 303.376 58.64 304.624 58.64C305.872 58.64 306.952 58.896 307.864 59.408C308.792 59.92 309.504 60.648 310 61.592C310.512 62.52 310.768 63.632 310.768 64.928C310.768 66.224 310.512 67.344 310 68.288C309.504 69.232 308.792 69.96 307.864 70.472C306.952 70.984 305.872 71.24 304.624 71.24ZM304.624 68.936C305.568 68.936 306.32 68.608 306.88 67.952C307.44 67.28 307.72 66.272 307.72 64.928C307.72 63.584 307.44 62.584 306.88 61.928C306.32 61.272 305.568 60.944 304.624 60.944C303.68 60.944 302.928 61.272 302.368 61.928C301.808 62.584 301.528 63.584 301.528 64.928C301.528 66.272 301.808 67.28 302.368 67.952C302.928 68.608 303.68 68.936 304.624 68.936ZM312.53 74.12V68.72H313.922C314.402 67.968 314.746 67.088 314.954 66.08C315.178 65.056 315.29 63.808 315.29 62.336V58.88H324.626V68.72H326.594V74.12H324.05V71H315.074V74.12H312.53ZM316.61 68.744H321.818V61.136H317.834V63.008C317.834 64.08 317.73 65.128 317.522 66.152C317.314 67.176 317.01 68.04 316.61 68.744Z" fill="#1A1A1A"/>
<rect x="525" y="44" width="115" height="36" rx="8" fill="#00B69B" fill-opacity="0.1"/>
<circle cx="545" cy="62" r="4" fill="#00B69B"/>
<path d="M557.224 68L562.216 56.72H563.512L568.584 68H567.048L565.656 64.8L566.296 65.184H559.432L560.136 64.8L558.744 68H557.224ZM562.84 58.384L560.344 64.304L559.96 63.968H565.768L565.464 64.304L562.904 58.384H562.84ZM570.061 68V59.952H571.501V63.28H572.957L575.549 59.952H577.133L574.125 63.872L573.741 63.424C574.05 63.456 574.317 63.536 574.541 63.664C574.765 63.7813 574.978 63.9573 575.181 64.192C575.394 64.4267 575.623 64.7413 575.869 65.136L577.533 68H575.965L574.509 65.52C574.349 65.232 574.189 65.008 574.029 64.848C573.869 64.688 573.687 64.576 573.485 64.512C573.293 64.448 573.047 64.416 572.749 64.416H571.501V68H570.061ZM580.507 68V61.12H577.611V59.952H584.843V61.12H581.947V68H580.507ZM586.17 68V59.952H587.498V66.624H587.066L592.058 59.952H593.274V68H591.946V61.312H592.394L587.386 68H586.17ZM595.764 68V59.952H599.732C600.681 59.952 601.385 60.1333 601.844 60.496C602.313 60.8587 602.548 61.3813 602.548 62.064C602.548 62.576 602.372 63.008 602.02 63.36C601.668 63.7013 601.209 63.9093 600.644 63.984V63.776C601.316 63.7973 601.844 63.9947 602.228 64.368C602.622 64.7307 602.82 65.2 602.82 65.776C602.82 66.4587 602.558 67.0027 602.036 67.408C601.524 67.8027 600.804 68 599.876 68H595.764ZM597.14 67.04H599.78C600.324 67.04 600.74 66.928 601.028 66.704C601.316 66.4693 601.46 66.1387 601.46 65.712C601.46 65.2747 601.316 64.944 601.028 64.72C600.74 64.496 600.324 64.384 599.78 64.384H597.14V67.04ZM597.14 63.424H599.604C600.105 63.424 600.494 63.312 600.772 63.088C601.049 62.864 601.188 62.5547 601.188 62.16C601.188 61.7547 601.049 61.4453 600.772 61.232C600.494 61.0187 600.105 60.912 599.604 60.912H597.14V63.424ZM604.779 68V59.952H606.219V63.28H610.475V59.952H611.915V68H610.475V64.432H606.219V68H604.779ZM617.524 68.144C616.82 68.144 616.202 67.9787 615.668 67.648C615.135 67.3173 614.719 66.8373 614.42 66.208C614.122 65.5787 613.972 64.832 613.972 63.968C613.972 63.104 614.122 62.3627 614.42 61.744C614.719 61.1147 615.135 60.6347 615.668 60.304C616.202 59.9733 616.82 59.808 617.524 59.808C618.239 59.808 618.858 59.9893 619.38 60.352C619.914 60.704 620.266 61.1893 620.436 61.808H620.244L620.42 59.952H621.828C621.796 60.272 621.764 60.592 621.732 60.912C621.711 61.232 621.7 61.5467 621.7 61.856V68H620.244V66.16H620.42C620.25 66.768 619.898 67.2533 619.364 67.616C618.842 67.968 618.228 68.144 617.524 68.144ZM617.86 66.992C618.586 66.992 619.167 66.736 619.604 66.224C620.042 65.712 620.26 64.96 620.26 63.968C620.26 62.976 620.042 62.2293 619.604 61.728C619.167 61.2267 618.586 60.976 617.86 60.976C617.135 60.976 616.548 61.2267 616.1 61.728C615.663 62.2293 615.444 62.976 615.444 63.968C615.444 64.96 615.663 65.712 616.1 66.224C616.538 66.736 617.124 66.992 617.86 66.992Z" fill="#1A1A1A"/>
<path d="M120.256 106.544V102.784H121.408C121.984 102.101 122.405 101.173 122.672 100C122.949 98.8267 123.088 97.3707 123.088 95.632V92.72H130.88V102.784H132.544V106.544H131.216V104H121.6V106.544H120.256ZM122.944 102.784H129.408V93.92H124.464V95.744C124.464 97.44 124.341 98.8533 124.096 99.984C123.851 101.104 123.467 102.037 122.944 102.784ZM137.866 104.144C136.586 104.144 135.573 103.776 134.826 103.04C134.09 102.304 133.722 101.291 133.722 100C133.722 99.1467 133.882 98.4107 134.202 97.792C134.533 97.1627 134.986 96.6773 135.562 96.336C136.138 95.984 136.81 95.808 137.578 95.808C138.314 95.808 138.938 95.968 139.45 96.288C139.962 96.5973 140.352 97.04 140.618 97.616C140.885 98.192 141.018 98.8747 141.018 99.664V100.144H134.858V99.28H140.026L139.754 99.488C139.754 98.656 139.568 98.0107 139.194 97.552C138.832 97.0933 138.293 96.864 137.578 96.864C136.8 96.864 136.197 97.136 135.77 97.68C135.344 98.2133 135.13 98.944 135.13 99.872V100.016C135.13 100.997 135.37 101.739 135.85 102.24C136.341 102.741 137.018 102.992 137.882 102.992C138.362 102.992 138.81 102.923 139.226 102.784C139.642 102.645 140.042 102.416 140.426 102.096L140.906 103.104C140.544 103.435 140.09 103.691 139.546 103.872C139.013 104.053 138.453 104.144 137.866 104.144ZM143.045 104V95.952H144.373V102.624H143.941L148.933 95.952H150.149V104H148.821V97.312H149.269L144.261 104H143.045ZM146.597 95.216C146.138 95.216 145.717 95.136 145.333 94.976C144.949 94.816 144.618 94.5867 144.341 94.288C144.074 93.9787 143.872 93.5947 143.733 93.136L144.565 92.832C144.757 93.344 145.018 93.7227 145.349 93.968C145.68 94.2027 146.096 94.32 146.597 94.32C147.109 94.32 147.53 94.208 147.861 93.984C148.192 93.76 148.48 93.3813 148.725 92.848L149.509 93.136C149.242 93.8613 148.853 94.3893 148.341 94.72C147.84 95.0507 147.258 95.216 146.597 95.216ZM156.143 104.144C155.343 104.144 154.649 103.979 154.063 103.648C153.476 103.307 153.017 102.821 152.687 102.192C152.367 101.552 152.207 100.795 152.207 99.92C152.207 99.056 152.372 98.32 152.703 97.712C153.033 97.0933 153.492 96.624 154.079 96.304C154.665 95.9733 155.353 95.808 156.143 95.808C156.665 95.808 157.172 95.8987 157.663 96.08C158.153 96.2507 158.553 96.5013 158.863 96.832L158.367 97.856C158.057 97.5573 157.716 97.3387 157.343 97.2C156.969 97.0507 156.601 96.976 156.239 96.976C155.449 96.976 154.831 97.232 154.383 97.744C153.935 98.2453 153.711 98.976 153.711 99.936C153.711 100.907 153.935 101.653 154.383 102.176C154.831 102.699 155.449 102.96 156.239 102.96C156.591 102.96 156.953 102.891 157.327 102.752C157.7 102.613 158.047 102.395 158.367 102.096L158.863 103.104C158.543 103.445 158.132 103.707 157.631 103.888C157.14 104.059 156.644 104.144 156.143 104.144ZM162.492 104V97.12H159.596V95.952H166.828V97.12H163.932V104H162.492ZM168.154 104V95.952H172.122C173.072 95.952 173.776 96.1333 174.234 96.496C174.704 96.8587 174.938 97.3813 174.938 98.064C174.938 98.576 174.762 99.008 174.41 99.36C174.058 99.7013 173.6 99.9093 173.034 99.984V99.776C173.706 99.7973 174.234 99.9947 174.618 100.368C175.013 100.731 175.21 101.2 175.21 101.776C175.21 102.459 174.949 103.003 174.426 103.408C173.914 103.803 173.194 104 172.266 104H168.154ZM169.53 103.04H172.17C172.714 103.04 173.13 102.928 173.418 102.704C173.706 102.469 173.85 102.139 173.85 101.712C173.85 101.275 173.706 100.944 173.418 100.72C173.13 100.496 172.714 100.384 172.17 100.384H169.53V103.04ZM169.53 99.424H171.994C172.496 99.424 172.885 99.312 173.162 99.088C173.44 98.864 173.578 98.5547 173.578 98.16C173.578 97.7547 173.44 97.4453 173.162 97.232C172.885 97.0187 172.496 96.912 171.994 96.912H169.53V99.424ZM176.946 107.632L176.61 106.448C177.111 106.331 177.527 106.192 177.858 106.032C178.189 105.883 178.466 105.685 178.69 105.44C178.914 105.195 179.111 104.885 179.282 104.512L179.682 103.552L179.65 104.16L176.146 95.952H177.714L180.514 102.848H180.098L182.898 95.952H184.402L180.706 104.624C180.482 105.147 180.237 105.584 179.97 105.936C179.714 106.288 179.431 106.576 179.122 106.8C178.823 107.024 178.493 107.2 178.13 107.328C177.767 107.456 177.373 107.557 176.946 107.632ZM189.476 104.144C188.196 104.144 187.182 103.776 186.436 103.04C185.7 102.304 185.332 101.291 185.332 100C185.332 99.1467 185.492 98.4107 185.812 97.792C186.142 97.1627 186.596 96.6773 187.172 96.336C187.748 95.984 188.42 95.808 189.188 95.808C189.924 95.808 190.548 95.968 191.06 96.288C191.572 96.5973 191.961 97.04 192.228 97.616C192.494 98.192 192.628 98.8747 192.628 99.664V100.144H186.468V99.28H191.636L191.364 99.488C191.364 98.656 191.177 98.0107 190.804 97.552C190.441 97.0933 189.902 96.864 189.188 96.864C188.409 96.864 187.806 97.136 187.38 97.68C186.953 98.2133 186.74 98.944 186.74 99.872V100.016C186.74 100.997 186.98 101.739 187.46 102.24C187.95 102.741 188.628 102.992 189.492 102.992C189.972 102.992 190.42 102.923 190.836 102.784C191.252 102.645 191.652 102.416 192.036 102.096L192.516 103.104C192.153 103.435 191.7 103.691 191.156 103.872C190.622 104.053 190.062 104.144 189.476 104.144ZM196.382 104V97.12H193.486V95.952H200.718V97.12H197.822V104H196.382ZM205.432 106.08V102.864H206.312C206.674 102.32 206.936 101.68 207.096 100.944C207.266 100.208 207.352 99.3333 207.352 98.32V95.952H213.128V102.864H214.408V106.08H213.16V104H206.696V106.08H205.432ZM207.688 102.88H211.768V97.072H208.632V98.576C208.632 99.3867 208.552 100.176 208.392 100.944C208.232 101.701 207.997 102.347 207.688 102.88ZM219.532 104.144C218.742 104.144 218.06 103.979 217.484 103.648C216.908 103.307 216.46 102.827 216.14 102.208C215.82 101.579 215.66 100.832 215.66 99.968C215.66 99.1147 215.82 98.3787 216.14 97.76C216.46 97.1307 216.908 96.6507 217.484 96.32C218.06 95.9787 218.742 95.808 219.532 95.808C220.321 95.808 221.004 95.9787 221.58 96.32C222.166 96.6507 222.614 97.1307 222.924 97.76C223.244 98.3787 223.404 99.1147 223.404 99.968C223.404 100.832 223.244 101.579 222.924 102.208C222.614 102.827 222.166 103.307 221.58 103.648C221.004 103.979 220.321 104.144 219.532 104.144ZM219.532 102.992C220.257 102.992 220.838 102.736 221.276 102.224C221.713 101.712 221.932 100.96 221.932 99.968C221.932 98.976 221.713 98.2293 221.276 97.728C220.838 97.2267 220.257 96.976 219.532 96.976C218.796 96.976 218.209 97.2267 217.772 97.728C217.345 98.2293 217.132 98.976 217.132 99.968C217.132 100.96 217.345 101.712 217.772 102.224C218.209 102.736 218.796 102.992 219.532 102.992ZM233.173 104.144C232.405 104.144 231.669 104.027 230.965 103.792C230.272 103.557 229.69 103.227 229.221 102.8L229.749 101.648C230.272 102.075 230.81 102.384 231.365 102.576C231.92 102.768 232.506 102.864 233.125 102.864C233.946 102.864 234.57 102.693 234.997 102.352C235.424 102 235.637 101.499 235.637 100.848C235.637 100.208 235.418 99.7227 234.981 99.392C234.554 99.0613 233.925 98.896 233.093 98.896H231.365V97.664H232.981C233.685 97.664 234.25 97.4827 234.677 97.12C235.104 96.7573 235.317 96.2613 235.317 95.632C235.317 95.056 235.12 94.6187 234.725 94.32C234.341 94.0107 233.792 93.856 233.077 93.856C231.872 93.856 230.826 94.2773 229.941 95.12L229.413 93.984C229.861 93.536 230.416 93.1893 231.077 92.944C231.738 92.6987 232.437 92.576 233.173 92.576C234.293 92.576 235.173 92.832 235.813 93.344C236.453 93.856 236.773 94.5707 236.773 95.488C236.773 96.1813 236.576 96.7787 236.181 97.28C235.797 97.7707 235.269 98.096 234.597 98.256V98.08C235.386 98.2187 236 98.544 236.437 99.056C236.874 99.5573 237.093 100.187 237.093 100.944C237.093 101.936 236.741 102.72 236.037 103.296C235.344 103.861 234.389 104.144 233.173 104.144ZM246.634 104.144C245.93 104.144 245.311 103.979 244.778 103.648C244.244 103.317 243.828 102.837 243.53 102.208C243.231 101.579 243.082 100.832 243.082 99.968C243.082 99.104 243.231 98.3627 243.53 97.744C243.828 97.1147 244.244 96.6347 244.778 96.304C245.311 95.9733 245.93 95.808 246.634 95.808C247.348 95.808 247.967 95.9893 248.49 96.352C249.023 96.704 249.375 97.1893 249.546 97.808H249.354L249.53 95.952H250.938C250.906 96.272 250.874 96.592 250.842 96.912C250.82 97.232 250.81 97.5467 250.81 97.856V104H249.354V102.16H249.53C249.359 102.768 249.007 103.253 248.474 103.616C247.951 103.968 247.338 104.144 246.634 104.144ZM246.97 102.992C247.695 102.992 248.276 102.736 248.714 102.224C249.151 101.712 249.37 100.96 249.37 99.968C249.37 98.976 249.151 98.2293 248.714 97.728C248.276 97.2267 247.695 96.976 246.97 96.976C246.244 96.976 245.658 97.2267 245.21 97.728C244.772 98.2293 244.554 98.976 244.554 99.968C244.554 100.96 244.772 101.712 245.21 102.224C245.647 102.736 246.234 102.992 246.97 102.992ZM253.373 104V95.952H257.341C258.29 95.952 258.994 96.1333 259.453 96.496C259.922 96.8587 260.157 97.3813 260.157 98.064C260.157 98.576 259.981 99.008 259.629 99.36C259.277 99.7013 258.818 99.9093 258.253 99.984V99.776C258.925 99.7973 259.453 99.9947 259.837 100.368C260.232 100.731 260.429 101.2 260.429 101.776C260.429 102.459 260.168 103.003 259.645 103.408C259.133 103.803 258.413 104 257.485 104H253.373ZM254.749 103.04H257.389C257.933 103.04 258.349 102.928 258.637 102.704C258.925 102.469 259.069 102.139 259.069 101.712C259.069 101.275 258.925 100.944 258.637 100.72C258.349 100.496 257.933 100.384 257.389 100.384H254.749V103.04ZM254.749 99.424H257.213C257.714 99.424 258.104 99.312 258.381 99.088C258.658 98.864 258.797 98.5547 258.797 98.16C258.797 97.7547 258.658 97.4453 258.381 97.232C258.104 97.0187 257.714 96.912 257.213 96.912H254.749V99.424ZM262.389 104V95.952H268.101V97.12H263.845V104H262.389ZM269.368 107.632L269.032 106.448C269.533 106.331 269.949 106.192 270.28 106.032C270.61 105.883 270.888 105.685 271.112 105.44C271.336 105.195 271.533 104.885 271.704 104.512L272.104 103.552L272.072 104.16L268.568 95.952H270.136L272.936 102.848H272.52L275.32 95.952H276.824L273.128 104.624C272.904 105.147 272.658 105.584 272.392 105.936C272.136 106.288 271.853 106.576 271.544 106.8C271.245 107.024 270.914 107.2 270.552 107.328C270.189 107.456 269.794 107.557 269.368 107.632ZM281.69 104.144C280.89 104.144 280.196 103.979 279.61 103.648C279.023 103.307 278.564 102.821 278.234 102.192C277.914 101.552 277.754 100.795 277.754 99.92C277.754 99.056 277.919 98.32 278.25 97.712C278.58 97.0933 279.039 96.624 279.626 96.304C280.212 95.9733 280.9 95.808 281.69 95.808C282.212 95.808 282.719 95.8987 283.21 96.08C283.7 96.2507 284.1 96.5013 284.41 96.832L283.914 97.856C283.604 97.5573 283.263 97.3387 282.89 97.2C282.516 97.0507 282.148 96.976 281.786 96.976C280.996 96.976 280.378 97.232 279.93 97.744C279.482 98.2453 279.258 98.976 279.258 99.936C279.258 100.907 279.482 101.653 279.93 102.176C280.378 102.699 280.996 102.96 281.786 102.96C282.138 102.96 282.5 102.891 282.874 102.752C283.247 102.613 283.594 102.395 283.914 102.096L284.41 103.104C284.09 103.445 283.679 103.707 283.178 103.888C282.687 104.059 282.191 104.144 281.69 104.144ZM288.039 104V97.12H285.143V95.952H292.375V97.12H289.479V104H288.039ZM296.821 104.144C296.117 104.144 295.498 103.979 294.965 103.648C294.432 103.317 294.016 102.837 293.717 102.208C293.418 101.579 293.269 100.832 293.269 99.968C293.269 99.104 293.418 98.3627 293.717 97.744C294.016 97.1147 294.432 96.6347 294.965 96.304C295.498 95.9733 296.117 95.808 296.821 95.808C297.536 95.808 298.154 95.9893 298.677 96.352C299.21 96.704 299.562 97.1893 299.733 97.808H299.541L299.717 95.952H301.125C301.093 96.272 301.061 96.592 301.029 96.912C301.008 97.232 300.997 97.5467 300.997 97.856V104H299.541V102.16H299.717C299.546 102.768 299.194 103.253 298.661 103.616C298.138 103.968 297.525 104.144 296.821 104.144ZM297.157 102.992C297.882 102.992 298.464 102.736 298.901 102.224C299.338 101.712 299.557 100.96 299.557 99.968C299.557 98.976 299.338 98.2293 298.901 97.728C298.464 97.2267 297.882 96.976 297.157 96.976C296.432 96.976 295.845 97.2267 295.397 97.728C294.96 98.2293 294.741 98.976 294.741 99.968C294.741 100.96 294.96 101.712 295.397 102.224C295.834 102.736 296.421 102.992 297.157 102.992Z" fill="#1A1A1A"/>
<path d="M50.352 144.144C49.2213 144.144 48.2507 143.909 47.44 143.44C46.64 142.971 46.0267 142.304 45.6 141.44C45.1733 140.565 44.96 139.536 44.96 138.352C44.96 137.168 45.1733 136.144 45.6 135.28C46.0267 134.416 46.64 133.749 47.44 133.28C48.2507 132.811 49.2213 132.576 50.352 132.576C51.1627 132.576 51.8827 132.699 52.512 132.944C53.1413 133.179 53.6907 133.525 54.16 133.984L53.616 135.184C53.104 134.736 52.5973 134.416 52.096 134.224C51.6053 134.021 51.0347 133.92 50.384 133.92C49.136 133.92 48.1813 134.304 47.52 135.072C46.8587 135.84 46.528 136.933 46.528 138.352C46.528 139.771 46.8587 140.869 47.52 141.648C48.1813 142.416 49.136 142.8 50.384 142.8C51.0347 142.8 51.6053 142.704 52.096 142.512C52.5973 142.309 53.104 141.984 53.616 141.536L54.16 142.72C53.6907 143.179 53.136 143.531 52.496 143.776C51.8667 144.021 51.152 144.144 50.352 144.144ZM55.8171 144.192L55.3051 143.056C55.6785 142.885 55.9878 142.683 56.2331 142.448C56.4891 142.203 56.6865 141.893 56.8251 141.52C56.9745 141.147 57.0811 140.683 57.1451 140.128C57.2091 139.573 57.2411 138.901 57.2411 138.112V135.952H63.1771V144H61.7371V137.088H58.5851V138.144C58.5851 139.381 58.4891 140.405 58.2971 141.216C58.1158 142.016 57.8225 142.651 57.4171 143.12C57.0225 143.589 56.4891 143.947 55.8171 144.192ZM69.3819 144.144C68.1019 144.144 67.0885 143.776 66.3419 143.04C65.6059 142.304 65.2379 141.291 65.2379 140C65.2379 139.147 65.3979 138.411 65.7179 137.792C66.0485 137.163 66.5019 136.677 67.0779 136.336C67.6539 135.984 68.3259 135.808 69.0939 135.808C69.8299 135.808 70.4539 135.968 70.9659 136.288C71.4779 136.597 71.8672 137.04 72.1339 137.616C72.4005 138.192 72.5339 138.875 72.5339 139.664V140.144H66.3739V139.28H71.5419L71.2699 139.488C71.2699 138.656 71.0832 138.011 70.7099 137.552C70.3472 137.093 69.8085 136.864 69.0939 136.864C68.3152 136.864 67.7125 137.136 67.2859 137.68C66.8592 138.213 66.6459 138.944 66.6459 139.872V140.016C66.6459 140.997 66.8859 141.739 67.3659 142.24C67.8565 142.741 68.5339 142.992 69.3979 142.992C69.8779 142.992 70.3259 142.923 70.7419 142.784C71.1579 142.645 71.5579 142.416 71.9419 142.096L72.4219 143.104C72.0592 143.435 71.6059 143.691 71.0619 143.872C70.5285 144.053 69.9685 144.144 69.3819 144.144ZM73.7285 146.08V142.864H74.6085C74.9712 142.32 75.2325 141.68 75.3925 140.944C75.5632 140.208 75.6485 139.333 75.6485 138.32V135.952H81.4245V142.864H82.7045V146.08H81.4565V144H74.9925V146.08H73.7285ZM75.9845 142.88H80.0645V137.072H76.9285V138.576C76.9285 139.387 76.8485 140.176 76.6885 140.944C76.5285 141.701 76.2938 142.347 75.9845 142.88ZM84.1646 147.632L83.8286 146.448C84.33 146.331 84.746 146.192 85.0766 146.032C85.4073 145.883 85.6846 145.685 85.9086 145.44C86.1326 145.195 86.33 144.885 86.5006 144.512L86.9006 143.552L86.8686 144.16L83.3646 135.952H84.9326L87.7326 142.848H87.3166L90.1166 135.952H91.6206L87.9246 144.624C87.7006 145.147 87.4553 145.584 87.1886 145.936C86.9326 146.288 86.65 146.576 86.3406 146.8C86.042 147.024 85.7113 147.2 85.3486 147.328C84.986 147.456 84.5913 147.557 84.1646 147.632ZM99.9078 144.144C98.8091 144.144 97.9184 143.819 97.2358 143.168C96.5638 142.507 96.1798 141.595 96.0838 140.432H94.5158V144H93.0918V135.952H94.5158V139.28H96.0998C96.2384 138.192 96.6438 137.344 97.3158 136.736C97.9878 136.117 98.8518 135.808 99.9078 135.808C100.697 135.808 101.38 135.973 101.956 136.304C102.542 136.635 102.996 137.115 103.316 137.744C103.636 138.363 103.796 139.104 103.796 139.968C103.796 140.832 103.636 141.579 103.316 142.208C102.996 142.827 102.542 143.307 101.956 143.648C101.38 143.979 100.697 144.144 99.9078 144.144ZM99.9078 142.992C100.644 142.992 101.23 142.741 101.668 142.24C102.105 141.728 102.324 140.971 102.324 139.968C102.324 138.976 102.105 138.229 101.668 137.728C101.23 137.216 100.644 136.96 99.9078 136.96C99.1718 136.96 98.5851 137.216 98.1478 137.728C97.7104 138.229 97.4918 138.976 97.4918 139.968C97.4918 140.971 97.7104 141.728 98.1478 142.24C98.5851 142.741 99.1718 142.992 99.9078 142.992ZM116.577 146.08V144H105.857V135.952H107.233V142.864H110.513V135.952H111.889V142.864H115.153V135.952H116.545V142.864H117.809V146.08H116.577ZM123.194 144.144C121.914 144.144 120.901 143.776 120.154 143.04C119.418 142.304 119.05 141.291 119.05 140C119.05 139.147 119.21 138.411 119.53 137.792C119.861 137.163 120.314 136.677 120.89 136.336C121.466 135.984 122.138 135.808 122.906 135.808C123.642 135.808 124.266 135.968 124.778 136.288C125.29 136.597 125.68 137.04 125.946 137.616C126.213 138.192 126.346 138.875 126.346 139.664V140.144H120.186V139.28H125.354L125.082 139.488C125.082 138.656 124.896 138.011 124.522 137.552C124.16 137.093 123.621 136.864 122.906 136.864C122.128 136.864 121.525 137.136 121.098 137.68C120.672 138.213 120.458 138.944 120.458 139.872V140.016C120.458 140.997 120.698 141.739 121.178 142.24C121.669 142.741 122.346 142.992 123.21 142.992C123.69 142.992 124.138 142.923 124.554 142.784C124.97 142.645 125.37 142.416 125.754 142.096L126.234 143.104C125.872 143.435 125.418 143.691 124.874 143.872C124.341 144.053 123.781 144.144 123.194 144.144ZM132.085 144.144C130.805 144.144 129.792 143.776 129.045 143.04C128.309 142.304 127.941 141.291 127.941 140C127.941 139.147 128.101 138.411 128.421 137.792C128.752 137.163 129.205 136.677 129.781 136.336C130.357 135.984 131.029 135.808 131.797 135.808C132.533 135.808 133.157 135.968 133.669 136.288C134.181 136.597 134.57 137.04 134.837 137.616C135.104 138.192 135.237 138.875 135.237 139.664V140.144H129.077V139.28H134.245L133.973 139.488C133.973 138.656 133.786 138.011 133.413 137.552C133.05 137.093 132.512 136.864 131.797 136.864C131.018 136.864 130.416 137.136 129.989 137.68C129.562 138.213 129.349 138.944 129.349 139.872V140.016C129.349 140.997 129.589 141.739 130.069 142.24C130.56 142.741 131.237 142.992 132.101 142.992C132.581 142.992 133.029 142.923 133.445 142.784C133.861 142.645 134.261 142.416 134.645 142.096L135.125 143.104C134.762 143.435 134.309 143.691 133.765 143.872C133.232 144.053 132.672 144.144 132.085 144.144ZM144.986 144.144C144.186 144.144 143.493 143.979 142.906 143.648C142.32 143.307 141.861 142.821 141.53 142.192C141.21 141.552 141.05 140.795 141.05 139.92C141.05 139.056 141.216 138.32 141.546 137.712C141.877 137.093 142.336 136.624 142.922 136.304C143.509 135.973 144.197 135.808 144.986 135.808C145.509 135.808 146.016 135.899 146.506 136.08C146.997 136.251 147.397 136.501 147.706 136.832L147.21 137.856C146.901 137.557 146.56 137.339 146.186 137.2C145.813 137.051 145.445 136.976 145.082 136.976C144.293 136.976 143.674 137.232 143.226 137.744C142.778 138.245 142.554 138.976 142.554 139.936C142.554 140.907 142.778 141.653 143.226 142.176C143.674 142.699 144.293 142.96 145.082 142.96C145.434 142.96 145.797 142.891 146.17 142.752C146.544 142.613 146.89 142.395 147.21 142.096L147.706 143.104C147.386 143.445 146.976 143.707 146.474 143.888C145.984 144.059 145.488 144.144 144.986 144.144ZM149.607 144V135.952H156.695V144H155.255V137.088H151.047V144H149.607ZM159.186 144V135.952H160.514V142.624H160.082L165.074 135.952H166.29V144H164.962V137.312H165.41L160.402 144H159.186ZM172.283 144.144C171.483 144.144 170.79 143.979 170.203 143.648C169.617 143.307 169.158 142.821 168.827 142.192C168.507 141.552 168.347 140.795 168.347 139.92C168.347 139.056 168.513 138.32 168.843 137.712C169.174 137.093 169.633 136.624 170.219 136.304C170.806 135.973 171.494 135.808 172.283 135.808C172.806 135.808 173.313 135.899 173.803 136.08C174.294 136.251 174.694 136.501 175.003 136.832L174.507 137.856C174.198 137.557 173.857 137.339 173.483 137.2C173.11 137.051 172.742 136.976 172.379 136.976C171.59 136.976 170.971 137.232 170.523 137.744C170.075 138.245 169.851 138.976 169.851 139.936C169.851 140.907 170.075 141.653 170.523 142.176C170.971 142.699 171.59 142.96 172.379 142.96C172.731 142.96 173.094 142.891 173.467 142.752C173.841 142.613 174.187 142.395 174.507 142.096L175.003 143.104C174.683 143.445 174.273 143.707 173.771 143.888C173.281 144.059 172.785 144.144 172.283 144.144ZM180.024 144.144C179.32 144.144 178.702 143.979 178.168 143.648C177.635 143.317 177.219 142.837 176.92 142.208C176.622 141.579 176.472 140.832 176.472 139.968C176.472 139.104 176.622 138.363 176.92 137.744C177.219 137.115 177.635 136.635 178.168 136.304C178.702 135.973 179.32 135.808 180.024 135.808C180.739 135.808 181.358 135.989 181.88 136.352C182.414 136.704 182.766 137.189 182.936 137.808H182.744L182.92 135.952H184.328C184.296 136.272 184.264 136.592 184.232 136.912C184.211 137.232 184.2 137.547 184.2 137.856V144H182.744V142.16H182.92C182.75 142.768 182.398 143.253 181.864 143.616C181.342 143.968 180.728 144.144 180.024 144.144ZM180.36 142.992C181.086 142.992 181.667 142.736 182.104 142.224C182.542 141.712 182.76 140.96 182.76 139.968C182.76 138.976 182.542 138.229 182.104 137.728C181.667 137.227 181.086 136.976 180.36 136.976C179.635 136.976 179.048 137.227 178.6 137.728C178.163 138.229 177.944 138.976 177.944 139.968C177.944 140.96 178.163 141.712 178.6 142.224C179.038 142.736 179.624 142.992 180.36 142.992ZM186.764 144V135.952H188.204V139.28H192.46V135.952H193.9V144H192.46V140.432H188.204V144H186.764ZM196.389 144V135.952H197.717V142.624H197.285L202.277 135.952H203.493V144H202.165V137.312H202.613L197.605 144H196.389ZM209.694 144.144C208.414 144.144 207.401 143.776 206.654 143.04C205.918 142.304 205.55 141.291 205.55 140C205.55 139.147 205.71 138.411 206.03 137.792C206.361 137.163 206.814 136.677 207.39 136.336C207.966 135.984 208.638 135.808 209.406 135.808C210.142 135.808 210.766 135.968 211.278 136.288C211.79 136.597 212.18 137.04 212.446 137.616C212.713 138.192 212.846 138.875 212.846 139.664V140.144H206.686V139.28H211.854L211.582 139.488C211.582 138.656 211.396 138.011 211.022 137.552C210.66 137.093 210.121 136.864 209.406 136.864C208.628 136.864 208.025 137.136 207.598 137.68C207.172 138.213 206.958 138.944 206.958 139.872V140.016C206.958 140.997 207.198 141.739 207.678 142.24C208.169 142.741 208.846 142.992 209.71 142.992C210.19 142.992 210.638 142.923 211.054 142.784C211.47 142.645 211.87 142.416 212.254 142.096L212.734 143.104C212.372 143.435 211.918 143.691 211.374 143.872C210.841 144.053 210.281 144.144 209.694 144.144ZM222.596 144.144C221.796 144.144 221.102 143.979 220.516 143.648C219.929 143.307 219.47 142.821 219.14 142.192C218.82 141.552 218.66 140.795 218.66 139.92C218.66 139.056 218.825 138.32 219.156 137.712C219.486 137.093 219.945 136.624 220.532 136.304C221.118 135.973 221.806 135.808 222.596 135.808C223.118 135.808 223.625 135.899 224.116 136.08C224.606 136.251 225.006 136.501 225.316 136.832L224.82 137.856C224.51 137.557 224.169 137.339 223.796 137.2C223.422 137.051 223.054 136.976 222.692 136.976C221.902 136.976 221.284 137.232 220.836 137.744C220.388 138.245 220.164 138.976 220.164 139.936C220.164 140.907 220.388 141.653 220.836 142.176C221.284 142.699 221.902 142.96 222.692 142.96C223.044 142.96 223.406 142.891 223.78 142.752C224.153 142.613 224.5 142.395 224.82 142.096L225.316 143.104C224.996 143.445 224.585 143.707 224.084 143.888C223.593 144.059 223.097 144.144 222.596 144.144ZM227.265 147.456V137.856C227.265 137.547 227.254 137.232 227.233 136.912C227.211 136.592 227.179 136.272 227.137 135.952H228.545L228.721 137.808H228.545C228.705 137.189 229.046 136.704 229.569 136.352C230.091 135.989 230.715 135.808 231.441 135.808C232.155 135.808 232.779 135.973 233.313 136.304C233.846 136.635 234.257 137.115 234.545 137.744C234.843 138.363 234.993 139.104 234.993 139.968C234.993 140.832 234.843 141.579 234.545 142.208C234.257 142.837 233.846 143.317 233.313 143.648C232.779 143.979 232.155 144.144 231.441 144.144C230.726 144.144 230.107 143.968 229.585 143.616C229.073 143.253 228.726 142.768 228.545 142.16H228.721V147.456H227.265ZM231.105 142.992C231.841 142.992 232.427 142.736 232.865 142.224C233.302 141.712 233.521 140.96 233.521 139.968C233.521 138.976 233.302 138.229 232.865 137.728C232.427 137.227 231.841 136.976 231.105 136.976C230.369 136.976 229.782 137.227 229.345 137.728C228.918 138.229 228.705 138.976 228.705 139.968C228.705 140.96 228.918 141.712 229.345 142.224C229.782 142.736 230.369 142.992 231.105 142.992ZM240.788 144.144C239.508 144.144 238.495 143.776 237.748 143.04C237.012 142.304 236.644 141.291 236.644 140C236.644 139.147 236.804 138.411 237.124 137.792C237.455 137.163 237.908 136.677 238.484 136.336C239.06 135.984 239.732 135.808 240.5 135.808C241.236 135.808 241.86 135.968 242.372 136.288C242.884 136.597 243.273 137.04 243.54 137.616C243.807 138.192 243.94 138.875 243.94 139.664V140.144H237.78V139.28H242.948L242.676 139.488C242.676 138.656 242.489 138.011 242.116 137.552C241.753 137.093 241.215 136.864 240.5 136.864C239.721 136.864 239.119 137.136 238.692 137.68C238.265 138.213 238.052 138.944 238.052 139.872V140.016C238.052 140.997 238.292 141.739 238.772 142.24C239.263 142.741 239.94 142.992 240.804 142.992C241.284 142.992 241.732 142.923 242.148 142.784C242.564 142.645 242.964 142.416 243.348 142.096L243.828 143.104C243.465 143.435 243.012 143.691 242.468 143.872C241.935 144.053 241.375 144.144 240.788 144.144ZM245.135 146.08V142.864H246.015C246.377 142.32 246.639 141.68 246.799 140.944C246.969 140.208 247.055 139.333 247.055 138.32V135.952H252.831V142.864H254.111V146.08H252.863V144H246.399V146.08H245.135ZM247.391 142.88H251.471V137.072H248.335V138.576C248.335 139.387 248.255 140.176 248.095 140.944C247.935 141.701 247.7 142.347 247.391 142.88ZM259.299 144.144C258.499 144.144 257.806 143.979 257.219 143.648C256.632 143.307 256.174 142.821 255.843 142.192C255.523 141.552 255.363 140.795 255.363 139.92C255.363 139.056 255.528 138.32 255.859 137.712C256.19 137.093 256.648 136.624 257.235 136.304C257.822 135.973 258.51 135.808 259.299 135.808C259.822 135.808 260.328 135.899 260.819 136.08C261.31 136.251 261.71 136.501 262.019 136.832L261.523 137.856C261.214 137.557 260.872 137.339 260.499 137.2C260.126 137.051 259.758 136.976 259.395 136.976C258.606 136.976 257.987 137.232 257.539 137.744C257.091 138.245 256.867 138.976 256.867 139.936C256.867 140.907 257.091 141.653 257.539 142.176C257.987 142.699 258.606 142.96 259.395 142.96C259.747 142.96 260.11 142.891 260.483 142.752C260.856 142.613 261.203 142.395 261.523 142.096L262.019 143.104C261.699 143.445 261.288 143.707 260.787 143.888C260.296 144.059 259.8 144.144 259.299 144.144ZM265.648 144V137.12H262.752V135.952H269.984V137.12H267.088V144H265.648ZM271.311 144V135.952H275.279C276.228 135.952 276.932 136.133 277.391 136.496C277.86 136.859 278.095 137.381 278.095 138.064C278.095 138.576 277.919 139.008 277.567 139.36C277.215 139.701 276.756 139.909 276.191 139.984V139.776C276.863 139.797 277.391 139.995 277.775 140.368C278.169 140.731 278.367 141.2 278.367 141.776C278.367 142.459 278.105 143.003 277.583 143.408C277.071 143.803 276.351 144 275.423 144H271.311ZM272.687 143.04H275.327C275.871 143.04 276.287 142.928 276.575 142.704C276.863 142.469 277.007 142.139 277.007 141.712C277.007 141.275 276.863 140.944 276.575 140.72C276.287 140.496 275.871 140.384 275.327 140.384H272.687V143.04ZM272.687 139.424H275.151C275.652 139.424 276.041 139.312 276.319 139.088C276.596 138.864 276.735 138.555 276.735 138.16C276.735 137.755 276.596 137.445 276.319 137.232C276.041 137.019 275.652 136.912 275.151 136.912H272.687V139.424ZM289.361 144V141.616H284.065V140.544L289.601 132.72H290.817V140.432H292.513V141.616H290.817V144H289.361ZM289.361 140.432V134.48H289.729L285.265 140.784V140.432H289.361ZM301.477 144.144C300.773 144.144 300.155 143.979 299.621 143.648C299.088 143.317 298.672 142.837 298.373 142.208C298.075 141.579 297.925 140.832 297.925 139.968C297.925 139.104 298.075 138.363 298.373 137.744C298.672 137.115 299.088 136.635 299.621 136.304C300.155 135.973 300.773 135.808 301.477 135.808C302.192 135.808 302.811 135.989 303.333 136.352C303.867 136.704 304.219 137.189 304.389 137.808H304.197L304.373 135.952H305.781C305.749 136.272 305.717 136.592 305.685 136.912C305.664 137.232 305.653 137.547 305.653 137.856V144H304.197V142.16H304.373C304.203 142.768 303.851 143.253 303.317 143.616C302.795 143.968 302.181 144.144 301.477 144.144ZM301.813 142.992C302.539 142.992 303.12 142.736 303.557 142.224C303.995 141.712 304.213 140.96 304.213 139.968C304.213 138.976 303.995 138.229 303.557 137.728C303.12 137.227 302.539 136.976 301.813 136.976C301.088 136.976 300.501 137.227 300.053 137.728C299.616 138.229 299.397 138.976 299.397 139.968C299.397 140.96 299.616 141.712 300.053 142.224C300.491 142.736 301.077 142.992 301.813 142.992ZM308.217 144V135.952H312.185C313.134 135.952 313.838 136.133 314.297 136.496C314.766 136.859 315.001 137.381 315.001 138.064C315.001 138.576 314.825 139.008 314.473 139.36C314.121 139.701 313.662 139.909 313.097 139.984V139.776C313.769 139.797 314.297 139.995 314.681 140.368C315.075 140.731 315.273 141.2 315.273 141.776C315.273 142.459 315.011 143.003 314.489 143.408C313.977 143.803 313.257 144 312.329 144H308.217ZM309.593 143.04H312.233C312.777 143.04 313.193 142.928 313.481 142.704C313.769 142.469 313.913 142.139 313.913 141.712C313.913 141.275 313.769 140.944 313.481 140.72C313.193 140.496 312.777 140.384 312.233 140.384H309.593V143.04ZM309.593 139.424H312.057C312.558 139.424 312.947 139.312 313.225 139.088C313.502 138.864 313.641 138.555 313.641 138.16C313.641 137.755 313.502 137.445 313.225 137.232C312.947 137.019 312.558 136.912 312.057 136.912H309.593V139.424ZM317.232 144V135.952H322.944V137.12H318.688V144H317.232ZM324.212 147.632L323.876 146.448C324.377 146.331 324.793 146.192 325.124 146.032C325.454 145.883 325.732 145.685 325.956 145.44C326.18 145.195 326.377 144.885 326.548 144.512L326.948 143.552L326.916 144.16L323.412 135.952H324.98L327.78 142.848H327.364L330.164 135.952H331.668L327.972 144.624C327.748 145.147 327.502 145.584 327.236 145.936C326.98 146.288 326.697 146.576 326.388 146.8C326.089 147.024 325.758 147.2 325.396 147.328C325.033 147.456 324.638 147.557 324.212 147.632ZM336.533 144.144C335.733 144.144 335.04 143.979 334.453 143.648C333.867 143.307 333.408 142.821 333.077 142.192C332.757 141.552 332.597 140.795 332.597 139.92C332.597 139.056 332.763 138.32 333.093 137.712C333.424 137.093 333.883 136.624 334.469 136.304C335.056 135.973 335.744 135.808 336.533 135.808C337.056 135.808 337.563 135.899 338.053 136.08C338.544 136.251 338.944 136.501 339.253 136.832L338.757 137.856C338.448 137.557 338.107 137.339 337.733 137.2C337.36 137.051 336.992 136.976 336.629 136.976C335.84 136.976 335.221 137.232 334.773 137.744C334.325 138.245 334.101 138.976 334.101 139.936C334.101 140.907 334.325 141.653 334.773 142.176C335.221 142.699 335.84 142.96 336.629 142.96C336.981 142.96 337.344 142.891 337.717 142.752C338.091 142.613 338.437 142.395 338.757 142.096L339.253 143.104C338.933 143.445 338.523 143.707 338.021 143.888C337.531 144.059 337.035 144.144 336.533 144.144ZM342.882 144V137.12H339.986V135.952H347.218V137.12H344.322V144H342.882ZM351.665 144.144C350.961 144.144 350.342 143.979 349.809 143.648C349.276 143.317 348.86 142.837 348.561 142.208C348.262 141.579 348.113 140.832 348.113 139.968C348.113 139.104 348.262 138.363 348.561 137.744C348.86 137.115 349.276 136.635 349.809 136.304C350.342 135.973 350.961 135.808 351.665 135.808C352.38 135.808 352.998 135.989 353.521 136.352C354.054 136.704 354.406 137.189 354.577 137.808H354.385L354.561 135.952H355.969C355.937 136.272 355.905 136.592 355.873 136.912C355.852 137.232 355.841 137.547 355.841 137.856V144H354.385V142.16H354.561C354.39 142.768 354.038 143.253 353.505 143.616C352.982 143.968 352.369 144.144 351.665 144.144ZM352.001 142.992C352.726 142.992 353.308 142.736 353.745 142.224C354.182 141.712 354.401 140.96 354.401 139.968C354.401 138.976 354.182 138.229 353.745 137.728C353.308 137.227 352.726 136.976 352.001 136.976C351.276 136.976 350.689 137.227 350.241 137.728C349.804 138.229 349.585 138.976 349.585 139.968C349.585 140.96 349.804 141.712 350.241 142.224C350.678 142.736 351.265 142.992 352.001 142.992Z" fill="#8C8C8C"/>
<path d="M44 168H640" stroke="#E8E8E8"/>
<path d="M44 204L56 192" stroke="#8C8C8C" stroke-width="1.5"/>
<path d="M56 204L44 192" stroke="#8C8C8C" stroke-width="1.5"/>
<path d="M64.96 198.352C64.96 197.168 65.168 196.144 65.584 195.28C66 194.416 66.5973 193.749 67.376 193.28C68.1653 192.811 69.104 192.576 70.192 192.576C71.2693 192.576 72.1973 192.811 72.976 193.28C73.7653 193.749 74.3733 194.416 74.8 195.28C75.2267 196.144 75.44 197.163 75.44 198.336C75.44 199.52 75.2267 200.549 74.8 201.424C74.3733 202.288 73.7653 202.96 72.976 203.44C72.1973 203.909 71.2693 204.144 70.192 204.144C69.104 204.144 68.1707 203.909 67.392 203.44C66.6133 202.96 66.0107 202.288 65.584 201.424C65.168 200.549 64.96 199.525 64.96 198.352ZM66.528 198.352C66.528 199.76 66.8373 200.859 67.456 201.648C68.0747 202.437 68.9867 202.832 70.192 202.832C71.3547 202.832 72.256 202.443 72.896 201.664C73.5467 200.875 73.872 199.771 73.872 198.352C73.872 196.933 73.552 195.835 72.912 195.056C72.272 194.277 71.3653 193.888 70.192 193.888C68.9867 193.888 68.0747 194.277 67.456 195.056C66.8373 195.835 66.528 196.933 66.528 198.352ZM79.3979 204V197.12H76.5019V195.952H83.7339V197.12H80.8379V204H79.3979ZM85.0605 204V195.952H86.5005V199.28H87.9565L90.5485 195.952H92.1325L89.1245 199.872L88.7405 199.424C89.0498 199.456 89.3165 199.536 89.5405 199.664C89.7645 199.781 89.9778 199.957 90.1805 200.192C90.3938 200.427 90.6232 200.741 90.8685 201.136L92.5325 204H90.9645L89.5085 201.52C89.3485 201.232 89.1885 201.008 89.0285 200.848C88.8685 200.688 88.6872 200.576 88.4845 200.512C88.2925 200.448 88.0472 200.416 87.7485 200.416H86.5005V204H85.0605ZM96.8993 204.144C96.1953 204.144 95.5766 203.979 95.0433 203.648C94.5099 203.317 94.0939 202.837 93.7953 202.208C93.4966 201.579 93.3473 200.832 93.3473 199.968C93.3473 199.104 93.4966 198.363 93.7953 197.744C94.0939 197.115 94.5099 196.635 95.0433 196.304C95.5766 195.973 96.1953 195.808 96.8993 195.808C97.6139 195.808 98.2326 195.989 98.7553 196.352C99.2886 196.704 99.6406 197.189 99.8113 197.808H99.6193L99.7953 195.952H101.203C101.171 196.272 101.139 196.592 101.107 196.912C101.086 197.232 101.075 197.547 101.075 197.856V204H99.6193V202.16H99.7953C99.6246 202.768 99.2726 203.253 98.7393 203.616C98.2166 203.968 97.6033 204.144 96.8993 204.144ZM97.2352 202.992C97.9606 202.992 98.5419 202.736 98.9793 202.224C99.4166 201.712 99.6353 200.96 99.6353 199.968C99.6353 198.976 99.4166 198.229 98.9793 197.728C98.5419 197.227 97.9606 196.976 97.2352 196.976C96.5099 196.976 95.9233 197.227 95.4753 197.728C95.0379 198.229 94.8193 198.976 94.8193 199.968C94.8193 200.96 95.0379 201.712 95.4753 202.224C95.9126 202.736 96.4993 202.992 97.2352 202.992ZM106.375 204.144C105.671 204.144 105.015 204.053 104.407 203.872C103.799 203.691 103.297 203.435 102.903 203.104L103.383 202.096C103.777 202.416 104.225 202.656 104.727 202.816C105.228 202.976 105.772 203.056 106.359 203.056C107.127 203.056 107.681 202.944 108.023 202.72C108.375 202.485 108.551 202.149 108.551 201.712C108.551 201.296 108.407 200.981 108.119 200.768C107.831 200.555 107.409 200.448 106.855 200.448H104.903V199.392H106.679C107.18 199.392 107.569 199.285 107.847 199.072C108.135 198.848 108.279 198.544 108.279 198.16C108.279 197.765 108.119 197.456 107.799 197.232C107.479 196.997 106.988 196.88 106.327 196.88C105.772 196.88 105.265 196.955 104.807 197.104C104.348 197.243 103.911 197.456 103.495 197.744L103.031 196.8C103.468 196.459 103.98 196.208 104.567 196.048C105.153 195.888 105.793 195.808 106.487 195.808C107.5 195.808 108.273 196.005 108.807 196.4C109.351 196.784 109.623 197.333 109.623 198.048C109.623 198.549 109.452 198.981 109.111 199.344C108.769 199.696 108.316 199.909 107.751 199.984V199.776C108.391 199.808 108.908 200.005 109.303 200.368C109.697 200.72 109.895 201.189 109.895 201.776C109.895 202.491 109.596 203.067 108.999 203.504C108.401 203.931 107.527 204.144 106.375 204.144ZM114.962 204.144C114.258 204.144 113.639 203.979 113.106 203.648C112.572 203.317 112.156 202.837 111.858 202.208C111.559 201.579 111.41 200.832 111.41 199.968C111.41 199.104 111.559 198.363 111.858 197.744C112.156 197.115 112.572 196.635 113.106 196.304C113.639 195.973 114.258 195.808 114.962 195.808C115.676 195.808 116.295 195.989 116.818 196.352C117.351 196.704 117.703 197.189 117.874 197.808H117.682L117.858 195.952H119.266C119.234 196.272 119.202 196.592 119.17 196.912C119.148 197.232 119.138 197.547 119.138 197.856V204H117.682V202.16H117.858C117.687 202.768 117.335 203.253 116.802 203.616C116.279 203.968 115.666 204.144 114.962 204.144ZM115.298 202.992C116.023 202.992 116.604 202.736 117.042 202.224C117.479 201.712 117.698 200.96 117.698 199.968C117.698 198.976 117.479 198.229 117.042 197.728C116.604 197.227 116.023 196.976 115.298 196.976C114.572 196.976 113.986 197.227 113.538 197.728C113.1 198.229 112.882 198.976 112.882 199.968C112.882 200.96 113.1 201.712 113.538 202.224C113.975 202.736 114.562 202.992 115.298 202.992ZM123.429 204V197.12H120.533V195.952H127.765V197.12H124.869V204H123.429ZM129.092 204V195.952H130.532V198.8H132.9C133.945 198.8 134.729 199.024 135.252 199.472C135.785 199.909 136.052 200.544 136.052 201.376C136.052 201.909 135.929 202.373 135.684 202.768C135.438 203.163 135.081 203.467 134.612 203.68C134.142 203.893 133.572 204 132.9 204H129.092ZM130.532 202.992H132.74C133.369 202.992 133.849 202.864 134.18 202.608C134.51 202.341 134.676 201.936 134.676 201.392C134.676 200.848 134.51 200.448 134.18 200.192C133.86 199.936 133.38 199.808 132.74 199.808H130.532V202.992ZM141.424 204.144C140.624 204.144 139.931 203.979 139.344 203.648C138.757 203.307 138.299 202.821 137.968 202.192C137.648 201.552 137.488 200.795 137.488 199.92C137.488 199.056 137.653 198.32 137.984 197.712C138.315 197.093 138.773 196.624 139.36 196.304C139.947 195.973 140.635 195.808 141.424 195.808C141.947 195.808 142.453 195.899 142.944 196.08C143.435 196.251 143.835 196.501 144.144 196.832L143.648 197.856C143.339 197.557 142.997 197.339 142.624 197.2C142.251 197.051 141.883 196.976 141.52 196.976C140.731 196.976 140.112 197.232 139.664 197.744C139.216 198.245 138.992 198.976 138.992 199.936C138.992 200.907 139.216 201.653 139.664 202.176C140.112 202.699 140.731 202.96 141.52 202.96C141.872 202.96 142.235 202.891 142.608 202.752C142.981 202.613 143.328 202.395 143.648 202.096L144.144 203.104C143.824 203.445 143.413 203.707 142.912 203.888C142.421 204.059 141.925 204.144 141.424 204.144ZM145.405 204L146.669 201.808C146.872 201.456 147.128 201.173 147.437 200.96C147.746 200.736 148.072 200.624 148.413 200.624H148.669L148.653 200.768C147.746 200.768 147.037 200.565 146.525 200.16C146.013 199.744 145.757 199.147 145.757 198.368C145.757 197.6 146.008 197.008 146.509 196.592C147.01 196.165 147.757 195.952 148.749 195.952H152.413V204H151.069V200.96H149.917C149.501 200.96 149.144 201.067 148.845 201.28C148.546 201.483 148.301 201.755 148.109 202.096L147.021 204H145.405ZM149.005 199.952H151.069V196.944H149.005C148.376 196.944 147.906 197.077 147.597 197.344C147.298 197.611 147.149 197.979 147.149 198.448C147.149 198.928 147.298 199.301 147.597 199.568C147.906 199.824 148.376 199.952 149.005 199.952ZM162.563 204.144C161.774 204.144 161.091 203.979 160.515 203.648C159.939 203.307 159.491 202.827 159.171 202.208C158.851 201.579 158.691 200.832 158.691 199.968C158.691 199.115 158.851 198.379 159.171 197.76C159.491 197.131 159.939 196.651 160.515 196.32C161.091 195.979 161.774 195.808 162.563 195.808C163.352 195.808 164.035 195.979 164.611 196.32C165.198 196.651 165.646 197.131 165.955 197.76C166.275 198.379 166.435 199.115 166.435 199.968C166.435 200.832 166.275 201.579 165.955 202.208C165.646 202.827 165.198 203.307 164.611 203.648C164.035 203.979 163.352 204.144 162.563 204.144ZM162.563 202.992C163.288 202.992 163.87 202.736 164.307 202.224C164.744 201.712 164.963 200.96 164.963 199.968C164.963 198.976 164.744 198.229 164.307 197.728C163.87 197.227 163.288 196.976 162.563 196.976C161.827 196.976 161.24 197.227 160.803 197.728C160.376 198.229 160.163 198.976 160.163 199.968C160.163 200.96 160.376 201.712 160.803 202.224C161.24 202.736 161.827 202.992 162.563 202.992ZM170.242 204V197.12H167.346V195.952H174.578V197.12H171.682V204H170.242ZM180.123 204V195.952H187.211V204H185.771V197.088H181.563V204H180.123ZM193.141 204.144C192.352 204.144 191.669 203.979 191.093 203.648C190.517 203.307 190.069 202.827 189.749 202.208C189.429 201.579 189.269 200.832 189.269 199.968C189.269 199.115 189.429 198.379 189.749 197.76C190.069 197.131 190.517 196.651 191.093 196.32C191.669 195.979 192.352 195.808 193.141 195.808C193.93 195.808 194.613 195.979 195.189 196.32C195.776 196.651 196.224 197.131 196.533 197.76C196.853 198.379 197.013 199.115 197.013 199.968C197.013 200.832 196.853 201.579 196.533 202.208C196.224 202.827 195.776 203.307 195.189 203.648C194.613 203.979 193.93 204.144 193.141 204.144ZM193.141 202.992C193.866 202.992 194.448 202.736 194.885 202.224C195.322 201.712 195.541 200.96 195.541 199.968C195.541 198.976 195.322 198.229 194.885 197.728C194.448 197.227 193.866 196.976 193.141 196.976C192.405 196.976 191.818 197.227 191.381 197.728C190.954 198.229 190.741 198.976 190.741 199.968C190.741 200.96 190.954 201.712 191.381 202.224C191.818 202.736 192.405 202.992 193.141 202.992ZM198.26 206.08V202.864H199.14C199.502 202.32 199.764 201.68 199.924 200.944C200.094 200.208 200.18 199.333 200.18 198.32V195.952H205.956V202.864H207.236V206.08H205.988V204H199.524V206.08H198.26ZM200.516 202.88H204.596V197.072H201.46V198.576C201.46 199.387 201.38 200.176 201.22 200.944C201.06 201.701 200.825 202.347 200.516 202.88ZM208.92 204V195.952H216.008V204H214.568V197.088H210.36V204H208.92ZM218.498 204V195.952H219.826V202.624H219.394L224.386 195.952H225.602V204H224.274V197.312H224.722L219.714 204H218.498ZM231.596 204.144C230.796 204.144 230.102 203.979 229.516 203.648C228.929 203.307 228.47 202.821 228.14 202.192C227.82 201.552 227.66 200.795 227.66 199.92C227.66 199.056 227.825 198.32 228.156 197.712C228.486 197.093 228.945 196.624 229.532 196.304C230.118 195.973 230.806 195.808 231.596 195.808C232.118 195.808 232.625 195.899 233.116 196.08C233.606 196.251 234.006 196.501 234.316 196.832L233.82 197.856C233.51 197.557 233.169 197.339 232.796 197.2C232.422 197.051 232.054 196.976 231.692 196.976C230.902 196.976 230.284 197.232 229.836 197.744C229.388 198.245 229.164 198.976 229.164 199.936C229.164 200.907 229.388 201.653 229.836 202.176C230.284 202.699 230.902 202.96 231.692 202.96C232.044 202.96 232.406 202.891 232.78 202.752C233.153 202.613 233.5 202.395 233.82 202.096L234.316 203.104C233.996 203.445 233.585 203.707 233.084 203.888C232.593 204.059 232.097 204.144 231.596 204.144ZM236.217 204V195.952H237.657V199.28H239.113L241.705 195.952H243.289L240.281 199.872L239.897 199.424C240.206 199.456 240.473 199.536 240.697 199.664C240.921 199.781 241.134 199.957 241.337 200.192C241.55 200.427 241.779 200.741 242.025 201.136L243.689 204H242.121L240.665 201.52C240.505 201.232 240.345 201.008 240.185 200.848C240.025 200.688 239.843 200.576 239.641 200.512C239.449 200.448 239.203 200.416 238.905 200.416H237.657V204H236.217ZM244.936 204V195.952H246.264V202.624H245.832L250.824 195.952H252.04V204H250.712V197.312H251.16L246.152 204H244.936Z" fill="#8C8C8C"/>
</g>
<g filter="url(#filter1_d_3011_14137)">
<rect x="684" y="20" width="644" height="212" rx="16" fill="white" shape-rendering="crispEdges"/>
<rect x="708" y="46" width="60" height="60" rx="8.10135" fill="#0069FF"/>
<path d="M738.042 85.24C736.682 85.24 735.426 85.072 734.274 84.736C733.138 84.384 732.162 83.904 731.346 83.296L732.306 80.872C732.85 81.256 733.418 81.584 734.01 81.856C734.602 82.112 735.234 82.312 735.906 82.456C736.578 82.584 737.29 82.648 738.042 82.648C739.306 82.648 740.218 82.44 740.778 82.024C741.338 81.608 741.618 81.064 741.618 80.392C741.618 79.8 741.426 79.352 741.042 79.048C740.658 78.728 739.97 78.464 738.978 78.256L736.266 77.704C734.714 77.384 733.554 76.848 732.786 76.096C732.018 75.344 731.634 74.336 731.634 73.072C731.634 72.016 731.914 71.096 732.474 70.312C733.034 69.528 733.818 68.92 734.826 68.488C735.834 68.056 737.01 67.84 738.354 67.84C739.554 67.84 740.666 68.016 741.69 68.368C742.714 68.704 743.57 69.192 744.258 69.832L743.298 72.136C742.61 71.56 741.858 71.136 741.042 70.864C740.226 70.576 739.314 70.432 738.306 70.432C737.17 70.432 736.282 70.656 735.642 71.104C735.018 71.536 734.706 72.136 734.706 72.904C734.706 73.496 734.898 73.968 735.282 74.32C735.682 74.672 736.354 74.944 737.298 75.136L739.986 75.664C741.586 75.984 742.77 76.512 743.538 77.248C744.306 77.968 744.69 78.944 744.69 80.176C744.69 81.184 744.418 82.072 743.874 82.84C743.33 83.592 742.562 84.184 741.57 84.616C740.578 85.032 739.402 85.24 738.042 85.24Z" fill="white"/>
<path d="M785.872 71V54.08H800.68V71H797.608V56.6H788.92V71H785.872ZM809.811 71.24C808.563 71.24 807.483 70.984 806.571 70.472C805.659 69.96 804.947 69.232 804.435 68.288C803.939 67.344 803.691 66.224 803.691 64.928C803.691 63.632 803.939 62.52 804.435 61.592C804.947 60.648 805.659 59.92 806.571 59.408C807.483 58.896 808.563 58.64 809.811 58.64C811.059 58.64 812.139 58.896 813.051 59.408C813.979 59.92 814.691 60.648 815.187 61.592C815.699 62.52 815.955 63.632 815.955 64.928C815.955 66.224 815.699 67.344 815.187 68.288C814.691 69.232 813.979 69.96 813.051 70.472C812.139 70.984 811.059 71.24 809.811 71.24ZM809.811 68.936C810.755 68.936 811.507 68.608 812.067 67.952C812.627 67.28 812.907 66.272 812.907 64.928C812.907 63.584 812.627 62.584 812.067 61.928C811.507 61.272 810.755 60.944 809.811 60.944C808.867 60.944 808.115 61.272 807.555 61.928C806.995 62.584 806.715 63.584 806.715 64.928C806.715 66.272 806.995 67.28 807.555 67.952C808.115 68.608 808.867 68.936 809.811 68.936ZM817.718 74.12V68.72H819.11C819.59 67.968 819.934 67.088 820.142 66.08C820.366 65.056 820.478 63.808 820.478 62.336V58.88H829.814V68.72H831.782V74.12H829.238V71H820.262V74.12H817.718ZM821.798 68.744H827.006V61.136H823.022V63.008C823.022 64.08 822.918 65.128 822.71 66.152C822.502 67.176 822.198 68.04 821.798 68.744ZM833.985 71V58.88H845.337V71H842.361V61.184H836.961V71H833.985ZM848.751 71V58.88H851.463V68.048H850.743L857.631 58.88H860.103V71H857.391V61.808H858.135L851.223 71H848.751ZM869.181 71.24C867.933 71.24 866.837 70.984 865.893 70.472C864.965 69.96 864.245 69.232 863.733 68.288C863.221 67.328 862.965 66.192 862.965 64.88C862.965 63.568 863.221 62.448 863.733 61.52C864.261 60.592 864.989 59.88 865.917 59.384C866.845 58.888 867.933 58.64 869.181 58.64C869.981 58.64 870.757 58.768 871.509 59.024C872.277 59.264 872.901 59.616 873.381 60.08L872.469 62.168C872.037 61.768 871.549 61.472 871.005 61.28C870.477 61.072 869.957 60.968 869.445 60.968C868.373 60.968 867.533 61.304 866.925 61.976C866.333 62.648 866.037 63.624 866.037 64.904C866.037 66.184 866.333 67.168 866.925 67.856C867.533 68.544 868.373 68.888 869.445 68.888C869.941 68.888 870.453 68.792 870.981 68.6C871.525 68.408 872.021 68.112 872.469 67.712L873.381 69.776C872.885 70.24 872.253 70.6 871.485 70.856C870.733 71.112 869.965 71.24 869.181 71.24ZM875.938 71V58.88H878.914V63.632H880.738L884.29 58.88H887.506L883.042 64.928L882.394 63.992C882.842 64.04 883.234 64.16 883.57 64.352C883.922 64.544 884.25 64.816 884.554 65.168C884.874 65.504 885.186 65.936 885.49 66.464L888.034 71H884.842L882.778 67.352C882.57 66.984 882.362 66.696 882.154 66.488C881.946 66.28 881.714 66.136 881.458 66.056C881.202 65.976 880.89 65.936 880.522 65.936H878.914V71H875.938ZM894.402 71.24C893.346 71.24 892.418 70.992 891.618 70.496C890.818 69.984 890.194 69.256 889.746 68.312C889.298 67.368 889.074 66.24 889.074 64.928C889.074 63.616 889.298 62.496 889.746 61.568C890.194 60.624 890.818 59.904 891.618 59.408C892.418 58.896 893.346 58.64 894.402 58.64C895.426 58.64 896.322 58.896 897.09 59.408C897.874 59.904 898.394 60.576 898.65 61.424H898.386L898.65 58.88H901.53C901.482 59.376 901.434 59.88 901.386 60.392C901.354 60.904 901.338 61.408 901.338 61.904V71H898.362L898.338 68.504H898.626C898.37 69.336 897.85 70 897.066 70.496C896.282 70.992 895.394 71.24 894.402 71.24ZM895.242 68.936C896.186 68.936 896.946 68.608 897.522 67.952C898.098 67.28 898.386 66.272 898.386 64.928C898.386 63.584 898.098 62.584 897.522 61.928C896.946 61.272 896.186 60.944 895.242 60.944C894.298 60.944 893.538 61.272 892.962 61.928C892.386 62.584 892.098 63.584 892.098 64.928C892.098 66.272 892.378 67.28 892.938 67.952C893.514 68.608 894.282 68.936 895.242 68.936ZM911.015 60.416V58.232C911.015 57.416 911.159 56.664 911.447 55.976C911.735 55.288 912.223 54.592 912.911 53.888L914.159 54.872C913.647 55.4 913.287 55.888 913.079 56.336C912.871 56.784 912.767 57.264 912.767 57.776L912.023 57.08H914.375V60.416H911.015ZM915.791 60.416V58.232C915.791 57.416 915.935 56.664 916.223 55.976C916.511 55.288 916.999 54.592 917.687 53.888L918.935 54.872C918.423 55.4 918.063 55.888 917.855 56.336C917.647 56.784 917.543 57.264 917.543 57.776L916.799 57.08H919.151V60.416H915.791ZM928.229 71.24C926.869 71.24 925.613 71.072 924.461 70.736C923.325 70.384 922.349 69.904 921.533 69.296L922.493 66.872C923.037 67.256 923.605 67.584 924.197 67.856C924.789 68.112 925.421 68.312 926.093 68.456C926.765 68.584 927.477 68.648 928.229 68.648C929.493 68.648 930.405 68.44 930.965 68.024C931.525 67.608 931.805 67.064 931.805 66.392C931.805 65.8 931.613 65.352 931.229 65.048C930.845 64.728 930.157 64.464 929.165 64.256L926.453 63.704C924.901 63.384 923.741 62.848 922.973 62.096C922.205 61.344 921.821 60.336 921.821 59.072C921.821 58.016 922.101 57.096 922.661 56.312C923.221 55.528 924.005 54.92 925.013 54.488C926.021 54.056 927.197 53.84 928.541 53.84C929.741 53.84 930.853 54.016 931.877 54.368C932.901 54.704 933.757 55.192 934.445 55.832L933.485 58.136C932.797 57.56 932.045 57.136 931.229 56.864C930.413 56.576 929.501 56.432 928.493 56.432C927.357 56.432 926.469 56.656 925.829 57.104C925.205 57.536 924.893 58.136 924.893 58.904C924.893 59.496 925.085 59.968 925.469 60.32C925.869 60.672 926.541 60.944 927.485 61.136L930.173 61.664C931.773 61.984 932.957 62.512 933.725 63.248C934.493 63.968 934.877 64.944 934.877 66.176C934.877 67.184 934.605 68.072 934.061 68.84C933.517 69.592 932.749 70.184 931.757 70.616C930.765 71.032 929.589 71.24 928.229 71.24ZM937.554 71V61.904C937.554 61.408 937.538 60.904 937.506 60.392C937.474 59.88 937.426 59.376 937.362 58.88H940.266L940.506 61.28H940.218C940.554 60.448 941.066 59.8 941.754 59.336C942.458 58.872 943.29 58.64 944.25 58.64C945.21 58.64 946.002 58.872 946.626 59.336C947.266 59.784 947.714 60.488 947.97 61.448H947.586C947.922 60.584 948.474 59.904 949.242 59.408C950.01 58.896 950.89 58.64 951.882 58.64C953.242 58.64 954.258 59.04 954.93 59.84C955.602 60.64 955.938 61.888 955.938 63.584V71H952.938V63.704C952.938 62.744 952.778 62.056 952.458 61.64C952.138 61.208 951.626 60.992 950.922 60.992C950.09 60.992 949.434 61.288 948.954 61.88C948.474 62.456 948.234 63.24 948.234 64.232V71H945.234V63.704C945.234 62.744 945.074 62.056 944.754 61.64C944.434 61.208 943.922 60.992 943.218 60.992C942.386 60.992 941.73 61.288 941.25 61.88C940.786 62.456 940.554 63.24 940.554 64.232V71H937.554ZM963.82 71.24C962.764 71.24 961.836 70.992 961.036 70.496C960.236 69.984 959.612 69.256 959.164 68.312C958.716 67.368 958.492 66.24 958.492 64.928C958.492 63.616 958.716 62.496 959.164 61.568C959.612 60.624 960.236 59.904 961.036 59.408C961.836 58.896 962.764 58.64 963.82 58.64C964.844 58.64 965.74 58.896 966.508 59.408C967.292 59.904 967.812 60.576 968.068 61.424H967.804L968.068 58.88H970.948C970.9 59.376 970.852 59.88 970.804 60.392C970.772 60.904 970.756 61.408 970.756 61.904V71H967.78L967.756 68.504H968.044C967.788 69.336 967.268 70 966.484 70.496C965.7 70.992 964.812 71.24 963.82 71.24ZM964.66 68.936C965.604 68.936 966.364 68.608 966.94 67.952C967.516 67.28 967.804 66.272 967.804 64.928C967.804 63.584 967.516 62.584 966.94 61.928C966.364 61.272 965.604 60.944 964.66 60.944C963.716 60.944 962.956 61.272 962.38 61.928C961.804 62.584 961.516 63.584 961.516 64.928C961.516 66.272 961.796 67.28 962.356 67.952C962.932 68.608 963.7 68.936 964.66 68.936ZM973.999 71V61.976C973.999 61.464 973.983 60.944 973.951 60.416C973.935 59.888 973.895 59.376 973.831 58.88H976.735L977.071 62.192H976.591C976.751 61.392 977.015 60.728 977.383 60.2C977.767 59.672 978.231 59.28 978.775 59.024C979.319 58.768 979.911 58.64 980.551 58.64C980.839 58.64 981.071 58.656 981.247 58.688C981.423 58.704 981.599 58.744 981.775 58.808L981.751 61.448C981.447 61.32 981.183 61.24 980.959 61.208C980.751 61.176 980.487 61.16 980.167 61.16C979.479 61.16 978.895 61.304 978.415 61.592C977.951 61.88 977.599 62.28 977.359 62.792C977.135 63.304 977.023 63.888 977.023 64.544V71H973.999ZM989.308 71.24C987.868 71.24 986.78 70.864 986.044 70.112C985.308 69.36 984.94 68.232 984.94 66.728V61.136H982.612V58.88H984.94V55.784L987.94 55.016V58.88H991.18V61.136H987.94V66.536C987.94 67.368 988.1 67.952 988.42 68.288C988.74 68.624 989.18 68.792 989.74 68.792C990.044 68.792 990.3 68.768 990.508 68.72C990.732 68.672 990.948 68.608 991.156 68.528V70.904C990.884 71.016 990.58 71.096 990.244 71.144C989.924 71.208 989.612 71.24 989.308 71.24ZM994.37 60.584L993.146 59.624C993.658 59.096 994.01 58.608 994.202 58.16C994.41 57.696 994.514 57.216 994.514 56.72L995.258 57.392H992.906V54.08H996.266V56.264C996.266 57.08 996.122 57.832 995.834 58.52C995.562 59.192 995.074 59.88 994.37 60.584ZM999.146 60.584L997.922 59.624C998.434 59.096 998.786 58.608 998.978 58.16C999.186 57.696 999.29 57.216 999.29 56.72L1000.03 57.392H997.682V54.08H1001.04V56.264C1001.04 57.08 1000.9 57.832 1000.61 58.52C1000.34 59.192 999.85 59.88 999.146 60.584Z" fill="#1A1A1A"/>
<rect x="1170" y="44" width="134" height="36" rx="8" fill="#A5A5A5" fill-opacity="0.1"/>
<circle cx="1190" cy="62" r="4" fill="#C7C7C7"/>
<path d="M1203.38 68V56.72H1204.86V61.648H1211.42V56.72H1212.93V68H1211.42V62.912H1204.86V68H1203.38ZM1219.24 68.144C1217.96 68.144 1216.95 67.776 1216.2 67.04C1215.47 66.304 1215.1 65.2907 1215.1 64C1215.1 63.1467 1215.26 62.4107 1215.58 61.792C1215.91 61.1627 1216.36 60.6773 1216.94 60.336C1217.51 59.984 1218.19 59.808 1218.95 59.808C1219.69 59.808 1220.31 59.968 1220.83 60.288C1221.34 60.5973 1221.73 61.04 1221.99 61.616C1222.26 62.192 1222.39 62.8747 1222.39 63.664V64.144H1216.23V63.28H1221.4L1221.13 63.488C1221.13 62.656 1220.94 62.0107 1220.57 61.552C1220.21 61.0933 1219.67 60.864 1218.95 60.864C1218.17 60.864 1217.57 61.136 1217.15 61.68C1216.72 62.2133 1216.51 62.944 1216.51 63.872V64.016C1216.51 64.9973 1216.75 65.7387 1217.23 66.24C1217.72 66.7413 1218.39 66.992 1219.26 66.992C1219.74 66.992 1220.19 66.9227 1220.6 66.784C1221.02 66.6453 1221.42 66.416 1221.8 66.096L1222.28 67.104C1221.92 67.4347 1221.47 67.6907 1220.92 67.872C1220.39 68.0533 1219.83 68.144 1219.24 68.144ZM1227.54 68.144C1226.84 68.144 1226.22 67.9787 1225.68 67.648C1225.15 67.3173 1224.73 66.8373 1224.44 66.208C1224.14 65.5787 1223.99 64.832 1223.99 63.968C1223.99 63.104 1224.14 62.3627 1224.44 61.744C1224.73 61.1147 1225.15 60.6347 1225.68 60.304C1226.22 59.9733 1226.84 59.808 1227.54 59.808C1228.25 59.808 1228.87 59.9893 1229.4 60.352C1229.93 60.704 1230.28 61.1893 1230.45 61.808H1230.26L1230.44 59.952H1231.84C1231.81 60.272 1231.78 60.592 1231.75 60.912C1231.73 61.232 1231.72 61.5467 1231.72 61.856V68H1230.26V66.16H1230.44C1230.27 66.768 1229.91 67.2533 1229.38 67.616C1228.86 67.968 1228.24 68.144 1227.54 68.144ZM1227.88 66.992C1228.6 66.992 1229.18 66.736 1229.62 66.224C1230.06 65.712 1230.28 64.96 1230.28 63.968C1230.28 62.976 1230.06 62.2293 1229.62 61.728C1229.18 61.2267 1228.6 60.976 1227.88 60.976C1227.15 60.976 1226.56 61.2267 1226.12 61.728C1225.68 62.2293 1225.46 62.976 1225.46 63.968C1225.46 64.96 1225.68 65.712 1226.12 66.224C1226.55 66.736 1227.14 66.992 1227.88 66.992ZM1234.28 68V59.952H1235.72V63.28H1237.18L1239.77 59.952H1241.35L1238.34 63.872L1237.96 63.424C1238.27 63.456 1238.54 63.536 1238.76 63.664C1238.98 63.7813 1239.2 63.9573 1239.4 64.192C1239.61 64.4267 1239.84 64.7413 1240.09 65.136L1241.75 68H1240.18L1238.73 65.52C1238.57 65.232 1238.41 65.008 1238.25 64.848C1238.09 64.688 1237.91 64.576 1237.7 64.512C1237.51 64.448 1237.27 64.416 1236.97 64.416H1235.72V68H1234.28ZM1244.73 68V61.12H1241.83V59.952H1249.06V61.12H1246.17V68H1244.73ZM1250.39 68V59.952H1251.72V66.624H1251.28L1256.28 59.952H1257.49V68H1256.16V61.312H1256.61L1251.6 68H1250.39ZM1259.98 68V59.952H1263.95C1264.9 59.952 1265.6 60.1333 1266.06 60.496C1266.53 60.8587 1266.77 61.3813 1266.77 62.064C1266.77 62.576 1266.59 63.008 1266.24 63.36C1265.89 63.7013 1265.43 63.9093 1264.86 63.984V63.776C1265.53 63.7973 1266.06 63.9947 1266.45 64.368C1266.84 64.7307 1267.04 65.2 1267.04 65.776C1267.04 66.4587 1266.78 67.0027 1266.25 67.408C1265.74 67.8027 1265.02 68 1264.09 68H1259.98ZM1261.36 67.04H1264C1264.54 67.04 1264.96 66.928 1265.25 66.704C1265.53 66.4693 1265.68 66.1387 1265.68 65.712C1265.68 65.2747 1265.53 64.944 1265.25 64.72C1264.96 64.496 1264.54 64.384 1264 64.384H1261.36V67.04ZM1261.36 63.424H1263.82C1264.32 63.424 1264.71 63.312 1264.99 63.088C1265.27 62.864 1265.41 62.5547 1265.41 62.16C1265.41 61.7547 1265.27 61.4453 1264.99 61.232C1264.71 61.0187 1264.32 60.912 1263.82 60.912H1261.36V63.424ZM1269 68V59.952H1270.44V63.28H1274.69V59.952H1276.13V68H1274.69V64.432H1270.44V68H1269ZM1281.74 68.144C1281.04 68.144 1280.42 67.9787 1279.89 67.648C1279.35 67.3173 1278.94 66.8373 1278.64 66.208C1278.34 65.5787 1278.19 64.832 1278.19 63.968C1278.19 63.104 1278.34 62.3627 1278.64 61.744C1278.94 61.1147 1279.35 60.6347 1279.89 60.304C1280.42 59.9733 1281.04 59.808 1281.74 59.808C1282.46 59.808 1283.08 59.9893 1283.6 60.352C1284.13 60.704 1284.48 61.1893 1284.66 61.808H1284.46L1284.64 59.952H1286.05C1286.02 60.272 1285.98 60.592 1285.95 60.912C1285.93 61.232 1285.92 61.5467 1285.92 61.856V68H1284.46V66.16H1284.64C1284.47 66.768 1284.12 67.2533 1283.58 67.616C1283.06 67.968 1282.45 68.144 1281.74 68.144ZM1282.08 66.992C1282.8 66.992 1283.39 66.736 1283.82 66.224C1284.26 65.712 1284.48 64.96 1284.48 63.968C1284.48 62.976 1284.26 62.2293 1283.82 61.728C1283.39 61.2267 1282.8 60.976 1282.08 60.976C1281.35 60.976 1280.77 61.2267 1280.32 61.728C1279.88 62.2293 1279.66 62.976 1279.66 63.968C1279.66 64.96 1279.88 65.712 1280.32 66.224C1280.76 66.736 1281.34 66.992 1282.08 66.992Z" fill="#1A1A1A"/>
<path d="M789.088 104.144C788.117 104.144 787.248 104.016 786.48 103.76C785.723 103.504 785.093 103.157 784.592 102.72L785.12 101.584C785.632 102.011 786.203 102.331 786.832 102.544C787.461 102.757 788.187 102.864 789.008 102.864C790.053 102.864 790.821 102.693 791.312 102.352C791.803 102 792.048 101.488 792.048 100.816C792.048 100.155 791.835 99.6693 791.408 99.36C790.992 99.0507 790.352 98.896 789.488 98.896H786.64V97.68H789.248C790.08 97.68 790.709 97.52 791.136 97.2C791.563 96.88 791.776 96.4107 791.776 95.792C791.776 95.1947 791.547 94.7253 791.088 94.384C790.629 94.032 789.941 93.856 789.024 93.856C788.331 93.856 787.675 93.9573 787.056 94.16C786.448 94.3627 785.893 94.6773 785.392 95.104L784.864 93.968C785.365 93.5093 785.995 93.1627 786.752 92.928C787.509 92.6933 788.304 92.576 789.136 92.576C790.491 92.576 791.515 92.8533 792.208 93.408C792.901 93.9627 793.248 94.704 793.248 95.632C793.248 96.336 793.035 96.928 792.608 97.408C792.192 97.8773 791.627 98.1867 790.912 98.336V98.112C791.723 98.2187 792.357 98.512 792.816 98.992C793.285 99.472 793.52 100.107 793.52 100.896C793.52 101.557 793.355 102.133 793.024 102.624C792.704 103.115 792.213 103.493 791.552 103.76C790.901 104.016 790.08 104.144 789.088 104.144ZM798.79 104.144C798.086 104.144 797.467 103.979 796.934 103.648C796.401 103.317 795.985 102.837 795.686 102.208C795.387 101.579 795.238 100.832 795.238 99.968C795.238 99.104 795.387 98.3627 795.686 97.744C795.985 97.1147 796.401 96.6347 796.934 96.304C797.467 95.9733 798.086 95.808 798.79 95.808C799.505 95.808 800.123 95.9893 800.646 96.352C801.179 96.704 801.531 97.1893 801.702 97.808H801.51L801.686 95.952H803.094C803.062 96.272 803.03 96.592 802.998 96.912C802.977 97.232 802.966 97.5467 802.966 97.856V104H801.51V102.16H801.686C801.515 102.768 801.163 103.253 800.63 103.616C800.107 103.968 799.494 104.144 798.79 104.144ZM799.126 102.992C799.851 102.992 800.433 102.736 800.87 102.224C801.307 101.712 801.526 100.96 801.526 99.968C801.526 98.976 801.307 98.2293 800.87 97.728C800.433 97.2267 799.851 96.976 799.126 96.976C798.401 96.976 797.814 97.2267 797.366 97.728C796.929 98.2293 796.71 98.976 796.71 99.968C796.71 100.96 796.929 101.712 797.366 102.224C797.803 102.736 798.39 102.992 799.126 102.992ZM805.529 104V95.952H806.969V99.28H808.425L811.017 95.952H812.601L809.593 99.872L809.209 99.424C809.519 99.456 809.785 99.536 810.009 99.664C810.233 99.7813 810.447 99.9573 810.649 100.192C810.863 100.427 811.092 100.741 811.337 101.136L813.001 104H811.433L809.977 101.52C809.817 101.232 809.657 101.008 809.497 100.848C809.337 100.688 809.156 100.576 808.953 100.512C808.761 100.448 808.516 100.416 808.217 100.416H806.969V104H805.529ZM817.688 104.144C816.899 104.144 816.216 103.979 815.64 103.648C815.064 103.307 814.616 102.827 814.296 102.208C813.976 101.579 813.816 100.832 813.816 99.968C813.816 99.1147 813.976 98.3787 814.296 97.76C814.616 97.1307 815.064 96.6507 815.64 96.32C816.216 95.9787 816.899 95.808 817.688 95.808C818.477 95.808 819.16 95.9787 819.736 96.32C820.323 96.6507 820.771 97.1307 821.08 97.76C821.4 98.3787 821.56 99.1147 821.56 99.968C821.56 100.832 821.4 101.579 821.08 102.208C820.771 102.827 820.323 103.307 819.736 103.648C819.16 103.979 818.477 104.144 817.688 104.144ZM817.688 102.992C818.413 102.992 818.995 102.736 819.432 102.224C819.869 101.712 820.088 100.96 820.088 99.968C820.088 98.976 819.869 98.2293 819.432 97.728C818.995 97.2267 818.413 96.976 817.688 96.976C816.952 96.976 816.365 97.2267 815.928 97.728C815.501 98.2293 815.288 98.976 815.288 99.968C815.288 100.96 815.501 101.712 815.928 102.224C816.365 102.736 816.952 102.992 817.688 102.992ZM823.639 104V95.952H825.079V99.28H829.335V95.952H830.775V104H829.335V100.432H825.079V104H823.639ZM838.432 104V100.816C838.122 100.987 837.792 101.12 837.44 101.216C837.088 101.301 836.714 101.344 836.32 101.344C835.168 101.344 834.314 101.077 833.76 100.544C833.216 100 832.944 99.184 832.944 98.096V95.952H834.384V97.984C834.384 98.7413 834.554 99.2907 834.896 99.632C835.248 99.9627 835.792 100.128 836.528 100.128C836.901 100.128 837.237 100.091 837.536 100.016C837.834 99.9307 838.122 99.7973 838.4 99.616V95.952H839.856V104H838.432ZM842.357 104V95.952H843.685V102.624H843.253L848.245 95.952H849.461V104H848.133V97.312H848.581L843.573 104H842.357ZM851.567 104.192L851.055 103.056C851.428 102.885 851.738 102.683 851.983 102.448C852.239 102.203 852.436 101.893 852.575 101.52C852.724 101.147 852.831 100.683 852.895 100.128C852.959 99.5733 852.991 98.9013 852.991 98.112V95.952H858.927V104H857.487V97.088H854.335V98.144C854.335 99.3813 854.239 100.405 854.047 101.216C853.866 102.016 853.572 102.651 853.167 103.12C852.772 103.589 852.239 103.947 851.567 104.192ZM864.54 104.144C863.836 104.144 863.217 103.979 862.684 103.648C862.151 103.317 861.735 102.837 861.436 102.208C861.137 101.579 860.988 100.832 860.988 99.968C860.988 99.104 861.137 98.3627 861.436 97.744C861.735 97.1147 862.151 96.6347 862.684 96.304C863.217 95.9733 863.836 95.808 864.54 95.808C865.255 95.808 865.873 95.9893 866.396 96.352C866.929 96.704 867.281 97.1893 867.452 97.808H867.26L867.436 95.952H868.844C868.812 96.272 868.78 96.592 868.748 96.912C868.727 97.232 868.716 97.5467 868.716 97.856V104H867.26V102.16H867.436C867.265 102.768 866.913 103.253 866.38 103.616C865.857 103.968 865.244 104.144 864.54 104.144ZM864.876 102.992C865.601 102.992 866.183 102.736 866.62 102.224C867.057 101.712 867.276 100.96 867.276 99.968C867.276 98.976 867.057 98.2293 866.62 97.728C866.183 97.2267 865.601 96.976 864.876 96.976C864.151 96.976 863.564 97.2267 863.116 97.728C862.679 98.2293 862.46 98.976 862.46 99.968C862.46 100.96 862.679 101.712 863.116 102.224C863.553 102.736 864.14 102.992 864.876 102.992ZM874.783 104.144C873.983 104.144 873.29 103.979 872.703 103.648C872.117 103.307 871.658 102.821 871.327 102.192C871.007 101.552 870.847 100.795 870.847 99.92C870.847 99.056 871.013 98.32 871.343 97.712C871.674 97.0933 872.133 96.624 872.719 96.304C873.306 95.9733 873.994 95.808 874.783 95.808C875.306 95.808 875.813 95.8987 876.303 96.08C876.794 96.2507 877.194 96.5013 877.503 96.832L877.007 97.856C876.698 97.5573 876.357 97.3387 875.983 97.2C875.61 97.0507 875.242 96.976 874.879 96.976C874.09 96.976 873.471 97.232 873.023 97.744C872.575 98.2453 872.351 98.976 872.351 99.936C872.351 100.907 872.575 101.653 873.023 102.176C873.471 102.699 874.09 102.96 874.879 102.96C875.231 102.96 875.594 102.891 875.967 102.752C876.341 102.613 876.687 102.395 877.007 102.096L877.503 103.104C877.183 103.445 876.773 103.707 876.271 103.888C875.781 104.059 875.285 104.144 874.783 104.144ZM879.404 104V95.952H880.844V98.8H883.212C884.258 98.8 885.042 99.024 885.564 99.472C886.098 99.9093 886.364 100.544 886.364 101.376C886.364 101.909 886.242 102.373 885.996 102.768C885.751 103.163 885.394 103.467 884.924 103.68C884.455 103.893 883.884 104 883.212 104H879.404ZM880.844 102.992H883.052C883.682 102.992 884.162 102.864 884.492 102.608C884.823 102.341 884.988 101.936 884.988 101.392C884.988 100.848 884.823 100.448 884.492 100.192C884.172 99.936 883.692 99.808 883.052 99.808H880.844V102.992ZM895.923 104.144C895.155 104.144 894.419 104.027 893.715 103.792C893.022 103.557 892.44 103.227 891.971 102.8L892.499 101.648C893.022 102.075 893.56 102.384 894.115 102.576C894.67 102.768 895.256 102.864 895.875 102.864C896.696 102.864 897.32 102.693 897.747 102.352C898.174 102 898.387 101.499 898.387 100.848C898.387 100.208 898.168 99.7227 897.731 99.392C897.304 99.0613 896.675 98.896 895.843 98.896H894.115V97.664H895.731C896.435 97.664 897 97.4827 897.427 97.12C897.854 96.7573 898.067 96.2613 898.067 95.632C898.067 95.056 897.87 94.6187 897.475 94.32C897.091 94.0107 896.542 93.856 895.827 93.856C894.622 93.856 893.576 94.2773 892.691 95.12L892.163 93.984C892.611 93.536 893.166 93.1893 893.827 92.944C894.488 92.6987 895.187 92.576 895.923 92.576C897.043 92.576 897.923 92.832 898.563 93.344C899.203 93.856 899.523 94.5707 899.523 95.488C899.523 96.1813 899.326 96.7787 898.931 97.28C898.547 97.7707 898.019 98.096 897.347 98.256V98.08C898.136 98.2187 898.75 98.544 899.187 99.056C899.624 99.5573 899.843 100.187 899.843 100.944C899.843 101.936 899.491 102.72 898.787 103.296C898.094 103.861 897.139 104.144 895.923 104.144ZM909.384 104.144C908.68 104.144 908.061 103.979 907.528 103.648C906.994 103.317 906.578 102.837 906.28 102.208C905.981 101.579 905.832 100.832 905.832 99.968C905.832 99.104 905.981 98.3627 906.28 97.744C906.578 97.1147 906.994 96.6347 907.528 96.304C908.061 95.9733 908.68 95.808 909.384 95.808C910.098 95.808 910.717 95.9893 911.24 96.352C911.773 96.704 912.125 97.1893 912.296 97.808H912.104L912.28 95.952H913.688C913.656 96.272 913.624 96.592 913.592 96.912C913.57 97.232 913.56 97.5467 913.56 97.856V104H912.104V102.16H912.28C912.109 102.768 911.757 103.253 911.224 103.616C910.701 103.968 910.088 104.144 909.384 104.144ZM909.72 102.992C910.445 102.992 911.026 102.736 911.464 102.224C911.901 101.712 912.12 100.96 912.12 99.968C912.12 98.976 911.901 98.2293 911.464 97.728C911.026 97.2267 910.445 96.976 909.72 96.976C908.994 96.976 908.408 97.2267 907.96 97.728C907.522 98.2293 907.304 98.976 907.304 99.968C907.304 100.96 907.522 101.712 907.96 102.224C908.397 102.736 908.984 102.992 909.72 102.992ZM916.123 104V95.952H920.091C921.04 95.952 921.744 96.1333 922.203 96.496C922.672 96.8587 922.907 97.3813 922.907 98.064C922.907 98.576 922.731 99.008 922.379 99.36C922.027 99.7013 921.568 99.9093 921.003 99.984V99.776C921.675 99.7973 922.203 99.9947 922.587 100.368C922.982 100.731 923.179 101.2 923.179 101.776C923.179 102.459 922.918 103.003 922.395 103.408C921.883 103.803 921.163 104 920.235 104H916.123ZM917.499 103.04H920.139C920.683 103.04 921.099 102.928 921.387 102.704C921.675 102.469 921.819 102.139 921.819 101.712C921.819 101.275 921.675 100.944 921.387 100.72C921.099 100.496 920.683 100.384 920.139 100.384H917.499V103.04ZM917.499 99.424H919.963C920.464 99.424 920.854 99.312 921.131 99.088C921.408 98.864 921.547 98.5547 921.547 98.16C921.547 97.7547 921.408 97.4453 921.131 97.232C920.854 97.0187 920.464 96.912 919.963 96.912H917.499V99.424ZM925.139 104V95.952H930.851V97.12H926.595V104H925.139ZM932.118 107.632L931.782 106.448C932.283 106.331 932.699 106.192 933.03 106.032C933.36 105.883 933.638 105.685 933.862 105.44C934.086 105.195 934.283 104.885 934.454 104.512L934.854 103.552L934.822 104.16L931.318 95.952H932.886L935.686 102.848H935.27L938.07 95.952H939.574L935.878 104.624C935.654 105.147 935.408 105.584 935.142 105.936C934.886 106.288 934.603 106.576 934.294 106.8C933.995 107.024 933.664 107.2 933.302 107.328C932.939 107.456 932.544 107.557 932.118 107.632ZM944.44 104.144C943.64 104.144 942.946 103.979 942.36 103.648C941.773 103.307 941.314 102.821 940.984 102.192C940.664 101.552 940.504 100.795 940.504 99.92C940.504 99.056 940.669 98.32 941 97.712C941.33 97.0933 941.789 96.624 942.376 96.304C942.962 95.9733 943.65 95.808 944.44 95.808C944.962 95.808 945.469 95.8987 945.96 96.08C946.45 96.2507 946.85 96.5013 947.16 96.832L946.664 97.856C946.354 97.5573 946.013 97.3387 945.64 97.2C945.266 97.0507 944.898 96.976 944.536 96.976C943.746 96.976 943.128 97.232 942.68 97.744C942.232 98.2453 942.008 98.976 942.008 99.936C942.008 100.907 942.232 101.653 942.68 102.176C943.128 102.699 943.746 102.96 944.536 102.96C944.888 102.96 945.25 102.891 945.624 102.752C945.997 102.613 946.344 102.395 946.664 102.096L947.16 103.104C946.84 103.445 946.429 103.707 945.928 103.888C945.437 104.059 944.941 104.144 944.44 104.144ZM950.789 104V97.12H947.893V95.952H955.125V97.12H952.229V104H950.789ZM959.571 104.144C958.867 104.144 958.248 103.979 957.715 103.648C957.182 103.317 956.766 102.837 956.467 102.208C956.168 101.579 956.019 100.832 956.019 99.968C956.019 99.104 956.168 98.3627 956.467 97.744C956.766 97.1147 957.182 96.6347 957.715 96.304C958.248 95.9733 958.867 95.808 959.571 95.808C960.286 95.808 960.904 95.9893 961.427 96.352C961.96 96.704 962.312 97.1893 962.483 97.808H962.291L962.467 95.952H963.875C963.843 96.272 963.811 96.592 963.779 96.912C963.758 97.232 963.747 97.5467 963.747 97.856V104H962.291V102.16H962.467C962.296 102.768 961.944 103.253 961.411 103.616C960.888 103.968 960.275 104.144 959.571 104.144ZM959.907 102.992C960.632 102.992 961.214 102.736 961.651 102.224C962.088 101.712 962.307 100.96 962.307 99.968C962.307 98.976 962.088 98.2293 961.651 97.728C961.214 97.2267 960.632 96.976 959.907 96.976C959.182 96.976 958.595 97.2267 958.147 97.728C957.71 98.2293 957.491 98.976 957.491 99.968C957.491 100.96 957.71 101.712 958.147 102.224C958.584 102.736 959.171 102.992 959.907 102.992Z" fill="#1A1A1A"/>
<path d="M708 128H1304" stroke="#E8E8E8"/>
<rect x="708" y="166" width="235" height="42" rx="8" fill="#5329FF" fill-opacity="0.05"/>
<g clip-path="url(#clip0_3011_14137)">
<circle cx="728" cy="187" r="4" stroke="#5329FF" stroke-width="2" stroke-linejoin="round"/>
<path d="M736 187H737" stroke="#5329FF" stroke-width="2" stroke-linecap="round"/>
<path d="M719 187H720" stroke="#5329FF" stroke-width="2" stroke-linecap="round"/>
<path d="M728 195L728 196" stroke="#5329FF" stroke-width="2" stroke-linecap="round"/>
<path d="M728 178L728 179" stroke="#5329FF" stroke-width="2" stroke-linecap="round"/>
<path d="M733.656 192.657L734.363 193.364" stroke="#5329FF" stroke-width="2" stroke-linecap="round"/>
<path d="M721.637 180.636L722.344 181.343" stroke="#5329FF" stroke-width="2" stroke-linecap="round"/>
<path d="M722.344 192.657L721.637 193.364" stroke="#5329FF" stroke-width="2" stroke-linecap="round"/>
<path d="M734.363 180.636L733.656 181.343" stroke="#5329FF" stroke-width="2" stroke-linecap="round"/>
</g>
<path d="M749.328 193V181.72H754.032C755.248 181.72 756.181 181.976 756.832 182.488C757.493 183 757.824 183.72 757.824 184.648C757.824 185.341 757.616 185.923 757.2 186.392C756.784 186.861 756.213 187.176 755.488 187.336V187.096C756.32 187.203 756.965 187.496 757.424 187.976C757.883 188.456 758.112 189.091 758.112 189.88C758.112 190.883 757.771 191.656 757.088 192.2C756.416 192.733 755.467 193 754.24 193H749.328ZM750.944 191.704H754.064C754.821 191.704 755.413 191.56 755.84 191.272C756.277 190.984 756.496 190.499 756.496 189.816C756.496 189.133 756.277 188.648 755.84 188.36C755.413 188.072 754.821 187.928 754.064 187.928H750.944V191.704ZM750.944 186.648H753.776C754.587 186.648 755.195 186.493 755.6 186.184C756.005 185.875 756.208 185.421 756.208 184.824C756.208 184.227 756.005 183.773 755.6 183.464C755.195 183.155 754.587 183 753.776 183H750.944V186.648ZM763.689 193.144C762.889 193.144 762.196 192.979 761.609 192.648C761.022 192.307 760.569 191.827 760.249 191.208C759.929 190.579 759.769 189.832 759.769 188.968C759.769 188.104 759.929 187.363 760.249 186.744C760.569 186.115 761.022 185.635 761.609 185.304C762.196 184.963 762.889 184.792 763.689 184.792C764.489 184.792 765.182 184.963 765.769 185.304C766.366 185.635 766.825 186.115 767.145 186.744C767.476 187.363 767.641 188.104 767.641 188.968C767.641 189.832 767.476 190.579 767.145 191.208C766.825 191.827 766.366 192.307 765.769 192.648C765.182 192.979 764.489 193.144 763.689 193.144ZM763.689 191.88C764.393 191.88 764.953 191.635 765.369 191.144C765.785 190.653 765.993 189.928 765.993 188.968C765.993 188.008 765.785 187.288 765.369 186.808C764.953 186.317 764.393 186.072 763.689 186.072C762.996 186.072 762.441 186.317 762.025 186.808C761.609 187.288 761.401 188.008 761.401 188.968C761.401 189.928 761.604 190.653 762.009 191.144C762.425 191.635 762.985 191.88 763.689 191.88ZM773.238 193.144C772.427 193.144 771.718 192.979 771.11 192.648C770.513 192.307 770.049 191.821 769.718 191.192C769.398 190.552 769.238 189.795 769.238 188.92C769.238 188.056 769.403 187.315 769.734 186.696C770.065 186.077 770.529 185.608 771.126 185.288C771.723 184.957 772.427 184.792 773.238 184.792C773.761 184.792 774.267 184.883 774.758 185.064C775.249 185.235 775.654 185.48 775.974 185.8L775.446 186.936C775.147 186.648 774.811 186.435 774.438 186.296C774.065 186.147 773.702 186.072 773.35 186.072C772.582 186.072 771.979 186.317 771.542 186.808C771.105 187.299 770.886 188.008 770.886 188.936C770.886 189.875 771.105 190.595 771.542 191.096C771.979 191.597 772.582 191.848 773.35 191.848C773.691 191.848 774.049 191.784 774.422 191.656C774.795 191.517 775.137 191.299 775.446 191L775.974 192.136C775.643 192.456 775.227 192.707 774.726 192.888C774.235 193.059 773.739 193.144 773.238 193.144ZM781.41 193.144C780.599 193.144 779.89 192.979 779.282 192.648C778.684 192.307 778.22 191.821 777.89 191.192C777.57 190.552 777.41 189.795 777.41 188.92C777.41 188.056 777.575 187.315 777.906 186.696C778.236 186.077 778.7 185.608 779.298 185.288C779.895 184.957 780.599 184.792 781.41 184.792C781.932 184.792 782.439 184.883 782.93 185.064C783.42 185.235 783.826 185.48 784.146 185.8L783.618 186.936C783.319 186.648 782.983 186.435 782.61 186.296C782.236 186.147 781.874 186.072 781.522 186.072C780.754 186.072 780.151 186.317 779.714 186.808C779.276 187.299 779.058 188.008 779.058 188.936C779.058 189.875 779.276 190.595 779.714 191.096C780.151 191.597 780.754 191.848 781.522 191.848C781.863 191.848 782.22 191.784 782.594 191.656C782.967 191.517 783.308 191.299 783.618 191L784.146 192.136C783.815 192.456 783.399 192.707 782.898 192.888C782.407 193.059 781.911 193.144 781.41 193.144ZM787.71 193V186.232H784.862V184.936H792.174V186.232H789.31V193H787.71ZM796.618 193.144C795.903 193.144 795.279 192.979 794.746 192.648C794.213 192.317 793.797 191.837 793.498 191.208C793.21 190.579 793.066 189.832 793.066 188.968C793.066 188.093 793.21 187.347 793.498 186.728C793.797 186.109 794.213 185.635 794.746 185.304C795.279 184.963 795.903 184.792 796.618 184.792C797.322 184.792 797.935 184.968 798.458 185.32C798.981 185.672 799.327 186.152 799.498 186.76H799.322L799.482 184.936H801.05C801.018 185.267 800.986 185.597 800.954 185.928C800.933 186.248 800.922 186.563 800.922 186.872V193H799.306V191.208H799.482C799.311 191.805 798.959 192.28 798.426 192.632C797.903 192.973 797.301 193.144 796.618 193.144ZM797.018 191.88C797.711 191.88 798.266 191.635 798.682 191.144C799.109 190.653 799.322 189.928 799.322 188.968C799.322 188.008 799.109 187.288 798.682 186.808C798.266 186.317 797.711 186.072 797.018 186.072C796.314 186.072 795.749 186.317 795.322 186.808C794.906 187.288 794.698 188.008 794.698 188.968C794.698 189.928 794.906 190.653 795.322 191.144C795.738 191.635 796.303 191.88 797.018 191.88ZM803.404 193V184.936H805.004V188.216H809.084V184.936H810.684V193H809.084V189.48H805.004V193H803.404ZM816.642 193.144C815.842 193.144 815.149 192.979 814.562 192.648C813.976 192.307 813.522 191.827 813.202 191.208C812.882 190.579 812.722 189.832 812.722 188.968C812.722 188.104 812.882 187.363 813.202 186.744C813.522 186.115 813.976 185.635 814.562 185.304C815.149 184.963 815.842 184.792 816.642 184.792C817.442 184.792 818.136 184.963 818.722 185.304C819.32 185.635 819.778 186.115 820.098 186.744C820.429 187.363 820.594 188.104 820.594 188.968C820.594 189.832 820.429 190.579 820.098 191.208C819.778 191.827 819.32 192.307 818.722 192.648C818.136 192.979 817.442 193.144 816.642 193.144ZM816.642 191.88C817.346 191.88 817.906 191.635 818.322 191.144C818.738 190.653 818.946 189.928 818.946 188.968C818.946 188.008 818.738 187.288 818.322 186.808C817.906 186.317 817.346 186.072 816.642 186.072C815.949 186.072 815.394 186.317 814.978 186.808C814.562 187.288 814.354 188.008 814.354 188.968C814.354 189.928 814.557 190.653 814.962 191.144C815.378 191.635 815.938 191.88 816.642 191.88ZM822.591 193V184.936H826.655C827.626 184.936 828.34 185.123 828.799 185.496C829.268 185.859 829.503 186.376 829.503 187.048C829.503 187.571 829.327 188.003 828.975 188.344C828.634 188.685 828.18 188.893 827.615 188.968V188.76C828.287 188.792 828.815 188.989 829.199 189.352C829.583 189.715 829.775 190.184 829.775 190.76C829.775 191.453 829.514 192.003 828.991 192.408C828.479 192.803 827.748 193 826.799 193H822.591ZM824.111 191.96H826.671C827.194 191.96 827.594 191.853 827.871 191.64C828.148 191.416 828.287 191.096 828.287 190.68C828.287 190.264 828.148 189.949 827.871 189.736C827.594 189.523 827.194 189.416 826.671 189.416H824.111V191.96ZM824.111 188.376H826.495C826.975 188.376 827.348 188.269 827.615 188.056C827.882 187.843 828.015 187.549 828.015 187.176C828.015 186.792 827.882 186.499 827.615 186.296C827.348 186.083 826.975 185.976 826.495 185.976H824.111V188.376ZM831.685 193V184.936H833.157V191.448H832.709L837.573 184.936H838.917V193H837.461V186.472H837.925L833.029 193H831.685ZM843.069 193V186.232H840.221V184.936H847.533V186.232H844.669V193H843.069ZM848.825 193V184.936H850.425V187.752H852.713C853.769 187.752 854.564 187.976 855.097 188.424C855.631 188.861 855.897 189.501 855.897 190.344C855.897 190.888 855.775 191.363 855.529 191.768C855.284 192.163 854.921 192.467 854.441 192.68C853.972 192.893 853.396 193 852.713 193H848.825ZM850.425 191.896H852.537C853.135 191.896 853.593 191.773 853.913 191.528C854.233 191.272 854.393 190.883 854.393 190.36C854.393 189.837 854.233 189.459 853.913 189.224C853.604 188.979 853.145 188.856 852.537 188.856H850.425V191.896ZM861.982 193V184.936H869.214V193H867.614V186.2H863.582V193H861.982ZM875.158 193.144C874.358 193.144 873.665 192.979 873.078 192.648C872.491 192.307 872.038 191.827 871.718 191.208C871.398 190.579 871.238 189.832 871.238 188.968C871.238 188.104 871.398 187.363 871.718 186.744C872.038 186.115 872.491 185.635 873.078 185.304C873.665 184.963 874.358 184.792 875.158 184.792C875.958 184.792 876.651 184.963 877.238 185.304C877.835 185.635 878.294 186.115 878.614 186.744C878.945 187.363 879.11 188.104 879.11 188.968C879.11 189.832 878.945 190.579 878.614 191.208C878.294 191.827 877.835 192.307 877.238 192.648C876.651 192.979 875.958 193.144 875.158 193.144ZM875.158 191.88C875.862 191.88 876.422 191.635 876.838 191.144C877.254 190.653 877.462 189.928 877.462 188.968C877.462 188.008 877.254 187.288 876.838 186.808C876.422 186.317 875.862 186.072 875.158 186.072C874.465 186.072 873.91 186.317 873.494 186.808C873.078 187.288 872.87 188.008 872.87 188.968C872.87 189.928 873.073 190.653 873.478 191.144C873.894 191.635 874.454 191.88 875.158 191.88ZM880.307 195.08V191.752H881.203C881.555 191.219 881.811 190.595 881.971 189.88C882.131 189.165 882.211 188.301 882.211 187.288V184.936H888.115V191.752H889.411V195.08H888.019V193H881.699V195.08H880.307ZM882.691 191.768H886.595V186.184H883.603V187.608C883.603 188.387 883.523 189.149 883.363 189.896C883.213 190.632 882.989 191.256 882.691 191.768ZM891.013 193V184.936H898.245V193H896.645V186.2H892.613V193H891.013ZM900.669 193V184.936H902.141V191.448H901.693L906.557 184.936H907.901V193H906.445V186.472H906.909L902.013 193H900.669ZM913.925 193.144C913.115 193.144 912.405 192.979 911.797 192.648C911.2 192.307 910.736 191.821 910.405 191.192C910.085 190.552 909.925 189.795 909.925 188.92C909.925 188.056 910.091 187.315 910.421 186.696C910.752 186.077 911.216 185.608 911.813 185.288C912.411 184.957 913.115 184.792 913.925 184.792C914.448 184.792 914.955 184.883 915.445 185.064C915.936 185.235 916.341 185.48 916.661 185.8L916.133 186.936C915.835 186.648 915.499 186.435 915.125 186.296C914.752 186.147 914.389 186.072 914.037 186.072C913.269 186.072 912.667 186.317 912.229 186.808C911.792 187.299 911.573 188.008 911.573 188.936C911.573 189.875 911.792 190.595 912.229 191.096C912.667 191.597 913.269 191.848 914.037 191.848C914.379 191.848 914.736 191.784 915.109 191.656C915.483 191.517 915.824 191.299 916.133 191L916.661 192.136C916.331 192.456 915.915 192.707 915.413 192.888C914.923 193.059 914.427 193.144 913.925 193.144ZM918.497 193V184.936H920.097V188.232H921.489L924.001 184.936H925.761L922.753 188.904L922.353 188.392C922.663 188.424 922.929 188.504 923.153 188.632C923.377 188.749 923.596 188.925 923.809 189.16C924.023 189.395 924.241 189.704 924.465 190.088L926.145 193H924.417L922.977 190.536C922.817 190.259 922.663 190.045 922.513 189.896C922.364 189.736 922.193 189.629 922.001 189.576C921.809 189.512 921.575 189.48 921.297 189.48H920.097V193H918.497ZM927.149 196.632L926.765 195.32C927.267 195.213 927.683 195.085 928.013 194.936C928.355 194.787 928.637 194.589 928.861 194.344C929.085 194.109 929.277 193.805 929.437 193.432L929.837 192.488L929.805 193.144L926.301 184.936H928.029L930.749 191.656H930.317L933.037 184.936H934.701L931.005 193.576C930.771 194.109 930.52 194.557 930.253 194.92C929.987 195.283 929.699 195.576 929.389 195.8C929.08 196.024 928.739 196.2 928.365 196.328C927.992 196.456 927.587 196.557 927.149 196.632Z" fill="#5329FF"/>
</g>
<defs>
<filter id="filter0_d_3011_14137" x="0" y="0" width="684" height="252" filterUnits="userSpaceOnUse" color-interpolation-filters="sRGB">
<feFlood flood-opacity="0" result="BackgroundImageFix"/>
<feColorMatrix in="SourceAlpha" type="matrix" values="0 0 0 0 0 0 0 0 0 0 0 0 0 0 0 0 0 0 127 0" result="hardAlpha"/>
<feOffset/>
<feGaussianBlur stdDeviation="10"/>
<feComposite in2="hardAlpha" operator="out"/>
<feColorMatrix type="matrix" values="0 0 0 0 0 0 0 0 0 0 0 0 0 0 0 0 0 0 0.08 0"/>
<feBlend mode="normal" in2="BackgroundImageFix" result="effect1_dropShadow_3011_14137"/>
<feBlend mode="normal" in="SourceGraphic" in2="effect1_dropShadow_3011_14137" result="shape"/>
</filter>
<filter id="filter1_d_3011_14137" x="664" y="0" width="684" height="252" filterUnits="userSpaceOnUse" color-interpolation-filters="sRGB">
<feFlood flood-opacity="0" result="BackgroundImageFix"/>
<feColorMatrix in="SourceAlpha" type="matrix" values="0 0 0 0 0 0 0 0 0 0 0 0 0 0 0 0 0 0 127 0" result="hardAlpha"/>
<feOffset/>
<feGaussianBlur stdDeviation="10"/>
<feComposite in2="hardAlpha" operator="out"/>
<feColorMatrix type="matrix" values="0 0 0 0 0 0 0 0 0 0 0 0 0 0 0 0 0 0 0.08 0"/>
<feBlend mode="normal" in2="BackgroundImageFix" result="effect1_dropShadow_3011_14137"/>
<feBlend mode="normal" in="SourceGraphic" in2="effect1_dropShadow_3011_14137" result="shape"/>
</filter>
<clipPath id="clip0_3011_14137">
<rect width="24" height="24" fill="white" transform="translate(716 175)"/>
</clipPath>
</defs>
</svg>
