<svg width="848" height="74" viewBox="0 0 848 74" fill="none" xmlns="http://www.w3.org/2000/svg">
<path d="M1.376 16V4.72H2.688L7.136 14.736H6.656L11.104 4.72H12.4V16H11.04V6.704H11.536L7.36 16H6.416L2.24 6.704H2.736V16H1.376ZM18.1493 16.144C17.4453 16.144 16.8266 15.9787 16.2933 15.648C15.7599 15.3173 15.3439 14.8373 15.0453 14.208C14.7466 13.5787 14.5973 12.832 14.5973 11.968C14.5973 11.104 14.7466 10.3627 15.0453 9.744C15.3439 9.11467 15.7599 8.63467 16.2933 8.304C16.8266 7.97333 17.4453 7.808 18.1493 7.808C18.8639 7.808 19.4826 7.98933 20.0053 8.352C20.5386 8.704 20.8906 9.18933 21.0613 9.808H20.8693L21.0453 7.952H22.4533C22.4213 8.272 22.3893 8.592 22.3573 8.912C22.3359 9.232 22.3253 9.54667 22.3253 9.856V16H20.8693V14.16H21.0453C20.8746 14.768 20.5226 15.2533 19.9893 15.616C19.4666 15.968 18.8533 16.144 18.1493 16.144ZM18.4852 14.992C19.2106 14.992 19.7919 14.736 20.2293 14.224C20.6666 13.712 20.8853 12.96 20.8853 11.968C20.8853 10.976 20.6666 10.2293 20.2293 9.728C19.7919 9.22667 19.2106 8.976 18.4852 8.976C17.7599 8.976 17.1733 9.22667 16.7253 9.728C16.2879 10.2293 16.0693 10.976 16.0693 11.968C16.0693 12.96 16.2879 13.712 16.7253 14.224C17.1626 14.736 17.7493 14.992 18.4852 14.992ZM24.8886 16V7.952H30.6006V9.12H26.3446V16H24.8886ZM35.2118 16.144C34.5078 16.144 33.8891 15.9787 33.3558 15.648C32.8224 15.3173 32.4064 14.8373 32.1078 14.208C31.8091 13.5787 31.6598 12.832 31.6598 11.968C31.6598 11.104 31.8091 10.3627 32.1078 9.744C32.4064 9.11467 32.8224 8.63467 33.3558 8.304C33.8891 7.97333 34.5078 7.808 35.2118 7.808C35.9264 7.808 36.5451 7.98933 37.0678 8.352C37.6011 8.704 37.9531 9.18933 38.1238 9.808H37.9318L38.1078 7.952H39.5158C39.4838 8.272 39.4518 8.592 39.4198 8.912C39.3984 9.232 39.3878 9.54667 39.3878 9.856V16H37.9318V14.16H38.1078C37.9371 14.768 37.5851 15.2533 37.0518 15.616C36.5291 15.968 35.9158 16.144 35.2118 16.144ZM35.5477 14.992C36.2731 14.992 36.8544 14.736 37.2918 14.224C37.7291 13.712 37.9478 12.96 37.9478 11.968C37.9478 10.976 37.7291 10.2293 37.2918 9.728C36.8544 9.22667 36.2731 8.976 35.5477 8.976C34.8224 8.976 34.2358 9.22667 33.7878 9.728C33.3504 10.2293 33.1318 10.976 33.1318 11.968C33.1318 12.96 33.3504 13.712 33.7878 14.224C34.2251 14.736 34.8118 14.992 35.5477 14.992ZM44.6871 16.144C43.9831 16.144 43.3271 16.0533 42.7191 15.872C42.1111 15.6907 41.6098 15.4347 41.2151 15.104L41.6951 14.096C42.0898 14.416 42.5378 14.656 43.0391 14.816C43.5405 14.976 44.0845 15.056 44.6711 15.056C45.4391 15.056 45.9938 14.944 46.3351 14.72C46.6871 14.4853 46.8631 14.1493 46.8631 13.712C46.8631 13.296 46.7191 12.9813 46.4311 12.768C46.1431 12.5547 45.7218 12.448 45.1671 12.448H43.2151V11.392H44.9911C45.4925 11.392 45.8818 11.2853 46.1591 11.072C46.4471 10.848 46.5911 10.544 46.5911 10.16C46.5911 9.76533 46.4311 9.456 46.1111 9.232C45.7911 8.99733 45.3005 8.88 44.6391 8.88C44.0845 8.88 43.5778 8.95467 43.1191 9.104C42.6605 9.24267 42.2231 9.456 41.8071 9.744L41.3431 8.8C41.7805 8.45867 42.2925 8.208 42.8791 8.048C43.4658 7.888 44.1058 7.808 44.7991 7.808C45.8125 7.808 46.5858 8.00533 47.1191 8.4C47.6631 8.784 47.9351 9.33333 47.9351 10.048C47.9351 10.5493 47.7645 10.9813 47.4231 11.344C47.0818 11.696 46.6285 11.9093 46.0631 11.984V11.776C46.7031 11.808 47.2205 12.0053 47.6151 12.368C48.0098 12.72 48.2071 13.1893 48.2071 13.776C48.2071 14.4907 47.9085 15.0667 47.3111 15.504C46.7138 15.9307 45.8391 16.144 44.6871 16.144ZM50.1543 16V7.952H51.4823V14.624H51.0503L56.0423 7.952H57.2583V16H55.9303V9.312H56.3783L51.3703 16H50.1543ZM59.748 16V7.952H61.188V11.28H65.444V7.952H66.884V16H65.444V12.432H61.188V16H59.748Z" fill="#1A1A1A"/>
<rect x="0.5" y="30.5" width="199" height="43" rx="7.5" stroke="#E8E8E8"/>
<path d="M17.376 58V46.72H21.968C23.184 46.72 24.1173 46.976 24.768 47.488C25.4187 48 25.744 48.72 25.744 49.648C25.744 50.352 25.5307 50.9387 25.104 51.408C24.688 51.8773 24.1173 52.192 23.392 52.352V52.112C24.224 52.208 24.8693 52.496 25.328 52.976C25.7973 53.456 26.032 54.0907 26.032 54.88C26.032 55.8827 25.696 56.656 25.024 57.2C24.352 57.7333 23.4027 58 22.176 58H17.376ZM18.816 56.816H22.032C22.8213 56.816 23.44 56.6667 23.888 56.368C24.3467 56.0587 24.576 55.552 24.576 54.848C24.576 54.1333 24.3467 53.6267 23.888 53.328C23.44 53.0293 22.8213 52.88 22.032 52.88H18.816V56.816ZM18.816 51.696H21.76C22.6027 51.696 23.232 51.536 23.648 51.216C24.064 50.8853 24.272 50.4107 24.272 49.792C24.272 49.1733 24.064 48.704 23.648 48.384C23.232 48.0533 22.6027 47.888 21.76 47.888H18.816V51.696ZM31.6739 58.144C30.8739 58.144 30.1805 57.9787 29.5939 57.648C29.0072 57.3067 28.5485 56.8213 28.2179 56.192C27.8979 55.552 27.7379 54.7947 27.7379 53.92C27.7379 53.056 27.9032 52.32 28.2339 51.712C28.5645 51.0933 29.0232 50.624 29.6099 50.304C30.1965 49.9733 30.8845 49.808 31.6739 49.808C32.1965 49.808 32.7032 49.8987 33.1939 50.08C33.6845 50.2507 34.0845 50.5013 34.3939 50.832L33.8979 51.856C33.5885 51.5573 33.2472 51.3387 32.8739 51.2C32.5005 51.0507 32.1325 50.976 31.7699 50.976C30.9805 50.976 30.3619 51.232 29.9139 51.744C29.4659 52.2453 29.2419 52.976 29.2419 53.936C29.2419 54.9067 29.4659 55.6533 29.9139 56.176C30.3619 56.6987 30.9805 56.96 31.7699 56.96C32.1219 56.96 32.4845 56.8907 32.8579 56.752C33.2312 56.6133 33.5779 56.3947 33.8979 56.096L34.3939 57.104C34.0739 57.4453 33.6632 57.7067 33.1619 57.888C32.6712 58.0587 32.1752 58.144 31.6739 58.144ZM40.0069 58.144C38.7269 58.144 37.7135 57.776 36.9669 57.04C36.2309 56.304 35.8629 55.2907 35.8629 54C35.8629 53.1467 36.0229 52.4107 36.3429 51.792C36.6735 51.1627 37.1269 50.6773 37.7029 50.336C38.2789 49.984 38.9509 49.808 39.7189 49.808C40.4549 49.808 41.0789 49.968 41.5909 50.288C42.1029 50.5973 42.4922 51.04 42.7589 51.616C43.0255 52.192 43.1589 52.8747 43.1589 53.664V54.144H36.9989V53.28H42.1669L41.8949 53.488C41.8949 52.656 41.7082 52.0107 41.3349 51.552C40.9722 51.0933 40.4335 50.864 39.7189 50.864C38.9402 50.864 38.3375 51.136 37.9109 51.68C37.4842 52.2133 37.2709 52.944 37.2709 53.872V54.016C37.2709 54.9973 37.5109 55.7387 37.9909 56.24C38.4815 56.7413 39.1589 56.992 40.0229 56.992C40.5029 56.992 40.9509 56.9227 41.3669 56.784C41.7829 56.6453 42.1829 56.416 42.5669 56.096L43.0469 57.104C42.6842 57.4347 42.2309 57.6907 41.6869 57.872C41.1535 58.0533 40.5935 58.144 40.0069 58.144Z" fill="#8C8C8C"/>
<path d="M172 49L178 55L184 49" stroke="#1A1A1A" stroke-width="2" stroke-linecap="round"/>
<path d="M217.376 16V4.72H225.072V5.92H218.816V9.648H222.32C223.536 9.648 224.48 9.91467 225.152 10.448C225.835 10.9707 226.176 11.7547 226.176 12.8C226.176 13.8453 225.835 14.64 225.152 15.184C224.48 15.728 223.536 16 222.32 16H217.376ZM218.816 14.816H222.16C223.035 14.816 223.675 14.6507 224.08 14.32C224.496 13.9893 224.704 13.488 224.704 12.816C224.704 12.144 224.496 11.648 224.08 11.328C223.675 10.9973 223.035 10.832 222.16 10.832H218.816V14.816ZM228.171 19.456V9.856C228.171 9.54667 228.16 9.232 228.139 8.912C228.118 8.592 228.086 8.272 228.043 7.952H229.451L229.627 9.808H229.451C229.611 9.18933 229.952 8.704 230.475 8.352C230.998 7.98933 231.622 7.808 232.347 7.808C233.062 7.808 233.686 7.97333 234.219 8.304C234.752 8.63467 235.163 9.11467 235.451 9.744C235.75 10.3627 235.899 11.104 235.899 11.968C235.899 12.832 235.75 13.5787 235.451 14.208C235.163 14.8373 234.752 15.3173 234.219 15.648C233.686 15.9787 233.062 16.144 232.347 16.144C231.632 16.144 231.014 15.968 230.491 15.616C229.979 15.2533 229.632 14.768 229.451 14.16H229.627V19.456H228.171ZM232.011 14.992C232.747 14.992 233.334 14.736 233.771 14.224C234.208 13.712 234.427 12.96 234.427 11.968C234.427 10.976 234.208 10.2293 233.771 9.728C233.334 9.22667 232.747 8.976 232.011 8.976C231.275 8.976 230.688 9.22667 230.251 9.728C229.824 10.2293 229.611 10.976 229.611 11.968C229.611 12.96 229.824 13.712 230.251 14.224C230.688 14.736 231.275 14.992 232.011 14.992ZM241.694 16.144C240.414 16.144 239.401 15.776 238.654 15.04C237.918 14.304 237.55 13.2907 237.55 12C237.55 11.1467 237.71 10.4107 238.03 9.792C238.361 9.16267 238.814 8.67733 239.39 8.336C239.966 7.984 240.638 7.808 241.406 7.808C242.142 7.808 242.766 7.968 243.278 8.288C243.79 8.59733 244.18 9.04 244.446 9.616C244.713 10.192 244.846 10.8747 244.846 11.664V12.144H238.686V11.28H243.854L243.582 11.488C243.582 10.656 243.396 10.0107 243.022 9.552C242.66 9.09333 242.121 8.864 241.406 8.864C240.628 8.864 240.025 9.136 239.598 9.68C239.172 10.2133 238.958 10.944 238.958 11.872V12.016C238.958 12.9973 239.198 13.7387 239.678 14.24C240.169 14.7413 240.846 14.992 241.71 14.992C242.19 14.992 242.638 14.9227 243.054 14.784C243.47 14.6453 243.87 14.416 244.254 14.096L244.734 15.104C244.372 15.4347 243.918 15.6907 243.374 15.872C242.841 16.0533 242.281 16.144 241.694 16.144ZM246.873 16V7.952H248.313V11.28H252.569V7.952H254.009V16H252.569V12.432H248.313V16H246.873ZM255.666 18.08V14.864H256.546C256.909 14.32 257.17 13.68 257.33 12.944C257.501 12.208 257.586 11.3333 257.586 10.32V7.952H263.362V14.864H264.642V18.08H263.394V16H256.93V18.08H255.666ZM257.922 14.88H262.002V9.072H258.866V10.576C258.866 11.3867 258.786 12.176 258.626 12.944C258.466 13.7013 258.231 14.3467 257.922 14.88ZM266.326 16V7.952H267.766V10.8H270.134C271.179 10.8 271.963 11.024 272.486 11.472C273.019 11.9093 273.286 12.544 273.286 13.376C273.286 13.9093 273.163 14.3733 272.918 14.768C272.673 15.1627 272.315 15.4667 271.846 15.68C271.377 15.8933 270.806 16 270.134 16H266.326ZM267.766 14.992H269.974C270.614 14.992 271.094 14.864 271.414 14.608C271.745 14.3413 271.91 13.936 271.91 13.392C271.91 12.848 271.745 12.448 271.414 12.192C271.094 11.936 270.614 11.808 269.974 11.808H267.766V14.992ZM274.454 16V7.952H275.894V16H274.454Z" fill="#1A1A1A"/>
<rect x="216.5" y="30.5" width="199" height="43" rx="7.5" stroke="#E8E8E8"/>
<path d="M233.376 58V46.72H237.968C239.184 46.72 240.117 46.976 240.768 47.488C241.419 48 241.744 48.72 241.744 49.648C241.744 50.352 241.531 50.9387 241.104 51.408C240.688 51.8773 240.117 52.192 239.392 52.352V52.112C240.224 52.208 240.869 52.496 241.328 52.976C241.797 53.456 242.032 54.0907 242.032 54.88C242.032 55.8827 241.696 56.656 241.024 57.2C240.352 57.7333 239.403 58 238.176 58H233.376ZM234.816 56.816H238.032C238.821 56.816 239.44 56.6667 239.888 56.368C240.347 56.0587 240.576 55.552 240.576 54.848C240.576 54.1333 240.347 53.6267 239.888 53.328C239.44 53.0293 238.821 52.88 238.032 52.88H234.816V56.816ZM234.816 51.696H237.76C238.603 51.696 239.232 51.536 239.648 51.216C240.064 50.8853 240.272 50.4107 240.272 49.792C240.272 49.1733 240.064 48.704 239.648 48.384C239.232 48.0533 238.603 47.888 237.76 47.888H234.816V51.696ZM247.674 58.144C246.874 58.144 246.181 57.9787 245.594 57.648C245.007 57.3067 244.549 56.8213 244.218 56.192C243.898 55.552 243.738 54.7947 243.738 53.92C243.738 53.056 243.903 52.32 244.234 51.712C244.565 51.0933 245.023 50.624 245.61 50.304C246.197 49.9733 246.885 49.808 247.674 49.808C248.197 49.808 248.703 49.8987 249.194 50.08C249.685 50.2507 250.085 50.5013 250.394 50.832L249.898 51.856C249.589 51.5573 249.247 51.3387 248.874 51.2C248.501 51.0507 248.133 50.976 247.77 50.976C246.981 50.976 246.362 51.232 245.914 51.744C245.466 52.2453 245.242 52.976 245.242 53.936C245.242 54.9067 245.466 55.6533 245.914 56.176C246.362 56.6987 246.981 56.96 247.77 56.96C248.122 56.96 248.485 56.8907 248.858 56.752C249.231 56.6133 249.578 56.3947 249.898 56.096L250.394 57.104C250.074 57.4453 249.663 57.7067 249.162 57.888C248.671 58.0587 248.175 58.144 247.674 58.144ZM256.007 58.144C254.727 58.144 253.714 57.776 252.967 57.04C252.231 56.304 251.863 55.2907 251.863 54C251.863 53.1467 252.023 52.4107 252.343 51.792C252.674 51.1627 253.127 50.6773 253.703 50.336C254.279 49.984 254.951 49.808 255.719 49.808C256.455 49.808 257.079 49.968 257.591 50.288C258.103 50.5973 258.492 51.04 258.759 51.616C259.026 52.192 259.159 52.8747 259.159 53.664V54.144H252.999V53.28H258.167L257.895 53.488C257.895 52.656 257.708 52.0107 257.335 51.552C256.972 51.0933 256.434 50.864 255.719 50.864C254.94 50.864 254.338 51.136 253.911 51.68C253.484 52.2133 253.271 52.944 253.271 53.872V54.016C253.271 54.9973 253.511 55.7387 253.991 56.24C254.482 56.7413 255.159 56.992 256.023 56.992C256.503 56.992 256.951 56.9227 257.367 56.784C257.783 56.6453 258.183 56.416 258.567 56.096L259.047 57.104C258.684 57.4347 258.231 57.6907 257.687 57.872C257.154 58.0533 256.594 58.144 256.007 58.144Z" fill="#8C8C8C"/>
<path d="M388 49L394 55L400 49" stroke="#1A1A1A" stroke-width="2" stroke-linecap="round"/>
<path d="M433.376 16V4.72H440.72V5.968H434.864V16H433.376ZM440.952 19.456V9.856C440.952 9.54667 440.942 9.232 440.92 8.912C440.899 8.592 440.867 8.272 440.824 7.952H442.232L442.408 9.808H442.232C442.392 9.18933 442.734 8.704 443.256 8.352C443.779 7.98933 444.403 7.808 445.128 7.808C445.843 7.808 446.467 7.97333 447 8.304C447.534 8.63467 447.944 9.11467 448.232 9.744C448.531 10.3627 448.68 11.104 448.68 11.968C448.68 12.832 448.531 13.5787 448.232 14.208C447.944 14.8373 447.534 15.3173 447 15.648C446.467 15.9787 445.843 16.144 445.128 16.144C444.414 16.144 443.795 15.968 443.272 15.616C442.76 15.2533 442.414 14.768 442.232 14.16H442.408V19.456H440.952ZM444.792 14.992C445.528 14.992 446.115 14.736 446.552 14.224C446.99 13.712 447.208 12.96 447.208 11.968C447.208 10.976 446.99 10.2293 446.552 9.728C446.115 9.22667 445.528 8.976 444.792 8.976C444.056 8.976 443.47 9.22667 443.032 9.728C442.606 10.2293 442.392 10.976 442.392 11.968C442.392 12.96 442.606 13.712 443.032 14.224C443.47 14.736 444.056 14.992 444.792 14.992ZM450.43 19.632L450.094 18.448C450.596 18.3307 451.012 18.192 451.342 18.032C451.673 17.8827 451.95 17.6853 452.174 17.44C452.398 17.1947 452.596 16.8853 452.766 16.512L453.166 15.552L453.134 16.16L449.63 7.952H451.198L453.998 14.848H453.582L456.382 7.952H457.886L454.19 16.624C453.966 17.1467 453.721 17.584 453.454 17.936C453.198 18.288 452.916 18.576 452.606 18.8C452.308 19.024 451.977 19.2 451.614 19.328C451.252 19.456 450.857 19.5573 450.43 19.632ZM459.357 16V7.952H466.445V16H465.005V9.088H460.797V16H459.357ZM468.936 16V7.952H476.024V16H474.584V9.088H470.376V16H468.936ZM478.514 16V7.952H479.954V10.8H482.322C483.367 10.8 484.151 11.024 484.674 11.472C485.207 11.9093 485.474 12.544 485.474 13.376C485.474 13.9093 485.351 14.3733 485.106 14.768C484.86 15.1627 484.503 15.4667 484.034 15.68C483.564 15.8933 482.994 16 482.322 16H478.514ZM479.954 14.992H482.162C482.802 14.992 483.282 14.864 483.602 14.608C483.932 14.3413 484.098 13.936 484.098 13.392C484.098 12.848 483.932 12.448 483.602 12.192C483.282 11.936 482.802 11.808 482.162 11.808H479.954V14.992ZM486.642 16V7.952H488.082V16H486.642Z" fill="#1A1A1A"/>
<rect x="432.5" y="30.5" width="199" height="43" rx="7.5" stroke="#E8E8E8"/>
<path d="M449.376 58V46.72H453.968C455.184 46.72 456.117 46.976 456.768 47.488C457.419 48 457.744 48.72 457.744 49.648C457.744 50.352 457.531 50.9387 457.104 51.408C456.688 51.8773 456.117 52.192 455.392 52.352V52.112C456.224 52.208 456.869 52.496 457.328 52.976C457.797 53.456 458.032 54.0907 458.032 54.88C458.032 55.8827 457.696 56.656 457.024 57.2C456.352 57.7333 455.403 58 454.176 58H449.376ZM450.816 56.816H454.032C454.821 56.816 455.44 56.6667 455.888 56.368C456.347 56.0587 456.576 55.552 456.576 54.848C456.576 54.1333 456.347 53.6267 455.888 53.328C455.44 53.0293 454.821 52.88 454.032 52.88H450.816V56.816ZM450.816 51.696H453.76C454.603 51.696 455.232 51.536 455.648 51.216C456.064 50.8853 456.272 50.4107 456.272 49.792C456.272 49.1733 456.064 48.704 455.648 48.384C455.232 48.0533 454.603 47.888 453.76 47.888H450.816V51.696ZM463.674 58.144C462.874 58.144 462.181 57.9787 461.594 57.648C461.007 57.3067 460.549 56.8213 460.218 56.192C459.898 55.552 459.738 54.7947 459.738 53.92C459.738 53.056 459.903 52.32 460.234 51.712C460.565 51.0933 461.023 50.624 461.61 50.304C462.197 49.9733 462.885 49.808 463.674 49.808C464.197 49.808 464.703 49.8987 465.194 50.08C465.685 50.2507 466.085 50.5013 466.394 50.832L465.898 51.856C465.589 51.5573 465.247 51.3387 464.874 51.2C464.501 51.0507 464.133 50.976 463.77 50.976C462.981 50.976 462.362 51.232 461.914 51.744C461.466 52.2453 461.242 52.976 461.242 53.936C461.242 54.9067 461.466 55.6533 461.914 56.176C462.362 56.6987 462.981 56.96 463.77 56.96C464.122 56.96 464.485 56.8907 464.858 56.752C465.231 56.6133 465.578 56.3947 465.898 56.096L466.394 57.104C466.074 57.4453 465.663 57.7067 465.162 57.888C464.671 58.0587 464.175 58.144 463.674 58.144ZM472.007 58.144C470.727 58.144 469.714 57.776 468.967 57.04C468.231 56.304 467.863 55.2907 467.863 54C467.863 53.1467 468.023 52.4107 468.343 51.792C468.674 51.1627 469.127 50.6773 469.703 50.336C470.279 49.984 470.951 49.808 471.719 49.808C472.455 49.808 473.079 49.968 473.591 50.288C474.103 50.5973 474.492 51.04 474.759 51.616C475.026 52.192 475.159 52.8747 475.159 53.664V54.144H468.999V53.28H474.167L473.895 53.488C473.895 52.656 473.708 52.0107 473.335 51.552C472.972 51.0933 472.434 50.864 471.719 50.864C470.94 50.864 470.338 51.136 469.911 51.68C469.484 52.2133 469.271 52.944 469.271 53.872V54.016C469.271 54.9973 469.511 55.7387 469.991 56.24C470.482 56.7413 471.159 56.992 472.023 56.992C472.503 56.992 472.951 56.9227 473.367 56.784C473.783 56.6453 474.183 56.416 474.567 56.096L475.047 57.104C474.684 57.4347 474.231 57.6907 473.687 57.872C473.154 58.0533 472.594 58.144 472.007 58.144Z" fill="#8C8C8C"/>
<path d="M604 49L610 55L616 49" stroke="#1A1A1A" stroke-width="2" stroke-linecap="round"/>
<path d="M648.224 16L653.216 4.72H654.512L659.584 16H658.048L656.656 12.8L657.296 13.184H650.432L651.136 12.8L649.744 16H648.224ZM653.84 6.384L651.344 12.304L650.96 11.968H656.768L656.464 12.304L653.904 6.384H653.84ZM661.109 19.456V9.856C661.109 9.54667 661.098 9.232 661.077 8.912C661.055 8.592 661.023 8.272 660.981 7.952H662.389L662.565 9.808H662.389C662.549 9.18933 662.89 8.704 663.413 8.352C663.935 7.98933 664.559 7.808 665.285 7.808C665.999 7.808 666.623 7.97333 667.157 8.304C667.69 8.63467 668.101 9.11467 668.389 9.744C668.687 10.3627 668.837 11.104 668.837 11.968C668.837 12.832 668.687 13.5787 668.389 14.208C668.101 14.8373 667.69 15.3173 667.157 15.648C666.623 15.9787 665.999 16.144 665.285 16.144C664.57 16.144 663.951 15.968 663.429 15.616C662.917 15.2533 662.57 14.768 662.389 14.16H662.565V19.456H661.109ZM664.949 14.992C665.685 14.992 666.271 14.736 666.709 14.224C667.146 13.712 667.365 12.96 667.365 11.968C667.365 10.976 667.146 10.2293 666.709 9.728C666.271 9.22667 665.685 8.976 664.949 8.976C664.213 8.976 663.626 9.22667 663.189 9.728C662.762 10.2293 662.549 10.976 662.549 11.968C662.549 12.96 662.762 13.712 663.189 14.224C663.626 14.736 664.213 14.992 664.949 14.992ZM672.648 16V9.12H669.752V7.952H676.984V9.12H674.088V16H672.648ZM678.311 16V7.952H679.639V14.624H679.207L684.199 7.952H685.415V16H684.087V9.312H684.535L679.527 16H678.311ZM687.904 16V7.952H689.344V11.28H690.8L693.392 7.952H694.976L691.968 11.872L691.584 11.424C691.894 11.456 692.16 11.536 692.384 11.664C692.608 11.7813 692.822 11.9573 693.024 12.192C693.238 12.4267 693.467 12.7413 693.712 13.136L695.376 16H693.808L692.352 13.52C692.192 13.232 692.032 13.008 691.872 12.848C691.712 12.688 691.531 12.576 691.328 12.512C691.136 12.448 690.891 12.416 690.592 12.416H689.344V16H687.904ZM696.399 19.632L696.063 18.448C696.564 18.3307 696.98 18.192 697.311 18.032C697.642 17.8827 697.919 17.6853 698.143 17.44C698.367 17.1947 698.564 16.8853 698.735 16.512L699.135 15.552L699.103 16.16L695.599 7.952H697.167L699.967 14.848H699.551L702.351 7.952H703.855L700.159 16.624C699.935 17.1467 699.69 17.584 699.423 17.936C699.167 18.288 698.884 18.576 698.575 18.8C698.276 19.024 697.946 19.2 697.583 19.328C697.22 19.456 696.826 19.5573 696.399 19.632ZM704.458 16.192L703.946 15.056C704.319 14.8853 704.628 14.6827 704.874 14.448C705.13 14.2027 705.327 13.8933 705.466 13.52C705.615 13.1467 705.722 12.6827 705.786 12.128C705.85 11.5733 705.882 10.9013 705.882 10.112V7.952H711.818V16H710.378V9.088H707.226V10.144C707.226 11.3813 707.13 12.4053 706.938 13.216C706.756 14.016 706.463 14.6507 706.058 15.12C705.663 15.5893 705.13 15.9467 704.458 16.192ZM714.311 16V7.952H715.751V10.8H718.119C719.164 10.8 719.948 11.024 720.471 11.472C721.004 11.9093 721.271 12.544 721.271 13.376C721.271 13.9093 721.148 14.3733 720.903 14.768C720.657 15.1627 720.3 15.4667 719.831 15.68C719.361 15.8933 718.791 16 718.119 16H714.311ZM715.751 14.992H717.959C718.599 14.992 719.079 14.864 719.399 14.608C719.729 14.3413 719.895 13.936 719.895 13.392C719.895 12.848 719.729 12.448 719.399 12.192C719.079 11.936 718.599 11.808 717.959 11.808H715.751V14.992ZM722.439 16V7.952H723.879V16H722.439Z" fill="#1A1A1A"/>
<rect x="648.5" y="30.5" width="199" height="43" rx="7.5" stroke="#E8E8E8"/>
<path d="M665.376 58V46.72H669.968C671.184 46.72 672.117 46.976 672.768 47.488C673.419 48 673.744 48.72 673.744 49.648C673.744 50.352 673.531 50.9387 673.104 51.408C672.688 51.8773 672.117 52.192 671.392 52.352V52.112C672.224 52.208 672.869 52.496 673.328 52.976C673.797 53.456 674.032 54.0907 674.032 54.88C674.032 55.8827 673.696 56.656 673.024 57.2C672.352 57.7333 671.403 58 670.176 58H665.376ZM666.816 56.816H670.032C670.821 56.816 671.44 56.6667 671.888 56.368C672.347 56.0587 672.576 55.552 672.576 54.848C672.576 54.1333 672.347 53.6267 671.888 53.328C671.44 53.0293 670.821 52.88 670.032 52.88H666.816V56.816ZM666.816 51.696H669.76C670.603 51.696 671.232 51.536 671.648 51.216C672.064 50.8853 672.272 50.4107 672.272 49.792C672.272 49.1733 672.064 48.704 671.648 48.384C671.232 48.0533 670.603 47.888 669.76 47.888H666.816V51.696ZM679.674 58.144C678.874 58.144 678.181 57.9787 677.594 57.648C677.007 57.3067 676.549 56.8213 676.218 56.192C675.898 55.552 675.738 54.7947 675.738 53.92C675.738 53.056 675.903 52.32 676.234 51.712C676.565 51.0933 677.023 50.624 677.61 50.304C678.197 49.9733 678.885 49.808 679.674 49.808C680.197 49.808 680.703 49.8987 681.194 50.08C681.685 50.2507 682.085 50.5013 682.394 50.832L681.898 51.856C681.589 51.5573 681.247 51.3387 680.874 51.2C680.501 51.0507 680.133 50.976 679.77 50.976C678.981 50.976 678.362 51.232 677.914 51.744C677.466 52.2453 677.242 52.976 677.242 53.936C677.242 54.9067 677.466 55.6533 677.914 56.176C678.362 56.6987 678.981 56.96 679.77 56.96C680.122 56.96 680.485 56.8907 680.858 56.752C681.231 56.6133 681.578 56.3947 681.898 56.096L682.394 57.104C682.074 57.4453 681.663 57.7067 681.162 57.888C680.671 58.0587 680.175 58.144 679.674 58.144ZM688.007 58.144C686.727 58.144 685.714 57.776 684.967 57.04C684.231 56.304 683.863 55.2907 683.863 54C683.863 53.1467 684.023 52.4107 684.343 51.792C684.674 51.1627 685.127 50.6773 685.703 50.336C686.279 49.984 686.951 49.808 687.719 49.808C688.455 49.808 689.079 49.968 689.591 50.288C690.103 50.5973 690.492 51.04 690.759 51.616C691.026 52.192 691.159 52.8747 691.159 53.664V54.144H684.999V53.28H690.167L689.895 53.488C689.895 52.656 689.708 52.0107 689.335 51.552C688.972 51.0933 688.434 50.864 687.719 50.864C686.94 50.864 686.338 51.136 685.911 51.68C685.484 52.2133 685.271 52.944 685.271 53.872V54.016C685.271 54.9973 685.511 55.7387 685.991 56.24C686.482 56.7413 687.159 56.992 688.023 56.992C688.503 56.992 688.951 56.9227 689.367 56.784C689.783 56.6453 690.183 56.416 690.567 56.096L691.047 57.104C690.684 57.4347 690.231 57.6907 689.687 57.872C689.154 58.0533 688.594 58.144 688.007 58.144Z" fill="#8C8C8C"/>
<path d="M820 49L826 55L832 49" stroke="#1A1A1A" stroke-width="2" stroke-linecap="round"/>
</svg>
