<svg width="18" height="16" viewBox="0 0 18 16" fill="none" xmlns="http://www.w3.org/2000/svg">
<path d="M14.6291 4.04825C14.3028 4.30341 14.2451 4.77477 14.5003 5.10106C14.7555 5.42735 15.2268 5.48502 15.5531 5.22986L17.7082 3.54461C17.872 3.41655 17.9752 3.22627 17.9933 3.01917C18.0115 2.81208 17.9428 2.60675 17.8038 2.4522L15.9741 0.418325C15.697 0.110382 15.2228 0.0853219 14.9149 0.36235C14.6069 0.639379 14.5819 1.11359 14.8589 1.42153L15.6042 2.24997H14C12.085 2.24997 10.3887 3.18611 9.34364 4.62572C9.69636 5.07912 9.97965 5.5892 10.1775 6.13999C10.8674 4.72494 12.3198 3.74997 14 3.74997H15.0105L14.6291 4.04825Z" fill="#5329FF"/>
<path d="M7.82246 9.85995C8.02035 10.4107 8.30364 10.9208 8.65636 11.3742C7.61133 12.8138 5.91499 13.75 4 13.75H1C0.585786 13.75 0.25 13.4142 0.25 13C0.25 12.5858 0.585786 12.25 1 12.25H4C5.68017 12.25 7.13262 11.275 7.82246 9.85995Z" fill="#5329FF"/>
<path d="M0.25 2.99997C0.25 2.58576 0.585786 2.24997 1 2.24997H4C7.17564 2.24997 9.75 4.82433 9.75 7.99997C9.75 10.3472 11.6528 12.25 14 12.25H15.0105L14.6291 11.9517C14.3028 11.6965 14.2451 11.2252 14.5003 10.8989C14.7555 10.5726 15.2268 10.5149 15.5531 10.7701L17.7082 12.4553C17.872 12.5834 17.9752 12.7737 17.9933 12.9808C18.0115 13.1879 17.9428 13.3932 17.8038 13.5478L15.9741 15.5816C15.697 15.8896 15.2228 15.9146 14.9149 15.6376C14.6069 15.3606 14.5819 14.8864 14.8589 14.5784L15.6042 13.75H14C10.8244 13.75 8.25 11.1756 8.25 7.99997C8.25 5.65276 6.34721 3.74997 4 3.74997H1C0.585786 3.74997 0.25 3.41419 0.25 2.99997Z" fill="#5329FF"/>
</svg>
